<svg xmlns="http://www.w3.org/2000/svg" xmlns:xlink="http://www.w3.org/1999/xlink" width="287.35587pt" height="59.72435pt" viewBox="-1.41422 -29.85826 287.35587 59.72435 "> 
<g transform="translate(0, 29.86609 ) scale(1,-1) translate(0,29.85826 )"> 
        <g> 
 <g stroke="rgb(0.0%,0.0%,0.0%)"> 
 <g fill="rgb(0.0%,0.0%,0.0%)"> 
 <g stroke-width="0.4pt"> 
 <g> 
 </g> 
 <g> 
 <path d=" M  0.0 0.0 C  0.0 0.0 10.81976 10.8637 14.97528 14.29323 C  19.1308 17.72276 25.79462 22.75323 29.95013 24.71771 C  34.10565 26.68219 40.7699 28.48422 44.92542 28.45187 C  49.08093 28.41953 55.74477 26.50494 59.90028 24.48456 C  64.0558 22.46417 70.72005 17.35185 74.87556 13.89034 C  79.03108 10.42882 85.6949 3.5021 89.85042 -0.46367 C  94.00594 -4.42944 100.67014 -11.29558 104.82571 -14.69221 C  108.9813 -18.08885 115.64542 -23.0363 119.801 -24.94434 C  123.95657 -26.85237 130.62076 -28.54102 134.77628 -28.44405 C  138.9318 -28.34708 145.59563 -26.32103 149.75114 -24.24535 C  153.90666 -22.16966 160.57085 -16.97662 164.72643 -13.48396 C  168.882 -9.9913 175.54613 -3.03691 179.7017 0.92735 C  183.85728 4.89162 190.52148 11.72495 194.677 15.08772 C  198.83252 18.4505 205.49634 23.31291 209.65186 25.16402 C  213.80737 27.01512 220.47162 28.5909 224.62714 28.42929 C  228.78265 28.26768 235.44649 26.12979 239.602 23.99918 C  243.75752 21.86856 250.42177 16.5961 254.57729 13.07326 C  258.7328 9.55042 265.39662 2.57053 269.55214 -1.39102 C  273.70766 -5.35257 284.52744 -15.4789 284.52744 -15.4789  " style="fill:none"/> 
 <g> 
 <path d=" M  -1.41422 -1.41422 L  1.41422 1.41422 M  -1.41422 1.41422 L  1.41422 -1.41422  " style="fill:none"/> 
 <path d=" M  13.56107 12.87901 L  16.3895 15.70744 M  13.56107 15.70744 L  16.3895 12.87901  " style="fill:none"/> 
 <path d=" M  28.53592 23.3035 L  31.36435 26.13193 M  28.53592 26.13193 L  31.36435 23.3035  " style="fill:none"/> 
 <path d=" M  43.5112 27.03766 L  46.33963 29.86609 M  43.5112 29.86609 L  46.33963 27.03766  " style="fill:none"/> 
 <path d=" M  58.48607 23.07034 L  61.3145 25.89877 M  58.48607 25.89877 L  61.3145 23.07034  " style="fill:none"/> 
 <path d=" M  73.46135 12.47612 L  76.28978 15.30455 M  73.46135 15.30455 L  76.28978 12.47612  " style="fill:none"/> 
 <path d=" M  88.4362 -1.87788 L  91.26463 0.95055 M  88.4362 0.95055 L  91.26463 -1.87788  " style="fill:none"/> 
 <path d=" M  103.4115 -16.10643 L  106.23993 -13.278 M  103.4115 -13.278 L  106.23993 -16.10643  " style="fill:none"/> 
 <path d=" M  118.38678 -26.35855 L  121.21521 -23.53012 M  118.38678 -23.53012 L  121.21521 -26.35855  " style="fill:none"/> 
 <path d=" M  133.36206 -29.85826 L  136.19049 -27.02983 M  133.36206 -27.02983 L  136.19049 -29.85826  " style="fill:none"/> 
 <path d=" M  148.33693 -25.65956 L  151.16536 -22.83113 M  148.33693 -22.83113 L  151.16536 -25.65956  " style="fill:none"/> 
 <path d=" M  163.31221 -14.89818 L  166.14064 -12.06975 M  163.31221 -12.06975 L  166.14064 -14.89818  " style="fill:none"/> 
 <path d=" M  178.28749 -0.48686 L  181.11592 2.34157 M  178.28749 2.34157 L  181.11592 -0.48686  " style="fill:none"/> 
 <path d=" M  193.26279 13.67351 L  196.09122 16.50194 M  193.26279 16.50194 L  196.09122 13.67351  " style="fill:none"/> 
 <path d=" M  208.23764 23.7498 L  211.06607 26.57823 M  208.23764 26.57823 L  211.06607 23.7498  " style="fill:none"/> 
 <path d=" M  223.21292 27.01508 L  226.04135 29.8435 M  223.21292 29.8435 L  226.04135 27.01508  " style="fill:none"/> 
 <path d=" M  238.18779 22.58496 L  241.01622 25.41339 M  238.18779 25.41339 L  241.01622 22.58496  " style="fill:none"/> 
 <path d=" M  253.16307 11.65904 L  255.9915 14.48747 M  253.16307 14.48747 L  255.9915 11.65904  " style="fill:none"/> 
 <path d=" M  268.13792 -2.80524 L  270.96635 0.0232 M  268.13792 0.0232 L  270.96635 -2.80524  " style="fill:none"/> 
 <path d=" M  283.11322 -16.89311 L  285.94165 -14.06468 M  283.11322 -14.06468 L  285.94165 -16.89311  " style="fill:none"/> 
 </g> 
 </g> 
 </g> 
 </g> 
 </g> 
 </g> 
 
                                                                                      </g> 
</svg> 
