<svg xmlns="http://www.w3.org/2000/svg" xmlns:xlink="http://www.w3.org/1999/xlink" width="57.30548pt" height="52.0665pt" viewBox="-0.2 -0.2 57.30548 52.0665 "> 
<g transform="translate(0, 51.8665 ) scale(1,-1) translate(0,0.2 )"> 
        <g> 
 <g stroke="rgb(0.0%,0.0%,0.0%)"> 
 <g fill="rgb(0.0%,0.0%,0.0%)"> 
 <g stroke-width="0.4pt"> 
 <g> 
 </g> 
 <g> 
 <g> 
 <path d=" M  0.0 51.6665 L  53.30554 51.6665  " style="fill:none"/> 
 <g> 
 <g transform="matrix(1.0,0.0,0.0,1.0,53.30554,51.6665)"> 
 <g> 
 <path d=" M  3.59995 0.0 C  2.53328 0.2 0.79999 0.79999 -0.4 1.49997 L  -0.4 -1.49997 C  0.79999 -0.79999 2.53328 -0.2 3.59995 0.0  " style="stroke:none"/> 
 </g> 
 </g> 
 </g> 
 <path d=" M  0.4 43.05542 L  53.30554 43.05542  " style="fill:none"/> 
 <g> 
 <g transform="matrix(-1.0,0.0,0.0,-1.0,0.4,43.05542)"> 
 <g> 
 <g transform="matrix(-1.0,0.0,0.0,1.0,0.0,0.0)"> 
 <path d=" M  3.59995 0.0 C  2.53328 0.2 0.79999 0.79999 -0.4 1.49997 L  -0.4 -1.49997 C  0.79999 -0.79999 2.53328 -0.2 3.59995 0.0  " style="stroke:none"/> 
 </g> 
 </g> 
 </g> 
 </g> 
 <g> 
 <g transform="matrix(1.0,0.0,0.0,1.0,53.30554,43.05542)"> 
 <g> 
 <g> 
 <path d=" M  3.59995 0.0 C  2.53328 0.2 0.79999 0.79999 -0.4 1.49997 L  -0.4 -1.49997 C  0.79999 -0.79999 2.53328 -0.2 3.59995 0.0  " style="stroke:none"/> 
 </g> 
 <g transform="matrix(1.0,0.0,0.0,1.0,-4.39993,0.0)"> 
 <path d=" M  3.59995 0.0 C  2.53328 0.2 0.79999 0.79999 -0.4 1.49997 L  -0.4 -1.49997 C  0.79999 -0.79999 2.53328 -0.2 3.59995 0.0  " style="stroke:none"/> 
 </g> 
 </g> 
 </g> 
 </g> 
 <path d=" M  3.99992 34.44434 L  52.90556 34.44434  " style="fill:none"/> 
 <g> 
 <g transform="matrix(-1.0,0.0,0.0,-1.0,3.99992,34.44434)"> 
 <g> 
 <g> 
 <g transform="matrix(1.0,0.0,0.0,1.0,3.69994,0.0)"> 
 <g stroke-dasharray="none" stroke-dashoffset="0.0pt"> 
 <g stroke-linecap="square"> 
 <path d=" M  0.09999 -2.59999 L  0.09999 2.59999  " style="fill:none"/> 
 </g> 
 </g> 
 </g> 
 </g> 
 <path d=" M  3.59995 0.0 C  2.53328 0.2 0.79999 0.79999 -0.4 1.49997 L  -0.4 -1.49997 C  0.79999 -0.79999 2.53328 -0.2 3.59995 0.0  " style="stroke:none"/> 
 </g> 
 </g> 
 </g> 
 <g> 
 <g transform="matrix(1.0,0.0,0.0,1.0,52.90556,34.44434)"> 
 <g> 
 <g> 
 <g transform="matrix(1.0,0.0,0.0,1.0,3.69994,0.0)"> 
 <g stroke-dasharray="none" stroke-dashoffset="0.0pt"> 
 <g stroke-linecap="square"> 
 <path d=" M  0.09999 -2.59999 L  0.09999 2.59999  " style="fill:none"/> 
 </g> 
 </g> 
 </g> 
 </g> 
 <path d=" M  3.59995 0.0 C  2.53328 0.2 0.79999 0.79999 -0.4 1.49997 L  -0.4 -1.49997 C  0.79999 -0.79999 2.53328 -0.2 3.59995 0.0  " style="stroke:none"/> 
 </g> 
 </g> 
 </g> 
 </g> 
 <g> 
 <path d=" M  0.0 17.22217 L  56.19551 17.22217  " style="fill:none"/> 
 <g> 
 <g transform="matrix(1.0,0.0,0.0,1.0,56.19551,17.22217)"> 
 <g> 
 <g stroke-dasharray="none" stroke-dashoffset="0.0pt"> 
 <g stroke-linejoin="round"> 
 <path d=" M  0.50998 0.0 L  -3.05988 2.03992 L  -6.62973 0.0 L  -3.05988 -2.03992 Z  " /> 
 </g> 
 </g> 
 </g> 
 </g> 
 </g> 
 <path d=" M  6.82973 8.61108 L  56.19551 8.61108  " style="fill:none"/> 
 <g> 
 <g transform="matrix(-1.0,0.0,0.0,-1.0,6.82973,8.61108)"> 
 <g> 
 <g transform="matrix(-1.0,0.0,0.0,1.0,0.0,0.0)"> 
 <g stroke-dasharray="none" stroke-dashoffset="0.0pt"> 
 <g stroke-linejoin="round"> 
 <path d=" M  0.50998 0.0 L  -3.05988 2.03992 L  -6.62973 0.0 L  -3.05988 -2.03992 Z  " /> 
 </g> 
 </g> 
 </g> 
 </g> 
 </g> 
 </g> 
 <g> 
 <g transform="matrix(1.0,0.0,0.0,1.0,56.19551,8.61108)"> 
 <g> 
 <g> 
 <g stroke-dasharray="none" stroke-dashoffset="0.0pt"> 
 <g stroke-linejoin="round"> 
 <path d=" M  0.50998 0.0 L  -3.05988 2.03992 L  -6.62973 0.0 L  -3.05988 -2.03992 Z  " /> 
 </g> 
 </g> 
 </g> 
 <g transform="matrix(1.0,0.0,0.0,1.0,-7.9397,0.0)"> 
 <g stroke-dasharray="none" stroke-dashoffset="0.0pt"> 
 <g stroke-linejoin="round"> 
 <path d=" M  0.50998 0.0 L  -3.05988 2.03992 L  -6.62973 0.0 L  -3.05988 -2.03992 Z  " /> 
 </g> 
 </g> 
 </g> 
 </g> 
 </g> 
 </g> 
 <path d=" M  1.10995 0.0 L  55.79553 0.0  " style="fill:none"/> 
 <g> 
 <g transform="matrix(-1.0,0.0,0.0,-1.0,1.10995,0.0)"> 
 <g> 
 <g> 
 <g transform="matrix(1.0,0.0,0.0,1.0,0.80997,0.0)"> 
 <g stroke-dasharray="none" stroke-dashoffset="0.0pt"> 
 <g stroke-linecap="square"> 
 <path d=" M  0.09999 -2.59999 L  0.09999 2.59999  " style="fill:none"/> 
 </g> 
 </g> 
 </g> 
 </g> 
 <g stroke-dasharray="none" stroke-dashoffset="0.0pt"> 
 <g stroke-linejoin="round"> 
 <path d=" M  0.50998 0.0 L  -3.05988 2.03992 L  -6.62973 0.0 L  -3.05988 -2.03992 Z  " /> 
 </g> 
 </g> 
 </g> 
 </g> 
 </g> 
 <g> 
 <g transform="matrix(1.0,0.0,0.0,1.0,55.79553,0.0)"> 
 <g> 
 <g> 
 <g transform="matrix(1.0,0.0,0.0,1.0,0.80997,0.0)"> 
 <g stroke-dasharray="none" stroke-dashoffset="0.0pt"> 
 <g stroke-linecap="square"> 
 <path d=" M  0.09999 -2.59999 L  0.09999 2.59999  " style="fill:none"/> 
 </g> 
 </g> 
 </g> 
 </g> 
 <g stroke-dasharray="none" stroke-dashoffset="0.0pt"> 
 <g stroke-linejoin="round"> 
 <path d=" M  0.50998 0.0 L  -3.05988 2.03992 L  -6.62973 0.0 L  -3.05988 -2.03992 Z  " /> 
 </g> 
 </g> 
 </g> 
 </g> 
 </g> 
 </g> 
 </g> 
 </g> 
 </g> 
 </g> 
 </g> 
          </g> 
</svg> 
