<svg xmlns="http://www.w3.org/2000/svg" xmlns:xlink="http://www.w3.org/1999/xlink" width="91.86029pt" height="58.36807pt" viewBox="-31.70378 -0.2 91.86029 58.36807 "> 
<g transform="translate(0, 58.16808 ) scale(1,-1) translate(0,0.2 )"> 
                  <g> 
 <g stroke="rgb(0.0%,0.0%,0.0%)"> 
 <g fill="rgb(0.0%,0.0%,0.0%)"> 
 <g stroke-width="0.4pt"> 
 <g> 
 </g> 
 <g> 
 <g> 
 <g fill="rgb(80.0003%,80.0003%,16.00037%)"> 
 <g fill-rule="evenodd"> 
 <path d=" M  0.0 0.0 M  0.0 0.0 L  0.0 28.45274 L  28.45274 28.45274 L  28.45274 0.0 Z M  28.45274 28.45274 M  14.22636 14.22636 M  25.60728 14.22636 C  25.60728 20.54268 20.54268 25.60728 14.22636 25.60728 C  7.91005 25.60728 2.84544 20.54268 2.84544 14.22636 C  2.84544 7.91005 7.91005 2.84544 14.22636 2.84544 C  20.54268 2.84544 25.60728 7.91005 25.60728 14.22636 Z M  14.22636 14.22636  " /> 
 </g> 
 </g> 
 </g> 
 <path d=" M  14.22636 14.22636 L  14.22636 42.21912  " style="fill:none"/> 
 <g> 
 <g transform="matrix(0.0,1.0,-1.0,0.0,14.22636,42.21912)"> 
 <g> 
 <g stroke-width="0.31999pt"> 
 <g stroke-dasharray="none" stroke-dashoffset="0.0pt"> 
 <g stroke-linecap="round"> 
 <g stroke-linejoin="round"> 
 <path d=" M  -1.19998 1.59998 C  -1.09998 0.99998 0.0 0.09999 0.29999 0.0 C  0.0 -0.09999 -1.09998 -0.99998 -1.19998 -1.59998  " style="fill:none"/> 
 </g> 
 </g> 
 </g> 
 </g> 
 </g> 
 </g> 
 </g> 
 <g> 
 <g> 
 <g transform="matrix(1.0,0.0,0.0,1.0,-28.3708,48.15651)"> 
 <g fill="rgb(0.0%,0.0%,0.0%)"> 
 <text style="stroke:none" transform="scale(1,-1) translate(42.59717,0)" text-anchor="middle"  font-size="10"> 
crossings: 1 + 1 = 2</text> 
</g> 
 </g> 
 </g> 
 </g> 
 </g> 
 </g> 
 </g> 
 </g> 
 </g> 
  </g> 
</svg> 
