<svg xmlns="http://www.w3.org/2000/svg" xmlns:xlink="http://www.w3.org/1999/xlink" width="99.98459pt" height="67.2985pt" viewBox="-21.53955 -8.1851 99.98459 67.2985 "> 
<g transform="translate(0, 59.11339 ) scale(1,-1) translate(0,8.1851 )"> 
              <g> 
 <g stroke="rgb(0.0%,0.0%,0.0%)"> 
 <g fill="rgb(0.0%,0.0%,0.0%)"> 
 <g stroke-width="0.4pt"> 
 <g> 
 </g> 
 <g> 
 <g> 
 <g fill="rgb(80.0003%,80.0003%,16.00037%)"> 
 <path d=" M  0.0 0.0 M  56.90549 15.6491 M  28.45274 42.67911 M  56.90549 49.7923  " style="stroke:none"/> 
 <g> 
 <path d=" M  7.9851 0.0 C  7.9851 4.43167 4.43167 7.9851 0.0 7.9851 C  -4.43167 7.9851 -7.9851 4.43167 -7.9851 0.0 C  -7.9851 -4.43167 -4.43167 -7.9851 0.0 -7.9851 C  4.43167 -7.9851 7.9851 -4.43167 7.9851 0.0 Z M  0.0 0.0  " /> 
 <g> 
 <g transform="matrix(1.0,0.0,0.0,1.0,-2.5,-2.15277)"> 
 <g fill="rgb(0.0%,0.0%,0.0%)"> 
 <text style="stroke:none" transform="scale(1,-1) translate(2.5,0)" text-anchor="middle"  font-size="10"> 
a</text> 
</g> 
 </g> 
 </g> 
 </g> 
 <g> 
 <path d=" M  66.02658 15.6491 C  66.02658 20.71123 61.96762 24.77019 56.90549 24.77019 C  51.84335 24.77019 47.7844 20.71123 47.7844 15.6491 C  47.7844 10.58696 51.84335 6.528 56.90549 6.528 C  61.96762 6.528 66.02658 10.58696 66.02658 15.6491 Z M  56.90549 15.6491  " /> 
 <g> 
 <g transform="matrix(1.0,0.0,0.0,1.0,54.1277,12.17688)"> 
 <g fill="rgb(0.0%,0.0%,0.0%)"> 
 <text style="stroke:none" transform="scale(1,-1) translate(2.77779,0)" text-anchor="middle"  font-size="10"> 
b</text> 
</g> 
 </g> 
 </g> 
 </g> 
 <g> 
 <path d=" M  36.22374 42.67911 C  36.22374 46.99194 32.76558 50.4501 28.45274 50.4501 C  24.13991 50.4501 20.68175 46.99194 20.68175 42.67911 C  20.68175 38.36627 24.13991 34.90811 28.45274 34.90811 C  32.76558 34.90811 36.22374 38.36627 36.22374 42.67911 Z M  28.45274 42.67911  " /> 
 <g> 
 <g transform="matrix(1.0,0.0,0.0,1.0,26.23053,40.52634)"> 
 <g fill="rgb(0.0%,0.0%,0.0%)"> 
 <text style="stroke:none" transform="scale(1,-1) translate(2.22221,0)" text-anchor="middle"  font-size="10"> 
c</text> 
</g> 
 </g> 
 </g> 
 </g> 
 <g> 
 <path d=" M  66.02658 49.7923 C  66.02658 54.85443 61.96762 58.91339 56.90549 58.91339 C  51.84335 58.91339 47.7844 54.85443 47.7844 49.7923 C  47.7844 44.73016 51.84335 40.6712 56.90549 40.6712 C  61.96762 40.6712 66.02658 44.73016 66.02658 49.7923 Z M  56.90549 49.7923  " /> 
 <g> 
 <g transform="matrix(1.0,0.0,0.0,1.0,54.1277,46.32008)"> 
 <g fill="rgb(0.0%,0.0%,0.0%)"> 
 <text style="stroke:none" transform="scale(1,-1) translate(2.77779,0)" text-anchor="middle"  font-size="10"> 
d</text> 
</g> 
 </g> 
 </g> 
 </g> 
 </g> 
 </g> 
 <path d=" M  8.1851 0.0 C  21.33955 0.0 35.56593 15.6491 47.5844 15.6491  " style="fill:none"/> 
 <path d=" M  66.22658 15.6491 C  78.24504 15.6491 7.11319 42.67911 20.48175 42.67911  " style="fill:none"/> 
 <path d=" M  36.42374 42.67911 C  49.7923 42.67911 -21.33955 0.0 -8.1851 0.0  " style="fill:none"/> 
 <path d=" M  36.42374 42.67911 C  49.7923 42.67911 35.56593 49.7923 47.5844 49.7923  " style="fill:none"/> 
 </g> 
 </g> 
 </g> 
 </g> 
 </g> 
 
                              </g> 
</svg> 
