<svg xmlns="http://www.w3.org/2000/svg" xmlns:xlink="http://www.w3.org/1999/xlink" width="85.42587pt" height="2.9pt" viewBox="-0.2 -0.2 85.42587 2.9 "> 
<g transform="translate(0, 2.7 ) scale(1,-1) translate(0,0.2 )"> 
        <g> 
 <g stroke="rgb(0.0%,0.0%,0.0%)"> 
 <g fill="rgb(0.0%,0.0%,0.0%)"> 
 <g stroke-width="0.4pt"> 
 <g> 
 </g> 
 <g> 
 <path d=" M  0.0 0.0 C  0.0 1.38748 1.11252 2.5 2.5 2.5 C  3.88748 2.5 5.0 1.25 5.0 0.0 C  5.0 1.38748 6.11252 2.5 7.5 2.5 C  8.88748 2.5 10.0 1.25 10.0 0.0 C  10.0 1.38748 11.11252 2.5 12.5 2.5 C  13.88748 2.5 15.0 1.25 15.0 0.0 C  15.0 1.38748 16.11252 2.5 17.5 2.5 C  18.88748 2.5 20.0 1.25 20.0 0.0 C  20.0 1.38748 21.11252 2.5 22.5 2.5 C  23.88748 2.5 25.0 1.25 25.0 0.0 C  25.0 1.38748 26.11252 2.5 27.5 2.5 C  28.88748 2.5 30.0 1.25 30.0 0.0 C  30.0 1.38748 31.11252 2.5 32.5 2.5 C  33.88748 2.5 35.0 1.25 35.0 0.0 C  35.0 1.38748 36.11252 2.5 37.5 2.5 C  38.88748 2.5 40.0 1.25 40.0 0.0 C  40.0 1.38748 41.11252 2.5 42.5 2.5 C  43.88748 2.5 45.0 1.25 45.0 0.0 C  45.0 1.38748 46.11252 2.5 47.5 2.5 C  48.88748 2.5 50.0 1.25 50.0 0.0 C  50.0 1.38748 51.11252 2.5 52.5 2.5 C  53.88748 2.5 55.0 1.25 55.0 0.0 C  55.0 1.38748 56.11252 2.5 57.5 2.5 C  58.88748 2.5 60.0 1.25 60.0 0.0 C  60.0 1.38748 61.11252 2.5 62.5 2.5 C  63.88748 2.5 65.0 1.25 65.0 0.0 C  65.0 1.38748 66.11252 2.5 67.5 2.5 C  68.88748 2.5 70.0 1.25 70.0 0.0 C  70.0 1.38748 71.11252 2.5 72.5 2.5 C  73.88748 2.5 75.0 1.25 75.0 0.0 C  75.0 1.38748 76.11252 2.5 77.5 2.5 C  78.88748 2.5 80.0 1.25 80.0 0.0 C  80.0 1.38748 81.11252 2.5 82.5 2.5 C  83.88748 2.5 85.0 1.25 85.0 0.0 L  85.02588 0.0  " style="fill:none"/> 
 </g> 
 </g> 
 </g> 
 </g> 
 </g> 
                   </g> 
</svg> 
