<svg xmlns="http://www.w3.org/2000/svg" xmlns:xlink="http://www.w3.org/1999/xlink" width="223.75502pt" height="85.75821pt" viewBox="-0.2 -42.8791 223.75502 85.75821 "> 
<g transform="translate(0, 42.8791 ) scale(1,-1) translate(0,42.8791 )"> 
        <g> 
 <g stroke="rgb(0.0%,0.0%,0.0%)"> 
 <g fill="rgb(0.0%,0.0%,0.0%)"> 
 <g stroke-width="0.4pt"> 
 <g> 
 </g> 
 <g> 
 <path d=" M  0.0 0.0 C  14.21936 14.22636 28.36719 28.45274 44.671 28.45274 C  60.9748 28.45274 75.12262 14.22638 89.34201 0.0 C  103.56137 -14.22636 117.7092 -28.45274 134.01302 -28.45274 C  150.3168 -28.45274 164.46463 -14.22638 178.68402 0.0 C  192.90338 14.22636 207.05121 28.45274 223.35503 28.45274  " style="fill:none"/> 
 <g> 
 <g stroke="rgb(100.0%,0.0%,0.0%)"> 
 <g fill="rgb(100.0%,0.0%,0.0%)"> 
 <path d=" M  0.0 42.67911 C  16.30379 42.67911 30.45161 21.33955 44.671 0.0 C  58.89037 -21.33955 73.0382 -42.67911 89.34201 -42.67911 C  105.6458 -42.67911 119.79362 -21.33955 134.01302 0.0 C  148.23238 21.33955 162.3802 42.67911 178.68402 42.67911 C  194.98781 42.67911 209.13564 21.33955 223.35503 0.0  " style="fill:none"/> 
 </g> 
 </g> 
 </g> 
 </g> 
 </g> 
 </g> 
 </g> 
 </g> 
 
                                                                   </g> 
</svg> 
