<svg xmlns="http://www.w3.org/2000/svg" xmlns:xlink="http://www.w3.org/1999/xlink" width="85.62251pt" height="93.66696pt" viewBox="-0.2 -88.46696 85.62251 93.66696 "> 
<g transform="translate(0, 5.2 ) scale(1,-1) translate(0,88.46696 )"> 
        <g> 
 <g stroke="rgb(0.0%,0.0%,0.0%)"> 
 <g fill="rgb(0.0%,0.0%,0.0%)"> 
 <g stroke-width="0.4pt"> 
 <g> 
 </g> 
 <g> 
 <path d=" M  0.0 0.0 L  0.0 5.0 L  5.0 5.0 L  5.0 -5.0 L  10.0 -5.0 L  10.0 0.0 L  10.0 5.0 L  15.0 5.0 L  15.0 -5.0 L  20.0 -5.0 L  20.0 0.0 L  20.0 5.0 L  25.0 5.0 L  25.0 -5.0 L  30.0 -5.0 L  30.0 0.0 L  30.0 5.0 L  35.0 5.0 L  35.0 -5.0 L  40.0 -5.0 L  40.0 0.0 L  40.0 5.0 L  45.0 5.0 L  45.0 -5.0 L  50.0 -5.0 L  50.0 0.0 L  50.0 5.0 L  55.0 5.0 L  55.0 -5.0 L  60.0 -5.0 L  60.0 0.0 L  60.0 5.0 L  65.0 5.0 L  65.0 -5.0 L  70.0 -5.0 L  70.0 0.0 L  70.0 5.0 L  75.0 5.0 L  75.0 -5.0 L  80.0 -5.0 L  80.0 0.0 L  85.02588 0.0  " style="fill:none"/> 
 <path d=" M  0.0 -28.45274 L  2.78206 -24.2797 L  6.95511 -27.06175 L  1.39099 -35.40785 L  5.56404 -38.18991 L  8.3461 -34.01686 L  11.12816 -29.84381 L  15.30121 -32.62587 L  9.73709 -40.97197 L  13.91014 -43.75403 L  16.6922 -39.58098 L  19.47426 -35.40793 L  23.64731 -38.18999 L  18.08319 -46.53609 L  22.25624 -49.31815 L  25.0383 -45.1451 L  27.82036 -40.97205 L  31.99341 -43.7541 L  26.42929 -52.1002 L  30.60234 -54.88226 L  33.3844 -50.70921 L  36.16646 -46.53616 L  40.33951 -49.31822 L  34.77539 -57.66432 L  38.94844 -60.44638 L  41.7305 -56.27333 L  44.51256 -52.10028 L  48.68561 -54.88234 L  43.12149 -63.22844 L  47.29454 -66.0105 L  50.0766 -61.83745 L  52.85866 -57.6644 L  57.03171 -60.44646 L  51.46759 -68.79256 L  55.64064 -71.57462 L  58.4227 -67.40157 L  61.20476 -63.22852 L  65.3778 -66.01057 L  59.81369 -74.35667 L  63.98674 -77.13873 L  66.7688 -72.96568 L  69.55086 -68.79263 L  73.7239 -71.57469 L  68.15979 -79.92079 L  72.33284 -82.70285 L  75.1149 -78.5298 L  77.89696 -74.35675 L  82.07 -77.13881 L  76.50589 -85.48491 L  80.67894 -88.26697 L  83.461 -84.09392 L  85.22252 -85.26826  " style="fill:none"/> 
 </g> 
 </g> 
 </g> 
 </g> 
 </g> 
 
                          </g> 
</svg> 
