<svg xmlns="http://www.w3.org/2000/svg" xmlns:xlink="http://www.w3.org/1999/xlink" width="443.79115pt" height="79.83185pt" viewBox="19.95274 -28.65274 443.79115 79.83185 "> 
<g transform="translate(0, 51.17911 ) scale(1,-1) translate(0,28.65274 )"> 
  <g> 
 <g stroke="rgb(0.0%,0.0%,0.0%)"> 
 <g fill="rgb(0.0%,0.0%,0.0%)"> 
 <g stroke-width="0.4pt"> 
 <g> 
 </g> 
 <g> 
 <g> 
 <g fill="rgb(75.0%,75.0%,75.0%)"> 
 <g> 
 <g fill="rgb(75.0%,75.0%,75.0%)"> 
 <path d=" M  36.95274 0.0 C  36.95274 4.71744 33.17018 8.5 28.45274 8.5 C  23.7353 8.5 19.95274 4.71744 19.95274 0.0 C  19.95274 -4.71744 23.7353 -8.5 28.45274 -8.5 C  33.17018 -8.5 36.95274 -4.71744 36.95274 0.0 Z M  28.45274 0.0  " style="stroke:none"/> 
 </g> 
 </g> 
 <g> 
 <g transform="matrix(1.0,0.0,0.0,1.0,26.109,-2.15277)"> 
 <g fill="rgb(0.0%,0.0%,0.0%)"> 
 <text style="stroke:none" transform="scale(1,-1) translate(2.34375,0)" text-anchor="middle"  font-size="10"> 
<tspan font-family="cmmi" font-size="10">s</tspan></text> 
</g> 
 </g> 
 </g> 
 </g> 
 </g> 
 <g> 
 <g fill="rgb(75.0%,75.0%,75.0%)"> 
 <g> 
 <g fill="rgb(75.0%,75.0%,75.0%)"> 
 <path d=" M  65.40549 0.0 C  65.40549 4.71744 61.62292 8.5 56.90549 8.5 C  52.18805 8.5 48.40549 4.71744 48.40549 0.0 C  48.40549 -4.71744 52.18805 -8.5 56.90549 -8.5 C  61.62292 -8.5 65.40549 -4.71744 65.40549 0.0 Z M  56.90549 0.0  " style="stroke:none"/> 
 </g> 
 </g> 
 <g> 
 <g transform="matrix(1.0,0.0,0.0,1.0,54.40549,-3.22221)"> 
 <g fill="rgb(0.0%,0.0%,0.0%)"> 
 <text style="stroke:none" transform="scale(1,-1) translate(2.5,0)" text-anchor="middle"  font-size="10"> 
2</text> 
</g> 
 </g> 
 </g> 
 </g> 
 </g> 
 <g> 
 <g fill="rgb(75.0%,75.0%,75.0%)"> 
 <g> 
 <g fill="rgb(75.0%,75.0%,75.0%)"> 
 <path d=" M  93.85823 0.0 C  93.85823 4.71744 90.07567 8.5 85.35823 8.5 C  80.6408 8.5 76.85823 4.71744 76.85823 0.0 C  76.85823 -4.71744 80.6408 -8.5 85.35823 -8.5 C  90.07567 -8.5 93.85823 -4.71744 93.85823 0.0 Z M  85.35823 0.0  " style="stroke:none"/> 
 </g> 
 </g> 
 <g> 
 <g transform="matrix(1.0,0.0,0.0,1.0,82.85823,-3.22221)"> 
 <g fill="rgb(0.0%,0.0%,0.0%)"> 
 <text style="stroke:none" transform="scale(1,-1) translate(2.5,0)" text-anchor="middle"  font-size="10"> 
3</text> 
</g> 
 </g> 
 </g> 
 </g> 
 </g> 
 <g> 
 <g fill="rgb(75.0%,75.0%,75.0%)"> 
 <g> 
 <g fill="rgb(75.0%,75.0%,75.0%)"> 
 <path d=" M  122.31097 0.0 C  122.31097 4.71744 118.52841 8.5 113.81097 8.5 C  109.09354 8.5 105.31097 4.71744 105.31097 0.0 C  105.31097 -4.71744 109.09354 -8.5 113.81097 -8.5 C  118.52841 -8.5 122.31097 -4.71744 122.31097 0.0 Z M  113.81097 0.0  " style="stroke:none"/> 
 </g> 
 </g> 
 <g> 
 <g transform="matrix(1.0,0.0,0.0,1.0,111.31097,-3.22221)"> 
 <g fill="rgb(0.0%,0.0%,0.0%)"> 
 <text style="stroke:none" transform="scale(1,-1) translate(2.5,0)" text-anchor="middle"  font-size="10"> 
4</text> 
</g> 
 </g> 
 </g> 
 </g> 
 </g> 
 <g> 
 <g fill="rgb(75.0%,75.0%,75.0%)"> 
 <g> 
 <g fill="rgb(75.0%,75.0%,75.0%)"> 
 <path d=" M  321.48018 0.0 C  321.48018 4.71744 317.69762 8.5 312.98018 8.5 C  308.26274 8.5 304.48018 4.71744 304.48018 0.0 C  304.48018 -4.71744 308.26274 -8.5 312.98018 -8.5 C  317.69762 -8.5 321.48018 -4.71744 321.48018 0.0 Z M  312.98018 0.0  " style="stroke:none"/> 
 </g> 
 </g> 
 <g> 
 <g transform="matrix(1.0,0.0,0.0,1.0,307.98016,-3.22221)"> 
 <g fill="rgb(0.0%,0.0%,0.0%)"> 
 <text style="stroke:none" transform="scale(1,-1) translate(5.00002,0)" text-anchor="middle"  font-size="10"> 
15</text> 
</g> 
 </g> 
 </g> 
 </g> 
 </g> 
 <g> 
 <g fill="rgb(75.0%,75.0%,75.0%)"> 
 <g> 
 <g fill="rgb(75.0%,75.0%,75.0%)"> 
 <path d=" M  349.93292 0.0 C  349.93292 4.71744 346.15036 8.5 341.43292 8.5 C  336.71548 8.5 332.93292 4.71744 332.93292 0.0 C  332.93292 -4.71744 336.71548 -8.5 341.43292 -8.5 C  346.15036 -8.5 349.93292 -4.71744 349.93292 0.0 Z M  341.43292 0.0  " style="stroke:none"/> 
 </g> 
 </g> 
 <g> 
 <g transform="matrix(1.0,0.0,0.0,1.0,336.4329,-3.22221)"> 
 <g fill="rgb(0.0%,0.0%,0.0%)"> 
 <text style="stroke:none" transform="scale(1,-1) translate(5.00002,0)" text-anchor="middle"  font-size="10"> 
16</text> 
</g> 
 </g> 
 </g> 
 </g> 
 </g> 
 <g> 
 <g fill="rgb(75.0%,75.0%,75.0%)"> 
 <g> 
 <g fill="rgb(75.0%,75.0%,75.0%)"> 
 <path d=" M  378.38567 0.0 C  378.38567 4.71744 374.6031 8.5 369.88567 8.5 C  365.16823 8.5 361.38567 4.71744 361.38567 0.0 C  361.38567 -4.71744 365.16823 -8.5 369.88567 -8.5 C  374.6031 -8.5 378.38567 -4.71744 378.38567 0.0 Z M  369.88567 0.0  " style="stroke:none"/> 
 </g> 
 </g> 
 <g> 
 <g transform="matrix(1.0,0.0,0.0,1.0,364.88565,-3.22221)"> 
 <g fill="rgb(0.0%,0.0%,0.0%)"> 
 <text style="stroke:none" transform="scale(1,-1) translate(5.00002,0)" text-anchor="middle"  font-size="10"> 
17</text> 
</g> 
 </g> 
 </g> 
 </g> 
 </g> 
 <g> 
 <g fill="rgb(75.0%,75.0%,75.0%)"> 
 <g> 
 <g fill="rgb(75.0%,75.0%,75.0%)"> 
 <path d=" M  406.83841 0.0 C  406.83841 4.71744 403.05585 8.5 398.33841 8.5 C  393.62097 8.5 389.83841 4.71744 389.83841 0.0 C  389.83841 -4.71744 393.62097 -8.5 398.33841 -8.5 C  403.05585 -8.5 406.83841 -4.71744 406.83841 0.0 Z M  398.33841 0.0  " style="stroke:none"/> 
 </g> 
 </g> 
 <g> 
 <g transform="matrix(1.0,0.0,0.0,1.0,393.3384,-3.22221)"> 
 <g fill="rgb(0.0%,0.0%,0.0%)"> 
 <text style="stroke:none" transform="scale(1,-1) translate(5.00002,0)" text-anchor="middle"  font-size="10"> 
18</text> 
</g> 
 </g> 
 </g> 
 </g> 
 </g> 
 <g> 
 <g fill="rgb(75.0%,75.0%,75.0%)"> 
 <g> 
 <g fill="rgb(75.0%,75.0%,75.0%)"> 
 <path d=" M  435.29115 0.0 C  435.29115 4.71744 431.50859 8.5 426.79115 8.5 C  422.07372 8.5 418.29115 4.71744 418.29115 0.0 C  418.29115 -4.71744 422.07372 -8.5 426.79115 -8.5 C  431.50859 -8.5 435.29115 -4.71744 435.29115 0.0 Z M  426.79115 0.0  " style="stroke:none"/> 
 </g> 
 </g> 
 <g> 
 <g transform="matrix(1.0,0.0,0.0,1.0,421.79114,-3.22221)"> 
 <g fill="rgb(0.0%,0.0%,0.0%)"> 
 <text style="stroke:none" transform="scale(1,-1) translate(5.00002,0)" text-anchor="middle"  font-size="10"> 
19</text> 
</g> 
 </g> 
 </g> 
 </g> 
 </g> 
 <g> 
 <g fill="rgb(75.0%,75.0%,75.0%)"> 
 <g> 
 <g fill="rgb(75.0%,75.0%,75.0%)"> 
 <path d=" M  463.7439 0.0 C  463.7439 4.71744 459.96133 8.5 455.2439 8.5 C  450.52646 8.5 446.7439 4.71744 446.7439 0.0 C  446.7439 -4.71744 450.52646 -8.5 455.2439 -8.5 C  459.96133 -8.5 463.7439 -4.71744 463.7439 0.0 Z M  455.2439 0.0  " style="stroke:none"/> 
 </g> 
 </g> 
 <g> 
 <g transform="matrix(1.0,0.0,0.0,1.0,453.43834,-3.0754)"> 
 <g fill="rgb(0.0%,0.0%,0.0%)"> 
 <text style="stroke:none" transform="scale(1,-1) translate(1.80556,0)" text-anchor="middle"  font-size="10"> 
<tspan font-family="cmmi" font-size="10">t</tspan></text> 
</g> 
 </g> 
 </g> 
 </g> 
 </g> 
 <g> 
 <g fill="rgb(75.0%,75.0%,75.0%)"> 
 <g> 
 <g fill="rgb(75.0%,75.0%,75.0%)"> 
 <path d=" M  162.49246 -8.7925 C  162.49246 -4.07506 158.7099 -0.2925 153.99246 -0.2925 C  149.27502 -0.2925 145.49246 -4.07506 145.49246 -8.7925 C  145.49246 -13.50993 149.27502 -17.2925 153.99246 -17.2925 C  158.7099 -17.2925 162.49246 -13.50993 162.49246 -8.7925 Z M  153.99246 -8.7925  " style="stroke:none"/> 
 </g> 
 </g> 
 <g> 
 <g transform="matrix(1.0,0.0,0.0,1.0,151.49246,-12.01471)"> 
 <g fill="rgb(0.0%,0.0%,0.0%)"> 
 <text style="stroke:none" transform="scale(1,-1) translate(2.5,0)" text-anchor="middle"  font-size="10"> 
5</text> 
</g> 
 </g> 
 </g> 
 </g> 
 </g> 
 <g> 
 <g fill="rgb(75.0%,75.0%,75.0%)"> 
 <g> 
 <g fill="rgb(75.0%,75.0%,75.0%)"> 
 <path d=" M  152.15656 23.01884 C  152.15656 27.73628 148.374 31.51884 143.65656 31.51884 C  138.93912 31.51884 135.15656 27.73628 135.15656 23.01884 C  135.15656 18.3014 138.93912 14.51884 143.65656 14.51884 C  148.374 14.51884 152.15656 18.3014 152.15656 23.01884 Z M  143.65656 23.01884  " style="stroke:none"/> 
 </g> 
 </g> 
 <g> 
 <g transform="matrix(1.0,0.0,0.0,1.0,141.15656,19.79663)"> 
 <g fill="rgb(0.0%,0.0%,0.0%)"> 
 <text style="stroke:none" transform="scale(1,-1) translate(2.5,0)" text-anchor="middle"  font-size="10"> 
6</text> 
</g> 
 </g> 
 </g> 
 </g> 
 </g> 
 <g> 
 <g fill="rgb(75.0%,75.0%,75.0%)"> 
 <g> 
 <g fill="rgb(75.0%,75.0%,75.0%)"> 
 <path d=" M  179.21652 42.67911 C  179.21652 47.39655 175.43396 51.17911 170.71652 51.17911 C  165.99908 51.17911 162.21652 47.39655 162.21652 42.67911 C  162.21652 37.96167 165.99908 34.17911 170.71652 34.17911 C  175.43396 34.17911 179.21652 37.96167 179.21652 42.67911 Z M  170.71652 42.67911  " style="stroke:none"/> 
 </g> 
 </g> 
 <g> 
 <g transform="matrix(1.0,0.0,0.0,1.0,168.21652,39.4569)"> 
 <g fill="rgb(0.0%,0.0%,0.0%)"> 
 <text style="stroke:none" transform="scale(1,-1) translate(2.5,0)" text-anchor="middle"  font-size="10"> 
7</text> 
</g> 
 </g> 
 </g> 
 </g> 
 </g> 
 <g> 
 <g fill="rgb(75.0%,75.0%,75.0%)"> 
 <g> 
 <g fill="rgb(75.0%,75.0%,75.0%)"> 
 <path d=" M  206.27649 23.01884 C  206.27649 27.73628 202.49393 31.51884 197.77649 31.51884 C  193.05905 31.51884 189.27649 27.73628 189.27649 23.01884 C  189.27649 18.3014 193.05905 14.51884 197.77649 14.51884 C  202.49393 14.51884 206.27649 18.3014 206.27649 23.01884 Z M  197.77649 23.01884  " style="stroke:none"/> 
 </g> 
 </g> 
 <g> 
 <g transform="matrix(1.0,0.0,0.0,1.0,195.27649,19.79663)"> 
 <g fill="rgb(0.0%,0.0%,0.0%)"> 
 <text style="stroke:none" transform="scale(1,-1) translate(2.5,0)" text-anchor="middle"  font-size="10"> 
8</text> 
</g> 
 </g> 
 </g> 
 </g> 
 </g> 
 <g> 
 <g fill="rgb(75.0%,75.0%,75.0%)"> 
 <g> 
 <g fill="rgb(75.0%,75.0%,75.0%)"> 
 <path d=" M  195.94058 -8.7925 C  195.94058 -4.07506 192.15802 -0.2925 187.44058 -0.2925 C  182.72314 -0.2925 178.94058 -4.07506 178.94058 -8.7925 C  178.94058 -13.50993 182.72314 -17.2925 187.44058 -17.2925 C  192.15802 -17.2925 195.94058 -13.50993 195.94058 -8.7925 Z M  187.44058 -8.7925  " style="stroke:none"/> 
 </g> 
 </g> 
 <g> 
 <g transform="matrix(1.0,0.0,0.0,1.0,184.94058,-12.01471)"> 
 <g fill="rgb(0.0%,0.0%,0.0%)"> 
 <text style="stroke:none" transform="scale(1,-1) translate(2.5,0)" text-anchor="middle"  font-size="10"> 
9</text> 
</g> 
 </g> 
 </g> 
 </g> 
 </g> 
 <g> 
 <g fill="rgb(75.0%,75.0%,75.0%)"> 
 <g> 
 <g fill="rgb(75.0%,75.0%,75.0%)"> 
 <path d=" M  247.85074 -8.7925 C  247.85074 -4.07506 244.06818 -0.2925 239.35074 -0.2925 C  234.6333 -0.2925 230.85074 -4.07506 230.85074 -8.7925 C  230.85074 -13.50993 234.6333 -17.2925 239.35074 -17.2925 C  244.06818 -17.2925 247.85074 -13.50993 247.85074 -8.7925 Z M  239.35074 -8.7925  " style="stroke:none"/> 
 </g> 
 </g> 
 <g> 
 <g transform="matrix(1.0,0.0,0.0,1.0,234.35072,-12.01471)"> 
 <g fill="rgb(0.0%,0.0%,0.0%)"> 
 <text style="stroke:none" transform="scale(1,-1) translate(5.00002,0)" text-anchor="middle"  font-size="10"> 
10</text> 
</g> 
 </g> 
 </g> 
 </g> 
 </g> 
 <g> 
 <g fill="rgb(75.0%,75.0%,75.0%)"> 
 <g> 
 <g fill="rgb(75.0%,75.0%,75.0%)"> 
 <path d=" M  237.51483 23.01884 C  237.51483 27.73628 233.73227 31.51884 229.01483 31.51884 C  224.2974 31.51884 220.51483 27.73628 220.51483 23.01884 C  220.51483 18.3014 224.2974 14.51884 229.01483 14.51884 C  233.73227 14.51884 237.51483 18.3014 237.51483 23.01884 Z M  229.01483 23.01884  " style="stroke:none"/> 
 </g> 
 </g> 
 <g> 
 <g transform="matrix(1.0,0.0,0.0,1.0,224.01482,19.79663)"> 
 <g fill="rgb(0.0%,0.0%,0.0%)"> 
 <text style="stroke:none" transform="scale(1,-1) translate(5.00002,0)" text-anchor="middle"  font-size="10"> 
11</text> 
</g> 
 </g> 
 </g> 
 </g> 
 </g> 
 <g> 
 <g fill="rgb(75.0%,75.0%,75.0%)"> 
 <g> 
 <g fill="rgb(75.0%,75.0%,75.0%)"> 
 <path d=" M  264.5748 42.67911 C  264.5748 47.39655 260.79224 51.17911 256.0748 51.17911 C  251.35736 51.17911 247.5748 47.39655 247.5748 42.67911 C  247.5748 37.96167 251.35736 34.17911 256.0748 34.17911 C  260.79224 34.17911 264.5748 37.96167 264.5748 42.67911 Z M  256.0748 42.67911  " style="stroke:none"/> 
 </g> 
 </g> 
 <g> 
 <g transform="matrix(1.0,0.0,0.0,1.0,251.07478,39.4569)"> 
 <g fill="rgb(0.0%,0.0%,0.0%)"> 
 <text style="stroke:none" transform="scale(1,-1) translate(5.00002,0)" text-anchor="middle"  font-size="10"> 
12</text> 
</g> 
 </g> 
 </g> 
 </g> 
 </g> 
 <g> 
 <g fill="rgb(75.0%,75.0%,75.0%)"> 
 <g> 
 <g fill="rgb(75.0%,75.0%,75.0%)"> 
 <path d=" M  291.63477 23.01884 C  291.63477 27.73628 287.8522 31.51884 283.13477 31.51884 C  278.41733 31.51884 274.63477 27.73628 274.63477 23.01884 C  274.63477 18.3014 278.41733 14.51884 283.13477 14.51884 C  287.8522 14.51884 291.63477 18.3014 291.63477 23.01884 Z M  283.13477 23.01884  " style="stroke:none"/> 
 </g> 
 </g> 
 <g> 
 <g transform="matrix(1.0,0.0,0.0,1.0,278.13475,19.79663)"> 
 <g fill="rgb(0.0%,0.0%,0.0%)"> 
 <text style="stroke:none" transform="scale(1,-1) translate(5.00002,0)" text-anchor="middle"  font-size="10"> 
13</text> 
</g> 
 </g> 
 </g> 
 </g> 
 </g> 
 <g> 
 <g fill="rgb(75.0%,75.0%,75.0%)"> 
 <g> 
 <g fill="rgb(75.0%,75.0%,75.0%)"> 
 <path d=" M  281.29886 -8.7925 C  281.29886 -4.07506 277.5163 -0.2925 272.79886 -0.2925 C  268.08142 -0.2925 264.29886 -4.07506 264.29886 -8.7925 C  264.29886 -13.50993 268.08142 -17.2925 272.79886 -17.2925 C  277.5163 -17.2925 281.29886 -13.50993 281.29886 -8.7925 Z M  272.79886 -8.7925  " style="stroke:none"/> 
 </g> 
 </g> 
 <g> 
 <g transform="matrix(1.0,0.0,0.0,1.0,267.79884,-12.01471)"> 
 <g fill="rgb(0.0%,0.0%,0.0%)"> 
 <text style="stroke:none" transform="scale(1,-1) translate(5.00002,0)" text-anchor="middle"  font-size="10"> 
14</text> 
</g> 
 </g> 
 </g> 
 </g> 
 </g> 
 <path d=" M  37.15274 0.0 L  46.7455 0.0  " style="fill:none"/> 
 <g> 
 <g transform="matrix(1.0,0.0,0.0,1.0,46.7455,0.0)"> 
 <g> 
 <g stroke-width="0.31999pt"> 
 <g stroke-dasharray="none" stroke-dashoffset="0.0pt"> 
 <g stroke-linecap="round"> 
 <g stroke-linejoin="round"> 
 <path d=" M  -1.19998 1.59998 C  -1.09998 0.99998 0.0 0.09999 0.29999 0.0 C  0.0 -0.09999 -1.09998 -0.99998 -1.19998 -1.59998  " style="fill:none"/> 
 </g> 
 </g> 
 </g> 
 </g> 
 </g> 
 </g> 
 </g> 
 <path d=" M  65.60548 0.0 L  75.19824 0.0  " style="fill:none"/> 
 <g> 
 <g transform="matrix(1.0,0.0,0.0,1.0,75.19824,0.0)"> 
 <g> 
 <g stroke-width="0.31999pt"> 
 <g stroke-dasharray="none" stroke-dashoffset="0.0pt"> 
 <g stroke-linecap="round"> 
 <g stroke-linejoin="round"> 
 <path d=" M  -1.19998 1.59998 C  -1.09998 0.99998 0.0 0.09999 0.29999 0.0 C  0.0 -0.09999 -1.09998 -0.99998 -1.19998 -1.59998  " style="fill:none"/> 
 </g> 
 </g> 
 </g> 
 </g> 
 </g> 
 </g> 
 </g> 
 <path d=" M  94.05823 0.0 L  103.65099 0.0  " style="fill:none"/> 
 <g> 
 <g transform="matrix(1.0,0.0,0.0,1.0,103.65099,0.0)"> 
 <g> 
 <g stroke-width="0.31999pt"> 
 <g stroke-dasharray="none" stroke-dashoffset="0.0pt"> 
 <g stroke-linecap="round"> 
 <g stroke-linejoin="round"> 
 <path d=" M  -1.19998 1.59998 C  -1.09998 0.99998 0.0 0.09999 0.29999 0.0 C  0.0 -0.09999 -1.09998 -0.99998 -1.19998 -1.59998  " style="fill:none"/> 
 </g> 
 </g> 
 </g> 
 </g> 
 </g> 
 </g> 
 </g> 
 <path d=" M  94.05823 0.0 L  103.65099 0.0  " style="fill:none"/> 
 <g> 
 <g transform="matrix(1.0,0.0,0.0,1.0,103.65099,0.0)"> 
 <g> 
 <g stroke-width="0.31999pt"> 
 <g stroke-dasharray="none" stroke-dashoffset="0.0pt"> 
 <g stroke-linecap="round"> 
 <g stroke-linejoin="round"> 
 <path d=" M  -1.19998 1.59998 C  -1.09998 0.99998 0.0 0.09999 0.29999 0.0 C  0.0 -0.09999 -1.09998 -0.99998 -1.19998 -1.59998  " style="fill:none"/> 
 </g> 
 </g> 
 </g> 
 </g> 
 </g> 
 </g> 
 </g> 
 <path d=" M  321.68018 0.0 L  331.27293 0.0  " style="fill:none"/> 
 <g> 
 <g transform="matrix(1.0,0.0,0.0,1.0,331.27293,0.0)"> 
 <g> 
 <g stroke-width="0.31999pt"> 
 <g stroke-dasharray="none" stroke-dashoffset="0.0pt"> 
 <g stroke-linecap="round"> 
 <g stroke-linejoin="round"> 
 <path d=" M  -1.19998 1.59998 C  -1.09998 0.99998 0.0 0.09999 0.29999 0.0 C  0.0 -0.09999 -1.09998 -0.99998 -1.19998 -1.59998  " style="fill:none"/> 
 </g> 
 </g> 
 </g> 
 </g> 
 </g> 
 </g> 
 </g> 
 <path d=" M  350.13292 0.0 L  359.72568 0.0  " style="fill:none"/> 
 <g> 
 <g transform="matrix(1.0,0.0,0.0,1.0,359.72568,0.0)"> 
 <g> 
 <g stroke-width="0.31999pt"> 
 <g stroke-dasharray="none" stroke-dashoffset="0.0pt"> 
 <g stroke-linecap="round"> 
 <g stroke-linejoin="round"> 
 <path d=" M  -1.19998 1.59998 C  -1.09998 0.99998 0.0 0.09999 0.29999 0.0 C  0.0 -0.09999 -1.09998 -0.99998 -1.19998 -1.59998  " style="fill:none"/> 
 </g> 
 </g> 
 </g> 
 </g> 
 </g> 
 </g> 
 </g> 
 <path d=" M  378.58566 0.0 L  388.17842 0.0  " style="fill:none"/> 
 <g> 
 <g transform="matrix(1.0,0.0,0.0,1.0,388.17842,0.0)"> 
 <g> 
 <g stroke-width="0.31999pt"> 
 <g stroke-dasharray="none" stroke-dashoffset="0.0pt"> 
 <g stroke-linecap="round"> 
 <g stroke-linejoin="round"> 
 <path d=" M  -1.19998 1.59998 C  -1.09998 0.99998 0.0 0.09999 0.29999 0.0 C  0.0 -0.09999 -1.09998 -0.99998 -1.19998 -1.59998  " style="fill:none"/> 
 </g> 
 </g> 
 </g> 
 </g> 
 </g> 
 </g> 
 </g> 
 <path d=" M  407.0384 0.0 L  416.63116 0.0  " style="fill:none"/> 
 <g> 
 <g transform="matrix(1.0,0.0,0.0,1.0,416.63116,0.0)"> 
 <g> 
 <g stroke-width="0.31999pt"> 
 <g stroke-dasharray="none" stroke-dashoffset="0.0pt"> 
 <g stroke-linecap="round"> 
 <g stroke-linejoin="round"> 
 <path d=" M  -1.19998 1.59998 C  -1.09998 0.99998 0.0 0.09999 0.29999 0.0 C  0.0 -0.09999 -1.09998 -0.99998 -1.19998 -1.59998  " style="fill:none"/> 
 </g> 
 </g> 
 </g> 
 </g> 
 </g> 
 </g> 
 </g> 
 <path d=" M  435.49115 0.0 L  445.08391 0.0  " style="fill:none"/> 
 <g> 
 <g transform="matrix(1.0,0.0,0.0,1.0,445.08391,0.0)"> 
 <g> 
 <g stroke-width="0.31999pt"> 
 <g stroke-dasharray="none" stroke-dashoffset="0.0pt"> 
 <g stroke-linecap="round"> 
 <g stroke-linejoin="round"> 
 <path d=" M  -1.19998 1.59998 C  -1.09998 0.99998 0.0 0.09999 0.29999 0.0 C  0.0 -0.09999 -1.09998 -0.99998 -1.19998 -1.59998  " style="fill:none"/> 
 </g> 
 </g> 
 </g> 
 </g> 
 </g> 
 </g> 
 </g> 
 <path d=" M  151.3004 -0.50642 L  146.80043 13.34225  " style="fill:none"/> 
 <g> 
 <g transform="matrix(-0.30948,0.95242,-0.95242,-0.30948,146.80043,13.34225)"> 
 <g> 
 <g stroke-width="0.31999pt"> 
 <g stroke-dasharray="none" stroke-dashoffset="0.0pt"> 
 <g stroke-linecap="round"> 
 <g stroke-linejoin="round"> 
 <path d=" M  -1.19998 1.59998 C  -1.09998 0.99998 0.0 0.09999 0.29999 0.0 C  0.0 -0.09999 -1.09998 -0.99998 -1.19998 -1.59998  " style="fill:none"/> 
 </g> 
 </g> 
 </g> 
 </g> 
 </g> 
 </g> 
 </g> 
 <path d=" M  236.65868 -0.50642 L  232.1587 13.34225  " style="fill:none"/> 
 <g> 
 <g transform="matrix(-0.30948,0.95242,-0.95242,-0.30948,232.1587,13.34225)"> 
 <g> 
 <g stroke-width="0.31999pt"> 
 <g stroke-dasharray="none" stroke-dashoffset="0.0pt"> 
 <g stroke-linecap="round"> 
 <g stroke-linejoin="round"> 
 <path d=" M  -1.19998 1.59998 C  -1.09998 0.99998 0.0 0.09999 0.29999 0.0 C  0.0 -0.09999 -1.09998 -0.99998 -1.19998 -1.59998  " style="fill:none"/> 
 </g> 
 </g> 
 </g> 
 </g> 
 </g> 
 </g> 
 </g> 
 <path d=" M  150.71693 28.14888 L  162.47131 36.68869  " style="fill:none"/> 
 <g> 
 <g transform="matrix(0.81154,0.58963,-0.58963,0.81154,162.47131,36.68869)"> 
 <g> 
 <g stroke-width="0.31999pt"> 
 <g stroke-dasharray="none" stroke-dashoffset="0.0pt"> 
 <g stroke-linecap="round"> 
 <g stroke-linejoin="round"> 
 <path d=" M  -1.19998 1.59998 C  -1.09998 0.99998 0.0 0.09999 0.29999 0.0 C  0.0 -0.09999 -1.09998 -0.99998 -1.19998 -1.59998  " style="fill:none"/> 
 </g> 
 </g> 
 </g> 
 </g> 
 </g> 
 </g> 
 </g> 
 <path d=" M  236.07521 28.14888 L  247.82959 36.68869  " style="fill:none"/> 
 <g> 
 <g transform="matrix(0.81154,0.58963,-0.58963,0.81154,247.82959,36.68869)"> 
 <g> 
 <g stroke-width="0.31999pt"> 
 <g stroke-dasharray="none" stroke-dashoffset="0.0pt"> 
 <g stroke-linecap="round"> 
 <g stroke-linejoin="round"> 
 <path d=" M  -1.19998 1.59998 C  -1.09998 0.99998 0.0 0.09999 0.29999 0.0 C  0.0 -0.09999 -1.09998 -0.99998 -1.19998 -1.59998  " style="fill:none"/> 
 </g> 
 </g> 
 </g> 
 </g> 
 </g> 
 </g> 
 </g> 
 <path d=" M  177.7769 37.54907 L  189.53128 29.00926  " style="fill:none"/> 
 <g> 
 <g transform="matrix(0.81154,-0.58963,0.58963,0.81154,189.53128,29.00926)"> 
 <g> 
 <g stroke-width="0.31999pt"> 
 <g stroke-dasharray="none" stroke-dashoffset="0.0pt"> 
 <g stroke-linecap="round"> 
 <g stroke-linejoin="round"> 
 <path d=" M  -1.19998 1.59998 C  -1.09998 0.99998 0.0 0.09999 0.29999 0.0 C  0.0 -0.09999 -1.09998 -0.99998 -1.19998 -1.59998  " style="fill:none"/> 
 </g> 
 </g> 
 </g> 
 </g> 
 </g> 
 </g> 
 </g> 
 <path d=" M  263.13518 37.54907 L  274.88956 29.00926  " style="fill:none"/> 
 <g> 
 <g transform="matrix(0.81154,-0.58963,0.58963,0.81154,274.88956,29.00926)"> 
 <g> 
 <g stroke-width="0.31999pt"> 
 <g stroke-dasharray="none" stroke-dashoffset="0.0pt"> 
 <g stroke-linecap="round"> 
 <g stroke-linejoin="round"> 
 <path d=" M  -1.19998 1.59998 C  -1.09998 0.99998 0.0 0.09999 0.29999 0.0 C  0.0 -0.09999 -1.09998 -0.99998 -1.19998 -1.59998  " style="fill:none"/> 
 </g> 
 </g> 
 </g> 
 </g> 
 </g> 
 </g> 
 </g> 
 <path d=" M  195.08443 14.73277 L  190.58446 0.8841  " style="fill:none"/> 
 <g> 
 <g transform="matrix(-0.30948,-0.95242,0.95242,-0.30948,190.58446,0.8841)"> 
 <g> 
 <g stroke-width="0.31999pt"> 
 <g stroke-dasharray="none" stroke-dashoffset="0.0pt"> 
 <g stroke-linecap="round"> 
 <g stroke-linejoin="round"> 
 <path d=" M  -1.19998 1.59998 C  -1.09998 0.99998 0.0 0.09999 0.29999 0.0 C  0.0 -0.09999 -1.09998 -0.99998 -1.19998 -1.59998  " style="fill:none"/> 
 </g> 
 </g> 
 </g> 
 </g> 
 </g> 
 </g> 
 </g> 
 <path d=" M  280.4427 14.73277 L  275.94273 0.8841  " style="fill:none"/> 
 <g> 
 <g transform="matrix(-0.30948,-0.95242,0.95242,-0.30948,275.94273,0.8841)"> 
 <g> 
 <g stroke-width="0.31999pt"> 
 <g stroke-dasharray="none" stroke-dashoffset="0.0pt"> 
 <g stroke-linecap="round"> 
 <g stroke-linejoin="round"> 
 <path d=" M  -1.19998 1.59998 C  -1.09998 0.99998 0.0 0.09999 0.29999 0.0 C  0.0 -0.09999 -1.09998 -0.99998 -1.19998 -1.59998  " style="fill:none"/> 
 </g> 
 </g> 
 </g> 
 </g> 
 </g> 
 </g> 
 </g> 
 <path d=" M  178.74059 -8.7925 L  164.15245 -8.7925  " style="fill:none"/> 
 <g> 
 <g transform="matrix(-1.0,0.0,0.0,-1.0,164.15245,-8.7925)"> 
 <g> 
 <g stroke-width="0.31999pt"> 
 <g stroke-dasharray="none" stroke-dashoffset="0.0pt"> 
 <g stroke-linecap="round"> 
 <g stroke-linejoin="round"> 
 <path d=" M  -1.19998 1.59998 C  -1.09998 0.99998 0.0 0.09999 0.29999 0.0 C  0.0 -0.09999 -1.09998 -0.99998 -1.19998 -1.59998  " style="fill:none"/> 
 </g> 
 </g> 
 </g> 
 </g> 
 </g> 
 </g> 
 </g> 
 <path d=" M  264.09886 -8.7925 L  249.51073 -8.7925  " style="fill:none"/> 
 <g> 
 <g transform="matrix(-1.0,0.0,0.0,-1.0,249.51073,-8.7925)"> 
 <g> 
 <g stroke-width="0.31999pt"> 
 <g stroke-dasharray="none" stroke-dashoffset="0.0pt"> 
 <g stroke-linecap="round"> 
 <g stroke-linejoin="round"> 
 <path d=" M  -1.19998 1.59998 C  -1.09998 0.99998 0.0 0.09999 0.29999 0.0 C  0.0 -0.09999 -1.09998 -0.99998 -1.19998 -1.59998  " style="fill:none"/> 
 </g> 
 </g> 
 </g> 
 </g> 
 </g> 
 </g> 
 </g> 
 <path d=" M  156.68452 -0.50642 L  167.57253 33.00252  " style="fill:none"/> 
 <g> 
 <g transform="matrix(0.30945,0.95242,-0.95242,0.30945,167.57253,33.00252)"> 
 <g> 
 <g stroke-width="0.31999pt"> 
 <g stroke-dasharray="none" stroke-dashoffset="0.0pt"> 
 <g stroke-linecap="round"> 
 <g stroke-linejoin="round"> 
 <path d=" M  -1.19998 1.59998 C  -1.09998 0.99998 0.0 0.09999 0.29999 0.0 C  0.0 -0.09999 -1.09998 -0.99998 -1.19998 -1.59998  " style="fill:none"/> 
 </g> 
 </g> 
 </g> 
 </g> 
 </g> 
 </g> 
 </g> 
 <path d=" M  242.0428 -0.50642 L  252.9308 33.00252  " style="fill:none"/> 
 <g> 
 <g transform="matrix(0.30945,0.95242,-0.95242,0.30945,252.9308,33.00252)"> 
 <g> 
 <g stroke-width="0.31999pt"> 
 <g stroke-dasharray="none" stroke-dashoffset="0.0pt"> 
 <g stroke-linecap="round"> 
 <g stroke-linejoin="round"> 
 <path d=" M  -1.19998 1.59998 C  -1.09998 0.99998 0.0 0.09999 0.29999 0.0 C  0.0 -0.09999 -1.09998 -0.99998 -1.19998 -1.59998  " style="fill:none"/> 
 </g> 
 </g> 
 </g> 
 </g> 
 </g> 
 </g> 
 </g> 
 <path d=" M  152.35655 23.01884 L  187.6165 23.01884  " style="fill:none"/> 
 <g> 
 <g transform="matrix(1.0,0.0,0.0,1.0,187.6165,23.01884)"> 
 <g> 
 <g stroke-width="0.31999pt"> 
 <g stroke-dasharray="none" stroke-dashoffset="0.0pt"> 
 <g stroke-linecap="round"> 
 <g stroke-linejoin="round"> 
 <path d=" M  -1.19998 1.59998 C  -1.09998 0.99998 0.0 0.09999 0.29999 0.0 C  0.0 -0.09999 -1.09998 -0.99998 -1.19998 -1.59998  " style="fill:none"/> 
 </g> 
 </g> 
 </g> 
 </g> 
 </g> 
 </g> 
 </g> 
 <path d=" M  237.71483 23.01884 L  272.97478 23.01884  " style="fill:none"/> 
 <g> 
 <g transform="matrix(1.0,0.0,0.0,1.0,272.97478,23.01884)"> 
 <g> 
 <g stroke-width="0.31999pt"> 
 <g stroke-dasharray="none" stroke-dashoffset="0.0pt"> 
 <g stroke-linecap="round"> 
 <g stroke-linejoin="round"> 
 <path d=" M  -1.19998 1.59998 C  -1.09998 0.99998 0.0 0.09999 0.29999 0.0 C  0.0 -0.09999 -1.09998 -0.99998 -1.19998 -1.59998  " style="fill:none"/> 
 </g> 
 </g> 
 </g> 
 </g> 
 </g> 
 </g> 
 </g> 
 <path d=" M  173.40858 34.39304 L  184.29659 0.8841  " style="fill:none"/> 
 <g> 
 <g transform="matrix(0.30945,-0.95242,0.95242,0.30945,184.29659,0.8841)"> 
 <g> 
 <g stroke-width="0.31999pt"> 
 <g stroke-dasharray="none" stroke-dashoffset="0.0pt"> 
 <g stroke-linecap="round"> 
 <g stroke-linejoin="round"> 
 <path d=" M  -1.19998 1.59998 C  -1.09998 0.99998 0.0 0.09999 0.29999 0.0 C  0.0 -0.09999 -1.09998 -0.99998 -1.19998 -1.59998  " style="fill:none"/> 
 </g> 
 </g> 
 </g> 
 </g> 
 </g> 
 </g> 
 </g> 
 <path d=" M  258.76686 34.39304 L  269.65486 0.8841  " style="fill:none"/> 
 <g> 
 <g transform="matrix(0.30945,-0.95242,0.95242,0.30945,269.65486,0.8841)"> 
 <g> 
 <g stroke-width="0.31999pt"> 
 <g stroke-dasharray="none" stroke-dashoffset="0.0pt"> 
 <g stroke-linecap="round"> 
 <g stroke-linejoin="round"> 
 <path d=" M  -1.19998 1.59998 C  -1.09998 0.99998 0.0 0.09999 0.29999 0.0 C  0.0 -0.09999 -1.09998 -0.99998 -1.19998 -1.59998  " style="fill:none"/> 
 </g> 
 </g> 
 </g> 
 </g> 
 </g> 
 </g> 
 </g> 
 <path d=" M  190.71611 17.88895 L  162.23767 -2.8019  " style="fill:none"/> 
 <g> 
 <g transform="matrix(-0.81154,-0.58966,0.58966,-0.81154,162.23767,-2.8019)"> 
 <g> 
 <g stroke-width="0.31999pt"> 
 <g stroke-dasharray="none" stroke-dashoffset="0.0pt"> 
 <g stroke-linecap="round"> 
 <g stroke-linejoin="round"> 
 <path d=" M  -1.19998 1.59998 C  -1.09998 0.99998 0.0 0.09999 0.29999 0.0 C  0.0 -0.09999 -1.09998 -0.99998 -1.19998 -1.59998  " style="fill:none"/> 
 </g> 
 </g> 
 </g> 
 </g> 
 </g> 
 </g> 
 </g> 
 <path d=" M  276.07439 17.88895 L  247.59595 -2.8019  " style="fill:none"/> 
 <g> 
 <g transform="matrix(-0.81154,-0.58966,0.58966,-0.81154,247.59595,-2.8019)"> 
 <g> 
 <g stroke-width="0.31999pt"> 
 <g stroke-dasharray="none" stroke-dashoffset="0.0pt"> 
 <g stroke-linecap="round"> 
 <g stroke-linejoin="round"> 
 <path d=" M  -1.19998 1.59998 C  -1.09998 0.99998 0.0 0.09999 0.29999 0.0 C  0.0 -0.09999 -1.09998 -0.99998 -1.19998 -1.59998  " style="fill:none"/> 
 </g> 
 </g> 
 </g> 
 </g> 
 </g> 
 </g> 
 </g> 
 <path d=" M  180.3802 -3.6626 L  151.90176 17.02824  " style="fill:none"/> 
 <g> 
 <g transform="matrix(-0.81154,0.58966,-0.58966,-0.81154,151.90176,17.02824)"> 
 <g> 
 <g stroke-width="0.31999pt"> 
 <g stroke-dasharray="none" stroke-dashoffset="0.0pt"> 
 <g stroke-linecap="round"> 
 <g stroke-linejoin="round"> 
 <path d=" M  -1.19998 1.59998 C  -1.09998 0.99998 0.0 0.09999 0.29999 0.0 C  0.0 -0.09999 -1.09998 -0.99998 -1.19998 -1.59998  " style="fill:none"/> 
 </g> 
 </g> 
 </g> 
 </g> 
 </g> 
 </g> 
 </g> 
 <path d=" M  265.73848 -3.6626 L  237.26004 17.02824  " style="fill:none"/> 
 <g> 
 <g transform="matrix(-0.81154,0.58966,-0.58966,-0.81154,237.26004,17.02824)"> 
 <g> 
 <g stroke-width="0.31999pt"> 
 <g stroke-dasharray="none" stroke-dashoffset="0.0pt"> 
 <g stroke-linecap="round"> 
 <g stroke-linejoin="round"> 
 <path d=" M  -1.19998 1.59998 C  -1.09998 0.99998 0.0 0.09999 0.29999 0.0 C  0.0 -0.09999 -1.09998 -0.99998 -1.19998 -1.59998  " style="fill:none"/> 
 </g> 
 </g> 
 </g> 
 </g> 
 </g> 
 </g> 
 </g> 
 <path d=" M  92.91656 -4.36353 C  134.63997 -28.45274 214.70988 -23.01886 230.524 -13.88875  " style="fill:none"/> 
 <g> 
 <g transform="matrix(0.86877,0.50159,-0.50159,0.86877,230.524,-13.88875)"> 
 <g> 
 <g stroke-width="0.31999pt"> 
 <g stroke-dasharray="none" stroke-dashoffset="0.0pt"> 
 <g stroke-linecap="round"> 
 <g stroke-linejoin="round"> 
 <path d=" M  -1.19998 1.59998 C  -1.09998 0.99998 0.0 0.09999 0.29999 0.0 C  0.0 -0.09999 -1.09998 -0.99998 -1.19998 -1.59998  " style="fill:none"/> 
 </g> 
 </g> 
 </g> 
 </g> 
 </g> 
 </g> 
 </g> 
 <path d=" M  281.31313 -6.9296 L  303.0371 -2.17555  " style="fill:none"/> 
 <g> 
 <g transform="matrix(0.97865,0.21416,-0.21416,0.97865,303.0371,-2.17555)"> 
 <g> 
 <g stroke-width="0.31999pt"> 
 <g stroke-dasharray="none" stroke-dashoffset="0.0pt"> 
 <g stroke-linecap="round"> 
 <g stroke-linejoin="round"> 
 <path d=" M  -1.19998 1.59998 C  -1.09998 0.99998 0.0 0.09999 0.29999 0.0 C  0.0 -0.09999 -1.09998 -0.99998 -1.19998 -1.59998  " style="fill:none"/> 
 </g> 
 </g> 
 </g> 
 </g> 
 </g> 
 </g> 
 </g> 
 </g> 
 </g> 
 </g> 
 </g> 
 </g> 
 
                                                                                                                                     </g> 
</svg> 
