<svg xmlns="http://www.w3.org/2000/svg" xmlns:xlink="http://www.w3.org/1999/xlink" width="28.45274pt" height="10.76385pt" viewBox="0.0 -2.15277 28.45274 10.76385 "> 
<g transform="translate(0, 8.61108 ) scale(1,-1) translate(0,2.15277 )"> 
        <g> 
 <g stroke="rgb(0.0%,0.0%,0.0%)"> 
 <g fill="rgb(0.0%,0.0%,0.0%)"> 
 <g stroke-width="0.4pt"> 
 <g> 
 </g> 
 <g> 
 <g stroke-width="0.4pt"> 
 <path d=" M  0.2 2.15277 L  28.25275 2.15277  " style="fill:none"/> 
 <g> 
 <g transform="matrix(-1.0,0.0,0.0,-1.0,0.2,2.15277)"> 
 <g> 
 <g transform="matrix(-1.0,0.0,0.0,1.0,0.0,0.0)"> 
 <g stroke-dasharray="none" stroke-dashoffset="0.0pt"> 
 <g stroke-linecap="round"> 
 <path d=" M  0.0 0.0 L  0.35999 0.0 C  1.15915 0.0 1.79993 -0.79916 1.79993 -1.43994 C  1.79993 -2.2391 1.15915 -2.87988 0.35999 -2.87988  " style="fill:none"/> 
 </g> 
 </g> 
 </g> 
 </g> 
 </g> 
 </g> 
 <g> 
 <g transform="matrix(1.0,0.0,0.0,1.0,28.25275,2.15277)"> 
 <g> 
 <g transform="matrix(-1.0,0.0,0.0,1.0,0.0,0.0)"> 
 <g stroke-dasharray="none" stroke-dashoffset="0.0pt"> 
 <g stroke-linecap="round"> 
 <path d=" M  0.0 0.0 L  0.35999 0.0 C  1.15915 0.0 1.79993 -0.79916 1.79993 -1.43994 C  1.79993 -2.2391 1.15915 -2.87988 0.35999 -2.87988  " style="fill:none"/> 
 </g> 
 </g> 
 </g> 
 </g> 
 </g> 
 </g> 
 </g> 
 </g> 
 </g> 
 </g> 
 </g> 
 </g> 
  </g> 
</svg> 
