<svg xmlns="http://www.w3.org/2000/svg" xmlns:xlink="http://www.w3.org/1999/xlink" width="102.4309pt" height="145.96184pt" viewBox="-8.53633 -17.07138 102.4309 145.96184 "> 
<g transform="translate(0, 128.89046 ) scale(1,-1) translate(0,17.07138 )"> 
           <g> 
 <g stroke="rgb(0.0%,0.0%,0.0%)"> 
 <g fill="rgb(0.0%,0.0%,0.0%)"> 
 <g stroke-width="0.4pt"> 
 <g> 
 </g> 
 <g> 
 <clipPath id="pgfcp19"> <path d=" M  -8.53633 -17.07138 M  -8.53633 -17.07138 L  -8.53633 128.89046 L  93.89456 128.89046 L  93.89456 -17.07138 Z M  93.89456 128.89046  "/> 
</clipPath> 
 <g clip-path="url(#pgfcp19)"> 
 <g> 
 <g stroke="rgb(50.0%,50.0%,50.0%)"> 
 <g fill="rgb(50.0%,50.0%,50.0%)"> 
 <g stroke-width="0.2pt"> 
 <path d=" M  -119.50099 -119.50099 M  -119.50099 -85.35818 L  119.50099 -85.35818 M  -119.50099 -42.6791 L  119.50099 -42.6791 M  -119.50099 0.0 L  119.50099 0.0 M  -119.50099 42.6791 L  119.50099 42.6791 M  -119.50099 85.35818 L  119.50099 85.35818 M  -85.35818 -119.50099 L  -85.35818 119.50099 M  -42.6791 -119.50099 L  -42.6791 119.50099 M  0.0 -119.50099 L  0.0 119.50099 M  42.6791 -119.50099 L  42.6791 119.50099 M  85.35818 -119.50099 L  85.35818 119.50099  " style="fill:none"/> 
 </g> 
 </g> 
 </g> 
 </g> 
 <path d=" M  -128.03732 0.0 L  127.57733 0.0  " style="fill:none"/> 
 <g> 
 <g transform="matrix(1.0,0.0,0.0,1.0,127.57733,0.0)"> 
 <g> 
 <g stroke-width="0.31999pt"> 
 <g stroke-dasharray="none" stroke-dashoffset="0.0pt"> 
 <g stroke-linecap="round"> 
 <g stroke-linejoin="round"> 
 <path d=" M  -1.19998 1.59998 C  -1.09998 0.99998 0.0 0.09999 0.29999 0.0 C  0.0 -0.09999 -1.09998 -0.99998 -1.19998 -1.59998  " style="fill:none"/> 
 </g> 
 </g> 
 </g> 
 </g> 
 </g> 
 </g> 
 </g> 
 <path d=" M  0.0 -128.03732 L  0.0 127.57733  " style="fill:none"/> 
 <g> 
 <g transform="matrix(0.0,1.0,-1.0,0.0,0.0,127.57733)"> 
 <g> 
 <g stroke-width="0.31999pt"> 
 <g stroke-dasharray="none" stroke-dashoffset="0.0pt"> 
 <g stroke-linecap="round"> 
 <g stroke-linejoin="round"> 
 <path d=" M  -1.19998 1.59998 C  -1.09998 0.99998 0.0 0.09999 0.29999 0.0 C  0.0 -0.09999 -1.09998 -0.99998 -1.19998 -1.59998  " style="fill:none"/> 
 </g> 
 </g> 
 </g> 
 </g> 
 </g> 
 </g> 
 </g> 
 <path d=" M  0.0 0.0 M  85.35823 0.0 C  85.35823 47.37318 47.37318 85.35823 0.0 85.35823 C  -47.37318 85.35823 -85.35823 47.37318 -85.35823 0.0 C  -85.35823 -47.37318 -47.37318 -85.35823 0.0 -85.35823 C  47.37318 -85.35823 85.35823 -47.37318 85.35823 0.0 Z M  0.0 0.0  " style="fill:none"/> 
 <g> 
 <g fill="rgb(80.0003%,100.0%,80.0003%)"> 
 <g stroke="rgb(0.0%,50.0%,0.0%)"> 
 <path d=" M  0.0 0.0 L  25.60744 0.0 C  25.60744 4.60936 24.48138 8.8119 22.17673 12.8037 Z  " /> 
 </g> 
 </g> 
 </g> 
 <g> 
 <g stroke="rgb(100.0%,0.0%,0.0%)"> 
 <g fill="rgb(100.0%,0.0%,0.0%)"> 
 <g stroke-width="1.2pt"> 
 <path d=" M  73.92256 42.6791 L  73.92256 0.0  " style="fill:none"/> 
 </g> 
 </g> 
 </g> 
 </g> 
 <g> 
 <g stroke="rgb(0.0%,0.0%,100.0%)"> 
 <g fill="rgb(0.0%,0.0%,100.0%)"> 
 <g stroke-width="1.2pt"> 
 <path d=" M  73.92256 42.6791 M  73.92256 0.0 L  0.0 0.0  " style="fill:none"/> 
 </g> 
 </g> 
 </g> 
 </g> 
 <g> 
 <g stroke="rgb(100.0%,50.0%,0.0%)"> 
 <g fill="rgb(100.0%,50.0%,0.0%)"> 
 <g stroke-width="1.2pt"> 
 <path d=" M  85.35823 0.0 L  85.37032 49.28746  " style="fill:none"/> 
 </g> 
 </g> 
 </g> 
 </g> 
 </g> 
 </g> 
 </g> 
 </g> 
 </g> 
 </g> 
 
                               </g> 
</svg> 
