<svg xmlns="http://www.w3.org/2000/svg" xmlns:xlink="http://www.w3.org/1999/xlink" width="99.8846pt" height="93.55374pt" viewBox="-14.42638 -36.54826 99.8846 93.55374 "> 
<g transform="translate(0, 57.00548 ) scale(1,-1) translate(0,36.54826 )"> 
            <g> 
 <g stroke="rgb(0.0%,0.0%,0.0%)"> 
 <g fill="rgb(0.0%,0.0%,0.0%)"> 
 <g stroke-width="0.4pt"> 
 <g> 
 </g> 
 <g> 
 <g> 
 <g stroke="rgb(50.0%,50.0%,50.0%)"> 
 <g fill="rgb(50.0%,50.0%,50.0%)"> 
 <g stroke-width="0.2pt"> 
 <path d=" M  0.0 0.0 M  0.0 0.0 L  85.35823 0.0 M  0.0 28.45274 L  85.35823 28.45274 M  0.0 56.8955 L  85.35823 56.8955 M  0.0 0.0 L  0.0 56.90549 M  28.45274 0.0 L  28.45274 56.90549 M  56.90549 0.0 L  56.90549 56.90549 M  85.34824 0.0 L  85.34824 56.90549  " style="fill:none"/> 
 </g> 
 </g> 
 </g> 
 </g> 
 <path d=" M  71.13187 0.0 C  71.13187 15.79106 52.13934 28.45274 28.45274 28.45274 C  4.76614 28.45274 -14.22638 15.79106 -14.22638 0.0 C  -14.22638 -15.79106 4.76614 -28.45274 28.45274 -28.45274 C  52.13934 -28.45274 71.13187 -15.79106 71.13187 0.0 Z M  28.45274 0.0  " style="fill:none"/> 
 <g stroke="rgb(100.0%,0.0%,0.0%)"> 
 <g fill="rgb(100.0%,0.0%,0.0%)"> 
 <path d=" M  56.90549 28.45274 C  49.00996 36.34827 30.01744 30.01743 14.22638 14.22636 C  -1.56468 -1.5647 -7.89552 -20.55722 0.0 -28.45274 C  7.89552 -36.34827 26.88805 -30.01743 42.67911 -14.22636 C  58.47017 1.5647 64.80101 20.55722 56.90549 28.45274 Z M  28.45274 0.0  " style="fill:none"/> 
 </g> 
 </g> 
 </g> 
 </g> 
 </g> 
 </g> 
 </g> 
 
                              </g> 
</svg> 
