<svg xmlns="http://www.w3.org/2000/svg" xmlns:xlink="http://www.w3.org/1999/xlink" width="284.92743pt" height="57.5319pt" viewBox="-0.2 -28.74101 284.92743 57.5319 "> 
<g transform="translate(0, 28.7909 ) scale(1,-1) translate(0,28.74101 )"> 
        <g> 
 <g stroke="rgb(0.0%,0.0%,0.0%)"> 
 <g fill="rgb(0.0%,0.0%,0.0%)"> 
 <g stroke-width="0.4pt"> 
 <g> 
 </g> 
 <g> 
 <path d=" M  0.0 0.0 C  0.0 0.0 10.81976 10.8637 14.97528 14.29323 C  19.1308 17.72276 25.79462 22.75323 29.95013 24.71771 C  34.10565 26.68219 40.7699 28.48422 44.92542 28.45187 C  49.08093 28.41953 55.74477 26.50494 59.90028 24.48456 C  64.0558 22.46417 70.72005 17.35185 74.87556 13.89034 C  79.03108 10.42882 85.6949 3.5021 89.85042 -0.46367 C  94.00594 -4.42944 100.67014 -11.29558 104.82571 -14.69221 C  108.9813 -18.08885 115.64542 -23.0363 119.801 -24.94434 C  123.95657 -26.85237 130.62076 -28.54102 134.77628 -28.44405 C  138.9318 -28.34708 145.59563 -26.32103 149.75114 -24.24535 C  153.90666 -22.16966 160.57085 -16.97662 164.72643 -13.48396 C  168.882 -9.9913 175.54613 -3.03691 179.7017 0.92735 C  183.85728 4.89162 190.52148 11.72495 194.677 15.08772 C  198.83252 18.4505 205.49634 23.31291 209.65186 25.16402 C  213.80737 27.01512 220.47162 28.5909 224.62714 28.42929 C  228.78265 28.26768 235.44649 26.12979 239.602 23.99918 C  243.75752 21.86856 250.42177 16.5961 254.57729 13.07326 C  258.7328 9.55042 265.39662 2.57053 269.55214 -1.39102 C  273.70766 -5.35257 284.52744 -15.4789 284.52744 -15.4789  " style="fill:none"/> 
 </g> 
 </g> 
 </g> 
 </g> 
 </g> 
 
                                                                                     </g> 
</svg> 
