<svg xmlns="http://www.w3.org/2000/svg" xmlns:xlink="http://www.w3.org/1999/xlink" width="85.68571pt" height="32.34764pt" viewBox="-0.2 -29.64764 85.68571 32.34764 "> 
<g transform="translate(0, 2.7 ) scale(1,-1) translate(0,29.64764 )"> 
        <g> 
 <g stroke="rgb(0.0%,0.0%,0.0%)"> 
 <g fill="rgb(0.0%,0.0%,0.0%)"> 
 <g stroke-width="0.4pt"> 
 <g> 
 </g> 
 <g> 
 <path d=" M  0.0 0.0 L  2.5 2.5 L  5.0 0.0 L  7.5 -2.5 L  10.0 0.0 L  12.5 2.5 L  15.0 0.0 L  17.5 -2.5 L  20.0 0.0 L  22.5 2.5 L  25.0 0.0 L  27.5 -2.5 L  30.0 0.0 L  32.5 2.5 L  35.0 0.0 L  37.5 -2.5 L  40.0 0.0 L  42.5 2.5 L  45.0 0.0 L  47.5 -2.5 L  50.0 0.0 L  52.5 2.5 L  55.0 0.0 L  57.5 -2.5 L  60.0 0.0 L  62.5 2.5 L  65.0 0.0 L  67.5 -2.5 L  70.0 0.0 L  72.5 2.5 L  75.0 0.0 L  77.5 -2.5 L  80.0 0.0 L  82.5 2.5 L  85.0 0.0 L  85.02588 0.0  " style="fill:none"/> 
 <path d=" M  0.0 -14.22636 L  2.87997 -12.16914 L  4.93721 -15.04912 L  6.99443 -17.9291 L  9.87442 -15.87187 L  12.7544 -13.81465 L  14.81163 -16.69463 L  16.86885 -19.5746 L  19.74884 -17.51738 L  22.62881 -15.46016 L  24.68605 -18.34013 L  26.74327 -21.22011 L  29.62326 -19.16289 L  32.50323 -17.10567 L  34.56047 -19.98564 L  36.61769 -22.86562 L  39.49768 -20.8084 L  42.37766 -18.75117 L  44.43489 -21.63115 L  46.49211 -24.51112 L  49.3721 -22.4539 L  52.25208 -20.39668 L  54.30931 -23.27666 L  56.36653 -26.15663 L  59.24652 -24.09941 L  62.1265 -22.04219 L  64.18373 -24.92216 L  66.24095 -27.80214 L  69.12094 -25.74492 L  72.00092 -23.6877 L  74.05815 -26.56767 L  76.11537 -29.44765 L  78.99536 -27.39043 L  81.87534 -25.3332 L  83.93257 -28.21318 L  85.28572 -28.43866  " style="fill:none"/> 
 </g> 
 </g> 
 </g> 
 </g> 
 </g> 
 
                          </g> 
</svg> 
