<svg xmlns="http://www.w3.org/2000/svg" xmlns:xlink="http://www.w3.org/1999/xlink" width="113.81096pt" height="71.13184pt" viewBox="-7.11317 -7.11317 113.81096 71.13184 "> 
<g transform="translate(0, 64.01866 ) scale(1,-1) translate(0,7.11317 )"> 
          <g> 
 <g stroke="rgb(0.0%,0.0%,0.0%)"> 
 <g fill="rgb(0.0%,0.0%,0.0%)"> 
 <g stroke-width="0.4pt"> 
 <g> 
 </g> 
 <g> 
 <g stroke-width="4.30554pt"> 
 <path d=" M  12.28883 7.02222 L  87.2958 49.88329  " style="fill:none"/> 
 <g> 
 <g transform="matrix(-0.86877,-0.49648,0.49648,-0.86877,12.28883,7.02222)"> 
 <g> 
 <g> 
 <path d=" M  14.14503 0.0 C  9.95384 0.78583 3.14334 3.14334 -1.57167 5.89375 L  -1.57167 -5.89375 C  3.14334 -3.14334 9.95384 -0.78583 14.14503 0.0  " style="stroke:none"/> 
 </g> 
 <g transform="matrix(1.0,0.0,0.0,1.0,-8.02998,0.0)"> 
 <g stroke-dasharray="none" stroke-dashoffset="0.0pt"> 
 <g stroke-linejoin="round"> 
 <g stroke-linecap="round"> 
 <path d=" M  -9.41107 9.41107 C  -9.41107 4.1883 -5.22278 0.0 0.0 0.0  " style="fill:none"/> 
 <path d=" M  0.0 0.0 C  -5.22278 0.0 -9.41107 -4.1883 -9.41107 -9.41107  " style="fill:none"/> 
 </g> 
 </g> 
 </g> 
 </g> 
 </g> 
 </g> 
 </g> 
 <g> 
 <g transform="matrix(0.86877,0.49648,-0.49648,0.86877,87.2958,49.88329)"> 
 <g> 
 <g> 
 <path d=" M  14.14503 0.0 C  9.95384 0.78583 3.14334 3.14334 -1.57167 5.89375 L  -1.57167 -5.89375 C  3.14334 -3.14334 9.95384 -0.78583 14.14503 0.0  " style="stroke:none"/> 
 </g> 
 <g transform="matrix(1.0,0.0,0.0,1.0,-8.02998,0.0)"> 
 <g stroke-dasharray="none" stroke-dashoffset="0.0pt"> 
 <g stroke-linejoin="round"> 
 <g stroke-linecap="round"> 
 <path d=" M  -9.41107 9.41107 C  -9.41107 4.1883 -5.22278 0.0 0.0 0.0  " style="fill:none"/> 
 <path d=" M  0.0 0.0 C  -5.22278 0.0 -9.41107 -4.1883 -9.41107 -9.41107  " style="fill:none"/> 
 </g> 
 </g> 
 </g> 
 </g> 
 </g> 
 </g> 
 </g> 
 </g> 
 </g> 
 </g> 
 </g> 
 </g> 
 </g> 
                         </g> 
</svg> 
