<svg xmlns="http://www.w3.org/2000/svg" xmlns:xlink="http://www.w3.org/1999/xlink" width="66.71655pt" height="38.2638pt" viewBox="-33.35828 -19.1319 66.71655 38.2638 "> 
<g transform="translate(0, 19.1319 ) scale(1,-1) translate(0,19.1319 )"> 
                  <g> 
 <g stroke="rgb(0.0%,0.0%,0.0%)"> 
 <g fill="rgb(0.0%,0.0%,0.0%)"> 
 <g stroke-width="0.4pt"> 
 <g> 
 <g> 
 <g stroke-width="0.8pt"> 
 <g stroke="rgb(100.0%,0.0%,0.0%)"> 
 <path d=" M  -32.95828 -18.7319 M  -32.95828 -14.22636 L  32.95828 -14.22636 M  -32.95828 0.0 L  32.95828 0.0 M  -32.95828 14.22636 L  32.95828 14.22636 M  -28.45273 -18.7319 L  -28.45273 18.7319 M  -14.22636 -18.7319 L  -14.22636 18.7319 M  0.0 -18.7319 L  0.0 18.7319 M  14.22636 -18.7319 L  14.22636 18.7319 M  28.45273 -18.7319 L  28.45273 18.7319  " style="fill:none"/> 
 </g> 
 </g> 
 </g> 
 </g> 
 <g> 
 <path d=" M  0.0 0.0 M  28.45274 0.0 C  28.45274 7.89552 15.79106 14.22636 0.0 14.22636 C  -15.79106 14.22636 -28.45274 7.89552 -28.45274 0.0 C  -28.45274 -7.89552 -15.79106 -14.22636 0.0 -14.22636 C  15.79106 -14.22636 28.45274 -7.89552 28.45274 0.0 Z M  0.0 0.0  " style="fill:none"/> 
 </g> 
 </g> 
 </g> 
 </g> 
 </g> 
 
                    </g> 
</svg> 
