<svg xmlns="http://www.w3.org/2000/svg" xmlns:xlink="http://www.w3.org/1999/xlink" width="28.85272pt" height="28.85272pt" viewBox="-14.42636 -14.42636 28.85272 28.85272 "> 
<g transform="translate(0, 14.42636 ) scale(1,-1) translate(0,14.42636 )"> 
            <g> 
 <g stroke="rgb(0.0%,0.0%,0.0%)"> 
 <g fill="rgb(0.0%,0.0%,0.0%)"> 
 <g stroke-width="0.4pt"> 
 <g> 
 </g> 
 <g> 
 <g> 
 <clipPath id="pgfcp47"> <path d=" M  0.0 0.0 M  14.22636 0.0 C  14.22636 7.89552 7.89552 14.22636 0.0 14.22636 C  -7.89552 14.22636 -14.22636 7.89552 -14.22636 0.0 C  -14.22636 -7.89552 -7.89552 -14.22636 0.0 -14.22636 C  7.89552 -14.22636 14.22636 -7.89552 14.22636 0.0 Z M  0.0 0.0  "/> 
</clipPath> 
 <g clip-path="url(#pgfcp47)"> 
 <g transform="matrix(1,0,0,1,0.0,0.0)"> 
 <g transform="matrix(0.56917,0,0,0.56917,0.0,0.0)"> 
 <g transform="matrix(0.0,0.0,0.0,0.0,0.0,0.0)"> 
  <radialGradient id="pgfsh36" fx="0.40001" fy="0.59999" > 
 <stop offset=" 0.0" stop-color=" rgb(85.00061%,85.00061%,100.0%) "/> 
 <stop offset=" 0.18" stop-color=" rgb(25.0%,25.0%,100.0%) "/> 
 <stop offset=" 0.35999" stop-color=" rgb(0.0%,0.0%,69.9997%) "/> 
 <stop offset=" 0.5" stop-color=" rgb(0.0%,0.0%,50.0%) "/> 
 <stop offset=" 1.0" stop-color=" rgb(0.0%,0.0%,0.0%) "/> 
 </radialGradient> 
 <g transform="translate(-50.1875,-50.1875)"> 
 <circle cx="50.1875pt" cy="50.1875pt" r="50.1875pt" style="fill:url(#pgfsh36); stroke:none"/> 
 </g> 
 </g> 
 </g> 
 </g> 
 </g> 
 </g> 
 <path d=" M  0.0 0.0 M  14.22636 0.0 C  14.22636 7.89552 7.89552 14.22636 0.0 14.22636 C  -7.89552 14.22636 -14.22636 7.89552 -14.22636 0.0 C  -14.22636 -7.89552 -7.89552 -14.22636 0.0 -14.22636 C  7.89552 -14.22636 14.22636 -7.89552 14.22636 0.0 Z M  0.0 0.0  " style="fill:none"/> 
 </g> 
 </g> 
 </g> 
 </g> 
 </g> 
 
         </g> 
</svg> 
