<svg xmlns="http://www.w3.org/2000/svg" xmlns:xlink="http://www.w3.org/1999/xlink" width="28.85274pt" height="8.9359pt" viewBox="-0.2 -0.2 28.85274 8.9359 "> 
<g transform="translate(0, 8.7359 ) scale(1,-1) translate(0,0.2 )"> 
        <g> 
 <g stroke="rgb(0.0%,0.0%,0.0%)"> 
 <g fill="rgb(0.0%,0.0%,0.0%)"> 
 <g stroke-width="0.4pt"> 
 <g> 
 </g> 
 <g> 
 <path d=" M  0.0 0.0 L  27.99275 0.0  " style="fill:none"/> 
 <g> 
 <g transform="matrix(1.0,0.0,0.0,1.0,27.99275,0.0)"> 
 <g> 
 <g stroke-width="0.31999pt"> 
 <g stroke-dasharray="none" stroke-dashoffset="0.0pt"> 
 <g stroke-linecap="round"> 
 <g stroke-linejoin="round"> 
 <path d=" M  -1.19998 1.59998 C  -1.09998 0.99998 0.0 0.09999 0.29999 0.0 C  0.0 -0.09999 -1.09998 -0.99998 -1.19998 -1.59998  " style="fill:none"/> 
 </g> 
 </g> 
 </g> 
 </g> 
 </g> 
 </g> 
 </g> 
 <path d=" M  4.51982 8.5359 L  26.45277 8.5359  " style="fill:none"/> 
 <g> 
 <g transform="matrix(-1.0,0.0,0.0,-1.0,4.51982,8.5359)"> 
 <g> 
 <g stroke-dasharray="none" stroke-dashoffset="0.0pt"> 
 <path d=" M  4.31982 0.0 C  4.31982 1.19873 3.35864 2.15991 2.15991 2.15991 C  0.96118 2.15991 0.0 1.19873 0.0 0.0 C  0.0 -1.19873 0.96118 -2.15991 2.15991 -2.15991 C  3.35864 -2.15991 4.31982 -1.19873 4.31982 0.0 Z M  2.15991 0.0  " style="fill:none"/> 
 </g> 
 </g> 
 </g> 
 </g> 
 <g> 
 <g transform="matrix(1.0,0.0,0.0,1.0,26.45277,8.5359)"> 
 <g> 
 <path d=" M  1.99997 0.0 L  -1.19998 1.59998 L  0.0 0.0 L  -1.19998 -1.59998  " style="stroke:none"/> 
 </g> 
 </g> 
 </g> 
 </g> 
 </g> 
 </g> 
 </g> 
 </g> 
  </g> 
</svg> 
