<svg xmlns="http://www.w3.org/2000/svg" xmlns:xlink="http://www.w3.org/1999/xlink" width="54.0602pt" height="39.83383pt" viewBox="-19.91692 -19.91692 54.0602 39.83383 "> 
<g transform="translate(0, 19.91692 ) scale(1,-1) translate(0,19.91692 )"> 
              <g> 
 <g stroke="rgb(0.0%,0.0%,0.0%)"> 
 <g fill="rgb(0.0%,0.0%,0.0%)"> 
 <g stroke-width="0.4pt"> 
 <g> 
 </g> 
 <g fill-rule="nonzero"> 
 <path d=" M  19.91692 0.0 C  19.91692 11.05374 11.05374 19.91692 0.0 19.91692 C  -11.05374 19.91692 -19.91692 11.05374 -19.91692 0.0 C  -19.91692 -11.05374 -11.05374 -19.91692 0.0 -19.91692 C  11.05374 -19.91692 19.91692 -11.05374 19.91692 0.0 Z M  0.0 0.0 M  34.14328 0.0 C  34.14328 11.05374 25.2801 19.91692 14.22636 19.91692 C  3.17262 19.91692 -5.69055 11.05374 -5.69055 0.0 C  -5.69055 -11.05374 3.17262 -19.91692 14.22636 -19.91692 C  25.2801 -19.91692 34.14328 -11.05374 34.14328 0.0 Z M  14.22636 0.0  " style="stroke:none"/> 
 </g> 
 </g> 
 </g> 
 </g> 
 </g> 
 
                </g> 
</svg> 
