<svg xmlns="http://www.w3.org/2000/svg" xmlns:xlink="http://www.w3.org/1999/xlink" width="199.56918pt" height="85.75821pt" viewBox="-14.42636 -14.42636 199.56918 85.75821 "> 
<g transform="translate(0, 71.33185 ) scale(1,-1) translate(0,14.42636 )"> 
            <g> 
 <g stroke="rgb(0.0%,0.0%,0.0%)"> 
 <g fill="rgb(0.0%,0.0%,0.0%)"> 
 <g stroke-width="0.4pt"> 
 <g> 
 </g> 
 <g> 
 <g> 
 <g fill="rgb(80.0003%,80.0003%,16.00037%)"> 
 <g> 
 <path d=" M  14.22636 0.0 C  14.22636 7.89552 7.89552 14.22636 0.0 14.22636 C  -7.89552 14.22636 -14.22636 7.89552 -14.22636 0.0 C  -14.22636 -7.89552 -7.89552 -14.22636 0.0 -14.22636 C  7.89552 -14.22636 14.22636 -7.89552 14.22636 0.0 Z M  0.0 0.0  " /> 
 <g> 
 <g transform="matrix(1.0,0.0,0.0,1.0,-5.66841,-1.18056)"> 
 <g fill="rgb(0.0%,0.0%,0.0%)"> 
 <text style="stroke:none" transform="scale(1,-1) translate(5.66841,0)" text-anchor="middle"  font-size="10"> 
<tspan font-family="cmmi" font-size="10">q</tspan><tspan baseline-shift="sub"><tspan font-family="cmmi" font-size="7">A</tspan></tspan></text> 
</g> 
 </g> 
 </g> 
 </g> 
 <g> 
 <path d=" M  184.94283 0.0 C  184.94283 7.89552 178.61198 14.22636 170.71646 14.22636 C  162.82094 14.22636 156.4901 7.89552 156.4901 0.0 C  156.4901 -7.89552 162.82094 -14.22636 170.71646 -14.22636 C  178.61198 -14.22636 184.94283 -7.89552 184.94283 0.0 Z M  170.71646 0.0  " /> 
 <g> 
 <g transform="matrix(1.0,0.0,0.0,1.0,164.92723,-1.18056)"> 
 <g fill="rgb(0.0%,0.0%,0.0%)"> 
 <text style="stroke:none" transform="scale(1,-1) translate(5.78923,0)" text-anchor="middle"  font-size="10"> 
<tspan font-family="cmmi" font-size="10">q</tspan><tspan baseline-shift="sub"><tspan font-family="cmmi" font-size="7">E</tspan></tspan></text> 
</g> 
 </g> 
 </g> 
 </g> 
 <g> 
 <path d=" M  71.13185 0.0 C  71.13185 7.89552 64.80101 14.22636 56.90549 14.22636 C  49.00996 14.22636 42.67912 7.89552 42.67912 0.0 C  42.67912 -7.89552 49.00996 -14.22636 56.90549 -14.22636 C  64.80101 -14.22636 71.13185 -7.89552 71.13185 0.0 Z M  56.90549 0.0  " /> 
 <g> 
 <g transform="matrix(1.0,0.0,0.0,1.0,52.25098,-1.18056)"> 
 <g fill="rgb(0.0%,0.0%,0.0%)"> 
 <text style="stroke:none" transform="scale(1,-1) translate(4.65451,0)" text-anchor="middle"  font-size="10"> 
<tspan font-family="cmmi" font-size="10">q</tspan><tspan baseline-shift="sub"><tspan font-family="cmr" font-size="7">1</tspan> </tspan> </text> 
</g> 
 </g> 
 </g> 
 </g> 
 <g> 
 <path d=" M  128.03734 56.90549 C  128.03734 64.80101 121.7065 71.13185 113.81097 71.13185 C  105.91545 71.13185 99.58461 64.80101 99.58461 56.90549 C  99.58461 49.00996 105.91545 42.67912 113.81097 42.67912 C  121.7065 42.67912 128.03734 49.00996 128.03734 56.90549 Z M  113.81097 56.90549  " /> 
 <g> 
 <g transform="matrix(1.0,0.0,0.0,1.0,109.15646,55.72493)"> 
 <g fill="rgb(0.0%,0.0%,0.0%)"> 
 <text style="stroke:none" transform="scale(1,-1) translate(4.65451,0)" text-anchor="middle"  font-size="10"> 
<tspan font-family="cmmi" font-size="10">q</tspan><tspan baseline-shift="sub"><tspan font-family="cmr" font-size="7">2</tspan> </tspan> </text> 
</g> 
 </g> 
 </g> 
 </g> 
 </g> 
 </g> 
 <path d=" M  14.42636 0.0 L  42.47913 0.0 M  67.10669 10.20097 L  103.60977 46.70451 M  128.23734 56.90549 L  170.71646 56.90549 L  170.71646 14.42636  " style="fill:none"/> 
 <path d=" M  3.74109 13.9621 C  10.30972 38.47643 -10.30972 38.47643 -4.37898 16.34291  " style="fill:none"/> 
 <g> 
 <g transform="matrix(0.25932,-0.96782,0.96782,0.25932,-4.37898,16.34291)"> 
 <g> 
 <g stroke-width="0.31999pt"> 
 <g stroke-dasharray="none" stroke-dashoffset="0.0pt"> 
 <g stroke-linecap="round"> 
 <g stroke-linejoin="round"> 
 <path d=" M  -1.19998 1.59998 C  -1.09998 0.99998 0.0 0.09999 0.29999 0.0 C  0.0 -0.09999 -1.09998 -0.99998 -1.19998 -1.59998  " style="fill:none"/> 
 </g> 
 </g> 
 </g> 
 </g> 
 </g> 
 </g> 
 </g> 
 <g> 
 <g> 
 <g transform="matrix(1.0,0.0,0.0,1.0,-2.85764,35.88078)"> 
 <g fill="rgb(0.0%,0.0%,0.0%)"> 
 <text style="stroke:none" transform="scale(1,-1) translate(2.85764,0)" text-anchor="middle"  font-size="10"> 
<tspan font-family="cmmi" font-size="10">x</tspan></text> 
</g> 
 </g> 
 </g> 
 </g> 
 </g> 
 </g> 
 </g> 
 </g> 
 </g> 
 
                                                   </g> 
</svg> 
