<svg xmlns="http://www.w3.org/2000/svg" xmlns:xlink="http://www.w3.org/1999/xlink" width="114.01096pt" height="37.55792pt" viewBox="-57.00548 -9.00519 114.01096 37.55792 "> 
<g transform="translate(0, 28.55273 ) scale(1,-1) translate(0,9.00519 )"> 
                         <g> 
 <g stroke="rgb(0.0%,0.0%,0.0%)"> 
 <g fill="rgb(0.0%,0.0%,0.0%)"> 
 <g stroke-width="0.4pt"> 
 <g> 
 </g> 
 <g> 
 <g> 
 <g stroke="rgb(50.0%,50.0%,50.0%)"> 
 <g fill="rgb(50.0%,50.0%,50.0%)"> 
 <g stroke-width="0.2pt"> 
 <path d=" M  -56.90549 0.0 M  -56.90549 0.0 L  56.90549 0.0 M  -56.90549 28.44275 L  56.90549 28.44275 M  -56.90549 0.0 L  -56.90549 28.45274 M  -28.45274 0.0 L  -28.45274 28.45274 M  0.0 0.0 L  0.0 28.45274 M  28.45274 0.0 L  28.45274 28.45274 M  56.8955 0.0 L  56.8955 28.45274  " style="fill:none"/> 
 </g> 
 </g> 
 </g> 
 </g> 
 <path d=" M  -29.59691 -6.80519 h  59.19382 v  13.61038 h  -59.19382 Z  " style="fill:none"/> 
 <g> 
 <g transform="matrix(1.0,0.0,0.0,1.0,-26.26393,-3.47221)"> 
 <g fill="rgb(0.0%,0.0%,0.0%)"> 
 <text style="stroke:none" transform="scale(1,-1) translate(26.26393,0)" text-anchor="middle"  font-size="10"> 
Hello World</text> 
</g> 
 </g> 
 </g> 
 <path d=" M  2.0 7.00519 C  2.0 8.11517 1.10999 9.00519 0.0 9.00519 C  -1.10999 9.00519 -2.0 8.11517 -2.0 7.00519 C  -2.0 5.8952 -1.10999 5.00519 0.0 5.00519 C  1.10999 5.00519 2.0 5.8952 2.0 7.00519 Z M  0.0 7.00519 M  2.0 -7.00519 C  2.0 -5.8952 1.10999 -5.00519 0.0 -5.00519 C  -1.10999 -5.00519 -2.0 -5.8952 -2.0 -7.00519 C  -2.0 -8.11517 -1.10999 -9.00519 0.0 -9.00519 C  1.10999 -9.00519 2.0 -8.11517 2.0 -7.00519 Z M  0.0 -7.00519 M  45.82327 0.0 C  45.82327 1.10999 44.93326 2.0 43.82327 2.0 C  42.71329 2.0 41.82327 1.10999 41.82327 0.0 C  41.82327 -1.10999 42.71329 -2.0 43.82327 -2.0 C  44.93326 -2.0 45.82327 -1.10999 45.82327 0.0 Z M  43.82327 0.0 M  -41.82327 0.0 C  -41.82327 1.10999 -42.71329 2.0 -43.82327 2.0 C  -44.93326 2.0 -45.82327 1.10999 -45.82327 0.0 C  -45.82327 -1.10999 -44.93326 -2.0 -43.82327 -2.0 C  -42.71329 -2.0 -41.82327 -1.10999 -41.82327 0.0 Z M  -43.82327 0.0 M  45.82327 7.00519 C  45.82327 8.11517 44.93326 9.00519 43.82327 9.00519 C  42.71329 9.00519 41.82327 8.11517 41.82327 7.00519 C  41.82327 5.8952 42.71329 5.00519 43.82327 5.00519 C  44.93326 5.00519 45.82327 5.8952 45.82327 7.00519 Z M  43.82327 7.00519  " style="stroke:none"/> 
 </g> 
 </g> 
 </g> 
 </g> 
 </g> 
 
                                  </g> 
</svg> 
