<svg xmlns="http://www.w3.org/2000/svg" xmlns:xlink="http://www.w3.org/1999/xlink" width="85.75822pt" height="169.28902pt" viewBox="-28.65274 -163.80327 85.75822 169.28902 "> 
<g transform="translate(0, 5.48575 ) scale(1,-1) translate(0,163.80327 )"> 
                 <g> 
 <g stroke="rgb(0.0%,0.0%,0.0%)"> 
 <g fill="rgb(0.0%,0.0%,0.0%)"> 
 <g stroke-width="0.4pt"> 
 <g> 
 </g> 
 <g> 
 <g> 
 <g> 
 <g transform="matrix(1.0,0.0,0.0,1.0,-7.50002,-2.15277)"> 
 <g fill="rgb(0.0%,0.0%,0.0%)"> 
 <text style="stroke:none" transform="scale(1,-1) translate(7.50002,0)" text-anchor="middle"  font-size="10"> 
one</text> 
</g> 
 </g> 
 </g> 
 </g> 
 <g> 
 <g> 
 </g> 
 <path d=" M  -11.03299 -5.51564 L  -28.45274 -14.22636  " style="fill:none"/> 
 </g> 
 <g> 
 <g> 
 <g transform="matrix(1.0,0.0,0.0,1.0,-7.77779,-45.7545)"> 
 <g fill="rgb(0.0%,0.0%,0.0%)"> 
 <text style="stroke:none" transform="scale(1,-1) translate(7.77779,0)" text-anchor="middle"  font-size="10"> 
two</text> 
</g> 
 </g> 
 </g> 
 </g> 
 <g> 
 <g> 
 </g> 
 <path d=" M  -11.31076 -48.33362 L  -28.45274 -56.90547  " style="fill:none"/> 
 </g> 
 <g> 
 <g> 
 </g> 
 <path d=" M  0.0 -49.28748 L  0.0 -64.01866  " style="fill:none"/> 
 </g> 
 <g> 
 <g> 
 <g transform="matrix(1.0,0.0,0.0,1.0,-11.12502,-88.83044)"> 
 <g fill="rgb(0.0%,0.0%,0.0%)"> 
 <text style="stroke:none" transform="scale(1,-1) translate(11.12502,0)" text-anchor="middle"  font-size="10"> 
three</text> 
</g> 
 </g> 
 </g> 
 </g> 
 <g> 
 <g> 
 </g> 
 <path d=" M  -14.00833 -92.36342 L  -28.45274 -99.5846  " style="fill:none"/> 
 </g> 
 <g> 
 <g> 
 </g> 
 <path d=" M  0.0 -92.36342 L  0.0 -106.69778  " style="fill:none"/> 
 </g> 
 <g> 
 <g> 
 </g> 
 <path d=" M  7.0041 -92.36342 L  28.45274 -113.81097  " style="fill:none"/> 
 </g> 
 <g> 
 <g> 
 <g transform="matrix(1.0,0.0,0.0,1.0,-8.76392,-131.50955)"> 
 <g fill="rgb(0.0%,0.0%,0.0%)"> 
 <text style="stroke:none" transform="scale(1,-1) translate(8.76392,0)" text-anchor="middle"  font-size="10"> 
four</text> 
</g> 
 </g> 
 </g> 
 </g> 
 <g> 
 <g> 
 </g> 
 <path d=" M  -12.29689 -134.18484 L  -28.45274 -142.2637  " style="fill:none"/> 
 </g> 
 <g> 
 <g> 
 </g> 
 <path d=" M  0.0 -135.04253 L  0.0 -149.37689  " style="fill:none"/> 
 </g> 
 <g> 
 <g> 
 </g> 
 <path d=" M  7.0041 -135.04253 L  28.45274 -156.49008  " style="fill:none"/> 
 </g> 
 <g> 
 <g> 
 </g> 
 <path d=" M  11.20416 -135.04253 L  56.90549 -163.60327  " style="fill:none"/> 
 </g> 
 </g> 
 </g> 
 </g> 
 </g> 
 </g> 
 
                          </g> 
</svg> 
