<svg xmlns="http://www.w3.org/2000/svg" xmlns:xlink="http://www.w3.org/1999/xlink" width="85.42587pt" height="3.93552pt" viewBox="-0.2 -1.96776 85.42587 3.93552 "> 
<g transform="translate(0, 1.96776 ) scale(1,-1) translate(0,1.96776 )"> 
        <g> 
 <g stroke="rgb(0.0%,0.0%,0.0%)"> 
 <g fill="rgb(0.0%,0.0%,0.0%)"> 
 <g stroke-width="0.4pt"> 
 <g> 
 </g> 
 <g> 
 <path d=" M  0.0 0.0 M  9.26776 1.76776 C  10.24875 0.78677 10.24875 -0.78677 9.26776 -1.76776 M  19.26776 1.76776 C  20.24875 0.78677 20.24875 -0.78677 19.26776 -1.76776 M  29.26776 1.76776 C  30.24875 0.78677 30.24875 -0.78677 29.26776 -1.76776 M  39.26776 1.76776 C  40.24875 0.78677 40.24875 -0.78677 39.26776 -1.76776 M  49.26776 1.76776 C  50.24875 0.78677 50.24875 -0.78677 49.26776 -1.76776 M  59.26776 1.76776 C  60.24875 0.78677 60.24875 -0.78677 59.26776 -1.76776 M  69.26776 1.76776 C  70.24875 0.78677 70.24875 -0.78677 69.26776 -1.76776 M  79.26776 1.76776 C  80.24875 0.78677 80.24875 -0.78677 79.26776 -1.76776 M  85.02588 0.0  " style="fill:none"/> 
 </g> 
 </g> 
 </g> 
 </g> 
 </g> 
                   </g> 
</svg> 
