<svg xmlns="http://www.w3.org/2000/svg" xmlns:xlink="http://www.w3.org/1999/xlink" width="68.43256pt" height="42.54958pt" viewBox="-5.97188 -5.48575 68.43256 42.54958 "> 
<g transform="translate(0, 37.06383 ) scale(1,-1) translate(0,5.48575 )"> 
          <g> 
 <g stroke="rgb(0.0%,0.0%,0.0%)"> 
 <g fill="rgb(0.0%,0.0%,0.0%)"> 
 <g stroke-width="0.4pt"> 
 <g> 
 </g> 
 <g> 
 <g> 
 <g stroke="rgb(50.0%,50.0%,50.0%)"> 
 <g fill="rgb(50.0%,50.0%,50.0%)"> 
 <path d=" M  0.0 0.0 M  28.45274 28.45274 M  56.90549 14.22636  " style="fill:none"/> 
 <g> 
 <g> 
 <g transform="matrix(1.0,0.0,0.0,1.0,-2.6389,-2.15277)"> 
 <g fill="rgb(50.0%,50.0%,50.0%)"> 
 <text style="stroke:none" transform="scale(1,-1) translate(2.6389,0)" text-anchor="middle"  font-size="10"> 
x</text> 
</g> 
 </g> 
 </g> 
 </g> 
 <g> 
 <g> 
 <g transform="matrix(1.0,0.0,0.0,1.0,25.81384,27.27219)"> 
 <g fill="rgb(50.0%,50.0%,50.0%)"> 
 <text style="stroke:none" transform="scale(1,-1) translate(2.6389,0)" text-anchor="middle"  font-size="10"> 
y</text> 
</g> 
 </g> 
 </g> 
 </g> 
 <g> 
 <g> 
 <g transform="matrix(1.0,0.0,0.0,1.0,54.68327,12.0736)"> 
 <g fill="rgb(50.0%,50.0%,50.0%)"> 
 <text style="stroke:none" transform="scale(1,-1) translate(2.22221,0)" text-anchor="middle"  font-size="10"> 
z</text> 
</g> 
 </g> 
 </g> 
 </g> 
 </g> 
 </g> 
 </g> 
 <path d=" M  4.30554 4.30554 C  4.30554 6.69508 2.38954 8.61108 0.0 8.61108 C  -2.38954 8.61108 -4.30554 6.69508 -4.30554 4.30554 C  -4.30554 1.916 -2.38954 0.0 0.0 0.0 C  2.38954 0.0 4.30554 1.916 4.30554 4.30554 Z M  0.0 4.30554  " style="fill:none"/> 
 <path d=" M  32.75829 32.75829 C  32.75829 35.14783 30.84229 37.06383 28.45274 37.06383 C  26.0632 37.06383 24.1472 35.14783 24.1472 32.75829 C  24.1472 30.36874 26.0632 28.45274 28.45274 28.45274 C  30.84229 28.45274 32.75829 30.36874 32.75829 32.75829 Z M  28.45274 32.75829  " style="fill:none"/> 
 <path d=" M  61.21104 18.5319 C  61.21104 20.92145 59.29504 22.83745 56.9055 22.83745 C  54.51596 22.83745 52.59996 20.92145 52.59996 18.5319 C  52.59996 16.14236 54.51596 14.22636 56.9055 14.22636 C  59.29504 14.22636 61.21104 16.14236 61.21104 18.5319 Z M  56.9055 18.5319  " style="fill:none"/> 
 <path d="  " style="fill:none"/> 
 </g> 
 </g> 
 </g> 
 </g> 
 </g> 
          </g> 
</svg> 
