<svg xmlns="http://www.w3.org/2000/svg" xmlns:xlink="http://www.w3.org/1999/xlink" width="85.5049pt" height="71.21587pt" viewBox="-26.96358 -6.80519 85.5049 71.21587 "> 
<g transform="translate(0, 64.41068 ) scale(1,-1) translate(0,6.80519 )"> 
                <g> 
 <g stroke="rgb(0.0%,0.0%,0.0%)"> 
 <g fill="rgb(0.0%,0.0%,0.0%)"> 
 <g stroke-width="0.4pt"> 
 <g> 
 </g> 
 <g> 
 <g> 
 <g fill="rgb(80.0003%,80.0003%,16.00037%)"> 
 <path d=" M  0.0 0.0 L  28.45274 28.45274 L  0.0 56.90549  " style="stroke:none"/> 
 <g> 
 <g> 
 <g transform="matrix(1.0,0.0,0.0,1.0,-20.73615,-3.47221)"> 
 <g fill="rgb(0.0%,0.0%,0.0%)"> 
 <text style="stroke:none" transform="scale(1,-1) translate(20.73615,0)" text-anchor="middle"  font-size="10"> 
first node</text> 
</g> 
 </g> 
 </g> 
 </g> 
 <g> 
 <path d=" M  -1.43584 21.64755 h  59.77716 v  13.61038 h  -59.77716 Z  " style="fill:none"/> 
 <g> 
 <g transform="matrix(1.0,0.0,0.0,1.0,1.89714,24.98053)"> 
 <g fill="rgb(0.0%,0.0%,0.0%)"> 
 <text style="stroke:none" transform="scale(1,-1) translate(26.5556,0)" text-anchor="middle"  font-size="10"> 
second node</text> 
</g> 
 </g> 
 </g> 
 </g> 
 <g> 
 <g fill="rgb(100.0%,80.0003%,80.0003%)"> 
 <g> 
 <g fill="rgb(100.0%,80.0003%,80.0003%)"> 
 <g> 
 <g stroke-width="1.4pt"> 
 <path d=" M  22.26358 63.71068 L  -22.26358 63.71068 C  -24.48355 63.71068 -26.26358 61.93065 -26.26358 59.71068 L  -26.26358 54.1003 C  -26.26358 51.88033 -24.48355 50.1003 -22.26358 50.1003 L  22.26358 50.1003 C  24.48355 50.1003 26.26358 51.88033 26.26358 54.1003 L  26.26358 59.71068 C  26.26358 61.93065 24.48355 63.71068 22.26358 63.71068 Z M  -26.26358 50.1003  " /> 
 <g stroke-width="0.6pt"> 
 <g stroke="rgb(100.0%,100.0%,100.0%)"> 
 <path d=" M  22.26358 63.71068 L  -22.26358 63.71068 C  -24.48355 63.71068 -26.26358 61.93065 -26.26358 59.71068 L  -26.26358 54.1003 C  -26.26358 51.88033 -24.48355 50.1003 -22.26358 50.1003 L  22.26358 50.1003 C  24.48355 50.1003 26.26358 51.88033 26.26358 54.1003 L  26.26358 59.71068 C  26.26358 61.93065 24.48355 63.71068 22.26358 63.71068 Z M  -26.26358 50.1003  " style="fill:none"/> 
 </g> 
 </g> 
 </g> 
 </g> 
 </g> 
 </g> 
 <g> 
 <g transform="matrix(1.0,0.0,0.0,1.0,-22.9306,53.43327)"> 
 <g fill="rgb(0.0%,0.0%,0.0%)"> 
 <text style="stroke:none" transform="scale(1,-1) translate(22.9306,0)" text-anchor="middle"  font-size="10"> 
third node</text> 
</g> 
 </g> 
 </g> 
 </g> 
 </g> 
 </g> 
 </g> 
 </g> 
 </g> 
 </g> 
 </g> 
 </g> 
  </g> 
</svg> 
