<svg xmlns="http://www.w3.org/2000/svg" xmlns:xlink="http://www.w3.org/1999/xlink" width="381.09662pt" height="141.29791pt" viewBox="-190.54831 -70.64896 381.09662 141.29791 "> 
<g transform="translate(0,  70.64896 ) scale(1,-1) translate(0,70.64896 )"> 
                                                                           <g> 
 <g stroke="rgb(0.0%,0.0%,0.0%)"> 
 <g fill="rgb(0.0%,0.0%,0.0%)"> 
 <g stroke-width="0.4pt"> 
 <g> 
 </g> 
 <g> 
 <g> 
 <g stroke="rgb(69.9997%,69.9997%,69.9997%)"> 
 <g fill="rgb(69.9997%,69.9997%,69.9997%)"> 
 <g fill="rgb(100.0%,100.0%,69.9997%)"> 
 <g stroke-width="14.22636pt"> 
 <g> 
 <g transform="matrix(1.0,0.0,0.0,1.0,-44.82784,-28.45274)"> 
 <g fill="rgb(69.9997%,69.9997%,69.9997%)"> 
 <text style="stroke:none" transform="scale(1,-1) translate(44.82784,0)" text-anchor="middle"  font-size="24.88"> 
<tspan font-family="cmr" font-size="17">cross out</tspan></text> 
</g> 
 </g> 
 </g> 
 <g> 
 <g stroke="rgb(69.9997%,69.9997%,69.9997%)"> 
 <g fill="rgb(69.9997%,69.9997%,69.9997%)"> 
 <g fill="rgb(100.0%,100.0%,69.9997%)"> 
 <g stroke-width="14.22636pt"> 
 <path d=" M  -123.07289 -49.79228 L  123.07289 49.79228 M  -123.07289 49.79228 L  123.07289 -49.79228  " /> 
 </g> 
 </g> 
 </g> 
 </g> 
 </g> 
 </g> 
 </g> 
 </g> 
 </g> 
 </g> 
 <path d=" M  -123.07289 49.79228  " style="fill:none"/> 
 <g> 
 <path d=" M  -124.4871 48.37807 L  -121.65868 51.2065 M  -124.4871 51.2065 L  -121.65868 48.37807  " style="fill:none"/> 
 </g> 
 <g> 
 <g> 
 <g transform="matrix(1.0,0.0,0.0,1.0,-182.94217,58.18173)"> 
 <g fill="rgb(0.0%,0.0%,0.0%)"> 
 <text style="stroke:none" transform="scale(1,-1) translate(26.03157,0)" text-anchor="middle"  font-size="24.88"> 
<tspan font-family="cmtt" font-size="8">(s.north west)</tspan></text> 
</g> 
 </g> 
 </g> 
 </g> 
 <path d=" M  0.0 49.79228  " style="fill:none"/> 
 <g> 
 <path d=" M  -1.41422 48.37807 L  1.41422 51.2065 M  -1.41422 51.2065 L  1.41422 48.37807  " style="fill:none"/> 
 </g> 
 <g> 
 <g> 
 <g transform="matrix(1.0,0.0,0.0,1.0,-16.73457,58.18173)"> 
 <g fill="rgb(0.0%,0.0%,0.0%)"> 
 <text style="stroke:none" transform="scale(1,-1) translate(16.73457,0)" text-anchor="middle"  font-size="24.88"> 
<tspan font-family="cmtt" font-size="8">(s.north)</tspan></text> 
</g> 
 </g> 
 </g> 
 </g> 
 <path d=" M  123.07289 49.79228  " style="fill:none"/> 
 <g> 
 <path d=" M  121.65868 48.37807 L  124.4871 51.2065 M  121.65868 51.2065 L  124.4871 48.37807  " style="fill:none"/> 
 </g> 
 <g> 
 <g> 
 <g transform="matrix(1.0,0.0,0.0,1.0,130.87903,58.18173)"> 
 <g fill="rgb(0.0%,0.0%,0.0%)"> 
 <text style="stroke:none" transform="scale(1,-1) translate(26.03157,0)" text-anchor="middle"  font-size="24.88"> 
<tspan font-family="cmtt" font-size="8">(s.north east)</tspan></text> 
</g> 
 </g> 
 </g> 
 </g> 
 <path d=" M  -123.07289 0.0  " style="fill:none"/> 
 <g> 
 <path d=" M  -124.4871 -1.41422 L  -121.65868 1.41422 M  -124.4871 1.41422 L  -121.65868 -1.41422  " style="fill:none"/> 
 </g> 
 <g> 
 <g> 
 <g transform="matrix(1.0,0.0,0.0,1.0,-160.6294,-2.13889)"> 
 <g fill="rgb(0.0%,0.0%,0.0%)"> 
 <text style="stroke:none" transform="scale(1,-1) translate(14.87518,0)" text-anchor="middle"  font-size="24.88"> 
<tspan font-family="cmtt" font-size="8">(s.west)</tspan></text> 
</g> 
 </g> 
 </g> 
 </g> 
 <path d=" M  0.0 0.0  " style="fill:none"/> 
 <g> 
 <path d=" M  -1.41422 -1.41422 L  1.41422 1.41422 M  -1.41422 1.41422 L  1.41422 -1.41422  " style="fill:none"/> 
 </g> 
 <g> 
 <g> 
 <g transform="matrix(1.0,0.0,0.0,1.0,-18.59398,8.38945)"> 
 <g fill="rgb(0.0%,0.0%,0.0%)"> 
 <text style="stroke:none" transform="scale(1,-1) translate(18.59398,0)" text-anchor="middle"  font-size="24.88"> 
<tspan font-family="cmtt" font-size="8">(s.center)</tspan></text> 
</g> 
 </g> 
 </g> 
 </g> 
 <path d=" M  123.07289 0.0  " style="fill:none"/> 
 <g> 
 <path d=" M  121.65868 -1.41422 L  124.4871 1.41422 M  121.65868 1.41422 L  124.4871 -1.41422  " style="fill:none"/> 
 </g> 
 <g> 
 <g> 
 <g transform="matrix(1.0,0.0,0.0,1.0,130.87903,-2.13889)"> 
 <g fill="rgb(0.0%,0.0%,0.0%)"> 
 <text style="stroke:none" transform="scale(1,-1) translate(14.87518,0)" text-anchor="middle"  font-size="24.88"> 
<tspan font-family="cmtt" font-size="8">(s.east)</tspan></text> 
</g> 
 </g> 
 </g> 
 </g> 
 <path d=" M  -123.07289 -23.09744  " style="fill:none"/> 
 <g> 
 <path d=" M  -124.4871 -24.51166 L  -121.65868 -21.68323 M  -124.4871 -21.68323 L  -121.65868 -24.51166  " style="fill:none"/> 
 </g> 
 <g> 
 <g> 
 <g transform="matrix(1.0,0.0,0.0,1.0,-115.26675,-25.23633)"> 
 <g fill="rgb(0.0%,0.0%,0.0%)"> 
 <text style="stroke:none" transform="scale(1,-1) translate(22.31277,0)" text-anchor="middle"  font-size="24.88"> 
<tspan font-family="cmtt" font-size="8">(s.mid west)</tspan></text> 
</g> 
 </g> 
 </g> 
 </g> 
 <path d=" M  0.0 -23.09744  " style="fill:none"/> 
 <g> 
 <path d=" M  -1.41422 -24.51166 L  1.41422 -21.68323 M  -1.41422 -21.68323 L  1.41422 -24.51166  " style="fill:none"/> 
 </g> 
 <g> 
 <g> 
 <g transform="matrix(1.0,0.0,0.0,1.0,-13.01578,-14.708)"> 
 <g fill="rgb(0.0%,0.0%,0.0%)"> 
 <text style="stroke:none" transform="scale(1,-1) translate(13.01578,0)" text-anchor="middle"  font-size="24.88"> 
<tspan font-family="cmtt" font-size="8">(s.mid)</tspan></text> 
</g> 
 </g> 
 </g> 
 </g> 
 <path d=" M  123.07289 -23.09744  " style="fill:none"/> 
 <g> 
 <path d=" M  121.65868 -24.51166 L  124.4871 -21.68323 M  121.65868 -21.68323 L  124.4871 -24.51166  " style="fill:none"/> 
 </g> 
 <g> 
 <g> 
 <g transform="matrix(1.0,0.0,0.0,1.0,70.6412,-25.23633)"> 
 <g fill="rgb(0.0%,0.0%,0.0%)"> 
 <text style="stroke:none" transform="scale(1,-1) translate(22.31277,0)" text-anchor="middle"  font-size="24.88"> 
<tspan font-family="cmtt" font-size="8">(s.mid east)</tspan></text> 
</g> 
 </g> 
 </g> 
 </g> 
 <path d=" M  -123.07289 -28.45274  " style="fill:none"/> 
 <g> 
 <path d=" M  -124.4871 -29.86696 L  -121.65868 -27.03853 M  -124.4871 -27.03853 L  -121.65868 -29.86696  " style="fill:none"/> 
 </g> 
 <g> 
 <g> 
 <g transform="matrix(1.0,0.0,0.0,1.0,-179.22336,-30.59163)"> 
 <g fill="rgb(0.0%,0.0%,0.0%)"> 
 <text style="stroke:none" transform="scale(1,-1) translate(24.17216,0)" text-anchor="middle"  font-size="24.88"> 
<tspan font-family="cmtt" font-size="8">(s.base west)</tspan></text> 
</g> 
 </g> 
 </g> 
 </g> 
 <path d=" M  0.0 -28.45274  " style="fill:none"/> 
 <g> 
 <path d=" M  -1.41422 -29.86696 L  1.41422 -27.03853 M  -1.41422 -27.03853 L  1.41422 -29.86696  " style="fill:none"/> 
 </g> 
 <g> 
 <g> 
 <g transform="matrix(1.0,0.0,0.0,1.0,-14.87518,-41.11996)"> 
 <g fill="rgb(0.0%,0.0%,0.0%)"> 
 <text style="stroke:none" transform="scale(1,-1) translate(14.87518,0)" text-anchor="middle"  font-size="24.88"> 
<tspan font-family="cmtt" font-size="8">(s.base)</tspan></text> 
</g> 
 </g> 
 </g> 
 </g> 
 <path d=" M  123.07289 -28.45274  " style="fill:none"/> 
 <g> 
 <path d=" M  121.65868 -29.86696 L  124.4871 -27.03853 M  121.65868 -27.03853 L  124.4871 -29.86696  " style="fill:none"/> 
 </g> 
 <g> 
 <g> 
 <g transform="matrix(1.0,0.0,0.0,1.0,130.87903,-30.59163)"> 
 <g fill="rgb(0.0%,0.0%,0.0%)"> 
 <text style="stroke:none" transform="scale(1,-1) translate(24.17216,0)" text-anchor="middle"  font-size="24.88"> 
<tspan font-family="cmtt" font-size="8">(s.base east)</tspan></text> 
</g> 
 </g> 
 </g> 
 </g> 
 <path d=" M  -123.07289 -49.79228  " style="fill:none"/> 
 <g> 
 <path d=" M  -124.4871 -51.2065 L  -121.65868 -48.37807 M  -124.4871 -48.37807 L  -121.65868 -51.2065  " style="fill:none"/> 
 </g> 
 <g> 
 <g> 
 <g transform="matrix(1.0,0.0,0.0,1.0,-182.94217,-62.4595)"> 
 <g fill="rgb(0.0%,0.0%,0.0%)"> 
 <text style="stroke:none" transform="scale(1,-1) translate(26.03157,0)" text-anchor="middle"  font-size="24.88"> 
<tspan font-family="cmtt" font-size="8">(s.south west)</tspan></text> 
</g> 
 </g> 
 </g> 
 </g> 
 <path d=" M  0.0 -49.79228  " style="fill:none"/> 
 <g> 
 <path d=" M  -1.41422 -51.2065 L  1.41422 -48.37807 M  -1.41422 -48.37807 L  1.41422 -51.2065  " style="fill:none"/> 
 </g> 
 <g> 
 <g> 
 <g transform="matrix(1.0,0.0,0.0,1.0,-16.73457,-62.4595)"> 
 <g fill="rgb(0.0%,0.0%,0.0%)"> 
 <text style="stroke:none" transform="scale(1,-1) translate(16.73457,0)" text-anchor="middle"  font-size="24.88"> 
<tspan font-family="cmtt" font-size="8">(s.south)</tspan></text> 
</g> 
 </g> 
 </g> 
 </g> 
 <path d=" M  123.07289 -49.79228  " style="fill:none"/> 
 <g> 
 <path d=" M  121.65868 -51.2065 L  124.4871 -48.37807 M  121.65868 -48.37807 L  124.4871 -51.2065  " style="fill:none"/> 
 </g> 
 <g> 
 <g> 
 <g transform="matrix(1.0,0.0,0.0,1.0,130.87903,-62.4595)"> 
 <g fill="rgb(0.0%,0.0%,0.0%)"> 
 <text style="stroke:none" transform="scale(1,-1) translate(26.03157,0)" text-anchor="middle"  font-size="24.88"> 
<tspan font-family="cmtt" font-size="8">(s.south east)</tspan></text> 
</g> 
 </g> 
 </g> 
 </g> 
 <path d=" M  -44.82784 -28.45274  " style="fill:none"/> 
 <g> 
 <path d=" M  -46.24205 -29.86696 L  -43.41362 -27.03853 M  -46.24205 -27.03853 L  -43.41362 -29.86696  " style="fill:none"/> 
 </g> 
 <g> 
 <g> 
 <g transform="matrix(1.0,0.0,0.0,1.0,-82.38434,-30.59163)"> 
 <g fill="rgb(0.0%,0.0%,0.0%)"> 
 <text style="stroke:none" transform="scale(1,-1) translate(14.87518,0)" text-anchor="middle"  font-size="24.88"> 
<tspan font-family="cmtt" font-size="8">(s.text)</tspan></text> 
</g> 
 </g> 
 </g> 
 </g> 
 <path d=" M  123.07289 21.7015  " style="fill:none"/> 
 <g> 
 <path d=" M  121.65868 20.2873 L  124.4871 23.11572 M  121.65868 23.11572 L  124.4871 20.2873  " style="fill:none"/> 
 </g> 
 <g> 
 <g> 
 <g transform="matrix(1.0,0.0,0.0,1.0,130.87903,19.56262)"> 
 <g fill="rgb(0.0%,0.0%,0.0%)"> 
 <text style="stroke:none" transform="scale(1,-1) translate(11.15639,0)" text-anchor="middle"  font-size="24.88"> 
<tspan font-family="cmtt" font-size="8">(s.10)</tspan></text> 
</g> 
 </g> 
 </g> 
 </g> 
 <path d=" M  -41.78354 49.79228  " style="fill:none"/> 
 <g> 
 <path d=" M  -43.19775 48.37807 L  -40.36932 51.2065 M  -43.19775 51.2065 L  -40.36932 48.37807  " style="fill:none"/> 
 </g> 
 <g> 
 <g> 
 <g transform="matrix(1.0,0.0,0.0,1.0,-54.79932,58.18173)"> 
 <g fill="rgb(0.0%,0.0%,0.0%)"> 
 <text style="stroke:none" transform="scale(1,-1) translate(13.01578,0)" text-anchor="middle"  font-size="24.88"> 
<tspan font-family="cmtt" font-size="8">(s.130)</tspan></text> 
</g> 
 </g> 
 </g> 
 </g> 
 </g> 
 </g> 
 </g> 
 </g> 
 </g> 
 
                                                                                                      </g> 
</svg> 
