<svg xmlns="http://www.w3.org/2000/svg" xmlns:xlink="http://www.w3.org/1999/xlink" width="68.43256pt" height="40.39645pt" viewBox="-5.97188 -5.48575 68.43256 40.39645 "> 
<g transform="translate(0, 34.9107 ) scale(1,-1) translate(0,5.48575 )"> 
          <g> 
 <g stroke="rgb(0.0%,0.0%,0.0%)"> 
 <g fill="rgb(0.0%,0.0%,0.0%)"> 
 <g stroke-width="0.4pt"> 
 <g> 
 </g> 
 <g> 
 <g> 
 <g stroke="rgb(50.0%,50.0%,50.0%)"> 
 <g fill="rgb(50.0%,50.0%,50.0%)"> 
 <path d=" M  0.0 0.0 M  28.45274 28.45274 M  56.90549 14.22636  " style="fill:none"/> 
 <g> 
 <g> 
 <g transform="matrix(1.0,0.0,0.0,1.0,-2.6389,-2.15277)"> 
 <g fill="rgb(50.0%,50.0%,50.0%)"> 
 <text style="stroke:none" transform="scale(1,-1) translate(2.6389,0)" text-anchor="middle"  font-size="10"> 
x</text> 
</g> 
 </g> 
 </g> 
 </g> 
 <g> 
 <g> 
 <g transform="matrix(1.0,0.0,0.0,1.0,25.81384,27.27219)"> 
 <g fill="rgb(50.0%,50.0%,50.0%)"> 
 <text style="stroke:none" transform="scale(1,-1) translate(2.6389,0)" text-anchor="middle"  font-size="10"> 
y</text> 
</g> 
 </g> 
 </g> 
 </g> 
 <g> 
 <g> 
 <g transform="matrix(1.0,0.0,0.0,1.0,54.68327,12.0736)"> 
 <g fill="rgb(50.0%,50.0%,50.0%)"> 
 <text style="stroke:none" transform="scale(1,-1) translate(2.22221,0)" text-anchor="middle"  font-size="10"> 
z</text> 
</g> 
 </g> 
 </g> 
 </g> 
 </g> 
 </g> 
 </g> 
 <path d=" M  4.30554 0.0 C  4.30554 2.38954 2.38954 4.30554 0.0 4.30554 C  -2.38954 4.30554 -4.30554 2.38954 -4.30554 0.0 C  -4.30554 -2.38954 -2.38954 -4.30554 0.0 -4.30554 C  2.38954 -4.30554 4.30554 -2.38954 4.30554 0.0 Z M  0.0 0.0  " /> 
 <path d=" M  32.75829 28.45274 C  32.75829 30.84229 30.84229 32.75829 28.45274 32.75829 C  26.0632 32.75829 24.1472 30.84229 24.1472 28.45274 C  24.1472 26.0632 26.0632 24.1472 28.45274 24.1472 C  30.84229 24.1472 32.75829 26.0632 32.75829 28.45274 Z M  28.45274 28.45274  " /> 
 <path d=" M  61.21104 14.22636 C  61.21104 16.6159 59.29504 18.5319 56.9055 18.5319 C  54.51596 18.5319 52.59996 16.6159 52.59996 14.22636 C  52.59996 11.83682 54.51596 9.92082 56.9055 9.92082 C  59.29504 9.92082 61.21104 11.83682 61.21104 14.22636 Z M  56.9055 14.22636  " /> 
 <path d="  " style="fill:none"/> 
 </g> 
 </g> 
 </g> 
 </g> 
 </g> 
          </g> 
</svg> 
