<svg xmlns="http://www.w3.org/2000/svg" xmlns:xlink="http://www.w3.org/1999/xlink" width="28.45274pt" height="10.76385pt" viewBox="0.0 -2.15277 28.45274 10.76385 "> 
<g transform="translate(0, 8.61108 ) scale(1,-1) translate(0,2.15277 )"> 
        <g> 
 <g stroke="rgb(0.0%,0.0%,0.0%)"> 
 <g fill="rgb(0.0%,0.0%,0.0%)"> 
 <g stroke-width="0.4pt"> 
 <g> 
 </g> 
 <g> 
 <g stroke-width="0.8pt"> 
 <path d=" M  3.51993 2.15277 L  24.93282 2.15277  " style="fill:none"/> 
 <g> 
 <g transform="matrix(-1.0,0.0,0.0,-1.0,3.51993,2.15277)"> 
 <g> 
 <g transform="matrix(-1.0,0.0,0.0,1.0,0.0,0.0)"> 
 <g stroke-dasharray="none" stroke-dashoffset="0.0pt"> 
 <g stroke-linejoin="round"> 
 <path d=" M  1.03998 0.0 C  -0.26 0.26 -1.55997 0.77998 -3.11993 1.68996 C  -1.55997 0.51999 -1.55997 -0.51999 -3.11993 -1.68996 C  -1.55997 -0.77998 -0.26 -0.26 1.03998 0.0 Z  " /> 
 </g> 
 </g> 
 </g> 
 </g> 
 </g> 
 </g> 
 <g> 
 <g transform="matrix(1.0,0.0,0.0,1.0,24.93282,2.15277)"> 
 <g> 
 <g transform="matrix(-1.0,0.0,0.0,1.0,0.0,0.0)"> 
 <g stroke-dasharray="none" stroke-dashoffset="0.0pt"> 
 <g stroke-linejoin="round"> 
 <path d=" M  1.03998 0.0 C  -0.26 0.26 -1.55997 0.77998 -3.11993 1.68996 C  -1.55997 0.51999 -1.55997 -0.51999 -3.11993 -1.68996 C  -1.55997 -0.77998 -0.26 -0.26 1.03998 0.0 Z  " /> 
 </g> 
 </g> 
 </g> 
 </g> 
 </g> 
 </g> 
 </g> 
 </g> 
 </g> 
 </g> 
 </g> 
 </g> 
  </g> 
</svg> 
