<svg xmlns="http://www.w3.org/2000/svg" xmlns:xlink="http://www.w3.org/1999/xlink" width="65.84128pt" height="114.21097pt" viewBox="-5.89053 -5.89053 65.84128 114.21097 "> 
<g transform="translate(0, 108.32043 ) scale(1,-1) translate(0,5.89053 )"> 
          <g> 
 <g stroke="rgb(0.0%,0.0%,0.0%)"> 
 <g fill="rgb(0.0%,0.0%,0.0%)"> 
 <g stroke-width="0.4pt"> 
 <g> 
 </g> 
 <g> 
 <path d=" M  0.0 0.0 M  5.69054 0.0 C  5.69054 3.1582 3.1582 5.69054 0.0 5.69054 C  -3.1582 5.69054 -5.69054 3.1582 -5.69054 0.0 C  -5.69054 -3.1582 -3.1582 -5.69054 0.0 -5.69054 C  3.1582 -5.69054 5.69054 -3.1582 5.69054 0.0 Z M  0.0 0.0  " style="fill:none"/> 
 <path d=" M  28.45274 28.45274 M  36.98856 28.45274 C  36.98856 33.19005 33.19005 36.98856 28.45274 36.98856 C  23.71544 36.98856 19.91693 33.19005 19.91693 28.45274 C  19.91693 23.71544 23.71544 19.91693 28.45274 19.91693 C  33.19005 19.91693 36.98856 23.71544 36.98856 28.45274 Z M  28.45274 28.45274  " style="fill:none"/> 
 <path d=" M  56.90549 0.0 M  59.75075 0.0 C  59.75075 1.57909 58.48457 2.84526 56.90549 2.84526 C  55.3264 2.84526 54.06023 1.57909 54.06023 0.0 C  54.06023 -1.57909 55.3264 -2.84526 56.90549 -2.84526 C  58.48457 -2.84526 59.75075 -1.57909 59.75075 0.0 Z M  56.90549 0.0  " style="fill:none"/> 
 <path d=" M  0.0 71.13188 M  5.69054 71.13188 C  5.69054 74.29008 3.1582 76.82242 0.0 76.82242 C  -3.1582 76.82242 -5.69054 74.29008 -5.69054 71.13188 C  -5.69054 67.97368 -3.1582 65.44135 0.0 65.44135 C  3.1582 65.44135 5.69054 67.97368 5.69054 71.13188 Z M  0.0 71.13188  " style="fill:none"/> 
 <path d=" M  28.45274 99.58463 M  36.98856 99.58463 C  36.98856 104.32193 33.19005 108.12044 28.45274 108.12044 C  23.71544 108.12044 19.91693 104.32193 19.91693 99.58463 C  19.91693 94.84732 23.71544 91.04881 28.45274 91.04881 C  33.19005 91.04881 36.98856 94.84732 36.98856 99.58463 Z M  28.45274 99.58463  " style="fill:none"/> 
 <path d=" M  56.90549 71.13188 M  59.75075 71.13188 C  59.75075 72.71097 58.48457 73.97714 56.90549 73.97714 C  55.3264 73.97714 54.06023 72.71097 54.06023 71.13188 C  54.06023 69.5528 55.3264 68.28662 56.90549 68.28662 C  58.48457 68.28662 59.75075 69.5528 59.75075 71.13188 Z M  56.90549 71.13188  " style="fill:none"/> 
 </g> 
 </g> 
 </g> 
 </g> 
 </g> 
           </g> 
</svg> 
