<svg xmlns="http://www.w3.org/2000/svg" xmlns:xlink="http://www.w3.org/1999/xlink" width="71.93187pt" height="11.19998pt" viewBox="-0.2 -0.59999 71.93187 11.19998 "> 
<g transform="translate(0, 10.59999 ) scale(1,-1) translate(0,0.59999 )"> 
        <g> 
 <g stroke="rgb(0.0%,0.0%,0.0%)"> 
 <g fill="rgb(0.0%,0.0%,0.0%)"> 
 <g stroke-width="0.4pt"> 
 <g> 
 </g> 
 <g> 
 <path d=" M  0.0 0.0 C  0.0 5.54962 4.45038 10.0 10.0 10.0 C  13.60005 10.0 16.86026 8.11774 17.65714 6.73752  " style="fill:none"/> 
 <g> 
 <g transform="matrix(0.5016,-0.86877,0.86877,0.5016,17.65714,6.73752)"> 
 <g> 
 <path d=" M  1.99997 0.0 L  -1.19998 1.59998 L  0.0 0.0 L  -1.19998 -1.59998  " style="stroke:none"/> 
 </g> 
 </g> 
 </g> 
 <g> 
 <g stroke-width="1.2pt"> 
 <path d=" M  31.07426 1.84276 L  42.67912 10.0 L  56.9055 0.0 L  71.13188 10.0  " style="fill:none"/> 
 <g> 
 <g transform="matrix(-0.81923,-0.57587,0.57587,-0.81923,31.07426,1.84276)"> 
 <g> 
 <g> 
 <path d=" M  3.2 0.0 L  -1.92 2.56 L  0.0 0.0 L  -1.92 -2.56  " style="stroke:none"/> 
 </g> 
 <g transform="matrix(1.0,0.0,0.0,1.0,-6.31999,0.0)"> 
 <path d=" M  3.2 0.0 L  -1.92 2.56 L  0.0 0.0 L  -1.92 -2.56  " style="stroke:none"/> 
 </g> 
 </g> 
 </g> 
 </g> 
 </g> 
 </g> 
 </g> 
 </g> 
 </g> 
 </g> 
 </g> 
               </g> 
</svg> 
