<svg xmlns="http://www.w3.org/2000/svg" xmlns:xlink="http://www.w3.org/1999/xlink" width="85.42587pt" height="5.4pt" viewBox="-0.2 -2.7 85.42587 5.4 "> 
<g transform="translate(0, 2.7 ) scale(1,-1) translate(0,2.7 )"> 
        <g> 
 <g stroke="rgb(0.0%,0.0%,0.0%)"> 
 <g fill="rgb(0.0%,0.0%,0.0%)"> 
 <g stroke-width="0.4pt"> 
 <g> 
 </g> 
 <g> 
 <path d=" M  0.0 0.0 M  0.0 2.5 L  2.5 0.0 L  0.0 -2.5 Z M  10.0 2.5 L  12.5 0.0 L  10.0 -2.5 Z M  20.0 2.5 L  22.5 0.0 L  20.0 -2.5 Z M  30.0 2.5 L  32.5 0.0 L  30.0 -2.5 Z M  40.0 2.5 L  42.5 0.0 L  40.0 -2.5 Z M  50.0 2.5 L  52.5 0.0 L  50.0 -2.5 Z M  60.0 2.5 L  62.5 0.0 L  60.0 -2.5 Z M  70.0 2.5 L  72.5 0.0 L  70.0 -2.5 Z M  80.0 2.5 L  82.5 0.0 L  80.0 -2.5 Z M  85.02588 0.0  " style="fill:none"/> 
 </g> 
 </g> 
 </g> 
 </g> 
 </g> 
                   </g> 
</svg> 
