<svg xmlns="http://www.w3.org/2000/svg" xmlns:xlink="http://www.w3.org/1999/xlink" width="69.71658pt" height="41.26382pt" viewBox="-34.85829 -20.63191 69.71658 41.26382 "> 
<g transform="translate(0, 20.63191 ) scale(1,-1) translate(0,20.63191 )"> 
                  <g> 
 <g stroke="rgb(0.0%,0.0%,0.0%)"> 
 <g fill="rgb(0.0%,0.0%,0.0%)"> 
 <g stroke-width="0.4pt"> 
 <g> 
 <g> 
 <g stroke-width="1.6pt"> 
 <g stroke="rgb(100.0%,0.0%,0.0%)"> 
 <g> 
 <clipPath id="pgfcp67"> <path d=" M  -32.95828 -18.7319 M  -32.95828 -14.7319 L  -32.95828 14.7319 C  -32.95828 16.95187 -31.17825 18.7319 -28.95828 18.7319 L  28.95828 18.7319 C  31.17825 18.7319 32.95828 16.95187 32.95828 14.7319 L  32.95828 -14.7319 C  32.95828 -16.95187 31.17825 -18.7319 28.95828 -18.7319 L  -28.95828 -18.7319 C  -31.17825 -18.7319 -32.95828 -16.95187 -32.95828 -14.7319 Z M  32.95828 18.7319  "/> 
</clipPath> 
 <g clip-path="url(#pgfcp67)"> 
 <g transform="matrix(1,0,0,1,0.0,0.0)"> 
 <g transform="matrix(1.3186,0,0,0.74944,0.0,0.0)"> 
 <g transform="matrix(0.0,0.0,0.0,0.0,0.0,0.0)"> 
  <linearGradient id="pgfsh68" gradientTransform="rotate(90)"> 
 <stop offset=" 0.0" stop-color=" rgb(100.0%,100.0%,100.0%) "/> 
 <stop offset=" 0.25" stop-color=" rgb(100.0%,100.0%,100.0%) "/> 
 <stop offset=" 0.5" stop-color=" rgb(50.0%,50.0%,100.0%) "/> 
 <stop offset=" 0.75" stop-color=" rgb(0.0%,0.0%,100.0%) "/> 
 <stop offset=" 1.0" stop-color=" rgb(0.0%,0.0%,100.0%) "/> 
 </linearGradient> 
 <g transform="translate(-50.1875,-50.1875)"> 
 <rect width="100.375pt" height="100.375pt" style="fill:url(#pgfsh68); stroke:none"/> 
 </g> 
 </g> 
 </g> 
 </g> 
 </g> 
 </g> 
 <g> 
 <g stroke-width="3.80002pt"> 
 <path d=" M  -32.95828 -18.7319 M  -32.95828 -14.7319 L  -32.95828 14.7319 C  -32.95828 16.95187 -31.17825 18.7319 -28.95828 18.7319 L  28.95828 18.7319 C  31.17825 18.7319 32.95828 16.95187 32.95828 14.7319 L  32.95828 -14.7319 C  32.95828 -16.95187 31.17825 -18.7319 28.95828 -18.7319 L  -28.95828 -18.7319 C  -31.17825 -18.7319 -32.95828 -16.95187 -32.95828 -14.7319 Z M  32.95828 18.7319  " style="fill:none"/> 
 <g stroke-width="0.6pt"> 
 <g stroke="rgb(100.0%,100.0%,100.0%)"> 
 <path d=" M  -32.95828 -18.7319 M  -32.95828 -14.7319 L  -32.95828 14.7319 C  -32.95828 16.95187 -31.17825 18.7319 -28.95828 18.7319 L  28.95828 18.7319 C  31.17825 18.7319 32.95828 16.95187 32.95828 14.7319 L  32.95828 -14.7319 C  32.95828 -16.95187 31.17825 -18.7319 28.95828 -18.7319 L  -28.95828 -18.7319 C  -31.17825 -18.7319 -32.95828 -16.95187 -32.95828 -14.7319 Z M  32.95828 18.7319  " style="fill:none"/> 
 </g> 
 </g> 
 </g> 
 </g> 
 </g> 
 </g> 
 </g> 
 </g> 
 <g> 
 <path d=" M  0.0 0.0 M  28.45274 0.0 C  28.45274 7.89552 15.79106 14.22636 0.0 14.22636 C  -15.79106 14.22636 -28.45274 7.89552 -28.45274 0.0 C  -28.45274 -7.89552 -15.79106 -14.22636 0.0 -14.22636 C  15.79106 -14.22636 28.45274 -7.89552 28.45274 0.0 Z M  0.0 0.0  " style="fill:none"/> 
 </g> 
 </g> 
 </g> 
 </g> 
 </g> 
 
                     </g> 
</svg> 
