<svg xmlns="http://www.w3.org/2000/svg" xmlns:xlink="http://www.w3.org/1999/xlink" width="71.35466pt" height="148.03824pt" viewBox="-12.37466 -85.84828 71.35466 148.03824 "> 
<g transform="translate(0, 62.18996 ) scale(1,-1) translate(0,85.84828 )"> 
            <g> 
 <g stroke="rgb(0.0%,0.0%,0.0%)"> 
 <g fill="rgb(0.0%,0.0%,0.0%)"> 
 <g stroke-width="0.4pt"> 
 <g> 
 </g> 
 <g> 
 <g> 
 <g stroke="rgb(50.0%,50.0%,50.0%)"> 
 <g fill="rgb(50.0%,50.0%,50.0%)"> 
 <g stroke-width="0.2pt"> 
 <g> 
 <g> 
 <g transform="matrix(1.0,0.0,0.0,1.0,-9.04169,-3.0754)"> 
 <g fill="rgb(50.0%,50.0%,50.0%)"> 
 <text style="stroke:none" transform="scale(1,-1) translate(9.04169,0)" text-anchor="middle"  font-size="10"> 
root</text> 
</g> 
 </g> 
 </g> 
 </g> 
 <g> 
 <g> 
 <g> 
 <g transform="matrix(1.0,0.0,0.0,1.0,28.41397,-73.67894)"> 
 <g fill="rgb(50.0%,50.0%,50.0%)"> 
 <text style="stroke:none" transform="scale(1,-1) translate(2.5,0)" text-anchor="middle"  font-size="10"> 
1</text> 
</g> 
 </g> 
 </g> 
 </g> 
 <path d=" M  2.85515 -6.50836 L  27.99452 -63.80154  " style="fill:none"/> 
 </g> 
 <g> 
 <g> 
 <g> 
 <g transform="matrix(1.0,0.0,0.0,1.0,35.82498,-31.64844)"> 
 <g fill="rgb(50.0%,50.0%,50.0%)"> 
 <text style="stroke:none" transform="scale(1,-1) translate(2.5,0)" text-anchor="middle"  font-size="10"> 
2</text> 
</g> 
 </g> 
 </g> 
 </g> 
 <path d=" M  8.77232 -6.50836 L  32.39201 -24.02576  " style="fill:none"/> 
 </g> 
 <g> 
 <g> 
 <g> 
 <g transform="matrix(1.0,0.0,0.0,1.0,43.23601,10.38205)"> 
 <g fill="rgb(50.0%,50.0%,50.0%)"> 
 <text style="stroke:none" transform="scale(1,-1) translate(2.5,0)" text-anchor="middle"  font-size="10"> 
3</text> 
</g> 
 </g> 
 </g> 
 </g> 
 <path d=" M  12.47466 3.70969 L  39.80304 11.84065  " style="fill:none"/> 
 </g> 
 <g> 
 <g> 
 <g> 
 <g transform="matrix(1.0,0.0,0.0,1.0,50.64702,52.41255)"> 
 <g fill="rgb(50.0%,50.0%,50.0%)"> 
 <text style="stroke:none" transform="scale(1,-1) translate(2.5,0)" text-anchor="middle"  font-size="10"> 
4</text> 
</g> 
 </g> 
 </g> 
 </g> 
 <path d=" M  6.21262 6.50836 L  47.21405 49.4247  " style="fill:none"/> 
 </g> 
 </g> 
 </g> 
 </g> 
 </g> 
 <g> 
 <g stroke-width="0.8pt"> 
 <path d=" M  31.17644 -68.9681 L  38.06252 -29.91486  " style="fill:none"/> 
 <g> 
 <g transform="matrix(-0.17383,-0.98586,0.98586,-0.17383,31.17644,-68.9681)"> 
 <g> 
 <g> 
 <g transform="matrix(1.0,0.0,0.0,1.0,0.91,0.0)"> 
 <g stroke-dasharray="none" stroke-dashoffset="0.0pt"> 
 <g stroke-linecap="square"> 
 <path d=" M  0.2 -3.2 L  0.2 3.2  " style="fill:none"/> 
 </g> 
 </g> 
 </g> 
 </g> 
 <g stroke-width="0.64pt"> 
 <g stroke-dasharray="none" stroke-dashoffset="0.0pt"> 
 <g stroke-linecap="round"> 
 <g stroke-linejoin="round"> 
 <path d=" M  -1.55997 2.07996 C  -1.42996 1.29997 0.0 0.12999 0.38998 0.0 C  0.0 -0.12999 -1.42996 -1.29997 -1.55997 -2.07996  " style="fill:none"/> 
 </g> 
 </g> 
 </g> 
 </g> 
 </g> 
 </g> 
 </g> 
 <g> 
 <g transform="matrix(0.17383,0.98586,-0.98586,0.17383,38.06252,-29.91486)"> 
 <g> 
 <g> 
 <g transform="matrix(1.0,0.0,0.0,1.0,0.91,0.0)"> 
 <g stroke-dasharray="none" stroke-dashoffset="0.0pt"> 
 <g stroke-linecap="square"> 
 <path d=" M  0.2 -3.2 L  0.2 3.2  " style="fill:none"/> 
 </g> 
 </g> 
 </g> 
 </g> 
 <g stroke-width="0.64pt"> 
 <g stroke-dasharray="none" stroke-dashoffset="0.0pt"> 
 <g stroke-linecap="round"> 
 <g stroke-linejoin="round"> 
 <path d=" M  -1.55997 2.07996 C  -1.42996 1.29997 0.0 0.12999 0.38998 0.0 C  0.0 -0.12999 -1.42996 -1.29997 -1.55997 -2.07996  " style="fill:none"/> 
 </g> 
 </g> 
 </g> 
 </g> 
 </g> 
 </g> 
 </g> 
 <g> 
 <g> 
 <g transform="matrix(0.17383,0.98586,-0.98586,0.17383,23.17015,-81.6451)"> 
 <g fill="rgb(0.0%,0.0%,0.0%)"> 
 <text style="stroke:none" transform="scale(1,-1) translate(33.66673,0)" text-anchor="middle"  font-size="10"> 
sibling distance</text> 
</g> 
 </g> 
 </g> 
 </g> 
 </g> 
 </g> 
 <g> 
 <g stroke-width="0.8pt"> 
 <path d=" M  1.48863 -0.26247 L  40.54185 -7.14854  " style="fill:none"/> 
 <g> 
 <g transform="matrix(-0.98586,0.17383,-0.17383,-0.98586,1.48863,-0.26247)"> 
 <g> 
 <g> 
 <g transform="matrix(1.0,0.0,0.0,1.0,0.91,0.0)"> 
 <g stroke-dasharray="none" stroke-dashoffset="0.0pt"> 
 <g stroke-linecap="square"> 
 <path d=" M  0.2 -3.2 L  0.2 3.2  " style="fill:none"/> 
 </g> 
 </g> 
 </g> 
 </g> 
 <g stroke-width="0.64pt"> 
 <g stroke-dasharray="none" stroke-dashoffset="0.0pt"> 
 <g stroke-linecap="round"> 
 <g stroke-linejoin="round"> 
 <path d=" M  -1.55997 2.07996 C  -1.42996 1.29997 0.0 0.12999 0.38998 0.0 C  0.0 -0.12999 -1.42996 -1.29997 -1.55997 -2.07996  " style="fill:none"/> 
 </g> 
 </g> 
 </g> 
 </g> 
 </g> 
 </g> 
 </g> 
 <g> 
 <g transform="matrix(0.98586,-0.17383,0.17383,0.98586,40.54185,-7.14854)"> 
 <g> 
 <g> 
 <g transform="matrix(1.0,0.0,0.0,1.0,0.91,0.0)"> 
 <g stroke-dasharray="none" stroke-dashoffset="0.0pt"> 
 <g stroke-linecap="square"> 
 <path d=" M  0.2 -3.2 L  0.2 3.2  " style="fill:none"/> 
 </g> 
 </g> 
 </g> 
 </g> 
 <g stroke-width="0.64pt"> 
 <g stroke-dasharray="none" stroke-dashoffset="0.0pt"> 
 <g stroke-linecap="round"> 
 <g stroke-linejoin="round"> 
 <path d=" M  -1.55997 2.07996 C  -1.42996 1.29997 0.0 0.12999 0.38998 0.0 C  0.0 -0.12999 -1.42996 -1.29997 -1.55997 -2.07996  " style="fill:none"/> 
 </g> 
 </g> 
 </g> 
 </g> 
 </g> 
 </g> 
 </g> 
 <g> 
 <g> 
 <g transform="matrix(0.98586,-0.17383,0.17383,0.98586,-7.11739,5.04947)"> 
 <g fill="rgb(0.0%,0.0%,0.0%)"> 
 <text style="stroke:none" transform="scale(1,-1) translate(29.19449,0)" text-anchor="middle"  font-size="10"> 
level distance</text> 
</g> 
 </g> 
 </g> 
 </g> 
 </g> 
 </g> 
 </g> 
 </g> 
 </g> 
 </g> 
 </g> 
 
                     </g> 
</svg> 
