<svg xmlns="http://www.w3.org/2000/svg" xmlns:xlink="http://www.w3.org/1999/xlink" width="89.4185pt" height="62.3028pt" viewBox="-2.68716 25.75543 89.4185 62.3028 "> 
<g transform="translate(0, 88.05823 ) scale(1,-1) translate(0,-25.75543 )"> 
        
 <g> 
 <g stroke="rgb(0.0%,0.0%,0.0%)"> 
 <g fill="rgb(0.0%,0.0%,0.0%)"> 
 <g stroke-width="0.4pt"> 
 <g> 
 </g> 
 <g> 
 <g> 
 <g fill="rgb(80.0003%,80.0003%,100.0%)"> 
 <path d=" M  0.0 85.35823 L  10.0 87.85823 L  10.0 85.35823 L  20.0 87.85823 L  20.0 85.35823 L  30.0 87.85823 L  30.0 85.35823 L  40.0 87.85823 L  40.0 85.35823 L  50.0 87.85823 L  50.0 85.35823 L  60.0 87.85823 L  60.0 85.35823 L  70.0 87.85823 L  70.0 85.35823 L  80.0 87.85823 L  80.0 85.35823 L  85.02588 85.35823 C  85.90207 83.99428 86.53134 82.75232 86.16158 82.00404 C  85.79182 81.25575 84.42302 81.00114 82.80731 80.86853 C  81.19162 80.73593 79.82281 80.48131 79.45305 79.73303 C  79.0833 78.98474 79.71257 77.7428 80.58875 76.37883 C  81.46466 75.01433 82.09393 73.77237 81.72417 73.0241 C  81.35442 72.2758 79.98561 72.0212 78.3699 71.88858 C  76.75421 71.75598 75.3854 71.50136 75.01564 70.75308 C  74.64589 70.00479 75.27516 68.76285 76.15134 67.39888 C  77.02725 66.03438 77.65652 64.79242 77.28676 64.04414 C  76.917 63.29585 75.5482 63.04124 73.9325 62.90863 C  72.3168 62.77603 70.948 62.52141 70.57823 61.77313 C  70.20848 61.02484 70.83775 59.7829 71.71393 58.41893 C  72.58984 57.05443 73.21912 55.81247 72.84935 55.0642 C  72.4796 54.3159 71.1108 54.0613 69.49509 53.92868 C  67.8794 53.79608 66.51059 53.54146 66.14082 52.79318 C  65.77107 52.04489 66.40034 50.80295 67.27652 49.43898 C  68.15244 48.07448 68.78171 46.83252 68.41194 46.08424 C  68.04219 45.33595 66.67339 45.08134 65.05768 44.94873 C  63.44199 44.81613 62.07318 44.56151 61.70341 43.81323 C  61.33366 43.06494 61.96294 41.823 62.83911 40.45903 C  63.71503 39.09453 64.3443 37.85257 63.97453 37.1043 C  63.60478 36.356 62.23598 36.1014 60.62027 35.96878 L  56.92017 28.48091 C  56.92082 27.09343 55.80882 25.9804 54.42134 25.97974 C  53.03386 25.97908 51.92075 27.22855 51.92017 28.47855 C  51.92082 27.09106 50.80882 25.97803 49.42134 25.97737 C  48.03386 25.97672 46.92075 27.22618 46.92017 28.47618 C  46.92082 27.0887 45.80882 25.97566 44.42134 25.975 C  43.03386 25.97435 41.92075 27.22382 41.92017 28.47382 C  41.92082 27.08633 40.80882 25.9733 39.42134 25.97264 C  38.03386 25.97198 36.92075 27.22145 36.92017 28.47145 C  36.92082 27.08397 35.80882 25.97093 34.42134 25.97028 C  33.03386 25.96962 31.92075 27.21909 31.92017 28.46909 C  31.92082 27.0816 30.80882 25.96857 29.42134 25.96791 C  28.03386 25.96725 26.92075 27.21672 26.92017 28.46672 C  26.92082 27.07924 25.80882 25.9662 24.42134 25.96555 C  23.03386 25.96489 21.92075 27.21436 21.92017 28.46436 C  21.92082 27.07687 20.80882 25.96384 19.42134 25.96318 C  18.03386 25.96252 16.92075 27.21199 16.92017 28.46199 C  16.92082 27.07451 15.80882 25.96147 14.42134 25.96082 C  13.03386 25.96016 11.92075 27.20963 11.92017 28.45963 C  11.92082 27.07214 10.80882 25.9591 9.42134 25.95845 C  8.03386 25.9578 6.92075 27.20726 6.92017 28.45726 C  6.92082 27.06978 5.80882 25.95674 4.42134 25.95609 C  3.03386 25.95543 1.92075 27.2049 1.92017 28.4549 L  0.22168 28.4541 C  -1.1658 28.44873 -2.28262 29.55693 -2.28801 30.94441 C  -2.29338 32.3319 -1.0477 33.44926 0.2023 33.4541 C  -1.18518 33.44873 -2.302 34.55693 -2.30739 35.94441 C  -2.31276 37.3319 -1.06708 38.44926 0.18292 38.4541 C  -1.20456 38.44873 -2.32138 39.55693 -2.32677 40.94441 C  -2.33214 42.3319 -1.08646 43.44926 0.16354 43.4541 C  -1.22394 43.44873 -2.34076 44.55693 -2.34615 45.94441 C  -2.35152 47.3319 -1.10583 48.44926 0.14417 48.4541 C  -1.24332 48.44873 -2.36014 49.55693 -2.36552 50.94441 C  -2.3709 52.3319 -1.12521 53.44926 0.12479 53.4541 C  -1.2627 53.44873 -2.37952 54.55693 -2.3849 55.94441 C  -2.39027 57.3319 -1.14459 58.44926 0.10541 58.4541 C  -1.28207 58.44873 -2.3989 59.55693 -2.40428 60.94441 C  -2.40965 62.3319 -1.16397 63.44926 0.08603 63.4541 C  -1.30145 63.44873 -2.41827 64.55693 -2.42366 65.94441 C  -2.42903 67.3319 -1.18335 68.44926 0.06665 68.4541 C  -1.32083 68.44873 -2.43765 69.55693 -2.44304 70.94441 C  -2.44841 72.3319 -1.20273 73.44926 0.04727 73.4541 C  -1.34021 73.44873 -2.45703 74.55693 -2.46242 75.94441 C  -2.46779 77.3319 -1.2221 78.44926 0.0279 78.4541 C  -1.35959 78.44873 -2.47641 79.55693 -2.4818 80.94441 C  -2.48717 82.3319 -1.24149 83.44926 0.00851 83.4541 L  0.002 85.13672  " /> 
 </g> 
 </g> 
 </g> 
 </g> 
 </g> 
 </g> 
 </g> 
                   </g> 
</svg> 
