<svg xmlns="http://www.w3.org/2000/svg" xmlns:xlink="http://www.w3.org/1999/xlink" width="113.81097pt" height="56.90549pt" viewBox="0.0 0.0 113.81097 56.90549 "> 
<g transform="translate(0, 56.90549 ) scale(1,-1) translate(0,0.0 )"> 
        <g> 
 <g stroke="rgb(0.0%,0.0%,0.0%)"> 
 <g fill="rgb(0.0%,0.0%,0.0%)"> 
 <g stroke-width="0.4pt"> 
 <g> 
 </g> 
 <g> 
 <g> 
 <clipPath id="pgfcp116"> <path d=" M  0.0 0.0 M  0.0 0.0 L  0.0 28.45274 L  56.90549 28.45274 L  56.90549 0.0 Z M  56.90549 28.45274  "/> 
</clipPath> 
 <g clip-path="url(#pgfcp116)"> 
 <g transform="matrix(1,0,0,1,28.45274,14.22636)"> 
 <g transform="matrix(1.13835,0,0,0.56917,0.0,0.0)"> 
 <g transform="matrix(0.0,0.0,0.0,0.0,0.0,0.0)"> 
  <linearGradient id="pgfsh115" gradientTransform="rotate(90)"> 
 <stop offset=" 0.0" stop-color=" rgb(100.0%,0.0%,0.0%) "/> 
 <stop offset=" 0.25" stop-color=" rgb(100.0%,0.0%,0.0%) "/> 
 <stop offset=" 0.34999" stop-color=" rgb(100.0%,100.0%,0.0%) "/> 
 <stop offset=" 0.45" stop-color=" rgb(0.0%,100.0%,0.0%) "/> 
 <stop offset=" 0.54999" stop-color=" rgb(0.0%,100.0%,100.0%) "/> 
 <stop offset=" 0.65" stop-color=" rgb(0.0%,0.0%,100.0%) "/> 
 <stop offset=" 0.75" stop-color=" rgb(50.0%,0.0%,50.0%) "/> 
 <stop offset=" 1.0" stop-color=" rgb(50.0%,0.0%,50.0%) "/> 
 </linearGradient> 
 <g transform="translate(-50.1875,-50.1875)"> 
 <rect width="100.375pt" height="100.375pt" style="fill:url(#pgfsh115); stroke:none"/> 
 </g> 
 </g> 
 </g> 
 </g> 
 </g> 
 </g> 
 <g> 
 <g stroke="rgb(100.0%,100.0%,100.0%)"> 
 <g fill="rgb(100.0%,100.0%,100.0%)"> 
 <g> 
 <g stroke="rgb(100.0%,100.0%,100.0%)"> 
 <g fill="rgb(100.0%,100.0%,100.0%)"> 
 </g> 
 </g> 
 </g> 
 <g> 
 <g transform="matrix(1.0,0.0,0.0,1.0,15.23059,11.65694)"> 
 <g fill="rgb(100.0%,100.0%,100.0%)"> 
 <text style="stroke:none" transform="scale(1,-1) translate(13.22215,0)" text-anchor="middle"  font-size="10"> 
<tspan font-family="cmcsc" font-size="10"><small 
class="small-caps">P</small><small 
class="small-caps">R</small><small 
class="small-caps">I</small><small 
class="small-caps">D</small><small 
class="small-caps">E</small></tspan></text> 
</g> 
 </g> 
 </g> 
 </g> 
 </g> 
 </g> 
 <g> 
 <clipPath id="pgfcp117"> <path d=" M  85.35823 0.0 M  85.35823 0.0 L  85.35823 56.90549 L  113.81097 56.90549 L  113.81097 0.0 Z M  113.81097 56.90549  "/> 
</clipPath> 
 <g clip-path="url(#pgfcp117)"> 
 <g transform="matrix(1,0,0,1,99.5846,28.45274)"> 
 <g transform="matrix(0.56917,0,0,1.13835,0.0,0.0)"> 
 <g transform="matrix(0.0,0.0,-1.0,0.0,0.0,0.0)"> 
  <linearGradient id="pgfsh115" gradientTransform="rotate(90)"> 
 <stop offset=" 0.0" stop-color=" rgb(100.0%,0.0%,0.0%) "/> 
 <stop offset=" 0.25" stop-color=" rgb(100.0%,0.0%,0.0%) "/> 
 <stop offset=" 0.34999" stop-color=" rgb(100.0%,100.0%,0.0%) "/> 
 <stop offset=" 0.45" stop-color=" rgb(0.0%,100.0%,0.0%) "/> 
 <stop offset=" 0.54999" stop-color=" rgb(0.0%,100.0%,100.0%) "/> 
 <stop offset=" 0.65" stop-color=" rgb(0.0%,0.0%,100.0%) "/> 
 <stop offset=" 0.75" stop-color=" rgb(50.0%,0.0%,50.0%) "/> 
 <stop offset=" 1.0" stop-color=" rgb(50.0%,0.0%,50.0%) "/> 
 </linearGradient> 
 <g transform="translate(-50.1875,-50.1875)"> 
 <rect width="100.375pt" height="100.375pt" style="fill:url(#pgfsh115); stroke:none"/> 
 </g> 
 </g> 
 </g> 
 </g> 
 </g> 
 </g> 
 </g> 
 </g> 
 </g> 
 </g> 
 </g> 
                 </g> 
</svg> 
