<svg xmlns="http://www.w3.org/2000/svg" xmlns:xlink="http://www.w3.org/1999/xlink" width="399.51447pt" height="313.7146pt" viewBox="-199.75723 -156.8573 399.51447 313.7146 "> 
<g transform="translate(0,  156.8573 ) scale(1,-1) translate(0,156.8573 )"> 
                                                                              <g> 
 <g stroke="rgb(0.0%,0.0%,0.0%)"> 
 <g fill="rgb(0.0%,0.0%,0.0%)"> 
 <g stroke-width="0.4pt"> 
 <g> 
 </g> 
 <g> 
 <g> 
 <g stroke="rgb(69.9997%,69.9997%,69.9997%)"> 
 <g fill="rgb(69.9997%,69.9997%,69.9997%)"> 
 <g fill="rgb(100.0%,100.0%,69.9997%)"> 
 <g stroke-width="14.22636pt"> 
 <g> 
 <g stroke="rgb(69.9997%,69.9997%,69.9997%)"> 
 <g fill="rgb(69.9997%,69.9997%,69.9997%)"> 
 <g fill="rgb(100.0%,100.0%,69.9997%)"> 
 <g stroke-width="14.22636pt"> 
 <path d=" M  128.88745 0.0 C  128.88745 71.53159 71.53159 128.88745 0.0 128.88745 C  -71.53159 128.88745 -128.88745 71.53159 -128.88745 0.0 C  -128.88745 -71.53159 -71.53159 -128.88745 0.0 -128.88745 C  71.53159 -128.88745 128.88745 -71.53159 128.88745 0.0 Z M  0.0 0.0  " /> 
 </g> 
 </g> 
 </g> 
 </g> 
 </g> 
 <g> 
 <g transform="matrix(1.0,0.0,0.0,1.0,-50.70705,-28.45274)"> 
 <g fill="rgb(69.9997%,69.9997%,69.9997%)"> 
 <text style="stroke:none" transform="scale(1,-1) translate(50.70705,0)" text-anchor="middle"  font-size="24.88"> 
<tspan font-family="cmr" font-size="17">Forbidden</tspan></text> 
</g> 
 </g> 
 </g> 
 <g> 
 <g stroke="rgb(69.9997%,69.9997%,69.9997%)"> 
 <g fill="rgb(69.9997%,69.9997%,69.9997%)"> 
 <g fill="rgb(100.0%,100.0%,69.9997%)"> 
 <g stroke-width="14.22636pt"> 
 <path d=" M  -91.13728 -91.13728 L  91.13728 91.13728  " /> 
 </g> 
 </g> 
 </g> 
 </g> 
 </g> 
 </g> 
 </g> 
 </g> 
 </g> 
 </g> 
 <path d=" M  -96.16705 96.16705  " style="fill:none"/> 
 <g> 
 <path d=" M  -97.58127 94.75284 L  -94.75284 97.58127 M  -97.58127 97.58127 L  -94.75284 94.75284  " style="fill:none"/> 
 </g> 
 <g> 
 <g> 
 <g transform="matrix(1.0,0.0,0.0,1.0,-156.03633,104.5565)"> 
 <g fill="rgb(0.0%,0.0%,0.0%)"> 
 <text style="stroke:none" transform="scale(1,-1) translate(26.03157,0)" text-anchor="middle"  font-size="24.88"> 
<tspan font-family="cmtt" font-size="8">(s.north west)</tspan></text> 
</g> 
 </g> 
 </g> 
 </g> 
 <path d=" M  0.0 136.00063  " style="fill:none"/> 
 <g> 
 <path d=" M  -1.41422 134.58641 L  1.41422 137.41484 M  -1.41422 137.41484 L  1.41422 134.58641  " style="fill:none"/> 
 </g> 
 <g> 
 <g> 
 <g transform="matrix(1.0,0.0,0.0,1.0,-16.73457,144.39008)"> 
 <g fill="rgb(0.0%,0.0%,0.0%)"> 
 <text style="stroke:none" transform="scale(1,-1) translate(16.73457,0)" text-anchor="middle"  font-size="24.88"> 
<tspan font-family="cmtt" font-size="8">(s.north)</tspan></text> 
</g> 
 </g> 
 </g> 
 </g> 
 <path d=" M  96.16705 96.16705  " style="fill:none"/> 
 <g> 
 <path d=" M  94.75284 94.75284 L  97.58127 97.58127 M  94.75284 97.58127 L  97.58127 94.75284  " style="fill:none"/> 
 </g> 
 <g> 
 <g> 
 <g transform="matrix(1.0,0.0,0.0,1.0,103.97319,104.5565)"> 
 <g fill="rgb(0.0%,0.0%,0.0%)"> 
 <text style="stroke:none" transform="scale(1,-1) translate(26.03157,0)" text-anchor="middle"  font-size="24.88"> 
<tspan font-family="cmtt" font-size="8">(s.north east)</tspan></text> 
</g> 
 </g> 
 </g> 
 </g> 
 <path d=" M  -136.00063 0.0  " style="fill:none"/> 
 <g> 
 <path d=" M  -137.41484 -1.41422 L  -134.58641 1.41422 M  -137.41484 1.41422 L  -134.58641 -1.41422  " style="fill:none"/> 
 </g> 
 <g> 
 <g> 
 <g transform="matrix(1.0,0.0,0.0,1.0,-173.55713,-2.13889)"> 
 <g fill="rgb(0.0%,0.0%,0.0%)"> 
 <text style="stroke:none" transform="scale(1,-1) translate(14.87518,0)" text-anchor="middle"  font-size="24.88"> 
<tspan font-family="cmtt" font-size="8">(s.west)</tspan></text> 
</g> 
 </g> 
 </g> 
 </g> 
 <path d=" M  0.0 0.0  " style="fill:none"/> 
 <g> 
 <path d=" M  -1.41422 -1.41422 L  1.41422 1.41422 M  -1.41422 1.41422 L  1.41422 -1.41422  " style="fill:none"/> 
 </g> 
 <g> 
 <g> 
 <g transform="matrix(1.0,0.0,0.0,1.0,-18.59398,8.38945)"> 
 <g fill="rgb(0.0%,0.0%,0.0%)"> 
 <text style="stroke:none" transform="scale(1,-1) translate(18.59398,0)" text-anchor="middle"  font-size="24.88"> 
<tspan font-family="cmtt" font-size="8">(s.center)</tspan></text> 
</g> 
 </g> 
 </g> 
 </g> 
 <path d=" M  136.00063 0.0  " style="fill:none"/> 
 <g> 
 <path d=" M  134.58641 -1.41422 L  137.41484 1.41422 M  134.58641 1.41422 L  137.41484 -1.41422  " style="fill:none"/> 
 </g> 
 <g> 
 <g> 
 <g transform="matrix(1.0,0.0,0.0,1.0,143.80676,-2.13889)"> 
 <g fill="rgb(0.0%,0.0%,0.0%)"> 
 <text style="stroke:none" transform="scale(1,-1) translate(14.87518,0)" text-anchor="middle"  font-size="24.88"> 
<tspan font-family="cmtt" font-size="8">(s.east)</tspan></text> 
</g> 
 </g> 
 </g> 
 </g> 
 <path d=" M  -136.00063 -23.09744  " style="fill:none"/> 
 <g> 
 <path d=" M  -137.41484 -24.51166 L  -134.58641 -21.68323 M  -137.41484 -21.68323 L  -134.58641 -24.51166  " style="fill:none"/> 
 </g> 
 <g> 
 <g> 
 <g transform="matrix(1.0,0.0,0.0,1.0,-128.19449,-25.23633)"> 
 <g fill="rgb(0.0%,0.0%,0.0%)"> 
 <text style="stroke:none" transform="scale(1,-1) translate(22.31277,0)" text-anchor="middle"  font-size="24.88"> 
<tspan font-family="cmtt" font-size="8">(s.mid west)</tspan></text> 
</g> 
 </g> 
 </g> 
 </g> 
 <path d=" M  0.0 -23.09744  " style="fill:none"/> 
 <g> 
 <path d=" M  -1.41422 -24.51166 L  1.41422 -21.68323 M  -1.41422 -21.68323 L  1.41422 -24.51166  " style="fill:none"/> 
 </g> 
 <g> 
 <g> 
 <g transform="matrix(1.0,0.0,0.0,1.0,-13.01578,-14.708)"> 
 <g fill="rgb(0.0%,0.0%,0.0%)"> 
 <text style="stroke:none" transform="scale(1,-1) translate(13.01578,0)" text-anchor="middle"  font-size="24.88"> 
<tspan font-family="cmtt" font-size="8">(s.mid)</tspan></text> 
</g> 
 </g> 
 </g> 
 </g> 
 <path d=" M  136.00063 -23.09744  " style="fill:none"/> 
 <g> 
 <path d=" M  134.58641 -24.51166 L  137.41484 -21.68323 M  134.58641 -21.68323 L  137.41484 -24.51166  " style="fill:none"/> 
 </g> 
 <g> 
 <g> 
 <g transform="matrix(1.0,0.0,0.0,1.0,83.56894,-25.23633)"> 
 <g fill="rgb(0.0%,0.0%,0.0%)"> 
 <text style="stroke:none" transform="scale(1,-1) translate(22.31277,0)" text-anchor="middle"  font-size="24.88"> 
<tspan font-family="cmtt" font-size="8">(s.mid east)</tspan></text> 
</g> 
 </g> 
 </g> 
 </g> 
 <path d=" M  -136.00063 -28.45274  " style="fill:none"/> 
 <g> 
 <path d=" M  -137.41484 -29.86696 L  -134.58641 -27.03853 M  -137.41484 -27.03853 L  -134.58641 -29.86696  " style="fill:none"/> 
 </g> 
 <g> 
 <g> 
 <g transform="matrix(1.0,0.0,0.0,1.0,-192.1511,-30.59163)"> 
 <g fill="rgb(0.0%,0.0%,0.0%)"> 
 <text style="stroke:none" transform="scale(1,-1) translate(24.17216,0)" text-anchor="middle"  font-size="24.88"> 
<tspan font-family="cmtt" font-size="8">(s.base west)</tspan></text> 
</g> 
 </g> 
 </g> 
 </g> 
 <path d=" M  0.0 -28.45274  " style="fill:none"/> 
 <g> 
 <path d=" M  -1.41422 -29.86696 L  1.41422 -27.03853 M  -1.41422 -27.03853 L  1.41422 -29.86696  " style="fill:none"/> 
 </g> 
 <g> 
 <g> 
 <g transform="matrix(1.0,0.0,0.0,1.0,-14.87518,-41.11996)"> 
 <g fill="rgb(0.0%,0.0%,0.0%)"> 
 <text style="stroke:none" transform="scale(1,-1) translate(14.87518,0)" text-anchor="middle"  font-size="24.88"> 
<tspan font-family="cmtt" font-size="8">(s.base)</tspan></text> 
</g> 
 </g> 
 </g> 
 </g> 
 <path d=" M  136.00063 -28.45274  " style="fill:none"/> 
 <g> 
 <path d=" M  134.58641 -29.86696 L  137.41484 -27.03853 M  134.58641 -27.03853 L  137.41484 -29.86696  " style="fill:none"/> 
 </g> 
 <g> 
 <g> 
 <g transform="matrix(1.0,0.0,0.0,1.0,143.80676,-30.59163)"> 
 <g fill="rgb(0.0%,0.0%,0.0%)"> 
 <text style="stroke:none" transform="scale(1,-1) translate(24.17216,0)" text-anchor="middle"  font-size="24.88"> 
<tspan font-family="cmtt" font-size="8">(s.base east)</tspan></text> 
</g> 
 </g> 
 </g> 
 </g> 
 <path d=" M  -96.16705 -96.16705  " style="fill:none"/> 
 <g> 
 <path d=" M  -97.58127 -97.58127 L  -94.75284 -94.75284 M  -97.58127 -94.75284 L  -94.75284 -97.58127  " style="fill:none"/> 
 </g> 
 <g> 
 <g> 
 <g transform="matrix(1.0,0.0,0.0,1.0,-156.03633,-108.83427)"> 
 <g fill="rgb(0.0%,0.0%,0.0%)"> 
 <text style="stroke:none" transform="scale(1,-1) translate(26.03157,0)" text-anchor="middle"  font-size="24.88"> 
<tspan font-family="cmtt" font-size="8">(s.south west)</tspan></text> 
</g> 
 </g> 
 </g> 
 </g> 
 <path d=" M  0.0 -136.00063  " style="fill:none"/> 
 <g> 
 <path d=" M  -1.41422 -137.41484 L  1.41422 -134.58641 M  -1.41422 -134.58641 L  1.41422 -137.41484  " style="fill:none"/> 
 </g> 
 <g> 
 <g> 
 <g transform="matrix(1.0,0.0,0.0,1.0,-16.73457,-148.66785)"> 
 <g fill="rgb(0.0%,0.0%,0.0%)"> 
 <text style="stroke:none" transform="scale(1,-1) translate(16.73457,0)" text-anchor="middle"  font-size="24.88"> 
<tspan font-family="cmtt" font-size="8">(s.south)</tspan></text> 
</g> 
 </g> 
 </g> 
 </g> 
 <path d=" M  96.16705 -96.16705  " style="fill:none"/> 
 <g> 
 <path d=" M  94.75284 -97.58127 L  97.58127 -94.75284 M  94.75284 -94.75284 L  97.58127 -97.58127  " style="fill:none"/> 
 </g> 
 <g> 
 <g> 
 <g transform="matrix(1.0,0.0,0.0,1.0,103.97319,-108.83427)"> 
 <g fill="rgb(0.0%,0.0%,0.0%)"> 
 <text style="stroke:none" transform="scale(1,-1) translate(26.03157,0)" text-anchor="middle"  font-size="24.88"> 
<tspan font-family="cmtt" font-size="8">(s.south east)</tspan></text> 
</g> 
 </g> 
 </g> 
 </g> 
 <path d=" M  -50.70705 -28.45274  " style="fill:none"/> 
 <g> 
 <path d=" M  -52.12126 -29.86696 L  -49.29283 -27.03853 M  -52.12126 -27.03853 L  -49.29283 -29.86696  " style="fill:none"/> 
 </g> 
 <g> 
 <g> 
 <g transform="matrix(1.0,0.0,0.0,1.0,-88.26355,-30.59163)"> 
 <g fill="rgb(0.0%,0.0%,0.0%)"> 
 <text style="stroke:none" transform="scale(1,-1) translate(14.87518,0)" text-anchor="middle"  font-size="24.88"> 
<tspan font-family="cmtt" font-size="8">(s.text)</tspan></text> 
</g> 
 </g> 
 </g> 
 </g> 
 <path d=" M  134.0769 23.64073  " style="fill:none"/> 
 <g> 
 <path d=" M  132.66269 22.22652 L  135.49112 25.05495 M  132.66269 25.05495 L  135.49112 22.22652  " style="fill:none"/> 
 </g> 
 <g> 
 <g> 
 <g transform="matrix(1.0,0.0,0.0,1.0,141.88304,21.50185)"> 
 <g fill="rgb(0.0%,0.0%,0.0%)"> 
 <text style="stroke:none" transform="scale(1,-1) translate(11.15639,0)" text-anchor="middle"  font-size="24.88"> 
<tspan font-family="cmtt" font-size="8">(s.10)</tspan></text> 
</g> 
 </g> 
 </g> 
 </g> 
 <path d=" M  -87.81644 104.6505  " style="fill:none"/> 
 <g> 
 <path d=" M  -89.23065 103.23628 L  -86.40222 106.06471 M  -89.23065 106.06471 L  -86.40222 103.23628  " style="fill:none"/> 
 </g> 
 <g> 
 <g> 
 <g transform="matrix(1.0,0.0,0.0,1.0,-100.83221,113.03995)"> 
 <g fill="rgb(0.0%,0.0%,0.0%)"> 
 <text style="stroke:none" transform="scale(1,-1) translate(13.01578,0)" text-anchor="middle"  font-size="24.88"> 
<tspan font-family="cmtt" font-size="8">(s.130)</tspan></text> 
</g> 
 </g> 
 </g> 
 </g> 
 </g> 
 </g> 
 </g> 
 </g> 
 </g> 
 
                                                                                                           </g> 
</svg> 
