<svg xmlns="http://www.w3.org/2000/svg" xmlns:xlink="http://www.w3.org/1999/xlink" width="201.31825pt" height="144.03981pt" viewBox="-21.86598 -49.94939 201.31825 144.03981 "> 
<g transform="translate(0, 94.09042 ) scale(1,-1) translate(0,49.94939 )"> 
               <g> 
 <g stroke="rgb(0.0%,0.0%,0.0%)"> 
 <g fill="rgb(0.0%,0.0%,0.0%)"> 
 <g stroke-width="0.4pt"> 
 <g> 
 </g> 
 <g> 
 <g> 
 <g stroke-dasharray="3.0pt,3.0pt" stroke-dashoffset="0.0pt"> 
 <path d=" M  0.0 0.0 L  8.53581 8.53581 L  179.25227 8.53581  " style="fill:none"/> 
 <g> 
 <g> 
 <g transform="matrix(1.0,0.0,0.0,1.0,-8.53297,-3.22221)"> 
 <g fill="rgb(0.0%,0.0%,0.0%)"> 
 <text style="stroke:none" transform="scale(1,-1) translate(2.5,0)" text-anchor="middle"  font-size="10"> 
0</text> 
</g> 
 </g> 
 </g> 
 </g> 
 </g> 
 </g> 
 <g> 
 <g stroke-dasharray="3.0pt,3.0pt" stroke-dashoffset="0.0pt"> 
 <path d=" M  0.0 17.07092 L  8.53581 25.60674 L  179.25227 25.60674  " style="fill:none"/> 
 <g> 
 <g> 
 <g transform="matrix(1.0,0.0,0.0,1.0,-13.533,13.84871)"> 
 <g fill="rgb(0.0%,0.0%,0.0%)"> 
 <text style="stroke:none" transform="scale(1,-1) translate(5.00002,0)" text-anchor="middle"  font-size="10"> 
20</text> 
</g> 
 </g> 
 </g> 
 </g> 
 </g> 
 </g> 
 <g> 
 <g stroke-dasharray="3.0pt,3.0pt" stroke-dashoffset="0.0pt"> 
 <path d=" M  0.0 34.14185 L  8.53581 42.67766 L  179.25227 42.67766  " style="fill:none"/> 
 <g> 
 <g> 
 <g transform="matrix(1.0,0.0,0.0,1.0,-13.533,30.91963)"> 
 <g fill="rgb(0.0%,0.0%,0.0%)"> 
 <text style="stroke:none" transform="scale(1,-1) translate(5.00002,0)" text-anchor="middle"  font-size="10"> 
40</text> 
</g> 
 </g> 
 </g> 
 </g> 
 </g> 
 </g> 
 <g> 
 <g stroke-dasharray="3.0pt,3.0pt" stroke-dashoffset="0.0pt"> 
 <path d=" M  0.0 51.21277 L  8.53581 59.74858 L  179.25227 59.74858  " style="fill:none"/> 
 <g> 
 <g> 
 <g transform="matrix(1.0,0.0,0.0,1.0,-13.533,47.99055)"> 
 <g fill="rgb(0.0%,0.0%,0.0%)"> 
 <text style="stroke:none" transform="scale(1,-1) translate(5.00002,0)" text-anchor="middle"  font-size="10"> 
60</text> 
</g> 
 </g> 
 </g> 
 </g> 
 </g> 
 </g> 
 <g> 
 <g stroke-dasharray="3.0pt,3.0pt" stroke-dashoffset="0.0pt"> 
 <path d=" M  0.0 68.28369 L  8.53581 76.8195 L  179.25227 76.8195  " style="fill:none"/> 
 <g> 
 <g> 
 <g transform="matrix(1.0,0.0,0.0,1.0,-13.533,65.06148)"> 
 <g fill="rgb(0.0%,0.0%,0.0%)"> 
 <text style="stroke:none" transform="scale(1,-1) translate(5.00002,0)" text-anchor="middle"  font-size="10"> 
80</text> 
</g> 
 </g> 
 </g> 
 </g> 
 </g> 
 </g> 
 <g> 
 <g stroke-dasharray="3.0pt,3.0pt" stroke-dashoffset="0.0pt"> 
 <path d=" M  0.0 85.35461 L  8.53581 93.89043 L  179.25227 93.89043  " style="fill:none"/> 
 <g> 
 <g> 
 <g transform="matrix(1.0,0.0,0.0,1.0,-18.533,82.1324)"> 
 <g fill="rgb(0.0%,0.0%,0.0%)"> 
 <text style="stroke:none" transform="scale(1,-1) translate(7.50002,0)" text-anchor="middle"  font-size="10"> 
100</text> 
</g> 
 </g> 
 </g> 
 </g> 
 </g> 
 </g> 
 <path d=" M  0.0 0.0 L  0.0 85.35461 M  8.53581 8.53581 L  8.53581 93.89043  " style="fill:none"/> 
 <path d=" M  0.0 0.0 L  170.71646 0.0  " style="fill:none"/> 
 <path d=" M  28.45274 0.0  " style="fill:none"/> 
 <g> 
 <g> 
 <g transform="matrix(0.0,1.0,-1.0,0.0,30.95274,-46.61641)"> 
 <g fill="rgb(0.0%,0.0%,0.0%)"> 
 <text style="stroke:none" transform="scale(1,-1) translate(21.54172,0)" text-anchor="middle"  font-size="10"> 
very good</text> 
</g> 
 </g> 
 </g> 
 </g> 
 <g> 
 <g> 
 <g fill="rgb(50.0%,50.0%,100.0%)"> 
 <path d=" M  19.91684 0.0 M  19.91684 0.0 L  19.91684 8.53546 L  36.98865 8.53546 L  36.98865 0.0 Z M  36.98865 8.53546  " /> 
 </g> 
 </g> 
 <g> 
 <g fill="rgb(69.9997%,69.9997%,100.0%)"> 
 <path d=" M  36.98865 0.0 L  45.52446 8.53581 L  45.52446 17.07127 L  36.98865 8.53546 Z  " /> 
 </g> 
 </g> 
 <g> 
 <g fill="rgb(80.0003%,80.0003%,100.0%)"> 
 <path d=" M  19.91684 8.53546 L  36.98865 8.53546 L  45.52446 17.07127 L  28.45265 17.07127 Z  " /> 
 </g> 
 </g> 
 </g> 
 <path d=" M  56.90549 0.0  " style="fill:none"/> 
 <g> 
 <g> 
 <g transform="matrix(0.0,1.0,-1.0,0.0,59.40549,-24.64415)"> 
 <g fill="rgb(0.0%,0.0%,0.0%)"> 
 <text style="stroke:none" transform="scale(1,-1) translate(10.55559,0)" text-anchor="middle"  font-size="10"> 
good</text> 
</g> 
 </g> 
 </g> 
 </g> 
 <g> 
 <g> 
 <g fill="rgb(50.0%,50.0%,100.0%)"> 
 <path d=" M  48.3696 0.0 M  48.3696 0.0 L  48.3696 25.60638 L  65.4414 25.60638 L  65.4414 0.0 Z M  65.4414 25.60638  " /> 
 </g> 
 </g> 
 <g> 
 <g fill="rgb(69.9997%,69.9997%,100.0%)"> 
 <path d=" M  65.4414 0.0 L  73.97722 8.53581 L  73.97722 34.1422 L  65.4414 25.60638 Z  " /> 
 </g> 
 </g> 
 <g> 
 <g fill="rgb(80.0003%,80.0003%,100.0%)"> 
 <path d=" M  48.3696 25.60638 L  65.4414 25.60638 L  73.97722 34.1422 L  56.90541 34.1422 Z  " /> 
 </g> 
 </g> 
 </g> 
 <path d=" M  85.35823 0.0  " style="fill:none"/> 
 <g> 
 <g> 
 <g transform="matrix(0.0,1.0,-1.0,0.0,88.83044,-13.81078)"> 
 <g fill="rgb(0.0%,0.0%,0.0%)"> 
 <text style="stroke:none" transform="scale(1,-1) translate(5.1389,0)" text-anchor="middle"  font-size="10"> 
ok</text> 
</g> 
 </g> 
 </g> 
 </g> 
 <g> 
 <g> 
 <g fill="rgb(50.0%,50.0%,100.0%)"> 
 <path d=" M  76.82236 0.0 M  76.82236 0.0 L  76.82236 28.16702 L  93.89417 28.16702 L  93.89417 0.0 Z M  93.89417 28.16702  " /> 
 </g> 
 </g> 
 <g> 
 <g fill="rgb(69.9997%,69.9997%,100.0%)"> 
 <path d=" M  93.89417 0.0 L  102.42998 8.53581 L  102.42998 36.70284 L  93.89417 28.16702 Z  " /> 
 </g> 
 </g> 
 <g> 
 <g fill="rgb(80.0003%,80.0003%,100.0%)"> 
 <path d=" M  76.82236 28.16702 L  93.89417 28.16702 L  102.42998 36.70284 L  85.35817 36.70284 Z  " /> 
 </g> 
 </g> 
 </g> 
 <path d=" M  113.81097 0.0  " style="fill:none"/> 
 <g> 
 <g> 
 <g transform="matrix(0.0,1.0,-1.0,0.0,117.28319,-19.64412)"> 
 <g fill="rgb(0.0%,0.0%,0.0%)"> 
 <text style="stroke:none" transform="scale(1,-1) translate(8.05557,0)" text-anchor="middle"  font-size="10"> 
bad</text> 
</g> 
 </g> 
 </g> 
 </g> 
 <g> 
 <g> 
 <g fill="rgb(50.0%,50.0%,100.0%)"> 
 <path d=" M  105.27512 0.0 M  105.27512 0.0 L  105.27512 23.04575 L  122.34692 23.04575 L  122.34692 0.0 Z M  122.34692 23.04575  " /> 
 </g> 
 </g> 
 <g> 
 <g fill="rgb(69.9997%,69.9997%,100.0%)"> 
 <path d=" M  122.34692 0.0 L  130.88274 8.53581 L  130.88274 31.58156 L  122.34692 23.04575 Z  " /> 
 </g> 
 </g> 
 <g> 
 <g fill="rgb(80.0003%,80.0003%,100.0%)"> 
 <path d=" M  105.27512 23.04575 L  122.34692 23.04575 L  130.88274 31.58156 L  113.81093 31.58156 Z  " /> 
 </g> 
 </g> 
 </g> 
 <path d=" M  142.26372 0.0  " style="fill:none"/> 
 <g> 
 <g> 
 <g transform="matrix(0.0,1.0,-1.0,0.0,144.76372,-41.61638)"> 
 <g fill="rgb(0.0%,0.0%,0.0%)"> 
 <text style="stroke:none" transform="scale(1,-1) translate(19.0417,0)" text-anchor="middle"  font-size="10"> 
very bad</text> 
</g> 
 </g> 
 </g> 
 </g> 
 <g> 
 <g> 
 <g fill="rgb(50.0%,50.0%,100.0%)"> 
 <path d=" M  133.72787 0.0 M  133.72787 0.0 L  133.72787 0.0 L  150.79968 0.0 L  150.79968 0.0 Z M  150.79968 0.0  " /> 
 </g> 
 </g> 
 <g> 
 <g fill="rgb(69.9997%,69.9997%,100.0%)"> 
 <path d=" M  150.79968 0.0 L  159.3355 8.53581 L  159.3355 8.53581 L  150.79968 0.0 Z  " /> 
 </g> 
 </g> 
 <g> 
 <g fill="rgb(80.0003%,80.0003%,100.0%)"> 
 <path d=" M  133.72787 0.0 L  150.79968 0.0 L  159.3355 8.53581 L  142.26369 8.53581 Z  " /> 
 </g> 
 </g> 
 </g> 
 </g> 
 </g> 
 </g> 
 </g> 
 </g> 
 
                                                            </g> 
</svg> 
