<svg xmlns="http://www.w3.org/2000/svg" xmlns:xlink="http://www.w3.org/1999/xlink" width="245.28935pt" height="180.93636pt" viewBox="-184.94283 -85.45822 245.28935 180.93636 "> 
<g transform="translate(0, 95.47813 ) scale(1,-1) translate(0,85.45822 )"> 
                                                               <g> 
 <g stroke="rgb(0.0%,0.0%,0.0%)"> 
 <g fill="rgb(0.0%,0.0%,0.0%)"> 
 <g stroke-width="0.4pt"> 
 <g> 
 </g> 
 <g> 
 <g> 
 <g stroke-width="28.45274pt"> 
 <g stroke="rgb(100.0%,0.0%,0.0%)"> 
 <g fill="rgb(100.0%,0.0%,0.0%)"> 
 <path d=" M  -170.71646 0.0 L  0.0 0.0  " style="fill:none"/> 
 <g> 
 <g transform="matrix(1.0,0.0,0.0,1.0,0.0,0.0)"> 
 <g> 
 <g stroke-dasharray="none" stroke-dashoffset="0.0pt"> 
 <g stroke-linejoin="round"> 
 <g stroke-linecap="round"> 
 <path d=" M  -57.70544 57.70544 C  -57.70544 25.68121 -32.02423 0.0 0.0 0.0  " style="fill:none"/> 
 <path d=" M  0.0 0.0 C  -32.02423 0.0 -57.70544 -25.68121 -57.70544 -57.70544  " style="fill:none"/> 
 </g> 
 </g> 
 </g> 
 </g> 
 </g> 
 </g> 
 </g> 
 </g> 
 </g> 
 </g> 
 <g> 
 <g stroke-width="28.45274pt"> 
 <g stroke="rgb(0.0%,0.0%,0.0%)"> 
 <g fill="rgb(0.0%,0.0%,0.0%)"> 
 <path d=" M  -170.71646 0.0 L  0.0 0.0  " style="fill:none"/> 
 </g> 
 </g> 
 </g> 
 </g> 
 <g> 
 <g stroke="rgb(50.0%,50.0%,50.0%)"> 
 <g fill="rgb(50.0%,50.0%,50.0%)"> 
 <g stroke-width="0.2pt"> 
 <path d=" M  -170.71646 0.0 L  56.90549 0.0 M  0.0 -85.35823 L  0.0 85.35823  " style="fill:none"/> 
 <g> 
 </g> 
 </g> 
 </g> 
 </g> 
 </g> 
 <g> 
 <g stroke="rgb(50.0%,50.0%,50.0%)"> 
 <g fill="rgb(50.0%,50.0%,50.0%)"> 
 <g stroke-width="0.2pt"> 
 <path d=" M  14.22636 -85.35823 L  14.22636 85.35823  " style="fill:none"/> 
 <g> 
 </g> 
 </g> 
 </g> 
 </g> 
 </g> 
 <g> 
 <g stroke="rgb(50.0%,50.0%,50.0%)"> 
 <g fill="rgb(50.0%,50.0%,50.0%)"> 
 <g stroke-width="0.2pt"> 
 <path d=" M  -71.93188 -85.35823 L  -71.93188 85.35823  " style="fill:none"/> 
 <g> 
 </g> 
 </g> 
 </g> 
 </g> 
 </g> 
 <g> 
 </g> 
 <g> 
 </g> 
 <path d=" M  0.29999 42.67911 L  13.3664 42.67911  " style="fill:none"/> 
 <g> 
 <g transform="matrix(-1.0,0.0,0.0,-1.0,0.29999,42.67911)"> 
 <g> 
 <g stroke-dasharray="none" stroke-dashoffset="0.0pt"> 
 <g stroke-linecap="square"> 
 <path d=" M  0.09999 -2.59999 L  0.09999 2.59999  " style="fill:none"/> 
 </g> 
 </g> 
 </g> 
 </g> 
 </g> 
 <g> 
 <g transform="matrix(1.0,0.0,0.0,1.0,13.3664,42.67911)"> 
 <g> 
 <g> 
 <g transform="matrix(1.0,0.0,0.0,1.0,0.55998,0.0)"> 
 <g stroke-dasharray="none" stroke-dashoffset="0.0pt"> 
 <g stroke-linecap="square"> 
 <path d=" M  0.09999 -2.59999 L  0.09999 2.59999  " style="fill:none"/> 
 </g> 
 </g> 
 </g> 
 </g> 
 <g stroke-width="0.31999pt"> 
 <g stroke-dasharray="none" stroke-dashoffset="0.0pt"> 
 <g stroke-linecap="round"> 
 <g stroke-linejoin="round"> 
 <path d=" M  -1.19998 1.59998 C  -1.09998 0.99998 0.0 0.09999 0.29999 0.0 C  0.0 -0.09999 -1.09998 -0.99998 -1.19998 -1.59998  " style="fill:none"/> 
 </g> 
 </g> 
 </g> 
 </g> 
 </g> 
 </g> 
 </g> 
 <g> 
 <g> 
 <g transform="matrix(1.0,0.0,0.0,1.0,-19.56743,50.15652)"> 
 <g fill="rgb(0.0%,0.0%,0.0%)"> 
 <text style="stroke:none" transform="scale(1,-1) translate(26.6806,0)" text-anchor="middle"  font-size="10"> 
right extend</text> 
</g> 
 </g> 
 </g> 
 </g> 
 <path d=" M  -71.07191 79.66776 L  -0.29999 79.66776  " style="fill:none"/> 
 <g> 
 <g transform="matrix(-1.0,0.0,0.0,-1.0,-71.07191,79.66776)"> 
 <g> 
 <g> 
 <g transform="matrix(1.0,0.0,0.0,1.0,0.55998,0.0)"> 
 <g stroke-dasharray="none" stroke-dashoffset="0.0pt"> 
 <g stroke-linecap="square"> 
 <path d=" M  0.09999 -2.59999 L  0.09999 2.59999  " style="fill:none"/> 
 </g> 
 </g> 
 </g> 
 </g> 
 <g stroke-width="0.31999pt"> 
 <g stroke-dasharray="none" stroke-dashoffset="0.0pt"> 
 <g stroke-linecap="round"> 
 <g stroke-linejoin="round"> 
 <path d=" M  -1.19998 1.59998 C  -1.09998 0.99998 0.0 0.09999 0.29999 0.0 C  0.0 -0.09999 -1.09998 -0.99998 -1.19998 -1.59998  " style="fill:none"/> 
 </g> 
 </g> 
 </g> 
 </g> 
 </g> 
 </g> 
 </g> 
 <g> 
 <g transform="matrix(1.0,0.0,0.0,1.0,-0.29999,79.66776)"> 
 <g> 
 <g stroke-dasharray="none" stroke-dashoffset="0.0pt"> 
 <g stroke-linecap="square"> 
 <path d=" M  0.09999 -2.59999 L  0.09999 2.59999  " style="fill:none"/> 
 </g> 
 </g> 
 </g> 
 </g> 
 </g> 
 <g> 
 <g> 
 <g transform="matrix(1.0,0.0,0.0,1.0,-59.29932,85.20073)"> 
 <g fill="rgb(0.0%,0.0%,0.0%)"> 
 <text style="stroke:none" transform="scale(1,-1) translate(23.33337,0)" text-anchor="middle"  font-size="10"> 
left extend</text> 
</g> 
 </g> 
 </g> 
 </g> 
 <path d=" M  0.0 0.0 L  28.45274 -28.45274  " style="fill:none"/> 
 <g> 
 <g> 
 <g transform="matrix(1.0,0.0,0.0,1.0,31.98572,-38.6643)"> 
 <g fill="rgb(0.0%,0.0%,0.0%)"> 
 <text style="stroke:none" transform="scale(1,-1) translate(12.51392,0)" text-anchor="middle"  font-size="10"> 
origin</text> 
</g> 
 </g> 
 </g> 
 </g> 
 </g> 
 </g> 
 </g> 
 </g> 
 </g> 
 
                                                                          </g> 
</svg> 
