<svg xmlns="http://www.w3.org/2000/svg" xmlns:xlink="http://www.w3.org/1999/xlink" width="308.18724pt" height="72.30478pt" viewBox="-99.81311 -7.69965 308.18724 72.30478 "> 
<g transform="translate(0, 64.60513 ) scale(1,-1) translate(0,7.69965 )"> 
                                      <g> 
 <g stroke="rgb(0.0%,0.0%,0.0%)"> 
 <g fill="rgb(0.0%,0.0%,0.0%)"> 
 <g stroke-width="0.4pt"> 
 <g> 
 </g> 
 <g> 
 <g> 
 <path d=" M  -32.20772 49.40584 h  64.41544 v  14.9993 h  -64.41544 Z  " style="fill:none"/> 
 <g> 
 <g transform="matrix(1.0,0.0,0.0,1.0,-28.87474,54.96104)"> 
 <g fill="rgb(0.0%,0.0%,0.0%)"> 
 <text style="stroke:none" transform="scale(1,-1) translate(28.87474,0)" text-anchor="middle"  font-size="10"> 
<span class="obeylines-h"><span class="verb"><tspan font-family="cmtt" font-size="10">class</tspan><tspan font-family="cmtt" font-size="10">&nbsp;Shape</tspan></span></span></text> 
</g> 
 </g> 
 </g> 
 </g> 
 <g> 
 <path d=" M  -99.61311 -7.49965 h  85.41525 v  14.9993 h  -85.41525 Z  " style="fill:none"/> 
 <g> 
 <g transform="matrix(1.0,0.0,0.0,1.0,-96.28014,-1.94444)"> 
 <g fill="rgb(0.0%,0.0%,0.0%)"> 
 <text style="stroke:none" transform="scale(1,-1) translate(39.37465,0)" text-anchor="middle"  font-size="10"> 
<span class="obeylines-h"><span class="verb"><tspan font-family="cmtt" font-size="10">class</tspan><tspan font-family="cmtt" font-size="10">&nbsp;Rectangle</tspan></span></span></text> 
</g> 
 </g> 
 </g> 
 </g> 
 <g> 
 <path d=" M  22.07278 -6.38853 h  69.6654 v  12.77707 h  -69.6654 Z  " style="fill:none"/> 
 <g> 
 <g transform="matrix(1.0,0.0,0.0,1.0,25.40576,-3.05556)"> 
 <g fill="rgb(0.0%,0.0%,0.0%)"> 
 <text style="stroke:none" transform="scale(1,-1) translate(31.49973,0)" text-anchor="middle"  font-size="10"> 
<span class="obeylines-h"><span class="verb"><tspan font-family="cmtt" font-size="10">class</tspan><tspan font-family="cmtt" font-size="10">&nbsp;Circle</tspan></span></span></text> 
</g> 
 </g> 
 </g> 
 </g> 
 <g> 
 <path d=" M  133.25879 -7.49965 h  74.91534 v  14.9993 h  -74.91534 Z  " style="fill:none"/> 
 <g> 
 <g transform="matrix(1.0,0.0,0.0,1.0,136.59177,-1.94444)"> 
 <g fill="rgb(0.0%,0.0%,0.0%)"> 
 <text style="stroke:none" transform="scale(1,-1) translate(34.1247,0)" text-anchor="middle"  font-size="10"> 
<span class="obeylines-h"><span class="verb"><tspan font-family="cmtt" font-size="10">class</tspan><tspan font-family="cmtt" font-size="10">&nbsp;Ellipse</tspan></span></span></text> 
</g> 
 </g> 
 </g> 
 </g> 
 <path d=" M  56.90549 6.58853 L  56.90549 28.45274 L  0.0 28.45274  " style="fill:none"/> 
 <path d=" M  170.71646 7.69965 L  170.71646 28.45274 L  0.0 28.45274  " style="fill:none"/> 
 <path d=" M  -56.90549 7.69965 L  -56.90549 28.45274 L  0.0 28.45274 L  0.0 28.45274 L  0.0 45.3231  " style="fill:none"/> 
 <g> 
 <g transform="matrix(0.0,1.0,-1.0,0.0,0.0,45.3231)"> 
 <g> 
 <g stroke-dasharray="none" stroke-dashoffset="0.0pt"> 
 <g stroke-linejoin="miter"> 
 <path d=" M  0.0 -3.59995 L  3.59995 0.0 L  0.0 3.59995 Z  " style="fill:none"/> 
 </g> 
 </g> 
 </g> 
 </g> 
 </g> 
 </g> 
 </g> 
 </g> 
 </g> 
 </g> 
 
                                                           </g> 
</svg> 
