<svg xmlns="http://www.w3.org/2000/svg" xmlns:xlink="http://www.w3.org/1999/xlink" width="119.10612pt" height="127.02264pt" viewBox="-17.91563 -22.29053 119.10612 127.02264 "> 
<g transform="translate(0, 104.73212 ) scale(1,-1) translate(0,22.29053 )"> 
             <g> 
 <g stroke="rgb(0.0%,0.0%,0.0%)"> 
 <g fill="rgb(0.0%,0.0%,0.0%)"> 
 <g stroke-width="0.4pt"> 
 <g> 
 </g> 
 <g> 
 <path d=" M  0.0 85.35823 L  42.6791 85.35823 L  85.35823 85.35823  " style="fill:none"/> 
 <g> 
 <g> 
 <g transform="matrix(3.0,0.0,0.0,3.0,-7.9167,78.89992)"> 
 <g fill="rgb(0.0%,0.0%,0.0%)"> 
 <text style="stroke:none" transform="scale(1,-1) translate(2.6389,0)" text-anchor="middle"  font-size="10"> 
x</text> 
</g> 
 </g> 
 </g> 
 </g> 
 <g> 
 <g> 
 <g transform="matrix(3.0,0.0,0.0,3.0,34.76239,81.81656)"> 
 <g fill="rgb(0.0%,0.0%,0.0%)"> 
 <text style="stroke:none" transform="scale(1,-1) translate(2.6389,0)" text-anchor="middle"  font-size="10"> 
y</text> 
</g> 
 </g> 
 </g> 
 </g> 
 <g> 
 <g> 
 <g transform="matrix(3.0,0.0,0.0,3.0,79.5249,76.13205)"> 
 <g fill="rgb(0.0%,0.0%,0.0%)"> 
 <text style="stroke:none" transform="scale(1,-1) translate(1.94444,0)" text-anchor="middle"  font-size="10"> 
t</text> 
</g> 
 </g> 
 </g> 
 </g> 
 <path d=" M  0.0 42.6791 L  42.6791 42.6791 L  85.35823 42.6791  " style="fill:none"/> 
 <g> 
 <g> 
 <g transform="matrix(3.0,0.0,0.0,3.0,-7.9167,42.6791)"> 
 <g fill="rgb(0.0%,0.0%,0.0%)"> 
 <text style="stroke:none" transform="scale(1,-1) translate(2.6389,0)" text-anchor="middle"  font-size="10"> 
x</text> 
</g> 
 </g> 
 </g> 
 </g> 
 <g> 
 <g> 
 <g transform="matrix(3.0,0.0,0.0,3.0,34.76239,42.6791)"> 
 <g fill="rgb(0.0%,0.0%,0.0%)"> 
 <text style="stroke:none" transform="scale(1,-1) translate(2.6389,0)" text-anchor="middle"  font-size="10"> 
y</text> 
</g> 
 </g> 
 </g> 
 </g> 
 <g> 
 <g> 
 <g transform="matrix(3.0,0.0,0.0,3.0,79.5249,42.6791)"> 
 <g fill="rgb(0.0%,0.0%,0.0%)"> 
 <text style="stroke:none" transform="scale(1,-1) translate(1.94444,0)" text-anchor="middle"  font-size="10"> 
t</text> 
</g> 
 </g> 
 </g> 
 </g> 
 <path d=" M  0.0 0.0 L  42.6791 0.0 L  85.35823 0.0  " style="fill:none"/> 
 <g> 
 <g> 
 <g transform="matrix(3.0,0.0,0.0,3.0,-7.9167,-6.45831)"> 
 <g fill="rgb(0.0%,0.0%,0.0%)"> 
 <text style="stroke:none" transform="scale(1,-1) translate(2.6389,0)" text-anchor="middle"  font-size="10"> 
x</text> 
</g> 
 </g> 
 </g> 
 </g> 
 <g> 
 <g> 
 <g transform="matrix(3.0,0.0,0.0,3.0,34.76239,-6.45831)"> 
 <g fill="rgb(0.0%,0.0%,0.0%)"> 
 <text style="stroke:none" transform="scale(1,-1) translate(2.6389,0)" text-anchor="middle"  font-size="10"> 
y</text> 
</g> 
 </g> 
 </g> 
 </g> 
 <g> 
 <g> 
 <g transform="matrix(3.0,0.0,0.0,3.0,79.5249,-6.45831)"> 
 <g fill="rgb(0.0%,0.0%,0.0%)"> 
 <text style="stroke:none" transform="scale(1,-1) translate(1.94444,0)" text-anchor="middle"  font-size="10"> 
t</text> 
</g> 
 </g> 
 </g> 
 </g> 
 </g> 
 </g> 
 </g> 
 </g> 
 </g> 
 
                                    </g> 
</svg> 
