<svg xmlns="http://www.w3.org/2000/svg" xmlns:xlink="http://www.w3.org/1999/xlink" width="115.25513pt" height="85.55821pt" viewBox="-1.34416 -0.09999 115.25513 85.55821 "> 
<g transform="translate(0, 85.45822 ) scale(1,-1) translate(0,0.09999 )"> 
        <g> 
 <g stroke="rgb(0.0%,0.0%,0.0%)"> 
 <g fill="rgb(0.0%,0.0%,0.0%)"> 
 <g stroke-width="0.4pt"> 
 <g> 
 </g> 
 <g> 
 <g> 
 <g stroke="rgb(50.0%,50.0%,50.0%)"> 
 <g fill="rgb(50.0%,50.0%,50.0%)"> 
 <g stroke-width="0.2pt"> 
 <path d=" M  0.0 0.0 M  0.0 0.0 L  113.81097 0.0 M  0.0 28.45274 L  113.81097 28.45274 M  0.0 56.90549 L  113.81097 56.90549 M  0.0 85.34824 L  113.81097 85.34824 M  0.0 0.0 L  0.0 85.35823 M  28.45274 0.0 L  28.45274 85.35823 M  56.90549 0.0 L  56.90549 85.35823 M  85.35823 0.0 L  85.35823 85.35823 M  113.80098 0.0 L  113.80098 85.35823  " style="fill:none"/> 
 </g> 
 </g> 
 </g> 
 </g> 
 <path d=" M  -1.14417 14.64236 h  59.19382 v  13.61038 h  -59.19382 Z  " style="fill:none"/> 
 <g> 
 <g transform="matrix(1.0,0.0,0.0,1.0,2.18881,17.97534)"> 
 <g fill="rgb(0.0%,0.0%,0.0%)"> 
 <text style="stroke:none" transform="scale(1,-1) translate(26.26393,0)" text-anchor="middle"  font-size="10"> 
Hello World</text> 
</g> 
 </g> 
 </g> 
 <g stroke="rgb(100.0%,80.0003%,80.0003%)"> 
 <g fill="rgb(100.0%,80.0003%,80.0003%)"> 
 <path d=" M  107.08574 54.68349 L  48.79155 44.40479 L  51.1549 31.00127 L  109.4491 41.27997 Z M  51.1549 31.00127  " style="stroke:none"/> 
 <g> 
 <g transform="matrix(0.9848,0.17365,-0.17365,0.9848,53.85847,34.86234)"> 
 <g fill="rgb(100.0%,80.0003%,80.0003%)"> 
 <text style="stroke:none" transform="scale(1,-1) translate(26.26393,0)" text-anchor="middle"  font-size="10"> 
Hello World</text> 
</g> 
 </g> 
 </g> 
 </g> 
 </g> 
 </g> 
 </g> 
 </g> 
 </g> 
 </g> 
           </g> 
</svg> 
