<svg xmlns="http://www.w3.org/2000/svg" xmlns:xlink="http://www.w3.org/1999/xlink" width="31.57529pt" height="31.57529pt" viewBox="-15.78764 -15.78764 31.57529 31.57529 "> 
<g transform="translate(0, 15.78764 ) scale(1,-1) translate(0,15.78764 )"> 
             <g> 
 <g stroke="rgb(0.0%,0.0%,0.0%)"> 
 <g fill="rgb(0.0%,0.0%,0.0%)"> 
 <g stroke-width="0.4pt"> 
 <g> 
 </g> 
 <g> 
 <g> 
 <path d=" M  15.58765 0.0 C  15.58765 8.65102 8.65102 15.58765 0.0 15.58765 C  -8.65102 15.58765 -15.58765 8.65102 -15.58765 0.0 C  -15.58765 -8.65102 -8.65102 -15.58765 0.0 -15.58765 C  8.65102 -15.58765 15.58765 -8.65102 15.58765 0.0 Z M  0.0 0.0  " style="fill:none"/> 
 <g> 
 <path d=" M  -15.38765 0.0 L  15.38765 0.0  " style="fill:none"/> 
 </g> 
 <g> 
 <g transform="matrix(1.0,0.0,0.0,1.0,-4.65451,5.47742)"> 
 <g fill="rgb(0.0%,0.0%,0.0%)"> 
 <text style="stroke:none" transform="scale(1,-1) translate(4.65451,0)" text-anchor="middle"  font-size="10"> 
<tspan font-family="cmmi" font-size="10">q</tspan><tspan baseline-shift="sub"><tspan font-family="cmr" font-size="7">1</tspan></tspan></text> 
</g> 
 </g> 
 </g> 
 <g> 
 <g transform="matrix(1.0,0.0,0.0,1.0,-5.00002,-9.97742)"> 
 <g fill="rgb(0.0%,0.0%,0.0%)"> 
 <text style="stroke:none" transform="scale(1,-1) translate(5.00002,0)" text-anchor="middle"  font-size="10"> 
00</text> 
</g> 
 </g> 
 </g> 
 </g> 
 </g> 
 </g> 
 </g> 
 </g> 
 </g> 
 
         </g> 
</svg> 
