<svg xmlns="http://www.w3.org/2000/svg" xmlns:xlink="http://www.w3.org/1999/xlink" width="227.82191pt" height="284.7274pt" viewBox="-71.23184 -71.23184 227.82191 284.7274 "> 
<g transform="translate(0, 213.49556 ) scale(1,-1) translate(0,71.23184 )"> 
                             <g> 
 <g stroke="rgb(0.0%,0.0%,0.0%)"> 
 <g fill="rgb(0.0%,0.0%,0.0%)"> 
 <g stroke-width="0.4pt"> 
 <g> 
 </g> 
 <g> 
 <g> 
 <g stroke-width="8.5359pt"> 
 <g stroke="rgb(100.0%,69.9997%,69.9997%)"> 
 <g fill="rgb(100.0%,69.9997%,69.9997%)"> 
 <g stroke-linecap="round"> 
 <g stroke-linejoin="round"> 
 <path d=" M  0.0 0.0 L  56.90549 0.0 L  56.90549 142.26372  " style="fill:none"/> 
 </g> 
 </g> 
 </g> 
 </g> 
 </g> 
 </g> 
 <g> 
 <g stroke="rgb(50.0%,50.0%,50.0%)"> 
 <g fill="rgb(50.0%,50.0%,50.0%)"> 
 <g stroke-width="0.2pt"> 
 <path d=" M  -71.13185 -71.13185 M  -71.13185 -56.90549 L  156.49008 -56.90549 M  -71.13185 -28.45274 L  156.49008 -28.45274 M  -71.13185 0.0 L  156.49008 0.0 M  -71.13185 28.45274 L  156.49008 28.45274 M  -71.13185 56.90549 L  156.49008 56.90549 M  -71.13185 85.35823 L  156.49008 85.35823 M  -71.13185 113.81097 L  156.49008 113.81097 M  -71.13185 142.26372 L  156.49008 142.26372 M  -71.13185 170.71646 L  156.49008 170.71646 M  -71.13185 199.1692 L  156.49008 199.1692 M  -56.90549 -71.13185 L  -56.90549 213.39557 M  -28.45274 -71.13185 L  -28.45274 213.39557 M  0.0 -71.13185 L  0.0 213.39557 M  28.45274 -71.13185 L  28.45274 213.39557 M  56.90549 -71.13185 L  56.90549 213.39557 M  85.35823 -71.13185 L  85.35823 213.39557 M  113.81097 -71.13185 L  113.81097 213.39557 M  142.26372 -71.13185 L  142.26372 213.39557  " style="fill:none"/> 
 </g> 
 </g> 
 </g> 
 </g> 
 <g> 
 <g stroke-width="1.2pt"> 
 <path d=" M  28.45274 -28.45274 L  -28.45274 -28.45274 L  -28.45274 28.45274 L  0.0 28.45274 L  0.0 0.0 L  28.45274 0.0 L  28.45274 -28.45274 L  85.35823 -28.45274 L  85.35823 56.90549 L  56.90549 56.90549 L  56.90549 85.35823 L  85.35823 85.35823 L  85.35823 142.26372 L  28.45274 142.26372 L  28.45274 113.81097 L  0.0 113.81097 L  0.0 170.71646 L  28.45274 170.71646 L  28.45274 142.26372 M  85.35823 85.35823 L  113.81097 85.35823 L  113.81097 142.26372 L  85.35823 142.26372 L  85.35823 170.71646 M  85.35823 -28.45274 L  113.81097 -28.45274  " style="fill:none"/> 
 </g> 
 </g> 
 <path d=" M  0.0 0.0  " style="fill:none"/> 
 <g> 
 <g> 
 <g transform="matrix(1.0,0.0,0.0,1.0,-8.22047,-7.83852)"> 
 <g fill="rgb(0.0%,0.0%,0.0%)"> 
 <text style="stroke:none" transform="scale(1,-1) translate(2.34375,0)" text-anchor="middle"  font-size="10"> 
<tspan font-family="cmmi" font-size="10">s</tspan></text> 
</g> 
 </g> 
 </g> 
 </g> 
 <path d=" M  56.90549 142.26372  " style="fill:none"/> 
 <g> 
 <g> 
 <g transform="matrix(1.0,0.0,0.0,1.0,49.7614,132.57996)"> 
 <g fill="rgb(0.0%,0.0%,0.0%)"> 
 <text style="stroke:none" transform="scale(1,-1) translate(1.80556,0)" text-anchor="middle"  font-size="10"> 
<tspan font-family="cmmi" font-size="10">t</tspan></text> 
</g> 
 </g> 
 </g> 
 </g> 
 <path d=" M  0.0 0.0 M  1.70709 0.0 C  1.70709 0.94742 0.94742 1.70709 0.0 1.70709 C  -0.94742 1.70709 -1.70709 0.94742 -1.70709 0.0 C  -1.70709 -0.94742 -0.94742 -1.70709 0.0 -1.70709 C  0.94742 -1.70709 1.70709 -0.94742 1.70709 0.0 Z M  0.0 0.0 M  56.90549 142.26372 M  58.61258 142.26372 C  58.61258 143.21114 57.8529 143.97081 56.90549 143.97081 C  55.95807 143.97081 55.1984 143.21114 55.1984 142.26372 C  55.1984 141.3163 55.95807 140.55663 56.90549 140.55663 C  57.8529 140.55663 58.61258 141.3163 58.61258 142.26372 Z M  56.90549 142.26372  " style="stroke:none"/> 
 <path d=" M  42.67911 14.22636 L  42.67911 -8.53592 C  42.67911 -11.69408 45.21141 -14.22638 48.36957 -14.22638 L  65.44139 -14.22638 C  68.59955 -14.22638 71.13185 -11.69408 71.13185 -8.53592 L  71.13185 36.98865 C  71.13185 40.1468 68.59955 42.67911 65.44139 42.67911 L  48.36957 42.67911 C  45.21141 42.67911 42.67911 45.21141 42.67911 48.36957 L  42.67911 93.89413 C  42.67911 97.05229 45.21141 99.5846 48.36957 99.5846 L  65.44139 99.5846 C  68.59955 99.5846 71.13185 102.1169 71.13185 105.27505 L  71.13185 122.34688 C  71.13185 125.50504 68.59955 128.03734 65.44139 128.03734 L  48.36957 128.03734 C  45.21141 128.03734 42.67911 125.50504 42.67911 122.34688 L  42.67911 105.27505 C  42.67911 102.1169 40.1468 99.5846 36.98865 99.5846 L  -8.53592 99.5846 C  -11.69408 99.5846 -14.22638 102.1169 -14.22638 105.27505 L  -14.22638 179.25237 C  -14.22638 182.41052 -11.69408 184.94283 -8.53592 184.94283 L  36.98865 184.94283 C  40.1468 184.94283 42.67911 182.41052 42.67911 179.25237 L  42.67911 162.18054 C  42.67911 159.02238 45.21141 156.49008 48.36957 156.49008 L  65.44139 156.49008 C  68.59955 156.49008 71.13185 159.02238 71.13185 162.18054 L  71.13185 179.25237 C  71.13185 182.41052 73.66415 184.94283 76.82231 184.94283 L  93.89413 184.94283 C  97.05229 184.94283 99.5846 182.41052 99.5846 179.25237 L  99.5846 162.18054 C  99.5846 159.02238 102.1169 156.49008 105.27505 156.49008 L  122.34688 156.49008 C  125.50504 156.49008 128.03734 153.95778 128.03734 150.79962 L  128.03734 76.82231 C  128.03734 73.66415 125.50504 71.13185 122.34688 71.13185 L  76.82231 71.13185 C  73.66415 71.13185 73.66415 71.13185 76.82231 71.13185 L  93.89413 71.13185 C  97.05229 71.13185 99.5846 68.59955 99.5846 65.44139 L  99.5846 -8.53592 C  99.5846 -11.69408 102.1169 -14.22638 105.27505 -14.22638 L  122.34688 -14.22638 C  125.50504 -14.22638 128.03734 -16.75868 128.03734 -19.91684 L  128.03734 -36.98866 C  128.03734 -40.14682 125.50504 -42.67912 122.34688 -42.67912 L  -36.98866 -42.67912 C  -40.14682 -42.67912 -42.67912 -40.14682 -42.67912 -36.98866 L  -42.67912 36.98865 C  -42.67912 40.1468 -40.14682 42.67911 -36.98866 42.67911 L  8.5359 42.67911 C  11.69406 42.67911 14.22636 40.1468 14.22636 36.98865 L  14.22636 19.91682 C  14.22636 16.75867 16.75867 14.22636 19.91682 14.22636 L  40.21912 14.22636  " style="fill:none"/> 
 <g> 
 <g transform="matrix(1.0,0.0,0.0,1.0,40.21912,14.22636)"> 
 <g> 
 <g stroke-width="0.31999pt"> 
 <g stroke-dasharray="none" stroke-dashoffset="0.0pt"> 
 <g stroke-linecap="round"> 
 <g stroke-linejoin="round"> 
 <path d=" M  -1.19998 1.59998 C  -1.09998 0.99998 0.0 0.09999 0.29999 0.0 C  0.0 -0.09999 -1.09998 -0.99998 -1.19998 -1.59998  " style="fill:none"/> 
 </g> 
 </g> 
 </g> 
 </g> 
 </g> 
 </g> 
 </g> 
 </g> 
 </g> 
 </g> 
 </g> 
 </g> 
 
                                                          </g> 
</svg> 
