<svg xmlns="http://www.w3.org/2000/svg" xmlns:xlink="http://www.w3.org/1999/xlink" width="85.65822pt" height="57.20547pt" viewBox="-0.2 -0.2 85.65822 57.20547 "> 
<g transform="translate(0, 57.00548 ) scale(1,-1) translate(0,0.2 )"> 
        <g> 
 <g stroke="rgb(0.0%,0.0%,0.0%)"> 
 <g fill="rgb(0.0%,0.0%,0.0%)"> 
 <g stroke-width="0.4pt"> 
 <g> 
 </g> 
 <g> 
 <g> 
 <g stroke="rgb(50.0%,50.0%,50.0%)"> 
 <g fill="rgb(50.0%,50.0%,50.0%)"> 
 <g stroke-width="0.2pt"> 
 <path d=" M  0.0 0.0 M  0.0 0.0 L  85.35823 0.0 M  0.0 28.45274 L  85.35823 28.45274 M  0.0 56.8955 L  85.35823 56.8955 M  0.0 0.0 L  0.0 56.90549 M  28.45274 0.0 L  28.45274 56.90549 M  56.90549 0.0 L  56.90549 56.90549 M  85.34824 0.0 L  85.34824 56.90549  " style="fill:none"/> 
 </g> 
 </g> 
 </g> 
 </g> 
 <path d=" M  0.0 0.0 L  7.12407 4.74942 L  7.81956 8.22696 L  11.29712 7.53148 L  14.77466 6.83598 L  15.47017 10.31354 L  16.16566 13.79108 L  19.64322 13.0956 L  23.12076 12.4001 L  23.81627 15.87766 L  24.51176 19.3552 L  27.98932 18.65971 L  31.46686 17.96422 L  32.16237 21.44177 L  32.85786 24.91931 L  36.33542 24.22383 L  39.81296 23.52834 L  40.50847 27.00589 L  41.20396 30.48343 L  44.68152 29.78795 L  48.15906 29.09245 L  48.85457 32.57 L  49.55006 36.04755 L  53.02762 35.35207 L  56.50516 34.65657 L  57.20067 38.13412 L  57.89616 41.61166 L  61.37372 40.91618 L  64.85126 40.22069 L  65.54677 43.69824 L  66.24226 47.17578 L  69.71982 46.4803 L  70.97435 47.31667 L  78.09842 52.06609  " style="fill:none"/> 
 </g> 
 </g> 
 </g> 
 </g> 
 </g> 
                   </g> 
</svg> 
