<svg xmlns="http://www.w3.org/2000/svg" xmlns:xlink="http://www.w3.org/1999/xlink" width="85.42587pt" height="5.4pt" viewBox="-0.2 -2.7 85.42587 5.4 "> 
<g transform="translate(0, 2.7 ) scale(1,-1) translate(0,2.7 )"> 
        <g> 
 <g stroke="rgb(0.0%,0.0%,0.0%)"> 
 <g fill="rgb(0.0%,0.0%,0.0%)"> 
 <g stroke-width="0.4pt"> 
 <g> 
 </g> 
 <g> 
 <path d=" M  0.0 0.0 C  1.25 0.0 1.875 2.5 3.125 2.5 C  4.03743 2.5 4.82921 1.25 5.625 0.0 C  6.42078 -1.25 7.21255 -2.5 8.125 -2.5 C  9.03743 -2.5 9.82921 -1.25 10.625 0.0 C  11.42078 1.25 12.21255 2.5 13.125 2.5 C  14.03743 2.5 14.82921 1.25 15.625 0.0 C  16.42078 -1.25 17.21255 -2.5 18.125 -2.5 C  19.03743 -2.5 19.82921 -1.25 20.625 0.0 C  21.42078 1.25 22.21255 2.5 23.125 2.5 C  24.03743 2.5 24.82921 1.25 25.625 0.0 C  26.42078 -1.25 27.21255 -2.5 28.125 -2.5 C  29.03743 -2.5 29.82921 -1.25 30.625 0.0 C  31.42078 1.25 32.21255 2.5 33.125 2.5 C  34.03743 2.5 34.82921 1.25 35.625 0.0 C  36.42078 -1.25 37.21255 -2.5 38.125 -2.5 C  39.03743 -2.5 39.82921 -1.25 40.625 0.0 C  41.42078 1.25 42.21255 2.5 43.125 2.5 C  44.03743 2.5 44.82921 1.25 45.625 0.0 C  46.42078 -1.25 47.21255 -2.5 48.125 -2.5 C  49.03743 -2.5 49.82921 -1.25 50.625 0.0 C  51.42078 1.25 52.21255 2.5 53.125 2.5 C  54.03743 2.5 54.82921 1.25 55.625 0.0 C  56.42078 -1.25 57.21255 -2.5 58.125 -2.5 C  59.03743 -2.5 59.82921 -1.25 60.625 0.0 C  61.42078 1.25 62.21255 2.5 63.125 2.5 C  64.03743 2.5 64.82921 1.25 65.625 0.0 C  66.42078 -1.25 67.21255 -2.5 68.125 -2.5 C  69.03743 -2.5 69.82921 -1.25 70.625 0.0 C  71.42078 1.25 72.21255 2.5 73.125 2.5 C  74.03743 2.5 74.82921 1.25 75.625 0.0 C  76.42078 -1.25 77.21255 -2.5 78.125 -2.5 C  79.375 -2.5 80.0 0.0 81.25 0.0 L  85.02588 0.0  " style="fill:none"/> 
 </g> 
 </g> 
 </g> 
 </g> 
 </g> 
                   </g> 
</svg> 
