<svg xmlns="http://www.w3.org/2000/svg" xmlns:xlink="http://www.w3.org/1999/xlink" width="89.35825pt" height="52.03911pt" viewBox="-30.45274 -21.58636 89.35825 52.03911 "> 
<g transform="translate(0, 30.45274 ) scale(1,-1) translate(0,21.58636 )"> 
                 <g> 
 <g stroke="rgb(0.0%,0.0%,0.0%)"> 
 <g fill="rgb(0.0%,0.0%,0.0%)"> 
 <g stroke-width="0.4pt"> 
 <g> 
 </g> 
 <g> 
 <path d=" M  23.43196 21.3864 L  -30.23717 -9.59941 L  -23.43198 -21.38637 L  30.23715 9.59944 Z M  -23.43198 -21.38637  " style="fill:none"/> 
 <g> 
 <g transform="matrix(0.86603,0.5,-0.5,0.86603,-22.21202,-16.83344)"> 
 <g fill="rgb(0.0%,0.0%,0.0%)"> 
 <text style="stroke:none" transform="scale(1,-1) translate(27.65283,0)" text-anchor="middle"  font-size="10"> 
Hello World!</text> 
</g> 
 </g> 
 </g> 
 </g> 
 <path d=" M  29.94283 13.97333 C  29.94283 15.08331 29.05281 15.97333 27.94283 15.97333 C  26.83284 15.97333 25.94283 15.08331 25.94283 13.97333 C  25.94283 12.86334 26.83284 11.97333 27.94283 11.97333 C  29.05281 11.97333 29.94283 12.86334 29.94283 13.97333 Z M  27.94283 13.97333 M  58.9055 28.45274 C  58.9055 29.56273 58.01549 30.45274 56.9055 30.45274 C  55.79552 30.45274 54.9055 29.56273 54.9055 28.45274 C  54.9055 27.34276 55.79552 26.45274 56.9055 26.45274 C  58.01549 26.45274 58.9055 27.34276 58.9055 28.45274 Z M  56.9055 28.45274 M  -3.12794 5.1283 C  -3.12794 6.23828 -4.01796 7.1283 -5.12794 7.1283 C  -6.23793 7.1283 -7.12794 6.23828 -7.12794 5.1283 C  -7.12794 4.01831 -6.23793 3.1283 -5.12794 3.1283 C  -4.01796 3.1283 -3.12794 4.01831 -3.12794 5.1283 Z M  -5.12794 5.1283 M  -26.45274 28.45274 C  -26.45274 29.56273 -27.34276 30.45274 -28.45274 30.45274 C  -29.56273 30.45274 -30.45274 29.56273 -30.45274 28.45274 C  -30.45274 27.34276 -29.56273 26.45274 -28.45274 26.45274 C  -27.34276 26.45274 -26.45274 27.34276 -26.45274 28.45274 Z M  -28.45274 28.45274  " style="stroke:none"/> 
 </g> 
 </g> 
 </g> 
 </g> 
 
                           </g> 
</svg> 
