<svg xmlns="http://www.w3.org/2000/svg" xmlns:xlink="http://www.w3.org/1999/xlink" width="92.75821pt" height="65.30547pt" viewBox="-2.79999 -33.05273 92.75821 65.30547 "> 
<g transform="translate(0, 32.25273 ) scale(1,-1) translate(0,33.05273 )"> 
         <g> 
 <g stroke="rgb(0.0%,0.0%,0.0%)"> 
 <g fill="rgb(0.0%,0.0%,0.0%)"> 
 <g stroke-width="0.4pt"> 
 <g> 
 </g> 
 <g> 
 <g> 
 <g stroke="rgb(100.0%,0.0%,0.0%)"> 
 <g fill="rgb(100.0%,0.0%,0.0%)"> 
 <path d=" M  0.0 0.0 M  2.0 0.0 C  2.0 1.10999 1.10999 2.0 0.0 2.0 C  -1.10999 2.0 -2.0 1.10999 -2.0 0.0 C  -2.0 -1.10999 -1.10999 -2.0 0.0 -2.0 C  1.10999 -2.0 2.0 -1.10999 2.0 0.0 Z M  0.0 0.0  " style="fill:none"/> 
 </g> 
 </g> 
 </g> 
 <g> 
 <g stroke="rgb(100.0%,0.0%,0.0%)"> 
 <g fill="rgb(100.0%,0.0%,0.0%)"> 
 <path d=" M  56.90549 28.45274 M  59.90549 28.45274 C  59.90549 30.11772 58.57047 31.45274 56.90549 31.45274 C  55.24051 31.45274 53.90549 30.11772 53.90549 28.45274 C  53.90549 26.78777 55.24051 25.45274 56.90549 25.45274 C  58.57047 25.45274 59.90549 26.78777 59.90549 28.45274 Z M  56.90549 28.45274  " style="fill:none"/> 
 </g> 
 </g> 
 </g> 
 <path d=" M  -2.2 -2.2 M  -2.2 -2.2 L  -2.2 31.65274 L  60.10548 31.65274 L  60.10548 -2.2 Z M  60.10548 31.65274  " style="fill:none"/> 
 <g> 
 <g stroke="rgb(100.0%,0.0%,0.0%)"> 
 <g fill="rgb(100.0%,0.0%,0.0%)"> 
 <path d=" M  85.35823 -28.45274 M  89.35823 -28.45274 C  89.35823 -26.23277 87.5782 -24.45274 85.35823 -24.45274 C  83.13826 -24.45274 81.35823 -26.23277 81.35823 -28.45274 C  81.35823 -30.67271 83.13826 -32.45274 85.35823 -32.45274 C  87.5782 -32.45274 89.35823 -30.67271 89.35823 -28.45274 Z M  85.35823 -28.45274  " style="fill:none"/> 
 </g> 
 </g> 
 </g> 
 <g> 
 <g stroke-width="0.8pt"> 
 <path d=" M  -2.4 -32.65274 M  -2.4 -32.65274 L  -2.4 31.85274 L  89.55823 31.85274 L  89.55823 -32.65274 Z M  89.55823 31.85274  " style="fill:none"/> 
 </g> 
 </g> 
 </g> 
 </g> 
 </g> 
 </g> 
 </g> 
 
                            </g> 
</svg> 
