<svg xmlns="http://www.w3.org/2000/svg" xmlns:xlink="http://www.w3.org/1999/xlink" width="99.5846pt" height="28.45274pt" viewBox="0.0 0.0 99.5846 28.45274 "> 
<g transform="translate(0, 28.45274 ) scale(1,-1) translate(0,0.0 )"> 
        <g> 
 <g stroke="rgb(0.0%,0.0%,0.0%)"> 
 <g fill="rgb(0.0%,0.0%,0.0%)"> 
 <g stroke-width="0.4pt"> 
 <g> 
 </g> 
 <g> 
 <g> 
 <clipPath id="pgfcp5"> <path d=" M  0.0 0.0 M  0.0 0.0 L  0.0 28.45274 L  56.90549 28.45274 L  56.90549 0.0 Z M  56.90549 28.45274 M  85.35823 14.22636 M  99.5846 14.22636 C  99.5846 22.12189 93.25375 28.45273 85.35823 28.45273 C  77.4627 28.45273 71.13187 22.12189 71.13187 14.22636 C  71.13187 6.33084 77.4627 0.0 85.35823 0.0 C  93.25375 0.0 99.5846 6.33084 99.5846 14.22636 Z M  85.35823 14.22636  "/> 
</clipPath> 
 <g clip-path="url(#pgfcp5)"> 
 <g transform="matrix(1,0,0,1,49.7923,14.22636)"> 
 <g transform="matrix(1.99211,0,0,0.56917,0.0,0.0)"> 
 <g transform="matrix(0.0,0.0,0.0,0.0,0.0,0.0)"> 
  <linearGradient id="pgfsh6" gradientTransform="rotate(90)"> 
 <stop offset=" 0.0" stop-color=" rgb(100.0%,100.0%,100.0%) "/> 
 <stop offset=" 0.25" stop-color=" rgb(100.0%,100.0%,100.0%) "/> 
 <stop offset=" 0.5" stop-color=" rgb(75.0%,75.0%,75.0%) "/> 
 <stop offset=" 0.75" stop-color=" rgb(50.0%,50.0%,50.0%) "/> 
 <stop offset=" 1.0" stop-color=" rgb(50.0%,50.0%,50.0%) "/> 
 </linearGradient> 
 <g transform="translate(-50.1875,-50.1875)"> 
 <rect width="100.375pt" height="100.375pt" style="fill:url(#pgfsh6); stroke:none"/> 
 </g> 
 </g> 
 </g> 
 </g> 
 </g> 
 </g> 
 </g> 
 </g> 
 </g> 
 </g> 
 </g> 
                       </g> 
</svg> 
