<svg xmlns="http://www.w3.org/2000/svg" xmlns:xlink="http://www.w3.org/1999/xlink" width="91.35823pt" height="97.35823pt" viewBox="25.45274 22.45274 91.35823 97.35823 "> 
<g transform="translate(0, 119.81097 ) scale(1,-1) translate(0,-22.45274 )"> 

 <g> 
 <g stroke="rgb(0.0%,0.0%,0.0%)"> 
 <g fill="rgb(0.0%,0.0%,0.0%)"> 
 <g stroke-width="0.4pt"> 
 <g> 
 </g> 
 <g> 
 <g> 
 <g stroke="rgb(100.0%,50.0%,50.0%)"> 
 <g fill="rgb(100.0%,50.0%,50.0%)"> 
 <path d=" M  28.45274 28.45274 M  31.45274 28.45274 C  31.45274 31.7827 30.11772 34.45274 28.45274 34.45274 C  26.78777 34.45274 25.45274 31.7827 25.45274 28.45274 C  25.45274 25.12279 26.78777 22.45274 28.45274 22.45274 C  30.11772 22.45274 31.45274 25.12279 31.45274 28.45274 Z M  28.45274 28.45274  " style="stroke:none"/> 
 </g> 
 </g> 
 </g> 
 <g> 
 <g stroke="rgb(100.0%,50.0%,50.0%)"> 
 <g fill="rgb(100.0%,50.0%,50.0%)"> 
 <path d=" M  28.45274 56.90549 M  31.45274 56.90549 C  31.45274 60.23544 30.11772 62.90549 28.45274 62.90549 C  26.78777 62.90549 25.45274 60.23544 25.45274 56.90549 C  25.45274 53.57553 26.78777 50.90549 28.45274 50.90549 C  30.11772 50.90549 31.45274 53.57553 31.45274 56.90549 Z M  28.45274 56.90549  " style="stroke:none"/> 
 </g> 
 </g> 
 </g> 
 <g> 
 <g stroke="rgb(100.0%,50.0%,50.0%)"> 
 <g fill="rgb(100.0%,50.0%,50.0%)"> 
 <path d=" M  56.90549 28.45274 M  59.90549 28.45274 C  59.90549 31.7827 58.57047 34.45274 56.90549 34.45274 C  55.24051 34.45274 53.90549 31.7827 53.90549 28.45274 C  53.90549 25.12279 55.24051 22.45274 56.90549 22.45274 C  58.57047 22.45274 59.90549 25.12279 59.90549 28.45274 Z M  56.90549 28.45274  " style="stroke:none"/> 
 </g> 
 </g> 
 </g> 
 <g> 
 <g stroke="rgb(100.0%,50.0%,50.0%)"> 
 <g fill="rgb(100.0%,50.0%,50.0%)"> 
 <path d=" M  56.90549 56.90549 M  59.90549 56.90549 C  59.90549 60.23544 58.57047 62.90549 56.90549 62.90549 C  55.24051 62.90549 53.90549 60.23544 53.90549 56.90549 C  53.90549 53.57553 55.24051 50.90549 56.90549 50.90549 C  58.57047 50.90549 59.90549 53.57553 59.90549 56.90549 Z M  56.90549 56.90549  " style="stroke:none"/> 
 </g> 
 </g> 
 </g> 
 <g> 
 <g stroke="rgb(100.0%,50.0%,50.0%)"> 
 <g fill="rgb(100.0%,50.0%,50.0%)"> 
 <path d=" M  56.90549 85.35823 M  59.90549 85.35823 C  59.90549 88.68819 58.57047 91.35823 56.90549 91.35823 C  55.24051 91.35823 53.90549 88.68819 53.90549 85.35823 C  53.90549 82.02827 55.24051 79.35823 56.90549 79.35823 C  58.57047 79.35823 59.90549 82.02827 59.90549 85.35823 Z M  56.90549 85.35823  " style="stroke:none"/> 
 </g> 
 </g> 
 </g> 
 <g> 
 <g stroke="rgb(100.0%,50.0%,50.0%)"> 
 <g fill="rgb(100.0%,50.0%,50.0%)"> 
 <path d=" M  85.35823 28.45274 M  88.35823 28.45274 C  88.35823 31.7827 87.02321 34.45274 85.35823 34.45274 C  83.69325 34.45274 82.35823 31.7827 82.35823 28.45274 C  82.35823 25.12279 83.69325 22.45274 85.35823 22.45274 C  87.02321 22.45274 88.35823 25.12279 88.35823 28.45274 Z M  85.35823 28.45274  " style="stroke:none"/> 
 </g> 
 </g> 
 </g> 
 <g> 
 <g stroke="rgb(100.0%,50.0%,50.0%)"> 
 <g fill="rgb(100.0%,50.0%,50.0%)"> 
 <path d=" M  85.35823 56.90549 M  88.35823 56.90549 C  88.35823 60.23544 87.02321 62.90549 85.35823 62.90549 C  83.69325 62.90549 82.35823 60.23544 82.35823 56.90549 C  82.35823 53.57553 83.69325 50.90549 85.35823 50.90549 C  87.02321 50.90549 88.35823 53.57553 88.35823 56.90549 Z M  85.35823 56.90549  " style="stroke:none"/> 
 </g> 
 </g> 
 </g> 
 <g> 
 <g stroke="rgb(100.0%,50.0%,50.0%)"> 
 <g fill="rgb(100.0%,50.0%,50.0%)"> 
 <path d=" M  85.35823 85.35823 M  88.35823 85.35823 C  88.35823 88.68819 87.02321 91.35823 85.35823 91.35823 C  83.69325 91.35823 82.35823 88.68819 82.35823 85.35823 C  82.35823 82.02827 83.69325 79.35823 85.35823 79.35823 C  87.02321 79.35823 88.35823 82.02827 88.35823 85.35823 Z M  85.35823 85.35823  " style="stroke:none"/> 
 </g> 
 </g> 
 </g> 
 <g> 
 <g stroke="rgb(100.0%,50.0%,50.0%)"> 
 <g fill="rgb(100.0%,50.0%,50.0%)"> 
 <path d=" M  85.35823 113.81097 M  88.35823 113.81097 C  88.35823 117.14093 87.02321 119.81097 85.35823 119.81097 C  83.69325 119.81097 82.35823 117.14093 82.35823 113.81097 C  82.35823 110.48102 83.69325 107.81097 85.35823 107.81097 C  87.02321 107.81097 88.35823 110.48102 88.35823 113.81097 Z M  85.35823 113.81097  " style="stroke:none"/> 
 </g> 
 </g> 
 </g> 
 <g> 
 <g stroke="rgb(100.0%,50.0%,50.0%)"> 
 <g fill="rgb(100.0%,50.0%,50.0%)"> 
 <path d=" M  113.81097 28.45274 M  116.81097 28.45274 C  116.81097 31.7827 115.47595 34.45274 113.81097 34.45274 C  112.146 34.45274 110.81097 31.7827 110.81097 28.45274 C  110.81097 25.12279 112.146 22.45274 113.81097 22.45274 C  115.47595 22.45274 116.81097 25.12279 116.81097 28.45274 Z M  113.81097 28.45274  " style="stroke:none"/> 
 </g> 
 </g> 
 </g> 
 <g> 
 <g stroke="rgb(100.0%,50.0%,50.0%)"> 
 <g fill="rgb(100.0%,50.0%,50.0%)"> 
 <path d=" M  113.81097 56.90549 M  116.81097 56.90549 C  116.81097 60.23544 115.47595 62.90549 113.81097 62.90549 C  112.146 62.90549 110.81097 60.23544 110.81097 56.90549 C  110.81097 53.57553 112.146 50.90549 113.81097 50.90549 C  115.47595 50.90549 116.81097 53.57553 116.81097 56.90549 Z M  113.81097 56.90549  " style="stroke:none"/> 
 </g> 
 </g> 
 </g> 
 <g> 
 <g stroke="rgb(100.0%,50.0%,50.0%)"> 
 <g fill="rgb(100.0%,50.0%,50.0%)"> 
 <path d=" M  113.81097 85.35823 M  116.81097 85.35823 C  116.81097 88.68819 115.47595 91.35823 113.81097 91.35823 C  112.146 91.35823 110.81097 88.68819 110.81097 85.35823 C  110.81097 82.02827 112.146 79.35823 113.81097 79.35823 C  115.47595 79.35823 116.81097 82.02827 116.81097 85.35823 Z M  113.81097 85.35823  " style="stroke:none"/> 
 </g> 
 </g> 
 </g> 
 <g> 
 <g stroke="rgb(100.0%,50.0%,50.0%)"> 
 <g fill="rgb(100.0%,50.0%,50.0%)"> 
 <path d=" M  113.81097 113.81097 M  116.81097 113.81097 C  116.81097 117.14093 115.47595 119.81097 113.81097 119.81097 C  112.146 119.81097 110.81097 117.14093 110.81097 113.81097 C  110.81097 110.48102 112.146 107.81097 113.81097 107.81097 C  115.47595 107.81097 116.81097 110.48102 116.81097 113.81097 Z M  113.81097 113.81097  " style="stroke:none"/> 
 </g> 
 </g> 
 </g> 
 </g> 
 </g> 
 </g> 
 </g> 
 </g> 
                            </g> 
</svg> 
