<svg xmlns="http://www.w3.org/2000/svg" xmlns:xlink="http://www.w3.org/1999/xlink" width="220.90874pt" height="35.9659pt" viewBox="14.02638 -21.53954 220.90874 35.9659 "> 
<g transform="translate(0, 14.42636 ) scale(1,-1) translate(0,21.53954 )"> 
    <g> 
 <g stroke="rgb(0.0%,0.0%,0.0%)"> 
 <g fill="rgb(0.0%,0.0%,0.0%)"> 
 <g stroke-width="0.4pt"> 
 <g> 
 </g> 
 <g> 
 <path d=" M  28.45274 0.0 M  42.67911 0.0 C  42.67911 7.89552 36.34827 14.22636 28.45274 14.22636 C  20.55722 14.22636 14.22638 7.89552 14.22638 0.0 C  14.22638 -7.89552 20.55722 -14.22636 28.45274 -14.22636 C  36.34827 -14.22636 42.67911 -7.89552 42.67911 0.0 Z M  28.45274 0.0  " style="fill:none"/> 
 <path d=" M  85.35823 0.0 M  113.81097 0.0 C  113.81097 7.89552 101.14929 14.22636 85.35823 14.22636 C  69.56717 14.22636 56.90549 7.89552 56.90549 0.0 C  56.90549 -7.89552 69.56717 -14.22636 85.35823 -14.22636 C  101.14929 -14.22636 113.81097 -7.89552 113.81097 0.0 Z M  85.35823 0.0 L  170.71646 0.0 M  184.94283 0.0 C  184.94283 7.89552 178.61198 14.22636 170.71646 14.22636 C  162.82094 14.22636 156.4901 7.89552 156.4901 0.0 C  156.4901 -7.89552 162.82094 -14.22636 170.71646 -14.22636 C  178.61198 -14.22636 184.94283 -7.89552 184.94283 0.0 Z M  170.71646 0.0 L  227.62195 -14.22636 M  234.73512 -14.22636 C  234.73512 -10.27861 231.5697 -7.11319 227.62195 -7.11319 C  223.6742 -7.11319 220.50877 -10.27861 220.50877 -14.22636 C  220.50877 -18.17412 223.6742 -21.33954 227.62195 -21.33954 C  231.5697 -21.33954 234.73512 -18.17412 234.73512 -14.22636 Z M  227.62195 -14.22636  " style="fill:none"/> 
 </g> 
 </g> 
 </g> 
 </g> 
 </g> 
 
                                                                  </g> 
</svg> 
