<svg xmlns="http://www.w3.org/2000/svg" xmlns:xlink="http://www.w3.org/1999/xlink" width="85.75818pt" height="163.49527pt" viewBox="-42.87909 -134.84253 85.75818 163.49527 "> 
<g transform="translate(0, 28.65274 ) scale(1,-1) translate(0,134.84253 )"> 
                     <g> 
 <g stroke="rgb(0.0%,0.0%,0.0%)"> 
 <g fill="rgb(0.0%,0.0%,0.0%)"> 
 <g stroke-width="0.4pt"> 
 <g> 
 </g> 
 <g> 
 <g> 
 <g> 
 <g transform="matrix(1.0,0.0,0.0,1.0,-7.50002,-2.15277)"> 
 <g fill="rgb(0.0%,0.0%,0.0%)"> 
 <text style="stroke:none" transform="scale(1,-1) translate(7.50002,0)" text-anchor="middle"  font-size="10"> 
one</text> 
</g> 
 </g> 
 </g> 
 </g> 
 <g> 
 <g> 
 </g> 
 <path d=" M  0.0 5.68575 L  0.0 28.45274  " style="fill:none"/> 
 </g> 
 <g> 
 <g> 
 <g transform="matrix(1.0,0.0,0.0,1.0,-7.77779,-45.7545)"> 
 <g fill="rgb(0.0%,0.0%,0.0%)"> 
 <text style="stroke:none" transform="scale(1,-1) translate(7.77779,0)" text-anchor="middle"  font-size="10"> 
two</text> 
</g> 
 </g> 
 </g> 
 </g> 
 <g> 
 <g> 
 </g> 
 <path d=" M  -3.30367 -36.07074 L  -14.22636 -14.22636  " style="fill:none"/> 
 </g> 
 <g> 
 <g> 
 </g> 
 <path d=" M  3.30367 -36.07074 L  14.22636 -14.22636  " style="fill:none"/> 
 </g> 
 <g> 
 <g> 
 <g transform="matrix(1.0,0.0,0.0,1.0,-11.12502,-88.83044)"> 
 <g fill="rgb(0.0%,0.0%,0.0%)"> 
 <text style="stroke:none" transform="scale(1,-1) translate(11.12502,0)" text-anchor="middle"  font-size="10"> 
three</text> 
</g> 
 </g> 
 </g> 
 </g> 
 <g> 
 <g> 
 </g> 
 <path d=" M  -7.0041 -78.35304 L  -28.45273 -56.90549  " style="fill:none"/> 
 </g> 
 <g> 
 <g> 
 </g> 
 <path d=" M  0.0 -78.35304 L  0.0 -56.90549  " style="fill:none"/> 
 </g> 
 <g> 
 <g> 
 </g> 
 <path d=" M  7.0041 -78.35304 L  28.45273 -56.90549  " style="fill:none"/> 
 </g> 
 <g> 
 <g> 
 <g transform="matrix(1.0,0.0,0.0,1.0,-8.76392,-131.50955)"> 
 <g fill="rgb(0.0%,0.0%,0.0%)"> 
 <text style="stroke:none" transform="scale(1,-1) translate(8.76392,0)" text-anchor="middle"  font-size="10"> 
four</text> 
</g> 
 </g> 
 </g> 
 </g> 
 <g> 
 <g> 
 </g> 
 <path d=" M  -10.50616 -121.03215 L  -42.6791 -99.5846  " style="fill:none"/> 
 </g> 
 <g> 
 <g> 
 </g> 
 <path d=" M  -3.50204 -121.03215 L  -14.22636 -99.5846  " style="fill:none"/> 
 </g> 
 <g> 
 <g> 
 </g> 
 <path d=" M  3.50204 -121.03215 L  14.22636 -99.5846  " style="fill:none"/> 
 </g> 
 <g> 
 <g> 
 </g> 
 <path d=" M  10.50616 -121.03215 L  42.6791 -99.5846  " style="fill:none"/> 
 </g> 
 </g> 
 </g> 
 </g> 
 </g> 
 </g> 
 
                          </g> 
</svg> 
