<svg xmlns="http://www.w3.org/2000/svg" xmlns:xlink="http://www.w3.org/1999/xlink" width="68.43256pt" height="40.39645pt" viewBox="-5.97188 -5.48575 68.43256 40.39645 "> 
<g transform="translate(0, 34.9107 ) scale(1,-1) translate(0,5.48575 )"> 
          <g> 
 <g stroke="rgb(0.0%,0.0%,0.0%)"> 
 <g fill="rgb(0.0%,0.0%,0.0%)"> 
 <g stroke-width="0.4pt"> 
 <g> 
 </g> 
 <g> 
 <g> 
 <g stroke="rgb(50.0%,50.0%,50.0%)"> 
 <g fill="rgb(50.0%,50.0%,50.0%)"> 
 <path d=" M  0.0 0.0 M  28.45274 28.45274 M  56.90549 14.22636  " style="fill:none"/> 
 <g> 
 <g> 
 <g transform="matrix(1.0,0.0,0.0,1.0,-2.6389,-2.15277)"> 
 <g fill="rgb(50.0%,50.0%,50.0%)"> 
 <text style="stroke:none" transform="scale(1,-1) translate(2.6389,0)" text-anchor="middle"  font-size="10"> 
x</text> 
</g> 
 </g> 
 </g> 
 </g> 
 <g> 
 <g> 
 <g transform="matrix(1.0,0.0,0.0,1.0,25.81384,27.27219)"> 
 <g fill="rgb(50.0%,50.0%,50.0%)"> 
 <text style="stroke:none" transform="scale(1,-1) translate(2.6389,0)" text-anchor="middle"  font-size="10"> 
y</text> 
</g> 
 </g> 
 </g> 
 </g> 
 <g> 
 <g> 
 <g transform="matrix(1.0,0.0,0.0,1.0,54.68327,12.0736)"> 
 <g fill="rgb(50.0%,50.0%,50.0%)"> 
 <text style="stroke:none" transform="scale(1,-1) translate(2.22221,0)" text-anchor="middle"  font-size="10"> 
z</text> 
</g> 
 </g> 
 </g> 
 </g> 
 </g> 
 </g> 
 </g> 
 <path d=" M  0.0 2.0 L  1.9021 0.61804 L  1.17557 -1.61804 L  -1.17557 -1.61804 L  -1.9021 0.61804 Z  " style="fill:none"/> 
 <path d=" M  28.45274 30.45274 L  30.35484 29.07079 L  29.62831 26.8347 L  27.27718 26.8347 L  26.55064 29.07079 Z  " style="fill:none"/> 
 <path d=" M  56.9055 16.22636 L  58.8076 14.8444 L  58.08107 12.60832 L  55.72993 12.60832 L  55.0034 14.8444 Z  " style="fill:none"/> 
 <path d="  " style="fill:none"/> 
 </g> 
 </g> 
 </g> 
 </g> 
 </g> 
          </g> 
</svg> 
