<svg xmlns="http://www.w3.org/2000/svg" xmlns:xlink="http://www.w3.org/1999/xlink" width="111.48257pt" height="77.62909pt" viewBox="-12.37466 -28.14473 111.48257 77.62909 "> 
<g transform="translate(0, 49.48436 ) scale(1,-1) translate(0,28.14473 )"> 
            <g> 
 <g stroke="rgb(0.0%,0.0%,0.0%)"> 
 <g fill="rgb(0.0%,0.0%,0.0%)"> 
 <g stroke-width="0.4pt"> 
 <g> 
 </g> 
 <g> 
 <g> 
 <g> 
 <g transform="matrix(1.0,0.0,0.0,1.0,-9.04169,-3.0754)"> 
 <g fill="rgb(0.0%,0.0%,0.0%)"> 
 <text style="stroke:none" transform="scale(1,-1) translate(9.04169,0)" text-anchor="middle"  font-size="10"> 
root</text> 
</g> 
 </g> 
 </g> 
 </g> 
 <g> 
 <g> 
 <g> 
 <g transform="matrix(1.0,0.0,0.0,1.0,35.59578,-24.81175)"> 
 <g fill="rgb(0.0%,0.0%,0.0%)"> 
 <text style="stroke:none" transform="scale(1,-1) translate(7.08334,0)" text-anchor="middle"  font-size="10"> 
left</text> 
</g> 
 </g> 
 </g> 
 </g> 
 <path d=" M  12.57466 0.0 L  21.33955 0.0 L  21.33955 -21.33954 L  32.0628 -21.33954  " style="fill:none"/> 
 </g> 
 <g> 
 <g> 
 <g> 
 <g transform="matrix(1.0,0.0,0.0,1.0,32.24855,18.83958)"> 
 <g fill="rgb(0.0%,0.0%,0.0%)"> 
 <text style="stroke:none" transform="scale(1,-1) translate(10.43057,0)" text-anchor="middle"  font-size="10"> 
right</text> 
</g> 
 </g> 
 </g> 
 </g> 
 <path d=" M  42.67912 21.33958 M  12.57466 0.0 L  21.33955 0.0 L  21.33955 21.33958 L  28.71558 21.33958  " style="fill:none"/> 
 <g> 
 <g> 
 <g> 
 <g transform="matrix(1.0,0.0,0.0,1.0,74.94156,-3.47217)"> 
 <g fill="rgb(0.0%,0.0%,0.0%)"> 
 <text style="stroke:none" transform="scale(1,-1) translate(10.41669,0)" text-anchor="middle"  font-size="10"> 
child</text> 
</g> 
 </g> 
 </g> 
 </g> 
 <path d=" M  56.64267 21.33958 L  64.01868 21.33958 L  64.01868 0.00005 L  71.40858 0.00005  " style="fill:none"/> 
 </g> 
 <g> 
 <g> 
 <g> 
 <g transform="matrix(1.0,0.0,0.0,1.0,74.94156,39.20695)"> 
 <g fill="rgb(0.0%,0.0%,0.0%)"> 
 <text style="stroke:none" transform="scale(1,-1) translate(10.41669,0)" text-anchor="middle"  font-size="10"> 
child</text> 
</g> 
 </g> 
 </g> 
 </g> 
 <path d=" M  56.64267 21.33958 L  64.01868 21.33958 L  64.01868 42.67917 L  71.40858 42.67917  " style="fill:none"/> 
 </g> 
 </g> 
 </g> 
 </g> 
 </g> 
 </g> 
 </g> 
 
                                 </g> 
</svg> 
