<svg xmlns="http://www.w3.org/2000/svg" xmlns:xlink="http://www.w3.org/1999/xlink" width="85.65822pt" height="57.34164pt" viewBox="-0.2 -0.2 85.65822 57.34164 "> 
<g transform="translate(0, 57.14165 ) scale(1,-1) translate(0,0.2 )"> 
        <g> 
 <g stroke="rgb(0.0%,0.0%,0.0%)"> 
 <g fill="rgb(0.0%,0.0%,0.0%)"> 
 <g stroke-width="0.4pt"> 
 <g> 
 </g> 
 <g> 
 <g> 
 <g stroke="rgb(50.0%,50.0%,50.0%)"> 
 <g fill="rgb(50.0%,50.0%,50.0%)"> 
 <g stroke-width="0.2pt"> 
 <path d=" M  0.0 0.0 M  0.0 0.0 L  85.35823 0.0 M  0.0 28.45274 L  85.35823 28.45274 M  0.0 56.8955 L  85.35823 56.8955 M  0.0 0.0 L  0.0 56.90549 M  28.45274 0.0 L  28.45274 56.90549 M  56.90549 0.0 L  56.90549 56.90549 M  85.34824 0.0 L  85.34824 56.90549  " style="fill:none"/> 
 </g> 
 </g> 
 </g> 
 </g> 
 <path d=" M  0.0 28.45274 L  1.58272 31.61816 L  4.74815 30.03546 L  7.91357 28.45274 L  9.4963 31.61818 L  11.07903 34.7836 L  14.24446 33.2009 L  17.40988 31.61818 L  18.99261 34.78362 L  20.57533 37.94904 L  23.74077 36.36633 L  26.90619 34.78362 L  28.48892 37.94905 L  30.07164 41.11447 L  33.23708 39.53177 L  36.4025 37.94905 L  37.98523 41.11449 L  39.56795 44.2799 L  42.73338 42.6972 L  45.8988 41.11449 L  47.48154 44.27992 L  49.06425 47.44534 L  52.22969 45.86264 L  55.39511 44.27992 L  56.97784 47.44536 L  58.56056 50.61078 L  61.726 49.02808 L  64.89142 47.44536 L  66.47415 50.6108 L  68.05687 53.77621 L  71.2223 52.19351 L  74.38773 50.6108 L  75.97046 53.77623 L  77.55318 56.94165 L  80.71861 55.35895 L  85.04527 56.80116  " style="fill:none"/> 
 <path d=" M  0.0 0.0 L  27.01959 9.00653 L  28.60231 12.17195 L  31.76775 10.58925 L  34.93317 9.00653 L  36.5159 12.17197 L  38.09862 15.33739 L  41.26405 13.75468 L  44.42947 12.17197 L  46.0122 15.3374 L  47.59492 18.50282 L  50.76036 16.92012 L  53.92578 15.3374 L  55.50851 18.50284 L  57.09123 21.66826 L  60.25667 20.08556 L  63.42209 18.50284 L  65.00482 21.66827 L  66.58754 24.8337 L  69.75298 23.25099 L  72.9184 21.66827 L  74.50113 24.83371 L  76.08385 27.99913 L  79.24928 26.41643 L  82.4147 24.83371 L  83.99744 27.99915 L  85.04526 28.34842  " style="fill:none"/> 
 </g> 
 </g> 
 </g> 
 </g> 
 </g> 
                   </g> 
</svg> 
