<svg xmlns="http://www.w3.org/2000/svg" xmlns:xlink="http://www.w3.org/1999/xlink" width="97.13914pt" height="97.13914pt" viewBox="-5.89046 -5.89046 97.13914 97.13914 "> 
<g transform="translate(0, 91.24869 ) scale(1,-1) translate(0,5.89046 )"> 
          <g> 
 <g stroke="rgb(0.0%,0.0%,0.0%)"> 
 <g fill="rgb(0.0%,0.0%,0.0%)"> 
 <g stroke-width="0.4pt"> 
 <g> 
 </g> 
 <g> 
 <path d=" M  0.0 0.0 M  5.69046 0.0 C  5.69046 3.15816 3.15816 5.69046 0.0 5.69046 C  -3.15816 5.69046 -5.69046 3.15816 -5.69046 0.0 C  -5.69046 -3.15816 -3.15816 -5.69046 0.0 -5.69046 C  3.15816 -5.69046 5.69046 -3.15816 5.69046 0.0 Z M  0.0 0.0  " style="fill:none"/> 
 <path d=" M  0.0 0.0 M  2.84544 0.0 C  2.84544 1.5792 1.5792 2.84544 0.0 2.84544 C  -1.5792 2.84544 -2.84544 1.5792 -2.84544 0.0 C  -2.84544 -1.5792 -1.5792 -2.84544 0.0 -2.84544 C  1.5792 -2.84544 2.84544 -1.5792 2.84544 0.0 Z M  0.0 0.0  " style="stroke:none"/> 
 <path d=" M  0.0 28.45274 M  5.69046 28.45274 C  5.69046 31.6109 3.15816 34.1432 0.0 34.1432 C  -3.15816 34.1432 -5.69046 31.6109 -5.69046 28.45274 C  -5.69046 25.29459 -3.15816 22.76228 0.0 22.76228 C  3.15816 22.76228 5.69046 25.29459 5.69046 28.45274 Z M  0.0 28.45274  " style="fill:none"/> 
 <path d=" M  0.0 28.45274 M  2.84544 28.45274 C  2.84544 30.03194 1.5792 31.29819 0.0 31.29819 C  -1.5792 31.29819 -2.84544 30.03194 -2.84544 28.45274 C  -2.84544 26.87355 -1.5792 25.6073 0.0 25.6073 C  1.5792 25.6073 2.84544 26.87355 2.84544 28.45274 Z M  0.0 28.45274  " style="stroke:none"/> 
 <path d=" M  0.0 56.90549 M  5.69046 56.90549 C  5.69046 60.06364 3.15816 62.59595 0.0 62.59595 C  -3.15816 62.59595 -5.69046 60.06364 -5.69046 56.90549 C  -5.69046 53.74733 -3.15816 51.21503 0.0 51.21503 C  3.15816 51.21503 5.69046 53.74733 5.69046 56.90549 Z M  0.0 56.90549  " style="fill:none"/> 
 <path d=" M  0.0 56.90549 M  2.84544 56.90549 C  2.84544 58.48468 1.5792 59.75093 0.0 59.75093 C  -1.5792 59.75093 -2.84544 58.48468 -2.84544 56.90549 C  -2.84544 55.3263 -1.5792 54.06004 0.0 54.06004 C  1.5792 54.06004 2.84544 55.3263 2.84544 56.90549 Z M  0.0 56.90549  " style="stroke:none"/> 
 <path d=" M  0.0 85.35823 M  5.69046 85.35823 C  5.69046 88.51639 3.15816 91.04869 0.0 91.04869 C  -3.15816 91.04869 -5.69046 88.51639 -5.69046 85.35823 C  -5.69046 82.20007 -3.15816 79.66777 0.0 79.66777 C  3.15816 79.66777 5.69046 82.20007 5.69046 85.35823 Z M  0.0 85.35823  " style="fill:none"/> 
 <path d=" M  0.0 85.35823 M  2.84544 85.35823 C  2.84544 86.93742 1.5792 88.20367 0.0 88.20367 C  -1.5792 88.20367 -2.84544 86.93742 -2.84544 85.35823 C  -2.84544 83.77904 -1.5792 82.51279 0.0 82.51279 C  1.5792 82.51279 2.84544 83.77904 2.84544 85.35823 Z M  0.0 85.35823  " style="stroke:none"/> 
 <path d=" M  28.45274 0.0 M  34.1432 0.0 C  34.1432 3.15816 31.6109 5.69046 28.45274 5.69046 C  25.29459 5.69046 22.76228 3.15816 22.76228 0.0 C  22.76228 -3.15816 25.29459 -5.69046 28.45274 -5.69046 C  31.6109 -5.69046 34.1432 -3.15816 34.1432 0.0 Z M  28.45274 0.0  " style="fill:none"/> 
 <path d=" M  28.45274 0.0 M  31.29819 0.0 C  31.29819 1.5792 30.03194 2.84544 28.45274 2.84544 C  26.87355 2.84544 25.6073 1.5792 25.6073 0.0 C  25.6073 -1.5792 26.87355 -2.84544 28.45274 -2.84544 C  30.03194 -2.84544 31.29819 -1.5792 31.29819 0.0 Z M  28.45274 0.0  " style="stroke:none"/> 
 <path d=" M  28.45274 28.45274 M  34.1432 28.45274 C  34.1432 31.6109 31.6109 34.1432 28.45274 34.1432 C  25.29459 34.1432 22.76228 31.6109 22.76228 28.45274 C  22.76228 25.29459 25.29459 22.76228 28.45274 22.76228 C  31.6109 22.76228 34.1432 25.29459 34.1432 28.45274 Z M  28.45274 28.45274  " style="fill:none"/> 
 <path d=" M  28.45274 28.45274 M  31.29819 28.45274 C  31.29819 30.03194 30.03194 31.29819 28.45274 31.29819 C  26.87355 31.29819 25.6073 30.03194 25.6073 28.45274 C  25.6073 26.87355 26.87355 25.6073 28.45274 25.6073 C  30.03194 25.6073 31.29819 26.87355 31.29819 28.45274 Z M  28.45274 28.45274  " style="stroke:none"/> 
 <path d=" M  28.45274 56.90549 M  34.1432 56.90549 C  34.1432 60.06364 31.6109 62.59595 28.45274 62.59595 C  25.29459 62.59595 22.76228 60.06364 22.76228 56.90549 C  22.76228 53.74733 25.29459 51.21503 28.45274 51.21503 C  31.6109 51.21503 34.1432 53.74733 34.1432 56.90549 Z M  28.45274 56.90549  " style="fill:none"/> 
 <path d=" M  28.45274 56.90549 M  31.29819 56.90549 C  31.29819 58.48468 30.03194 59.75093 28.45274 59.75093 C  26.87355 59.75093 25.6073 58.48468 25.6073 56.90549 C  25.6073 55.3263 26.87355 54.06004 28.45274 54.06004 C  30.03194 54.06004 31.29819 55.3263 31.29819 56.90549 Z M  28.45274 56.90549  " style="stroke:none"/> 
 <path d=" M  28.45274 85.35823 M  34.1432 85.35823 C  34.1432 88.51639 31.6109 91.04869 28.45274 91.04869 C  25.29459 91.04869 22.76228 88.51639 22.76228 85.35823 C  22.76228 82.20007 25.29459 79.66777 28.45274 79.66777 C  31.6109 79.66777 34.1432 82.20007 34.1432 85.35823 Z M  28.45274 85.35823  " style="fill:none"/> 
 <path d=" M  28.45274 85.35823 M  31.29819 85.35823 C  31.29819 86.93742 30.03194 88.20367 28.45274 88.20367 C  26.87355 88.20367 25.6073 86.93742 25.6073 85.35823 C  25.6073 83.77904 26.87355 82.51279 28.45274 82.51279 C  30.03194 82.51279 31.29819 83.77904 31.29819 85.35823 Z M  28.45274 85.35823  " style="stroke:none"/> 
 <path d=" M  56.90549 0.0 M  62.59595 0.0 C  62.59595 3.15816 60.06364 5.69046 56.90549 5.69046 C  53.74733 5.69046 51.21503 3.15816 51.21503 0.0 C  51.21503 -3.15816 53.74733 -5.69046 56.90549 -5.69046 C  60.06364 -5.69046 62.59595 -3.15816 62.59595 0.0 Z M  56.90549 0.0  " style="fill:none"/> 
 <path d=" M  56.90549 0.0 M  59.75093 0.0 C  59.75093 1.5792 58.48468 2.84544 56.90549 2.84544 C  55.3263 2.84544 54.06004 1.5792 54.06004 0.0 C  54.06004 -1.5792 55.3263 -2.84544 56.90549 -2.84544 C  58.48468 -2.84544 59.75093 -1.5792 59.75093 0.0 Z M  56.90549 0.0  " style="stroke:none"/> 
 <path d=" M  56.90549 28.45274 M  62.59595 28.45274 C  62.59595 31.6109 60.06364 34.1432 56.90549 34.1432 C  53.74733 34.1432 51.21503 31.6109 51.21503 28.45274 C  51.21503 25.29459 53.74733 22.76228 56.90549 22.76228 C  60.06364 22.76228 62.59595 25.29459 62.59595 28.45274 Z M  56.90549 28.45274  " style="fill:none"/> 
 <path d=" M  56.90549 28.45274 M  59.75093 28.45274 C  59.75093 30.03194 58.48468 31.29819 56.90549 31.29819 C  55.3263 31.29819 54.06004 30.03194 54.06004 28.45274 C  54.06004 26.87355 55.3263 25.6073 56.90549 25.6073 C  58.48468 25.6073 59.75093 26.87355 59.75093 28.45274 Z M  56.90549 28.45274  " style="stroke:none"/> 
 <path d=" M  56.90549 56.90549 M  62.59595 56.90549 C  62.59595 60.06364 60.06364 62.59595 56.90549 62.59595 C  53.74733 62.59595 51.21503 60.06364 51.21503 56.90549 C  51.21503 53.74733 53.74733 51.21503 56.90549 51.21503 C  60.06364 51.21503 62.59595 53.74733 62.59595 56.90549 Z M  56.90549 56.90549  " style="fill:none"/> 
 <path d=" M  56.90549 56.90549 M  59.75093 56.90549 C  59.75093 58.48468 58.48468 59.75093 56.90549 59.75093 C  55.3263 59.75093 54.06004 58.48468 54.06004 56.90549 C  54.06004 55.3263 55.3263 54.06004 56.90549 54.06004 C  58.48468 54.06004 59.75093 55.3263 59.75093 56.90549 Z M  56.90549 56.90549  " style="stroke:none"/> 
 <path d=" M  56.90549 85.35823 M  62.59595 85.35823 C  62.59595 88.51639 60.06364 91.04869 56.90549 91.04869 C  53.74733 91.04869 51.21503 88.51639 51.21503 85.35823 C  51.21503 82.20007 53.74733 79.66777 56.90549 79.66777 C  60.06364 79.66777 62.59595 82.20007 62.59595 85.35823 Z M  56.90549 85.35823  " style="fill:none"/> 
 <path d=" M  56.90549 85.35823 M  59.75093 85.35823 C  59.75093 86.93742 58.48468 88.20367 56.90549 88.20367 C  55.3263 88.20367 54.06004 86.93742 54.06004 85.35823 C  54.06004 83.77904 55.3263 82.51279 56.90549 82.51279 C  58.48468 82.51279 59.75093 83.77904 59.75093 85.35823 Z M  56.90549 85.35823  " style="stroke:none"/> 
 <path d=" M  85.35823 0.0 M  91.04869 0.0 C  91.04869 3.15816 88.51639 5.69046 85.35823 5.69046 C  82.20007 5.69046 79.66777 3.15816 79.66777 0.0 C  79.66777 -3.15816 82.20007 -5.69046 85.35823 -5.69046 C  88.51639 -5.69046 91.04869 -3.15816 91.04869 0.0 Z M  85.35823 0.0  " style="fill:none"/> 
 <path d=" M  85.35823 0.0 M  88.20367 0.0 C  88.20367 1.5792 86.93742 2.84544 85.35823 2.84544 C  83.77904 2.84544 82.51279 1.5792 82.51279 0.0 C  82.51279 -1.5792 83.77904 -2.84544 85.35823 -2.84544 C  86.93742 -2.84544 88.20367 -1.5792 88.20367 0.0 Z M  85.35823 0.0  " style="stroke:none"/> 
 <path d=" M  85.35823 28.45274 M  91.04869 28.45274 C  91.04869 31.6109 88.51639 34.1432 85.35823 34.1432 C  82.20007 34.1432 79.66777 31.6109 79.66777 28.45274 C  79.66777 25.29459 82.20007 22.76228 85.35823 22.76228 C  88.51639 22.76228 91.04869 25.29459 91.04869 28.45274 Z M  85.35823 28.45274  " style="fill:none"/> 
 <path d=" M  85.35823 28.45274 M  88.20367 28.45274 C  88.20367 30.03194 86.93742 31.29819 85.35823 31.29819 C  83.77904 31.29819 82.51279 30.03194 82.51279 28.45274 C  82.51279 26.87355 83.77904 25.6073 85.35823 25.6073 C  86.93742 25.6073 88.20367 26.87355 88.20367 28.45274 Z M  85.35823 28.45274  " style="stroke:none"/> 
 <path d=" M  85.35823 56.90549 M  91.04869 56.90549 C  91.04869 60.06364 88.51639 62.59595 85.35823 62.59595 C  82.20007 62.59595 79.66777 60.06364 79.66777 56.90549 C  79.66777 53.74733 82.20007 51.21503 85.35823 51.21503 C  88.51639 51.21503 91.04869 53.74733 91.04869 56.90549 Z M  85.35823 56.90549  " style="fill:none"/> 
 <path d=" M  85.35823 56.90549 M  88.20367 56.90549 C  88.20367 58.48468 86.93742 59.75093 85.35823 59.75093 C  83.77904 59.75093 82.51279 58.48468 82.51279 56.90549 C  82.51279 55.3263 83.77904 54.06004 85.35823 54.06004 C  86.93742 54.06004 88.20367 55.3263 88.20367 56.90549 Z M  85.35823 56.90549  " style="stroke:none"/> 
 <path d=" M  85.35823 85.35823 M  91.04869 85.35823 C  91.04869 88.51639 88.51639 91.04869 85.35823 91.04869 C  82.20007 91.04869 79.66777 88.51639 79.66777 85.35823 C  79.66777 82.20007 82.20007 79.66777 85.35823 79.66777 C  88.51639 79.66777 91.04869 82.20007 91.04869 85.35823 Z M  85.35823 85.35823  " style="fill:none"/> 
 <path d=" M  85.35823 85.35823 M  88.20367 85.35823 C  88.20367 86.93742 86.93742 88.20367 85.35823 88.20367 C  83.77904 88.20367 82.51279 86.93742 82.51279 85.35823 C  82.51279 83.77904 83.77904 82.51279 85.35823 82.51279 C  86.93742 82.51279 88.20367 83.77904 88.20367 85.35823 Z M  85.35823 85.35823  " style="stroke:none"/> 
 </g> 
 </g> 
 </g> 
 </g> 
 </g> 
                    </g> 
</svg> 
