<svg xmlns="http://www.w3.org/2000/svg" xmlns:xlink="http://www.w3.org/1999/xlink" width="379.5989pt" height="112.06274pt" viewBox="-71.83392 -31.39049 379.5989 112.06274 "> 
<g transform="translate(0, 80.67226 ) scale(1,-1) translate(0,31.39049 )"> 
                              <g> 
 <g stroke="rgb(0.0%,0.0%,0.0%)"> 
 <g fill="rgb(0.0%,0.0%,0.0%)"> 
 <g stroke-width="0.4pt"> 
 <g> 
 </g> 
 <g> 
 <g> 
 <g fill="rgb(100.0%,100.0%,0.0%)"> 
 <path d=" M  0.0 0.0 L  10.66977 18.48064 C  0.41385 24.40189 -12.55939 20.92569 -18.48064 10.66977 C  -20.4012 7.34325 -21.33955 3.84114 -21.33955 0.0  " /> 
 </g> 
 </g> 
 <path d=" M  -5.69046 9.85619  " style="fill:none"/> 
 <g> 
 <g> 
 <g transform="matrix(1.0,0.0,0.0,1.0,-8.90747,7.70341)"> 
 <g fill="rgb(0.0%,0.0%,0.0%)"> 
 <text style="stroke:none" transform="scale(1,-1) translate(3.21701,0)" text-anchor="middle"  font-size="10"> 
<tspan font-family="cmmi" font-size="10"><img 
src="cmmi10-b.png" alt="a" class="10x-x-b" /></tspan></text> 
</g> 
 </g> 
 </g> 
 </g> 
 <g> 
 <g fill="rgb(69.9997%,100.0%,69.9997%)"> 
 <path d=" M  0.0 0.0 L  21.33955 0.0 C  21.33955 7.68228 17.32283 14.6395 10.66977 18.48064  " /> 
 </g> 
 </g> 
 <path d=" M  12.32042 7.11317  " style="fill:none"/> 
 <g> 
 <g> 
 <g transform="matrix(1.0,0.0,0.0,1.0,9.22841,4.61317)"> 
 <g fill="rgb(0.0%,0.0%,0.0%)"> 
 <text style="stroke:none" transform="scale(1,-1) translate(3.09201,0)" text-anchor="middle"  font-size="10"> 
<tspan font-family="cmmi" font-size="10"><img 
src="cmmi10-c.png" alt="b" class="cmmi-10x-x-c" align="middle" /></tspan></text> 
</g> 
 </g> 
 </g> 
 </g> 
 <g> 
 <g> 
 <g fill="rgb(69.9997%,100.0%,69.9997%)"> 
 <path d=" M  28.45274 49.28174 L  7.11319 49.28174 C  7.11319 41.59946 11.12991 34.64224 17.78297 30.8011  " /> 
 </g> 
 </g> 
 <path d=" M  16.13232 42.16856  " style="fill:none"/> 
 <g> 
 <g> 
 <g transform="matrix(1.0,0.0,0.0,1.0,13.2659,40.988)"> 
 <g fill="rgb(0.0%,0.0%,0.0%)"> 
 <text style="stroke:none" transform="scale(1,-1) translate(2.86642,0)" text-anchor="middle"  font-size="10"> 
<tspan font-family="cmmi" font-size="10"><img 
src="cmmi10-d.png" alt="g" class="10x-x-d" /></tspan></text> 
</g> 
 </g> 
 </g> 
 </g> 
 <g> 
 <g fill="rgb(100.0%,100.0%,0.0%)"> 
 <path d=" M  28.45274 49.28174 L  17.78297 30.8011 C  28.0389 24.87985 41.01213 28.35605 46.93338 38.61197 C  48.85394 41.93849 49.7923 45.4406 49.7923 49.28174  " /> 
 </g> 
 </g> 
 <path d=" M  34.1432 39.42555  " style="fill:none"/> 
 <g> 
 <g> 
 <g transform="matrix(1.0,0.0,0.0,1.0,31.73175,35.95334)"> 
 <g fill="rgb(0.0%,0.0%,0.0%)"> 
 <text style="stroke:none" transform="scale(1,-1) translate(2.41145,0)" text-anchor="middle"  font-size="10"> 
<tspan font-family="cmmi" font-size="10"><img 
src="cmmi10-e.png" alt="d" class="10x-x-e" /></tspan></text> 
</g> 
 </g> 
 </g> 
 </g> 
 </g> 
 <g> 
 <g stroke-width="0.8pt"> 
 <path d=" M  -14.22636 -24.64085 L  42.67912 73.92262  " style="fill:none"/> 
 <g> 
 <g fill="rgb(100.0%,100.0%,100.0%)"> 
 <g> 
 <g fill="rgb(100.0%,100.0%,100.0%)"> 
 <path d=" M  -21.5385 -31.39049 h  14.62427 v  13.49927 h  -14.62427 Z  " style="stroke:none"/> 
 </g> 
 </g> 
 <g> 
 <g transform="matrix(1.0,0.0,0.0,1.0,-18.20552,-28.05751)"> 
 <g fill="rgb(0.0%,0.0%,0.0%)"> 
 <text style="stroke:none" transform="scale(1,-1) translate(3.97916,0)" text-anchor="middle"  font-size="10"> 
<tspan font-family="cmmi" font-size="10">E</tspan></text> 
</g> 
 </g> 
 </g> 
 </g> 
 </g> 
 <g> 
 <g fill="rgb(100.0%,100.0%,100.0%)"> 
 <g> 
 <g fill="rgb(100.0%,100.0%,100.0%)"> 
 <path d=" M  35.43642 67.17299 h  14.48541 v  13.49927 h  -14.48541 Z  " style="stroke:none"/> 
 </g> 
 </g> 
 <g> 
 <g transform="matrix(1.0,0.0,0.0,1.0,38.7694,70.50597)"> 
 <g fill="rgb(0.0%,0.0%,0.0%)"> 
 <text style="stroke:none" transform="scale(1,-1) translate(3.90973,0)" text-anchor="middle"  font-size="10"> 
<tspan font-family="cmmi" font-size="10">F</tspan></text> 
</g> 
 </g> 
 </g> 
 </g> 
 </g> 
 <g> 
 <g stroke="rgb(100.0%,0.0%,0.0%)"> 
 <g fill="rgb(100.0%,0.0%,0.0%)"> 
 <path d=" M  -56.90549 0.0 L  85.35823 0.0  " style="fill:none"/> 
 <g> 
 <g> 
 <g transform="matrix(1.0,0.0,0.0,1.0,-68.13846,-3.41666)"> 
 <g fill="rgb(100.0%,0.0%,0.0%)"> 
 <text style="stroke:none" transform="scale(1,-1) translate(3.75,0)" text-anchor="middle"  font-size="10"> 
<tspan font-family="cmmi" font-size="10">A</tspan></text> 
</g> 
 </g> 
 </g> 
 </g> 
 <g> 
 <g> 
 <g transform="matrix(1.0,0.0,0.0,1.0,89.0912,-3.41666)"> 
 <g fill="rgb(100.0%,0.0%,0.0%)"> 
 <text style="stroke:none" transform="scale(1,-1) translate(4.0434,0)" text-anchor="middle"  font-size="10"> 
<tspan font-family="cmmi" font-size="10">B</tspan></text> 
</g> 
 </g> 
 </g> 
 </g> 
 </g> 
 </g> 
 </g> 
 <g> 
 <g stroke="rgb(0.0%,0.0%,100.0%)"> 
 <g fill="rgb(0.0%,0.0%,100.0%)"> 
 <path d=" M  -56.90549 49.28174 L  85.35823 49.28174  " style="fill:none"/> 
 <g> 
 <g> 
 <g transform="matrix(1.0,0.0,0.0,1.0,-68.50095,45.86508)"> 
 <g fill="rgb(0.0%,0.0%,100.0%)"> 
 <text style="stroke:none" transform="scale(1,-1) translate(3.93124,0)" text-anchor="middle"  font-size="10"> 
<tspan font-family="cmmi" font-size="10">C</tspan></text> 
</g> 
 </g> 
 </g> 
 </g> 
 <g> 
 <g> 
 <g transform="matrix(1.0,0.0,0.0,1.0,89.0912,45.86508)"> 
 <g fill="rgb(0.0%,0.0%,100.0%)"> 
 <text style="stroke:none" transform="scale(1,-1) translate(4.27847,0)" text-anchor="middle"  font-size="10"> 
<tspan font-family="cmmi" font-size="10">D</tspan></text> 
</g> 
 </g> 
 </g> 
 </g> 
 </g> 
 </g> 
 </g> 
 <path d="  " style="fill:none"/> 
 <g> 
 <g fill="rgb(100.0%,80.0003%,80.0003%)"> 
 <g> 
 <g fill="rgb(100.0%,80.0003%,80.0003%)"> 
 <path d=" M  303.76498 45.39084 L  132.43738 45.39084 C  130.2174 45.39084 128.43738 43.61081 128.43738 41.39084 L  128.43738 7.89087 C  128.43738 5.6709 130.2174 3.89087 132.43738 3.89087 L  303.76498 3.89087 C  305.98495 3.89087 307.76498 5.6709 307.76498 7.89087 L  307.76498 41.39084 C  307.76498 43.61081 305.98495 45.39084 303.76498 45.39084 Z M  128.43738 36.77975  " style="stroke:none"/> 
 </g> 
 </g> 
 <g> 
 <g transform="matrix(1.0,0.0,0.0,1.0,132.74292,41.0853)"> 
 <g fill="rgb(0.0%,0.0%,0.0%)"> 
 <text style="stroke:none" transform="scale(1,-1) translate(85.35826,0)" text-anchor="middle"  font-size="10"> 
<!--l. 1--><p class="noindent">When we assume that <tspan font-family="cmmi" font-size="10">AB</tspan> and <tspan font-family="cmmi" font-size="10">CD</tspan>
are parallel, i. e., <tspan font-family="cmmi" font-size="10">AB</tspan> <tspan font-family="cmsy" font-size="10">||</tspan> <tspan font-family="cmmi" font-size="10">CD</tspan>, then <tspan font-family="cmmi" font-size="10"><img 
src="cmmi10-b.png" alt="a" class="10x-x-b" /> </tspan>= <tspan font-family="cmmi" font-size="10"><img 
src="cmmi10-e.png" alt="d" class="10x-x-e" /></tspan>
and <tspan font-family="cmmi" font-size="10"><img 
src="cmmi10-c.png" alt="b" class="cmmi-10x-x-c" align="middle" /> </tspan>= <tspan font-family="cmmi" font-size="10"><img 
src="cmmi10-d.png" alt="g" class="10x-x-d" /></tspan>.</text> 
</g> 
 </g> 
 </g> 
 </g> 
 </g> 
 </g> 
 </g> 
 </g> 
 </g> 
 </g> 
 </g> 
 </g> 
 
                                                                                                                  </g> 
</svg> 
