<svg xmlns="http://www.w3.org/2000/svg" xmlns:xlink="http://www.w3.org/1999/xlink" width="111.87775pt" height="105.27515pt" viewBox="-55.93887 -45.52438 111.87775 105.27515 "> 
<g transform="translate(0, 59.75076 ) scale(1,-1) translate(0,45.52438 )"> 
                         <g> 
 <g stroke="rgb(0.0%,0.0%,0.0%)"> 
 <g fill="rgb(0.0%,0.0%,0.0%)"> 
 <g stroke-width="0.4pt"> 
 <g> 
 </g> 
 <g> 
 <g fill-opacity="0.5"> 
 <g> 
 <g stroke="rgb(100.0%,0.0%,0.0%)"> 
 <g fill="rgb(100.0%,0.0%,0.0%)"> 
 <path d=" M  0.0 28.45274 M  31.29802 28.45274 C  31.29802 45.8229 17.37016 59.75076 0.0 59.75076 C  -17.37016 59.75076 -31.29802 45.8229 -31.29802 28.45274 C  -31.29802 11.08258 -17.37016 -2.84528 0.0 -2.84528 C  17.37016 -2.84528 31.29802 11.08258 31.29802 28.45274 Z M  0.0 28.45274  " style="stroke:none"/> 
 </g> 
 </g> 
 </g> 
 <g> 
 <g stroke="rgb(0.0%,100.0%,0.0%)"> 
 <g fill="rgb(0.0%,100.0%,0.0%)"> 
 <path d=" M  -24.64085 -14.22636 M  6.65717 -14.22636 C  6.65717 3.1438 -7.27069 17.07166 -24.64085 17.07166 C  -42.01102 17.07166 -55.93887 3.1438 -55.93887 -14.22636 C  -55.93887 -31.59653 -42.01102 -45.52438 -24.64085 -45.52438 C  -7.27069 -45.52438 6.65717 -31.59653 6.65717 -14.22636 Z M  -24.64085 -14.22636  " style="stroke:none"/> 
 </g> 
 </g> 
 </g> 
 <g> 
 <g stroke="rgb(0.0%,0.0%,100.0%)"> 
 <g fill="rgb(0.0%,0.0%,100.0%)"> 
 <path d=" M  24.64085 -14.22636 M  55.93887 -14.22636 C  55.93887 3.1438 42.01102 17.07166 24.64085 17.07166 C  7.27069 17.07166 -6.65717 3.1438 -6.65717 -14.22636 C  -6.65717 -31.59653 7.27069 -45.52438 24.64085 -45.52438 C  42.01102 -45.52438 55.93887 -31.59653 55.93887 -14.22636 Z M  24.64085 -14.22636  " style="stroke:none"/> 
 </g> 
 </g> 
 </g> 
 </g> 
 </g> 
 </g> 
 </g> 
 </g> 
 </g> 
 
                                  </g> 
</svg> 
