<svg xmlns="http://www.w3.org/2000/svg" xmlns:xlink="http://www.w3.org/1999/xlink" width="46.67911pt" height="9.69046pt" viewBox="-2.0 -2.0 46.67911 9.69046 "> 
<g transform="translate(0, 7.69046 ) scale(1,-1) translate(0,2.0 )"> 
         <g> 
 <g stroke="rgb(0.0%,0.0%,0.0%)"> 
 <g fill="rgb(0.0%,0.0%,0.0%)"> 
 <g stroke-width="0.4pt"> 
 <g> 
 </g> 
 <g> 
 <g> 
 <g stroke="rgb(75.0%,75.0%,75.0%)"> 
 <g fill="rgb(75.0%,75.0%,75.0%)"> 
 <path d=" M  0.0 0.0 L  14.22636 5.69046 L  28.45274 0.0 L  42.67911 5.69046  " style="fill:none"/> 
 <g> 
 <g fill="rgb(80.0003%,80.0003%,16.00037%)"> 
 <g stroke="rgb(0.0%,0.0%,0.0%)"> 
 <g> 
 <clipPath id="pgfcp35"> <path d=" M  0.0 0.0 M  2.0 0.0 C  2.0 1.10999 1.10999 2.0 0.0 2.0 C  -1.10999 2.0 -2.0 1.10999 -2.0 0.0 C  -2.0 -1.10999 -1.10999 -2.0 0.0 -2.0 C  1.10999 -2.0 2.0 -1.10999 2.0 0.0 Z M  0.0 0.0  "/> 
</clipPath> 
 <g clip-path="url(#pgfcp35)"> 
 <g transform="matrix(1,0,0,1,0.0,0.0)"> 
 <g transform="matrix(0.08002,0,0,0.08002,0.0,0.0)"> 
 <g transform="matrix(0.0,0.0,0.0,0.0,0.0,0.0)"> 
  <radialGradient id="pgfsh36" fx="0.40001" fy="0.59999" > 
 <stop offset=" 0.0" stop-color=" rgb(85.00061%,85.00061%,100.0%) "/> 
 <stop offset=" 0.18" stop-color=" rgb(25.0%,25.0%,100.0%) "/> 
 <stop offset=" 0.35999" stop-color=" rgb(0.0%,0.0%,69.9997%) "/> 
 <stop offset=" 0.5" stop-color=" rgb(0.0%,0.0%,50.0%) "/> 
 <stop offset=" 1.0" stop-color=" rgb(0.0%,0.0%,0.0%) "/> 
 </radialGradient> 
 <g transform="translate(-50.1875,-50.1875)"> 
 <circle cx="50.1875pt" cy="50.1875pt" r="50.1875pt" style="fill:url(#pgfsh36); stroke:none"/> 
 </g> 
 </g> 
 </g> 
 </g> 
 </g> 
 </g> 
 <g> 
 <clipPath id="pgfcp37"> <path d=" M  14.22636 5.69046 M  16.22636 5.69046 C  16.22636 6.80045 15.33635 7.69046 14.22636 7.69046 C  13.11638 7.69046 12.22636 6.80045 12.22636 5.69046 C  12.22636 4.58047 13.11638 3.69046 14.22636 3.69046 C  15.33635 3.69046 16.22636 4.58047 16.22636 5.69046 Z M  14.22636 5.69046  "/> 
</clipPath> 
 <g clip-path="url(#pgfcp37)"> 
 <g transform="matrix(1,0,0,1,14.22635,5.69046)"> 
 <g transform="matrix(0.08002,0,0,0.08002,0.0,0.0)"> 
 <g transform="matrix(0.0,0.0,0.0,0.0,0.0,0.0)"> 
  <radialGradient id="pgfsh36" fx="0.40001" fy="0.59999" > 
 <stop offset=" 0.0" stop-color=" rgb(85.00061%,85.00061%,100.0%) "/> 
 <stop offset=" 0.18" stop-color=" rgb(25.0%,25.0%,100.0%) "/> 
 <stop offset=" 0.35999" stop-color=" rgb(0.0%,0.0%,69.9997%) "/> 
 <stop offset=" 0.5" stop-color=" rgb(0.0%,0.0%,50.0%) "/> 
 <stop offset=" 1.0" stop-color=" rgb(0.0%,0.0%,0.0%) "/> 
 </radialGradient> 
 <g transform="translate(-50.1875,-50.1875)"> 
 <circle cx="50.1875pt" cy="50.1875pt" r="50.1875pt" style="fill:url(#pgfsh36); stroke:none"/> 
 </g> 
 </g> 
 </g> 
 </g> 
 </g> 
 </g> 
 <g> 
 <clipPath id="pgfcp38"> <path d=" M  28.45274 0.0 M  30.45274 0.0 C  30.45274 1.10999 29.56273 2.0 28.45274 2.0 C  27.34276 2.0 26.45274 1.10999 26.45274 0.0 C  26.45274 -1.10999 27.34276 -2.0 28.45274 -2.0 C  29.56273 -2.0 30.45274 -1.10999 30.45274 0.0 Z M  28.45274 0.0  "/> 
</clipPath> 
 <g clip-path="url(#pgfcp38)"> 
 <g transform="matrix(1,0,0,1,28.45273,0.0)"> 
 <g transform="matrix(0.08002,0,0,0.08002,0.0,0.0)"> 
 <g transform="matrix(0.0,0.0,0.0,0.0,0.0,0.0)"> 
  <radialGradient id="pgfsh36" fx="0.40001" fy="0.59999" > 
 <stop offset=" 0.0" stop-color=" rgb(85.00061%,85.00061%,100.0%) "/> 
 <stop offset=" 0.18" stop-color=" rgb(25.0%,25.0%,100.0%) "/> 
 <stop offset=" 0.35999" stop-color=" rgb(0.0%,0.0%,69.9997%) "/> 
 <stop offset=" 0.5" stop-color=" rgb(0.0%,0.0%,50.0%) "/> 
 <stop offset=" 1.0" stop-color=" rgb(0.0%,0.0%,0.0%) "/> 
 </radialGradient> 
 <g transform="translate(-50.1875,-50.1875)"> 
 <circle cx="50.1875pt" cy="50.1875pt" r="50.1875pt" style="fill:url(#pgfsh36); stroke:none"/> 
 </g> 
 </g> 
 </g> 
 </g> 
 </g> 
 </g> 
 <g> 
 <clipPath id="pgfcp39"> <path d=" M  42.67911 5.69046 M  44.67911 5.69046 C  44.67911 6.80045 43.7891 7.69046 42.67911 7.69046 C  41.56912 7.69046 40.67911 6.80045 40.67911 5.69046 C  40.67911 4.58047 41.56912 3.69046 42.67911 3.69046 C  43.7891 3.69046 44.67911 4.58047 44.67911 5.69046 Z M  42.67911 5.69046  "/> 
</clipPath> 
 <g clip-path="url(#pgfcp39)"> 
 <g transform="matrix(1,0,0,1,42.67911,5.69046)"> 
 <g transform="matrix(0.08002,0,0,0.08002,0.0,0.0)"> 
 <g transform="matrix(0.0,0.0,0.0,0.0,0.0,0.0)"> 
  <radialGradient id="pgfsh36" fx="0.40001" fy="0.59999" > 
 <stop offset=" 0.0" stop-color=" rgb(85.00061%,85.00061%,100.0%) "/> 
 <stop offset=" 0.18" stop-color=" rgb(25.0%,25.0%,100.0%) "/> 
 <stop offset=" 0.35999" stop-color=" rgb(0.0%,0.0%,69.9997%) "/> 
 <stop offset=" 0.5" stop-color=" rgb(0.0%,0.0%,50.0%) "/> 
 <stop offset=" 1.0" stop-color=" rgb(0.0%,0.0%,0.0%) "/> 
 </radialGradient> 
 <g transform="translate(-50.1875,-50.1875)"> 
 <circle cx="50.1875pt" cy="50.1875pt" r="50.1875pt" style="fill:url(#pgfsh36); stroke:none"/> 
 </g> 
 </g> 
 </g> 
 </g> 
 </g> 
 </g> 
 </g> 
 </g> 
 </g> 
 </g> 
 </g> 
 </g> 
 </g> 
 </g> 
 </g> 
 </g> 
 </g> 
      </g> 
</svg> 
