<svg xmlns="http://www.w3.org/2000/svg" xmlns:xlink="http://www.w3.org/1999/xlink" width="57.30548pt" height="185.34288pt" viewBox="-0.2 -156.69014 57.30548 185.34288 "> 
<g transform="translate(0, 28.65274 ) scale(1,-1) translate(0,156.69014 )"> 
        <g> 
 <g stroke="rgb(0.0%,0.0%,0.0%)"> 
 <g fill="rgb(0.0%,0.0%,0.0%)"> 
 <g stroke-width="0.4pt"> 
 <g> 
 </g> 
 <g> 
 <path d=" M  28.45274 28.45274 C  31.61078 28.45274 56.90549 3.15804 56.90549 0.0 C  56.90549 -3.15804 31.61078 -28.45274 28.45274 -28.45274 C  25.29471 -28.45274 0.0 -3.15804 0.0 0.0 C  0.0 3.15804 25.29471 28.45274 28.45274 28.45274 Z  " style="fill:none"/> 
 <path d=" M  28.45274 -35.56595 C  36.34827 -35.56595 56.90549 -56.12317 56.90549 -64.01869 C  56.90549 -71.91422 36.34827 -92.47144 28.45274 -92.47144 C  20.55722 -92.47144 0.0 -71.91422 0.0 -64.01869 C  0.0 -56.12317 20.55722 -35.56595 28.45274 -35.56595 Z  " style="fill:none"/> 
 <path d=" M  28.45274 -99.58466 C  44.2438 -99.58466 56.90549 -112.24634 56.90549 -128.0374 C  56.90549 -143.82846 44.2438 -156.49014 28.45274 -156.49014 C  12.66168 -156.49014 0.0 -143.82846 0.0 -128.0374 C  0.0 -112.24634 12.66168 -99.58466 28.45274 -99.58466 Z  " style="fill:none"/> 
 </g> 
 </g> 
 </g> 
 </g> 
 </g> 
 
                 </g> 
</svg> 
