<svg xmlns="http://www.w3.org/2000/svg" xmlns:xlink="http://www.w3.org/1999/xlink" width="6.45831pt" height="6.45831pt" viewBox="-3.22916 -3.22916 6.45831 6.45831 "> 
<g transform="translate(0, 3.22916 ) scale(1,-1) translate(0,3.22916 )"> 
         <g> 
 <g stroke="rgb(0.0%,0.0%,0.0%)"> 
 <g fill="rgb(0.0%,0.0%,0.0%)"> 
 <g stroke-width="0.4pt"> 
 <g> 
 </g> 
 <g> 
 <g> 
 <clipPath id="pgfcp42"> <path d=" M  0.0 0.0 M  3.22916 0.0 C  3.22916 1.79214 1.79214 3.22916 0.0 3.22916 C  -1.79214 3.22916 -3.22916 1.79214 -3.22916 0.0 C  -3.22916 -1.79214 -1.79214 -3.22916 0.0 -3.22916 C  1.79214 -3.22916 3.22916 -1.79214 3.22916 0.0 Z M  0.0 0.0  "/> 
</clipPath> 
 <g clip-path="url(#pgfcp42)"> 
 <g transform="matrix(1,0,0,1,0.0,0.0)"> 
 <g transform="matrix(0.12918,0,0,0.12918,0.0,0.0)"> 
 <g transform="matrix(0.0,0.0,0.0,0.0,0.0,0.0)"> 
  <radialGradient id="pgfsh36" fx="0.40001" fy="0.59999" > 
 <stop offset=" 0.0" stop-color=" rgb(85.00061%,85.00061%,100.0%) "/> 
 <stop offset=" 0.18" stop-color=" rgb(25.0%,25.0%,100.0%) "/> 
 <stop offset=" 0.35999" stop-color=" rgb(0.0%,0.0%,69.9997%) "/> 
 <stop offset=" 0.5" stop-color=" rgb(0.0%,0.0%,50.0%) "/> 
 <stop offset=" 1.0" stop-color=" rgb(0.0%,0.0%,0.0%) "/> 
 </radialGradient> 
 <g transform="translate(-50.1875,-50.1875)"> 
 <circle cx="50.1875pt" cy="50.1875pt" r="50.1875pt" style="fill:url(#pgfsh36); stroke:none"/> 
 </g> 
 </g> 
 </g> 
 </g> 
 </g> 
 </g> 
 </g> 
 </g> 
 </g> 
 </g> 
 </g> 
  </g> 
</svg> 
