<svg xmlns="http://www.w3.org/2000/svg" xmlns:xlink="http://www.w3.org/1999/xlink" width="85.75821pt" height="85.75821pt" viewBox="-42.8791 -42.8791 85.75821 85.75821 "> 
<g transform="translate(0, 42.8791 ) scale(1,-1) translate(0,42.8791 )"> 
                     <g> 
 <g stroke="rgb(0.0%,0.0%,0.0%)"> 
 <g fill="rgb(0.0%,0.0%,0.0%)"> 
 <g stroke-width="0.4pt"> 
 <g> 
 </g> 
 <g> 
 <path d=" M  -42.67911 0.0 L  42.67911 0.0  " style="fill:none"/> 
 <path d=" M  0.0 -42.67911 L  0.0 42.67911  " style="fill:none"/> 
 <path d=" M  0.0 0.0 M  28.45274 0.0 C  28.45274 15.79106 15.79106 28.45274 0.0 28.45274 C  -15.79106 28.45274 -28.45274 15.79106 -28.45274 0.0 C  -28.45274 -15.79106 -15.79106 -28.45274 0.0 -28.45274 C  15.79106 -28.45274 28.45274 -15.79106 28.45274 0.0 Z M  0.0 0.0  " style="fill:none"/> 
 <path d=" M  0.0 0.0 M  0.0 0.0 L  0.0 14.22636 L  14.22636 14.22636 L  14.22636 0.0 Z M  14.22636 14.22636  " style="fill:none"/> 
 <path d=" M  -14.22636 -14.22636 M  -14.22636 -14.22636 L  -14.22636 -28.45274 L  -28.45274 -28.45274 L  -28.45274 -14.22636 Z M  -28.45274 -28.45274  " style="fill:none"/> 
 </g> 
 </g> 
 </g> 
 </g> 
 </g> 
 
                          </g> 
</svg> 
