<svg xmlns="http://www.w3.org/2000/svg" xmlns:xlink="http://www.w3.org/1999/xlink" width="105.2446pt" height="98.13142pt" viewBox="-55.25122 -90.81721 105.2446 98.13142 "> 
<g transform="translate(0, 7.31421 ) scale(1,-1) translate(0,90.81721 )"> 
                         <g> 
 <g stroke="rgb(0.0%,0.0%,0.0%)"> 
 <g fill="rgb(0.0%,0.0%,0.0%)"> 
 <g stroke-width="0.4pt"> 
 <g> 
 </g> 
 <g> 
 <g> 
 <g fill="rgb(100.0%,39.99939%,39.99939%)"> 
 <g> 
 <g fill="rgb(100.0%,39.99939%,39.99939%)"> 
 <path d=" M  7.31421 0.0 C  7.31421 4.05933 4.05933 7.31421 0.0 7.31421 C  -4.05933 7.31421 -7.31421 4.05933 -7.31421 0.0 C  -7.31421 -4.05933 -4.05933 -7.31421 0.0 -7.31421 C  4.05933 -7.31421 7.31421 -4.05933 7.31421 0.0 Z M  0.0 0.0  " style="stroke:none"/> 
 </g> 
 </g> 
 <g> 
 <g transform="matrix(1.0,0.0,0.0,1.0,-5.00002,-3.22221)"> 
 <g fill="rgb(0.0%,0.0%,0.0%)"> 
 <text style="stroke:none" transform="scale(1,-1) translate(5.00002,0)" text-anchor="middle"  font-size="10"> 
31</text> 
</g> 
 </g> 
 </g> 
 </g> 
 </g> 
 <g> 
 <g> 
 <g fill="rgb(100.0%,39.99939%,39.99939%)"> 
 <g fill="rgb(100.0%,55.0003%,55.0003%)"> 
 <g> 
 <g fill="rgb(100.0%,39.99939%,39.99939%)"> 
 <g fill="rgb(100.0%,55.0003%,55.0003%)"> 
 <path d=" M  -21.13852 -28.45274 C  -21.13852 -24.39342 -24.3934 -21.13853 -28.45273 -21.13853 C  -32.51205 -21.13853 -35.76694 -24.39342 -35.76694 -28.45274 C  -35.76694 -32.51207 -32.51205 -35.76695 -28.45273 -35.76695 C  -24.3934 -35.76695 -21.13852 -32.51207 -21.13852 -28.45274 Z M  -28.45273 -28.45274  " style="stroke:none"/> 
 </g> 
 </g> 
 </g> 
 <g> 
 <g transform="matrix(1.0,0.0,0.0,1.0,-33.45274,-31.67496)"> 
 <g fill="rgb(0.0%,0.0%,0.0%)"> 
 <text style="stroke:none" transform="scale(1,-1) translate(5.00002,0)" text-anchor="middle"  font-size="10"> 
30</text> 
</g> 
 </g> 
 </g> 
 </g> 
 </g> 
 </g> 
 <path d=" M  -28.45273 -28.45274 M  -5.31357 -5.31334 L  -23.13927 -23.1394  " style="fill:none"/> 
 <g> 
 <g> 
 <g fill="rgb(100.0%,39.99939%,39.99939%)"> 
 <g fill="rgb(100.0%,55.0003%,55.0003%)"> 
 <g fill="rgb(100.0%,69.9997%,69.9997%)"> 
 <g> 
 <g fill="rgb(100.0%,39.99939%,39.99939%)"> 
 <g fill="rgb(100.0%,55.0003%,55.0003%)"> 
 <g fill="rgb(100.0%,69.9997%,69.9997%)"> 
 <path d=" M  -35.36487 -56.90549 C  -35.36487 -52.84616 -38.61975 -49.59128 -42.67908 -49.59128 C  -46.7384 -49.59128 -49.99329 -52.84616 -49.99329 -56.90549 C  -49.99329 -60.96481 -46.7384 -64.2197 -42.67908 -64.2197 C  -38.61975 -64.2197 -35.36487 -60.96481 -35.36487 -56.90549 Z M  -42.67908 -56.90549  " style="stroke:none"/> 
 </g> 
 </g> 
 </g> 
 </g> 
 <g> 
 <g transform="matrix(1.0,0.0,0.0,1.0,-47.6791,-60.1277)"> 
 <g fill="rgb(0.0%,0.0%,0.0%)"> 
 <text style="stroke:none" transform="scale(1,-1) translate(5.00002,0)" text-anchor="middle"  font-size="10"> 
20</text> 
</g> 
 </g> 
 </g> 
 </g> 
 </g> 
 </g> 
 </g> 
 <path d=" M  -42.67908 -56.90549 M  -31.82664 -35.20045 L  -39.3187 -50.1846  " style="fill:none"/> 
 <g> 
 <g> 
 <g fill="rgb(100.0%,39.99939%,39.99939%)"> 
 <g fill="rgb(100.0%,55.0003%,55.0003%)"> 
 <g fill="rgb(100.0%,69.9997%,69.9997%)"> 
 <g fill="rgb(100.0%,85.00061%,85.00061%)"> 
 <g> 
 <g fill="rgb(100.0%,39.99939%,39.99939%)"> 
 <g fill="rgb(100.0%,55.0003%,55.0003%)"> 
 <g fill="rgb(100.0%,69.9997%,69.9997%)"> 
 <g fill="rgb(100.0%,85.00061%,85.00061%)"> 
 <path d=" M  -44.33325 -85.35823 C  -44.33325 -82.32854 -46.76254 -79.89925 -49.79224 -79.89925 C  -52.82193 -79.89925 -55.25122 -82.32854 -55.25122 -85.35823 C  -55.25122 -88.38792 -52.82193 -90.81721 -49.79224 -90.81721 C  -46.76254 -90.81721 -44.33325 -88.38792 -44.33325 -85.35823 Z M  -49.79224 -85.35823  " style="stroke:none"/> 
 </g> 
 </g> 
 </g> 
 </g> 
 </g> 
 <g> 
 <g transform="matrix(1.0,0.0,0.0,1.0,-52.29224,-88.58044)"> 
 <g fill="rgb(0.0%,0.0%,0.0%)"> 
 <text style="stroke:none" transform="scale(1,-1) translate(2.5,0)" text-anchor="middle"  font-size="10"> 
5</text> 
</g> 
 </g> 
 </g> 
 </g> 
 </g> 
 </g> 
 </g> 
 </g> 
 <path d=" M  -44.50568 -64.21216 L  -48.41989 -79.86824  " style="fill:none"/> 
 </g> 
 <g> 
 <g> 
 <g fill="rgb(100.0%,39.99939%,39.99939%)"> 
 <g fill="rgb(100.0%,55.0003%,55.0003%)"> 
 <g fill="rgb(100.0%,69.9997%,69.9997%)"> 
 <g fill="rgb(100.0%,85.00061%,85.00061%)"> 
 <g> 
 <g fill="rgb(100.0%,39.99939%,39.99939%)"> 
 <g fill="rgb(100.0%,55.0003%,55.0003%)"> 
 <g fill="rgb(100.0%,69.9997%,69.9997%)"> 
 <g fill="rgb(100.0%,85.00061%,85.00061%)"> 
 <path d=" M  -30.10689 -85.35823 C  -30.10689 -82.32854 -32.53618 -79.89925 -35.56587 -79.89925 C  -38.59557 -79.89925 -41.02486 -82.32854 -41.02486 -85.35823 C  -41.02486 -88.38792 -38.59557 -90.81721 -35.56587 -90.81721 C  -32.53618 -90.81721 -30.10689 -88.38792 -30.10689 -85.35823 Z M  -35.56587 -85.35823  " style="stroke:none"/> 
 </g> 
 </g> 
 </g> 
 </g> 
 </g> 
 <g> 
 <g transform="matrix(1.0,0.0,0.0,1.0,-38.06587,-88.58044)"> 
 <g fill="rgb(0.0%,0.0%,0.0%)"> 
 <text style="stroke:none" transform="scale(1,-1) translate(2.5,0)" text-anchor="middle"  font-size="10"> 
4</text> 
</g> 
 </g> 
 </g> 
 </g> 
 </g> 
 </g> 
 </g> 
 </g> 
 <path d=" M  -40.85248 -64.21216 L  -36.93822 -79.86824  " style="fill:none"/> 
 </g> 
 </g> 
 <g> 
 <g> 
 <g fill="rgb(100.0%,39.99939%,39.99939%)"> 
 <g fill="rgb(100.0%,55.0003%,55.0003%)"> 
 <g fill="rgb(100.0%,69.9997%,69.9997%)"> 
 <g> 
 <g fill="rgb(100.0%,39.99939%,39.99939%)"> 
 <g fill="rgb(100.0%,55.0003%,55.0003%)"> 
 <g fill="rgb(100.0%,69.9997%,69.9997%)"> 
 <path d=" M  -6.91212 -56.90549 C  -6.91212 -52.84616 -10.167 -49.59128 -14.22633 -49.59128 C  -18.28566 -49.59128 -21.54054 -52.84616 -21.54054 -56.90549 C  -21.54054 -60.96481 -18.28566 -64.2197 -14.22633 -64.2197 C  -10.167 -64.2197 -6.91212 -60.96481 -6.91212 -56.90549 Z M  -14.22633 -56.90549  " style="stroke:none"/> 
 </g> 
 </g> 
 </g> 
 </g> 
 <g> 
 <g transform="matrix(1.0,0.0,0.0,1.0,-19.22635,-60.1277)"> 
 <g fill="rgb(0.0%,0.0%,0.0%)"> 
 <text style="stroke:none" transform="scale(1,-1) translate(5.00002,0)" text-anchor="middle"  font-size="10"> 
10</text> 
</g> 
 </g> 
 </g> 
 </g> 
 </g> 
 </g> 
 </g> 
 <path d=" M  -14.22633 -56.90549 M  -25.07881 -35.20045 L  -17.58672 -50.1846  " style="fill:none"/> 
 <g> 
 <g> 
 <g fill="rgb(100.0%,39.99939%,39.99939%)"> 
 <g fill="rgb(100.0%,55.0003%,55.0003%)"> 
 <g fill="rgb(100.0%,69.9997%,69.9997%)"> 
 <g fill="rgb(100.0%,85.00061%,85.00061%)"> 
 <g> 
 <g fill="rgb(100.0%,39.99939%,39.99939%)"> 
 <g fill="rgb(100.0%,55.0003%,55.0003%)"> 
 <g fill="rgb(100.0%,69.9997%,69.9997%)"> 
 <g fill="rgb(100.0%,85.00061%,85.00061%)"> 
 <path d=" M  -15.88051 -85.35823 C  -15.88051 -82.32854 -18.3098 -79.89925 -21.3395 -79.89925 C  -24.36919 -79.89925 -26.79848 -82.32854 -26.79848 -85.35823 C  -26.79848 -88.38792 -24.36919 -90.81721 -21.3395 -90.81721 C  -18.3098 -90.81721 -15.88051 -88.38792 -15.88051 -85.35823 Z M  -21.3395 -85.35823  " style="stroke:none"/> 
 </g> 
 </g> 
 </g> 
 </g> 
 </g> 
 <g> 
 <g transform="matrix(1.0,0.0,0.0,1.0,-23.8395,-88.58044)"> 
 <g fill="rgb(0.0%,0.0%,0.0%)"> 
 <text style="stroke:none" transform="scale(1,-1) translate(2.5,0)" text-anchor="middle"  font-size="10"> 
9</text> 
</g> 
 </g> 
 </g> 
 </g> 
 </g> 
 </g> 
 </g> 
 </g> 
 <path d=" M  -16.05293 -64.21216 L  -19.96715 -79.86824  " style="fill:none"/> 
 </g> 
 <g> 
 <g> 
 <g fill="rgb(100.0%,39.99939%,39.99939%)"> 
 <g fill="rgb(100.0%,55.0003%,55.0003%)"> 
 <g fill="rgb(100.0%,69.9997%,69.9997%)"> 
 <g fill="rgb(100.0%,85.00061%,85.00061%)"> 
 <g> 
 <g fill="rgb(100.0%,39.99939%,39.99939%)"> 
 <g fill="rgb(100.0%,55.0003%,55.0003%)"> 
 <g fill="rgb(100.0%,69.9997%,69.9997%)"> 
 <g fill="rgb(100.0%,85.00061%,85.00061%)"> 
 <path d=" M  -1.65414 -85.35823 C  -1.65414 -82.32854 -4.08344 -79.89925 -7.11313 -79.89925 C  -10.14282 -79.89925 -12.57211 -82.32854 -12.57211 -85.35823 C  -12.57211 -88.38792 -10.14282 -90.81721 -7.11313 -90.81721 C  -4.08344 -90.81721 -1.65414 -88.38792 -1.65414 -85.35823 Z M  -7.11313 -85.35823  " style="stroke:none"/> 
 </g> 
 </g> 
 </g> 
 </g> 
 </g> 
 <g> 
 <g transform="matrix(1.0,0.0,0.0,1.0,-9.61313,-88.58044)"> 
 <g fill="rgb(0.0%,0.0%,0.0%)"> 
 <text style="stroke:none" transform="scale(1,-1) translate(2.5,0)" text-anchor="middle"  font-size="10"> 
1</text> 
</g> 
 </g> 
 </g> 
 </g> 
 </g> 
 </g> 
 </g> 
 </g> 
 <path d=" M  -12.39973 -64.21216 L  -8.48547 -79.86824  " style="fill:none"/> 
 </g> 
 </g> 
 </g> 
 <g> 
 <g> 
 <g fill="rgb(100.0%,39.99939%,39.99939%)"> 
 <g fill="rgb(100.0%,55.0003%,55.0003%)"> 
 <g> 
 <g fill="rgb(100.0%,39.99939%,39.99939%)"> 
 <g fill="rgb(100.0%,55.0003%,55.0003%)"> 
 <path d=" M  35.76698 -28.45274 C  35.76698 -24.39342 32.5121 -21.13853 28.45277 -21.13853 C  24.39345 -21.13853 21.13857 -24.39342 21.13857 -28.45274 C  21.13857 -32.51207 24.39345 -35.76695 28.45277 -35.76695 C  32.5121 -35.76695 35.76698 -32.51207 35.76698 -28.45274 Z M  28.45277 -28.45274  " style="stroke:none"/> 
 </g> 
 </g> 
 </g> 
 <g> 
 <g transform="matrix(1.0,0.0,0.0,1.0,23.45276,-31.67496)"> 
 <g fill="rgb(0.0%,0.0%,0.0%)"> 
 <text style="stroke:none" transform="scale(1,-1) translate(5.00002,0)" text-anchor="middle"  font-size="10"> 
20</text> 
</g> 
 </g> 
 </g> 
 </g> 
 </g> 
 </g> 
 <path d=" M  28.45277 -28.45274 M  5.31334 -5.31357 L  23.13943 -23.13928  " style="fill:none"/> 
 <g> 
 <g> 
 <g fill="rgb(100.0%,39.99939%,39.99939%)"> 
 <g fill="rgb(100.0%,55.0003%,55.0003%)"> 
 <g fill="rgb(100.0%,69.9997%,69.9997%)"> 
 <g> 
 <g fill="rgb(100.0%,39.99939%,39.99939%)"> 
 <g fill="rgb(100.0%,55.0003%,55.0003%)"> 
 <g fill="rgb(100.0%,69.9997%,69.9997%)"> 
 <path d=" M  21.54063 -56.90549 C  21.54063 -52.84616 18.28575 -49.59128 14.22643 -49.59128 C  10.1671 -49.59128 6.91222 -52.84616 6.91222 -56.90549 C  6.91222 -60.96481 10.1671 -64.2197 14.22643 -64.2197 C  18.28575 -64.2197 21.54063 -60.96481 21.54063 -56.90549 Z M  14.22643 -56.90549  " style="stroke:none"/> 
 </g> 
 </g> 
 </g> 
 </g> 
 <g> 
 <g transform="matrix(1.0,0.0,0.0,1.0,9.22641,-60.1277)"> 
 <g fill="rgb(0.0%,0.0%,0.0%)"> 
 <text style="stroke:none" transform="scale(1,-1) translate(5.00002,0)" text-anchor="middle"  font-size="10"> 
19</text> 
</g> 
 </g> 
 </g> 
 </g> 
 </g> 
 </g> 
 </g> 
 <path d=" M  14.22643 -56.90549 M  25.07886 -35.20045 L  17.5868 -50.1846  " style="fill:none"/> 
 <g> 
 <g> 
 <g fill="rgb(100.0%,39.99939%,39.99939%)"> 
 <g fill="rgb(100.0%,55.0003%,55.0003%)"> 
 <g fill="rgb(100.0%,69.9997%,69.9997%)"> 
 <g fill="rgb(100.0%,85.00061%,85.00061%)"> 
 <g> 
 <g fill="rgb(100.0%,39.99939%,39.99939%)"> 
 <g fill="rgb(100.0%,55.0003%,55.0003%)"> 
 <g fill="rgb(100.0%,69.9997%,69.9997%)"> 
 <g fill="rgb(100.0%,85.00061%,85.00061%)"> 
 <path d=" M  12.57225 -85.35823 C  12.57225 -82.32854 10.14296 -79.89925 7.11327 -79.89925 C  4.08357 -79.89925 1.65428 -82.32854 1.65428 -85.35823 C  1.65428 -88.38792 4.08357 -90.81721 7.11327 -90.81721 C  10.14296 -90.81721 12.57225 -88.38792 12.57225 -85.35823 Z M  7.11327 -85.35823  " style="stroke:none"/> 
 </g> 
 </g> 
 </g> 
 </g> 
 </g> 
 <g> 
 <g transform="matrix(1.0,0.0,0.0,1.0,4.61327,-88.58044)"> 
 <g fill="rgb(0.0%,0.0%,0.0%)"> 
 <text style="stroke:none" transform="scale(1,-1) translate(2.5,0)" text-anchor="middle"  font-size="10"> 
1</text> 
</g> 
 </g> 
 </g> 
 </g> 
 </g> 
 </g> 
 </g> 
 </g> 
 <path d=" M  12.39983 -64.21216 L  8.48561 -79.86824  " style="fill:none"/> 
 </g> 
 <g> 
 <g> 
 <g fill="rgb(100.0%,39.99939%,39.99939%)"> 
 <g fill="rgb(100.0%,55.0003%,55.0003%)"> 
 <g fill="rgb(100.0%,69.9997%,69.9997%)"> 
 <g fill="rgb(100.0%,85.00061%,85.00061%)"> 
 </g> 
 </g> 
 </g> 
 </g> 
 </g> 
 </g> 
 </g> 
 <g> 
 <g> 
 <g fill="rgb(100.0%,39.99939%,39.99939%)"> 
 <g fill="rgb(100.0%,55.0003%,55.0003%)"> 
 <g fill="rgb(100.0%,69.9997%,69.9997%)"> 
 <g> 
 <g fill="rgb(100.0%,39.99939%,39.99939%)"> 
 <g fill="rgb(100.0%,55.0003%,55.0003%)"> 
 <g fill="rgb(100.0%,69.9997%,69.9997%)"> 
 <path d=" M  49.99338 -56.90549 C  49.99338 -52.84616 46.7385 -49.59128 42.67917 -49.59128 C  38.61984 -49.59128 35.36496 -52.84616 35.36496 -56.90549 C  35.36496 -60.96481 38.61984 -64.2197 42.67917 -64.2197 C  46.7385 -64.2197 49.99338 -60.96481 49.99338 -56.90549 Z M  42.67917 -56.90549  " style="stroke:none"/> 
 </g> 
 </g> 
 </g> 
 </g> 
 <g> 
 <g transform="matrix(1.0,0.0,0.0,1.0,37.67915,-60.1277)"> 
 <g fill="rgb(0.0%,0.0%,0.0%)"> 
 <text style="stroke:none" transform="scale(1,-1) translate(5.00002,0)" text-anchor="middle"  font-size="10"> 
18</text> 
</g> 
 </g> 
 </g> 
 </g> 
 </g> 
 </g> 
 </g> 
 <path d=" M  31.82669 -35.20045 L  39.31879 -50.1846  " style="fill:none"/> 
 </g> 
 </g> 
 </g> 
 </g> 
 </g> 
 </g> 
 </g> 
 
                                </g> 
</svg> 
