<svg xmlns="http://www.w3.org/2000/svg" xmlns:xlink="http://www.w3.org/1999/xlink" width="344.94086pt" height="75.55493pt" viewBox="-2.5 -67.77751 344.94086 75.55493 "> 
<g transform="translate(0, 7.77742 ) scale(1,-1) translate(0,67.77751 )"> 
         <g> 
 <g stroke="rgb(0.0%,0.0%,0.0%)"> 
 <g fill="rgb(0.0%,0.0%,0.0%)"> 
 <g stroke-width="0.4pt"> 
 <g> 
 </g> 
 <g> 
 <g> 
 <g stroke-width="0.1pt"> 
 <path d=" M  0.0 0.0 L  82.56825 0.0  " style="fill:none"/> 
 <g> 
 <g transform="matrix(1.0,0.0,0.0,1.0,82.56825,0.0)"> 
 <g> 
 <path d=" M  2.78998 0.0 C  1.9633 0.155 0.62 0.62 -0.31 1.16249 L  -0.31 -1.16249 C  0.62 -0.62 1.9633 -0.155 2.78998 0.0  " style="stroke:none"/> 
 </g> 
 </g> 
 </g> 
 <g> 
 <g stroke-width="0.4pt"> 
 <g> 
 <g stroke-width="0.4pt"> 
 </g> 
 </g> 
 <g> 
 <g transform="matrix(1.0,0.0,0.0,1.0,88.8912,-2.5)"> 
 <g fill="rgb(0.0%,0.0%,0.0%)"> 
 <text style="stroke:none" transform="scale(1,-1) translate(39.75008,0)" text-anchor="middle"  font-size="10"> 
line width is 0.1pt</text> 
</g> 
 </g> 
 </g> 
 </g> 
 </g> 
 </g> 
 </g> 
 <g> 
 <g stroke-width="0.4pt"> 
 <path d=" M  0.0 -20.00003 L  81.75829 -20.00003  " style="fill:none"/> 
 <g> 
 <g transform="matrix(1.0,0.0,0.0,1.0,81.75829,-20.00003)"> 
 <g> 
 <path d=" M  3.59995 0.0 C  2.53328 0.2 0.79999 0.79999 -0.4 1.49997 L  -0.4 -1.49997 C  0.79999 -0.79999 2.53328 -0.2 3.59995 0.0  " style="stroke:none"/> 
 </g> 
 </g> 
 </g> 
 <g> 
 <g stroke-width="0.4pt"> 
 <g> 
 <g stroke-width="0.4pt"> 
 </g> 
 </g> 
 <g> 
 <g transform="matrix(1.0,0.0,0.0,1.0,88.8912,-22.50003)"> 
 <g fill="rgb(0.0%,0.0%,0.0%)"> 
 <text style="stroke:none" transform="scale(1,-1) translate(39.75008,0)" text-anchor="middle"  font-size="10"> 
line width is 0.4pt</text> 
</g> 
 </g> 
 </g> 
 </g> 
 </g> 
 </g> 
 </g> 
 <g> 
 <g stroke-width="1.2pt"> 
 <path d=" M  0.0 -40.00006 L  79.59824 -40.00006  " style="fill:none"/> 
 <g> 
 <g transform="matrix(1.0,0.0,0.0,1.0,79.59824,-40.00006)"> 
 <g> 
 <path d=" M  5.76 0.0 C  4.0533 0.31999 1.28 1.28 -0.64 2.4 L  -0.64 -2.4 C  1.28 -1.28 4.0533 -0.31999 5.76 0.0  " style="stroke:none"/> 
 </g> 
 </g> 
 </g> 
 <g> 
 <g stroke-width="0.4pt"> 
 <g> 
 <g stroke-width="0.4pt"> 
 </g> 
 </g> 
 <g> 
 <g transform="matrix(1.0,0.0,0.0,1.0,88.8912,-42.50006)"> 
 <g fill="rgb(0.0%,0.0%,0.0%)"> 
 <text style="stroke:none" transform="scale(1,-1) translate(39.75008,0)" text-anchor="middle"  font-size="10"> 
line width is 1.2pt</text> 
</g> 
 </g> 
 </g> 
 </g> 
 </g> 
 </g> 
 </g> 
 <g> 
 <g stroke-width="5.0pt"> 
 <path d=" M  0.0 -60.00009 L  69.3381 -60.00009  " style="fill:none"/> 
 <g> 
 <g transform="matrix(1.0,0.0,0.0,1.0,69.3381,-60.00009)"> 
 <g> 
 <path d=" M  16.02013 0.0 C  11.27335 0.89 3.56003 3.56003 -1.78001 6.67505 L  -1.78001 -6.67505 C  3.56003 -3.56003 11.27335 -0.89 16.02013 0.0  " style="stroke:none"/> 
 </g> 
 </g> 
 </g> 
 <g> 
 <g stroke-width="0.4pt"> 
 <g> 
 <g stroke-width="0.4pt"> 
 </g> 
 </g> 
 <g> 
 <g transform="matrix(1.0,0.0,0.0,1.0,88.8912,-62.50009)"> 
 <g fill="rgb(0.0%,0.0%,0.0%)"> 
 <text style="stroke:none" transform="scale(1,-1) translate(35.86118,0)" text-anchor="middle"  font-size="10"> 
line width is 5pt</text> 
</g> 
 </g> 
 </g> 
 </g> 
 </g> 
 </g> 
 </g> 
 <g> 
 <g stroke-width="0.1pt"> 
 <path d=" M  170.71652 0.0 L  255.80225 0.0  " style="fill:none"/> 
 <g> 
 <g transform="matrix(1.0,0.0,0.0,1.0,255.80225,0.0)"> 
 <g> 
 <g stroke-width="0.08pt"> 
 <g stroke-dasharray="none" stroke-dashoffset="0.0pt"> 
 <g stroke-linecap="round"> 
 <g stroke-linejoin="round"> 
 <path d=" M  -0.93 1.23999 C  -0.8525 0.775 0.0 0.0775 0.2325 0.0 C  0.0 -0.0775 -0.8525 -0.775 -0.93 -1.23999  " style="fill:none"/> 
 </g> 
 </g> 
 </g> 
 </g> 
 </g> 
 </g> 
 </g> 
 <g> 
 <g stroke-width="0.4pt"> 
 <g> 
 <g stroke-width="0.4pt"> 
 </g> 
 </g> 
 <g> 
 <g transform="matrix(1.0,0.0,0.0,1.0,259.60773,-2.5)"> 
 <g fill="rgb(0.0%,0.0%,0.0%)"> 
 <text style="stroke:none" transform="scale(1,-1) translate(39.75008,0)" text-anchor="middle"  font-size="10"> 
line width is 0.1pt</text> 
</g> 
 </g> 
 </g> 
 </g> 
 </g> 
 </g> 
 </g> 
 <g> 
 <g stroke-width="0.4pt"> 
 <path d=" M  170.71652 -20.00003 L  255.61476 -20.00003  " style="fill:none"/> 
 <g> 
 <g transform="matrix(1.0,0.0,0.0,1.0,255.61476,-20.00003)"> 
 <g> 
 <g stroke-width="0.31999pt"> 
 <g stroke-dasharray="none" stroke-dashoffset="0.0pt"> 
 <g stroke-linecap="round"> 
 <g stroke-linejoin="round"> 
 <path d=" M  -1.19998 1.59998 C  -1.09998 0.99998 0.0 0.09999 0.29999 0.0 C  0.0 -0.09999 -1.09998 -0.99998 -1.19998 -1.59998  " style="fill:none"/> 
 </g> 
 </g> 
 </g> 
 </g> 
 </g> 
 </g> 
 </g> 
 <g> 
 <g stroke-width="0.4pt"> 
 <g> 
 <g stroke-width="0.4pt"> 
 </g> 
 </g> 
 <g> 
 <g transform="matrix(1.0,0.0,0.0,1.0,259.60773,-22.50003)"> 
 <g fill="rgb(0.0%,0.0%,0.0%)"> 
 <text style="stroke:none" transform="scale(1,-1) translate(39.75008,0)" text-anchor="middle"  font-size="10"> 
line width is 0.4pt</text> 
</g> 
 </g> 
 </g> 
 </g> 
 </g> 
 </g> 
 </g> 
 <g> 
 <g stroke-width="1.2pt"> 
 <path d=" M  170.71652 -40.00006 L  255.11476 -40.00006  " style="fill:none"/> 
 <g> 
 <g transform="matrix(1.0,0.0,0.0,1.0,255.11476,-40.00006)"> 
 <g> 
 <g stroke-width="0.95999pt"> 
 <g stroke-dasharray="none" stroke-dashoffset="0.0pt"> 
 <g stroke-linecap="round"> 
 <g stroke-linejoin="round"> 
 <path d=" M  -1.92 2.56 C  -1.76 1.59999 0.0 0.15999 0.48 0.0 C  0.0 -0.15999 -1.76 -1.59999 -1.92 -2.56  " style="fill:none"/> 
 </g> 
 </g> 
 </g> 
 </g> 
 </g> 
 </g> 
 </g> 
 <g> 
 <g stroke-width="0.4pt"> 
 <g> 
 <g stroke-width="0.4pt"> 
 </g> 
 </g> 
 <g> 
 <g transform="matrix(1.0,0.0,0.0,1.0,259.60773,-42.50006)"> 
 <g fill="rgb(0.0%,0.0%,0.0%)"> 
 <text style="stroke:none" transform="scale(1,-1) translate(39.75008,0)" text-anchor="middle"  font-size="10"> 
line width is 1.2pt</text> 
</g> 
 </g> 
 </g> 
 </g> 
 </g> 
 </g> 
 </g> 
 <g> 
 <g stroke-width="5.0pt"> 
 <path d=" M  170.71652 -60.00009 L  252.73975 -60.00009  " style="fill:none"/> 
 <g> 
 <g transform="matrix(1.0,0.0,0.0,1.0,252.73975,-60.00009)"> 
 <g> 
 <g stroke-width="4.00002pt"> 
 <g stroke-dasharray="none" stroke-dashoffset="0.0pt"> 
 <g stroke-linecap="round"> 
 <g stroke-linejoin="round"> 
 <path d=" M  -5.34004 7.12006 C  -4.89503 4.45003 0.0 0.44499 1.335 0.0 C  0.0 -0.44499 -4.89503 -4.45003 -5.34004 -7.12006  " style="fill:none"/> 
 </g> 
 </g> 
 </g> 
 </g> 
 </g> 
 </g> 
 </g> 
 <g> 
 <g stroke-width="0.4pt"> 
 <g> 
 <g stroke-width="0.4pt"> 
 </g> 
 </g> 
 <g> 
 <g transform="matrix(1.0,0.0,0.0,1.0,259.60773,-62.50009)"> 
 <g fill="rgb(0.0%,0.0%,0.0%)"> 
 <text style="stroke:none" transform="scale(1,-1) translate(35.86118,0)" text-anchor="middle"  font-size="10"> 
line width is 5pt</text> 
</g> 
 </g> 
 </g> 
 </g> 
 </g> 
 </g> 
 </g> 
 </g> 
 </g> 
 </g> 
 </g> 
 </g> 
 
                                                                                                       </g> 
</svg> 
