<svg xmlns="http://www.w3.org/2000/svg" xmlns:xlink="http://www.w3.org/1999/xlink" width="74.94632pt" height="61.89008pt" viewBox="-33.94212 -55.28171 74.94632 61.89008 "> 
<g transform="translate(0, 6.60837 ) scale(1,-1) translate(0,55.28171 )"> 
                  <g> 
 <g stroke="rgb(0.0%,0.0%,0.0%)"> 
 <g fill="rgb(0.0%,0.0%,0.0%)"> 
 <g stroke-width="0.4pt"> 
 <g> 
 </g> 
 <g> 
 <g> 
 <path d=" M  -12.37466 -6.40837 h  24.74933 v  12.81674 h  -24.74933 Z  " style="fill:none"/> 
 <g> 
 <g transform="matrix(1.0,0.0,0.0,1.0,-9.04169,-3.0754)"> 
 <g fill="rgb(0.0%,0.0%,0.0%)"> 
 <text style="stroke:none" transform="scale(1,-1) translate(9.04169,0)" text-anchor="middle"  font-size="10"> 
root</text> 
</g> 
 </g> 
 </g> 
 </g> 
 <g> 
 <g> 
 <path d=" M  -8.93695 -42.67912 C  -8.93695 -35.79579 -14.4562 -30.27654 -21.33954 -30.27654 C  -28.22287 -30.27654 -33.74213 -35.79579 -33.74213 -42.67912 C  -33.74213 -49.56245 -28.22287 -55.08171 -21.33954 -55.08171 C  -14.4562 -55.08171 -8.93695 -49.56245 -8.93695 -42.67912 Z M  -21.33954 -42.67912  " style="fill:none"/> 
 <g> 
 <g transform="matrix(1.0,0.0,0.0,1.0,-28.42288,-46.15134)"> 
 <g fill="rgb(0.0%,0.0%,0.0%)"> 
 <text style="stroke:none" transform="scale(1,-1) translate(7.08334,0)" text-anchor="middle"  font-size="10"> 
left</text> 
</g> 
 </g> 
 </g> 
 </g> 
 <path d=" M  -3.30307 -6.60837 L  -15.70361 -31.40707  " style="fill:none"/> 
 </g> 
 <g> 
 <g> 
 <path d=" M  40.8042 -42.67912 C  40.8042 -36.57481 32.14229 -31.6802 21.33958 -31.6802 C  10.53688 -31.6802 1.87497 -36.57481 1.87497 -42.67912 C  1.87497 -48.78343 10.53688 -53.67804 21.33958 -53.67804 C  32.14229 -53.67804 40.8042 -48.78343 40.8042 -42.67912 Z M  21.33958 -42.67912  " style="fill:none"/> 
 <g> 
 <g transform="matrix(1.0,0.0,0.0,1.0,10.90901,-45.17912)"> 
 <g fill="rgb(0.0%,0.0%,0.0%)"> 
 <text style="stroke:none" transform="scale(1,-1) translate(10.43057,0)" text-anchor="middle"  font-size="10"> 
right</text> 
</g> 
 </g> 
 </g> 
 </g> 
 <path d=" M  3.30287 -6.60837 L  15.94725 -31.89494  " style="fill:none"/> 
 </g> 
 <g> 
 <g stroke-dasharray="3.0pt,3.0pt" stroke-dashoffset="0.0pt"> 
 <path d=" M  -8.73695 -42.67912 L  1.21498 -42.67912  " style="fill:none"/> 
 <g> 
 <g transform="matrix(1.0,0.0,0.0,1.0,1.21498,-42.67912)"> 
 <g> 
 <g stroke-width="0.31999pt"> 
 <g stroke-dasharray="none" stroke-dashoffset="0.0pt"> 
 <g stroke-linecap="round"> 
 <g stroke-linejoin="round"> 
 <path d=" M  -1.19998 1.59998 C  -1.09998 0.99998 0.0 0.09999 0.29999 0.0 C  0.0 -0.09999 -1.09998 -0.99998 -1.19998 -1.59998  " style="fill:none"/> 
 </g> 
 </g> 
 </g> 
 </g> 
 </g> 
 </g> 
 </g> 
 </g> 
 </g> 
 </g> 
 </g> 
 </g> 
 </g> 
 </g> 
 
                      </g> 
</svg> 
