<svg xmlns="http://www.w3.org/2000/svg" xmlns:xlink="http://www.w3.org/1999/xlink" width="70.93256pt" height="70.40475pt" viewBox="-7.08298 -35.20238 70.93256 70.40475 "> 
<g transform="translate(0, 35.20238 ) scale(1,-1) translate(0,35.20238 )"> 
          <g> 
 <g stroke="rgb(0.0%,0.0%,0.0%)"> 
 <g fill="rgb(0.0%,0.0%,0.0%)"> 
 <g stroke-width="0.4pt"> 
 <g> 
 </g> 
 <g> 
 <g> 
 <g> 
 <g transform="matrix(1.0,0.0,0.0,1.0,-3.75,-3.41666)"> 
 <g fill="rgb(0.0%,0.0%,0.0%)"> 
 <text style="stroke:none" transform="scale(1,-1) translate(3.75,0)" text-anchor="middle"  font-size="10"> 
A</text> 
</g> 
 </g> 
 </g> 
 </g> 
 <g> 
 <g> 
 <g transform="matrix(1.0,0.0,0.0,1.0,53.36382,25.03609)"> 
 <g fill="rgb(0.0%,0.0%,0.0%)"> 
 <text style="stroke:none" transform="scale(1,-1) translate(3.54167,0)" text-anchor="middle"  font-size="10"> 
B</text> 
</g> 
 </g> 
 </g> 
 </g> 
 <g> 
 <g> 
 <g transform="matrix(1.0,0.0,0.0,1.0,53.29437,-31.8694)"> 
 <g fill="rgb(0.0%,0.0%,0.0%)"> 
 <text style="stroke:none" transform="scale(1,-1) translate(3.61111,0)" text-anchor="middle"  font-size="10"> 
C</text> 
</g> 
 </g> 
 </g> 
 </g> 
 <path d=" M  7.28297 3.64125 L  8.40083 6.9955 L  11.7551 5.87766 L  15.10934 4.7598 L  16.22722 8.11406 L  17.34508 11.4683 L  20.69934 10.35046 L  24.05359 9.2326 L  25.17146 12.58687 L  26.28932 15.94112 L  29.64359 14.82327 L  32.99783 13.70541 L  34.1157 17.05968 L  35.23357 20.41393 L  38.58783 19.29608 L  41.94208 18.17822 L  43.05995 21.53249 L  44.17781 24.88673 L  47.53207 23.76889 L  49.82556 24.9158  " style="fill:none"/> 
 <g> 
 <g stroke="rgb(100.0%,0.0%,0.0%)"> 
 <g fill="rgb(100.0%,0.0%,0.0%)"> 
 <g stroke-width="0.8pt"> 
 <path d=" M  7.28297 -3.64171 L  11.75528 -0.2877 L  11.7551 -5.87796 L  11.7549 -11.4682 L  16.22722 -8.11421 L  20.69952 -4.76021 L  20.69934 -10.35046 L  20.69914 -15.9407 L  25.17146 -12.58672 L  29.64377 -9.23271 L  29.64359 -14.82297 L  29.64339 -20.41321 L  34.1157 -17.05922 L  38.58801 -13.70522 L  38.58783 -19.29547 L  38.58763 -24.88571 L  43.05995 -21.53172 L  47.53226 -18.17772 L  47.53207 -23.76797 L  49.75612 -24.88008  " style="fill:none"/> 
 </g> 
 </g> 
 </g> 
 </g> 
 </g> 
 </g> 
 </g> 
 </g> 
 </g> 
 
                     </g> 
</svg> 
