<svg xmlns="http://www.w3.org/2000/svg" xmlns:xlink="http://www.w3.org/1999/xlink" width="85.55821pt" height="57.20547pt" viewBox="-0.09999 -0.09999 85.55821 57.20547 "> 
<g transform="translate(0, 57.10548 ) scale(1,-1) translate(0,0.09999 )"> 
        <g> 
 <g stroke="rgb(0.0%,0.0%,0.0%)"> 
 <g fill="rgb(0.0%,0.0%,0.0%)"> 
 <g stroke-width="0.4pt"> 
 <g> 
 </g> 
 <g> 
 <g> 
 <g stroke="rgb(50.0%,50.0%,50.0%)"> 
 <g fill="rgb(50.0%,50.0%,50.0%)"> 
 <g stroke-width="0.2pt"> 
 <path d=" M  0.0 0.0 M  0.0 0.0 L  85.35823 0.0 M  0.0 28.45274 L  85.35823 28.45274 M  0.0 56.8955 L  85.35823 56.8955 M  0.0 0.0 L  0.0 56.90549 M  28.45274 0.0 L  28.45274 56.90549 M  56.90549 0.0 L  56.90549 56.90549 M  85.34824 0.0 L  85.34824 56.90549  " style="fill:none"/> 
 </g> 
 </g> 
 </g> 
 </g> 
 <path d=" M  28.45274 28.45274 L  29.36781 31.86781 L  32.78288 30.95274 L  36.19795 30.03767 L  37.11302 33.45274 L  38.02809 36.86781 L  41.44316 35.95274 L  44.85823 35.03767 L  45.7733 38.45274 L  46.68837 41.86781 L  50.10344 40.95274 L  53.51851 40.03767 L  54.43358 43.45274 L  55.34865 46.86781 L  58.76372 45.95274 L  62.17879 45.03767 L  63.09386 48.45274 L  64.00893 51.86781 L  67.424 50.95274 L  70.83907 50.03767 L  71.75414 53.45274 L  72.6692 56.86781 L  76.08427 55.95274 L  77.73448 56.90549  " style="fill:none"/> 
 </g> 
 </g> 
 </g> 
 </g> 
 </g> 
                   </g> 
</svg> 
