<svg xmlns="http://www.w3.org/2000/svg" xmlns:xlink="http://www.w3.org/1999/xlink" width="85.75822pt" height="28.85274pt" viewBox="-0.2 -0.2 85.75822 28.85274 "> 
<g transform="translate(0, 28.65274 ) scale(1,-1) translate(0,0.2 )"> 
        <g> 
 <g stroke="rgb(0.0%,0.0%,0.0%)"> 
 <g fill="rgb(0.0%,0.0%,0.0%)"> 
 <g stroke-width="0.4pt"> 
 <g> 
 </g> 
 <g> 
 <g fill="rgb(80.0003%,80.0003%,16.00037%)"> 
 <path d=" M  0.0 0.0 M  0.0 0.0 L  0.0 28.45274 L  28.45274 28.45274 L  28.45274 0.0 Z M  28.45274 28.45274  " /> 
 <g> 
 <clipPath id="pgfcp34"> <path d=" M  56.90549 0.0 M  56.90549 0.0 L  56.90549 28.45274 L  85.35823 28.45274 L  85.35823 0.0 Z M  85.35823 28.45274  "/> 
</clipPath> 
 <g clip-path="url(#pgfcp34)"> 
 <g transform="matrix(1,0,0,1,71.13185,14.22636)"> 
 <g transform="matrix(0.56917,0,0,0.56917,0.0,0.0)"> 
 <g transform="matrix(0.0,0.0,0.0,0.0,0.0,0.0)"> 
  <linearGradient id="pgfsh6" gradientTransform="rotate(90)"> 
 <stop offset=" 0.0" stop-color=" rgb(100.0%,100.0%,100.0%) "/> 
 <stop offset=" 0.25" stop-color=" rgb(100.0%,100.0%,100.0%) "/> 
 <stop offset=" 0.5" stop-color=" rgb(75.0%,75.0%,75.0%) "/> 
 <stop offset=" 0.75" stop-color=" rgb(50.0%,50.0%,50.0%) "/> 
 <stop offset=" 1.0" stop-color=" rgb(50.0%,50.0%,50.0%) "/> 
 </linearGradient> 
 <g transform="translate(-50.1875,-50.1875)"> 
 <rect width="100.375pt" height="100.375pt" style="fill:url(#pgfsh6); stroke:none"/> 
 </g> 
 </g> 
 </g> 
 </g> 
 </g> 
 </g> 
 <path d=" M  56.90549 0.0 M  56.90549 0.0 L  56.90549 28.45274 L  85.35823 28.45274 L  85.35823 0.0 Z M  85.35823 28.45274  " style="fill:none"/> 
 </g> 
 </g> 
 </g> 
 </g> 
 </g> 
 </g> 
                   </g> 
</svg> 
