<svg xmlns="http://www.w3.org/2000/svg" xmlns:xlink="http://www.w3.org/1999/xlink" width="437.71866pt" height="183.49844pt" viewBox="-218.85933 -91.74922 437.71866 183.49844 "> 
<g transform="translate(0,  91.74922 ) scale(1,-1) translate(0,91.74922 )"> 
                                                                                   <g> 
 <g stroke="rgb(0.0%,0.0%,0.0%)"> 
 <g fill="rgb(0.0%,0.0%,0.0%)"> 
 <g stroke-width="0.4pt"> 
 <g> 
 </g> 
 <g> 
 <g> 
 <g stroke="rgb(69.9997%,69.9997%,69.9997%)"> 
 <g fill="rgb(69.9997%,69.9997%,69.9997%)"> 
 <g fill="rgb(100.0%,100.0%,69.9997%)"> 
 <g stroke-width="14.22636pt"> 
 <g> 
 <g stroke="rgb(69.9997%,69.9997%,69.9997%)"> 
 <g fill="rgb(69.9997%,69.9997%,69.9997%)"> 
 <g fill="rgb(100.0%,100.0%,69.9997%)"> 
 <g stroke-width="14.22636pt"> 
 <path d=" M  147.98955 0.0 C  147.98955 35.39708 82.1331 63.77937 0.0 63.77937 C  -82.1331 63.77937 -147.98955 35.39708 -147.98955 0.0 C  -147.98955 -35.39708 -82.1331 -63.77937 0.0 -63.77937 C  82.1331 -63.77937 147.98955 -35.39708 147.98955 0.0 Z M  0.0 0.0  " /> 
 </g> 
 </g> 
 </g> 
 </g> 
 </g> 
 <g> 
 <g transform="matrix(1.0,0.0,0.0,1.0,-33.51242,-26.03307)"> 
 <g fill="rgb(69.9997%,69.9997%,69.9997%)"> 
 <text style="stroke:none" transform="scale(1,-1) translate(33.51242,0)" text-anchor="middle"  font-size="24.88"> 
<tspan font-family="cmr" font-size="17">Ellipse</tspan></text> 
</g> 
 </g> 
 </g> 
 </g> 
 </g> 
 </g> 
 </g> 
 </g> 
 <path d=" M  -109.6743 50.12865  " style="fill:none"/> 
 <g> 
 <path d=" M  -111.08852 48.71443 L  -108.26009 51.54286 M  -111.08852 51.54286 L  -108.26009 48.71443  " style="fill:none"/> 
 </g> 
 <g> 
 <g> 
 <g transform="matrix(1.0,0.0,0.0,1.0,-169.54358,58.5181)"> 
 <g fill="rgb(0.0%,0.0%,0.0%)"> 
 <text style="stroke:none" transform="scale(1,-1) translate(26.03157,0)" text-anchor="middle"  font-size="24.88"> 
<tspan font-family="cmtt" font-size="8">(s.north west)</tspan></text> 
</g> 
 </g> 
 </g> 
 </g> 
 <path d=" M  0.0 70.89255  " style="fill:none"/> 
 <g> 
 <path d=" M  -1.41422 69.47833 L  1.41422 72.30676 M  -1.41422 72.30676 L  1.41422 69.47833  " style="fill:none"/> 
 </g> 
 <g> 
 <g> 
 <g transform="matrix(1.0,0.0,0.0,1.0,-16.73457,79.282)"> 
 <g fill="rgb(0.0%,0.0%,0.0%)"> 
 <text style="stroke:none" transform="scale(1,-1) translate(16.73457,0)" text-anchor="middle"  font-size="24.88"> 
<tspan font-family="cmtt" font-size="8">(s.north)</tspan></text> 
</g> 
 </g> 
 </g> 
 </g> 
 <path d=" M  109.6743 50.12865  " style="fill:none"/> 
 <g> 
 <path d=" M  108.26009 48.71443 L  111.08852 51.54286 M  108.26009 51.54286 L  111.08852 48.71443  " style="fill:none"/> 
 </g> 
 <g> 
 <g> 
 <g transform="matrix(1.0,0.0,0.0,1.0,117.48044,58.5181)"> 
 <g fill="rgb(0.0%,0.0%,0.0%)"> 
 <text style="stroke:none" transform="scale(1,-1) translate(26.03157,0)" text-anchor="middle"  font-size="24.88"> 
<tspan font-family="cmtt" font-size="8">(s.north east)</tspan></text> 
</g> 
 </g> 
 </g> 
 </g> 
 <path d=" M  -155.10272 0.0  " style="fill:none"/> 
 <g> 
 <path d=" M  -156.51694 -1.41422 L  -153.6885 1.41422 M  -156.51694 1.41422 L  -153.6885 -1.41422  " style="fill:none"/> 
 </g> 
 <g> 
 <g> 
 <g transform="matrix(1.0,0.0,0.0,1.0,-192.65923,-2.13889)"> 
 <g fill="rgb(0.0%,0.0%,0.0%)"> 
 <text style="stroke:none" transform="scale(1,-1) translate(14.87518,0)" text-anchor="middle"  font-size="24.88"> 
<tspan font-family="cmtt" font-size="8">(s.west)</tspan></text> 
</g> 
 </g> 
 </g> 
 </g> 
 <path d=" M  0.0 0.0  " style="fill:none"/> 
 <g> 
 <path d=" M  -1.41422 -1.41422 L  1.41422 1.41422 M  -1.41422 1.41422 L  1.41422 -1.41422  " style="fill:none"/> 
 </g> 
 <g> 
 <g> 
 <g transform="matrix(1.0,0.0,0.0,1.0,-18.59398,8.38945)"> 
 <g fill="rgb(0.0%,0.0%,0.0%)"> 
 <text style="stroke:none" transform="scale(1,-1) translate(18.59398,0)" text-anchor="middle"  font-size="24.88"> 
<tspan font-family="cmtt" font-size="8">(s.center)</tspan></text> 
</g> 
 </g> 
 </g> 
 </g> 
 <path d=" M  155.10272 0.0  " style="fill:none"/> 
 <g> 
 <path d=" M  153.6885 -1.41422 L  156.51694 1.41422 M  153.6885 1.41422 L  156.51694 -1.41422  " style="fill:none"/> 
 </g> 
 <g> 
 <g> 
 <g transform="matrix(1.0,0.0,0.0,1.0,162.90886,-2.13889)"> 
 <g fill="rgb(0.0%,0.0%,0.0%)"> 
 <text style="stroke:none" transform="scale(1,-1) translate(14.87518,0)" text-anchor="middle"  font-size="24.88"> 
<tspan font-family="cmtt" font-size="8">(s.east)</tspan></text> 
</g> 
 </g> 
 </g> 
 </g> 
 <path d=" M  -155.10272 -20.67776  " style="fill:none"/> 
 <g> 
 <path d=" M  -156.51694 -22.09198 L  -153.6885 -19.26355 M  -156.51694 -19.26355 L  -153.6885 -22.09198  " style="fill:none"/> 
 </g> 
 <g> 
 <g> 
 <g transform="matrix(1.0,0.0,0.0,1.0,-147.29659,-22.81665)"> 
 <g fill="rgb(0.0%,0.0%,0.0%)"> 
 <text style="stroke:none" transform="scale(1,-1) translate(22.31277,0)" text-anchor="middle"  font-size="24.88"> 
<tspan font-family="cmtt" font-size="8">(s.mid west)</tspan></text> 
</g> 
 </g> 
 </g> 
 </g> 
 <path d=" M  0.0 -20.67776  " style="fill:none"/> 
 <g> 
 <path d=" M  -1.41422 -22.09198 L  1.41422 -19.26355 M  -1.41422 -19.26355 L  1.41422 -22.09198  " style="fill:none"/> 
 </g> 
 <g> 
 <g> 
 <g transform="matrix(1.0,0.0,0.0,1.0,-13.01578,-12.28831)"> 
 <g fill="rgb(0.0%,0.0%,0.0%)"> 
 <text style="stroke:none" transform="scale(1,-1) translate(13.01578,0)" text-anchor="middle"  font-size="24.88"> 
<tspan font-family="cmtt" font-size="8">(s.mid)</tspan></text> 
</g> 
 </g> 
 </g> 
 </g> 
 <path d=" M  155.10272 -20.67776  " style="fill:none"/> 
 <g> 
 <path d=" M  153.6885 -22.09198 L  156.51694 -19.26355 M  153.6885 -19.26355 L  156.51694 -22.09198  " style="fill:none"/> 
 </g> 
 <g> 
 <g> 
 <g transform="matrix(1.0,0.0,0.0,1.0,102.67104,-22.81665)"> 
 <g fill="rgb(0.0%,0.0%,0.0%)"> 
 <text style="stroke:none" transform="scale(1,-1) translate(22.31277,0)" text-anchor="middle"  font-size="24.88"> 
<tspan font-family="cmtt" font-size="8">(s.mid east)</tspan></text> 
</g> 
 </g> 
 </g> 
 </g> 
 <path d=" M  -155.10272 -26.03307  " style="fill:none"/> 
 <g> 
 <path d=" M  -156.51694 -27.44728 L  -153.6885 -24.61885 M  -156.51694 -24.61885 L  -153.6885 -27.44728  " style="fill:none"/> 
 </g> 
 <g> 
 <g> 
 <g transform="matrix(1.0,0.0,0.0,1.0,-211.25319,-28.17195)"> 
 <g fill="rgb(0.0%,0.0%,0.0%)"> 
 <text style="stroke:none" transform="scale(1,-1) translate(24.17216,0)" text-anchor="middle"  font-size="24.88"> 
<tspan font-family="cmtt" font-size="8">(s.base west)</tspan></text> 
</g> 
 </g> 
 </g> 
 </g> 
 <path d=" M  0.0 -26.03307  " style="fill:none"/> 
 <g> 
 <path d=" M  -1.41422 -27.44728 L  1.41422 -24.61885 M  -1.41422 -24.61885 L  1.41422 -27.44728  " style="fill:none"/> 
 </g> 
 <g> 
 <g> 
 <g transform="matrix(1.0,0.0,0.0,1.0,-14.87518,-38.70029)"> 
 <g fill="rgb(0.0%,0.0%,0.0%)"> 
 <text style="stroke:none" transform="scale(1,-1) translate(14.87518,0)" text-anchor="middle"  font-size="24.88"> 
<tspan font-family="cmtt" font-size="8">(s.base)</tspan></text> 
</g> 
 </g> 
 </g> 
 </g> 
 <path d=" M  155.10272 -26.03307  " style="fill:none"/> 
 <g> 
 <path d=" M  153.6885 -27.44728 L  156.51694 -24.61885 M  153.6885 -24.61885 L  156.51694 -27.44728  " style="fill:none"/> 
 </g> 
 <g> 
 <g> 
 <g transform="matrix(1.0,0.0,0.0,1.0,162.90886,-28.17195)"> 
 <g fill="rgb(0.0%,0.0%,0.0%)"> 
 <text style="stroke:none" transform="scale(1,-1) translate(24.17216,0)" text-anchor="middle"  font-size="24.88"> 
<tspan font-family="cmtt" font-size="8">(s.base east)</tspan></text> 
</g> 
 </g> 
 </g> 
 </g> 
 <path d=" M  -109.6743 -50.12865  " style="fill:none"/> 
 <g> 
 <path d=" M  -111.08852 -51.54286 L  -108.26009 -48.71443 M  -111.08852 -48.71443 L  -108.26009 -51.54286  " style="fill:none"/> 
 </g> 
 <g> 
 <g> 
 <g transform="matrix(1.0,0.0,0.0,1.0,-169.54358,-62.79587)"> 
 <g fill="rgb(0.0%,0.0%,0.0%)"> 
 <text style="stroke:none" transform="scale(1,-1) translate(26.03157,0)" text-anchor="middle"  font-size="24.88"> 
<tspan font-family="cmtt" font-size="8">(s.south west)</tspan></text> 
</g> 
 </g> 
 </g> 
 </g> 
 <path d=" M  0.0 -70.89255  " style="fill:none"/> 
 <g> 
 <path d=" M  -1.41422 -72.30676 L  1.41422 -69.47833 M  -1.41422 -69.47833 L  1.41422 -72.30676  " style="fill:none"/> 
 </g> 
 <g> 
 <g> 
 <g transform="matrix(1.0,0.0,0.0,1.0,-16.73457,-83.55977)"> 
 <g fill="rgb(0.0%,0.0%,0.0%)"> 
 <text style="stroke:none" transform="scale(1,-1) translate(16.73457,0)" text-anchor="middle"  font-size="24.88"> 
<tspan font-family="cmtt" font-size="8">(s.south)</tspan></text> 
</g> 
 </g> 
 </g> 
 </g> 
 <path d=" M  109.6743 -50.12865  " style="fill:none"/> 
 <g> 
 <path d=" M  108.26009 -51.54286 L  111.08852 -48.71443 M  108.26009 -48.71443 L  111.08852 -51.54286  " style="fill:none"/> 
 </g> 
 <g> 
 <g> 
 <g transform="matrix(1.0,0.0,0.0,1.0,117.48044,-62.79587)"> 
 <g fill="rgb(0.0%,0.0%,0.0%)"> 
 <text style="stroke:none" transform="scale(1,-1) translate(26.03157,0)" text-anchor="middle"  font-size="24.88"> 
<tspan font-family="cmtt" font-size="8">(s.south east)</tspan></text> 
</g> 
 </g> 
 </g> 
 </g> 
 <path d=" M  -33.51242 -26.03307  " style="fill:none"/> 
 <g> 
 <path d=" M  -34.92664 -27.44728 L  -32.0982 -24.61885 M  -34.92664 -24.61885 L  -32.0982 -27.44728  " style="fill:none"/> 
 </g> 
 <g> 
 <g> 
 <g transform="matrix(1.0,0.0,0.0,1.0,-71.06892,-28.17195)"> 
 <g fill="rgb(0.0%,0.0%,0.0%)"> 
 <text style="stroke:none" transform="scale(1,-1) translate(14.87518,0)" text-anchor="middle"  font-size="24.88"> 
<tspan font-family="cmtt" font-size="8">(s.text)</tspan></text> 
</g> 
 </g> 
 </g> 
 </g> 
 <path d=" M  144.98752 25.56679  " style="fill:none"/> 
 <g> 
 <path d=" M  143.5733 24.15257 L  146.40173 26.981 M  143.5733 26.981 L  146.40173 24.15257  " style="fill:none"/> 
 </g> 
 <g> 
 <g> 
 <g transform="matrix(1.0,0.0,0.0,1.0,152.79366,23.4279)"> 
 <g fill="rgb(0.0%,0.0%,0.0%)"> 
 <text style="stroke:none" transform="scale(1,-1) translate(11.15639,0)" text-anchor="middle"  font-size="24.88"> 
<tspan font-family="cmtt" font-size="8">(s.10)</tspan></text> 
</g> 
 </g> 
 </g> 
 </g> 
 <path d=" M  -55.60986 66.26921  " style="fill:none"/> 
 <g> 
 <path d=" M  -57.02408 64.855 L  -54.19565 67.68343 M  -57.02408 67.68343 L  -54.19565 64.855  " style="fill:none"/> 
 </g> 
 <g> 
 <g> 
 <g transform="matrix(1.0,0.0,0.0,1.0,-68.62564,74.65866)"> 
 <g fill="rgb(0.0%,0.0%,0.0%)"> 
 <text style="stroke:none" transform="scale(1,-1) translate(13.01578,0)" text-anchor="middle"  font-size="24.88"> 
<tspan font-family="cmtt" font-size="8">(s.130)</tspan></text> 
</g> 
 </g> 
 </g> 
 </g> 
 </g> 
 </g> 
 </g> 
 </g> 
 </g> 
 
                                                                                                                      </g> 
</svg> 
