<svg xmlns="http://www.w3.org/2000/svg" xmlns:xlink="http://www.w3.org/1999/xlink" width="59.90549pt" height="78.24504pt" viewBox="-58.40549 -56.90549 59.90549 78.24504 "> 
<g transform="translate(0, 21.33955 ) scale(1,-1) translate(0,56.90549 )"> 
                          <g> 
 <g stroke="rgb(0.0%,0.0%,0.0%)"> 
 <g fill="rgb(0.0%,0.0%,0.0%)"> 
 <g stroke-width="0.4pt"> 
 <g> 
 </g> 
 <g> 
 <g> 
 <g stroke-width="3.0pt"> 
 <path d=" M  -56.90549 0.0 L  0.0 0.0  " style="fill:none"/> 
 <g> 
 <g transform="matrix(1.0,0.0,0.0,1.0,0.0,0.0)"> 
 <g> 
 <g stroke-dasharray="none" stroke-dashoffset="0.0pt"> 
 <g stroke-linejoin="round"> 
 <g stroke-linecap="round"> 
 <path d=" M  -10.0 10.0 C  -10.0 4.45038 -5.54962 0.0 0.0 0.0 C  -5.54962 0.0 -10.0 -4.45038 -10.0 -10.0  " style="fill:none"/> 
 </g> 
 </g> 
 </g> 
 </g> 
 </g> 
 </g> 
 </g> 
 </g> 
 <g> 
 <g stroke-width="1.0pt"> 
 <path d=" M  -56.90549 -42.67911 L  0.0 -28.45274  " style="fill:none"/> 
 <g> 
 <g transform="matrix(-0.97014,-0.24251,0.24251,-0.97014,-56.90549,-42.67911)"> 
 <g> 
 <g stroke-dasharray="none" stroke-dashoffset="0.0pt"> 
 <g stroke-linejoin="round"> 
 <g stroke-linecap="round"> 
 <path d=" M  -10.0 10.0 C  -10.0 4.45038 -5.54962 0.0 0.0 0.0 C  -5.54962 0.0 -10.0 -4.45038 -10.0 -10.0  " style="fill:none"/> 
 </g> 
 </g> 
 </g> 
 </g> 
 </g> 
 </g> 
 <g> 
 <g transform="matrix(0.97014,0.24251,-0.24251,0.97014,0.0,-28.45274)"> 
 <g> 
 <g stroke-dasharray="none" stroke-dashoffset="0.0pt"> 
 <g stroke-linejoin="round"> 
 <g stroke-linecap="round"> 
 <path d=" M  -10.0 10.0 C  -10.0 4.45038 -5.54962 0.0 0.0 0.0 C  -5.54962 0.0 -10.0 -4.45038 -10.0 -10.0  " style="fill:none"/> 
 </g> 
 </g> 
 </g> 
 </g> 
 </g> 
 </g> 
 </g> 
 </g> 
 </g> 
 </g> 
 </g> 
 </g> 
 </g> 
 
                  </g> 
</svg> 
