<svg xmlns="http://www.w3.org/2000/svg" xmlns:xlink="http://www.w3.org/1999/xlink" width="61.30548pt" height="32.85274pt" viewBox="-2.2 -2.2 61.30548 32.85274 "> 
<g transform="translate(0, 30.65274 ) scale(1,-1) translate(0,2.2 )"> 
         <g> 
 <g stroke="rgb(0.0%,0.0%,0.0%)"> 
 <g fill="rgb(0.0%,0.0%,0.0%)"> 
 <g stroke-width="0.4pt"> 
 <g> 
 </g> 
 <g> 
 <g> 
 <g stroke="rgb(50.0%,50.0%,50.0%)"> 
 <g fill="rgb(50.0%,50.0%,50.0%)"> 
 <path d=" M  0.0 0.0 M  2.0 0.0 C  2.0 1.10999 1.10999 2.0 0.0 2.0 C  -1.10999 2.0 -2.0 1.10999 -2.0 0.0 C  -2.0 -1.10999 -1.10999 -2.0 0.0 -2.0 C  1.10999 -2.0 2.0 -1.10999 2.0 0.0 Z M  0.0 0.0 M  28.45274 28.45274 M  30.45274 28.45274 C  30.45274 29.56273 29.56273 30.45274 28.45274 30.45274 C  27.34276 30.45274 26.45274 29.56273 26.45274 28.45274 C  26.45274 27.34276 27.34276 26.45274 28.45274 26.45274 C  29.56273 26.45274 30.45274 27.34276 30.45274 28.45274 Z M  28.45274 28.45274 M  56.90549 28.45274 M  58.90549 28.45274 C  58.90549 29.56273 58.01547 30.45274 56.90549 30.45274 C  55.7955 30.45274 54.90549 29.56273 54.90549 28.45274 C  54.90549 27.34276 55.7955 26.45274 56.90549 26.45274 C  58.01547 26.45274 58.90549 27.34276 58.90549 28.45274 Z M  56.90549 28.45274 M  56.90549 0.0 M  58.90549 0.0 C  58.90549 1.10999 58.01547 2.0 56.90549 2.0 C  55.7955 2.0 54.90549 1.10999 54.90549 0.0 C  54.90549 -1.10999 55.7955 -2.0 56.90549 -2.0 C  58.01547 -2.0 58.90549 -1.10999 58.90549 0.0 Z M  56.90549 0.0  " /> 
 </g> 
 </g> 
 </g> 
 <path d=" M  0.0 0.0 C  28.45274 28.45274 56.90549 28.45274 56.90549 0.0  " style="fill:none"/> 
 </g> 
 </g> 
 </g> 
 </g> 
 </g> 
           </g> 
</svg> 
