<svg xmlns="http://www.w3.org/2000/svg" xmlns:xlink="http://www.w3.org/1999/xlink" width="74.97713pt" height="18.07162pt" viewBox="-9.03581 -9.03581 74.97713 18.07162 "> 
<g transform="translate(0, 9.03581 ) scale(1,-1) translate(0,9.03581 )"> 
           <g> 
 <g stroke="rgb(0.0%,0.0%,0.0%)"> 
 <g fill="rgb(0.0%,0.0%,0.0%)"> 
 <g stroke-width="0.4pt"> 
 <g> 
 </g> 
 <g stroke-width="1.0pt"> 
 <g stroke="rgb(100.0%,0.0%,0.0%)"> 
 <g fill="rgb(100.0%,0.0%,0.0%)"> 
 <path d=" M  8.53581 0.0 C  8.53581 4.7373 4.7373 8.53581 0.0 8.53581 C  -4.7373 8.53581 -8.53581 4.7373 -8.53581 0.0 C  -8.53581 -4.7373 -4.7373 -8.53581 0.0 -8.53581 C  4.7373 -8.53581 8.53581 -4.7373 8.53581 0.0 Z M  0.0 0.0  " /> 
 <g stroke="rgb(0.0%,0.0%,0.0%)"> 
 <path d=" M  36.98856 0.0 C  36.98856 4.7373 33.19005 8.53581 28.45274 8.53581 C  23.71544 8.53581 19.91693 4.7373 19.91693 0.0 C  19.91693 -4.7373 23.71544 -8.53581 28.45274 -8.53581 C  33.19005 -8.53581 36.98856 -4.7373 36.98856 0.0 Z M  28.45274 0.0  " /> 
 <g stroke="rgb(100.0%,0.0%,0.0%)"> 
 <g fill="rgb(100.0%,0.0%,0.0%)"> 
 <path d=" M  65.44131 0.0 C  65.44131 4.7373 61.6428 8.53581 56.9055 8.53581 C  52.1682 8.53581 48.36969 4.7373 48.36969 0.0 C  48.36969 -4.7373 52.1682 -8.53581 56.9055 -8.53581 C  61.6428 -8.53581 65.44131 -4.7373 65.44131 0.0 Z M  56.9055 0.0  " /> 
 </g> 
 </g> 
 </g> 
 </g> 
 </g> 
 </g> 
 </g> 
 </g> 
 </g> 
 </g> 
 
                      </g> 
</svg> 
