<svg xmlns="http://www.w3.org/2000/svg" xmlns:xlink="http://www.w3.org/1999/xlink" width="114.11096pt" height="57.30548pt" viewBox="-0.2 -0.2 114.11096 57.30548 "> 
<g transform="translate(0, 57.10548 ) scale(1,-1) translate(0,0.2 )"> 
        <g> 
 <g stroke="rgb(0.0%,0.0%,0.0%)"> 
 <g fill="rgb(0.0%,0.0%,0.0%)"> 
 <g stroke-width="0.4pt"> 
 <g> 
 </g> 
 <g> 
 <path d=" M  0.0 0.0 M  0.0 0.0 L  56.90549 0.0 M  0.0 28.45274 L  56.90549 28.45274 M  0.0 56.8955 L  56.90549 56.8955 M  0.0 0.0 L  0.0 56.90549 M  28.45274 0.0 L  28.45274 56.90549 M  56.8955 0.0 L  56.8955 56.90549  " style="fill:none"/> 
 <g> 
 <g stroke="rgb(50.0%,50.0%,50.0%)"> 
 <g fill="rgb(50.0%,50.0%,50.0%)"> 
 <g stroke-width="0.2pt"> 
 <g stroke-dasharray="3.0pt,3.0pt" stroke-dashoffset="0.0pt"> 
 <path d=" M  56.90549 0.0 M  56.90549 0.0 L  113.81097 0.0 M  56.90549 28.45274 L  113.81097 28.45274 M  56.90549 56.8955 L  113.81097 56.8955 M  56.90549 0.0 L  56.90549 56.90549 M  85.35823 0.0 L  85.35823 56.90549 M  113.80098 0.0 L  113.80098 56.90549  " style="fill:none"/> 
 </g> 
 </g> 
 </g> 
 </g> 
 </g> 
 </g> 
 </g> 
 </g> 
 </g> 
 </g> 
                           </g> 
</svg> 
