<svg xmlns="http://www.w3.org/2000/svg" xmlns:xlink="http://www.w3.org/1999/xlink" width="390.25537pt" height="146.1373pt" viewBox="-195.12769 -73.06865 390.25537 146.1373 "> 
<g transform="translate(0,  73.06865 ) scale(1,-1) translate(0,73.06865 )"> 
                                                                            <g> 
 <g stroke="rgb(0.0%,0.0%,0.0%)"> 
 <g fill="rgb(0.0%,0.0%,0.0%)"> 
 <g stroke-width="0.4pt"> 
 <g> 
 </g> 
 <g> 
 <g> 
 <g stroke="rgb(69.9997%,69.9997%,69.9997%)"> 
 <g fill="rgb(69.9997%,69.9997%,69.9997%)"> 
 <g fill="rgb(100.0%,100.0%,69.9997%)"> 
 <g stroke-width="14.22636pt"> 
 <g> 
 <g stroke="rgb(69.9997%,69.9997%,69.9997%)"> 
 <g fill="rgb(69.9997%,69.9997%,69.9997%)"> 
 <g fill="rgb(100.0%,100.0%,69.9997%)"> 
 <g stroke-width="14.22636pt"> 
 <path d=" M  -120.5391 -45.0988 h  241.07819 v  90.1976 h  -241.07819 Z  " /> 
 </g> 
 </g> 
 </g> 
 </g> 
 </g> 
 <g> 
 <g transform="matrix(1.0,0.0,0.0,1.0,-49.40721,-26.03307)"> 
 <g fill="rgb(69.9997%,69.9997%,69.9997%)"> 
 <text style="stroke:none" transform="scale(1,-1) translate(49.40721,0)" text-anchor="middle"  font-size="24.88"> 
<tspan font-family="cmr" font-size="17">Rectangle</tspan></text> 
</g> 
 </g> 
 </g> 
 </g> 
 </g> 
 </g> 
 </g> 
 </g> 
 <path d=" M  -127.65227 52.21198  " style="fill:none"/> 
 <g> 
 <path d=" M  -129.06648 50.79776 L  -126.23805 53.62619 M  -129.06648 53.62619 L  -126.23805 50.79776  " style="fill:none"/> 
 </g> 
 <g> 
 <g> 
 <g transform="matrix(1.0,0.0,0.0,1.0,-187.52155,60.60143)"> 
 <g fill="rgb(0.0%,0.0%,0.0%)"> 
 <text style="stroke:none" transform="scale(1,-1) translate(26.03157,0)" text-anchor="middle"  font-size="24.88"> 
<tspan font-family="cmtt" font-size="8">(s.north west)</tspan></text> 
</g> 
 </g> 
 </g> 
 </g> 
 <path d=" M  0.0 52.21198  " style="fill:none"/> 
 <g> 
 <path d=" M  -1.41422 50.79776 L  1.41422 53.62619 M  -1.41422 53.62619 L  1.41422 50.79776  " style="fill:none"/> 
 </g> 
 <g> 
 <g> 
 <g transform="matrix(1.0,0.0,0.0,1.0,-16.73457,60.60143)"> 
 <g fill="rgb(0.0%,0.0%,0.0%)"> 
 <text style="stroke:none" transform="scale(1,-1) translate(16.73457,0)" text-anchor="middle"  font-size="24.88"> 
<tspan font-family="cmtt" font-size="8">(s.north)</tspan></text> 
</g> 
 </g> 
 </g> 
 </g> 
 <path d=" M  127.65227 52.21198  " style="fill:none"/> 
 <g> 
 <path d=" M  126.23805 50.79776 L  129.06648 53.62619 M  126.23805 53.62619 L  129.06648 50.79776  " style="fill:none"/> 
 </g> 
 <g> 
 <g> 
 <g transform="matrix(1.0,0.0,0.0,1.0,135.4584,60.60143)"> 
 <g fill="rgb(0.0%,0.0%,0.0%)"> 
 <text style="stroke:none" transform="scale(1,-1) translate(26.03157,0)" text-anchor="middle"  font-size="24.88"> 
<tspan font-family="cmtt" font-size="8">(s.north east)</tspan></text> 
</g> 
 </g> 
 </g> 
 </g> 
 <path d=" M  -127.65227 0.0  " style="fill:none"/> 
 <g> 
 <path d=" M  -129.06648 -1.41422 L  -126.23805 1.41422 M  -129.06648 1.41422 L  -126.23805 -1.41422  " style="fill:none"/> 
 </g> 
 <g> 
 <g> 
 <g transform="matrix(1.0,0.0,0.0,1.0,-165.20877,-2.13889)"> 
 <g fill="rgb(0.0%,0.0%,0.0%)"> 
 <text style="stroke:none" transform="scale(1,-1) translate(14.87518,0)" text-anchor="middle"  font-size="24.88"> 
<tspan font-family="cmtt" font-size="8">(s.west)</tspan></text> 
</g> 
 </g> 
 </g> 
 </g> 
 <path d=" M  0.0 0.0  " style="fill:none"/> 
 <g> 
 <path d=" M  -1.41422 -1.41422 L  1.41422 1.41422 M  -1.41422 1.41422 L  1.41422 -1.41422  " style="fill:none"/> 
 </g> 
 <g> 
 <g> 
 <g transform="matrix(1.0,0.0,0.0,1.0,-18.59398,8.38945)"> 
 <g fill="rgb(0.0%,0.0%,0.0%)"> 
 <text style="stroke:none" transform="scale(1,-1) translate(18.59398,0)" text-anchor="middle"  font-size="24.88"> 
<tspan font-family="cmtt" font-size="8">(s.center)</tspan></text> 
</g> 
 </g> 
 </g> 
 </g> 
 <path d=" M  127.65227 0.0  " style="fill:none"/> 
 <g> 
 <path d=" M  126.23805 -1.41422 L  129.06648 1.41422 M  126.23805 1.41422 L  129.06648 -1.41422  " style="fill:none"/> 
 </g> 
 <g> 
 <g> 
 <g transform="matrix(1.0,0.0,0.0,1.0,135.4584,-2.13889)"> 
 <g fill="rgb(0.0%,0.0%,0.0%)"> 
 <text style="stroke:none" transform="scale(1,-1) translate(14.87518,0)" text-anchor="middle"  font-size="24.88"> 
<tspan font-family="cmtt" font-size="8">(s.east)</tspan></text> 
</g> 
 </g> 
 </g> 
 </g> 
 <path d=" M  -127.65227 -20.67776  " style="fill:none"/> 
 <g> 
 <path d=" M  -129.06648 -22.09198 L  -126.23805 -19.26355 M  -129.06648 -19.26355 L  -126.23805 -22.09198  " style="fill:none"/> 
 </g> 
 <g> 
 <g> 
 <g transform="matrix(1.0,0.0,0.0,1.0,-119.84613,-22.81665)"> 
 <g fill="rgb(0.0%,0.0%,0.0%)"> 
 <text style="stroke:none" transform="scale(1,-1) translate(22.31277,0)" text-anchor="middle"  font-size="24.88"> 
<tspan font-family="cmtt" font-size="8">(s.mid west)</tspan></text> 
</g> 
 </g> 
 </g> 
 </g> 
 <path d=" M  0.0 -20.67776  " style="fill:none"/> 
 <g> 
 <path d=" M  -1.41422 -22.09198 L  1.41422 -19.26355 M  -1.41422 -19.26355 L  1.41422 -22.09198  " style="fill:none"/> 
 </g> 
 <g> 
 <g> 
 <g transform="matrix(1.0,0.0,0.0,1.0,-13.01578,-12.28831)"> 
 <g fill="rgb(0.0%,0.0%,0.0%)"> 
 <text style="stroke:none" transform="scale(1,-1) translate(13.01578,0)" text-anchor="middle"  font-size="24.88"> 
<tspan font-family="cmtt" font-size="8">(s.mid)</tspan></text> 
</g> 
 </g> 
 </g> 
 </g> 
 <path d=" M  127.65227 -20.67776  " style="fill:none"/> 
 <g> 
 <path d=" M  126.23805 -22.09198 L  129.06648 -19.26355 M  126.23805 -19.26355 L  129.06648 -22.09198  " style="fill:none"/> 
 </g> 
 <g> 
 <g> 
 <g transform="matrix(1.0,0.0,0.0,1.0,75.22058,-22.81665)"> 
 <g fill="rgb(0.0%,0.0%,0.0%)"> 
 <text style="stroke:none" transform="scale(1,-1) translate(22.31277,0)" text-anchor="middle"  font-size="24.88"> 
<tspan font-family="cmtt" font-size="8">(s.mid east)</tspan></text> 
</g> 
 </g> 
 </g> 
 </g> 
 <path d=" M  -127.65227 -26.03307  " style="fill:none"/> 
 <g> 
 <path d=" M  -129.06648 -27.44728 L  -126.23805 -24.61885 M  -129.06648 -24.61885 L  -126.23805 -27.44728  " style="fill:none"/> 
 </g> 
 <g> 
 <g> 
 <g transform="matrix(1.0,0.0,0.0,1.0,-183.80273,-28.17195)"> 
 <g fill="rgb(0.0%,0.0%,0.0%)"> 
 <text style="stroke:none" transform="scale(1,-1) translate(24.17216,0)" text-anchor="middle"  font-size="24.88"> 
<tspan font-family="cmtt" font-size="8">(s.base west)</tspan></text> 
</g> 
 </g> 
 </g> 
 </g> 
 <path d=" M  0.0 -26.03307  " style="fill:none"/> 
 <g> 
 <path d=" M  -1.41422 -27.44728 L  1.41422 -24.61885 M  -1.41422 -24.61885 L  1.41422 -27.44728  " style="fill:none"/> 
 </g> 
 <g> 
 <g> 
 <g transform="matrix(1.0,0.0,0.0,1.0,-14.87518,-38.70029)"> 
 <g fill="rgb(0.0%,0.0%,0.0%)"> 
 <text style="stroke:none" transform="scale(1,-1) translate(14.87518,0)" text-anchor="middle"  font-size="24.88"> 
<tspan font-family="cmtt" font-size="8">(s.base)</tspan></text> 
</g> 
 </g> 
 </g> 
 </g> 
 <path d=" M  127.65227 -26.03307  " style="fill:none"/> 
 <g> 
 <path d=" M  126.23805 -27.44728 L  129.06648 -24.61885 M  126.23805 -24.61885 L  129.06648 -27.44728  " style="fill:none"/> 
 </g> 
 <g> 
 <g> 
 <g transform="matrix(1.0,0.0,0.0,1.0,135.4584,-28.17195)"> 
 <g fill="rgb(0.0%,0.0%,0.0%)"> 
 <text style="stroke:none" transform="scale(1,-1) translate(24.17216,0)" text-anchor="middle"  font-size="24.88"> 
<tspan font-family="cmtt" font-size="8">(s.base east)</tspan></text> 
</g> 
 </g> 
 </g> 
 </g> 
 <path d=" M  -127.65227 -52.21198  " style="fill:none"/> 
 <g> 
 <path d=" M  -129.06648 -53.62619 L  -126.23805 -50.79776 M  -129.06648 -50.79776 L  -126.23805 -53.62619  " style="fill:none"/> 
 </g> 
 <g> 
 <g> 
 <g transform="matrix(1.0,0.0,0.0,1.0,-187.52155,-64.8792)"> 
 <g fill="rgb(0.0%,0.0%,0.0%)"> 
 <text style="stroke:none" transform="scale(1,-1) translate(26.03157,0)" text-anchor="middle"  font-size="24.88"> 
<tspan font-family="cmtt" font-size="8">(s.south west)</tspan></text> 
</g> 
 </g> 
 </g> 
 </g> 
 <path d=" M  0.0 -52.21198  " style="fill:none"/> 
 <g> 
 <path d=" M  -1.41422 -53.62619 L  1.41422 -50.79776 M  -1.41422 -50.79776 L  1.41422 -53.62619  " style="fill:none"/> 
 </g> 
 <g> 
 <g> 
 <g transform="matrix(1.0,0.0,0.0,1.0,-16.73457,-64.8792)"> 
 <g fill="rgb(0.0%,0.0%,0.0%)"> 
 <text style="stroke:none" transform="scale(1,-1) translate(16.73457,0)" text-anchor="middle"  font-size="24.88"> 
<tspan font-family="cmtt" font-size="8">(s.south)</tspan></text> 
</g> 
 </g> 
 </g> 
 </g> 
 <path d=" M  127.65227 -52.21198  " style="fill:none"/> 
 <g> 
 <path d=" M  126.23805 -53.62619 L  129.06648 -50.79776 M  126.23805 -50.79776 L  129.06648 -53.62619  " style="fill:none"/> 
 </g> 
 <g> 
 <g> 
 <g transform="matrix(1.0,0.0,0.0,1.0,135.4584,-64.8792)"> 
 <g fill="rgb(0.0%,0.0%,0.0%)"> 
 <text style="stroke:none" transform="scale(1,-1) translate(26.03157,0)" text-anchor="middle"  font-size="24.88"> 
<tspan font-family="cmtt" font-size="8">(s.south east)</tspan></text> 
</g> 
 </g> 
 </g> 
 </g> 
 <path d=" M  -49.40721 -26.03307  " style="fill:none"/> 
 <g> 
 <path d=" M  -50.82143 -27.44728 L  -47.993 -24.61885 M  -50.82143 -24.61885 L  -47.993 -27.44728  " style="fill:none"/> 
 </g> 
 <g> 
 <g> 
 <g transform="matrix(1.0,0.0,0.0,1.0,-86.96371,-28.17195)"> 
 <g fill="rgb(0.0%,0.0%,0.0%)"> 
 <text style="stroke:none" transform="scale(1,-1) translate(14.87518,0)" text-anchor="middle"  font-size="24.88"> 
<tspan font-family="cmtt" font-size="8">(s.text)</tspan></text> 
</g> 
 </g> 
 </g> 
 </g> 
 <path d=" M  127.65227 22.50899  " style="fill:none"/> 
 <g> 
 <path d=" M  126.23805 21.09477 L  129.06648 23.9232 M  126.23805 23.9232 L  129.06648 21.09477  " style="fill:none"/> 
 </g> 
 <g> 
 <g> 
 <g transform="matrix(1.0,0.0,0.0,1.0,135.4584,20.3701)"> 
 <g fill="rgb(0.0%,0.0%,0.0%)"> 
 <text style="stroke:none" transform="scale(1,-1) translate(11.15639,0)" text-anchor="middle"  font-size="24.88"> 
<tspan font-family="cmtt" font-size="8">(s.10)</tspan></text> 
</g> 
 </g> 
 </g> 
 </g> 
 <path d=" M  -43.81404 52.21198  " style="fill:none"/> 
 <g> 
 <path d=" M  -45.22826 50.79776 L  -42.39983 53.62619 M  -45.22826 53.62619 L  -42.39983 50.79776  " style="fill:none"/> 
 </g> 
 <g> 
 <g> 
 <g transform="matrix(1.0,0.0,0.0,1.0,-56.82982,60.60143)"> 
 <g fill="rgb(0.0%,0.0%,0.0%)"> 
 <text style="stroke:none" transform="scale(1,-1) translate(13.01578,0)" text-anchor="middle"  font-size="24.88"> 
<tspan font-family="cmtt" font-size="8">(s.130)</tspan></text> 
</g> 
 </g> 
 </g> 
 </g> 
 </g> 
 </g> 
 </g> 
 </g> 
 </g> 
 
                                                                                                         </g> 
</svg> 
