<svg xmlns="http://www.w3.org/2000/svg" xmlns:xlink="http://www.w3.org/1999/xlink" width="97.92332pt" height="90.71239pt" viewBox="-27.00171 -6.80519 97.92332 90.71239 "> 
<g transform="translate(0, 83.9072 ) scale(1,-1) translate(0,6.80519 )"> 
                <g> 
 <g stroke="rgb(0.0%,0.0%,0.0%)"> 
 <g fill="rgb(0.0%,0.0%,0.0%)"> 
 <g stroke-width="0.4pt"> 
 <g> 
 </g> 
 <g> 
 <g> 
 <g fill="rgb(80.0003%,80.0003%,16.00037%)"> 
 <path d=" M  0.0 0.0 L  28.45274 28.45274 L  0.0 56.90549  " style="stroke:none"/> 
 <g> 
 <g> 
 <g transform="matrix(1.0,0.0,0.0,1.0,-20.73615,-3.47221)"> 
 <g fill="rgb(0.0%,0.0%,0.0%)"> 
 <text style="stroke:none" transform="scale(1,-1) translate(20.73615,0)" text-anchor="middle"  font-size="10"> 
first node</text> 
</g> 
 </g> 
 </g> 
 </g> 
 <g> 
 <path d=" M  70.72162 28.45274 C  70.72162 33.79398 51.91165 38.07674 28.45274 38.07674 C  4.99384 38.07674 -13.81613 33.79398 -13.81613 28.45274 C  -13.81613 23.11151 4.99384 18.82875 28.45274 18.82875 C  51.91165 18.82875 70.72162 23.11151 70.72162 28.45274 Z M  28.45274 28.45274  " style="fill:none"/> 
 <g> 
 <g transform="matrix(1.0,0.0,0.0,1.0,1.89714,24.98053)"> 
 <g fill="rgb(0.0%,0.0%,0.0%)"> 
 <text style="stroke:none" transform="scale(1,-1) translate(26.5556,0)" text-anchor="middle"  font-size="10"> 
second node</text> 
</g> 
 </g> 
 </g> 
 </g> 
 <g> 
 <g fill="rgb(100.0%,80.0003%,80.0003%)"> 
 <g> 
 <g fill="rgb(100.0%,80.0003%,80.0003%)"> 
 <path d=" M  27.00171 56.90549 C  27.00171 71.89124 14.98575 83.9072 0.0 83.9072 C  -14.98575 83.9072 -27.00171 71.89124 -27.00171 56.90549 C  -27.00171 41.91974 -14.98575 29.90378 0.0 29.90378 C  14.98575 29.90378 27.00171 41.91974 27.00171 56.90549 Z M  0.0 56.90549  " style="stroke:none"/> 
 </g> 
 </g> 
 <g> 
 <g transform="matrix(1.0,0.0,0.0,1.0,-22.9306,53.43327)"> 
 <g fill="rgb(0.0%,0.0%,0.0%)"> 
 <text style="stroke:none" transform="scale(1,-1) translate(22.9306,0)" text-anchor="middle"  font-size="10"> 
third node</text> 
</g> 
 </g> 
 </g> 
 </g> 
 </g> 
 </g> 
 </g> 
 </g> 
 </g> 
 </g> 
 </g> 
 </g> 
  </g> 
</svg> 
