<svg xmlns="http://www.w3.org/2000/svg" xmlns:xlink="http://www.w3.org/1999/xlink" width="91.04875pt" height="71.88809pt" viewBox="-2.84526 -7.00519 91.04875 71.88809 "> 
<g transform="translate(0, 64.8829 ) scale(1,-1) translate(0,7.00519 )"> 
         <g> 
 <g stroke="rgb(0.0%,0.0%,0.0%)"> 
 <g fill="rgb(0.0%,0.0%,0.0%)"> 
 <g stroke-width="0.4pt"> 
 <g> 
 </g> 
 <g> 
 <g> 
 <g stroke-width="5.69054pt"> 
 <g stroke="rgb(50.0%,50.0%,100.0%)"> 
 <g fill="rgb(50.0%,50.0%,100.0%)"> 
 <g stroke-linecap="round"> 
 <path d=" M  0.0 0.0 M  0.0 0.0 L  85.35823 0.0 M  0.0 28.45274 L  85.35823 28.45274 M  0.0 56.8955 L  85.35823 56.8955 M  0.0 0.0 L  0.0 56.90549 M  28.45274 0.0 L  28.45274 56.90549 M  56.90549 0.0 L  56.90549 56.90549 M  85.34824 0.0 L  85.34824 56.90549  " style="fill:none"/> 
 </g> 
 </g> 
 </g> 
 </g> 
 </g> 
 <g> 
 <g stroke-opacity="0.5"> 
 <g fill-opacity="0.5"> 
 <g> 
 <g stroke-opacity="0.5"> 
 <g fill-opacity="0.5"> 
 <path d=" M  13.63774 49.12807 h  58.08273 v  15.55484 h  -58.08273 Z  " /> 
 </g> 
 </g> 
 </g> 
 <g> 
 <g transform="matrix(1.0,0.0,0.0,1.0,16.97072,54.40549)"> 
 <g fill="rgb(0.0%,0.0%,0.0%)"> 
 <text style="stroke:none" transform="scale(1,-1) translate(25.70839,0)" text-anchor="middle"  font-size="10"> 
Upper node</text> 
</g> 
 </g> 
 </g> 
 </g> 
 </g> 
 </g> 
 <g> 
 <g stroke-opacity="0.8"> 
 <g fill-opacity="0.2"> 
 <g> 
 <g stroke-opacity="0.8"> 
 <g fill-opacity="0.2"> 
 <path d=" M  14.12387 -6.80519 h  57.11047 v  13.61038 h  -57.11047 Z  " /> 
 </g> 
 </g> 
 </g> 
 <g> 
 <g transform="matrix(1.0,0.0,0.0,1.0,17.45685,-3.47221)"> 
 <g fill="rgb(0.0%,0.0%,0.0%)"> 
 <text style="stroke:none" transform="scale(1,-1) translate(25.22226,0)" text-anchor="middle"  font-size="10"> 
<g fill-opacity="1"> 
 <g stroke-opacity="1"> 
 Lower node</text> 
</g> 
 </g> 
 </g> 
 </g> 
 </g> 
 </g> 
 </g> 
 </g> 
 </g> 
 </g> 
 </g> 
 </g> 
 </g> 
    </g> 
</svg> 
