<svg xmlns="http://www.w3.org/2000/svg" xmlns:xlink="http://www.w3.org/1999/xlink" width="47.07912pt" height="51.28749pt" viewBox="-23.53954 -44.87912 47.07912 51.28749 "> 
<g transform="translate(0, 6.40837 ) scale(1,-1) translate(0,44.87912 )"> 
               <g> 
 <g stroke="rgb(0.0%,0.0%,0.0%)"> 
 <g fill="rgb(0.0%,0.0%,0.0%)"> 
 <g stroke-width="0.4pt"> 
 <g> 
 </g> 
 <g> 
 <g> 
 <g> 
 <g transform="matrix(1.0,0.0,0.0,1.0,-9.04169,-3.0754)"> 
 <g fill="rgb(0.0%,0.0%,0.0%)"> 
 <text style="stroke:none" transform="scale(1,-1) translate(9.04169,0)" text-anchor="middle"  font-size="10"> 
root</text> 
</g> 
 </g> 
 </g> 
 </g> 
 <g> 
 <g> 
 </g> 
 <path d=" M  -21.33954 -42.67912 M  -19.33954 -42.67912 C  -19.33954 -41.56914 -20.22955 -40.67912 -21.33954 -40.67912 C  -22.44952 -40.67912 -23.33954 -41.56914 -23.33954 -42.67912 C  -23.33954 -43.78911 -22.44952 -44.67912 -21.33954 -44.67912 C  -20.22955 -44.67912 -19.33954 -43.78911 -19.33954 -42.67912 Z M  -21.33954 -42.67912 M  -3.30296 -6.60837 L  -21.33954 -42.67912  " /> 
 </g> 
 <g> 
 <g> 
 </g> 
 <path d=" M  21.33958 -42.67912 M  23.33958 -42.67912 C  23.33958 -41.56914 22.44957 -40.67912 21.33958 -40.67912 C  20.2296 -40.67912 19.33958 -41.56914 19.33958 -42.67912 C  19.33958 -43.78911 20.2296 -44.67912 21.33958 -44.67912 C  22.44957 -44.67912 23.33958 -43.78911 23.33958 -42.67912 Z M  21.33958 -42.67912 M  3.30296 -6.60837 L  21.33958 -42.67912  " /> 
 </g> 
 </g> 
 </g> 
 </g> 
 </g> 
 </g> 
 
              </g> 
</svg> 
