<svg xmlns="http://www.w3.org/2000/svg" xmlns:xlink="http://www.w3.org/1999/xlink" width="62.93848pt" height="104.50159pt" viewBox="-28.65276 -5.83298 62.93848 104.50159 "> 
<g transform="translate(0, 98.66861 ) scale(1,-1) translate(0,5.83298 )"> 
                 <g> 
 <g stroke="rgb(0.0%,0.0%,0.0%)"> 
 <g fill="rgb(0.0%,0.0%,0.0%)"> 
 <g stroke-width="0.4pt"> 
 <g> 
 </g> 
 <g> 
 <path d=" M  0.0 0.0 C  0.0 56.9055 -28.45276 85.35823 28.45274 85.35823  " style="fill:none"/> 
 <g> 
 <g> 
 <g transform="matrix(0.0,-1.0,1.0,0.0,3.53297,2.5)"> 
 <g fill="rgb(0.0%,0.0%,0.0%)"> 
 <text style="stroke:none" transform="scale(1,-1) translate(2.5,0)" text-anchor="middle"  font-size="10"> 
0</text> 
</g> 
 </g> 
 </g> 
 </g> 
 <g> 
 <g> 
 <g transform="matrix(0.16455,-0.98744,0.98744,0.16455,-1.53065,46.70284)"> 
 <g fill="rgb(0.0%,0.0%,0.0%)"> 
 <text style="stroke:none" transform="scale(1,-1) translate(8.88892,0)" text-anchor="middle"  font-size="10"> 
0.25</text> 
</g> 
 </g> 
 </g> 
 </g> 
 <g> 
 <g> 
 <g transform="matrix(0.0,-1.0,1.0,0.0,-3.58022,70.40755)"> 
 <g fill="rgb(0.0%,0.0%,0.0%)"> 
 <text style="stroke:none" transform="scale(1,-1) translate(6.3889,0)" text-anchor="middle"  font-size="10"> 
0.5</text> 
</g> 
 </g> 
 </g> 
 </g> 
 <g> 
 <g> 
 <g transform="matrix(0.83461,0.55641,-0.55641,0.83461,-9.38455,78.02606)"> 
 <g fill="rgb(0.0%,0.0%,0.0%)"> 
 <text style="stroke:none" transform="scale(1,-1) translate(8.88892,0)" text-anchor="middle"  font-size="10"> 
0.75</text> 
</g> 
 </g> 
 </g> 
 </g> 
 <g> 
 <g> 
 <g transform="matrix(1.0,0.0,0.0,1.0,25.95274,88.8912)"> 
 <g fill="rgb(0.0%,0.0%,0.0%)"> 
 <text style="stroke:none" transform="scale(1,-1) translate(2.5,0)" text-anchor="middle"  font-size="10"> 
1</text> 
</g> 
 </g> 
 </g> 
 </g> 
 </g> 
 </g> 
 </g> 
 </g> 
 </g> 
  </g> 
</svg> 
