<svg xmlns="http://www.w3.org/2000/svg" xmlns:xlink="http://www.w3.org/1999/xlink" width="39.80688pt" height="39.80688pt" viewBox="-11.15414 -11.15414 39.80688 39.80688 "> 
<g transform="translate(0, 28.65274 ) scale(1,-1) translate(0,11.15414 )"> 
           <g> 
 <g stroke="rgb(0.0%,0.0%,0.0%)"> 
 <g fill="rgb(0.0%,0.0%,0.0%)"> 
 <g stroke-width="0.4pt"> 
 <g> 
 </g> 
 <path d=" M  0.0 0.0 L  -10.62888 -10.62889  " style="fill:none"/> 
 <g> 
 <g transform="matrix(-0.7071,-0.7071,0.7071,-0.7071,-10.62888,-10.62889)"> 
 <g> 
 <g stroke-width="0.31999pt"> 
 <g stroke-dasharray="none" stroke-dashoffset="0.0pt"> 
 <g stroke-linecap="round"> 
 <g stroke-linejoin="round"> 
 <path d=" M  -1.19998 1.59998 C  -1.09998 0.99998 0.0 0.09999 0.29999 0.0 C  0.0 -0.09999 -1.09998 -0.99998 -1.19998 -1.59998  " style="fill:none"/> 
 </g> 
 </g> 
 </g> 
 </g> 
 </g> 
 </g> 
 </g> 
 <path d=" M  0.0 0.0 L  0.0 27.99275  " style="fill:none"/> 
 <g> 
 <g transform="matrix(0.0,1.0,-1.0,0.0,0.0,27.99275)"> 
 <g> 
 <g stroke-width="0.31999pt"> 
 <g stroke-dasharray="none" stroke-dashoffset="0.0pt"> 
 <g stroke-linecap="round"> 
 <g stroke-linejoin="round"> 
 <path d=" M  -1.19998 1.59998 C  -1.09998 0.99998 0.0 0.09999 0.29999 0.0 C  0.0 -0.09999 -1.09998 -0.99998 -1.19998 -1.59998  " style="fill:none"/> 
 </g> 
 </g> 
 </g> 
 </g> 
 </g> 
 </g> 
 </g> 
 <path d=" M  0.0 0.0 L  27.99275 0.0  " style="fill:none"/> 
 <g> 
 <g transform="matrix(1.0,0.0,0.0,1.0,27.99275,0.0)"> 
 <g> 
 <g stroke-width="0.31999pt"> 
 <g stroke-dasharray="none" stroke-dashoffset="0.0pt"> 
 <g stroke-linecap="round"> 
 <g stroke-linejoin="round"> 
 <path d=" M  -1.19998 1.59998 C  -1.09998 0.99998 0.0 0.09999 0.29999 0.0 C  0.0 -0.09999 -1.09998 -0.99998 -1.19998 -1.59998  " style="fill:none"/> 
 </g> 
 </g> 
 </g> 
 </g> 
 </g> 
 </g> 
 </g> 
 </g> 
 </g> 
 </g> 
 </g> 
 
            </g> 
</svg> 
