<svg xmlns="http://www.w3.org/2000/svg" xmlns:xlink="http://www.w3.org/1999/xlink" width="81.28409pt" height="94.87352pt" viewBox="-38.91368 -9.82399 81.28409 94.87352 "> 
<g transform="translate(0, 85.04953 ) scale(1,-1) translate(0,9.82399 )"> 
                    <g> 
 <g stroke="rgb(0.0%,0.0%,0.0%)"> 
 <g fill="rgb(0.0%,0.0%,0.0%)"> 
 <g stroke-width="0.4pt"> 
 <g> 
 </g> 
 <g> 
 <g> 
 <g fill="rgb(80.0003%,80.0003%,16.00037%)"> 
 <g> 
 <g fill="rgb(80.0003%,80.0003%,16.00037%)"> 
 <path d=" M  38.71368 0.0 C  38.71368 5.34123 21.48581 9.624 0.0 9.624 C  -21.48581 9.624 -38.71368 5.34123 -38.71368 0.0 C  -38.71368 -5.34123 -21.48581 -9.624 0.0 -9.624 C  21.48581 -9.624 38.71368 -5.34123 38.71368 0.0 Z M  0.0 0.0  " /> 
 </g> 
 </g> 
 <g> 
 <g transform="matrix(1.0,0.0,0.0,1.0,-24.0417,-3.47221)"> 
 <g fill="rgb(0.0%,0.0%,0.0%)"> 
 <text style="stroke:none" transform="scale(1,-1) translate(24.0417,0)" text-anchor="middle"  font-size="10"> 
hello world</text> 
</g> 
 </g> 
 </g> 
 </g> 
 </g> 
 <g> 
 <g> 
 <clipPath id="pgfcp24"> <path d=" M  42.3704 56.90549 C  42.3704 72.52522 29.8461 85.04953 14.22636 85.04953 C  -1.39337 85.04953 -13.91768 72.52522 -13.91768 56.90549 C  -13.91768 41.28575 -1.39337 28.76144 14.22636 28.76144 C  29.8461 28.76144 42.3704 41.28575 42.3704 56.90549 Z M  14.22636 56.90549  "/> 
</clipPath> 
 <g clip-path="url(#pgfcp24)"> 
 <g transform="matrix(1,0,0,1,14.22636,56.90549)"> 
 <g transform="matrix(1.12599,0,0,1.12599,0.0,0.0)"> 
 <g transform="matrix(0.0,0.0,0.0,0.0,0.0,0.0)"> 
  <radialGradient id="pgfsh25" fx="0.40001" fy="0.59999" > 
 <stop offset=" 0.0" stop-color=" rgb(97.00012%,97.00012%,85.00061%) "/> 
 <stop offset=" 0.18" stop-color=" rgb(85.00061%,85.00061%,25.0%) "/> 
 <stop offset=" 0.35999" stop-color=" rgb(55.99976%,55.99976%,0.0%) "/> 
 <stop offset=" 0.5" stop-color=" rgb(40.00092%,40.00092%,0.0%) "/> 
 <stop offset=" 1.0" stop-color=" rgb(0.0%,0.0%,0.0%) "/> 
 </radialGradient> 
 <g transform="translate(-50.1875,-50.1875)"> 
 <circle cx="50.1875pt" cy="50.1875pt" r="50.1875pt" style="fill:url(#pgfsh25); stroke:none"/> 
 </g> 
 </g> 
 </g> 
 </g> 
 </g> 
 </g> 
 <g> 
 <g transform="matrix(1.0,0.0,0.0,1.0,-9.81534,53.43327)"> 
 <g fill="rgb(0.0%,0.0%,0.0%)"> 
 <text style="stroke:none" transform="scale(1,-1) translate(24.0417,0)" text-anchor="middle"  font-size="10"> 
hello world</text> 
</g> 
 </g> 
 </g> 
 </g> 
 <path d=" M  0.0 9.82399 L  12.73212 26.59346  " style="fill:none"/> 
 <g> 
 <g transform="matrix(0.60742,0.8,-0.8,0.60742,12.73212,26.59346)"> 
 <g> 
 <g stroke-width="0.31999pt"> 
 <g stroke-dasharray="none" stroke-dashoffset="0.0pt"> 
 <g stroke-linecap="round"> 
 <g stroke-linejoin="round"> 
 <path d=" M  -1.19998 1.59998 C  -1.09998 0.99998 0.0 0.09999 0.29999 0.0 C  0.0 -0.09999 -1.09998 -0.99998 -1.19998 -1.59998  " style="fill:none"/> 
 </g> 
 </g> 
 </g> 
 </g> 
 </g> 
 </g> 
 </g> 
 </g> 
 </g> 
 </g> 
 </g> 
 </g> 
 
                        </g> 
</svg> 
