<svg xmlns="http://www.w3.org/2000/svg" xmlns:xlink="http://www.w3.org/1999/xlink" width="87.45822pt" height="59.00548pt" viewBox="-2.0 -2.0 87.45822 59.00548 "> 
<g transform="translate(0, 57.00548 ) scale(1,-1) translate(0,2.0 )"> 
         <g> 
 <g stroke="rgb(0.0%,0.0%,0.0%)"> 
 <g fill="rgb(0.0%,0.0%,0.0%)"> 
 <g stroke-width="0.4pt"> 
 <g> 
 </g> 
 <g> 
 <g> 
 <g stroke="rgb(50.0%,50.0%,50.0%)"> 
 <g fill="rgb(50.0%,50.0%,50.0%)"> 
 <g stroke-width="0.2pt"> 
 <path d=" M  0.0 0.0 M  0.0 0.0 L  85.35823 0.0 M  0.0 28.45274 L  85.35823 28.45274 M  0.0 56.8955 L  85.35823 56.8955 M  0.0 0.0 L  0.0 56.90549 M  28.45274 0.0 L  28.45274 56.90549 M  56.90549 0.0 L  56.90549 56.90549 M  85.34824 0.0 L  85.34824 56.90549  " style="fill:none"/> 
 </g> 
 </g> 
 </g> 
 </g> 
 <path d=" M  30.45274 0.0 C  30.45274 1.10999 29.56273 2.0 28.45274 2.0 C  27.34276 2.0 26.45274 1.10999 26.45274 0.0 C  26.45274 -1.10999 27.34276 -2.0 28.45274 -2.0 C  29.56273 -2.0 30.45274 -1.10999 30.45274 0.0 Z M  28.45274 0.0 M  30.02032 4.94067 C  30.02032 6.05066 29.13031 6.94067 28.02032 6.94067 C  26.91034 6.94067 26.02032 6.05066 26.02032 4.94067 C  26.02032 3.83069 26.91034 2.94067 28.02032 2.94067 C  29.13031 2.94067 30.02032 3.83069 30.02032 4.94067 Z M  28.02032 4.94067 M  28.73695 9.73157 C  28.73695 10.84155 27.84694 11.73157 26.73695 11.73157 C  25.62697 11.73157 24.73695 10.84155 24.73695 9.73157 C  24.73695 8.62158 25.62697 7.73157 26.73695 7.73157 C  27.84694 7.73157 28.73695 8.62158 28.73695 9.73157 Z M  26.73695 9.73157 M  26.64085 14.22636 C  26.64085 15.33635 25.75084 16.22636 24.64085 16.22636 C  23.53087 16.22636 22.64085 15.33635 22.64085 14.22636 C  22.64085 13.11638 23.53087 12.22636 24.64085 12.22636 C  25.75084 12.22636 26.64085 13.11638 26.64085 14.22636 Z M  24.64085 14.22636 M  23.79585 18.28918 C  23.79585 19.39917 22.90584 20.28918 21.79585 20.28918 C  20.68587 20.28918 19.79585 19.39917 19.79585 18.28918 C  19.79585 17.1792 20.68587 16.28918 21.79585 16.28918 C  22.90584 16.28918 23.79585 17.1792 23.79585 18.28918 Z M  21.79585 18.28918 M  20.28918 21.79585 C  20.28918 22.90584 19.39917 23.79585 18.28918 23.79585 C  17.1792 23.79585 16.28918 22.90584 16.28918 21.79585 C  16.28918 20.68587 17.1792 19.79585 18.28918 19.79585 C  19.39917 19.79585 20.28918 20.68587 20.28918 21.79585 Z M  18.28918 21.79585 M  16.22636 24.64085 C  16.22636 25.75084 15.33635 26.64085 14.22636 26.64085 C  13.11638 26.64085 12.22636 25.75084 12.22636 24.64085 C  12.22636 23.53087 13.11638 22.64085 14.22636 22.64085 C  15.33635 22.64085 16.22636 23.53087 16.22636 24.64085 Z M  14.22636 24.64085 M  11.73157 26.73695 C  11.73157 27.84694 10.84155 28.73695 9.73157 28.73695 C  8.62158 28.73695 7.73157 27.84694 7.73157 26.73695 C  7.73157 25.62697 8.62158 24.73695 9.73157 24.73695 C  10.84155 24.73695 11.73157 25.62697 11.73157 26.73695 Z M  9.73157 26.73695 M  6.94067 28.02032 C  6.94067 29.13031 6.05066 30.02032 4.94067 30.02032 C  3.83069 30.02032 2.94067 29.13031 2.94067 28.02032 C  2.94067 26.91034 3.83069 26.02032 4.94067 26.02032 C  6.05066 26.02032 6.94067 26.91034 6.94067 28.02032 Z M  4.94067 28.02032 M  2.0 28.45274 C  2.0 29.56273 1.10999 30.45274 0.0 30.45274 C  -1.10999 30.45274 -2.0 29.56273 -2.0 28.45274 C  -2.0 27.34276 -1.10999 26.45274 0.0 26.45274 C  1.10999 26.45274 2.0 27.34276 2.0 28.45274 Z M  0.0 28.45274  " style="stroke:none"/> 
 </g> 
 </g> 
 </g> 
 </g> 
 </g> 
                   </g> 
</svg> 
