<svg xmlns="http://www.w3.org/2000/svg" xmlns:xlink="http://www.w3.org/1999/xlink" width="35.51869pt" height="74.86484pt" viewBox="-3.53297 -0.2 35.51869 74.86484 "> 
<g transform="translate(0, 74.66484 ) scale(1,-1) translate(0,0.2 )"> 
         <g> 
 <g stroke="rgb(0.0%,0.0%,0.0%)"> 
 <g fill="rgb(0.0%,0.0%,0.0%)"> 
 <g stroke-width="0.4pt"> 
 <g> 
 </g> 
 <g> 
 <g> 
 <path d=" M  -3.33298 39.34615 h  6.66595 v  6.66595 h  -6.66595 Z  " style="fill:none"/> 
 <g> 
 <g transform="matrix(1.0,0.0,0.0,1.0,0.0,42.67912)"> 
 <g fill="rgb(0.0%,0.0%,0.0%)"> 
 <text style="stroke:none" transform="scale(1,-1) translate(0.0,0)" text-anchor="middle"  font-size="10"> 
</text> 
</g> 
 </g> 
 </g> 
 </g> 
 <g> 
 <path d=" M  25.11977 39.34615 h  6.66595 v  6.66595 h  -6.66595 Z  " style="fill:none"/> 
 <g> 
 <g transform="matrix(1.0,0.0,0.0,1.0,28.45274,42.67912)"> 
 <g fill="rgb(0.0%,0.0%,0.0%)"> 
 <text style="stroke:none" transform="scale(1,-1) translate(0.0,0)" text-anchor="middle"  font-size="10"> 
</text> 
</g> 
 </g> 
 </g> 
 </g> 
 <g> 
 <path d=" M  25.11977 67.79889 h  6.66595 v  6.66595 h  -6.66595 Z  " style="fill:none"/> 
 <g> 
 <g transform="matrix(1.0,0.0,0.0,1.0,28.45274,71.13187)"> 
 <g fill="rgb(0.0%,0.0%,0.0%)"> 
 <text style="stroke:none" transform="scale(1,-1) translate(0.0,0)" text-anchor="middle"  font-size="10"> 
</text> 
</g> 
 </g> 
 </g> 
 </g> 
 <g> 
 <path d=" M  -3.33298 67.79889 h  6.66595 v  6.66595 h  -6.66595 Z  " style="fill:none"/> 
 <g> 
 <g transform="matrix(1.0,0.0,0.0,1.0,0.0,71.13187)"> 
 <g fill="rgb(0.0%,0.0%,0.0%)"> 
 <text style="stroke:none" transform="scale(1,-1) translate(0.0,0)" text-anchor="middle"  font-size="10"> 
</text> 
</g> 
 </g> 
 </g> 
 </g> 
 <g> 
 <g fill="rgb(80.0003%,80.0003%,16.00037%)"> 
 <path d=" M  3.53297 42.67912 L  24.91977 42.67912 M  28.45274 46.2121 L  28.45274 67.59889 M  24.91977 71.13187 L  3.53297 71.13187  " /> 
 </g> 
 </g> 
 <g> 
 </g> 
 <g> 
 </g> 
 <g> 
 </g> 
 <g> 
 </g> 
 <g> 
 <g fill="rgb(80.0003%,80.0003%,16.00037%)"> 
 <path d=" M  0.0 0.0 L  28.45274 0.0 L  28.45274 28.45274 L  0.0 28.45274  " /> 
 </g> 
 </g> 
 </g> 
 </g> 
 </g> 
 </g> 
 </g> 
   </g> 
</svg> 
