<svg xmlns="http://www.w3.org/2000/svg" xmlns:xlink="http://www.w3.org/1999/xlink" width="26.40906pt" height="89.77023pt" viewBox="-0.2 -44.88512 26.40906 89.77023 "> 
<g transform="translate(0, 44.88512 ) scale(1,-1) translate(0,44.88512 )"> 
        <g> 
 <g stroke="rgb(0.0%,0.0%,0.0%)"> 
 <g fill="rgb(0.0%,0.0%,0.0%)"> 
 <g stroke-width="0.4pt"> 
 <g> 
 </g> 
 <g> 
 <path d=" M  0.02647 44.68512 C  0.02647 44.68512 8.04123 41.28674 10.6231 39.55992 C  13.20496 37.83311 16.81923 34.44173 18.63477 32.23943 C  20.45032 30.03712 22.71347 26.09515 23.7083 23.68724 C  24.70313 21.27931 25.6006 17.23645 25.80482 14.88477 C  26.00906 12.53307 25.66069 8.80402 25.1803 6.73785 C  24.6999 4.67169 23.34105 1.59734 22.34245 -0.00673 C  21.34386 -1.6108 19.29349 -3.79048 17.98311 -4.82323 C  16.67271 -5.85597 14.29733 -7.02312 12.89807 -7.45009 C  11.4988 -7.87704 9.17114 -8.03928 7.89813 -7.90051 C  6.62512 -7.76176 4.68524 -7.04715 3.72308 -6.45001 C  2.76094 -5.85287 1.48016 -4.49167 0.9636 -3.59674 C  0.44702 -2.70183 0.0 -0.99808 0.0 0.0 C  0.0 0.99808 0.44702 2.70183 0.9636 3.59674 C  1.48016 4.49167 2.76094 5.85287 3.72308 6.45001 C  4.68524 7.04715 6.62512 7.76176 7.89813 7.90051 C  9.17114 8.03928 11.4988 7.87704 12.89807 7.45009 C  14.29733 7.02312 16.67271 5.85597 17.98311 4.82323 C  19.29349 3.79048 21.34386 1.6108 22.34245 0.00673 C  23.34105 -1.59734 24.6999 -4.67169 25.1803 -6.73785 C  25.66069 -8.80402 26.00906 -12.53307 25.80482 -14.88477 C  25.6006 -17.23645 24.70313 -21.27931 23.7083 -23.68724 C  22.71347 -26.09515 20.45032 -30.03712 18.63477 -32.23943 C  16.81923 -34.44173 13.20496 -37.83311 10.6231 -39.55992 C  8.04123 -41.28674 0.02647 -44.68512 0.02647 -44.68512  " style="fill:none"/> 
 </g> 
 </g> 
 </g> 
 </g> 
 </g> 
 
        </g> 
</svg> 
