<svg xmlns="http://www.w3.org/2000/svg" xmlns:xlink="http://www.w3.org/1999/xlink" width="114.211pt" height="50.19229pt" viewBox="-0.2 -0.2 114.211 50.19229 "> 
<g transform="translate(0, 49.9923 ) scale(1,-1) translate(0,0.2 )"> 
        <g> 
 <g stroke="rgb(0.0%,0.0%,0.0%)"> 
 <g fill="rgb(0.0%,0.0%,0.0%)"> 
 <g stroke-width="0.4pt"> 
 <g> 
 </g> 
 <g> 
 <path d=" M  0.0 0.0 M  0.0 0.0 L  0.0 42.67911 L  28.45274 42.67911 L  28.45274 0.0 Z M  28.45274 42.67911 M  0.0 0.0 C  14.22636 0.0 25.25171 33.07603 28.45274 42.67911  " style="fill:none"/> 
 <path d=" M  42.67912 0.0 M  42.67912 0.0 L  42.67912 42.67911 L  71.13187 42.67911 L  71.13187 0.0 Z M  71.13187 42.67911 M  42.67912 0.0 C  45.88014 9.60306 56.90549 42.67911 71.13187 42.67911  " style="fill:none"/> 
 <path d=" M  85.35826 0.0 M  85.35826 0.0 L  85.35826 42.67911 L  113.811 42.67911 L  113.811 0.0 Z M  113.811 42.67911 M  85.35826 0.0 C  87.75902 11.20357 96.02803 49.7923 106.69781 49.7923 C  110.25441 49.7923 113.01074 44.27963 113.811 42.67911  " style="fill:none"/> 
 </g> 
 </g> 
 </g> 
 </g> 
 </g> 
                           </g> 
</svg> 
