<svg xmlns="http://www.w3.org/2000/svg" xmlns:xlink="http://www.w3.org/1999/xlink" width="344.94086pt" height="75.55493pt" viewBox="-2.5 -67.77751 344.94086 75.55493 "> 
<g transform="translate(0, 7.77742 ) scale(1,-1) translate(0,67.77751 )"> 
         <g> 
 <g stroke="rgb(0.0%,0.0%,0.0%)"> 
 <g fill="rgb(0.0%,0.0%,0.0%)"> 
 <g stroke-width="0.4pt"> 
 <g> 
 </g> 
 <g> 
 <g> 
 <g stroke-width="0.1pt"> 
 <path d=" M  0.0 0.0 L  84.45818 0.0  " style="fill:none"/> 
 <g> 
 <g transform="matrix(1.0,0.0,0.0,1.0,84.45818,0.0)"> 
 <g> 
 <path d=" M  0.90005 0.0 C  0.63336 0.05 0.20001 0.20001 -0.1 0.37502 L  -0.1 -0.37502 C  0.20001 -0.20001 0.63336 -0.05 0.90005 0.0  " style="stroke:none"/> 
 </g> 
 </g> 
 </g> 
 <g> 
 <g stroke-width="0.4pt"> 
 <g> 
 <g stroke-width="0.4pt"> 
 </g> 
 </g> 
 <g> 
 <g transform="matrix(1.0,0.0,0.0,1.0,88.8912,-2.5)"> 
 <g fill="rgb(0.0%,0.0%,0.0%)"> 
 <text style="stroke:none" transform="scale(1,-1) translate(39.75008,0)" text-anchor="middle"  font-size="10"> 
line width is 0.1pt</text> 
</g> 
 </g> 
 </g> 
 </g> 
 </g> 
 </g> 
 </g> 
 <g> 
 <g stroke-width="0.4pt"> 
 <path d=" M  0.0 -20.00003 L  81.75829 -20.00003  " style="fill:none"/> 
 <g> 
 <g transform="matrix(1.0,0.0,0.0,1.0,81.75829,-20.00003)"> 
 <g> 
 <path d=" M  3.59995 0.0 C  2.53328 0.2 0.79999 0.79999 -0.4 1.49997 L  -0.4 -1.49997 C  0.79999 -0.79999 2.53328 -0.2 3.59995 0.0  " style="stroke:none"/> 
 </g> 
 </g> 
 </g> 
 <g> 
 <g stroke-width="0.4pt"> 
 <g> 
 <g stroke-width="0.4pt"> 
 </g> 
 </g> 
 <g> 
 <g transform="matrix(1.0,0.0,0.0,1.0,88.8912,-22.50003)"> 
 <g fill="rgb(0.0%,0.0%,0.0%)"> 
 <text style="stroke:none" transform="scale(1,-1) translate(39.75008,0)" text-anchor="middle"  font-size="10"> 
line width is 0.4pt</text> 
</g> 
 </g> 
 </g> 
 </g> 
 </g> 
 </g> 
 </g> 
 <g> 
 <g stroke-width="1.2pt"> 
 <path d=" M  0.0 -40.00006 L  74.55826 -40.00006  " style="fill:none"/> 
 <g> 
 <g transform="matrix(1.0,0.0,0.0,1.0,74.55826,-40.00006)"> 
 <g> 
 <path d=" M  10.79997 0.0 C  7.59993 0.59999 2.4 2.4 -1.2 4.49998 L  -1.2 -4.49998 C  2.4 -2.4 7.59993 -0.59999 10.79997 0.0  " style="stroke:none"/> 
 </g> 
 </g> 
 </g> 
 <g> 
 <g stroke-width="0.4pt"> 
 <g> 
 <g stroke-width="0.4pt"> 
 </g> 
 </g> 
 <g> 
 <g transform="matrix(1.0,0.0,0.0,1.0,88.8912,-42.50006)"> 
 <g fill="rgb(0.0%,0.0%,0.0%)"> 
 <text style="stroke:none" transform="scale(1,-1) translate(39.75008,0)" text-anchor="middle"  font-size="10"> 
line width is 1.2pt</text> 
</g> 
 </g> 
 </g> 
 </g> 
 </g> 
 </g> 
 </g> 
 <g> 
 <g stroke-width="5.0pt"> 
 <path d=" M  0.0 -60.00009 L  40.35823 -60.00009  " style="fill:none"/> 
 <g> 
 <g transform="matrix(1.0,0.0,0.0,1.0,40.35823,-60.00009)"> 
 <g> 
 <path d=" M  45.0 0.0 C  31.66649 2.5 10.0 10.0 -5.0 18.75 L  -5.0 -18.75 C  10.0 -10.0 31.66649 -2.5 45.0 0.0  " style="stroke:none"/> 
 </g> 
 </g> 
 </g> 
 <g> 
 <g stroke-width="0.4pt"> 
 <g> 
 <g stroke-width="0.4pt"> 
 </g> 
 </g> 
 <g> 
 <g transform="matrix(1.0,0.0,0.0,1.0,88.8912,-62.50009)"> 
 <g fill="rgb(0.0%,0.0%,0.0%)"> 
 <text style="stroke:none" transform="scale(1,-1) translate(35.86118,0)" text-anchor="middle"  font-size="10"> 
line width is 5pt</text> 
</g> 
 </g> 
 </g> 
 </g> 
 </g> 
 </g> 
 </g> 
 <g> 
 <g stroke-width="0.1pt"> 
 <path d=" M  170.71652 0.0 L  255.97475 0.0  " style="fill:none"/> 
 <g> 
 <g transform="matrix(1.0,0.0,0.0,1.0,255.97475,0.0)"> 
 <g> 
 <g stroke-width="0.08pt"> 
 <g stroke-dasharray="none" stroke-dashoffset="0.0pt"> 
 <g stroke-linecap="round"> 
 <g stroke-linejoin="round"> 
 <path d=" M  -0.24 0.32 C  -0.22 0.2 0.0 0.01999 0.06 0.0 C  0.0 -0.01999 -0.22 -0.2 -0.24 -0.32  " style="fill:none"/> 
 </g> 
 </g> 
 </g> 
 </g> 
 </g> 
 </g> 
 </g> 
 <g> 
 <g stroke-width="0.4pt"> 
 <g> 
 <g stroke-width="0.4pt"> 
 </g> 
 </g> 
 <g> 
 <g transform="matrix(1.0,0.0,0.0,1.0,259.60773,-2.5)"> 
 <g fill="rgb(0.0%,0.0%,0.0%)"> 
 <text style="stroke:none" transform="scale(1,-1) translate(39.75008,0)" text-anchor="middle"  font-size="10"> 
line width is 0.1pt</text> 
</g> 
 </g> 
 </g> 
 </g> 
 </g> 
 </g> 
 </g> 
 <g> 
 <g stroke-width="0.4pt"> 
 <path d=" M  170.71652 -20.00003 L  255.67476 -20.00003  " style="fill:none"/> 
 <g> 
 <g transform="matrix(1.0,0.0,0.0,1.0,255.67476,-20.00003)"> 
 <g> 
 <g stroke-width="0.31999pt"> 
 <g stroke-dasharray="none" stroke-dashoffset="0.0pt"> 
 <g stroke-linecap="round"> 
 <g stroke-linejoin="round"> 
 <path d=" M  -0.95998 1.27997 C  -0.87997 0.79997 0.0 0.07999 0.23999 0.0 C  0.0 -0.07999 -0.87997 -0.79997 -0.95998 -1.27997  " style="fill:none"/> 
 </g> 
 </g> 
 </g> 
 </g> 
 </g> 
 </g> 
 </g> 
 <g> 
 <g stroke-width="0.4pt"> 
 <g> 
 <g stroke-width="0.4pt"> 
 </g> 
 </g> 
 <g> 
 <g transform="matrix(1.0,0.0,0.0,1.0,259.60773,-22.50003)"> 
 <g fill="rgb(0.0%,0.0%,0.0%)"> 
 <text style="stroke:none" transform="scale(1,-1) translate(39.75008,0)" text-anchor="middle"  font-size="10"> 
line width is 0.4pt</text> 
</g> 
 </g> 
 </g> 
 </g> 
 </g> 
 </g> 
 </g> 
 <g> 
 <g stroke-width="1.2pt"> 
 <path d=" M  170.71652 -40.00006 L  254.87476 -40.00006  " style="fill:none"/> 
 <g> 
 <g transform="matrix(1.0,0.0,0.0,1.0,254.87476,-40.00006)"> 
 <g> 
 <g stroke-width="0.95999pt"> 
 <g stroke-dasharray="none" stroke-dashoffset="0.0pt"> 
 <g stroke-linecap="round"> 
 <g stroke-linejoin="round"> 
 <path d=" M  -2.87997 3.83997 C  -2.63997 2.39998 0.0 0.23999 0.71999 0.0 C  0.0 -0.23999 -2.63997 -2.39998 -2.87997 -3.83997  " style="fill:none"/> 
 </g> 
 </g> 
 </g> 
 </g> 
 </g> 
 </g> 
 </g> 
 <g> 
 <g stroke-width="0.4pt"> 
 <g> 
 <g stroke-width="0.4pt"> 
 </g> 
 </g> 
 <g> 
 <g transform="matrix(1.0,0.0,0.0,1.0,259.60773,-42.50006)"> 
 <g fill="rgb(0.0%,0.0%,0.0%)"> 
 <text style="stroke:none" transform="scale(1,-1) translate(39.75008,0)" text-anchor="middle"  font-size="10"> 
line width is 1.2pt</text> 
</g> 
 </g> 
 </g> 
 </g> 
 </g> 
 </g> 
 </g> 
 <g> 
 <g stroke-width="5.0pt"> 
 <path d=" M  170.71652 -60.00009 L  251.07475 -60.00009  " style="fill:none"/> 
 <g> 
 <g transform="matrix(1.0,0.0,0.0,1.0,251.07475,-60.00009)"> 
 <g> 
 <g stroke-width="4.00002pt"> 
 <g stroke-dasharray="none" stroke-dashoffset="0.0pt"> 
 <g stroke-linecap="round"> 
 <g stroke-linejoin="round"> 
 <path d=" M  -12.00005 16.00006 C  -11.00003 10.00003 0.0 1.0 3.0 0.0 C  0.0 -1.0 -11.00003 -10.00003 -12.00005 -16.00006  " style="fill:none"/> 
 </g> 
 </g> 
 </g> 
 </g> 
 </g> 
 </g> 
 </g> 
 <g> 
 <g stroke-width="0.4pt"> 
 <g> 
 <g stroke-width="0.4pt"> 
 </g> 
 </g> 
 <g> 
 <g transform="matrix(1.0,0.0,0.0,1.0,259.60773,-62.50009)"> 
 <g fill="rgb(0.0%,0.0%,0.0%)"> 
 <text style="stroke:none" transform="scale(1,-1) translate(35.86118,0)" text-anchor="middle"  font-size="10"> 
line width is 5pt</text> 
</g> 
 </g> 
 </g> 
 </g> 
 </g> 
 </g> 
 </g> 
 </g> 
 </g> 
 </g> 
 </g> 
 </g> 
 
                                                                                                       </g> 
</svg> 
