<svg xmlns="http://www.w3.org/2000/svg" xmlns:xlink="http://www.w3.org/1999/xlink" width="66.31656pt" height="37.8638pt" viewBox="-33.15828 -18.9319 66.31656 37.8638 "> 
<g transform="translate(0, 18.9319 ) scale(1,-1) translate(0,18.9319 )"> 
                  <g> 
 <g stroke="rgb(0.0%,0.0%,0.0%)"> 
 <g fill="rgb(0.0%,0.0%,0.0%)"> 
 <g stroke-width="0.4pt"> 
 <g> 
 <g> 
 <g stroke="rgb(50.0%,50.0%,100.0%)"> 
 <g fill="rgb(80.0003%,80.0003%,100.0%)"> 
 <path d=" M  -32.95828 -18.7319 M  -32.95828 -14.42636 L  -32.95828 14.42636 C  -32.95828 16.8159 -31.04228 18.7319 -28.65274 18.7319 L  28.65274 18.7319 C  31.04228 18.7319 32.95828 16.8159 32.95828 14.42636 L  32.95828 -14.42636 C  32.95828 -16.8159 31.04228 -18.7319 28.65274 -18.7319 L  -28.65274 -18.7319 C  -31.04228 -18.7319 -32.95828 -16.8159 -32.95828 -14.42636 Z M  32.95828 18.7319  " /> 
 </g> 
 </g> 
 </g> 
 </g> 
 <g> 
 <path d=" M  0.0 0.0 M  28.45274 0.0 C  28.45274 7.89552 15.79106 14.22636 0.0 14.22636 C  -15.79106 14.22636 -28.45274 7.89552 -28.45274 0.0 C  -28.45274 -7.89552 -15.79106 -14.22636 0.0 -14.22636 C  15.79106 -14.22636 28.45274 -7.89552 28.45274 0.0 Z M  0.0 0.0  " style="fill:none"/> 
 </g> 
 </g> 
 </g> 
 </g> 
 </g> 
 
                    </g> 
</svg> 
