<svg xmlns="http://www.w3.org/2000/svg" xmlns:xlink="http://www.w3.org/1999/xlink" width="74.5798pt" height="106.78972pt" viewBox="-26.17778 -94.30643 74.5798 106.78972 "> 
<g transform="translate(0, 12.48329 ) scale(1,-1) translate(0,94.30643 )"> 
                <g> 
 <g stroke="rgb(0.0%,0.0%,0.0%)"> 
 <g fill="rgb(0.0%,0.0%,0.0%)"> 
 <g stroke-width="0.4pt"> 
 <g> 
 </g> 
 <g> 
 <g> 
 <g> 
 <clipPath id="pgfcp93"> <path d=" M  -25.97778 -12.2833 L  -25.97778 12.2833 L  20.97778 12.2833 L  25.97778 7.2833 L  25.97778 -12.2833 Z M  20.97778 12.2833 L  20.97778 7.2833 L  25.97778 7.2833 L  20.97778 7.2833  "/> 
</clipPath> 
 <g clip-path="url(#pgfcp93)"> 
 <g transform="matrix(1,0,0,1,0.0,0.0)"> 
 <g transform="matrix(1.03932,0,0,0.49142,0.0,0.0)"> 
 <g transform="matrix(0.0,0.0,0.0,0.0,0.0,0.0)"> 
  <linearGradient id="pgfsh6" gradientTransform="rotate(90)"> 
 <stop offset=" 0.0" stop-color=" rgb(100.0%,100.0%,100.0%) "/> 
 <stop offset=" 0.25" stop-color=" rgb(100.0%,100.0%,100.0%) "/> 
 <stop offset=" 0.5" stop-color=" rgb(75.0%,75.0%,75.0%) "/> 
 <stop offset=" 0.75" stop-color=" rgb(50.0%,50.0%,50.0%) "/> 
 <stop offset=" 1.0" stop-color=" rgb(50.0%,50.0%,50.0%) "/> 
 </linearGradient> 
 <g transform="translate(-50.1875,-50.1875)"> 
 <rect width="100.375pt" height="100.375pt" style="fill:url(#pgfsh6); stroke:none"/> 
 </g> 
 </g> 
 </g> 
 </g> 
 </g> 
 </g> 
 <path d=" M  -25.97778 -12.2833 L  -25.97778 12.2833 L  20.97778 12.2833 L  25.97778 7.2833 L  25.97778 -12.2833 Z M  20.97778 12.2833 L  20.97778 7.2833 L  25.97778 7.2833 L  20.97778 7.2833  " style="fill:none"/> 
 <g> 
 <g transform="matrix(1.0,0.0,0.0,1.0,-17.1667,-3.47221)"> 
 <g fill="rgb(0.0%,0.0%,0.0%)"> 
 <text style="stroke:none" transform="scale(1,-1) translate(17.1667,0)" text-anchor="middle"  font-size="10"> 
Remark</text> 
</g> 
 </g> 
 </g> 
 </g> 
 <g> 
 <g fill="rgb(80.0003%,80.0003%,16.00037%)"> 
 <g> 
 <g fill="rgb(80.0003%,80.0003%,16.00037%)"> 
 <g> 
 <g stroke-width="1.4pt"> 
 <path d=" M  47.70203 -84.061 C  47.70203 -78.76337 33.07018 -74.51558 14.82204 -74.51558 C  -3.4261 -74.51558 -18.05795 -78.76337 -18.05795 -84.061 C  -18.05795 -89.35864 -3.4261 -93.60643 14.82204 -93.60643 C  33.07018 -93.60643 47.70203 -89.35864 47.70203 -84.061 Z M  14.82204 -84.061  " /> 
 <g stroke-width="0.6pt"> 
 <g stroke="rgb(100.0%,100.0%,100.0%)"> 
 <path d=" M  47.70203 -84.061 C  47.70203 -78.76337 33.07018 -74.51558 14.82204 -74.51558 C  -3.4261 -74.51558 -18.05795 -78.76337 -18.05795 -84.061 C  -18.05795 -89.35864 -3.4261 -93.60643 14.82204 -93.60643 C  33.07018 -93.60643 47.70203 -89.35864 47.70203 -84.061 Z M  14.82204 -84.061  " style="fill:none"/> 
 </g> 
 </g> 
 </g> 
 </g> 
 </g> 
 </g> 
 <g> 
 <g transform="matrix(1.0,0.0,0.0,1.0,-5.09464,-87.47766)"> 
 <g fill="rgb(0.0%,0.0%,0.0%)"> 
 <text style="stroke:none" transform="scale(1,-1) translate(19.91667,0)" text-anchor="middle"  font-size="10"> 
Use Case</text> 
</g> 
 </g> 
 </g> 
 </g> 
 </g> 
 <g> 
 <g stroke-dasharray="3.0pt,3.0pt" stroke-dashoffset="0.0pt"> 
 <path d=" M  2.16423 -12.2833 L  13.10687 -74.32779  " style="fill:none"/> 
 </g> 
 </g> 
 </g> 
 </g> 
 </g> 
 </g> 
 </g> 
 
                      </g> 
</svg> 
