<svg xmlns="http://www.w3.org/2000/svg" xmlns:xlink="http://www.w3.org/1999/xlink" width="28.45274pt" height="10.76385pt" viewBox="0.0 -2.15277 28.45274 10.76385 "> 
<g transform="translate(0, 8.61108 ) scale(1,-1) translate(0,2.15277 )"> 
        <g> 
 <g stroke="rgb(0.0%,0.0%,0.0%)"> 
 <g fill="rgb(0.0%,0.0%,0.0%)"> 
 <g stroke-width="0.4pt"> 
 <g> 
 </g> 
 <g> 
 <g stroke-width="0.4pt"> 
 <path d=" M  2.39996 2.15277 L  26.05278 2.15277  " style="fill:none"/> 
 <g> 
 <g transform="matrix(-1.0,0.0,0.0,-1.0,2.39996,2.15277)"> 
 <g> 
 <path d=" M  2.39996 0.0 C  1.39998 0.2 -0.4 0.59999 -1.59998 1.49997 C  -0.59999 0.4 -0.59999 -0.4 -1.59998 -1.49997 C  -0.4 -0.59999 1.39998 -0.2 2.39996 0.0  " style="stroke:none"/> 
 </g> 
 </g> 
 </g> 
 <g> 
 <g transform="matrix(1.0,0.0,0.0,1.0,26.05278,2.15277)"> 
 <g> 
 <path d=" M  2.39996 0.0 C  1.39998 0.2 -0.4 0.59999 -1.59998 1.49997 C  -0.59999 0.4 -0.59999 -0.4 -1.59998 -1.49997 C  -0.4 -0.59999 1.39998 -0.2 2.39996 0.0  " style="stroke:none"/> 
 </g> 
 </g> 
 </g> 
 </g> 
 </g> 
 </g> 
 </g> 
 </g> 
 </g> 
  </g> 
</svg> 
