<svg xmlns="http://www.w3.org/2000/svg" xmlns:xlink="http://www.w3.org/1999/xlink" width="85.42587pt" height="48.85274pt" viewBox="-0.2 -10.2 85.42587 48.85274 "> 
<g transform="translate(0, 38.65274 ) scale(1,-1) translate(0,10.2 )"> 
        <g> 
 <g stroke="rgb(0.0%,0.0%,0.0%)"> 
 <g fill="rgb(0.0%,0.0%,0.0%)"> 
 <g stroke-width="0.4pt"> 
 <g> 
 </g> 
 <g> 
 <path d=" M  0.0 28.45274 C  0.83328 34.00267 3.8916 38.45274 7.49985 38.45274 C  11.1081 38.45274 14.16641 34.00267 14.9997 28.45274 C  15.83298 22.90282 14.44122 18.45274 12.49954 18.45274 C  10.55786 18.45274 9.1661 22.90282 9.99939 28.45274 C  10.83328 34.00267 13.8916 38.45274 17.49985 38.45274 C  21.1081 38.45274 24.16641 34.00267 24.9997 28.45274 C  25.83298 22.90282 24.44122 18.45274 22.49954 18.45274 C  20.55786 18.45274 19.1661 22.90282 19.99939 28.45274 C  20.83328 34.00267 23.8916 38.45274 27.49985 38.45274 C  31.1081 38.45274 34.16641 34.00267 34.9997 28.45274 C  35.83298 22.90282 34.44122 18.45274 32.49954 18.45274 C  30.55786 18.45274 29.1661 22.90282 29.99939 28.45274 C  30.83328 34.00267 33.8916 38.45274 37.49985 38.45274 C  41.1081 38.45274 44.16641 34.00267 44.9997 28.45274 C  45.83298 22.90282 44.44122 18.45274 42.49954 18.45274 C  40.55786 18.45274 39.1661 22.90282 39.99939 28.45274 C  40.83328 34.00267 43.8916 38.45274 47.49985 38.45274 C  51.1081 38.45274 54.16641 34.00267 54.9997 28.45274 C  55.83298 22.90282 54.44122 18.45274 52.49954 18.45274 C  50.55786 18.45274 49.1661 22.90282 49.99939 28.45274 C  50.83328 34.00267 53.8916 38.45274 57.49985 38.45274 C  61.1081 38.45274 64.16641 34.00267 64.9997 28.45274 C  65.83298 22.90282 64.44122 18.45274 62.49954 18.45274 C  60.55786 18.45274 59.1661 22.90282 59.99939 28.45274 C  60.83328 34.00267 63.8916 38.45274 67.49985 38.45274 C  71.1081 38.45274 74.16641 34.00267 74.9997 28.45274 C  75.83298 22.90282 74.44122 18.45274 72.49954 18.45274 C  70.55786 18.45274 69.1661 22.90282 69.99939 28.45274 C  70.83328 34.00267 73.8916 38.45274 77.49985 38.45274 C  81.1081 38.45274 84.16641 34.00267 84.9997 28.45274 L  85.02588 28.45274  " style="fill:none"/> 
 <path d=" M  0.0 0.0 C  0.83328 5.54993 1.66656 10.0 2.49985 10.0 C  3.33313 10.0 4.16641 5.54993 4.9997 0.0 C  5.83298 -5.54993 6.66626 -10.0 7.49954 -10.0 C  8.33282 -10.0 9.1661 -5.54993 9.99939 0.0 C  10.83328 5.54993 11.66656 10.0 12.49985 10.0 C  13.33313 10.0 14.16641 5.54993 14.9997 0.0 C  15.83298 -5.54993 16.66626 -10.0 17.49954 -10.0 C  18.33282 -10.0 19.1661 -5.54993 19.99939 0.0 C  20.83328 5.54993 21.66656 10.0 22.49985 10.0 C  23.33313 10.0 24.16641 5.54993 24.9997 0.0 C  25.83298 -5.54993 26.66626 -10.0 27.49954 -10.0 C  28.33282 -10.0 29.1661 -5.54993 29.99939 0.0 C  30.83328 5.54993 31.66656 10.0 32.49985 10.0 C  33.33313 10.0 34.16641 5.54993 34.9997 0.0 C  35.83298 -5.54993 36.66626 -10.0 37.49954 -10.0 C  38.33282 -10.0 39.1661 -5.54993 39.99939 0.0 C  40.83328 5.54993 41.66656 10.0 42.49985 10.0 C  43.33313 10.0 44.16641 5.54993 44.9997 0.0 C  45.83298 -5.54993 46.66626 -10.0 47.49954 -10.0 C  48.33282 -10.0 49.1661 -5.54993 49.99939 0.0 C  50.83328 5.54993 51.66656 10.0 52.49985 10.0 C  53.33313 10.0 54.16641 5.54993 54.9997 0.0 C  55.83298 -5.54993 56.66626 -10.0 57.49954 -10.0 C  58.33282 -10.0 59.1661 -5.54993 59.99939 0.0 C  60.83328 5.54993 61.66656 10.0 62.49985 10.0 C  63.33313 10.0 64.16641 5.54993 64.9997 0.0 C  65.83298 -5.54993 66.66626 -10.0 67.49954 -10.0 C  68.33282 -10.0 69.1661 -5.54993 69.99939 0.0 C  70.83328 5.54993 71.66656 10.0 72.49985 10.0 C  73.33313 10.0 74.16641 5.54993 74.9997 0.0 C  75.83298 -5.54993 76.66626 -10.0 77.49954 -10.0 C  78.33282 -10.0 79.1661 -5.54993 79.99939 0.0 C  80.83328 5.54993 81.66656 10.0 82.49985 10.0 C  83.33313 10.0 84.16641 5.54993 84.9997 0.0 L  85.02588 0.0  " style="fill:none"/> 
 </g> 
 </g> 
 </g> 
 </g> 
 </g> 
 
                          </g> 
</svg> 
