<svg xmlns="http://www.w3.org/2000/svg" xmlns:xlink="http://www.w3.org/1999/xlink" width="279.23653pt" height="23.16183pt" viewBox="16.87183 -11.58092 279.23653 23.16183 "> 
<g transform="translate(0, 11.58092 ) scale(1,-1) translate(0,11.58092 )"> 
   <g> 
 <g stroke="rgb(0.0%,0.0%,0.0%)"> 
 <g fill="rgb(0.0%,0.0%,0.0%)"> 
 <g stroke-width="0.4pt"> 
 <g> 
 </g> 
 <g> 
 <path d=" M  28.45274 0.0 M  39.83366 0.0 C  39.83366 6.31631 34.76906 11.38092 28.45274 11.38092 C  22.13643 11.38092 17.07182 6.31631 17.07182 0.0 C  17.07182 -6.31631 22.13643 -11.38092 28.45274 -11.38092 C  34.76906 -11.38092 39.83366 -6.31631 39.83366 0.0 Z M  28.45274 0.0  " style="fill:none"/> 
 <path d=" M  56.90549 0.0 M  68.2864 0.0 C  68.2864 6.31631 63.2218 11.38092 56.90549 11.38092 C  50.58917 11.38092 45.52457 6.31631 45.52457 0.0 C  45.52457 -6.31631 50.58917 -11.38092 56.90549 -11.38092 C  63.2218 -11.38092 68.2864 -6.31631 68.2864 0.0 Z M  56.90549 0.0  " style="fill:none"/> 
 <path d=" M  85.35823 0.0 M  96.73915 0.0 C  96.73915 6.31631 91.67455 11.38092 85.35823 11.38092 C  79.04192 11.38092 73.97731 6.31631 73.97731 0.0 C  73.97731 -6.31631 79.04192 -11.38092 85.35823 -11.38092 C  91.67455 -11.38092 96.73915 -6.31631 96.73915 0.0 Z M  85.35823 0.0  " style="fill:none"/> 
 <path d=" M  113.81097 0.0 M  125.1919 0.0 C  125.1919 6.31631 120.12729 11.38092 113.81097 11.38092 C  107.49466 11.38092 102.43005 6.31631 102.43005 0.0 C  102.43005 -6.31631 107.49466 -11.38092 113.81097 -11.38092 C  120.12729 -11.38092 125.1919 -6.31631 125.1919 0.0 Z M  113.81097 0.0  " style="fill:none"/> 
 <path d=" M  142.26372 0.0 M  153.64464 0.0 C  153.64464 6.31631 148.58003 11.38092 142.26372 11.38092 C  135.9474 11.38092 130.8828 6.31631 130.8828 0.0 C  130.8828 -6.31631 135.9474 -11.38092 142.26372 -11.38092 C  148.58003 -11.38092 153.64464 -6.31631 153.64464 0.0 Z M  142.26372 0.0  " style="fill:none"/> 
 <path d=" M  170.71646 0.0 M  182.09738 0.0 C  182.09738 6.31631 177.03278 11.38092 170.71646 11.38092 C  164.40015 11.38092 159.33554 6.31631 159.33554 0.0 C  159.33554 -6.31631 164.40015 -11.38092 170.71646 -11.38092 C  177.03278 -11.38092 182.09738 -6.31631 182.09738 0.0 Z M  170.71646 0.0  " style="fill:none"/> 
 <path d=" M  199.1692 0.0 M  210.55013 0.0 C  210.55013 6.31631 205.48552 11.38092 199.1692 11.38092 C  192.85289 11.38092 187.78828 6.31631 187.78828 0.0 C  187.78828 -6.31631 192.85289 -11.38092 199.1692 -11.38092 C  205.48552 -11.38092 210.55013 -6.31631 210.55013 0.0 Z M  199.1692 0.0  " style="fill:none"/> 
 <path d=" M  227.62195 0.0 M  239.00287 0.0 C  239.00287 6.31631 233.93826 11.38092 227.62195 11.38092 C  221.30563 11.38092 216.24103 6.31631 216.24103 0.0 C  216.24103 -6.31631 221.30563 -11.38092 227.62195 -11.38092 C  233.93826 -11.38092 239.00287 -6.31631 239.00287 0.0 Z M  227.62195 0.0  " style="fill:none"/> 
 <path d=" M  256.07469 0.0 M  267.45561 0.0 C  267.45561 6.31631 262.391 11.38092 256.07469 11.38092 C  249.75838 11.38092 244.69377 6.31631 244.69377 0.0 C  244.69377 -6.31631 249.75838 -11.38092 256.07469 -11.38092 C  262.391 -11.38092 267.45561 -6.31631 267.45561 0.0 Z M  256.07469 0.0  " style="fill:none"/> 
 <path d=" M  284.52744 0.0 M  295.90836 0.0 C  295.90836 6.31631 290.84375 11.38092 284.52744 11.38092 C  278.21112 11.38092 273.14651 6.31631 273.14651 0.0 C  273.14651 -6.31631 278.21112 -11.38092 284.52744 -11.38092 C  290.84375 -11.38092 295.90836 -6.31631 295.90836 0.0 Z M  284.52744 0.0  " style="fill:none"/> 
 </g> 
 </g> 
 </g> 
 </g> 
 </g> 
 
                                                                                    </g> 
</svg> 
