<svg xmlns="http://www.w3.org/2000/svg" xmlns:xlink="http://www.w3.org/1999/xlink" width="70.93256pt" height="70.40475pt" viewBox="-7.08298 -35.20238 70.93256 70.40475 "> 
<g transform="translate(0, 35.20238 ) scale(1,-1) translate(0,35.20238 )"> 
          <g> 
 <g stroke="rgb(0.0%,0.0%,0.0%)"> 
 <g fill="rgb(0.0%,0.0%,0.0%)"> 
 <g stroke-width="0.4pt"> 
 <g> 
 </g> 
 <g> 
 <g> 
 <g> 
 <g transform="matrix(1.0,0.0,0.0,1.0,-3.75,-3.41666)"> 
 <g fill="rgb(0.0%,0.0%,0.0%)"> 
 <text style="stroke:none" transform="scale(1,-1) translate(3.75,0)" text-anchor="middle"  font-size="10"> 
A</text> 
</g> 
 </g> 
 </g> 
 </g> 
 <g> 
 <g> 
 <g transform="matrix(1.0,0.0,0.0,1.0,53.36382,25.03609)"> 
 <g fill="rgb(0.0%,0.0%,0.0%)"> 
 <text style="stroke:none" transform="scale(1,-1) translate(3.54167,0)" text-anchor="middle"  font-size="10"> 
B</text> 
</g> 
 </g> 
 </g> 
 </g> 
 <g> 
 <g> 
 <g transform="matrix(1.0,0.0,0.0,1.0,53.29437,-31.8694)"> 
 <g fill="rgb(0.0%,0.0%,0.0%)"> 
 <text style="stroke:none" transform="scale(1,-1) translate(3.61111,0)" text-anchor="middle"  font-size="10"> 
C</text> 
</g> 
 </g> 
 </g> 
 </g> 
 <path d=" M  7.28297 3.64125 M  6.16478 5.8773 L  9.51903 4.75945 L  8.40117 1.4052 Z M  15.10902 10.35011 L  18.46327 9.23225 L  17.34541 5.878 Z M  24.05327 14.82292 L  27.40752 13.70506 L  26.28966 10.35081 Z M  32.99751 19.29573 L  36.35176 18.17787 L  35.2339 14.82362 Z M  41.94176 23.76854 L  45.296 22.65068 L  44.17815 19.29643 Z M  49.82555 24.9158  " style="fill:none"/> 
 <g> 
 <g stroke="rgb(100.0%,0.0%,0.0%)"> 
 <g fill="rgb(100.0%,0.0%,0.0%)"> 
 <g stroke-width="0.8pt"> 
 <path d=" M  7.28297 -3.64171 M  8.4011 -1.40565 L  14.43837 -7.21971 L  6.16486 -5.87776 Z M  17.34534 -5.87816 L  23.38261 -11.69221 L  15.1091 -10.35027 Z M  26.28958 -10.35066 L  32.32686 -16.16472 L  24.05334 -14.82277 Z M  35.23383 -14.82317 L  41.2711 -20.63722 L  32.99759 -19.29527 Z M  49.75612 -24.88008  " style="fill:none"/> 
 </g> 
 </g> 
 </g> 
 </g> 
 </g> 
 </g> 
 </g> 
 </g> 
 </g> 
 
                     </g> 
</svg> 
