<svg xmlns="http://www.w3.org/2000/svg" xmlns:xlink="http://www.w3.org/1999/xlink" width="287.99155pt" height="59.89592pt" viewBox="-1.73206 -30.44405 287.99155 59.89592 "> 
<g transform="translate(0, 29.45187 ) scale(1,-1) translate(0,30.44405 )"> 
         <g> 
 <g stroke="rgb(0.0%,0.0%,0.0%)"> 
 <g fill="rgb(0.0%,0.0%,0.0%)"> 
 <g stroke-width="0.4pt"> 
 <g> 
 </g> 
 <g> 
 <g> 
 <g fill="rgb(80.0003%,80.0003%,100.0%)"> 
 <path d=" M  0.0 0.0 L  14.97528 14.29323 L  29.95013 24.71771 L  44.92542 28.45187 L  59.90028 24.48456 L  74.87556 13.89034 L  89.85042 -0.46367 L  104.82571 -14.69221 L  119.801 -24.94434 L  134.77628 -28.44405 L  149.75114 -24.24535 L  164.72643 -13.48396 L  179.7017 0.92735 L  194.677 15.08772 L  209.65186 25.16402 L  224.62714 28.42929 L  239.602 23.99918 L  254.57729 13.07326 L  269.55214 -1.39102 L  284.52744 -15.4789 L  284.52744 0.0 L  0.0 0.0  " style="stroke:none"/> 
 <g> 
 <g stroke="rgb(0.0%,0.0%,100.0%)"> 
 <g fill="rgb(0.0%,0.0%,100.0%)"> 
 <path d=" M  0.0 -2.0 L  -1.73206 1.0 L  1.73206 1.0 Z  " /> 
 <path d=" M  14.97528 12.29323 L  13.24323 15.29323 L  16.70734 15.29323 Z  " /> 
 <path d=" M  29.95013 22.71771 L  28.21808 25.71771 L  31.68219 25.71771 Z  " /> 
 <path d=" M  44.92542 26.45187 L  43.19336 29.45187 L  46.65747 29.45187 Z  " /> 
 <path d=" M  59.90028 22.48456 L  58.16823 25.48456 L  61.63234 25.48456 Z  " /> 
 <path d=" M  74.87556 11.89034 L  73.14351 14.89034 L  76.60762 14.89034 Z  " /> 
 <path d=" M  89.85042 -2.46367 L  88.11836 0.53633 L  91.58247 0.53633 Z  " /> 
 <path d=" M  104.82571 -16.69221 L  103.09366 -13.69221 L  106.55777 -13.69221 Z  " /> 
 <path d=" M  119.801 -26.94434 L  118.06894 -23.94434 L  121.53305 -23.94434 Z  " /> 
 <path d=" M  134.77628 -30.44405 L  133.04422 -27.44405 L  136.50833 -27.44405 Z  " /> 
 <path d=" M  149.75114 -26.24535 L  148.01909 -23.24535 L  151.4832 -23.24535 Z  " /> 
 <path d=" M  164.72643 -15.48396 L  162.99437 -12.48396 L  166.45848 -12.48396 Z  " /> 
 <path d=" M  179.7017 -1.07265 L  177.96965 1.92735 L  181.43376 1.92735 Z  " /> 
 <path d=" M  194.677 13.08772 L  192.94495 16.08772 L  196.40906 16.08772 Z  " /> 
 <path d=" M  209.65186 23.16402 L  207.9198 26.16402 L  211.38391 26.16402 Z  " /> 
 <path d=" M  224.62714 26.42929 L  222.89508 29.42929 L  226.35919 29.42929 Z  " /> 
 <path d=" M  239.602 21.99918 L  237.86995 24.99918 L  241.33406 24.99918 Z  " /> 
 <path d=" M  254.57729 11.07326 L  252.84523 14.07326 L  256.30934 14.07326 Z  " /> 
 <path d=" M  269.55214 -3.39102 L  267.82008 -0.39102 L  271.2842 -0.39102 Z  " /> 
 <path d=" M  284.52744 -17.4789 L  282.79538 -14.4789 L  286.25949 -14.4789 Z  " /> 
 </g> 
 </g> 
 </g> 
 </g> 
 </g> 
 </g> 
 </g> 
 </g> 
 </g> 
 </g> 
 
                                                                                      </g> 
</svg> 
