<svg xmlns="http://www.w3.org/2000/svg" xmlns:xlink="http://www.w3.org/1999/xlink" width="70.86311pt" height="14.0207pt" viewBox="-7.08298 -6.74963 70.86311 14.0207 "> 
<g transform="translate(0, 7.27107 ) scale(1,-1) translate(0,6.74963 )"> 
          <g> 
 <g stroke="rgb(0.0%,0.0%,0.0%)"> 
 <g fill="rgb(0.0%,0.0%,0.0%)"> 
 <g stroke-width="0.4pt"> 
 <g> 
 </g> 
 <g> 
 <g> 
 <g> 
 <g transform="matrix(1.0,0.0,0.0,1.0,-3.75,-3.41666)"> 
 <g fill="rgb(0.0%,0.0%,0.0%)"> 
 <text style="stroke:none" transform="scale(1,-1) translate(3.75,0)" text-anchor="middle"  font-size="10"> 
A</text> 
</g> 
 </g> 
 </g> 
 </g> 
 <g> 
 <g> 
 <g transform="matrix(1.0,0.0,0.0,1.0,53.36382,-3.41666)"> 
 <g fill="rgb(0.0%,0.0%,0.0%)"> 
 <text style="stroke:none" transform="scale(1,-1) translate(3.54167,0)" text-anchor="middle"  font-size="10"> 
B</text> 
</g> 
 </g> 
 </g> 
 </g> 
 <path d=" M  7.28297 0.0 M  7.28297 0.0 L  14.35405 7.07108 M  17.28297 0.0 L  24.35405 7.07108 M  27.28297 0.0 L  34.35405 7.07108 M  37.28297 0.0 L  44.35405 7.07108 M  49.66505 0.0  " style="fill:none"/> 
 <g> 
 <g stroke="rgb(100.0%,0.0%,0.0%)"> 
 <g fill="rgb(100.0%,0.0%,0.0%)"> 
 <g stroke-width="0.8pt"> 
 <path d=" M  7.28297 0.0 M  7.28297 0.0 L  16.67995 3.42026 M  17.28297 0.0 L  26.67995 3.42026 M  27.28297 0.0 L  36.67995 3.42026 M  37.28297 0.0 L  46.67995 3.42026 M  49.66505 0.0  " style="fill:none"/> 
 </g> 
 </g> 
 </g> 
 </g> 
 </g> 
 </g> 
 </g> 
 </g> 
 </g> 
          </g> 
</svg> 
