<svg xmlns="http://www.w3.org/2000/svg" xmlns:xlink="http://www.w3.org/1999/xlink" width="85.75822pt" height="28.85274pt" viewBox="-0.2 -0.2 85.75822 28.85274 "> 
<g transform="translate(0, 28.65274 ) scale(1,-1) translate(0,0.2 )"> 
        <g> 
 <g stroke="rgb(0.0%,0.0%,0.0%)"> 
 <g fill="rgb(0.0%,0.0%,0.0%)"> 
 <g stroke-width="0.4pt"> 
 <g> 
 </g> 
 <g> 
 <path d=" M  0.0 0.0 M  0.0 0.0 L  0.0 28.45274 L  85.35823 28.45274 L  85.35823 0.0 Z M  85.35823 28.45274 M  0.0 0.0 M  0.0 0.0 M  0.0 0.0 L  1.76776 1.76776 M  0.0 10.0 L  1.76776 11.76776 M  0.0 20.0 L  1.76776 21.76776 M  0.0 28.3418 M  0.0 28.3418 L  1.77002 26.5763 M  10.0 28.35461 L  11.77002 26.58911 M  20.0 28.36743 L  21.77002 26.60193 M  30.0 28.38025 L  31.77002 26.61475 M  40.0 28.39307 L  41.77002 26.62756 M  50.0 28.40588 L  51.77002 26.64038 M  60.0 28.4187 L  61.77002 26.6532 M  70.0 28.43152 L  71.77002 26.66602 M  80.0 28.44434 L  81.77002 26.67883 M  85.02588 28.45078 M  85.02588 28.45078 L  83.27878 26.66254 M  85.1423 18.45123 L  83.3952 16.663 M  85.25873 8.45169 L  83.51163 6.66345 M  85.3571 0.0014 M  85.3571 0.0014 L  83.58934 1.76917 M  75.3571 0.0014 L  73.58934 1.76917 M  65.3571 0.0014 L  63.58934 1.76917 M  55.3571 0.0014 L  53.58934 1.76917 M  45.3571 0.0014 L  43.58934 1.76917 M  35.3571 0.0014 L  33.58934 1.76917 M  25.3571 0.0014 L  23.58934 1.76917 M  15.3571 0.0014 L  13.58934 1.76917 M  5.3571 0.0014 L  3.58934 1.76917 M  0.3322 0.0014 Z M  85.35823 28.45274  " style="fill:none"/> 
 </g> 
 </g> 
 </g> 
 </g> 
 </g> 
                   </g> 
</svg> 
