<svg xmlns="http://www.w3.org/2000/svg" xmlns:xlink="http://www.w3.org/1999/xlink" width="85.6513pt" height="57.20152pt" viewBox="-0.09999 -0.09999 85.6513 57.20152 "> 
<g transform="translate(0, 57.10153 ) scale(1,-1) translate(0,0.09999 )"> 
        <g> 
 <g stroke="rgb(0.0%,0.0%,0.0%)"> 
 <g fill="rgb(0.0%,0.0%,0.0%)"> 
 <g stroke-width="0.4pt"> 
 <g> 
 </g> 
 <g> 
 <g> 
 <g stroke="rgb(50.0%,50.0%,50.0%)"> 
 <g fill="rgb(50.0%,50.0%,50.0%)"> 
 <g stroke-width="0.2pt"> 
 <path d=" M  0.0 0.0 M  0.0 0.0 L  85.35823 0.0 M  0.0 28.45274 L  85.35823 28.45274 M  0.0 56.8955 L  85.35823 56.8955 M  0.0 0.0 L  0.0 56.90549 M  28.45274 0.0 L  28.45274 56.90549 M  56.90549 0.0 L  56.90549 56.90549 M  85.34824 0.0 L  85.34824 56.90549  " style="fill:none"/> 
 </g> 
 </g> 
 </g> 
 </g> 
 <path d=" M  28.45274 28.45274 L  29.57079 31.80681 L  32.92487 30.68877 L  36.27893 29.57072 L  37.39699 32.92479 L  38.51503 36.27885 L  41.86911 35.16081 L  45.22318 34.04277 L  46.34123 37.39684 L  47.45927 40.7509 L  50.81335 39.63286 L  54.16742 38.51482 L  55.28548 41.86888 L  56.40352 45.22295 L  59.7576 44.1049 L  63.11166 42.98686 L  64.22972 46.34093 L  65.34776 49.69499 L  68.70184 48.57695 L  72.05591 47.45891 L  73.17397 50.81297 L  74.292 54.16704 L  77.64609 53.049 L  81.00015 51.93095 L  82.11821 55.28502 L  85.35132 56.90154  " style="fill:none"/> 
 </g> 
 </g> 
 </g> 
 </g> 
 </g> 
                   </g> 
</svg> 
