<svg xmlns="http://www.w3.org/2000/svg" xmlns:xlink="http://www.w3.org/1999/xlink" width="78.13446pt" height="78.13446pt" viewBox="-28.65274 -0.2 78.13446 78.13446 "> 
<g transform="translate(0, 77.93446 ) scale(1,-1) translate(0,0.2 )"> 
                 <g> 
 <g stroke="rgb(0.0%,0.0%,0.0%)"> 
 <g fill="rgb(0.0%,0.0%,0.0%)"> 
 <g stroke-width="0.4pt"> 
 <g> 
 </g> 
 <g> 
 <path d=" M  0.0 0.0 M  0.0 0.0 L  49.28172 28.45274 M  -1.42262 2.46407 L  47.8591 30.91681 M  -2.84526 4.92815 L  46.43646 33.38089 M  -4.26788 7.39221 L  45.01384 35.84496 M  -5.69052 9.8563 L  43.5912 38.30904 M  -7.11314 12.32037 L  42.16858 40.77312 M  -8.53578 14.78444 L  40.74594 43.23718 M  -9.9584 17.24852 L  39.32332 45.70126 M  -11.38104 19.71259 L  37.90068 48.16533 M  -12.80367 22.17667 L  36.47806 50.62941 M  -14.2263 24.64075 L  35.05542 53.09349 M  -15.64893 27.10481 L  33.6328 55.55756 M  -17.07156 29.5689 L  32.21016 58.02164 M  -18.49419 32.03296 L  30.78754 60.4857 M  -19.91682 34.49704 L  29.3649 62.94978 M  -21.33945 36.96112 L  27.94228 65.41386 M  -22.76208 39.42519 L  26.51964 67.87793 M  -24.18471 41.88927 L  25.09702 70.34201 M  -25.60735 44.35335 L  23.67438 72.80609 M  -27.02997 46.81741 L  22.25175 75.27016 M  -28.4526 49.2815 L  20.82912 77.73424 M  0.0 0.0 L  -28.45274 49.28172 M  2.46407 1.42262 L  -25.98868 50.70435 M  4.92815 2.84526 L  -23.5246 52.12698 M  7.39221 4.26788 L  -21.06053 53.5496 M  9.8563 5.69052 L  -18.59645 54.97224 M  12.32037 7.11314 L  -16.13237 56.39487 M  14.78444 8.53578 L  -13.6683 57.8175 M  17.24852 9.9584 L  -11.20422 59.24013 M  19.71259 11.38104 L  -8.74016 60.66277 M  22.17667 12.80367 L  -6.27608 62.08539 M  24.64075 14.2263 L  -3.812 63.50803 M  27.10481 15.64893 L  -1.34793 64.93065 M  29.5689 17.07156 L  1.11615 66.35329 M  32.03296 18.49419 L  3.58022 67.77591 M  34.49704 19.91682 L  6.0443 69.19855 M  36.96112 21.33945 L  8.50838 70.62117 M  39.42519 22.76208 L  10.97244 72.04381 M  41.88927 24.18471 L  13.43652 73.46643 M  44.35335 25.60735 L  15.9006 74.88907 M  46.81741 27.02997 L  18.36467 76.31169 M  49.2815 28.4526 L  20.82875 77.73433  " style="fill:none"/> 
 </g> 
 </g> 
 </g> 
 </g> 
 </g> 
        </g> 
</svg> 
