<svg xmlns="http://www.w3.org/2000/svg" xmlns:xlink="http://www.w3.org/1999/xlink" width="89.10129pt" height="182.48958pt" viewBox="-0.2 -142.2637 89.10129 182.48958 "> 
<g transform="translate(0, 40.22588 ) scale(1,-1) translate(0,142.2637 )"> 
        <g> 
 <g stroke="rgb(0.0%,0.0%,0.0%)"> 
 <g fill="rgb(0.0%,0.0%,0.0%)"> 
 <g stroke-width="0.4pt"> 
 <g> 
 </g> 
 <g> 
 <path d=" M  0.0 0.0 L  5.0 0.0 L  5.0 5.0 L  10.0 5.0 L  10.0 0.0 L  10.0 -10.0 L  15.0 -10.0 L  15.0 0.0 L  15.0 15.0 L  20.0 15.0 L  20.0 0.0 L  20.0 -20.0 L  25.0 -20.0 L  25.0 0.0 L  25.0 25.0 L  30.0 25.0 L  30.0 0.0 L  30.0 -30.0 L  35.0 -30.0 L  35.0 0.0 L  35.0 35.0 L  40.0 35.0 L  40.0 0.0 L  40.0 -40.0 L  45.0 -40.0 L  45.0 0.0 L  45.0 40.02588 L  50.0 40.02588 L  50.0 0.0 L  50.0 -35.02588 L  55.0 -35.02588 L  55.0 0.0 L  55.0 30.02588 L  60.0 30.02588 L  60.0 0.0 L  60.0 -25.02588 L  65.0 -25.02588 L  65.0 0.0 L  65.0 20.02588 L  70.0 20.02588 L  70.0 0.0 L  70.0 -15.02588 L  75.0 -15.02588 L  75.0 0.0 L  75.0 10.02588 L  80.0 10.02588 L  80.0 0.0 L  80.0 -5.02588 L  85.0 -5.02588 L  85.0 0.0 L  85.02588 0.0  " style="fill:none"/> 
 <g> 
 <g stroke="rgb(100.0%,50.0%,50.0%)"> 
 <g fill="rgb(100.0%,50.0%,50.0%)"> 
 <path d=" M  15.64061 -58.3197 L  16.34766 -59.02681 C  17.13254 -59.81168 18.39127 -59.81168 19.17615 -59.02681 L  19.8832 -58.3197 C  20.66808 -57.53484 21.9268 -57.53484 22.71169 -58.3197 L  23.41873 -59.02681 C  24.20361 -59.81168 24.20361 -61.07037 23.41873 -61.85524 L  22.71169 -62.56235 C  21.9268 -63.34721 20.66809 -64.60591 19.88322 -65.39078 L  15.64058 -69.63342 C  14.85571 -70.41829 14.85573 -71.67699 15.64061 -72.46185 L  16.34766 -73.16896 C  17.13254 -73.95383 18.39125 -73.95383 19.17612 -73.16896 L  23.41876 -68.92632 C  24.20363 -68.14145 25.46237 -66.88275 26.24731 -66.09789 L  34.02525 -58.3197 C  34.8102 -57.53484 36.06895 -57.53484 36.85384 -58.3197 L  37.56088 -59.02681 C  38.34576 -59.81168 38.34573 -61.07037 37.56079 -61.85524 L  29.78285 -69.63342 C  28.99791 -70.41829 27.73917 -71.67699 26.9543 -72.46185 L  15.64058 -83.77557 C  14.85571 -84.56044 14.85573 -85.81914 15.64061 -86.604 L  16.34766 -87.31111 C  17.13254 -88.09598 18.39125 -88.09598 19.17612 -87.31111 L  30.48984 -75.99739 C  31.2747 -75.21252 32.53342 -73.95383 33.31833 -73.16896 L  48.16747 -58.3197 C  48.95238 -57.53484 50.2111 -57.53484 50.99599 -58.3197 L  51.70303 -59.02681 C  52.48792 -59.81168 52.48792 -61.07037 51.703 -61.85524 L  36.85387 -76.7045 C  36.06895 -77.48936 34.81024 -78.74806 34.02538 -79.53293 L  15.64058 -97.91772 C  14.85571 -98.70259 14.85573 -99.96129 15.64061 -100.74615 L  16.34766 -101.45326 C  17.13254 -102.23813 18.39125 -102.23813 19.17612 -101.45326 L  37.56091 -83.06847 C  38.34578 -82.2836 39.60449 -81.0249 40.3894 -80.24004 L  62.30962 -58.3197 C  63.09453 -57.53484 64.35326 -57.53484 65.13814 -58.3197 L  65.84518 -59.02681 C  66.63007 -59.81168 66.63007 -61.07037 65.84515 -61.85524 L  43.92494 -83.77557 C  43.14003 -84.56044 41.88132 -85.81914 41.09645 -86.604 L  15.64058 -112.05988 C  14.85571 -112.84474 14.85573 -114.10344 15.64061 -114.8883 L  16.34766 -115.59541 C  17.13254 -116.38028 18.39125 -116.38028 19.17612 -115.59541 L  44.63199 -90.13954 C  45.41685 -89.35468 46.67557 -88.09598 47.46048 -87.31111 L  76.45177 -58.3197 C  77.23668 -57.53484 78.4954 -57.53484 79.28029 -58.3197 L  79.98734 -59.02681 C  80.77222 -59.81168 80.77222 -61.07037 79.9873 -61.85524 L  50.99602 -90.84665 C  50.2111 -91.63152 48.9524 -92.89021 48.16753 -93.67508 L  15.64058 -126.20203 C  14.85571 -126.9869 14.85573 -128.24559 15.64061 -129.03046 L  16.34766 -129.73756 C  17.13254 -130.52243 18.39125 -130.52243 19.17612 -129.73756 L  51.70306 -97.21062 C  52.48793 -96.42575 53.74664 -95.16705 54.53156 -94.38219 L  83.95148 -64.96214 C  84.73639 -64.17728 85.99512 -64.17728 86.78 -64.96214 L  87.48705 -65.66925 C  88.27193 -66.45412 88.27193 -67.71281 87.48701 -68.49768 L  58.0671 -97.91772 C  57.28218 -98.70259 56.02345 -99.96129 55.23854 -100.74615 L  29.35416 -126.63066 C  28.56924 -127.41553 28.56924 -128.67422 29.35413 -129.45909 L  30.06117 -130.1662 C  30.84605 -130.95107 32.10478 -130.95107 32.8897 -130.1662 L  58.77408 -104.2817 C  59.55899 -103.49683 60.8177 -102.23813 61.60257 -101.45326 L  83.95154 -79.1043 C  84.7364 -78.31943 85.99512 -78.31943 86.78 -79.1043 L  87.48705 -79.8114 C  88.27193 -80.59627 88.27194 -81.85497 87.48708 -82.63983 L  65.1381 -104.9888 C  64.35324 -105.77367 63.09453 -107.03236 62.30965 -107.81723 L  43.49628 -126.63066 C  42.7114 -127.41553 42.7114 -128.67422 43.49628 -129.45909 L  44.20332 -130.1662 C  44.9882 -130.95107 46.24693 -130.95107 47.03181 -130.1662 L  65.84518 -111.35277 C  66.63007 -110.5679 67.8888 -109.3092 68.67368 -108.52434 L  83.9515 -93.24644 C  84.73639 -92.46158 85.99512 -92.46158 86.78 -93.24644 L  87.48705 -93.95355 C  88.27193 -94.73842 88.27193 -95.99712 87.48705 -96.78198 L  72.20921 -112.05988 C  71.42433 -112.84474 70.16557 -114.10344 69.38063 -114.8883 L  57.63852 -126.63066 C  56.85358 -127.41553 56.85355 -128.67422 57.63843 -129.45909 L  58.34547 -130.1662 C  59.13036 -130.95107 60.38911 -130.95107 61.17406 -130.1662 L  72.91617 -118.42384 C  73.70111 -117.63898 74.95985 -116.38028 75.74472 -115.59541 L  83.95154 -107.3886 C  84.7364 -106.60373 85.99512 -106.60373 86.78 -107.3886 L  87.48705 -108.0957 C  88.27193 -108.88057 88.27194 -110.13927 87.48708 -110.92413 L  79.28026 -119.13095 C  78.49539 -119.91582 77.23668 -121.17451 76.45177 -121.95938 L  71.78061 -126.63066 C  70.9957 -127.41553 70.9957 -128.67422 71.78058 -129.45909 L  72.48763 -130.1662 C  73.2725 -130.95107 74.53123 -130.95107 75.31615 -130.1662 L  79.9873 -125.49492 C  80.77222 -124.71005 82.03094 -123.45135 82.81586 -122.66649 L  83.95148 -121.53075 C  84.73639 -120.74588 85.99512 -120.74588 86.78 -121.53075 L  87.48705 -122.23785 C  88.27193 -123.02272 88.27193 -124.28142 87.48701 -125.06628 L  86.3514 -126.20203 C  85.56648 -126.9869 85.56651 -128.24559 86.35146 -129.03046 L  83.95142 -126.63066 C  84.73636 -127.41553 85.36528 -128.93489 85.36472 -130.04488 L  85.35925 -140.2637 C  85.35869 -141.37369 84.4682 -142.2637 83.35822 -142.2637 L  2.0 -142.2637 C  0.89001 -142.2637 0.0 -141.37369 0.0 -140.2637 L  0.0 -58.90549 C  0.0 -57.7955 0.89001 -56.90549 2.0 -56.90549 L  12.22636 -56.90549 C  13.33635 -56.90549 14.85573 -57.53484 15.64061 -58.3197 Z  " style="stroke:none"/> 
 </g> 
 </g> 
 </g> 
 </g> 
 </g> 
 </g> 
 </g> 
 </g> 
 
                           </g> 
</svg> 
