<svg xmlns="http://www.w3.org/2000/svg" xmlns:xlink="http://www.w3.org/1999/xlink" width="56.90549pt" height="56.90549pt" viewBox="-28.45274 -28.45274 56.90549 56.90549 "> 
<g transform="translate(0, 28.45274 ) scale(1,-1) translate(0,28.45274 )"> 
                 <g> 
 <g stroke="rgb(0.0%,0.0%,0.0%)"> 
 <g fill="rgb(0.0%,0.0%,0.0%)"> 
 <g stroke-width="0.4pt"> 
 <g> 
 <g> 
 <g stroke="rgb(100.0%,100.0%,0.0%)"> 
 <g fill="rgb(100.0%,100.0%,0.0%)"> 
 <path d=" M  -28.45274 -28.45274 M  -28.45274 -28.45274 L  -28.45274 28.45274 L  28.45274 28.45274 L  28.45274 -28.45274 Z M  28.45274 28.45274  " style="stroke:none"/> 
 </g> 
 </g> 
 </g> 
 <g> 
 <g stroke="rgb(0.0%,0.0%,0.0%)"> 
 <g fill="rgb(0.0%,0.0%,0.0%)"> 
 <path d=" M  -22.76227 -22.76227 M  -22.76227 -22.76227 L  -22.76227 22.76227 L  22.76227 22.76227 L  22.76227 -22.76227 Z M  22.76227 22.76227  " style="stroke:none"/> 
 </g> 
 </g> 
 </g> 
 </g> 
 <g> 
 <g> 
 <g stroke="rgb(0.0%,0.0%,100.0%)"> 
 <g fill="rgb(0.0%,0.0%,100.0%)"> 
 <path d=" M  0.0 0.0 M  28.45274 0.0 C  28.45274 15.79106 15.79106 28.45274 0.0 28.45274 C  -15.79106 28.45274 -28.45274 15.79106 -28.45274 0.0 C  -28.45274 -15.79106 -15.79106 -28.45274 0.0 -28.45274 C  15.79106 -28.45274 28.45274 -15.79106 28.45274 0.0 Z M  0.0 0.0  " style="stroke:none"/> 
 </g> 
 </g> 
 </g> 
 <g> 
 <g stroke="rgb(50.0%,50.0%,100.0%)"> 
 <g fill="rgb(50.0%,50.0%,100.0%)"> 
 <path d=" M  -14.22636 -28.45274 M  -14.22636 -28.45274 L  -14.22636 28.45274 L  14.22636 28.45274 L  14.22636 -28.45274 Z M  14.22636 28.45274  " style="stroke:none"/> 
 </g> 
 </g> 
 </g> 
 </g> 
 <g> 
 <g> 
 <g stroke="rgb(100.0%,100.0%,100.0%)"> 
 <g fill="rgb(100.0%,100.0%,100.0%)"> 
 <g> 
 <g stroke="rgb(100.0%,100.0%,100.0%)"> 
 <g fill="rgb(100.0%,100.0%,100.0%)"> 
 </g> 
 </g> 
 </g> 
 <g> 
 <g transform="matrix(1.0,0.0,0.0,1.0,-23.50006,-2.5)"> 
 <g fill="rgb(100.0%,100.0%,100.0%)"> 
 <text style="stroke:none" transform="scale(1,-1) translate(23.50006,0)" text-anchor="middle"  font-size="10"> 
foreground</text> 
</g> 
 </g> 
 </g> 
 </g> 
 </g> 
 </g> 
 </g> 
 </g> 
 </g> 
 </g> 
 </g> 
 
                 </g> 
</svg> 
