<svg xmlns="http://www.w3.org/2000/svg" xmlns:xlink="http://www.w3.org/1999/xlink" width="88.36203pt" height="113.5372pt" viewBox="-0.2 -56.7686 88.36203 113.5372 "> 
<g transform="translate(0, 56.7686 ) scale(1,-1) translate(0,56.7686 )"> 
        <g> 
 <g stroke="rgb(0.0%,0.0%,0.0%)"> 
 <g fill="rgb(0.0%,0.0%,0.0%)"> 
 <g stroke-width="0.4pt"> 
 <g> 
 </g> 
 <g> 
 <path d=" M  0.0 0.0 M  7.07108 7.07108 C  10.99525 3.1469 10.99525 -3.1469 7.07108 -7.07108 M  14.14215 14.14215 C  21.99051 6.2938 21.99051 -6.2938 14.14215 -14.14215 M  21.21323 21.21323 C  32.98576 9.44069 32.98576 -9.44069 21.21323 -21.21323 M  28.2843 28.2843 C  43.98102 12.58759 43.98102 -12.58759 28.2843 -28.2843 M  35.35538 35.35538 C  54.97627 15.73448 54.97627 -15.73448 35.35538 -35.35538 M  42.42645 42.42645 C  65.97153 18.88138 65.97153 -18.88138 42.42645 -42.42645 M  49.49753 49.49753 C  76.96678 22.02827 76.96678 -22.02827 49.49753 -49.49753 M  56.5686 56.5686 C  87.96204 25.17517 87.96204 -25.17517 56.5686 -56.5686 M  85.02588 0.0  " style="fill:none"/> 
 </g> 
 </g> 
 </g> 
 </g> 
 </g> 
 
                           </g> 
</svg> 
