<svg xmlns="http://www.w3.org/2000/svg" xmlns:xlink="http://www.w3.org/1999/xlink" width="90.73915pt" height="62.295pt" viewBox="-2.7 -2.69485 90.73915 62.295 "> 
<g transform="translate(0, 59.60014 ) scale(1,-1) translate(0,2.69485 )"> 
         <g> 
 <g stroke="rgb(0.0%,0.0%,0.0%)"> 
 <g fill="rgb(0.0%,0.0%,0.0%)"> 
 <g stroke-width="0.4pt"> 
 <g> 
 </g> 
 <g> 
 <g> 
 <g fill="rgb(100.0%,80.0003%,80.0003%)"> 
 <path d=" M  0.0 0.0 M  0.0 0.0 C  -1.38748 0.0 -2.5 1.11252 -2.5 2.5 C  -2.5 3.88748 -1.25 5.0 0.0 5.0 C  -1.38748 5.0 -2.5 6.11252 -2.5 7.5 C  -2.5 8.88748 -1.25 10.0 0.0 10.0 C  -1.38748 10.0 -2.5 11.11252 -2.5 12.5 C  -2.5 13.88748 -1.25 15.0 0.0 15.0 C  -1.38748 15.0 -2.5 16.11252 -2.5 17.5 C  -2.5 18.88748 -1.25 20.0 0.0 20.0 C  -1.38748 20.0 -2.5 21.11252 -2.5 22.5 C  -2.5 23.88748 -1.25 25.0 0.0 25.0 C  -1.38748 25.0 -2.5 26.11252 -2.5 27.5 C  -2.5 28.88748 -1.25 30.0 0.0 30.0 C  -1.38748 30.0 -2.5 31.11252 -2.5 32.5 C  -2.5 33.88748 -1.25 35.0 0.0 35.0 C  -1.38748 35.0 -2.5 36.11252 -2.5 37.5 C  -2.5 38.88748 -1.25 40.0 0.0 40.0 C  -1.38748 40.0 -2.5 41.11252 -2.5 42.5 C  -2.5 43.88748 -1.25 45.0 0.0 45.0 C  -1.38748 45.0 -2.5 46.11252 -2.5 47.5 C  -2.5 48.88748 -1.25 50.0 0.0 50.0 C  -1.38748 50.0 -2.5 51.11252 -2.5 52.5 C  -2.5 53.88748 -1.25 55.0 0.0 55.0 L  0.0 56.68384 C  -0.00357 58.07132 1.10608 59.1867 2.49356 59.19028 C  3.88104 59.19385 4.99678 57.94673 5.0 56.69673 C  4.99643 58.08421 6.10608 59.1996 7.49356 59.20317 C  8.88104 59.20674 9.99678 57.95963 10.0 56.70963 C  9.99643 58.0971 11.10608 59.2125 12.49356 59.21606 C  13.88104 59.21964 14.99678 57.97252 15.0 56.72252 C  14.99643 58.11 16.10608 59.22539 17.49356 59.22896 C  18.88104 59.23253 19.99678 57.98541 20.0 56.73541 C  19.99643 58.1229 21.10608 59.23828 22.49356 59.24185 C  23.88104 59.24542 24.99678 57.9983 25.0 56.7483 C  24.99643 58.13579 26.10608 59.25117 27.49356 59.25475 C  28.88104 59.25832 29.99678 58.0112 30.0 56.7612 C  29.99643 58.14868 31.10608 59.26407 32.49356 59.26764 C  33.88104 59.27121 34.99678 58.0241 35.0 56.7741 C  34.99643 58.16158 36.10608 59.27696 37.49356 59.28053 C  38.88104 59.2841 39.99678 58.03699 40.0 56.78699 C  39.99643 58.17447 41.10608 59.28986 42.49356 59.29343 C  43.88104 59.297 44.99678 58.04988 45.0 56.79988 C  44.99643 58.18736 46.10608 59.30275 47.49356 59.30632 C  48.88104 59.30989 49.99678 58.06277 50.0 56.81277 C  49.99643 58.20026 51.10608 59.31564 52.49356 59.31921 C  53.88104 59.32278 54.99678 58.07567 55.0 56.82567 C  54.99643 58.21315 56.10608 59.32854 57.49356 59.3321 C  58.88104 59.33568 59.99678 58.08856 60.0 56.83856 C  59.99643 58.22604 61.10608 59.34143 62.49356 59.345 C  63.88104 59.34857 64.99678 58.10146 65.0 56.85146 C  64.99643 58.23894 66.10608 59.35432 67.49356 59.3579 C  68.88104 59.36147 69.99678 58.11435 70.0 56.86435 C  69.99643 58.25183 71.10608 59.36722 72.49356 59.37079 C  73.88104 59.37436 74.99678 58.12724 75.0 56.87724 C  74.99643 58.26472 76.10608 59.38011 77.49356 59.38368 C  78.88104 59.38725 79.99678 58.14014 80.0 56.89014 C  79.99643 58.27762 81.10608 59.393 82.49356 59.39658 C  83.88104 59.40015 84.99678 58.15303 85.0 56.90303 L  85.02588 56.90309 C  86.41336 56.91115 87.53233 55.8051 87.5404 54.41762 C  87.54848 53.03014 86.30495 51.91035 85.05495 51.90309 C  86.44243 51.91115 87.5614 50.8051 87.56947 49.41762 C  87.57755 48.03014 86.33401 46.91035 85.08401 46.90309 C  86.4715 46.91115 87.59047 45.8051 87.59854 44.41762 C  87.60661 43.03014 86.36308 41.91035 85.11308 41.90309 C  86.50056 41.91115 87.61954 40.8051 87.62761 39.41762 C  87.63568 38.03014 86.39215 36.91035 85.14215 36.90309 C  86.52963 36.91115 87.6486 35.8051 87.65668 34.41762 C  87.66475 33.03014 86.42122 31.91035 85.17122 31.90309 C  86.5587 31.91115 87.67767 30.8051 87.68575 29.41762 C  87.69382 28.03014 86.45029 26.91035 85.20029 26.90309 C  86.58777 26.91115 87.70674 25.8051 87.71481 24.41762 C  87.72289 23.03014 86.47935 21.91035 85.22935 21.90309 C  86.61684 21.91115 87.73581 20.8051 87.74388 19.41762 C  87.75195 18.03014 86.50842 16.91035 85.25842 16.90309 C  86.6459 16.91115 87.76488 15.8051 87.77295 14.41762 C  87.78102 13.03014 86.53749 11.91035 85.28749 11.90309 C  86.67497 11.91115 87.79395 10.8051 87.80202 9.41762 C  87.81009 8.03014 86.56656 6.91035 85.31656 6.90309 C  86.70404 6.91115 87.82301 5.8051 87.83109 4.41762 C  87.83916 3.03014 86.59563 1.91035 85.34563 1.90309 L  85.3554 0.22145 C  85.35896 -1.16603 84.24931 -2.28142 82.86183 -2.28499 C  81.47435 -2.28856 80.35861 -1.04144 80.3554 0.20856 C  80.35896 -1.17892 79.24931 -2.29431 77.86183 -2.29788 C  76.47435 -2.30145 75.35861 -1.05434 75.3554 0.19566 C  75.35896 -1.19182 74.24931 -2.3072 72.86183 -2.31078 C  71.47435 -2.31435 70.35861 -1.06723 70.3554 0.18277 C  70.35896 -1.20471 69.24931 -2.3201 67.86183 -2.32367 C  66.47435 -2.32724 65.35861 -1.08012 65.3554 0.16988 C  65.35896 -1.2176 64.24931 -2.333 62.86183 -2.33656 C  61.47435 -2.34013 60.35861 -1.09302 60.3554 0.15698 C  60.35896 -1.2305 59.24931 -2.34589 57.86183 -2.34946 C  56.47435 -2.35303 55.35861 -1.10591 55.3554 0.14409 C  55.35896 -1.2434 54.24931 -2.35878 52.86183 -2.36235 C  51.47435 -2.36592 50.35861 -1.1188 50.3554 0.1312 C  50.35896 -1.25629 49.24931 -2.37167 47.86183 -2.37524 C  46.47435 -2.37881 45.35861 -1.1317 45.3554 0.1183 C  45.35896 -1.26918 44.24931 -2.38457 42.86183 -2.38814 C  41.47435 -2.39171 40.35861 -1.14459 40.3554 0.10541 C  40.35896 -1.28207 39.24931 -2.39746 37.86183 -2.40103 C  36.47435 -2.4046 35.35861 -1.15749 35.3554 0.09251 C  35.35896 -1.29497 34.24931 -2.41035 32.86183 -2.41393 C  31.47435 -2.4175 30.35861 -1.17038 30.3554 0.07962 C  30.35896 -1.30786 29.24931 -2.42325 27.86183 -2.42682 C  26.47435 -2.43039 25.35861 -1.18327 25.3554 0.06673 C  25.35896 -1.32076 24.24931 -2.43614 22.86183 -2.43971 C  21.47435 -2.44328 20.35861 -1.19617 20.3554 0.05383 C  20.35896 -1.33365 19.24931 -2.44904 17.86183 -2.4526 C  16.47435 -2.45618 15.35861 -1.20906 15.3554 0.04094 C  15.35896 -1.34654 14.24931 -2.46193 12.86183 -2.4655 C  11.47435 -2.46907 10.35861 -1.22195 10.3554 0.02805 C  10.35896 -1.35944 9.24931 -2.47482 7.86183 -2.4784 C  6.47435 -2.48196 5.35861 -1.23485 5.3554 0.01515 C  5.35896 -1.37233 4.24931 -2.48772 2.86183 -2.49129 C  1.47435 -2.49486 0.35861 -1.24774 0.3554 0.00226 L  0.3322 0.00221 Z M  85.35823 56.90549  " /> 
 </g> 
 </g> 
 </g> 
 </g> 
 </g> 
 </g> 
 </g> 
                   </g> 
</svg> 
