<svg xmlns="http://www.w3.org/2000/svg" xmlns:xlink="http://www.w3.org/1999/xlink" width="102.83003pt" height="34.14363pt" viewBox="-2.84544 -2.84544 102.83003 34.14363 "> 
<g transform="translate(0, 31.29819 ) scale(1,-1) translate(0,2.84544 )"> 
         <g> 
 <g stroke="rgb(0.0%,0.0%,0.0%)"> 
 <g fill="rgb(0.0%,0.0%,0.0%)"> 
 <g stroke-width="0.4pt"> 
 <g> 
 </g> 
 <g> 
 <g stroke-width="0.8pt"> 
 <path d=" M  2.13998 0.0 C  14.22636 0.0 28.45274 14.22638 42.17705 27.9507  " style="fill:none"/> 
 <g> 
 <g transform="matrix(-1.0,0.0,0.0,-1.0,2.13998,0.0)"> 
 <g> 
 <g stroke-width="0.64pt"> 
 <g stroke-dasharray="none" stroke-dashoffset="0.0pt"> 
 <g stroke-linecap="round"> 
 <g stroke-linejoin="round"> 
 <path d=" M  1.81996 2.07996 C  1.68996 1.29997 0.26 0.12999 -0.12999 0.0 C  0.26 -0.12999 1.68996 -1.29997 1.81996 -2.07996  " style="fill:none"/> 
 </g> 
 </g> 
 </g> 
 </g> 
 </g> 
 </g> 
 </g> 
 <g> 
 <g transform="matrix(0.70712,0.7071,-0.7071,0.70712,42.17705,27.9507)"> 
 <g> 
 <g stroke-width="0.64pt"> 
 <g stroke-dasharray="none" stroke-dashoffset="0.0pt"> 
 <g stroke-linecap="round"> 
 <g stroke-linejoin="round"> 
 <path d=" M  -1.55997 2.07996 C  -1.42996 1.29997 0.0 0.12999 0.38998 0.0 C  0.0 -0.12999 -1.42996 -1.29997 -1.55997 -2.07996  " style="fill:none"/> 
 </g> 
 </g> 
 </g> 
 </g> 
 </g> 
 </g> 
 </g> 
 <path d=" M  28.85274 0.0 C  42.67911 0.0 56.90549 14.22638 70.76416 28.08507  " style="fill:none"/> 
 <g> 
 <g transform="matrix(-1.0,0.0,0.0,-1.0,28.85274,0.0)"> 
 <g> 
 <g stroke-dasharray="none" stroke-dashoffset="0.0pt"> 
 <g stroke-linejoin="miter"> 
 <g stroke-linecap="butt"> 
 <path d=" M  -2.0 -3.2 L  0.0 -3.2 L  0.0 3.2 L  -2.0 3.2  " style="fill:none"/> 
 </g> 
 </g> 
 </g> 
 </g> 
 </g> 
 </g> 
 <g> 
 <g transform="matrix(0.70709,0.7071,-0.7071,0.70709,70.76416,28.08507)"> 
 <g> 
 <g transform="matrix(-1.0,0.0,0.0,1.0,0.0,0.0)"> 
 <path d=" M  4.6799 0.0 C  3.29324 0.26 1.03998 1.03998 -0.51999 1.94995 L  -0.51999 -1.94995 C  1.03998 -1.03998 3.29324 -0.26 4.6799 0.0  " style="stroke:none"/> 
 </g> 
 </g> 
 </g> 
 </g> 
 <path d=" M  61.58539 0.0 C  71.13185 0.0 85.35823 14.22638 99.16034 28.02849  " style="fill:none"/> 
 <g> 
 <g transform="matrix(-1.0,0.0,0.0,-1.0,61.58539,0.0)"> 
 <g> 
 <path d=" M  4.6799 0.0 C  3.29324 0.26 1.03998 1.03998 -0.51999 1.94995 L  -0.51999 -1.94995 C  1.03998 -1.03998 3.29324 -0.26 4.6799 0.0  " style="stroke:none"/> 
 </g> 
 </g> 
 </g> 
 <g> 
 <g transform="matrix(0.70712,0.7071,-0.7071,0.70712,99.16034,28.02849)"> 
 <g> 
 <g stroke-dasharray="none" stroke-dashoffset="0.0pt"> 
 <g stroke-linecap="round"> 
 <path d=" M  -1.59999 -3.2 C  0.79999 -1.59999 0.79999 1.59999 -1.59999 3.2  " style="fill:none"/> 
 </g> 
 </g> 
 </g> 
 </g> 
 </g> 
 </g> 
 </g> 
 </g> 
 </g> 
 </g> 
 </g> 
                       </g> 
</svg> 
