<svg xmlns="http://www.w3.org/2000/svg" xmlns:xlink="http://www.w3.org/1999/xlink" width="86.15822pt" height="95.90797pt" viewBox="-0.4 -10.14975 86.15822 95.90797 "> 
<g transform="translate(0, 85.75822 ) scale(1,-1) translate(0,10.14975 )"> 
        <g> 
 <g stroke="rgb(0.0%,0.0%,0.0%)"> 
 <g fill="rgb(0.0%,0.0%,0.0%)"> 
 <g stroke-width="0.4pt"> 
 <g> 
 </g> 
 <g> 
 <g stroke-width="0.8pt"> 
 <path d=" M  0.0 85.35823 L  85.35823 85.35823  " style="fill:none"/> 
 <path d=" M  0.0 71.13185 L  2.5 73.63185 L  5.0 71.13185 L  7.5 68.63185 L  10.0 71.13185 L  12.5 73.63185 L  15.0 71.13185 L  17.5 68.63185 L  20.0 71.13185 L  22.5 73.63185 L  25.0 71.13185 L  27.5 68.63185 L  30.0 71.13185 L  32.5 73.63185 L  35.0 71.13185 L  37.5 68.63185 L  40.0 71.13185 L  42.5 73.63185 L  45.0 71.13185 L  47.5 68.63185 L  50.0 71.13185 L  52.5 73.63185 L  55.0 71.13185 L  57.5 68.63185 L  60.0 71.13185 L  62.5 73.63185 L  65.0 71.13185 L  67.5 68.63185 L  70.0 71.13185 L  72.5 73.63185 L  75.0 71.13185 L  77.5 68.63185 L  80.0 71.13185 L  82.5 73.63185 L  85.0 71.13185 L  85.02588 71.13185  " style="fill:none"/> 
 <path d=" M  0.0 56.90549 M  0.0 56.90549 C  0.37498 57.65549 1.25 58.15549 2.5 58.15549 L  40.01294 58.15549 C  41.26294 58.15549 42.13795 58.65547 42.51294 59.40549 C  42.88792 58.65547 43.76294 58.15549 45.01294 58.15549 L  82.52588 58.15549 C  83.77588 58.15549 84.6509 57.65549 85.02588 56.90549  " style="fill:none"/> 
 <path d=" M  0.0 42.67911 M  0.0 45.17911 L  2.5 42.67911 L  0.0 40.17911 Z M  10.0 45.17911 L  12.5 42.67911 L  10.0 40.17911 Z M  20.0 45.17911 L  22.5 42.67911 L  20.0 40.17911 Z M  30.0 45.17911 L  32.5 42.67911 L  30.0 40.17911 Z M  40.0 45.17911 L  42.5 42.67911 L  40.0 40.17911 Z M  50.0 45.17911 L  52.5 42.67911 L  50.0 40.17911 Z M  60.0 45.17911 L  62.5 42.67911 L  60.0 40.17911 Z M  70.0 45.17911 L  72.5 42.67911 L  70.0 40.17911 Z M  80.0 45.17911 L  82.5 42.67911 L  80.0 40.17911 Z M  85.02588 42.67911  " style="fill:none"/> 
 <path d=" M  0.0 28.45274 C  0.33331 29.84023 1.22289 30.95274 2.24994 30.95274 C  3.277 30.95274 4.16656 29.84023 4.49988 28.45274 C  4.83319 27.06526 4.61024 25.95274 4.24982 25.95274 C  3.88939 25.95274 3.66644 27.06526 3.99976 28.45274 C  4.33331 29.84023 5.22289 30.95274 6.24994 30.95274 C  7.277 30.95274 8.16656 29.84023 8.49988 28.45274 C  8.83319 27.06526 8.61024 25.95274 8.24982 25.95274 C  7.88939 25.95274 7.66644 27.06526 7.99976 28.45274 C  8.33331 29.84023 9.22289 30.95274 10.24994 30.95274 C  11.277 30.95274 12.16656 29.84023 12.49988 28.45274 C  12.83319 27.06526 12.61024 25.95274 12.24982 25.95274 C  11.88939 25.95274 11.66644 27.06526 11.99976 28.45274 C  12.33331 29.84023 13.22289 30.95274 14.24994 30.95274 C  15.277 30.95274 16.16656 29.84023 16.49988 28.45274 C  16.83319 27.06526 16.61024 25.95274 16.24982 25.95274 C  15.88939 25.95274 15.66644 27.06526 15.99976 28.45274 C  16.33331 29.84023 17.22289 30.95274 18.24994 30.95274 C  19.277 30.95274 20.16656 29.84023 20.49988 28.45274 C  20.83319 27.06526 20.61024 25.95274 20.24982 25.95274 C  19.88939 25.95274 19.66644 27.06526 19.99976 28.45274 C  20.33331 29.84023 21.22289 30.95274 22.24994 30.95274 C  23.277 30.95274 24.16656 29.84023 24.49988 28.45274 C  24.83319 27.06526 24.61024 25.95274 24.24982 25.95274 C  23.88939 25.95274 23.66644 27.06526 23.99976 28.45274 C  24.33331 29.84023 25.22289 30.95274 26.24994 30.95274 C  27.277 30.95274 28.16656 29.84023 28.49988 28.45274 C  28.83319 27.06526 28.61024 25.95274 28.24982 25.95274 C  27.88939 25.95274 27.66644 27.06526 27.99976 28.45274 C  28.33331 29.84023 29.22289 30.95274 30.24994 30.95274 C  31.277 30.95274 32.16656 29.84023 32.49988 28.45274 C  32.83319 27.06526 32.61024 25.95274 32.24982 25.95274 C  31.88939 25.95274 31.66644 27.06526 31.99976 28.45274 C  32.33331 29.84023 33.22289 30.95274 34.24994 30.95274 C  35.277 30.95274 36.16656 29.84023 36.49988 28.45274 C  36.83319 27.06526 36.61024 25.95274 36.24982 25.95274 C  35.88939 25.95274 35.66644 27.06526 35.99976 28.45274 C  36.33331 29.84023 37.22289 30.95274 38.24994 30.95274 C  39.277 30.95274 40.16656 29.84023 40.49988 28.45274 C  40.83319 27.06526 40.61024 25.95274 40.24982 25.95274 C  39.88939 25.95274 39.66644 27.06526 39.99976 28.45274 C  40.33331 29.84023 41.22289 30.95274 42.24994 30.95274 C  43.277 30.95274 44.16656 29.84023 44.49988 28.45274 C  44.83319 27.06526 44.61024 25.95274 44.24982 25.95274 C  43.88939 25.95274 43.66644 27.06526 43.99976 28.45274 C  44.33331 29.84023 45.22289 30.95274 46.24994 30.95274 C  47.277 30.95274 48.16656 29.84023 48.49988 28.45274 C  48.83319 27.06526 48.61024 25.95274 48.24982 25.95274 C  47.88939 25.95274 47.66644 27.06526 47.99976 28.45274 C  48.33331 29.84023 49.22289 30.95274 50.24994 30.95274 C  51.277 30.95274 52.16656 29.84023 52.49988 28.45274 C  52.83319 27.06526 52.61024 25.95274 52.24982 25.95274 C  51.88939 25.95274 51.66644 27.06526 51.99976 28.45274 C  52.33331 29.84023 53.22289 30.95274 54.24994 30.95274 C  55.277 30.95274 56.16656 29.84023 56.49988 28.45274 C  56.83319 27.06526 56.61024 25.95274 56.24982 25.95274 C  55.88939 25.95274 55.66644 27.06526 55.99976 28.45274 C  56.33331 29.84023 57.22289 30.95274 58.24994 30.95274 C  59.277 30.95274 60.16656 29.84023 60.49988 28.45274 C  60.83319 27.06526 60.61024 25.95274 60.24982 25.95274 C  59.88939 25.95274 59.66644 27.06526 59.99976 28.45274 C  60.33331 29.84023 61.22289 30.95274 62.24994 30.95274 C  63.277 30.95274 64.16656 29.84023 64.49988 28.45274 C  64.83319 27.06526 64.61024 25.95274 64.24982 25.95274 C  63.88939 25.95274 63.66644 27.06526 63.99976 28.45274 C  64.33331 29.84023 65.22289 30.95274 66.24994 30.95274 C  67.277 30.95274 68.16656 29.84023 68.49988 28.45274 C  68.83319 27.06526 68.61024 25.95274 68.24982 25.95274 C  67.88939 25.95274 67.66644 27.06526 67.99976 28.45274 C  68.33331 29.84023 69.22289 30.95274 70.24994 30.95274 C  71.277 30.95274 72.16656 29.84023 72.49988 28.45274 C  72.83319 27.06526 72.61024 25.95274 72.24982 25.95274 C  71.88939 25.95274 71.66644 27.06526 71.99976 28.45274 C  72.33331 29.84023 73.22289 30.95274 74.24994 30.95274 C  75.277 30.95274 76.16656 29.84023 76.49988 28.45274 C  76.83319 27.06526 76.61024 25.95274 76.24982 25.95274 C  75.88939 25.95274 75.66644 27.06526 75.99976 28.45274 C  76.33331 29.84023 77.22289 30.95274 78.24994 30.95274 C  79.277 30.95274 80.16656 29.84023 80.49988 28.45274 C  80.83319 27.06526 80.61024 25.95274 80.24982 25.95274 C  79.88939 25.95274 79.66644 27.06526 79.99976 28.45274 C  80.33331 29.84023 81.22289 30.95274 82.24994 30.95274 C  83.277 30.95274 84.16656 29.84023 84.49988 28.45274 L  85.02588 28.45274  " style="fill:none"/> 
 <path d=" M  0.0 14.22636 C  0.83328 15.61385 1.66656 16.72636 2.49985 16.72636 C  3.33313 16.72636 4.16641 15.61385 4.9997 14.22636 C  5.83298 12.83888 6.66626 11.72636 7.49954 11.72636 C  8.33282 11.72636 9.1661 12.83888 9.99939 14.22636 C  10.83328 15.61385 11.66656 16.72636 12.49985 16.72636 C  13.33313 16.72636 14.16641 15.61385 14.9997 14.22636 C  15.83298 12.83888 16.66626 11.72636 17.49954 11.72636 C  18.33282 11.72636 19.1661 12.83888 19.99939 14.22636 C  20.83328 15.61385 21.66656 16.72636 22.49985 16.72636 C  23.33313 16.72636 24.16641 15.61385 24.9997 14.22636 C  25.83298 12.83888 26.66626 11.72636 27.49954 11.72636 C  28.33282 11.72636 29.1661 12.83888 29.99939 14.22636 C  30.83328 15.61385 31.66656 16.72636 32.49985 16.72636 C  33.33313 16.72636 34.16641 15.61385 34.9997 14.22636 C  35.83298 12.83888 36.66626 11.72636 37.49954 11.72636 C  38.33282 11.72636 39.1661 12.83888 39.99939 14.22636 C  40.83328 15.61385 41.66656 16.72636 42.49985 16.72636 C  43.33313 16.72636 44.16641 15.61385 44.9997 14.22636 C  45.83298 12.83888 46.66626 11.72636 47.49954 11.72636 C  48.33282 11.72636 49.1661 12.83888 49.99939 14.22636 C  50.83328 15.61385 51.66656 16.72636 52.49985 16.72636 C  53.33313 16.72636 54.16641 15.61385 54.9997 14.22636 C  55.83298 12.83888 56.66626 11.72636 57.49954 11.72636 C  58.33282 11.72636 59.1661 12.83888 59.99939 14.22636 C  60.83328 15.61385 61.66656 16.72636 62.49985 16.72636 C  63.33313 16.72636 64.16641 15.61385 64.9997 14.22636 C  65.83298 12.83888 66.66626 11.72636 67.49954 11.72636 C  68.33282 11.72636 69.1661 12.83888 69.99939 14.22636 C  70.83328 15.61385 71.66656 16.72636 72.49985 16.72636 C  73.33313 16.72636 74.16641 15.61385 74.9997 14.22636 C  75.83298 12.83888 76.66626 11.72636 77.49954 11.72636 C  78.33282 11.72636 79.1661 12.83888 79.99939 14.22636 C  80.83328 15.61385 81.66656 16.72636 82.49985 16.72636 C  83.33313 16.72636 84.16641 15.61385 84.9997 14.22636 L  85.02588 14.22636  " style="fill:none"/> 
 <path d=" M  0.0 0.0 M  9.92538 1.21872 C  10.02776 0.38498 10.02776 -0.38498 9.92538 -1.21872 M  19.85077 2.43744 C  20.05551 0.76996 20.05551 -0.76996 19.85077 -2.43744 M  29.77615 3.65616 C  30.08327 1.15494 30.08327 -1.15494 29.77615 -3.65616 M  39.70154 4.87488 C  40.11102 1.53992 40.11102 -1.53992 39.70154 -4.87488 M  49.62692 6.0936 C  50.13878 1.92488 50.13878 -1.92488 49.62692 -6.0936 M  59.5523 7.31232 C  60.16655 2.30986 60.16655 -2.30986 59.5523 -7.31232 M  69.47769 8.53104 C  70.1943 2.69484 70.1943 -2.69484 69.47769 -8.53104 M  79.40308 9.74976 C  80.22206 3.07982 80.22206 -3.07982 79.40308 -9.74976 M  85.02588 0.0  " style="fill:none"/> 
 </g> 
 </g> 
 </g> 
 </g> 
 </g> 
 </g> 
 
                          </g> 
</svg> 
