<svg xmlns="http://www.w3.org/2000/svg" xmlns:xlink="http://www.w3.org/1999/xlink" width="87.45822pt" height="57.10547pt" viewBox="-2.0 -0.09999 87.45822 57.10547 "> 
<g transform="translate(0, 57.00548 ) scale(1,-1) translate(0,0.09999 )"> 
         <g> 
 <g stroke="rgb(0.0%,0.0%,0.0%)"> 
 <g fill="rgb(0.0%,0.0%,0.0%)"> 
 <g stroke-width="0.4pt"> 
 <g> 
 </g> 
 <g> 
 <g> 
 <g stroke="rgb(50.0%,50.0%,50.0%)"> 
 <g fill="rgb(50.0%,50.0%,50.0%)"> 
 <g stroke-width="0.2pt"> 
 <path d=" M  0.0 0.0 M  0.0 0.0 L  85.35823 0.0 M  0.0 28.45274 L  85.35823 28.45274 M  0.0 56.8955 L  85.35823 56.8955 M  0.0 0.0 L  0.0 56.90549 M  28.45274 0.0 L  28.45274 56.90549 M  56.90549 0.0 L  56.90549 56.90549 M  85.34824 0.0 L  85.34824 56.90549  " style="fill:none"/> 
 </g> 
 </g> 
 </g> 
 </g> 
 <path d=" M  2.0 28.45274 C  2.0 29.56273 1.10999 30.45274 0.0 30.45274 C  -1.10999 30.45274 -2.0 29.56273 -2.0 28.45274 C  -2.0 27.34276 -1.10999 26.45274 0.0 26.45274 C  1.10999 26.45274 2.0 27.34276 2.0 28.45274 Z M  0.0 28.45274  " style="stroke:none"/> 
 </g> 
 </g> 
 </g> 
 </g> 
 </g> 
                   </g> 
</svg> 
