<svg xmlns="http://www.w3.org/2000/svg" xmlns:xlink="http://www.w3.org/1999/xlink" width="116.811pt" height="116.811pt" viewBox="-58.4055 -58.4055 116.811 116.811 "> 
<g transform="translate(0, 58.4055 ) scale(1,-1) translate(0,58.4055 )"> 
                          <g> 
 <g stroke="rgb(0.0%,0.0%,0.0%)"> 
 <g fill="rgb(0.0%,0.0%,0.0%)"> 
 <g stroke-width="0.4pt"> 
 <g> 
 </g> 
 <g> 
 <g stroke-linecap="round"> 
 <g stroke-width="3.0pt"> 
 <g> 
 <g fill="rgb(80.0003%,80.0003%,16.00037%)"> 
 <path d=" M  0.0 0.0 M  56.9055 0.0 C  56.9055 31.58212 31.58212 56.9055 0.0 56.9055 C  -31.58212 56.9055 -56.9055 31.58212 -56.9055 0.0 C  -56.9055 -31.58212 -31.58212 -56.9055 0.0 -56.9055 C  31.58212 -56.9055 56.9055 -31.58212 56.9055 0.0 Z M  0.0 0.0  " /> 
 </g> 
 </g> 
 <g> 
 <g stroke-width="1.0pt"> 
 <path d=" M  51.21504 0.0 L  56.9055 0.0  " style="fill:none"/> 
 </g> 
 </g> 
 <path d=" M  39.83368 0.0  " style="fill:none"/> 
 <g> 
 <g> 
 <g transform="matrix(1.0,0.0,0.0,1.0,37.33368,-3.27777)"> 
 <g fill="rgb(0.0%,0.0%,0.0%)"> 
 <text style="stroke:none" transform="scale(1,-1) translate(2.5,0)" text-anchor="middle"  font-size="10"> 
<tspan font-family="cmss" font-size="10">3</tspan></text> 
</g> 
 </g> 
 </g> 
 </g> 
 <g> 
 <g stroke-width="1.0pt"> 
 <path d=" M  44.35364 25.60751 L  49.28174 28.45274  " style="fill:none"/> 
 </g> 
 </g> 
 <path d=" M  34.49707 19.91684  " style="fill:none"/> 
 <g> 
 <g> 
 <g transform="matrix(1.0,0.0,0.0,1.0,31.99707,16.63907)"> 
 <g fill="rgb(0.0%,0.0%,0.0%)"> 
 <text style="stroke:none" transform="scale(1,-1) translate(2.5,0)" text-anchor="middle"  font-size="10"> 
<tspan font-family="cmss" font-size="10">2</tspan></text> 
</g> 
 </g> 
 </g> 
 </g> 
 <g> 
 <g stroke-width="1.0pt"> 
 <path d=" M  25.60751 44.35364 L  28.45274 49.28174  " style="fill:none"/> 
 </g> 
 </g> 
 <path d=" M  19.91684 34.49707  " style="fill:none"/> 
 <g> 
 <g> 
 <g transform="matrix(1.0,0.0,0.0,1.0,17.41684,31.2193)"> 
 <g fill="rgb(0.0%,0.0%,0.0%)"> 
 <text style="stroke:none" transform="scale(1,-1) translate(2.5,0)" text-anchor="middle"  font-size="10"> 
<tspan font-family="cmss" font-size="10">1</tspan></text> 
</g> 
 </g> 
 </g> 
 </g> 
 <g> 
 <g stroke-width="1.0pt"> 
 <path d=" M  0.0 51.21504 L  0.0 56.9055  " style="fill:none"/> 
 </g> 
 </g> 
 <path d=" M  0.0 39.83368  " style="fill:none"/> 
 <g> 
 <g> 
 <g transform="matrix(1.0,0.0,0.0,1.0,-5.00002,36.55591)"> 
 <g fill="rgb(0.0%,0.0%,0.0%)"> 
 <text style="stroke:none" transform="scale(1,-1) translate(5.00002,0)" text-anchor="middle"  font-size="10"> 
<tspan font-family="cmss" font-size="10">12</tspan></text> 
</g> 
 </g> 
 </g> 
 </g> 
 <g> 
 <g stroke-width="1.0pt"> 
 <path d=" M  -25.60751 44.35364 L  -28.45274 49.28174  " style="fill:none"/> 
 </g> 
 </g> 
 <path d=" M  -19.91684 34.49707  " style="fill:none"/> 
 <g> 
 <g> 
 <g transform="matrix(1.0,0.0,0.0,1.0,-24.91685,31.2193)"> 
 <g fill="rgb(0.0%,0.0%,0.0%)"> 
 <text style="stroke:none" transform="scale(1,-1) translate(5.00002,0)" text-anchor="middle"  font-size="10"> 
<tspan font-family="cmss" font-size="10">11</tspan></text> 
</g> 
 </g> 
 </g> 
 </g> 
 <g> 
 <g stroke-width="1.0pt"> 
 <path d=" M  -44.35364 25.60751 L  -49.28174 28.45274  " style="fill:none"/> 
 </g> 
 </g> 
 <path d=" M  -34.49707 19.91684  " style="fill:none"/> 
 <g> 
 <g> 
 <g transform="matrix(1.0,0.0,0.0,1.0,-39.49709,16.63907)"> 
 <g fill="rgb(0.0%,0.0%,0.0%)"> 
 <text style="stroke:none" transform="scale(1,-1) translate(5.00002,0)" text-anchor="middle"  font-size="10"> 
<tspan font-family="cmss" font-size="10">10</tspan></text> 
</g> 
 </g> 
 </g> 
 </g> 
 <g> 
 <g stroke-width="1.0pt"> 
 <path d=" M  -51.21504 0.0 L  -56.9055 0.0  " style="fill:none"/> 
 </g> 
 </g> 
 <path d=" M  -39.83368 0.0  " style="fill:none"/> 
 <g> 
 <g> 
 <g transform="matrix(1.0,0.0,0.0,1.0,-42.33368,-3.27777)"> 
 <g fill="rgb(0.0%,0.0%,0.0%)"> 
 <text style="stroke:none" transform="scale(1,-1) translate(2.5,0)" text-anchor="middle"  font-size="10"> 
<tspan font-family="cmss" font-size="10">9</tspan></text> 
</g> 
 </g> 
 </g> 
 </g> 
 <g> 
 <g stroke-width="1.0pt"> 
 <path d=" M  -44.35364 -25.60751 L  -49.28174 -28.45274  " style="fill:none"/> 
 </g> 
 </g> 
 <path d=" M  -34.49707 -19.91684  " style="fill:none"/> 
 <g> 
 <g> 
 <g transform="matrix(1.0,0.0,0.0,1.0,-36.99707,-23.19461)"> 
 <g fill="rgb(0.0%,0.0%,0.0%)"> 
 <text style="stroke:none" transform="scale(1,-1) translate(2.5,0)" text-anchor="middle"  font-size="10"> 
<tspan font-family="cmss" font-size="10">8</tspan></text> 
</g> 
 </g> 
 </g> 
 </g> 
 <g> 
 <g stroke-width="1.0pt"> 
 <path d=" M  -25.60751 -44.35364 L  -28.45274 -49.28174  " style="fill:none"/> 
 </g> 
 </g> 
 <path d=" M  -19.91684 -34.49707  " style="fill:none"/> 
 <g> 
 <g> 
 <g transform="matrix(1.0,0.0,0.0,1.0,-22.41684,-37.77484)"> 
 <g fill="rgb(0.0%,0.0%,0.0%)"> 
 <text style="stroke:none" transform="scale(1,-1) translate(2.5,0)" text-anchor="middle"  font-size="10"> 
<tspan font-family="cmss" font-size="10">7</tspan></text> 
</g> 
 </g> 
 </g> 
 </g> 
 <g> 
 <g stroke-width="1.0pt"> 
 <path d=" M  0.0 -51.21504 L  0.0 -56.9055  " style="fill:none"/> 
 </g> 
 </g> 
 <path d=" M  0.0 -39.83368  " style="fill:none"/> 
 <g> 
 <g> 
 <g transform="matrix(1.0,0.0,0.0,1.0,-2.5,-43.11145)"> 
 <g fill="rgb(0.0%,0.0%,0.0%)"> 
 <text style="stroke:none" transform="scale(1,-1) translate(2.5,0)" text-anchor="middle"  font-size="10"> 
<tspan font-family="cmss" font-size="10">6</tspan></text> 
</g> 
 </g> 
 </g> 
 </g> 
 <g> 
 <g stroke-width="1.0pt"> 
 <path d=" M  25.60751 -44.35364 L  28.45274 -49.28174  " style="fill:none"/> 
 </g> 
 </g> 
 <path d=" M  19.91684 -34.49707  " style="fill:none"/> 
 <g> 
 <g> 
 <g transform="matrix(1.0,0.0,0.0,1.0,17.41684,-37.77484)"> 
 <g fill="rgb(0.0%,0.0%,0.0%)"> 
 <text style="stroke:none" transform="scale(1,-1) translate(2.5,0)" text-anchor="middle"  font-size="10"> 
<tspan font-family="cmss" font-size="10">5</tspan></text> 
</g> 
 </g> 
 </g> 
 </g> 
 <g> 
 <g stroke-width="1.0pt"> 
 <path d=" M  44.35364 -25.60751 L  49.28174 -28.45274  " style="fill:none"/> 
 </g> 
 </g> 
 <path d=" M  34.49707 -19.91684  " style="fill:none"/> 
 <g> 
 <g> 
 <g transform="matrix(1.0,0.0,0.0,1.0,31.99707,-23.19461)"> 
 <g fill="rgb(0.0%,0.0%,0.0%)"> 
 <text style="stroke:none" transform="scale(1,-1) translate(2.5,0)" text-anchor="middle"  font-size="10"> 
<tspan font-family="cmss" font-size="10">4</tspan></text> 
</g> 
 </g> 
 </g> 
 </g> 
 <g> 
 <g stroke-width="2.0pt"> 
 <path d=" M  45.52458 0.0 L  56.9055 0.0  " style="fill:none"/> 
 </g> 
 </g> 
 <g> 
 <g stroke-width="2.0pt"> 
 <path d=" M  0.0 45.52458 L  0.0 56.9055  " style="fill:none"/> 
 </g> 
 </g> 
 <g> 
 <g stroke-width="2.0pt"> 
 <path d=" M  -45.52458 0.0 L  -56.9055 0.0  " style="fill:none"/> 
 </g> 
 </g> 
 <g> 
 <g stroke-width="2.0pt"> 
 <path d=" M  0.0 -45.52458 L  0.0 -56.9055  " style="fill:none"/> 
 </g> 
 </g> 
 <path d=" M  0.0 0.0 L  -11.38113 19.71277  " style="fill:none"/> 
 <path d=" M  0.0 0.0 L  0.0 28.45274  " style="fill:none"/> 
 </g> 
 </g> 
 </g> 
 </g> 
 </g> 
 </g> 
 </g> 
 
                                   </g> 
</svg> 
