<svg xmlns="http://www.w3.org/2000/svg" xmlns:xlink="http://www.w3.org/1999/xlink" width="113.81096pt" height="71.13184pt" viewBox="-7.11317 -7.11317 113.81096 71.13184 "> 
<g transform="translate(0, 64.01866 ) scale(1,-1) translate(0,7.11317 )"> 
          <g> 
 <g stroke="rgb(0.0%,0.0%,0.0%)"> 
 <g fill="rgb(0.0%,0.0%,0.0%)"> 
 <g stroke-width="0.4pt"> 
 <g> 
 </g> 
 <g> 
 <g stroke-width="4.30554pt"> 
 <path d=" M  1.87027 1.06873 L  97.71437 55.83678  " style="fill:none"/> 
 <g> 
 <g transform="matrix(-0.86877,-0.49643,0.49643,-0.86877,1.87027,1.06873)"> 
 <g> 
 <g> 
 <g stroke-dasharray="none" stroke-dashoffset="0.0pt"> 
 <g stroke-linejoin="round"> 
 <g stroke-linecap="round"> 
 <path d=" M  -9.41107 9.41107 C  -9.41107 4.1883 -5.22278 0.0 0.0 0.0  " style="fill:none"/> 
 <path d=" M  0.0 0.0 C  -5.22278 0.0 -9.41107 -4.1883 -9.41107 -9.41107  " style="fill:none"/> 
 </g> 
 </g> 
 </g> 
 </g> 
 <g transform="matrix(1.0,0.0,0.0,1.0,-13.71661,0.0)"> 
 <g> 
 <g stroke-dasharray="none" stroke-dashoffset="0.0pt"> 
 <g stroke-linejoin="round"> 
 <g stroke-linecap="round"> 
 <path d=" M  -9.41107 9.41107 C  -9.41107 4.1883 -5.22278 0.0 0.0 0.0  " style="fill:none"/> 
 <path d=" M  0.0 0.0 C  -5.22278 0.0 -9.41107 -4.1883 -9.41107 -9.41107  " style="fill:none"/> 
 </g> 
 </g> 
 </g> 
 </g> 
 <g transform="matrix(1.0,0.0,0.0,1.0,-13.71661,0.0)"> 
 <g stroke-dasharray="none" stroke-dashoffset="0.0pt"> 
 <g stroke-linejoin="round"> 
 <g stroke-linecap="round"> 
 <path d=" M  -9.41107 9.41107 C  -9.41107 4.1883 -5.22278 0.0 0.0 0.0  " style="fill:none"/> 
 <path d=" M  0.0 0.0 C  -5.22278 0.0 -9.41107 -4.1883 -9.41107 -9.41107  " style="fill:none"/> 
 </g> 
 </g> 
 </g> 
 </g> 
 </g> 
 </g> 
 </g> 
 </g> 
 <g> 
 <g transform="matrix(0.86877,0.49643,-0.49643,0.86877,97.71437,55.83678)"> 
 <g> 
 <g> 
 <g stroke-dasharray="none" stroke-dashoffset="0.0pt"> 
 <g stroke-linejoin="round"> 
 <g stroke-linecap="round"> 
 <path d=" M  -9.41107 9.41107 C  -9.41107 4.1883 -5.22278 0.0 0.0 0.0  " style="fill:none"/> 
 <path d=" M  0.0 0.0 C  -5.22278 0.0 -9.41107 -4.1883 -9.41107 -9.41107  " style="fill:none"/> 
 </g> 
 </g> 
 </g> 
 </g> 
 <g transform="matrix(1.0,0.0,0.0,1.0,-13.71661,0.0)"> 
 <g> 
 <g stroke-dasharray="none" stroke-dashoffset="0.0pt"> 
 <g stroke-linejoin="round"> 
 <g stroke-linecap="round"> 
 <path d=" M  -9.41107 9.41107 C  -9.41107 4.1883 -5.22278 0.0 0.0 0.0  " style="fill:none"/> 
 <path d=" M  0.0 0.0 C  -5.22278 0.0 -9.41107 -4.1883 -9.41107 -9.41107  " style="fill:none"/> 
 </g> 
 </g> 
 </g> 
 </g> 
 <g transform="matrix(1.0,0.0,0.0,1.0,-13.71661,0.0)"> 
 <g stroke-dasharray="none" stroke-dashoffset="0.0pt"> 
 <g stroke-linejoin="round"> 
 <g stroke-linecap="round"> 
 <path d=" M  -9.41107 9.41107 C  -9.41107 4.1883 -5.22278 0.0 0.0 0.0  " style="fill:none"/> 
 <path d=" M  0.0 0.0 C  -5.22278 0.0 -9.41107 -4.1883 -9.41107 -9.41107  " style="fill:none"/> 
 </g> 
 </g> 
 </g> 
 </g> 
 </g> 
 </g> 
 </g> 
 </g> 
 </g> 
 </g> 
 </g> 
 </g> 
 </g> 
 </g> 
                         </g> 
</svg> 
