<svg xmlns="http://www.w3.org/2000/svg" xmlns:xlink="http://www.w3.org/1999/xlink" width="103.22989pt" height="74.77713pt" viewBox="-8.9358 -8.9358 103.22989 74.77713 "> 
<g transform="translate(0, 65.84132 ) scale(1,-1) translate(0,8.9358 )"> 
           <g> 
 <g stroke="rgb(0.0%,0.0%,0.0%)"> 
 <g fill="rgb(0.0%,0.0%,0.0%)"> 
 <g stroke-width="0.4pt"> 
 <g> 
 </g> 
 <g stroke-width="0.8pt"> 
 <path d=" M  -8.53581 0.0 L  93.89409 0.0 M  -8.53581 28.45274 L  93.89409 28.45274 M  -8.53581 56.90549 L  93.89409 56.90549 M  0.0 -8.53581 L  0.0 65.44133 M  28.45274 -8.53581 L  28.45274 65.44133 M  56.90549 -8.53581 L  56.90549 65.44133 M  85.35823 -8.53581 L  85.35823 65.44133  " style="fill:none"/> 
 <g stroke-width="0.4pt"> 
 <path d=" M  -4.2679 -2.84526 L  89.62617 -2.84526 M  -4.2679 0.0 L  89.62617 0.0 M  -4.2679 2.84526 L  89.62617 2.84526 M  -4.2679 5.69052 L  89.62617 5.69052 M  -4.2679 8.53578 L  89.62617 8.53578 M  -4.2679 11.38104 L  89.62617 11.38104 M  -4.2679 14.2263 L  89.62617 14.2263 M  -4.2679 17.07156 L  89.62617 17.07156 M  -4.2679 19.91682 L  89.62617 19.91682 M  -4.2679 22.76208 L  89.62617 22.76208 M  -4.2679 25.60735 L  89.62617 25.60735 M  -4.2679 28.4526 L  89.62617 28.4526 M  -4.2679 31.29787 L  89.62617 31.29787 M  -4.2679 34.14313 L  89.62617 34.14313 M  -4.2679 36.98839 L  89.62617 36.98839 M  -4.2679 39.83365 L  89.62617 39.83365 M  -4.2679 42.67891 L  89.62617 42.67891 M  -4.2679 45.52417 L  89.62617 45.52417 M  -4.2679 48.36943 L  89.62617 48.36943 M  -4.2679 51.21469 L  89.62617 51.21469 M  -4.2679 54.05995 L  89.62617 54.05995 M  -4.2679 56.90521 L  89.62617 56.90521 M  -4.2679 59.75047 L  89.62617 59.75047 M  -2.84526 -4.2679 L  -2.84526 61.17342 M  0.0 -4.2679 L  0.0 61.17342 M  2.84526 -4.2679 L  2.84526 61.17342 M  5.69052 -4.2679 L  5.69052 61.17342 M  8.53578 -4.2679 L  8.53578 61.17342 M  11.38104 -4.2679 L  11.38104 61.17342 M  14.2263 -4.2679 L  14.2263 61.17342 M  17.07156 -4.2679 L  17.07156 61.17342 M  19.91682 -4.2679 L  19.91682 61.17342 M  22.76208 -4.2679 L  22.76208 61.17342 M  25.60735 -4.2679 L  25.60735 61.17342 M  28.4526 -4.2679 L  28.4526 61.17342 M  31.29787 -4.2679 L  31.29787 61.17342 M  34.14313 -4.2679 L  34.14313 61.17342 M  36.98839 -4.2679 L  36.98839 61.17342 M  39.83365 -4.2679 L  39.83365 61.17342 M  42.67891 -4.2679 L  42.67891 61.17342 M  45.52417 -4.2679 L  45.52417 61.17342 M  48.36943 -4.2679 L  48.36943 61.17342 M  51.21469 -4.2679 L  51.21469 61.17342 M  54.05995 -4.2679 L  54.05995 61.17342 M  56.90521 -4.2679 L  56.90521 61.17342 M  59.75047 -4.2679 L  59.75047 61.17342 M  62.59573 -4.2679 L  62.59573 61.17342 M  65.441 -4.2679 L  65.441 61.17342 M  68.28625 -4.2679 L  68.28625 61.17342 M  71.13152 -4.2679 L  71.13152 61.17342 M  73.97678 -4.2679 L  73.97678 61.17342 M  76.82204 -4.2679 L  76.82204 61.17342 M  79.6673 -4.2679 L  79.6673 61.17342 M  82.51256 -4.2679 L  82.51256 61.17342 M  85.35782 -4.2679 L  85.35782 61.17342 M  88.20308 -4.2679 L  88.20308 61.17342  " style="fill:none"/> 
 </g> 
 </g> 
 </g> 
 </g> 
 </g> 
 </g> 
 
                               </g> 
</svg> 
