<svg xmlns="http://www.w3.org/2000/svg" xmlns:xlink="http://www.w3.org/1999/xlink" width="220.79173pt" height="190.62785pt" viewBox="-57.10548 -59.95093 220.79173 190.62785 "> 
<g transform="translate(0, 130.67693 ) scale(1,-1) translate(0,59.95093 )"> 
                         <g> 
 <g stroke="rgb(0.0%,0.0%,0.0%)"> 
 <g fill="rgb(0.0%,0.0%,0.0%)"> 
 <g stroke-width="0.4pt"> 
 <g> 
 </g> 
 <g> 
 <g> 
 <g stroke="rgb(50.0%,50.0%,50.0%)"> 
 <g fill="rgb(50.0%,50.0%,50.0%)"> 
 <g stroke-width="0.2pt"> 
 <path d=" M  -54.06003 -54.06003 M  -54.06003 -28.45274 L  82.51277 -28.45274 M  -54.06003 0.0 L  82.51277 0.0 M  -54.06003 28.45274 L  82.51277 28.45274 M  -54.06003 56.90549 L  82.51277 56.90549 M  -54.06003 85.35823 L  82.51277 85.35823 M  -28.45274 -54.06003 L  -28.45274 110.96552 M  0.0 -54.06003 L  0.0 110.96552 M  28.45274 -54.06003 L  28.45274 110.96552 M  56.90549 -54.06003 L  56.90549 110.96552 M  -28.45274 -28.45274 M  -28.45274 -28.4527 L  28.45274 -28.4527 M  -28.45274 -21.33952 L  28.45274 -21.33952 M  -28.45274 -14.22635 L  28.45274 -14.22635 M  -28.45274 -7.11317 L  28.45274 -7.11317 M  -28.45274 0.0 L  28.45274 0.0 M  -28.45274 7.11317 L  28.45274 7.11317 M  -28.45274 14.22635 L  28.45274 14.22635 M  -28.45274 21.33952 L  28.45274 21.33952 M  -28.45274 28.4527 L  28.45274 28.4527 M  -28.4527 -28.45274 L  -28.4527 28.45274 M  -21.33952 -28.45274 L  -21.33952 28.45274 M  -14.22635 -28.45274 L  -14.22635 28.45274 M  -7.11317 -28.45274 L  -7.11317 28.45274 M  0.0 -28.45274 L  0.0 28.45274 M  7.11317 -28.45274 L  7.11317 28.45274 M  14.22635 -28.45274 L  14.22635 28.45274 M  21.33952 -28.45274 L  21.33952 28.45274 M  28.4527 -28.45274 L  28.4527 28.45274  " style="fill:none"/> 
 </g> 
 </g> 
 </g> 
 </g> 
 <g> 
 <g stroke="rgb(0.0%,0.0%,100.0%)"> 
 <g fill="rgb(0.0%,0.0%,100.0%)"> 
 <path d=" M  28.45274 -59.75093 L  28.45274 116.65642  " style="fill:none"/> 
 </g> 
 </g> 
 </g> 
 <path d=" M  -56.90549 0.0 L  84.89824 0.0  " style="fill:none"/> 
 <g> 
 <g transform="matrix(1.0,0.0,0.0,1.0,84.89824,0.0)"> 
 <g> 
 <g stroke-width="0.31999pt"> 
 <g stroke-dasharray="none" stroke-dashoffset="0.0pt"> 
 <g stroke-linecap="round"> 
 <g stroke-linejoin="round"> 
 <path d=" M  -1.19998 1.59998 C  -1.09998 0.99998 0.0 0.09999 0.29999 0.0 C  0.0 -0.09999 -1.09998 -0.99998 -1.19998 -1.59998  " style="fill:none"/> 
 </g> 
 </g> 
 </g> 
 </g> 
 </g> 
 </g> 
 </g> 
 <g> 
 <g> 
 <g transform="matrix(1.0,0.0,0.0,1.0,88.8912,-2.5)"> 
 <g fill="rgb(0.0%,0.0%,0.0%)"> 
 <text style="stroke:none" transform="scale(1,-1) translate(8.5521,0)" text-anchor="middle"  font-size="10"> 
<tspan font-family="cmmi" font-size="10">x</tspan>(<tspan font-family="cmmi" font-size="10">t</tspan>)</text> 
</g> 
 </g> 
 </g> 
 </g> 
 <path d=" M  0.0 -56.90549 L  0.0 113.35098  " style="fill:none"/> 
 <g> 
 <g transform="matrix(0.0,1.0,-1.0,0.0,0.0,113.35098)"> 
 <g> 
 <g stroke-width="0.31999pt"> 
 <g stroke-dasharray="none" stroke-dashoffset="0.0pt"> 
 <g stroke-linecap="round"> 
 <g stroke-linejoin="round"> 
 <path d=" M  -1.19998 1.59998 C  -1.09998 0.99998 0.0 0.09999 0.29999 0.0 C  0.0 -0.09999 -1.09998 -0.99998 -1.19998 -1.59998  " style="fill:none"/> 
 </g> 
 </g> 
 </g> 
 </g> 
 </g> 
 </g> 
 </g> 
 <g> 
 <g> 
 <g transform="matrix(1.0,0.0,0.0,1.0,-8.32526,119.84395)"> 
 <g fill="rgb(0.0%,0.0%,0.0%)"> 
 <text style="stroke:none" transform="scale(1,-1) translate(8.32526,0)" text-anchor="middle"  font-size="10"> 
<tspan font-family="cmmi" font-size="10">y</tspan>(<tspan font-family="cmmi" font-size="10">t</tspan>)</text> 
</g> 
 </g> 
 </g> 
 </g> 
 <path d=" M  -28.45274 2.0 L  -28.45274 -2.0  " style="fill:none"/> 
 <g> 
 <g> 
 <g transform="matrix(1.0,0.0,0.0,1.0,-37.06381,-11.97742)"> 
 <g fill="rgb(0.0%,0.0%,0.0%)"> 
 <text style="stroke:none" transform="scale(1,-1) translate(8.61107,0)" text-anchor="middle"  font-size="10"> 
 <tspan font-family="cmsy" font-size="10">- </tspan>1</text> 
</g> 
 </g> 
 </g> 
 </g> 
 <path d=" M  56.90549 2.0 L  56.90549 -2.0  " style="fill:none"/> 
 <g> 
 <g> 
 <g transform="matrix(1.0,0.0,0.0,1.0,54.40549,-11.9774)"> 
 <g fill="rgb(0.0%,0.0%,0.0%)"> 
 <text style="stroke:none" transform="scale(1,-1) translate(2.5,0)" text-anchor="middle"  font-size="10"> 
2</text> 
</g> 
 </g> 
 </g> 
 </g> 
 <path d=" M  2.0 -28.45274 L  -2.0 -28.45274  " style="fill:none"/> 
 <g> 
 <g> 
 <g transform="matrix(1.0,0.0,0.0,1.0,-22.75511,-31.2583)"> 
 <g fill="rgb(0.0%,0.0%,0.0%)"> 
 <text style="stroke:none" transform="scale(1,-1) translate(8.61107,0)" text-anchor="middle"  font-size="10"> 
 <tspan font-family="cmsy" font-size="10">- </tspan>1</text> 
</g> 
 </g> 
 </g> 
 </g> 
 <path d=" M  2.0 28.45274 L  -2.0 28.45274  " style="fill:none"/> 
 <g> 
 <g> 
 <g transform="matrix(1.0,0.0,0.0,1.0,-10.53297,25.23053)"> 
 <g fill="rgb(0.0%,0.0%,0.0%)"> 
 <text style="stroke:none" transform="scale(1,-1) translate(2.5,0)" text-anchor="middle"  font-size="10"> 
1</text> 
</g> 
 </g> 
 </g> 
 </g> 
 <path d=" M  2.0 56.90549 L  -2.0 56.90549  " style="fill:none"/> 
 <g> 
 <g> 
 <g transform="matrix(1.0,0.0,0.0,1.0,-10.53297,53.68327)"> 
 <g fill="rgb(0.0%,0.0%,0.0%)"> 
 <text style="stroke:none" transform="scale(1,-1) translate(2.5,0)" text-anchor="middle"  font-size="10"> 
2</text> 
</g> 
 </g> 
 </g> 
 </g> 
 <path d=" M  2.0 85.35823 L  -2.0 85.35823  " style="fill:none"/> 
 <g> 
 <g> 
 <g transform="matrix(1.0,0.0,0.0,1.0,-10.53297,82.13602)"> 
 <g fill="rgb(0.0%,0.0%,0.0%)"> 
 <text style="stroke:none" transform="scale(1,-1) translate(2.5,0)" text-anchor="middle"  font-size="10"> 
3</text> 
</g> 
 </g> 
 </g> 
 </g> 
 <path d=" M  0.0 0.0 M  1.82083 0.0 C  1.82083 1.01054 1.01054 1.82083 0.0 1.82083 C  -1.01054 1.82083 -1.82083 1.01054 -1.82083 0.0 C  -1.82083 -1.01054 -1.01054 -1.82083 0.0 -1.82083 C  1.01054 -1.82083 1.82083 -1.01054 1.82083 0.0 Z M  0.0 0.0  " style="stroke:none"/> 
 <g> 
 <g stroke-width="0.8pt"> 
 <path d=" M  0.15065 -1.81476 L  1.24124 -1.43488 L  1.90941 -0.50926 L  1.96193 0.61736 L  1.42662 1.59508 L  0.4871 2.1712 L  -0.60043 2.23328 L  -1.58727 1.80304 L  -2.28539 0.99942 L  -2.58842 -0.00824 L  -2.47424 -1.0424 L  -1.98799 -1.94891 L  -1.2191 -2.61534 L  -0.27959 -2.97612 L  0.71548 -3.01172 L  1.66194 -2.7395 L  2.47641 -2.20464 L  3.09898 -1.46873 L  3.4945 -0.60043 L  3.64993 0.33081 L  3.57004 1.26208 L  3.27396 2.13907 L  2.79117 2.91794 L  2.15643 3.56613 L  1.40796 4.06325 L  0.58263 4.39711 L  -0.28307 4.5647 L  -1.15659 4.57034 L  -2.00969 4.42316 L  -2.81808 4.13574 L  -3.56267 3.72504 L  -4.22823 3.20752 L  -4.80348 2.60144 L  -5.28148 1.9246 L  -5.6579 1.19435 L  -5.93184 0.42677 L  -6.1042 -0.36295 L  -6.17758 -1.16179 L  -6.1563 -1.95715 L  -6.04517 -2.73907 L  -5.85109 -3.49841 L  -5.58061 -4.22736 L  -5.23936 -4.9207 L  -4.8356 -5.57236 L  -4.37584 -6.1793 L  -3.86658 -6.73807 L  -3.31389 -7.24733 L  -2.72475 -7.70493 L  -2.10434 -8.1113 L  -1.45831 -8.46558 L  -0.79189 -8.76904 L  -0.1094 -9.02129 L  0.58524 -9.22447 L  1.28769 -9.3799 L  1.99493 -9.48888 L  2.70348 -9.55313 L  3.41115 -9.57483 L  4.11491 -9.55486 L  4.81346 -9.49625 L  5.5042 -9.40074 L  6.18582 -9.27005 L  6.85703 -9.10551 L  7.51651 -8.91014 L  8.16339 -8.68481 L  8.79683 -8.4317 L  9.41681 -8.15254 L  10.02158 -7.84863 L  10.61203 -7.52216 L  11.18684 -7.17397 L  11.7469 -6.80536 L  12.29091 -6.41809 L  12.8197 -6.01303 L  13.33287 -5.5919 L  13.83128 -5.15514 L  14.3145 -4.70448 L  14.78252 -4.24037 L  15.23578 -3.76411 L  15.6747 -3.27612 L  16.0993 -2.77728 L  16.51001 -2.26845 L  16.90727 -1.74963 L  17.29149 -1.223 L  17.66226 -0.68726 L  18.02087 -0.14456 L  18.36732 0.40549 L  18.70163 0.96208 L  19.02464 1.52518 L  19.33636 2.09436 L  19.63766 2.66917 L  19.92812 3.2492 L  20.20815 3.83401 L  20.47905 4.42403 L  20.73999 5.01794 L  20.99179 5.61621 L  21.23492 6.21883 L  21.46936 6.82533 L  21.69556 7.43576 L  21.91394 8.04965 L  22.1245 8.66702 L  22.32768 9.28786 L  22.52393 9.91217 L  22.71278 10.53952 L  22.89555 11.16992 L  23.0714 11.80379 L  23.24115 12.44025 L  23.40569 13.0802 L  23.56372 13.72318 L  23.71655 14.3692 L  23.86372 15.01782 L  24.00613 15.66992 L  24.14375 16.32463 L  24.27617 16.98238 L  24.40468 17.64316 L  24.52798 18.30698 L  24.64737 18.97385 L  24.76286 19.64374 L  24.87444 20.31668 L  24.98167 20.99266 L  25.08586 21.67212 L  25.18616 22.3546 L  25.2834 23.04013 L  25.37718 23.72914 L  25.46793 24.42117 L  25.55562 25.11713 L  25.64029 25.81612 L  25.72234 26.51859 L  25.80136 27.22452 L  25.8782 27.93391 L  25.95201 28.64723 L  26.02364 29.36359 L  26.09311 30.08429 L  26.15997 30.80846 L  26.22508 31.53653 L  26.28761 32.26852 L  26.34883 33.00441 L  26.40744 33.74422 L  26.46431 34.48836 L  26.51944 35.2364 L  26.57285 35.98836 L  26.62451 36.74464 L  26.67488 37.50572 L  26.72307 38.27026 L  26.76996 39.0396 L  26.81554 39.81369 L  26.85982 40.59169 L  26.9028 41.37448 L  26.94405 42.16203 L  26.984 42.95436 L  27.02307 43.75104 L  27.06084 44.55249 L  27.0973 45.3587 L  27.1329 46.17015 L  27.1672 46.98636 L  27.20064 47.80777 L  27.23276 48.63353 L  27.26445 49.46494 L  27.29485 50.30156 L  27.32437 51.14339 L  27.35345 51.99042 L  27.38124 52.84222 L  27.40816 53.70012 L  27.43465 54.56322 L  27.45982 55.43152 L  27.48457 56.30591 L  27.50888 57.18507 L  27.53233 58.07031 L  27.5549 58.9612 L  27.57704 59.85773 L  27.59875 60.7599 L  27.61916 61.66815 L  27.63957 62.58249 L  27.6591 63.50246 L  27.6782 64.42807 L  27.69687 65.35977 L  27.7151 66.29755 L  27.73247 67.24182 L  27.74985 68.19176 L  27.76634 69.1482 L  27.7824 70.11072 L  27.79846 71.07976 L  27.81366 72.05487 L  27.82841 73.03648 L  27.84319 74.02419 L  27.85707 75.01883 L  27.87097 76.01956 L  27.88399 77.02724 L  27.89702 78.04141 L  27.91005 79.06212 L  27.9222 80.08932 L  27.93391 81.12347 L  27.94565 82.16458 L  27.95692 83.2122 L  27.96822 84.26633 L  27.97908 85.32826 L  27.98949 86.39629 L  27.99991 87.47168 L  28.0099 88.55403 L  28.01945 89.64333 L  28.029 90.73956 L  28.03812 91.84363  " style="fill:none"/> 
 <g> 
 <g> 
 <g transform="matrix(1.0,0.0,0.0,1.0,31.77109,89.34364)"> 
 <g fill="rgb(0.0%,0.0%,0.0%)"> 
 <text style="stroke:none" transform="scale(1,-1) translate(64.29109,0)" text-anchor="middle"  font-size="10"> 
<span class="big"><img 
src="pgfmanual29x.gif" alt="("  class="left" align="middle"></span><tspan font-family="cmmi" font-size="10">x</tspan>(<tspan font-family="cmmi" font-size="10">t</tspan>)<tspan font-family="cmmi" font-size="10">,y</tspan>(<tspan font-family="cmmi" font-size="10">t</tspan>)<span class="big"><img 
src="pgfmanual30x.gif" alt=")"  class="left" align="middle"></span> = (<tspan font-family="cmmi" font-size="10">t</tspan>sin<img 
src="pgfmanual31x.gif" alt="1t"  class="frac" align="middle"><tspan font-family="cmmi" font-size="10">,t</tspan>cos<img 
src="pgfmanual32x.gif" alt="1t"  class="frac" align="middle">)</text> 
</g> 
 </g> 
 </g> 
 </g> 
 </g> 
 </g> 
 <g> 
 <g stroke="rgb(100.0%,0.0%,0.0%)"> 
 <g fill="rgb(100.0%,0.0%,0.0%)"> 
 <path d=" M  18.11378 0.0 M  20.11378 0.0 C  20.11378 1.10999 19.22377 2.0 18.11378 2.0 C  17.0038 2.0 16.11378 1.10999 16.11378 0.0 C  16.11378 -1.10999 17.0038 -2.0 18.11378 -2.0 C  19.22377 -2.0 20.11378 -1.10999 20.11378 0.0 Z M  18.11378 0.0  " style="stroke:none"/> 
 <g> 
 <g fill="rgb(100.0%,100.0%,100.0%)"> 
 <g> 
 <g fill="rgb(100.0%,100.0%,100.0%)"> 
 <path d=" M  18.31378 -22.76277 h  31.21564 v  18.56277 h  -31.21564 Z  " style="stroke:none"/> 
 </g> 
 </g> 
 <g> 
 <g transform="matrix(1.0,0.0,0.0,1.0,21.64676,-15.9814)"> 
 <g fill="rgb(100.0%,0.0%,0.0%)"> 
 <text style="stroke:none" transform="scale(1,-1) translate(12.27484,0)" text-anchor="middle"  font-size="10"> 
(<img 
src="pgfmanual33x.gif" alt="2p"  class="frac" align="middle"><tspan font-family="cmmi" font-size="10">,</tspan>0)</text> 
</g> 
 </g> 
 </g> 
 </g> 
 </g> 
 </g> 
 </g> 
 </g> 
 </g> 
 </g> 
 </g> 
 </g> 
 </g> 
 
                                                                  </g> 
</svg> 
