<svg xmlns="http://www.w3.org/2000/svg" xmlns:xlink="http://www.w3.org/1999/xlink" width="57.70547pt" height="93.2714pt" viewBox="-0.4 -0.4 57.70547 93.2714 "> 
<g transform="translate(0, 92.8714 ) scale(1,-1) translate(0,0.4 )"> 
        <g> 
 <g stroke="rgb(0.0%,0.0%,0.0%)"> 
 <g fill="rgb(0.0%,0.0%,0.0%)"> 
 <g stroke-width="0.4pt"> 
 <g> 
 </g> 
 <g> 
 <g> 
 <g stroke-width="0.8pt"> 
 <path d=" M  0.0 0.0 L  0.0 48.90549 C  0.0 53.34543 2.23482 59.69902 5.02197 63.18295 L  23.43077 86.19394 C  26.21793 89.67787 30.68756 89.67787 33.47472 86.19394 L  51.88351 63.18295 C  54.67067 59.69902 56.90549 53.34543 56.90549 48.90549 L  56.90549 8.0 C  56.90549 3.56006 54.38808 2.51735 51.2485 5.65686 L  5.65698 51.24863 C  2.51741 54.38814 3.56006 56.90549 8.0 56.90549 L  48.90549 56.90549 C  53.34543 56.90549 54.38808 54.38814 51.2485 51.24863 L  5.65698 5.65686 C  2.51741 2.51735 3.56006 0.0 8.0 0.0 L  56.90549 0.0  " style="fill:none"/> 
 </g> 
 </g> 
 </g> 
 </g> 
 </g> 
 </g> 
 </g> 
          </g> 
</svg> 
