<svg xmlns="http://www.w3.org/2000/svg" xmlns:xlink="http://www.w3.org/1999/xlink" width="57.30548pt" height="57.30548pt" viewBox="-28.65274 -28.65274 57.30548 57.30548 "> 
<g transform="translate(0, 28.65274 ) scale(1,-1) translate(0,28.65274 )"> 
                 <g> 
 <g stroke="rgb(0.0%,0.0%,0.0%)"> 
 <g fill="rgb(0.0%,0.0%,0.0%)"> 
 <g stroke-width="0.4pt"> 
 <g> 
 </g> 
 <g> 
 <clipPath id="pgfcp62"> <path id="pgfpath62" d=" M  0.0 0.0 M  28.45274 0.0 C  28.45274 15.79106 15.79106 28.45274 0.0 28.45274 C  -15.79106 28.45274 -28.45274 15.79106 -28.45274 0.0 C  -28.45274 -15.79106 -15.79106 -28.45274 0.0 -28.45274 C  15.79106 -28.45274 28.45274 -15.79106 28.45274 0.0 Z M  0.0 0.0  "/> 
</clipPath> 
 <use xlink:href="#pgfpath62" style="fill:none"/> 
 <g clip-path="url(#pgfcp62)"> 
 <g> 
 <g stroke="rgb(100.0%,0.0%,0.0%)"> 
 <g fill="rgb(100.0%,0.0%,0.0%)"> 
 <path d=" M  28.45274 0.0 M  56.90549 0.0 C  56.90549 15.79106 44.2438 28.45274 28.45274 28.45274 C  12.66168 28.45274 0.0 15.79106 0.0 0.0 C  0.0 -15.79106 12.66168 -28.45274 28.45274 -28.45274 C  44.2438 -28.45274 56.90549 -15.79106 56.90549 0.0 Z M  28.45274 0.0  " style="stroke:none"/> 
 </g> 
 </g> 
 </g> 
 </g> 
 </g> 
 </g> 
 </g> 
 </g> 
 </g> 
 
                 </g> 
</svg> 
