<svg xmlns="http://www.w3.org/2000/svg" xmlns:xlink="http://www.w3.org/1999/xlink" width="341.8329pt" height="142.6637pt" viewBox="14.02638 14.02638 341.8329 142.6637 "> 
<g transform="translate(0, 156.69008 ) scale(1,-1) translate(0,-14.02638 )"> 
   
 <g> 
 <g stroke="rgb(0.0%,0.0%,0.0%)"> 
 <g fill="rgb(0.0%,0.0%,0.0%)"> 
 <g stroke-width="0.4pt"> 
 <g> 
 </g> 
 <g> 
 <path d=" M  28.45274 28.45274 M  14.22638 14.22638 M  14.22638 14.22638 L  14.22638 42.67911 L  42.67911 42.67911 L  42.67911 14.22638 Z M  42.67911 42.67911  " style="fill:none"/> 
 <path d=" M  28.45274 28.45274  " style="fill:none"/> 
 <g> 
 <g> 
 <g transform="matrix(1.0,0.0,0.0,1.0,22.06384,26.20274)"> 
 <g fill="rgb(0.0%,0.0%,0.0%)"> 
 <text style="stroke:none" transform="scale(1,-1) translate(6.3889,0)" text-anchor="middle"  font-size="10"> 
1,1</text> 
</g> 
 </g> 
 </g> 
 </g> 
 <path d=" M  28.45274 56.90549 M  14.22638 42.67912 M  14.22638 42.67912 L  14.22638 71.13185 L  42.67911 71.13185 L  42.67911 42.67912 Z M  42.67911 71.13185  " style="fill:none"/> 
 <path d=" M  28.45274 56.90549  " style="fill:none"/> 
 <g> 
 <g> 
 <g transform="matrix(1.0,0.0,0.0,1.0,22.06384,54.65549)"> 
 <g fill="rgb(0.0%,0.0%,0.0%)"> 
 <text style="stroke:none" transform="scale(1,-1) translate(6.3889,0)" text-anchor="middle"  font-size="10"> 
1,2</text> 
</g> 
 </g> 
 </g> 
 </g> 
 <path d=" M  28.45274 85.35823 M  14.22638 71.13187 M  14.22638 71.13187 L  14.22638 99.5846 L  42.67911 99.5846 L  42.67911 71.13187 Z M  42.67911 99.5846  " style="fill:none"/> 
 <path d=" M  28.45274 85.35823  " style="fill:none"/> 
 <g> 
 <g> 
 <g transform="matrix(1.0,0.0,0.0,1.0,22.06384,83.10823)"> 
 <g fill="rgb(0.0%,0.0%,0.0%)"> 
 <text style="stroke:none" transform="scale(1,-1) translate(6.3889,0)" text-anchor="middle"  font-size="10"> 
1,3</text> 
</g> 
 </g> 
 </g> 
 </g> 
 <path d=" M  28.45274 113.81097 M  14.22638 99.58461 M  14.22638 99.58461 L  14.22638 128.03734 L  42.67911 128.03734 L  42.67911 99.58461 Z M  42.67911 128.03734  " style="fill:none"/> 
 <path d=" M  28.45274 113.81097  " style="fill:none"/> 
 <g> 
 <g> 
 <g transform="matrix(1.0,0.0,0.0,1.0,22.06384,111.56097)"> 
 <g fill="rgb(0.0%,0.0%,0.0%)"> 
 <text style="stroke:none" transform="scale(1,-1) translate(6.3889,0)" text-anchor="middle"  font-size="10"> 
1,4</text> 
</g> 
 </g> 
 </g> 
 </g> 
 <path d=" M  28.45274 142.26372 M  14.22638 128.03735 M  14.22638 128.03735 L  14.22638 156.49008 L  42.67911 156.49008 L  42.67911 128.03735 Z M  42.67911 156.49008  " style="fill:none"/> 
 <path d=" M  28.45274 142.26372  " style="fill:none"/> 
 <g> 
 <g> 
 <g transform="matrix(1.0,0.0,0.0,1.0,22.06384,140.01372)"> 
 <g fill="rgb(0.0%,0.0%,0.0%)"> 
 <text style="stroke:none" transform="scale(1,-1) translate(6.3889,0)" text-anchor="middle"  font-size="10"> 
1,5</text> 
</g> 
 </g> 
 </g> 
 </g> 
 <path d=" M  56.90549 28.45274 M  42.67912 14.22638 M  42.67912 14.22638 L  42.67912 42.67911 L  71.13185 42.67911 L  71.13185 14.22638 Z M  71.13185 42.67911  " style="fill:none"/> 
 <path d=" M  56.90549 28.45274  " style="fill:none"/> 
 <g> 
 <g> 
 <g transform="matrix(1.0,0.0,0.0,1.0,50.51659,26.20274)"> 
 <g fill="rgb(0.0%,0.0%,0.0%)"> 
 <text style="stroke:none" transform="scale(1,-1) translate(6.3889,0)" text-anchor="middle"  font-size="10"> 
2,1</text> 
</g> 
 </g> 
 </g> 
 </g> 
 <path d=" M  56.90549 56.90549 M  42.67912 42.67912 M  42.67912 42.67912 L  42.67912 71.13185 L  71.13185 71.13185 L  71.13185 42.67912 Z M  71.13185 71.13185  " style="fill:none"/> 
 <path d=" M  56.90549 56.90549  " style="fill:none"/> 
 <g> 
 <g> 
 <g transform="matrix(1.0,0.0,0.0,1.0,50.51659,54.65549)"> 
 <g fill="rgb(0.0%,0.0%,0.0%)"> 
 <text style="stroke:none" transform="scale(1,-1) translate(6.3889,0)" text-anchor="middle"  font-size="10"> 
2,2</text> 
</g> 
 </g> 
 </g> 
 </g> 
 <path d=" M  56.90549 85.35823 M  42.67912 71.13187 M  42.67912 71.13187 L  42.67912 99.5846 L  71.13185 99.5846 L  71.13185 71.13187 Z M  71.13185 99.5846  " style="fill:none"/> 
 <path d=" M  56.90549 85.35823  " style="fill:none"/> 
 <g> 
 <g> 
 <g transform="matrix(1.0,0.0,0.0,1.0,50.51659,83.10823)"> 
 <g fill="rgb(0.0%,0.0%,0.0%)"> 
 <text style="stroke:none" transform="scale(1,-1) translate(6.3889,0)" text-anchor="middle"  font-size="10"> 
2,3</text> 
</g> 
 </g> 
 </g> 
 </g> 
 <path d=" M  56.90549 113.81097 M  42.67912 99.58461 M  42.67912 99.58461 L  42.67912 128.03734 L  71.13185 128.03734 L  71.13185 99.58461 Z M  71.13185 128.03734  " style="fill:none"/> 
 <path d=" M  56.90549 113.81097  " style="fill:none"/> 
 <g> 
 <g> 
 <g transform="matrix(1.0,0.0,0.0,1.0,50.51659,111.56097)"> 
 <g fill="rgb(0.0%,0.0%,0.0%)"> 
 <text style="stroke:none" transform="scale(1,-1) translate(6.3889,0)" text-anchor="middle"  font-size="10"> 
2,4</text> 
</g> 
 </g> 
 </g> 
 </g> 
 <path d=" M  56.90549 142.26372 M  42.67912 128.03735 M  42.67912 128.03735 L  42.67912 156.49008 L  71.13185 156.49008 L  71.13185 128.03735 Z M  71.13185 156.49008  " style="fill:none"/> 
 <path d=" M  56.90549 142.26372  " style="fill:none"/> 
 <g> 
 <g> 
 <g transform="matrix(1.0,0.0,0.0,1.0,50.51659,140.01372)"> 
 <g fill="rgb(0.0%,0.0%,0.0%)"> 
 <text style="stroke:none" transform="scale(1,-1) translate(6.3889,0)" text-anchor="middle"  font-size="10"> 
2,5</text> 
</g> 
 </g> 
 </g> 
 </g> 
 <path d=" M  85.35823 28.45274 M  71.13187 14.22638 M  71.13187 14.22638 L  71.13187 42.67911 L  99.5846 42.67911 L  99.5846 14.22638 Z M  99.5846 42.67911  " style="fill:none"/> 
 <path d=" M  85.35823 28.45274  " style="fill:none"/> 
 <g> 
 <g> 
 <g transform="matrix(1.0,0.0,0.0,1.0,78.96933,26.20274)"> 
 <g fill="rgb(0.0%,0.0%,0.0%)"> 
 <text style="stroke:none" transform="scale(1,-1) translate(6.3889,0)" text-anchor="middle"  font-size="10"> 
3,1</text> 
</g> 
 </g> 
 </g> 
 </g> 
 <path d=" M  85.35823 56.90549 M  71.13187 42.67912 M  71.13187 42.67912 L  71.13187 71.13185 L  99.5846 71.13185 L  99.5846 42.67912 Z M  99.5846 71.13185  " style="fill:none"/> 
 <path d=" M  85.35823 56.90549  " style="fill:none"/> 
 <g> 
 <g> 
 <g transform="matrix(1.0,0.0,0.0,1.0,78.96933,54.65549)"> 
 <g fill="rgb(0.0%,0.0%,0.0%)"> 
 <text style="stroke:none" transform="scale(1,-1) translate(6.3889,0)" text-anchor="middle"  font-size="10"> 
3,2</text> 
</g> 
 </g> 
 </g> 
 </g> 
 <path d=" M  85.35823 85.35823 M  71.13187 71.13187 M  71.13187 71.13187 L  71.13187 99.5846 L  99.5846 99.5846 L  99.5846 71.13187 Z M  99.5846 99.5846  " style="fill:none"/> 
 <path d=" M  85.35823 85.35823  " style="fill:none"/> 
 <g> 
 <g> 
 <g transform="matrix(1.0,0.0,0.0,1.0,78.96933,83.10823)"> 
 <g fill="rgb(0.0%,0.0%,0.0%)"> 
 <text style="stroke:none" transform="scale(1,-1) translate(6.3889,0)" text-anchor="middle"  font-size="10"> 
3,3</text> 
</g> 
 </g> 
 </g> 
 </g> 
 <path d=" M  85.35823 113.81097 M  71.13187 99.58461 M  71.13187 99.58461 L  71.13187 128.03734 L  99.5846 128.03734 L  99.5846 99.58461 Z M  99.5846 128.03734  " style="fill:none"/> 
 <path d=" M  85.35823 113.81097  " style="fill:none"/> 
 <g> 
 <g> 
 <g transform="matrix(1.0,0.0,0.0,1.0,78.96933,111.56097)"> 
 <g fill="rgb(0.0%,0.0%,0.0%)"> 
 <text style="stroke:none" transform="scale(1,-1) translate(6.3889,0)" text-anchor="middle"  font-size="10"> 
3,4</text> 
</g> 
 </g> 
 </g> 
 </g> 
 <path d=" M  85.35823 142.26372 M  71.13187 128.03735 M  71.13187 128.03735 L  71.13187 156.49008 L  99.5846 156.49008 L  99.5846 128.03735 Z M  99.5846 156.49008  " style="fill:none"/> 
 <path d=" M  85.35823 142.26372  " style="fill:none"/> 
 <g> 
 <g> 
 <g transform="matrix(1.0,0.0,0.0,1.0,78.96933,140.01372)"> 
 <g fill="rgb(0.0%,0.0%,0.0%)"> 
 <text style="stroke:none" transform="scale(1,-1) translate(6.3889,0)" text-anchor="middle"  font-size="10"> 
3,5</text> 
</g> 
 </g> 
 </g> 
 </g> 
 <path d=" M  113.81097 28.45274 M  99.58461 14.22638 M  99.58461 14.22638 L  99.58461 42.67911 L  128.03734 42.67911 L  128.03734 14.22638 Z M  128.03734 42.67911  " style="fill:none"/> 
 <path d=" M  113.81097 28.45274  " style="fill:none"/> 
 <g> 
 <g> 
 <g transform="matrix(1.0,0.0,0.0,1.0,107.42207,26.20274)"> 
 <g fill="rgb(0.0%,0.0%,0.0%)"> 
 <text style="stroke:none" transform="scale(1,-1) translate(6.3889,0)" text-anchor="middle"  font-size="10"> 
4,1</text> 
</g> 
 </g> 
 </g> 
 </g> 
 <path d=" M  113.81097 56.90549 M  99.58461 42.67912 M  99.58461 42.67912 L  99.58461 71.13185 L  128.03734 71.13185 L  128.03734 42.67912 Z M  128.03734 71.13185  " style="fill:none"/> 
 <path d=" M  113.81097 56.90549  " style="fill:none"/> 
 <g> 
 <g> 
 <g transform="matrix(1.0,0.0,0.0,1.0,107.42207,54.65549)"> 
 <g fill="rgb(0.0%,0.0%,0.0%)"> 
 <text style="stroke:none" transform="scale(1,-1) translate(6.3889,0)" text-anchor="middle"  font-size="10"> 
4,2</text> 
</g> 
 </g> 
 </g> 
 </g> 
 <path d=" M  113.81097 85.35823 M  99.58461 71.13187 M  99.58461 71.13187 L  99.58461 99.5846 L  128.03734 99.5846 L  128.03734 71.13187 Z M  128.03734 99.5846  " style="fill:none"/> 
 <path d=" M  113.81097 85.35823  " style="fill:none"/> 
 <g> 
 <g> 
 <g transform="matrix(1.0,0.0,0.0,1.0,107.42207,83.10823)"> 
 <g fill="rgb(0.0%,0.0%,0.0%)"> 
 <text style="stroke:none" transform="scale(1,-1) translate(6.3889,0)" text-anchor="middle"  font-size="10"> 
4,3</text> 
</g> 
 </g> 
 </g> 
 </g> 
 <path d=" M  113.81097 113.81097 M  99.58461 99.58461 M  99.58461 99.58461 L  99.58461 128.03734 L  128.03734 128.03734 L  128.03734 99.58461 Z M  128.03734 128.03734  " style="fill:none"/> 
 <path d=" M  113.81097 113.81097  " style="fill:none"/> 
 <g> 
 <g> 
 <g transform="matrix(1.0,0.0,0.0,1.0,107.42207,111.56097)"> 
 <g fill="rgb(0.0%,0.0%,0.0%)"> 
 <text style="stroke:none" transform="scale(1,-1) translate(6.3889,0)" text-anchor="middle"  font-size="10"> 
4,4</text> 
</g> 
 </g> 
 </g> 
 </g> 
 <path d=" M  113.81097 142.26372 M  99.58461 128.03735 M  99.58461 128.03735 L  99.58461 156.49008 L  128.03734 156.49008 L  128.03734 128.03735 Z M  128.03734 156.49008  " style="fill:none"/> 
 <path d=" M  113.81097 142.26372  " style="fill:none"/> 
 <g> 
 <g> 
 <g transform="matrix(1.0,0.0,0.0,1.0,107.42207,140.01372)"> 
 <g fill="rgb(0.0%,0.0%,0.0%)"> 
 <text style="stroke:none" transform="scale(1,-1) translate(6.3889,0)" text-anchor="middle"  font-size="10"> 
4,5</text> 
</g> 
 </g> 
 </g> 
 </g> 
 <path d=" M  142.26372 28.45274 M  128.03735 14.22638 M  128.03735 14.22638 L  128.03735 42.67911 L  156.49008 42.67911 L  156.49008 14.22638 Z M  156.49008 42.67911  " style="fill:none"/> 
 <path d=" M  142.26372 28.45274  " style="fill:none"/> 
 <g> 
 <g> 
 <g transform="matrix(1.0,0.0,0.0,1.0,135.87482,26.20274)"> 
 <g fill="rgb(0.0%,0.0%,0.0%)"> 
 <text style="stroke:none" transform="scale(1,-1) translate(6.3889,0)" text-anchor="middle"  font-size="10"> 
5,1</text> 
</g> 
 </g> 
 </g> 
 </g> 
 <path d=" M  142.26372 56.90549 M  128.03735 42.67912 M  128.03735 42.67912 L  128.03735 71.13185 L  156.49008 71.13185 L  156.49008 42.67912 Z M  156.49008 71.13185  " style="fill:none"/> 
 <path d=" M  142.26372 56.90549  " style="fill:none"/> 
 <g> 
 <g> 
 <g transform="matrix(1.0,0.0,0.0,1.0,135.87482,54.65549)"> 
 <g fill="rgb(0.0%,0.0%,0.0%)"> 
 <text style="stroke:none" transform="scale(1,-1) translate(6.3889,0)" text-anchor="middle"  font-size="10"> 
5,2</text> 
</g> 
 </g> 
 </g> 
 </g> 
 <path d=" M  142.26372 85.35823 M  128.03735 71.13187 M  128.03735 71.13187 L  128.03735 99.5846 L  156.49008 99.5846 L  156.49008 71.13187 Z M  156.49008 99.5846  " style="fill:none"/> 
 <path d=" M  142.26372 85.35823  " style="fill:none"/> 
 <g> 
 <g> 
 <g transform="matrix(1.0,0.0,0.0,1.0,135.87482,83.10823)"> 
 <g fill="rgb(0.0%,0.0%,0.0%)"> 
 <text style="stroke:none" transform="scale(1,-1) translate(6.3889,0)" text-anchor="middle"  font-size="10"> 
5,3</text> 
</g> 
 </g> 
 </g> 
 </g> 
 <path d=" M  142.26372 113.81097 M  128.03735 99.58461 M  128.03735 99.58461 L  128.03735 128.03734 L  156.49008 128.03734 L  156.49008 99.58461 Z M  156.49008 128.03734  " style="fill:none"/> 
 <path d=" M  142.26372 113.81097  " style="fill:none"/> 
 <g> 
 <g> 
 <g transform="matrix(1.0,0.0,0.0,1.0,135.87482,111.56097)"> 
 <g fill="rgb(0.0%,0.0%,0.0%)"> 
 <text style="stroke:none" transform="scale(1,-1) translate(6.3889,0)" text-anchor="middle"  font-size="10"> 
5,4</text> 
</g> 
 </g> 
 </g> 
 </g> 
 <path d=" M  142.26372 142.26372 M  128.03735 128.03735 M  128.03735 128.03735 L  128.03735 156.49008 L  156.49008 156.49008 L  156.49008 128.03735 Z M  156.49008 156.49008  " style="fill:none"/> 
 <path d=" M  142.26372 142.26372  " style="fill:none"/> 
 <g> 
 <g> 
 <g transform="matrix(1.0,0.0,0.0,1.0,135.87482,140.01372)"> 
 <g fill="rgb(0.0%,0.0%,0.0%)"> 
 <text style="stroke:none" transform="scale(1,-1) translate(6.3889,0)" text-anchor="middle"  font-size="10"> 
5,5</text> 
</g> 
 </g> 
 </g> 
 </g> 
 <path d=" M  199.1692 28.45274 M  184.94284 14.22638 M  184.94284 14.22638 L  184.94284 42.67911 L  213.39557 42.67911 L  213.39557 14.22638 Z M  213.39557 42.67911  " style="fill:none"/> 
 <path d=" M  199.1692 28.45274  " style="fill:none"/> 
 <g> 
 <g> 
 <g transform="matrix(1.0,0.0,0.0,1.0,192.7803,26.20274)"> 
 <g fill="rgb(0.0%,0.0%,0.0%)"> 
 <text style="stroke:none" transform="scale(1,-1) translate(6.3889,0)" text-anchor="middle"  font-size="10"> 
7,1</text> 
</g> 
 </g> 
 </g> 
 </g> 
 <path d=" M  199.1692 56.90549 M  184.94284 42.67912 M  184.94284 42.67912 L  184.94284 71.13185 L  213.39557 71.13185 L  213.39557 42.67912 Z M  213.39557 71.13185  " style="fill:none"/> 
 <path d=" M  199.1692 56.90549  " style="fill:none"/> 
 <g> 
 <g> 
 <g transform="matrix(1.0,0.0,0.0,1.0,192.7803,54.65549)"> 
 <g fill="rgb(0.0%,0.0%,0.0%)"> 
 <text style="stroke:none" transform="scale(1,-1) translate(6.3889,0)" text-anchor="middle"  font-size="10"> 
7,2</text> 
</g> 
 </g> 
 </g> 
 </g> 
 <path d=" M  199.1692 85.35823 M  184.94284 71.13187 M  184.94284 71.13187 L  184.94284 99.5846 L  213.39557 99.5846 L  213.39557 71.13187 Z M  213.39557 99.5846  " style="fill:none"/> 
 <path d=" M  199.1692 85.35823  " style="fill:none"/> 
 <g> 
 <g> 
 <g transform="matrix(1.0,0.0,0.0,1.0,192.7803,83.10823)"> 
 <g fill="rgb(0.0%,0.0%,0.0%)"> 
 <text style="stroke:none" transform="scale(1,-1) translate(6.3889,0)" text-anchor="middle"  font-size="10"> 
7,3</text> 
</g> 
 </g> 
 </g> 
 </g> 
 <path d=" M  199.1692 113.81097 M  184.94284 99.58461 M  184.94284 99.58461 L  184.94284 128.03734 L  213.39557 128.03734 L  213.39557 99.58461 Z M  213.39557 128.03734  " style="fill:none"/> 
 <path d=" M  199.1692 113.81097  " style="fill:none"/> 
 <g> 
 <g> 
 <g transform="matrix(1.0,0.0,0.0,1.0,192.7803,111.56097)"> 
 <g fill="rgb(0.0%,0.0%,0.0%)"> 
 <text style="stroke:none" transform="scale(1,-1) translate(6.3889,0)" text-anchor="middle"  font-size="10"> 
7,4</text> 
</g> 
 </g> 
 </g> 
 </g> 
 <path d=" M  199.1692 142.26372 M  184.94284 128.03735 M  184.94284 128.03735 L  184.94284 156.49008 L  213.39557 156.49008 L  213.39557 128.03735 Z M  213.39557 156.49008  " style="fill:none"/> 
 <path d=" M  199.1692 142.26372  " style="fill:none"/> 
 <g> 
 <g> 
 <g transform="matrix(1.0,0.0,0.0,1.0,192.7803,140.01372)"> 
 <g fill="rgb(0.0%,0.0%,0.0%)"> 
 <text style="stroke:none" transform="scale(1,-1) translate(6.3889,0)" text-anchor="middle"  font-size="10"> 
7,5</text> 
</g> 
 </g> 
 </g> 
 </g> 
 <path d=" M  227.62195 28.45274 M  213.39558 14.22638 M  213.39558 14.22638 L  213.39558 42.67911 L  241.84831 42.67911 L  241.84831 14.22638 Z M  241.84831 42.67911  " style="fill:none"/> 
 <path d=" M  227.62195 28.45274  " style="fill:none"/> 
 <g> 
 <g> 
 <g transform="matrix(1.0,0.0,0.0,1.0,221.23305,26.20274)"> 
 <g fill="rgb(0.0%,0.0%,0.0%)"> 
 <text style="stroke:none" transform="scale(1,-1) translate(6.3889,0)" text-anchor="middle"  font-size="10"> 
8,1</text> 
</g> 
 </g> 
 </g> 
 </g> 
 <path d=" M  227.62195 56.90549 M  213.39558 42.67912 M  213.39558 42.67912 L  213.39558 71.13185 L  241.84831 71.13185 L  241.84831 42.67912 Z M  241.84831 71.13185  " style="fill:none"/> 
 <path d=" M  227.62195 56.90549  " style="fill:none"/> 
 <g> 
 <g> 
 <g transform="matrix(1.0,0.0,0.0,1.0,221.23305,54.65549)"> 
 <g fill="rgb(0.0%,0.0%,0.0%)"> 
 <text style="stroke:none" transform="scale(1,-1) translate(6.3889,0)" text-anchor="middle"  font-size="10"> 
8,2</text> 
</g> 
 </g> 
 </g> 
 </g> 
 <path d=" M  227.62195 85.35823 M  213.39558 71.13187 M  213.39558 71.13187 L  213.39558 99.5846 L  241.84831 99.5846 L  241.84831 71.13187 Z M  241.84831 99.5846  " style="fill:none"/> 
 <path d=" M  227.62195 85.35823  " style="fill:none"/> 
 <g> 
 <g> 
 <g transform="matrix(1.0,0.0,0.0,1.0,221.23305,83.10823)"> 
 <g fill="rgb(0.0%,0.0%,0.0%)"> 
 <text style="stroke:none" transform="scale(1,-1) translate(6.3889,0)" text-anchor="middle"  font-size="10"> 
8,3</text> 
</g> 
 </g> 
 </g> 
 </g> 
 <path d=" M  227.62195 113.81097 M  213.39558 99.58461 M  213.39558 99.58461 L  213.39558 128.03734 L  241.84831 128.03734 L  241.84831 99.58461 Z M  241.84831 128.03734  " style="fill:none"/> 
 <path d=" M  227.62195 113.81097  " style="fill:none"/> 
 <g> 
 <g> 
 <g transform="matrix(1.0,0.0,0.0,1.0,221.23305,111.56097)"> 
 <g fill="rgb(0.0%,0.0%,0.0%)"> 
 <text style="stroke:none" transform="scale(1,-1) translate(6.3889,0)" text-anchor="middle"  font-size="10"> 
8,4</text> 
</g> 
 </g> 
 </g> 
 </g> 
 <path d=" M  227.62195 142.26372 M  213.39558 128.03735 M  213.39558 128.03735 L  213.39558 156.49008 L  241.84831 156.49008 L  241.84831 128.03735 Z M  241.84831 156.49008  " style="fill:none"/> 
 <path d=" M  227.62195 142.26372  " style="fill:none"/> 
 <g> 
 <g> 
 <g transform="matrix(1.0,0.0,0.0,1.0,221.23305,140.01372)"> 
 <g fill="rgb(0.0%,0.0%,0.0%)"> 
 <text style="stroke:none" transform="scale(1,-1) translate(6.3889,0)" text-anchor="middle"  font-size="10"> 
8,5</text> 
</g> 
 </g> 
 </g> 
 </g> 
 <path d=" M  256.07469 28.45274 M  241.84833 14.22638 M  241.84833 14.22638 L  241.84833 42.67911 L  270.30106 42.67911 L  270.30106 14.22638 Z M  270.30106 42.67911  " style="fill:none"/> 
 <path d=" M  256.07469 28.45274  " style="fill:none"/> 
 <g> 
 <g> 
 <g transform="matrix(1.0,0.0,0.0,1.0,249.68579,26.20274)"> 
 <g fill="rgb(0.0%,0.0%,0.0%)"> 
 <text style="stroke:none" transform="scale(1,-1) translate(6.3889,0)" text-anchor="middle"  font-size="10"> 
9,1</text> 
</g> 
 </g> 
 </g> 
 </g> 
 <path d=" M  256.07469 56.90549 M  241.84833 42.67912 M  241.84833 42.67912 L  241.84833 71.13185 L  270.30106 71.13185 L  270.30106 42.67912 Z M  270.30106 71.13185  " style="fill:none"/> 
 <path d=" M  256.07469 56.90549  " style="fill:none"/> 
 <g> 
 <g> 
 <g transform="matrix(1.0,0.0,0.0,1.0,249.68579,54.65549)"> 
 <g fill="rgb(0.0%,0.0%,0.0%)"> 
 <text style="stroke:none" transform="scale(1,-1) translate(6.3889,0)" text-anchor="middle"  font-size="10"> 
9,2</text> 
</g> 
 </g> 
 </g> 
 </g> 
 <path d=" M  256.07469 85.35823 M  241.84833 71.13187 M  241.84833 71.13187 L  241.84833 99.5846 L  270.30106 99.5846 L  270.30106 71.13187 Z M  270.30106 99.5846  " style="fill:none"/> 
 <path d=" M  256.07469 85.35823  " style="fill:none"/> 
 <g> 
 <g> 
 <g transform="matrix(1.0,0.0,0.0,1.0,249.68579,83.10823)"> 
 <g fill="rgb(0.0%,0.0%,0.0%)"> 
 <text style="stroke:none" transform="scale(1,-1) translate(6.3889,0)" text-anchor="middle"  font-size="10"> 
9,3</text> 
</g> 
 </g> 
 </g> 
 </g> 
 <path d=" M  256.07469 113.81097 M  241.84833 99.58461 M  241.84833 99.58461 L  241.84833 128.03734 L  270.30106 128.03734 L  270.30106 99.58461 Z M  270.30106 128.03734  " style="fill:none"/> 
 <path d=" M  256.07469 113.81097  " style="fill:none"/> 
 <g> 
 <g> 
 <g transform="matrix(1.0,0.0,0.0,1.0,249.68579,111.56097)"> 
 <g fill="rgb(0.0%,0.0%,0.0%)"> 
 <text style="stroke:none" transform="scale(1,-1) translate(6.3889,0)" text-anchor="middle"  font-size="10"> 
9,4</text> 
</g> 
 </g> 
 </g> 
 </g> 
 <path d=" M  256.07469 142.26372 M  241.84833 128.03735 M  241.84833 128.03735 L  241.84833 156.49008 L  270.30106 156.49008 L  270.30106 128.03735 Z M  270.30106 156.49008  " style="fill:none"/> 
 <path d=" M  256.07469 142.26372  " style="fill:none"/> 
 <g> 
 <g> 
 <g transform="matrix(1.0,0.0,0.0,1.0,249.68579,140.01372)"> 
 <g fill="rgb(0.0%,0.0%,0.0%)"> 
 <text style="stroke:none" transform="scale(1,-1) translate(6.3889,0)" text-anchor="middle"  font-size="10"> 
9,5</text> 
</g> 
 </g> 
 </g> 
 </g> 
 <path d=" M  284.52744 28.45274 M  270.30107 14.22638 M  270.30107 14.22638 L  270.30107 42.67911 L  298.7538 42.67911 L  298.7538 14.22638 Z M  298.7538 42.67911  " style="fill:none"/> 
 <path d=" M  284.52744 28.45274  " style="fill:none"/> 
 <g> 
 <g> 
 <g transform="matrix(1.0,0.0,0.0,1.0,275.63852,26.20274)"> 
 <g fill="rgb(0.0%,0.0%,0.0%)"> 
 <text style="stroke:none" transform="scale(1,-1) translate(8.88892,0)" text-anchor="middle"  font-size="10"> 
10,1</text> 
</g> 
 </g> 
 </g> 
 </g> 
 <path d=" M  284.52744 56.90549 M  270.30107 42.67912 M  270.30107 42.67912 L  270.30107 71.13185 L  298.7538 71.13185 L  298.7538 42.67912 Z M  298.7538 71.13185  " style="fill:none"/> 
 <path d=" M  284.52744 56.90549  " style="fill:none"/> 
 <g> 
 <g> 
 <g transform="matrix(1.0,0.0,0.0,1.0,275.63852,54.65549)"> 
 <g fill="rgb(0.0%,0.0%,0.0%)"> 
 <text style="stroke:none" transform="scale(1,-1) translate(8.88892,0)" text-anchor="middle"  font-size="10"> 
10,2</text> 
</g> 
 </g> 
 </g> 
 </g> 
 <path d=" M  284.52744 85.35823 M  270.30107 71.13187 M  270.30107 71.13187 L  270.30107 99.5846 L  298.7538 99.5846 L  298.7538 71.13187 Z M  298.7538 99.5846  " style="fill:none"/> 
 <path d=" M  284.52744 85.35823  " style="fill:none"/> 
 <g> 
 <g> 
 <g transform="matrix(1.0,0.0,0.0,1.0,275.63852,83.10823)"> 
 <g fill="rgb(0.0%,0.0%,0.0%)"> 
 <text style="stroke:none" transform="scale(1,-1) translate(8.88892,0)" text-anchor="middle"  font-size="10"> 
10,3</text> 
</g> 
 </g> 
 </g> 
 </g> 
 <path d=" M  284.52744 113.81097 M  270.30107 99.58461 M  270.30107 99.58461 L  270.30107 128.03734 L  298.7538 128.03734 L  298.7538 99.58461 Z M  298.7538 128.03734  " style="fill:none"/> 
 <path d=" M  284.52744 113.81097  " style="fill:none"/> 
 <g> 
 <g> 
 <g transform="matrix(1.0,0.0,0.0,1.0,275.63852,111.56097)"> 
 <g fill="rgb(0.0%,0.0%,0.0%)"> 
 <text style="stroke:none" transform="scale(1,-1) translate(8.88892,0)" text-anchor="middle"  font-size="10"> 
10,4</text> 
</g> 
 </g> 
 </g> 
 </g> 
 <path d=" M  284.52744 142.26372 M  270.30107 128.03735 M  270.30107 128.03735 L  270.30107 156.49008 L  298.7538 156.49008 L  298.7538 128.03735 Z M  298.7538 156.49008  " style="fill:none"/> 
 <path d=" M  284.52744 142.26372  " style="fill:none"/> 
 <g> 
 <g> 
 <g transform="matrix(1.0,0.0,0.0,1.0,275.63852,140.01372)"> 
 <g fill="rgb(0.0%,0.0%,0.0%)"> 
 <text style="stroke:none" transform="scale(1,-1) translate(8.88892,0)" text-anchor="middle"  font-size="10"> 
10,5</text> 
</g> 
 </g> 
 </g> 
 </g> 
 <path d=" M  312.98018 28.45274 M  298.75381 14.22638 M  298.75381 14.22638 L  298.75381 42.67911 L  327.20654 42.67911 L  327.20654 14.22638 Z M  327.20654 42.67911  " style="fill:none"/> 
 <path d=" M  312.98018 28.45274  " style="fill:none"/> 
 <g> 
 <g> 
 <g transform="matrix(1.0,0.0,0.0,1.0,304.09126,26.20274)"> 
 <g fill="rgb(0.0%,0.0%,0.0%)"> 
 <text style="stroke:none" transform="scale(1,-1) translate(8.88892,0)" text-anchor="middle"  font-size="10"> 
11,1</text> 
</g> 
 </g> 
 </g> 
 </g> 
 <path d=" M  312.98018 56.90549 M  298.75381 42.67912 M  298.75381 42.67912 L  298.75381 71.13185 L  327.20654 71.13185 L  327.20654 42.67912 Z M  327.20654 71.13185  " style="fill:none"/> 
 <path d=" M  312.98018 56.90549  " style="fill:none"/> 
 <g> 
 <g> 
 <g transform="matrix(1.0,0.0,0.0,1.0,304.09126,54.65549)"> 
 <g fill="rgb(0.0%,0.0%,0.0%)"> 
 <text style="stroke:none" transform="scale(1,-1) translate(8.88892,0)" text-anchor="middle"  font-size="10"> 
11,2</text> 
</g> 
 </g> 
 </g> 
 </g> 
 <path d=" M  312.98018 85.35823 M  298.75381 71.13187 M  298.75381 71.13187 L  298.75381 99.5846 L  327.20654 99.5846 L  327.20654 71.13187 Z M  327.20654 99.5846  " style="fill:none"/> 
 <path d=" M  312.98018 85.35823  " style="fill:none"/> 
 <g> 
 <g> 
 <g transform="matrix(1.0,0.0,0.0,1.0,304.09126,83.10823)"> 
 <g fill="rgb(0.0%,0.0%,0.0%)"> 
 <text style="stroke:none" transform="scale(1,-1) translate(8.88892,0)" text-anchor="middle"  font-size="10"> 
11,3</text> 
</g> 
 </g> 
 </g> 
 </g> 
 <path d=" M  312.98018 113.81097 M  298.75381 99.58461 M  298.75381 99.58461 L  298.75381 128.03734 L  327.20654 128.03734 L  327.20654 99.58461 Z M  327.20654 128.03734  " style="fill:none"/> 
 <path d=" M  312.98018 113.81097  " style="fill:none"/> 
 <g> 
 <g> 
 <g transform="matrix(1.0,0.0,0.0,1.0,304.09126,111.56097)"> 
 <g fill="rgb(0.0%,0.0%,0.0%)"> 
 <text style="stroke:none" transform="scale(1,-1) translate(8.88892,0)" text-anchor="middle"  font-size="10"> 
11,4</text> 
</g> 
 </g> 
 </g> 
 </g> 
 <path d=" M  312.98018 142.26372 M  298.75381 128.03735 M  298.75381 128.03735 L  298.75381 156.49008 L  327.20654 156.49008 L  327.20654 128.03735 Z M  327.20654 156.49008  " style="fill:none"/> 
 <path d=" M  312.98018 142.26372  " style="fill:none"/> 
 <g> 
 <g> 
 <g transform="matrix(1.0,0.0,0.0,1.0,304.09126,140.01372)"> 
 <g fill="rgb(0.0%,0.0%,0.0%)"> 
 <text style="stroke:none" transform="scale(1,-1) translate(8.88892,0)" text-anchor="middle"  font-size="10"> 
11,5</text> 
</g> 
 </g> 
 </g> 
 </g> 
 <path d=" M  341.43292 28.45274 M  327.20656 14.22638 M  327.20656 14.22638 L  327.20656 42.67911 L  355.65929 42.67911 L  355.65929 14.22638 Z M  355.65929 42.67911  " style="fill:none"/> 
 <path d=" M  341.43292 28.45274  " style="fill:none"/> 
 <g> 
 <g> 
 <g transform="matrix(1.0,0.0,0.0,1.0,332.544,26.20274)"> 
 <g fill="rgb(0.0%,0.0%,0.0%)"> 
 <text style="stroke:none" transform="scale(1,-1) translate(8.88892,0)" text-anchor="middle"  font-size="10"> 
12,1</text> 
</g> 
 </g> 
 </g> 
 </g> 
 <path d=" M  341.43292 56.90549 M  327.20656 42.67912 M  327.20656 42.67912 L  327.20656 71.13185 L  355.65929 71.13185 L  355.65929 42.67912 Z M  355.65929 71.13185  " style="fill:none"/> 
 <path d=" M  341.43292 56.90549  " style="fill:none"/> 
 <g> 
 <g> 
 <g transform="matrix(1.0,0.0,0.0,1.0,332.544,54.65549)"> 
 <g fill="rgb(0.0%,0.0%,0.0%)"> 
 <text style="stroke:none" transform="scale(1,-1) translate(8.88892,0)" text-anchor="middle"  font-size="10"> 
12,2</text> 
</g> 
 </g> 
 </g> 
 </g> 
 <path d=" M  341.43292 85.35823 M  327.20656 71.13187 M  327.20656 71.13187 L  327.20656 99.5846 L  355.65929 99.5846 L  355.65929 71.13187 Z M  355.65929 99.5846  " style="fill:none"/> 
 <path d=" M  341.43292 85.35823  " style="fill:none"/> 
 <g> 
 <g> 
 <g transform="matrix(1.0,0.0,0.0,1.0,332.544,83.10823)"> 
 <g fill="rgb(0.0%,0.0%,0.0%)"> 
 <text style="stroke:none" transform="scale(1,-1) translate(8.88892,0)" text-anchor="middle"  font-size="10"> 
12,3</text> 
</g> 
 </g> 
 </g> 
 </g> 
 <path d=" M  341.43292 113.81097 M  327.20656 99.58461 M  327.20656 99.58461 L  327.20656 128.03734 L  355.65929 128.03734 L  355.65929 99.58461 Z M  355.65929 128.03734  " style="fill:none"/> 
 <path d=" M  341.43292 113.81097  " style="fill:none"/> 
 <g> 
 <g> 
 <g transform="matrix(1.0,0.0,0.0,1.0,332.544,111.56097)"> 
 <g fill="rgb(0.0%,0.0%,0.0%)"> 
 <text style="stroke:none" transform="scale(1,-1) translate(8.88892,0)" text-anchor="middle"  font-size="10"> 
12,4</text> 
</g> 
 </g> 
 </g> 
 </g> 
 <path d=" M  341.43292 142.26372 M  327.20656 128.03735 M  327.20656 128.03735 L  327.20656 156.49008 L  355.65929 156.49008 L  355.65929 128.03735 Z M  355.65929 156.49008  " style="fill:none"/> 
 <path d=" M  341.43292 142.26372  " style="fill:none"/> 
 <g> 
 <g> 
 <g transform="matrix(1.0,0.0,0.0,1.0,332.544,140.01372)"> 
 <g fill="rgb(0.0%,0.0%,0.0%)"> 
 <text style="stroke:none" transform="scale(1,-1) translate(8.88892,0)" text-anchor="middle"  font-size="10"> 
12,5</text> 
</g> 
 </g> 
 </g> 
 </g> 
 </g> 
 </g> 
 </g> 
 </g> 
 </g> 
                                                                                              </g> 
</svg> 
