<svg xmlns="http://www.w3.org/2000/svg" xmlns:xlink="http://www.w3.org/1999/xlink" width="85.55821pt" height="57.10547pt" viewBox="-0.09999 -0.09999 85.55821 57.10547 "> 
<g transform="translate(0, 57.00548 ) scale(1,-1) translate(0,0.09999 )"> 
        <g> 
 <g stroke="rgb(0.0%,0.0%,0.0%)"> 
 <g fill="rgb(0.0%,0.0%,0.0%)"> 
 <g stroke-width="0.4pt"> 
 <g> 
 </g> 
 <g> 
 <g> 
 <g stroke="rgb(50.0%,50.0%,50.0%)"> 
 <g fill="rgb(50.0%,50.0%,50.0%)"> 
 <g stroke-width="0.2pt"> 
 <path d=" M  0.0 0.0 M  0.0 0.0 L  85.35823 0.0 M  0.0 28.45274 L  85.35823 28.45274 M  0.0 56.8955 L  85.35823 56.8955 M  0.0 0.0 L  0.0 56.90549 M  28.45274 0.0 L  28.45274 56.90549 M  56.90549 0.0 L  56.90549 56.90549 M  85.34824 0.0 L  85.34824 56.90549  " style="fill:none"/> 
 </g> 
 </g> 
 </g> 
 </g> 
 <path d=" M  58.90549 28.45274 C  58.90549 29.56273 58.01547 30.45274 56.90549 30.45274 C  55.7955 30.45274 54.90549 29.56273 54.90549 28.45274 C  54.90549 27.34276 55.7955 26.45274 56.90549 26.45274 C  58.01547 26.45274 58.90549 27.34276 58.90549 28.45274 Z M  56.90549 28.45274  " style="stroke:none"/> 
 </g> 
 </g> 
 </g> 
 </g> 
 </g> 
                   </g> 
</svg> 
