<svg xmlns="http://www.w3.org/2000/svg" xmlns:xlink="http://www.w3.org/1999/xlink" width="27.43887pt" height="9.01108pt" viewBox="-0.2 -4.50554 27.43887 9.01108 "> 
<g transform="translate(0, 4.50554 ) scale(1,-1) translate(0,4.50554 )"> 
        <g> 
 <g stroke="rgb(0.0%,0.0%,0.0%)"> 
 <g fill="rgb(0.0%,0.0%,0.0%)"> 
 <g stroke-width="0.4pt"> 
 <g> 
 </g> 
 <g> 
 <path d=" M  0.0 0.0 C  2.1517 2.15277 4.29259 4.30554 6.75972 4.30554 C  9.22684 4.30554 11.36772 2.15277 13.51944 0.0 C  15.67114 -2.15277 17.81203 -4.30554 20.27916 -4.30554 C  22.74628 -4.30554 24.88716 -2.15277 27.03888 0.0 M  0.0 4.30554 C  2.46712 4.30554 4.608 2.15277 6.75972 0.0 C  8.91142 -2.15277 11.0523 -4.30554 13.51944 -4.30554 C  15.98656 -4.30554 18.12744 -2.15277 20.27916 0.0 C  22.43086 2.15277 24.57175 4.30554 27.03888 4.30554  " style="fill:none"/> 
 </g> 
 </g> 
 </g> 
 </g> 
 </g> 
 </g> 
</svg> 
