<svg xmlns="http://www.w3.org/2000/svg" xmlns:xlink="http://www.w3.org/1999/xlink" width="90.83932pt" height="75.83109pt" viewBox="-19.50748 -37.91554 90.83932 75.83109 "> 
<g transform="translate(0, 37.91554 ) scale(1,-1) translate(0,37.91554 )"> 
              <g> 
 <g stroke="rgb(0.0%,0.0%,0.0%)"> 
 <g fill="rgb(0.0%,0.0%,0.0%)"> 
 <g stroke-width="0.4pt"> 
 <g> 
 </g> 
 <g> 
 <g> 
 <path d=" M  19.30748 0.0 C  19.30748 5.02979 10.7155 9.0628 0.0 9.0628 C  -10.7155 9.0628 -19.30748 5.02979 -19.30748 0.0 C  -19.30748 -5.02979 -10.7155 -9.0628 0.0 -9.0628 C  10.7155 -9.0628 19.30748 -5.02979 19.30748 0.0 Z M  0.0 0.0  " style="fill:none"/> 
 <g> 
 <g transform="matrix(1.0,0.0,0.0,1.0,-10.31946,-3.0754)"> 
 <g fill="rgb(0.0%,0.0%,0.0%)"> 
 <text style="stroke:none" transform="scale(1,-1) translate(10.31946,0)" text-anchor="middle"  font-size="10"> 
start</text> 
</g> 
 </g> 
 </g> 
 </g> 
 <path d=" M  0.0 -9.2628 C  0.0 -37.71555 42.67911 0.0 71.13185 0.0  " style="fill:none"/> 
 <path d=" M  1.6276 -9.23326 C  6.56827 -37.25359 42.67911 0.0 71.13185 0.0  " style="fill:none"/> 
 <path d=" M  3.32307 -9.13177 C  13.05464 -35.86873 42.67911 0.0 71.13185 0.0  " style="fill:none"/> 
 <path d=" M  5.16292 -8.94252 C  19.38928 -33.58337 42.67911 0.0 71.13185 0.0  " style="fill:none"/> 
 <path d=" M  7.24147 -8.62973 C  25.53065 -30.42558 42.67911 0.0 71.13185 0.0  " style="fill:none"/> 
 <path d=" M  9.63287 -8.08191 C  31.42873 -26.3711 42.67911 0.0 71.13185 0.0  " style="fill:none"/> 
 <path d=" M  12.40619 -7.16264 C  37.04704 -21.389 42.67911 0.0 71.13185 0.0  " style="fill:none"/> 
 <path d=" M  15.53102 -5.65314 C  42.26797 -15.3847 42.67911 0.0 71.13185 0.0  " style="fill:none"/> 
 <path d=" M  18.2954 -3.22633 C  46.31572 -8.167 42.67911 0.0 71.13185 0.0  " style="fill:none"/> 
 <path d=" M  19.50748 0.0 C  47.96022 0.0 42.67911 0.0 71.13185 0.0  " style="fill:none"/> 
 <path d=" M  18.2954 3.22633 C  46.31572 8.167 42.67911 0.0 71.13185 0.0  " style="fill:none"/> 
 <path d=" M  15.53102 5.65314 C  42.26797 15.3847 42.67911 0.0 71.13185 0.0  " style="fill:none"/> 
 <path d=" M  12.40619 7.16264 C  37.04704 21.389 42.67911 0.0 71.13185 0.0  " style="fill:none"/> 
 <path d=" M  9.63287 8.08191 C  31.42873 26.3711 42.67911 0.0 71.13185 0.0  " style="fill:none"/> 
 <path d=" M  7.24147 8.62973 C  25.53065 30.42558 42.67911 0.0 71.13185 0.0  " style="fill:none"/> 
 <path d=" M  5.16292 8.94252 C  19.38928 33.58337 42.67911 0.0 71.13185 0.0  " style="fill:none"/> 
 <path d=" M  3.32307 9.13177 C  13.05464 35.86873 42.67911 0.0 71.13185 0.0  " style="fill:none"/> 
 <path d=" M  1.6276 9.23326 C  6.56827 37.25359 42.67911 0.0 71.13185 0.0  " style="fill:none"/> 
 <path d=" M  0.0 9.2628 C  0.0 37.71555 42.67911 0.0 71.13185 0.0  " style="fill:none"/> 
 </g> 
 </g> 
 </g> 
 </g> 
 </g> 
 
                           </g> 
</svg> 
