<svg xmlns="http://www.w3.org/2000/svg" xmlns:xlink="http://www.w3.org/1999/xlink" width="102.4309pt" height="81.09004pt" viewBox="-8.53633 -17.07138 102.4309 81.09004 "> 
<g transform="translate(0, 64.01866 ) scale(1,-1) translate(0,17.07138 )"> 
           <g> 
 <g stroke="rgb(0.0%,0.0%,0.0%)"> 
 <g fill="rgb(0.0%,0.0%,0.0%)"> 
 <g stroke-width="0.4pt"> 
 <g> 
 </g> 
 <g> 
 <clipPath id="pgfcp14"> <path d=" M  -8.53633 -17.07138 M  -8.53633 -17.07138 L  -8.53633 64.01866 L  93.89456 64.01866 L  93.89456 -17.07138 Z M  93.89456 64.01866  "/> 
</clipPath> 
 <g clip-path="url(#pgfcp14)"> 
 <g> 
 <g stroke="rgb(50.0%,50.0%,50.0%)"> 
 <g fill="rgb(50.0%,50.0%,50.0%)"> 
 <g stroke-width="0.2pt"> 
 <path d=" M  -119.50099 -119.50099 M  -119.50099 -85.35818 L  119.50099 -85.35818 M  -119.50099 -42.6791 L  119.50099 -42.6791 M  -119.50099 0.0 L  119.50099 0.0 M  -119.50099 42.6791 L  119.50099 42.6791 M  -119.50099 85.35818 L  119.50099 85.35818 M  -85.35818 -119.50099 L  -85.35818 119.50099 M  -42.6791 -119.50099 L  -42.6791 119.50099 M  0.0 -119.50099 L  0.0 119.50099 M  42.6791 -119.50099 L  42.6791 119.50099 M  85.35818 -119.50099 L  85.35818 119.50099  " style="fill:none"/> 
 </g> 
 </g> 
 </g> 
 </g> 
 <path d=" M  -128.03732 0.0 L  128.03732 0.0  " style="fill:none"/> 
 <path d=" M  0.0 -128.03732 L  0.0 128.03732  " style="fill:none"/> 
 <path d=" M  0.0 0.0 M  85.35823 0.0 C  85.35823 47.37318 47.37318 85.35823 0.0 85.35823 C  -47.37318 85.35823 -85.35823 47.37318 -85.35823 0.0 C  -85.35823 -47.37318 -47.37318 -85.35823 0.0 -85.35823 C  47.37318 -85.35823 85.35823 -47.37318 85.35823 0.0 Z M  0.0 0.0  " style="fill:none"/> 
 <g> 
 <g stroke="rgb(0.0%,50.0%,0.0%)"> 
 <g> 
 <clipPath id="pgfcp15"> <path d=" M  0.0 0.0 L  25.60744 0.0 C  25.60744 4.60936 24.48138 8.8119 22.17673 12.8037 Z  "/> 
</clipPath> 
 <g clip-path="url(#pgfcp15)"> 
 <g transform="matrix(1,0,0,1,12.80371,6.40184)"> 
 <g transform="matrix(0.51225,0,0,0.25612,0.0,0.0)"> 
 <g transform="matrix(0.0,0.0,-1.0,0.0,0.0,0.0)"> 
  <linearGradient id="pgfsh16" gradientTransform="rotate(90)"> 
 <stop offset=" 0.0" stop-color=" rgb(0.0%,100.0%,0.0%) "/> 
 <stop offset=" 0.25" stop-color=" rgb(0.0%,100.0%,0.0%) "/> 
 <stop offset=" 0.5" stop-color=" rgb(25.0%,75.0%,25.0%) "/> 
 <stop offset=" 0.75" stop-color=" rgb(50.0%,50.0%,50.0%) "/> 
 <stop offset=" 1.0" stop-color=" rgb(50.0%,50.0%,50.0%) "/> 
 </linearGradient> 
 <g transform="translate(-50.1875,-50.1875)"> 
 <rect width="100.375pt" height="100.375pt" style="fill:url(#pgfsh16); stroke:none"/> 
 </g> 
 </g> 
 </g> 
 </g> 
 </g> 
 </g> 
 <path d=" M  0.0 0.0 L  25.60744 0.0 C  25.60744 4.60936 24.48138 8.8119 22.17673 12.8037 Z  " style="fill:none"/> 
 </g> 
 </g> 
 </g> 
 </g> 
 </g> 
 </g> 
 </g> 
 </g> 
 
                               </g> 
</svg> 
