<svg xmlns="http://www.w3.org/2000/svg" xmlns:xlink="http://www.w3.org/1999/xlink" width="8.61108pt" height="8.61108pt" viewBox="-4.30554 -4.30554 8.61108 8.61108 "> 
<g transform="translate(0, 4.30554 ) scale(1,-1) translate(0,4.30554 )"> 
         <g> 
 <g stroke="rgb(0.0%,0.0%,0.0%)"> 
 <g fill="rgb(0.0%,0.0%,0.0%)"> 
 <g stroke-width="0.4pt"> 
 <g> 
 </g> 
 <g> 
 <g> 
 <clipPath id="pgfcp40"> <path d=" M  0.0 0.0 M  4.30554 0.0 C  4.30554 2.38954 2.38954 4.30554 0.0 4.30554 C  -2.38954 4.30554 -4.30554 2.38954 -4.30554 0.0 C  -4.30554 -2.38954 -2.38954 -4.30554 0.0 -4.30554 C  2.38954 -4.30554 4.30554 -2.38954 4.30554 0.0 Z M  0.0 0.0  "/> 
</clipPath> 
 <g clip-path="url(#pgfcp40)"> 
 <g transform="matrix(1,0,0,1,0.0,0.0)"> 
 <g transform="matrix(0.17226,0,0,0.17226,0.0,0.0)"> 
 <g transform="matrix(0.0,0.0,0.0,0.0,0.0,0.0)"> 
  <linearGradient id="pgfsh6" gradientTransform="rotate(90)"> 
 <stop offset=" 0.0" stop-color=" rgb(100.0%,100.0%,100.0%) "/> 
 <stop offset=" 0.25" stop-color=" rgb(100.0%,100.0%,100.0%) "/> 
 <stop offset=" 0.5" stop-color=" rgb(75.0%,75.0%,75.0%) "/> 
 <stop offset=" 0.75" stop-color=" rgb(50.0%,50.0%,50.0%) "/> 
 <stop offset=" 1.0" stop-color=" rgb(50.0%,50.0%,50.0%) "/> 
 </linearGradient> 
 <g transform="translate(-50.1875,-50.1875)"> 
 <rect width="100.375pt" height="100.375pt" style="fill:url(#pgfsh6); stroke:none"/> 
 </g> 
 </g> 
 </g> 
 </g> 
 </g> 
 </g> 
 </g> 
 </g> 
 </g> 
 </g> 
 </g> 
  </g> 
</svg> 
