<svg xmlns="http://www.w3.org/2000/svg" xmlns:xlink="http://www.w3.org/1999/xlink" width="70.86311pt" height="71.01807pt" viewBox="-7.08298 -42.53377 70.86311 71.01807 "> 
<g transform="translate(0, 28.4843 ) scale(1,-1) translate(0,42.53377 )"> 
          <g> 
 <g stroke="rgb(0.0%,0.0%,0.0%)"> 
 <g fill="rgb(0.0%,0.0%,0.0%)"> 
 <g stroke-width="0.4pt"> 
 <g> 
 </g> 
 <g> 
 <g> 
 <g> 
 <g transform="matrix(1.0,0.0,0.0,1.0,-3.75,-3.41666)"> 
 <g fill="rgb(0.0%,0.0%,0.0%)"> 
 <text style="stroke:none" transform="scale(1,-1) translate(3.75,0)" text-anchor="middle"  font-size="10"> 
A</text> 
</g> 
 </g> 
 </g> 
 </g> 
 <g> 
 <g> 
 <g transform="matrix(1.0,0.0,0.0,1.0,53.36382,-3.41666)"> 
 <g fill="rgb(0.0%,0.0%,0.0%)"> 
 <text style="stroke:none" transform="scale(1,-1) translate(3.54167,0)" text-anchor="middle"  font-size="10"> 
B</text> 
</g> 
 </g> 
 </g> 
 </g> 
 <g> 
 <g> 
 <g transform="matrix(1.0,0.0,0.0,1.0,-3.75,-31.8694)"> 
 <g fill="rgb(0.0%,0.0%,0.0%)"> 
 <text style="stroke:none" transform="scale(1,-1) translate(3.75,0)" text-anchor="middle"  font-size="10"> 
A</text> 
</g> 
 </g> 
 </g> 
 </g> 
 <g> 
 <g> 
 <g transform="matrix(1.0,0.0,0.0,1.0,53.36382,-31.8694)"> 
 <g fill="rgb(0.0%,0.0%,0.0%)"> 
 <text style="stroke:none" transform="scale(1,-1) translate(3.54167,0)" text-anchor="middle"  font-size="10"> 
B</text> 
</g> 
 </g> 
 </g> 
 </g> 
 <path d=" M  7.28297 0.0 M  14.35405 7.07108 C  18.27823 3.1469 18.27823 -3.1469 14.35405 -7.07108 M  21.42513 14.14215 C  29.27348 6.2938 29.27348 -6.2938 21.42513 -14.14215 M  28.4962 21.21323 C  40.26874 9.44069 40.26874 -9.44069 28.4962 -21.21323 M  35.56728 28.2843 C  51.26399 12.58759 51.26399 -12.58759 35.56728 -28.2843 M  49.66505 0.0  " style="fill:none"/> 
 <g> 
 <g stroke="rgb(100.0%,0.0%,0.0%)"> 
 <g fill="rgb(100.0%,0.0%,0.0%)"> 
 <g stroke-width="0.8pt"> 
 <path d=" M  7.28297 -28.45274 M  16.67995 -25.03249 C  17.50081 -27.28778 17.50081 -29.6177 16.67995 -31.873 M  26.07692 -21.61223 C  27.71866 -26.12283 27.71866 -30.78265 26.07692 -35.29326 M  35.47389 -18.19197 C  37.93651 -24.95789 37.93651 -31.9476 35.47389 -38.71352 M  44.87086 -14.77171 C  48.15436 -23.79294 48.15436 -33.11255 44.87086 -42.13377 M  49.66505 -28.45274  " style="fill:none"/> 
 </g> 
 </g> 
 </g> 
 </g> 
 </g> 
 </g> 
 </g> 
 </g> 
 </g> 
 
                     </g> 
</svg> 
