<svg xmlns="http://www.w3.org/2000/svg" xmlns:xlink="http://www.w3.org/1999/xlink" width="288.52744pt" height="60.89592pt" viewBox="-2.0 -30.44405 288.52744 60.89592 "> 
<g transform="translate(0, 30.45187 ) scale(1,-1) translate(0,30.44405 )"> 
         <g> 
 <g stroke="rgb(0.0%,0.0%,0.0%)"> 
 <g fill="rgb(0.0%,0.0%,0.0%)"> 
 <g stroke-width="0.4pt"> 
 <g> 
 </g> 
 <g> 
 <g> 
 <g stroke-width="1.6pt"> 
 <path d=" M  0.0 0.0 L  0.0 0.0 M  14.97528 0.0 L  14.97528 14.29323 M  29.95013 0.0 L  29.95013 24.71771 M  44.92542 0.0 L  44.92542 28.45187 M  59.90028 0.0 L  59.90028 24.48456 M  74.87556 0.0 L  74.87556 13.89034 M  89.85042 0.0 L  89.85042 -0.46367 M  104.82571 0.0 L  104.82571 -14.69221 M  119.801 0.0 L  119.801 -24.94434 M  134.77628 0.0 L  134.77628 -28.44405 M  149.75114 0.0 L  149.75114 -24.24535 M  164.72643 0.0 L  164.72643 -13.48396 M  179.7017 0.0 L  179.7017 0.92735 M  194.677 0.0 L  194.677 15.08772 M  209.65186 0.0 L  209.65186 25.16402 M  224.62714 0.0 L  224.62714 28.42929 M  239.602 0.0 L  239.602 23.99918 M  254.57729 0.0 L  254.57729 13.07326 M  269.55214 0.0 L  269.55214 -1.39102 M  284.52744 0.0 L  284.52744 -15.4789  " style="fill:none"/> 
 <g> 
 <path d=" M  2.0 0.0 C  2.0 1.10999 1.10999 2.0 0.0 2.0 C  -1.10999 2.0 -2.0 1.10999 -2.0 0.0 C  -2.0 -1.10999 -1.10999 -2.0 0.0 -2.0 C  1.10999 -2.0 2.0 -1.10999 2.0 0.0 Z M  0.0 0.0  " /> 
 <path d=" M  16.97528 14.29323 C  16.97528 15.40321 16.08527 16.29323 14.97528 16.29323 C  13.8653 16.29323 12.97528 15.40321 12.97528 14.29323 C  12.97528 13.18324 13.8653 12.29323 14.97528 12.29323 C  16.08527 12.29323 16.97528 13.18324 16.97528 14.29323 Z M  14.97528 14.29323  " /> 
 <path d=" M  31.95013 24.71771 C  31.95013 25.8277 31.06012 26.71771 29.95013 26.71771 C  28.84015 26.71771 27.95013 25.8277 27.95013 24.71771 C  27.95013 23.60773 28.84015 22.71771 29.95013 22.71771 C  31.06012 22.71771 31.95013 23.60773 31.95013 24.71771 Z M  29.95013 24.71771  " /> 
 <path d=" M  46.92542 28.45187 C  46.92542 29.56186 46.0354 30.45187 44.92542 30.45187 C  43.81543 30.45187 42.92542 29.56186 42.92542 28.45187 C  42.92542 27.34189 43.81543 26.45187 44.92542 26.45187 C  46.0354 26.45187 46.92542 27.34189 46.92542 28.45187 Z M  44.92542 28.45187  " /> 
 <path d=" M  61.90028 24.48456 C  61.90028 25.59454 61.01027 26.48456 59.90028 26.48456 C  58.7903 26.48456 57.90028 25.59454 57.90028 24.48456 C  57.90028 23.37457 58.7903 22.48456 59.90028 22.48456 C  61.01027 22.48456 61.90028 23.37457 61.90028 24.48456 Z M  59.90028 24.48456  " /> 
 <path d=" M  76.87556 13.89034 C  76.87556 15.00032 75.98555 15.89034 74.87556 15.89034 C  73.76558 15.89034 72.87556 15.00032 72.87556 13.89034 C  72.87556 12.78035 73.76558 11.89034 74.87556 11.89034 C  75.98555 11.89034 76.87556 12.78035 76.87556 13.89034 Z M  74.87556 13.89034  " /> 
 <path d=" M  91.85042 -0.46367 C  91.85042 0.64632 90.9604 1.53633 89.85042 1.53633 C  88.74043 1.53633 87.85042 0.64632 87.85042 -0.46367 C  87.85042 -1.57365 88.74043 -2.46367 89.85042 -2.46367 C  90.9604 -2.46367 91.85042 -1.57365 91.85042 -0.46367 Z M  89.85042 -0.46367  " /> 
 <path d=" M  106.82571 -14.69221 C  106.82571 -13.58223 105.9357 -12.69221 104.82571 -12.69221 C  103.71573 -12.69221 102.82571 -13.58223 102.82571 -14.69221 C  102.82571 -15.8022 103.71573 -16.69221 104.82571 -16.69221 C  105.9357 -16.69221 106.82571 -15.8022 106.82571 -14.69221 Z M  104.82571 -14.69221  " /> 
 <path d=" M  121.801 -24.94434 C  121.801 -23.83435 120.91098 -22.94434 119.801 -22.94434 C  118.69101 -22.94434 117.801 -23.83435 117.801 -24.94434 C  117.801 -26.05432 118.69101 -26.94434 119.801 -26.94434 C  120.91098 -26.94434 121.801 -26.05432 121.801 -24.94434 Z M  119.801 -24.94434  " /> 
 <path d=" M  136.77628 -28.44405 C  136.77628 -27.33406 135.88626 -26.44405 134.77628 -26.44405 C  133.66629 -26.44405 132.77628 -27.33406 132.77628 -28.44405 C  132.77628 -29.55403 133.66629 -30.44405 134.77628 -30.44405 C  135.88626 -30.44405 136.77628 -29.55403 136.77628 -28.44405 Z M  134.77628 -28.44405  " /> 
 <path d=" M  151.75114 -24.24535 C  151.75114 -23.13536 150.86113 -22.24535 149.75114 -22.24535 C  148.64116 -22.24535 147.75114 -23.13536 147.75114 -24.24535 C  147.75114 -25.35533 148.64116 -26.24535 149.75114 -26.24535 C  150.86113 -26.24535 151.75114 -25.35533 151.75114 -24.24535 Z M  149.75114 -24.24535  " /> 
 <path d=" M  166.72643 -13.48396 C  166.72643 -12.37398 165.83641 -11.48396 164.72643 -11.48396 C  163.61644 -11.48396 162.72643 -12.37398 162.72643 -13.48396 C  162.72643 -14.59395 163.61644 -15.48396 164.72643 -15.48396 C  165.83641 -15.48396 166.72643 -14.59395 166.72643 -13.48396 Z M  164.72643 -13.48396  " /> 
 <path d=" M  181.7017 0.92735 C  181.7017 2.03734 180.81169 2.92735 179.7017 2.92735 C  178.59172 2.92735 177.7017 2.03734 177.7017 0.92735 C  177.7017 -0.18263 178.59172 -1.07265 179.7017 -1.07265 C  180.81169 -1.07265 181.7017 -0.18263 181.7017 0.92735 Z M  179.7017 0.92735  " /> 
 <path d=" M  196.677 15.08772 C  196.677 16.19771 195.78699 17.08772 194.677 17.08772 C  193.56702 17.08772 192.677 16.19771 192.677 15.08772 C  192.677 13.97774 193.56702 13.08772 194.677 13.08772 C  195.78699 13.08772 196.677 13.97774 196.677 15.08772 Z M  194.677 15.08772  " /> 
 <path d=" M  211.65186 25.16402 C  211.65186 26.274 210.76184 27.16402 209.65186 27.16402 C  208.54187 27.16402 207.65186 26.274 207.65186 25.16402 C  207.65186 24.05403 208.54187 23.16402 209.65186 23.16402 C  210.76184 23.16402 211.65186 24.05403 211.65186 25.16402 Z M  209.65186 25.16402  " /> 
 <path d=" M  226.62714 28.42929 C  226.62714 29.53928 225.73712 30.42929 224.62714 30.42929 C  223.51715 30.42929 222.62714 29.53928 222.62714 28.42929 C  222.62714 27.3193 223.51715 26.42929 224.62714 26.42929 C  225.73712 26.42929 226.62714 27.3193 226.62714 28.42929 Z M  224.62714 28.42929  " /> 
 <path d=" M  241.602 23.99918 C  241.602 25.10916 240.71199 25.99918 239.602 25.99918 C  238.49202 25.99918 237.602 25.10916 237.602 23.99918 C  237.602 22.88919 238.49202 21.99918 239.602 21.99918 C  240.71199 21.99918 241.602 22.88919 241.602 23.99918 Z M  239.602 23.99918  " /> 
 <path d=" M  256.57729 13.07326 C  256.57729 14.18324 255.68727 15.07326 254.57729 15.07326 C  253.4673 15.07326 252.57729 14.18324 252.57729 13.07326 C  252.57729 11.96327 253.4673 11.07326 254.57729 11.07326 C  255.68727 11.07326 256.57729 11.96327 256.57729 13.07326 Z M  254.57729 13.07326  " /> 
 <path d=" M  271.55214 -1.39102 C  271.55214 -0.28104 270.66212 0.60898 269.55214 0.60898 C  268.44215 0.60898 267.55214 -0.28104 267.55214 -1.39102 C  267.55214 -2.501 268.44215 -3.39102 269.55214 -3.39102 C  270.66212 -3.39102 271.55214 -2.501 271.55214 -1.39102 Z M  269.55214 -1.39102  " /> 
 <path d=" M  286.52744 -15.4789 C  286.52744 -14.36891 285.63742 -13.4789 284.52744 -13.4789 C  283.41745 -13.4789 282.52744 -14.36891 282.52744 -15.4789 C  282.52744 -16.58888 283.41745 -17.4789 284.52744 -17.4789 C  285.63742 -17.4789 286.52744 -16.58888 286.52744 -15.4789 Z M  284.52744 -15.4789  " /> 
 </g> 
 </g> 
 </g> 
 </g> 
 </g> 
 </g> 
 </g> 
 </g> 
 
                                                                                       </g> 
</svg> 
