<svg xmlns="http://www.w3.org/2000/svg" xmlns:xlink="http://www.w3.org/1999/xlink" width="120.4pt" height="40.4pt" viewBox="-0.2 -0.2 120.4 40.4 "> 
<g transform="translate(0, 40.2 ) scale(1,-1) translate(0,0.2 )"> 
        <g> 
 <g stroke="rgb(0.0%,0.0%,0.0%)"> 
 <g fill="rgb(0.0%,0.0%,0.0%)"> 
 <g stroke-width="0.4pt"> 
 <g> 
 </g> 
 <g> 
 <g> 
 <g stroke="rgb(50.0%,50.0%,50.0%)"> 
 <g fill="rgb(50.0%,50.0%,50.0%)"> 
 <path d=" M  0.0 0.0 M  0.0 0.0 L  40.0 0.0 M  0.0 10.0 L  40.0 10.0 M  0.0 20.0 L  40.0 20.0 M  0.0 30.0 L  40.0 30.0 M  0.0 39.99 L  40.0 39.99 M  0.0 0.0 L  0.0 40.0 M  10.0 0.0 L  10.0 40.0 M  20.0 0.0 L  20.0 40.0 M  30.0 0.0 L  30.0 40.0 M  39.99 0.0 L  39.99 40.0  " style="fill:none"/> 
 </g> 
 </g> 
 </g> 
 <path d=" M  80.0 0.0 M  80.0 0.0 L  120.0 0.0 M  80.0 2.0 L  120.0 2.0 M  80.0 4.0 L  120.0 4.0 M  80.0 6.0 L  120.0 6.0 M  80.0 8.0 L  120.0 8.0 M  80.0 10.0 L  120.0 10.0 M  80.0 12.0 L  120.0 12.0 M  80.0 14.0 L  120.0 14.0 M  80.0 16.0 L  120.0 16.0 M  80.0 18.0 L  120.0 18.0 M  80.0 20.0 L  120.0 20.0 M  80.0 22.0 L  120.0 22.0 M  80.0 24.0 L  120.0 24.0 M  80.0 26.0 L  120.0 26.0 M  80.0 28.0 L  120.0 28.0 M  80.0 30.0 L  120.0 30.0 M  80.0 32.0 L  120.0 32.0 M  80.0 34.0 L  120.0 34.0 M  80.0 36.0 L  120.0 36.0 M  80.0 38.0 L  120.0 38.0 M  80.0 39.99 L  120.0 39.99 M  80.0 0.0 L  80.0 40.0 M  82.0 0.0 L  82.0 40.0 M  84.0 0.0 L  84.0 40.0 M  86.0 0.0 L  86.0 40.0 M  88.0 0.0 L  88.0 40.0 M  90.0 0.0 L  90.0 40.0 M  92.0 0.0 L  92.0 40.0 M  94.0 0.0 L  94.0 40.0 M  96.0 0.0 L  96.0 40.0 M  98.0 0.0 L  98.0 40.0 M  100.0 0.0 L  100.0 40.0 M  102.0 0.0 L  102.0 40.0 M  104.0 0.0 L  104.0 40.0 M  106.0 0.0 L  106.0 40.0 M  108.0 0.0 L  108.0 40.0 M  110.0 0.0 L  110.0 40.0 M  112.0 0.0 L  112.0 40.0 M  114.0 0.0 L  114.0 40.0 M  116.0 0.0 L  116.0 40.0 M  118.0 0.0 L  118.0 40.0 M  119.99 0.0 L  119.99 40.0  " style="fill:none"/> 
 </g> 
 </g> 
 </g> 
 </g> 
 </g> 
                             </g> 
</svg> 
