<svg xmlns="http://www.w3.org/2000/svg" xmlns:xlink="http://www.w3.org/1999/xlink" width="71.53186pt" height="28.85272pt" viewBox="-14.42636 -14.42636 71.53186 28.85272 "> 
<g transform="translate(0, 14.42636 ) scale(1,-1) translate(0,14.42636 )"> 
            <g> 
 <g stroke="rgb(0.0%,0.0%,0.0%)"> 
 <g fill="rgb(0.0%,0.0%,0.0%)"> 
 <g stroke-width="0.4pt"> 
 <g> 
 </g> 
 <path d=" M  14.22636 0.0 C  14.22636 7.89552 7.89552 14.22636 0.0 14.22636 C  -7.89552 14.22636 -14.22636 7.89552 -14.22636 0.0 C  -14.22636 -7.89552 -7.89552 -14.22636 0.0 -14.22636 C  7.89552 -14.22636 14.22636 -7.89552 14.22636 0.0 Z M  0.0 0.0  " style="fill:none"/> 
 <path d=" M  21.82631 0.0 L  56.9055 0.0  " style="fill:none"/> 
 <g> 
 <g transform="matrix(-1.0,0.0,0.0,-1.0,21.82631,0.0)"> 
 <g> 
 <path d=" M  3.59995 0.0 C  2.53328 0.2 0.79999 0.79999 -0.4 1.49997 L  -0.4 -1.49997 C  0.79999 -0.79999 2.53328 -0.2 3.59995 0.0  " style="stroke:none"/> 
 </g> 
 </g> 
 </g> 
 </g> 
 </g> 
 </g> 
 </g> 
 
                     </g> 
</svg> 
