<svg xmlns="http://www.w3.org/2000/svg" xmlns:xlink="http://www.w3.org/1999/xlink" width="199.16927pt" height="56.90549pt" viewBox="0.0 -28.45274 199.16927 56.90549 "> 
<g transform="translate(0, 28.45274 ) scale(1,-1) translate(0,28.45274 )"> 
        <g> 
 <g stroke="rgb(0.0%,0.0%,0.0%)"> 
 <g fill="rgb(0.0%,0.0%,0.0%)"> 
 <g stroke-width="0.4pt"> 
 <g> 
 </g> 
 <g> 
 <clipPath id="pgfcp108"> <path d=" M  0.0 0.0 h  28.45274 v  28.45274 h  -28.45274 Z  "/> 
</clipPath> 
 <g clip-path="url(#pgfcp108)"> 
 <g transform="matrix(1,0,0,1,14.22636,14.22636)"> 
 <g transform="matrix(0.56917,0,0,0.56917,0.0,0.0)"> 
 <g transform="matrix(0.0,0.0,0.0,0.0,0.0,0.0)"> 
  <radialGradient id="pgfsh107" fx="0.40001" fy="0.59999" > 
 <stop offset=" 0.0" stop-color=" rgb(100.0%,85.00061%,85.00061%) "/> 
 <stop offset=" 0.18" stop-color=" rgb(100.0%,25.0%,25.0%) "/> 
 <stop offset=" 0.35999" stop-color=" rgb(69.9997%,0.0%,0.0%) "/> 
 <stop offset=" 0.5" stop-color=" rgb(50.0%,0.0%,0.0%) "/> 
 <stop offset=" 1.0" stop-color=" rgb(0.0%,0.0%,0.0%) "/> 
 </radialGradient> 
 <g transform="translate(-50.1875,-50.1875)"> 
 <circle cx="50.1875pt" cy="50.1875pt" r="50.1875pt" style="fill:url(#pgfsh107); stroke:none"/> 
 </g> 
 </g> 
 </g> 
 </g> 
 </g> 
 </g> 
 <g> 
 <clipPath id="pgfcp109"> <path d=" M  113.811 0.0 C  113.811 15.79106 101.14932 28.45274 85.35826 28.45274 C  69.5672 28.45274 56.90552 15.79106 56.90552 0.0 C  56.90552 -15.79106 69.5672 -28.45274 85.35826 -28.45274 C  101.14932 -28.45274 113.811 -15.79106 113.811 0.0 Z M  85.35826 0.0  "/> 
</clipPath> 
 <g clip-path="url(#pgfcp109)"> 
 <g transform="matrix(1,0,0,1,85.35826,0.0)"> 
 <g transform="matrix(1.13835,0,0,1.13835,0.0,0.0)"> 
 <g transform="matrix(0.0,0.0,0.0,0.0,0.0,0.0)"> 
  <radialGradient id="pgfsh107" fx="0.40001" fy="0.59999" > 
 <stop offset=" 0.0" stop-color=" rgb(100.0%,85.00061%,85.00061%) "/> 
 <stop offset=" 0.18" stop-color=" rgb(100.0%,25.0%,25.0%) "/> 
 <stop offset=" 0.35999" stop-color=" rgb(69.9997%,0.0%,0.0%) "/> 
 <stop offset=" 0.5" stop-color=" rgb(50.0%,0.0%,0.0%) "/> 
 <stop offset=" 1.0" stop-color=" rgb(0.0%,0.0%,0.0%) "/> 
 </radialGradient> 
 <g transform="translate(-50.1875,-50.1875)"> 
 <circle cx="50.1875pt" cy="50.1875pt" r="50.1875pt" style="fill:url(#pgfsh107); stroke:none"/> 
 </g> 
 </g> 
 </g> 
 </g> 
 </g> 
 </g> 
 <g> 
 <clipPath id="pgfcp110"> <path d=" M  199.16927 0.0 C  199.16927 15.79106 186.50758 28.45274 170.71652 28.45274 C  154.92546 28.45274 142.26378 15.79106 142.26378 0.0 C  142.26378 -15.79106 154.92546 -28.45274 170.71652 -28.45274 C  186.50758 -28.45274 199.16927 -15.79106 199.16927 0.0 Z M  170.71652 0.0  "/> 
</clipPath> 
 <g clip-path="url(#pgfcp110)"> 
 <g transform="matrix(1,0,0,1,170.7165,0.0)"> 
 <g transform="matrix(1.13835,0,0,1.13835,0.0,0.0)"> 
 <g transform="matrix(0.0,0.0,-0.7071,0.0,0.0,0.0)"> 
  <radialGradient id="pgfsh107" fx="0.40001" fy="0.59999" > 
 <stop offset=" 0.0" stop-color=" rgb(100.0%,85.00061%,85.00061%) "/> 
 <stop offset=" 0.18" stop-color=" rgb(100.0%,25.0%,25.0%) "/> 
 <stop offset=" 0.35999" stop-color=" rgb(69.9997%,0.0%,0.0%) "/> 
 <stop offset=" 0.5" stop-color=" rgb(50.0%,0.0%,0.0%) "/> 
 <stop offset=" 1.0" stop-color=" rgb(0.0%,0.0%,0.0%) "/> 
 </radialGradient> 
 <g transform="translate(-50.1875,-50.1875)"> 
 <circle cx="50.1875pt" cy="50.1875pt" r="50.1875pt" style="fill:url(#pgfsh107); stroke:none"/> 
 </g> 
 </g> 
 </g> 
 </g> 
 </g> 
 </g> 
 </g> 
 </g> 
 </g> 
 </g> 
 
                                                            </g> 
</svg> 
