<svg xmlns="http://www.w3.org/2000/svg" xmlns:xlink="http://www.w3.org/1999/xlink" width="90.45822pt" height="57.10547pt" viewBox="-61.90549 -28.55273 90.45822 57.10547 "> 
<g transform="translate(0, 28.55273 ) scale(1,-1) translate(0,28.55273 )"> 
                           <g> 
 <g stroke="rgb(0.0%,0.0%,0.0%)"> 
 <g fill="rgb(0.0%,0.0%,0.0%)"> 
 <g stroke-width="0.4pt"> 
 <g> 
 </g> 
 <g> 
 <g> 
 <g stroke="rgb(50.0%,50.0%,50.0%)"> 
 <g fill="rgb(50.0%,50.0%,50.0%)"> 
 <g stroke-width="0.2pt"> 
 <path d=" M  -56.90549 -28.45274 M  -56.90549 -28.45274 L  28.45274 -28.45274 M  -56.90549 0.0 L  28.45274 0.0 M  -56.90549 28.44275 L  28.45274 28.44275 M  -56.90549 -28.45274 L  -56.90549 28.45274 M  -28.45274 -28.45274 L  -28.45274 28.45274 M  0.0 -28.45274 L  0.0 28.45274 M  28.44275 -28.45274 L  28.44275 28.45274  " style="fill:none"/> 
 </g> 
 </g> 
 </g> 
 </g> 
 <g> 
 <g stroke-width="10.0pt"> 
 <path d=" M  -56.90549 0.0 L  0.0 0.0  " style="fill:none"/> 
 <g> 
 <g transform="matrix(1.0,0.0,0.0,1.0,0.0,0.0)"> 
 <g> 
 <g stroke-dasharray="none" stroke-dashoffset="0.0pt"> 
 <g stroke-linejoin="round"> 
 <g stroke-linecap="round"> 
 <path d=" M  -20.79999 20.79999 C  -20.79999 9.25687 -11.54312 0.0 0.0 0.0  " style="fill:none"/> 
 <path d=" M  0.0 0.0 C  -11.54312 0.0 -20.79999 -9.25687 -20.79999 -20.79999  " style="fill:none"/> 
 </g> 
 </g> 
 </g> 
 </g> 
 </g> 
 </g> 
 </g> 
 </g> 
 <g> 
 <g stroke-width="2.0pt"> 
 <g stroke="rgb(100.0%,100.0%,100.0%)"> 
 <g fill="rgb(100.0%,100.0%,100.0%)"> 
 <path d=" M  -56.90549 0.0 L  0.0 0.0  " style="fill:none"/> 
 </g> 
 </g> 
 </g> 
 </g> 
 </g> 
 </g> 
 </g> 
 </g> 
 </g> 
 
                           </g> 
</svg> 
