<svg xmlns="http://www.w3.org/2000/svg" xmlns:xlink="http://www.w3.org/1999/xlink" width="102.43085pt" height="145.96184pt" viewBox="-51.21542 -17.07138 102.43085 145.96184 "> 
<g transform="translate(0, 128.89046 ) scale(1,-1) translate(0,17.07138 )"> 
                       <g> 
 <g stroke="rgb(0.0%,0.0%,0.0%)"> 
 <g fill="rgb(0.0%,0.0%,0.0%)"> 
 <g stroke-width="0.4pt"> 
 <g> 
 </g> 
 <g> 
 <clipPath id="pgfcp22"> <path d=" M  -51.21542 -17.07138 M  -51.21542 -17.07138 L  -51.21542 128.89046 L  51.21542 128.89046 L  51.21542 -17.07138 Z M  51.21542 128.89046  "/> 
</clipPath> 
 <g clip-path="url(#pgfcp22)"> 
 <g> 
 <g stroke="rgb(50.0%,50.0%,50.0%)"> 
 <g fill="rgb(50.0%,50.0%,50.0%)"> 
 <g stroke-width="0.2pt"> 
 <path d=" M  -119.50099 -119.50099 M  -119.50099 -85.35818 L  119.50099 -85.35818 M  -119.50099 -42.6791 L  119.50099 -42.6791 M  -119.50099 0.0 L  119.50099 0.0 M  -119.50099 42.6791 L  119.50099 42.6791 M  -119.50099 85.35818 L  119.50099 85.35818 M  -85.35818 -119.50099 L  -85.35818 119.50099 M  -42.6791 -119.50099 L  -42.6791 119.50099 M  0.0 -119.50099 L  0.0 119.50099 M  42.6791 -119.50099 L  42.6791 119.50099 M  85.35818 -119.50099 L  85.35818 119.50099  " style="fill:none"/> 
 </g> 
 </g> 
 </g> 
 </g> 
 <g> 
 <g fill="rgb(80.0003%,100.0%,80.0003%)"> 
 <g stroke="rgb(0.0%,50.0%,0.0%)"> 
 <path d=" M  0.0 0.0 L  25.60744 0.0 C  25.60744 4.60936 24.48138 8.8119 22.17673 12.8037 Z  " /> 
 </g> 
 </g> 
 </g> 
 <path d=" M  -128.03732 0.0 L  127.57733 0.0  " style="fill:none"/> 
 <g> 
 <g transform="matrix(1.0,0.0,0.0,1.0,127.57733,0.0)"> 
 <g> 
 <g stroke-width="0.31999pt"> 
 <g stroke-dasharray="none" stroke-dashoffset="0.0pt"> 
 <g stroke-linecap="round"> 
 <g stroke-linejoin="round"> 
 <path d=" M  -1.19998 1.59998 C  -1.09998 0.99998 0.0 0.09999 0.29999 0.0 C  0.0 -0.09999 -1.09998 -0.99998 -1.19998 -1.59998  " style="fill:none"/> 
 </g> 
 </g> 
 </g> 
 </g> 
 </g> 
 </g> 
 </g> 
 <path d=" M  0.0 -128.03732 L  0.0 127.57733  " style="fill:none"/> 
 <g> 
 <g transform="matrix(0.0,1.0,-1.0,0.0,0.0,127.57733)"> 
 <g> 
 <g stroke-width="0.31999pt"> 
 <g stroke-dasharray="none" stroke-dashoffset="0.0pt"> 
 <g stroke-linecap="round"> 
 <g stroke-linejoin="round"> 
 <path d=" M  -1.19998 1.59998 C  -1.09998 0.99998 0.0 0.09999 0.29999 0.0 C  0.0 -0.09999 -1.09998 -0.99998 -1.19998 -1.59998  " style="fill:none"/> 
 </g> 
 </g> 
 </g> 
 </g> 
 </g> 
 </g> 
 </g> 
 <path d=" M  0.0 0.0 M  85.35823 0.0 C  85.35823 47.37318 47.37318 85.35823 0.0 85.35823 C  -47.37318 85.35823 -85.35823 47.37318 -85.35823 0.0 C  -85.35823 -47.37318 -47.37318 -85.35823 0.0 -85.35823 C  47.37318 -85.35823 85.35823 -47.37318 85.35823 0.0 Z M  0.0 0.0  " style="fill:none"/> 
 <path d=" M  -85.35823 3.0 L  -85.35823 -3.0  " style="fill:none"/> 
 <g> 
 <g> 
 <g transform="matrix(1.0,0.0,0.0,1.0,-93.9693,-12.97742)"> 
 <g fill="rgb(0.0%,0.0%,0.0%)"> 
 <text style="stroke:none" transform="scale(1,-1) translate(8.61107,0)" text-anchor="middle"  font-size="10"> 
 <tspan font-family="cmsy" font-size="10">- </tspan>1</text> 
</g> 
 </g> 
 </g> 
 </g> 
 <path d=" M  -42.6791 3.0 L  -42.6791 -3.0  " style="fill:none"/> 
 <g> 
 <g> 
 <g transform="matrix(1.0,0.0,0.0,1.0,-51.98322,-14.9814)"> 
 <g fill="rgb(0.0%,0.0%,0.0%)"> 
 <text style="stroke:none" transform="scale(1,-1) translate(9.30412,0)" text-anchor="middle"  font-size="10"> 
 <tspan font-family="cmsy" font-size="10">-</tspan> <img 
src="pgfmanual10x.gif" alt="1
2"  class="frac" align="middle"></text> 
</g> 
 </g> 
 </g> 
 </g> 
 <path d=" M  85.35823 3.0 L  85.35823 -3.0  " style="fill:none"/> 
 <g> 
 <g> 
 <g transform="matrix(1.0,0.0,0.0,1.0,82.85823,-12.9774)"> 
 <g fill="rgb(0.0%,0.0%,0.0%)"> 
 <text style="stroke:none" transform="scale(1,-1) translate(2.5,0)" text-anchor="middle"  font-size="10"> 
1</text> 
</g> 
 </g> 
 </g> 
 </g> 
 <path d=" M  3.0 -85.35823 L  -3.0 -85.35823  " style="fill:none"/> 
 <g> 
 <g> 
 <g transform="matrix(1.0,0.0,0.0,1.0,-23.75511,-88.16379)"> 
 <g fill="rgb(0.0%,0.0%,0.0%)"> 
 <text style="stroke:none" transform="scale(1,-1) translate(8.61107,0)" text-anchor="middle"  font-size="10"> 
 <tspan font-family="cmsy" font-size="10">- </tspan>1</text> 
</g> 
 </g> 
 </g> 
 </g> 
 <path d=" M  3.0 -42.6791 L  -3.0 -42.6791  " style="fill:none"/> 
 <g> 
 <g> 
 <g transform="matrix(1.0,0.0,0.0,1.0,-25.14122,-45.17911)"> 
 <g fill="rgb(0.0%,0.0%,0.0%)"> 
 <text style="stroke:none" transform="scale(1,-1) translate(9.30412,0)" text-anchor="middle"  font-size="10"> 
 <tspan font-family="cmsy" font-size="10">-</tspan> <img 
src="pgfmanual11x.gif" alt="1
2"  class="frac" align="middle"></text> 
</g> 
 </g> 
 </g> 
 </g> 
 <path d=" M  3.0 42.6791 L  -3.0 42.6791  " style="fill:none"/> 
 <g> 
 <g> 
 <g transform="matrix(1.0,0.0,0.0,1.0,-12.91908,40.17908)"> 
 <g fill="rgb(0.0%,0.0%,0.0%)"> 
 <text style="stroke:none" transform="scale(1,-1) translate(3.19305,0)" text-anchor="middle"  font-size="10"> 
<img 
src="pgfmanual12x.gif" alt="1
2"  class="frac" align="middle"></text> 
</g> 
 </g> 
 </g> 
 </g> 
 <path d=" M  3.0 85.35823 L  -3.0 85.35823  " style="fill:none"/> 
 <g> 
 <g> 
 <g transform="matrix(1.0,0.0,0.0,1.0,-11.53297,82.13602)"> 
 <g fill="rgb(0.0%,0.0%,0.0%)"> 
 <text style="stroke:none" transform="scale(1,-1) translate(2.5,0)" text-anchor="middle"  font-size="10"> 
1</text> 
</g> 
 </g> 
 </g> 
 </g> 
 </g> 
 </g> 
 </g> 
 </g> 
 </g> 
 </g> 
 
                               </g> 
</svg> 
