<svg xmlns="http://www.w3.org/2000/svg" xmlns:xlink="http://www.w3.org/1999/xlink" width="28.45274pt" height="10.76385pt" viewBox="0.0 -2.15277 28.45274 10.76385 "> 
<g transform="translate(0, 8.61108 ) scale(1,-1) translate(0,2.15277 )"> 
        <g> 
 <g stroke="rgb(0.0%,0.0%,0.0%)"> 
 <g fill="rgb(0.0%,0.0%,0.0%)"> 
 <g stroke-width="0.4pt"> 
 <g> 
 </g> 
 <g> 
 <g stroke-width="0.8pt"> 
 <path d=" M  0.4 2.15277 L  28.05275 2.15277  " style="fill:none"/> 
 <g> 
 <g transform="matrix(-1.0,0.0,0.0,-1.0,0.4,2.15277)"> 
 <g> 
 <g transform="matrix(-1.0,0.0,0.0,1.0,0.0,0.0)"> 
 <g stroke-dasharray="none" stroke-dashoffset="0.0pt"> 
 <g stroke-linecap="round"> 
 <path d=" M  0.0 0.0 L  0.41998 0.0 C  1.35234 0.0 2.09993 0.93236 2.09993 1.67995 C  2.09993 2.6123 1.35234 3.3599 0.41998 3.3599  " style="fill:none"/> 
 </g> 
 </g> 
 </g> 
 </g> 
 </g> 
 </g> 
 <g> 
 <g transform="matrix(1.0,0.0,0.0,1.0,28.05275,2.15277)"> 
 <g> 
 <g transform="matrix(-1.0,0.0,0.0,1.0,0.0,0.0)"> 
 <g stroke-dasharray="none" stroke-dashoffset="0.0pt"> 
 <g stroke-linecap="round"> 
 <path d=" M  0.0 0.0 L  0.41998 0.0 C  1.35234 0.0 2.09993 0.93236 2.09993 1.67995 C  2.09993 2.6123 1.35234 3.3599 0.41998 3.3599  " style="fill:none"/> 
 </g> 
 </g> 
 </g> 
 </g> 
 </g> 
 </g> 
 </g> 
 </g> 
 </g> 
 </g> 
 </g> 
 </g> 
  </g> 
</svg> 
