<svg xmlns="http://www.w3.org/2000/svg" xmlns:xlink="http://www.w3.org/1999/xlink" width="100.01622pt" height="163.49527pt" viewBox="-14.458 -134.84253 100.01622 163.49527 "> 
<g transform="translate(0, 28.65274 ) scale(1,-1) translate(0,134.84253 )"> 
            <g> 
 <g stroke="rgb(0.0%,0.0%,0.0%)"> 
 <g fill="rgb(0.0%,0.0%,0.0%)"> 
 <g stroke-width="0.4pt"> 
 <g> 
 </g> 
 <g> 
 <g> 
 <g> 
 <g transform="matrix(1.0,0.0,0.0,1.0,-7.50002,-2.15277)"> 
 <g fill="rgb(0.0%,0.0%,0.0%)"> 
 <text style="stroke:none" transform="scale(1,-1) translate(7.50002,0)" text-anchor="middle"  font-size="10"> 
one</text> 
</g> 
 </g> 
 </g> 
 </g> 
 <g> 
 <g> 
 </g> 
 <path d=" M  0.0 5.68575 L  0.0 28.45274  " style="fill:none"/> 
 </g> 
 <g> 
 <g> 
 <g transform="matrix(1.0,0.0,0.0,1.0,-7.77779,-45.7545)"> 
 <g fill="rgb(0.0%,0.0%,0.0%)"> 
 <text style="stroke:none" transform="scale(1,-1) translate(7.77779,0)" text-anchor="middle"  font-size="10"> 
two</text> 
</g> 
 </g> 
 </g> 
 </g> 
 <g> 
 <g> 
 </g> 
 <path d=" M  0.0 -36.07074 L  0.0 -14.22636  " style="fill:none"/> 
 </g> 
 <g> 
 <g> 
 </g> 
 <path d=" M  6.60735 -36.07074 L  28.45274 -14.22636  " style="fill:none"/> 
 </g> 
 <g> 
 <g> 
 <g transform="matrix(1.0,0.0,0.0,1.0,-11.12502,-88.83044)"> 
 <g fill="rgb(0.0%,0.0%,0.0%)"> 
 <text style="stroke:none" transform="scale(1,-1) translate(11.12502,0)" text-anchor="middle"  font-size="10"> 
three</text> 
</g> 
 </g> 
 </g> 
 </g> 
 <g> 
 <g> 
 </g> 
 <path d=" M  0.0 -78.35304 L  0.0 -56.90549  " style="fill:none"/> 
 </g> 
 <g> 
 <g> 
 </g> 
 <path d=" M  7.0041 -78.35304 L  28.45274 -56.90549  " style="fill:none"/> 
 </g> 
 <g> 
 <g> 
 </g> 
 <path d=" M  14.00833 -78.35304 L  56.90549 -56.90549  " style="fill:none"/> 
 </g> 
 <g> 
 <g> 
 <g transform="matrix(1.0,0.0,0.0,1.0,-8.76392,-131.50955)"> 
 <g fill="rgb(0.0%,0.0%,0.0%)"> 
 <text style="stroke:none" transform="scale(1,-1) translate(8.76392,0)" text-anchor="middle"  font-size="10"> 
four</text> 
</g> 
 </g> 
 </g> 
 </g> 
 <g> 
 <g> 
 </g> 
 <path d=" M  0.0 -121.03215 L  0.0 -99.5846  " style="fill:none"/> 
 </g> 
 <g> 
 <g> 
 </g> 
 <path d=" M  7.0041 -121.03215 L  28.45274 -99.5846  " style="fill:none"/> 
 </g> 
 <g> 
 <g> 
 </g> 
 <path d=" M  12.29689 -121.89247 L  56.90549 -99.5846  " style="fill:none"/> 
 </g> 
 <g> 
 <g> 
 </g> 
 <path d=" M  12.29689 -123.94257 L  85.35823 -99.5846  " style="fill:none"/> 
 </g> 
 </g> 
 </g> 
 </g> 
 </g> 
 </g> 
 
                              </g> 
</svg> 
