<svg xmlns="http://www.w3.org/2000/svg" xmlns:xlink="http://www.w3.org/1999/xlink" width="102.83093pt" height="102.83093pt" viewBox="-8.73637 -8.73637 102.83093 102.83093 "> 
<g transform="translate(0, 94.09456 ) scale(1,-1) translate(0,8.73637 )"> 
           <g> 
 <g stroke="rgb(0.0%,0.0%,0.0%)"> 
 <g fill="rgb(0.0%,0.0%,0.0%)"> 
 <g stroke-width="0.4pt"> 
 <g> 
 </g> 
 <g> 
 <clipPath id="pgfcp2"> <path id="pgfpath2" d=" M  42.6791 42.6791 M  93.89456 42.6791 C  93.89456 71.1033 71.1033 93.89456 42.6791 93.89456 C  14.25488 93.89456 -8.53638 71.1033 -8.53638 42.6791 C  -8.53638 14.25488 14.25488 -8.53638 42.6791 -8.53638 C  71.1033 -8.53638 93.89456 14.25488 93.89456 42.6791 Z M  42.6791 42.6791  "/> 
</clipPath> 
 <use xlink:href="#pgfpath2" style="fill:none"/> 
 <g clip-path="url(#pgfcp2)"> 
 <g> 
 <g stroke="rgb(50.0%,50.0%,50.0%)"> 
 <g fill="rgb(50.0%,50.0%,50.0%)"> 
 <g stroke-width="0.2pt"> 
 <path d=" M  -119.50099 -119.50099 M  -119.50099 -85.35818 L  119.50099 -85.35818 M  -119.50099 -42.6791 L  119.50099 -42.6791 M  -119.50099 0.0 L  119.50099 0.0 M  -119.50099 42.6791 L  119.50099 42.6791 M  -119.50099 85.35818 L  119.50099 85.35818 M  -85.35818 -119.50099 L  -85.35818 119.50099 M  -42.6791 -119.50099 L  -42.6791 119.50099 M  0.0 -119.50099 L  0.0 119.50099 M  42.6791 -119.50099 L  42.6791 119.50099 M  85.35818 -119.50099 L  85.35818 119.50099  " style="fill:none"/> 
 </g> 
 </g> 
 </g> 
 </g> 
 <path d=" M  -128.03732 0.0 L  128.03732 0.0  " style="fill:none"/> 
 <path d=" M  0.0 -128.03732 L  0.0 128.03732  " style="fill:none"/> 
 <path d=" M  0.0 0.0 M  85.35823 0.0 C  85.35823 47.37318 47.37318 85.35823 0.0 85.35823 C  -47.37318 85.35823 -85.35823 47.37318 -85.35823 0.0 C  -85.35823 -47.37318 -47.37318 -85.35823 0.0 -85.35823 C  47.37318 -85.35823 85.35823 -47.37318 85.35823 0.0 Z M  0.0 0.0  " style="fill:none"/> 
 <path d=" M  25.60744 0.0 C  25.60744 4.60936 24.48138 8.8119 22.17673 12.8037  " style="fill:none"/> 
 </g> 
 </g> 
 </g> 
 </g> 
 </g> 
 </g> 
 
                               </g> 
</svg> 
