<svg xmlns="http://www.w3.org/2000/svg" xmlns:xlink="http://www.w3.org/1999/xlink" width="74.16605pt" height="76.64778pt" viewBox="-27.08301 -49.89812 74.16605 76.64778 "> 
<g transform="translate(0, 26.74966 ) scale(1,-1) translate(0,49.89812 )"> 
                <g> 
 <g stroke="rgb(0.0%,0.0%,0.0%)"> 
 <g fill="rgb(0.0%,0.0%,0.0%)"> 
 <g stroke-width="0.4pt"> 
 <g> 
 </g> 
 <g> 
 <g> 
 <g> 
 <g transform="matrix(1.0,0.0,0.0,1.0,-3.61111,-3.41666)"> 
 <g fill="rgb(0.0%,0.0%,0.0%)"> 
 <text style="stroke:none" transform="scale(1,-1) translate(3.61111,0)" text-anchor="middle"  font-size="10"> 
C</text> 
</g> 
 </g> 
 </g> 
 </g> 
 <g> 
 <g> 
 <g> 
 <g transform="matrix(1.0,0.0,0.0,1.0,-3.75,16.58337)"> 
 <g fill="rgb(0.0%,0.0%,0.0%)"> 
 <text style="stroke:none" transform="scale(1,-1) translate(3.75,0)" text-anchor="middle"  font-size="10"> 
H</text> 
</g> 
 </g> 
 </g> 
 </g> 
 <path d=" M  0.0 6.94963 L  0.0 13.0504  " style="fill:none"/> 
 </g> 
 <g> 
 <g> 
 <g> 
 <g transform="matrix(1.0,0.0,0.0,1.0,-23.75003,-3.41666)"> 
 <g fill="rgb(0.0%,0.0%,0.0%)"> 
 <text style="stroke:none" transform="scale(1,-1) translate(3.75,0)" text-anchor="middle"  font-size="10"> 
H</text> 
</g> 
 </g> 
 </g> 
 </g> 
 <path d=" M  -7.14409 0.0 L  -12.71706 0.0  " style="fill:none"/> 
 </g> 
 <g> 
 <g> 
 <g> 
 <g transform="matrix(1.0,0.0,0.0,1.0,-3.75,-23.41669)"> 
 <g fill="rgb(0.0%,0.0%,0.0%)"> 
 <text style="stroke:none" transform="scale(1,-1) translate(3.75,0)" text-anchor="middle"  font-size="10"> 
H</text> 
</g> 
 </g> 
 </g> 
 </g> 
 <path d=" M  0.0 -6.94963 L  0.0 -13.0504  " style="fill:none"/> 
 </g> 
 <g> 
 <g> 
 <g> 
 <g transform="matrix(1.0,0.0,0.0,1.0,16.38892,-3.41666)"> 
 <g fill="rgb(0.0%,0.0%,0.0%)"> 
 <text style="stroke:none" transform="scale(1,-1) translate(3.61111,0)" text-anchor="middle"  font-size="10"> 
C</text> 
</g> 
 </g> 
 </g> 
 </g> 
 <g> 
 <g stroke-width="1.4pt"> 
 <path d=" M  20.00003 0.0 M  7.14409 0.0 L  12.85594 0.0  " style="fill:none"/> 
 <g stroke-width="0.6pt"> 
 <g stroke="rgb(100.0%,100.0%,100.0%)"> 
 <path d=" M  20.00003 0.0 M  7.14409 0.0 L  12.85594 0.0  " style="fill:none"/> 
 </g> 
 </g> 
 </g> 
 </g> 
 <g> 
 <g> 
 <g> 
 <g transform="matrix(1.0,0.0,0.0,1.0,16.25003,16.58337)"> 
 <g fill="rgb(0.0%,0.0%,0.0%)"> 
 <text style="stroke:none" transform="scale(1,-1) translate(3.75,0)" text-anchor="middle"  font-size="10"> 
H</text> 
</g> 
 </g> 
 </g> 
 </g> 
 <path d=" M  20.00003 6.94963 L  20.00003 13.0504  " style="fill:none"/> 
 </g> 
 <g> 
 <g> 
 <g> 
 <g transform="matrix(1.0,0.0,0.0,1.0,36.25006,-3.41666)"> 
 <g fill="rgb(0.0%,0.0%,0.0%)"> 
 <text style="stroke:none" transform="scale(1,-1) translate(3.75,0)" text-anchor="middle"  font-size="10"> 
H</text> 
</g> 
 </g> 
 </g> 
 </g> 
 <path d=" M  27.14412 0.0 L  32.71709 0.0  " style="fill:none"/> 
 </g> 
 <g> 
 <g> 
 <g> 
 <g transform="matrix(1.0,0.0,0.0,1.0,16.25003,-23.41669)"> 
 <g fill="rgb(0.0%,0.0%,0.0%)"> 
 <text style="stroke:none" transform="scale(1,-1) translate(3.75,0)" text-anchor="middle"  font-size="10"> 
H</text> 
</g> 
 </g> 
 </g> 
 </g> 
 <path d=" M  20.00003 -6.94963 L  20.00003 -13.0504  " style="fill:none"/> 
 </g> 
 <g> 
 </g> 
 </g> 
 <g> 
 <g stroke="rgb(100.0%,0.0%,0.0%)"> 
 <g fill="rgb(100.0%,0.0%,0.0%)"> 
 <path d=" M  10.00002 -6.15053 L  10.00002 -34.14328  " style="fill:none"/> 
 <g> 
 <g transform="matrix(0.0,1.0,-1.0,0.0,10.00002,-6.15053)"> 
 <g> 
 <g stroke-width="0.31999pt"> 
 <g stroke-dasharray="none" stroke-dashoffset="0.0pt"> 
 <g stroke-linecap="round"> 
 <g stroke-linejoin="round"> 
 <path d=" M  -1.19998 1.59998 C  -1.09998 0.99998 0.0 0.09999 0.29999 0.0 C  0.0 -0.09999 -1.09998 -0.99998 -1.19998 -1.59998  " style="fill:none"/> 
 </g> 
 </g> 
 </g> 
 </g> 
 </g> 
 </g> 
 </g> 
 <g> 
 <g> 
 <g transform="matrix(1.0,0.0,0.0,1.0,-21.18059,-44.6207)"> 
 <g fill="rgb(100.0%,0.0%,0.0%)"> 
 <text style="stroke:none" transform="scale(1,-1) translate(31.1806,0)" text-anchor="middle"  font-size="10"> 
This is wrong!</text> 
</g> 
 </g> 
 </g> 
 </g> 
 </g> 
 </g> 
 </g> 
 </g> 
 </g> 
 </g> 
 </g> 
 </g> 
 
                      </g> 
</svg> 
