<svg xmlns="http://www.w3.org/2000/svg" xmlns:xlink="http://www.w3.org/1999/xlink" width="99.58458pt" height="71.13184pt" viewBox="-35.56592 -35.56592 99.58458 71.13184 "> 
<g transform="translate(0, 35.56592 ) scale(1,-1) translate(0,35.56592 )"> 
                   <g> 
 <g stroke="rgb(0.0%,0.0%,0.0%)"> 
 <g fill="rgb(0.0%,0.0%,0.0%)"> 
 <g stroke-width="0.4pt"> 
 <g> 
 </g> 
 <g stroke-width="14.22636pt"> 
 <g stroke="rgb(100.0%,0.0%,0.0%)"> 
 <g fill="rgb(100.0%,0.0%,0.0%)"> 
 <path d=" M  28.45274 0.0 C  28.45274 15.79106 15.79106 28.45274 0.0 28.45274 C  -15.79106 28.45274 -28.45274 15.79106 -28.45274 0.0 C  -28.45274 -15.79106 -15.79106 -28.45274 0.0 -28.45274 C  15.79106 -28.45274 28.45274 -15.79106 28.45274 0.0 Z M  0.0 0.0  " style="fill:none"/> 
 <g stroke="rgb(0.0%,0.0%,0.0%)"> 
 <g fill="rgb(0.0%,0.0%,0.0%)"> 
 <g stroke-opacity="0.5"> 
 <path d=" M  56.90549 0.0 C  56.90549 15.79106 44.2438 28.45274 28.45274 28.45274 C  12.66168 28.45274 0.0 15.79106 0.0 0.0 C  0.0 -15.79106 12.66168 -28.45274 28.45274 -28.45274 C  44.2438 -28.45274 56.90549 -15.79106 56.90549 0.0 Z M  28.45274 0.0  " style="fill:none"/> 
 </g> 
 </g> 
 </g> 
 </g> 
 </g> 
 </g> 
 </g> 
 </g> 
 </g> 
 </g> 
 
                              </g> 
</svg> 
