<svg xmlns="http://www.w3.org/2000/svg" xmlns:xlink="http://www.w3.org/1999/xlink" width="113.81096pt" height="71.13184pt" viewBox="-7.11317 -7.11317 113.81096 71.13184 "> 
<g transform="translate(0, 64.01866 ) scale(1,-1) translate(0,7.11317 )"> 
          <g> 
 <g stroke="rgb(0.0%,0.0%,0.0%)"> 
 <g fill="rgb(0.0%,0.0%,0.0%)"> 
 <g stroke-width="0.4pt"> 
 <g> 
 </g> 
 <g> 
 <g stroke-width="4.30554pt"> 
 <path d=" M  10.04636 5.7408 L  89.53828 51.1647  " style="fill:none"/> 
 <g> 
 <g transform="matrix(-0.86877,-0.49644,0.49644,-0.86877,10.04636,5.7408)"> 
 <g> 
 <g transform="matrix(-1.0,0.0,0.0,1.0,0.0,0.0)"> 
 <g stroke-dasharray="none" stroke-dashoffset="0.0pt"> 
 <g stroke-linejoin="round"> 
 <g stroke-linecap="round"> 
 <path d=" M  -9.41107 9.41107 C  -9.41107 4.1883 -5.22278 0.0 0.0 0.0  " style="fill:none"/> 
 <path d=" M  0.0 0.0 C  -5.22278 0.0 -9.41107 -4.1883 -9.41107 -9.41107  " style="fill:none"/> 
 </g> 
 </g> 
 </g> 
 </g> 
 </g> 
 </g> 
 </g> 
 <g> 
 <g transform="matrix(0.86877,0.49644,-0.49644,0.86877,89.53828,51.1647)"> 
 <g> 
 <g transform="matrix(-1.0,0.0,0.0,1.0,0.0,0.0)"> 
 <g stroke-dasharray="none" stroke-dashoffset="0.0pt"> 
 <g stroke-linejoin="round"> 
 <g stroke-linecap="round"> 
 <path d=" M  -9.41107 9.41107 C  -9.41107 4.1883 -5.22278 0.0 0.0 0.0  " style="fill:none"/> 
 <path d=" M  0.0 0.0 C  -5.22278 0.0 -9.41107 -4.1883 -9.41107 -9.41107  " style="fill:none"/> 
 </g> 
 </g> 
 </g> 
 </g> 
 </g> 
 </g> 
 </g> 
 </g> 
 </g> 
 </g> 
 </g> 
 </g> 
 </g> 
                         </g> 
</svg> 
