<svg xmlns="http://www.w3.org/2000/svg" xmlns:xlink="http://www.w3.org/1999/xlink" width="40.23381pt" height="34.54326pt" viewBox="-20.11684 -34.34326 40.23381 34.54326 "> 
<g transform="translate(0, 0.2 ) scale(1,-1) translate(0,34.34326 )"> 
              <g> 
 <g stroke="rgb(0.0%,0.0%,0.0%)"> 
 <g fill="rgb(0.0%,0.0%,0.0%)"> 
 <g stroke-width="0.4pt"> 
 <g> 
 </g> 
 <g> 
 <g> 
 </g> 
 <g> 
 <g> 
 </g> 
 <path d=" M  -11.38107 -11.38109 M  0.0 0.0 L  -11.38107 -11.38109  " style="fill:none"/> 
 <g> 
 <g> 
 </g> 
 <path d=" M  -17.0716 -22.76218 M  -11.38107 -11.38109 L  -17.0716 -22.76218  " style="fill:none"/> 
 <g> 
 <g> 
 </g> 
 <path d=" M  -17.0716 -22.76218 L  -19.91684 -34.14326  " style="fill:none"/> 
 </g> 
 <g> 
 <g> 
 </g> 
 <path d=" M  -17.0716 -22.76218 L  -14.2263 -34.14326  " style="fill:none"/> 
 </g> 
 </g> 
 <g> 
 <g> 
 </g> 
 <path d=" M  -5.6905 -22.76218 M  -11.38107 -11.38109 L  -5.6905 -22.76218  " style="fill:none"/> 
 <g> 
 <g> 
 </g> 
 <path d=" M  -5.6905 -22.76218 L  -8.53575 -34.14326  " style="fill:none"/> 
 </g> 
 <g> 
 <g> 
 </g> 
 <path d=" M  -5.6905 -22.76218 L  -2.84521 -34.14326  " style="fill:none"/> 
 </g> 
 </g> 
 </g> 
 <g> 
 <g> 
 </g> 
 <path d=" M  11.38112 -11.38109 M  0.0 0.0 L  11.38112 -11.38109  " style="fill:none"/> 
 <g> 
 <g> 
 </g> 
 <path d=" M  5.6906 -22.76218 M  11.38112 -11.38109 L  5.6906 -22.76218  " style="fill:none"/> 
 <g> 
 <g> 
 </g> 
 <path d=" M  5.6906 -22.76218 L  2.84535 -34.14326  " style="fill:none"/> 
 </g> 
 <g> 
 <g> 
 </g> 
 <path d=" M  5.6906 -22.76218 L  8.53589 -34.14326  " style="fill:none"/> 
 </g> 
 </g> 
 <g> 
 <g> 
 </g> 
 <path d=" M  17.07169 -22.76218 M  11.38112 -11.38109 L  17.07169 -22.76218  " style="fill:none"/> 
 <g> 
 <g> 
 </g> 
 <path d=" M  17.07169 -22.76218 L  14.22644 -34.14326  " style="fill:none"/> 
 </g> 
 <g> 
 <g> 
 </g> 
 <path d=" M  17.07169 -22.76218 L  19.91698 -34.14326  " style="fill:none"/> 
 </g> 
 </g> 
 </g> 
 </g> 
 </g> 
 </g> 
 </g> 
 </g> 
 
            </g> 
</svg> 
