<svg xmlns="http://www.w3.org/2000/svg" xmlns:xlink="http://www.w3.org/1999/xlink" width="111.76569pt" height="118.36829pt" viewBox="-48.76965 -59.18414 111.76569 118.36829 "> 
<g transform="translate(0, 59.18414 ) scale(1,-1) translate(0,59.18414 )"> 
                       <g> 
 <g stroke="rgb(0.0%,0.0%,0.0%)"> 
 <g fill="rgb(0.0%,0.0%,0.0%)"> 
 <g stroke-width="0.4pt"> 
 <g> 
 </g> 
 <g> 
 <g stroke-width="0.8pt"> 
 <g fill-opacity="0.5"> 
 <g> 
 <g fill="rgb(100.0%,0.0%,0.0%)"> 
 <path d=" M  28.45274 0.0 M  62.59604 0.0 C  62.59604 18.94926 47.40201 34.1433 28.45274 34.1433 C  9.50348 34.1433 -5.69055 18.94926 -5.69055 0.0 C  -5.69055 -18.94926 9.50348 -34.1433 28.45274 -34.1433 C  47.40201 -34.1433 62.59604 -18.94926 62.59604 0.0 Z M  28.45274 0.0  " /> 
 </g> 
 </g> 
 <g> 
 <g fill="rgb(0.0%,100.0%,0.0%)"> 
 <path d=" M  -14.22636 24.64085 M  19.91693 24.64085 C  19.91693 43.59012 4.7229 58.78415 -14.22636 58.78415 C  -33.17563 58.78415 -48.36966 43.59012 -48.36966 24.64085 C  -48.36966 5.69159 -33.17563 -9.50244 -14.22636 -9.50244 C  4.7229 -9.50244 19.91693 5.69159 19.91693 24.64085 Z M  -14.22636 24.64085  " /> 
 </g> 
 </g> 
 <g> 
 <g fill="rgb(0.0%,0.0%,100.0%)"> 
 <path d=" M  -14.22636 -24.64085 M  19.91693 -24.64085 C  19.91693 -5.69159 4.7229 9.50244 -14.22636 9.50244 C  -33.17563 9.50244 -48.36966 -5.69159 -48.36966 -24.64085 C  -48.36966 -43.59012 -33.17563 -58.78415 -14.22636 -58.78415 C  4.7229 -58.78415 19.91693 -43.59012 19.91693 -24.64085 Z M  -14.22636 -24.64085  " /> 
 </g> 
 </g> 
 </g> 
 </g> 
 </g> 
 </g> 
 </g> 
 </g> 
 </g> 
 
                                  </g> 
</svg> 
