<svg xmlns="http://www.w3.org/2000/svg" xmlns:xlink="http://www.w3.org/1999/xlink" width="57.20547pt" height="57.30548pt" viewBox="-0.09999 -0.2 57.20547 57.30548 "> 
<g transform="translate(0, 57.10548 ) scale(1,-1) translate(0,0.2 )"> 
        <g> 
 <g stroke="rgb(0.0%,0.0%,0.0%)"> 
 <g fill="rgb(0.0%,0.0%,0.0%)"> 
 <g stroke-width="0.4pt"> 
 <g> 
 </g> 
 <g> 
 <g> 
 <g stroke="rgb(50.0%,50.0%,50.0%)"> 
 <g fill="rgb(50.0%,50.0%,50.0%)"> 
 <g stroke-width="0.2pt"> 
 <path d=" M  0.0 0.0 M  0.0 0.0 L  56.90549 0.0 M  0.0 28.45274 L  56.90549 28.45274 M  0.0 56.8955 L  56.90549 56.8955 M  0.0 0.0 L  0.0 56.90549 M  28.45274 0.0 L  28.45274 56.90549 M  56.8955 0.0 L  56.8955 56.90549  " style="fill:none"/> 
 </g> 
 </g> 
 </g> 
 </g> 
 <path d=" M  14.22636 0.0 L  56.90549 56.90549  " style="fill:none"/> 
 <path d=" M  28.45274 56.90549 L  56.90549 0.0  " style="fill:none"/> 
 <path d=" M  41.83664 34.14653 C  41.83664 35.25652 40.94662 36.14653 39.83664 36.14653 C  38.72665 36.14653 37.83664 35.25652 37.83664 34.14653 C  37.83664 33.03654 38.72665 32.14653 39.83664 32.14653 C  40.94662 32.14653 41.83664 33.03654 41.83664 34.14653 Z M  39.83664 34.14653  " style="fill:none"/> 
 </g> 
 </g> 
 </g> 
 </g> 
 </g> 
          </g> 
</svg> 
