<svg xmlns="http://www.w3.org/2000/svg" xmlns:xlink="http://www.w3.org/1999/xlink" width="97.13914pt" height="11.78091pt" viewBox="-5.89046 -5.89046 97.13914 11.78091 "> 
<g transform="translate(0, 5.89046 ) scale(1,-1) translate(0,5.89046 )"> 
          <g> 
 <g stroke="rgb(0.0%,0.0%,0.0%)"> 
 <g fill="rgb(0.0%,0.0%,0.0%)"> 
 <g stroke-width="0.4pt"> 
 <g> 
 </g> 
 <g> 
 <path d=" M  0.0 0.0 M  5.69046 0.0 C  5.69046 3.15816 3.15816 5.69046 0.0 5.69046 C  -3.15816 5.69046 -5.69046 3.15816 -5.69046 0.0 C  -5.69046 -3.15816 -3.15816 -5.69046 0.0 -5.69046 C  3.15816 -5.69046 5.69046 -3.15816 5.69046 0.0 Z M  0.0 0.0  " style="fill:none"/> 
 <path d=" M  28.45274 0.0 M  34.1432 0.0 C  34.1432 3.15816 31.6109 5.69046 28.45274 5.69046 C  25.29459 5.69046 22.76228 3.15816 22.76228 0.0 C  22.76228 -3.15816 25.29459 -5.69046 28.45274 -5.69046 C  31.6109 -5.69046 34.1432 -3.15816 34.1432 0.0 Z M  28.45274 0.0  " style="fill:none"/> 
 <path d=" M  56.90549 0.0 M  62.59595 0.0 C  62.59595 3.15816 60.06364 5.69046 56.90549 5.69046 C  53.74733 5.69046 51.21503 3.15816 51.21503 0.0 C  51.21503 -3.15816 53.74733 -5.69046 56.90549 -5.69046 C  60.06364 -5.69046 62.59595 -3.15816 62.59595 0.0 Z M  56.90549 0.0  " style="fill:none"/> 
 <path d=" M  85.35823 0.0 M  91.04869 0.0 C  91.04869 3.15816 88.51639 5.69046 85.35823 5.69046 C  82.20007 5.69046 79.66777 3.15816 79.66777 0.0 C  79.66777 -3.15816 82.20007 -5.69046 85.35823 -5.69046 C  88.51639 -5.69046 91.04869 -3.15816 91.04869 0.0 Z M  85.35823 0.0  " style="fill:none"/> 
 </g> 
 </g> 
 </g> 
 </g> 
 </g> 
                    </g> 
</svg> 
