<svg xmlns="http://www.w3.org/2000/svg" xmlns:xlink="http://www.w3.org/1999/xlink" width="414.33429pt" height="328.53442pt" viewBox="-207.16714 -164.26721 414.33429 328.53442 "> 
<g transform="translate(0,  164.26721 ) scale(1,-1) translate(0,164.26721 )"> 
                                                                                <g> 
 <g stroke="rgb(0.0%,0.0%,0.0%)"> 
 <g fill="rgb(0.0%,0.0%,0.0%)"> 
 <g stroke-width="0.4pt"> 
 <g> 
 </g> 
 <g> 
 <g> 
 <g stroke="rgb(69.9997%,69.9997%,69.9997%)"> 
 <g fill="rgb(69.9997%,69.9997%,69.9997%)"> 
 <g fill="rgb(100.0%,100.0%,69.9997%)"> 
 <g stroke-width="14.22636pt"> 
 <g> 
 <g stroke="rgb(69.9997%,69.9997%,69.9997%)"> 
 <g fill="rgb(69.9997%,69.9997%,69.9997%)"> 
 <g fill="rgb(100.0%,100.0%,69.9997%)"> 
 <g stroke-width="14.22636pt"> 
 <path d=" M  136.29736 0.0 C  136.29736 75.64403 75.64403 136.29736 0.0 136.29736 C  -75.64403 136.29736 -136.29736 75.64403 -136.29736 0.0 C  -136.29736 -75.64403 -75.64403 -136.29736 0.0 -136.29736 C  75.64403 -136.29736 136.29736 -75.64403 136.29736 0.0 Z M  0.0 0.0  " /> 
 </g> 
 </g> 
 </g> 
 </g> 
 </g> 
 <g> 
 <path d=" M  -129.18419 0.0 L  129.18419 0.0  " style="fill:none"/> 
 </g> 
 <g> 
 <g transform="matrix(1.0,0.0,0.0,1.0,-54.51743,21.33954)"> 
 <g fill="rgb(69.9997%,69.9997%,69.9997%)"> 
 <text style="stroke:none" transform="scale(1,-1) translate(54.51743,0)" text-anchor="middle"  font-size="24.88"> 
<tspan font-family="cmr" font-size="17">state name</tspan></text> 
</g> 
 </g> 
 </g> 
 <g> 
 <g transform="matrix(1.0,0.0,0.0,1.0,-33.58134,-36.64044)"> 
 <g fill="rgb(69.9997%,69.9997%,69.9997%)"> 
 <text style="stroke:none" transform="scale(1,-1) translate(33.58134,0)" text-anchor="middle"  font-size="24.88"> 
<tspan font-family="cmr" font-size="17">output</tspan></text> 
</g> 
 </g> 
 </g> 
 </g> 
 </g> 
 </g> 
 </g> 
 </g> 
 <path d=" M  -101.40666 101.40666  " style="fill:none"/> 
 <g> 
 <path d=" M  -102.82088 99.99245 L  -99.99245 102.82088 M  -102.82088 102.82088 L  -99.99245 99.99245  " style="fill:none"/> 
 </g> 
 <g> 
 <g> 
 <g transform="matrix(1.0,0.0,0.0,1.0,-161.27594,109.79611)"> 
 <g fill="rgb(0.0%,0.0%,0.0%)"> 
 <text style="stroke:none" transform="scale(1,-1) translate(26.03157,0)" text-anchor="middle"  font-size="24.88"> 
<tspan font-family="cmtt" font-size="8">(s.north west)</tspan></text> 
</g> 
 </g> 
 </g> 
 </g> 
 <path d=" M  0.0 143.41054  " style="fill:none"/> 
 <g> 
 <path d=" M  -1.41422 141.99632 L  1.41422 144.82475 M  -1.41422 144.82475 L  1.41422 141.99632  " style="fill:none"/> 
 </g> 
 <g> 
 <g> 
 <g transform="matrix(1.0,0.0,0.0,1.0,-16.73457,151.79999)"> 
 <g fill="rgb(0.0%,0.0%,0.0%)"> 
 <text style="stroke:none" transform="scale(1,-1) translate(16.73457,0)" text-anchor="middle"  font-size="24.88"> 
<tspan font-family="cmtt" font-size="8">(s.north)</tspan></text> 
</g> 
 </g> 
 </g> 
 </g> 
 <path d=" M  101.40666 101.40666  " style="fill:none"/> 
 <g> 
 <path d=" M  99.99245 99.99245 L  102.82088 102.82088 M  99.99245 102.82088 L  102.82088 99.99245  " style="fill:none"/> 
 </g> 
 <g> 
 <g> 
 <g transform="matrix(1.0,0.0,0.0,1.0,109.2128,109.79611)"> 
 <g fill="rgb(0.0%,0.0%,0.0%)"> 
 <text style="stroke:none" transform="scale(1,-1) translate(26.03157,0)" text-anchor="middle"  font-size="24.88"> 
<tspan font-family="cmtt" font-size="8">(s.north east)</tspan></text> 
</g> 
 </g> 
 </g> 
 </g> 
 <path d=" M  -143.41054 0.0  " style="fill:none"/> 
 <g> 
 <path d=" M  -144.82475 -1.41422 L  -141.99632 1.41422 M  -144.82475 1.41422 L  -141.99632 -1.41422  " style="fill:none"/> 
 </g> 
 <g> 
 <g> 
 <g transform="matrix(1.0,0.0,0.0,1.0,-180.96704,-2.13889)"> 
 <g fill="rgb(0.0%,0.0%,0.0%)"> 
 <text style="stroke:none" transform="scale(1,-1) translate(14.87518,0)" text-anchor="middle"  font-size="24.88"> 
<tspan font-family="cmtt" font-size="8">(s.west)</tspan></text> 
</g> 
 </g> 
 </g> 
 </g> 
 <path d=" M  0.0 0.0  " style="fill:none"/> 
 <g> 
 <path d=" M  -1.41422 -1.41422 L  1.41422 1.41422 M  -1.41422 1.41422 L  1.41422 -1.41422  " style="fill:none"/> 
 </g> 
 <g> 
 <g> 
 <g transform="matrix(1.0,0.0,0.0,1.0,-18.59398,-12.66722)"> 
 <g fill="rgb(0.0%,0.0%,0.0%)"> 
 <text style="stroke:none" transform="scale(1,-1) translate(18.59398,0)" text-anchor="middle"  font-size="24.88"> 
<tspan font-family="cmtt" font-size="8">(s.center)</tspan></text> 
</g> 
 </g> 
 </g> 
 </g> 
 <path d=" M  143.41054 0.0  " style="fill:none"/> 
 <g> 
 <path d=" M  141.99632 -1.41422 L  144.82475 1.41422 M  141.99632 1.41422 L  144.82475 -1.41422  " style="fill:none"/> 
 </g> 
 <g> 
 <g> 
 <g transform="matrix(1.0,0.0,0.0,1.0,151.21667,-2.13889)"> 
 <g fill="rgb(0.0%,0.0%,0.0%)"> 
 <text style="stroke:none" transform="scale(1,-1) translate(14.87518,0)" text-anchor="middle"  font-size="24.88"> 
<tspan font-family="cmtt" font-size="8">(s.east)</tspan></text> 
</g> 
 </g> 
 </g> 
 </g> 
 <path d=" M  -143.41054 26.69484  " style="fill:none"/> 
 <g> 
 <path d=" M  -144.82475 25.28062 L  -141.99632 28.10905 M  -144.82475 28.10905 L  -141.99632 25.28062  " style="fill:none"/> 
 </g> 
 <g> 
 <g> 
 <g transform="matrix(1.0,0.0,0.0,1.0,-135.6044,24.55595)"> 
 <g fill="rgb(0.0%,0.0%,0.0%)"> 
 <text style="stroke:none" transform="scale(1,-1) translate(22.31277,0)" text-anchor="middle"  font-size="24.88"> 
<tspan font-family="cmtt" font-size="8">(s.mid west)</tspan></text> 
</g> 
 </g> 
 </g> 
 </g> 
 <path d=" M  0.0 26.69484  " style="fill:none"/> 
 <g> 
 <path d=" M  -1.41422 25.28062 L  1.41422 28.10905 M  -1.41422 28.10905 L  1.41422 25.28062  " style="fill:none"/> 
 </g> 
 <g> 
 <g> 
 <g transform="matrix(1.0,0.0,0.0,1.0,-13.01578,35.08429)"> 
 <g fill="rgb(0.0%,0.0%,0.0%)"> 
 <text style="stroke:none" transform="scale(1,-1) translate(13.01578,0)" text-anchor="middle"  font-size="24.88"> 
<tspan font-family="cmtt" font-size="8">(s.mid)</tspan></text> 
</g> 
 </g> 
 </g> 
 </g> 
 <path d=" M  143.41054 26.69484  " style="fill:none"/> 
 <g> 
 <path d=" M  141.99632 25.28062 L  144.82475 28.10905 M  141.99632 28.10905 L  144.82475 25.28062  " style="fill:none"/> 
 </g> 
 <g> 
 <g> 
 <g transform="matrix(1.0,0.0,0.0,1.0,90.97885,24.55595)"> 
 <g fill="rgb(0.0%,0.0%,0.0%)"> 
 <text style="stroke:none" transform="scale(1,-1) translate(22.31277,0)" text-anchor="middle"  font-size="24.88"> 
<tspan font-family="cmtt" font-size="8">(s.mid east)</tspan></text> 
</g> 
 </g> 
 </g> 
 </g> 
 <path d=" M  -143.41054 21.33954  " style="fill:none"/> 
 <g> 
 <path d=" M  -144.82475 19.92532 L  -141.99632 22.75375 M  -144.82475 22.75375 L  -141.99632 19.92532  " style="fill:none"/> 
 </g> 
 <g> 
 <g> 
 <g transform="matrix(1.0,0.0,0.0,1.0,-199.561,19.20065)"> 
 <g fill="rgb(0.0%,0.0%,0.0%)"> 
 <text style="stroke:none" transform="scale(1,-1) translate(24.17216,0)" text-anchor="middle"  font-size="24.88"> 
<tspan font-family="cmtt" font-size="8">(s.base west)</tspan></text> 
</g> 
 </g> 
 </g> 
 </g> 
 <path d=" M  0.0 21.33954  " style="fill:none"/> 
 <g> 
 <path d=" M  -1.41422 19.92532 L  1.41422 22.75375 M  -1.41422 22.75375 L  1.41422 19.92532  " style="fill:none"/> 
 </g> 
 <g> 
 <g> 
 <g transform="matrix(1.0,0.0,0.0,1.0,-14.87518,8.67232)"> 
 <g fill="rgb(0.0%,0.0%,0.0%)"> 
 <text style="stroke:none" transform="scale(1,-1) translate(14.87518,0)" text-anchor="middle"  font-size="24.88"> 
<tspan font-family="cmtt" font-size="8">(s.base)</tspan></text> 
</g> 
 </g> 
 </g> 
 </g> 
 <path d=" M  143.41054 21.33954  " style="fill:none"/> 
 <g> 
 <path d=" M  141.99632 19.92532 L  144.82475 22.75375 M  141.99632 22.75375 L  144.82475 19.92532  " style="fill:none"/> 
 </g> 
 <g> 
 <g> 
 <g transform="matrix(1.0,0.0,0.0,1.0,151.21667,19.20065)"> 
 <g fill="rgb(0.0%,0.0%,0.0%)"> 
 <text style="stroke:none" transform="scale(1,-1) translate(24.17216,0)" text-anchor="middle"  font-size="24.88"> 
<tspan font-family="cmtt" font-size="8">(s.base east)</tspan></text> 
</g> 
 </g> 
 </g> 
 </g> 
 <path d=" M  -101.40666 -101.40666  " style="fill:none"/> 
 <g> 
 <path d=" M  -102.82088 -102.82088 L  -99.99245 -99.99245 M  -102.82088 -99.99245 L  -99.99245 -102.82088  " style="fill:none"/> 
 </g> 
 <g> 
 <g> 
 <g transform="matrix(1.0,0.0,0.0,1.0,-161.27594,-114.07388)"> 
 <g fill="rgb(0.0%,0.0%,0.0%)"> 
 <text style="stroke:none" transform="scale(1,-1) translate(26.03157,0)" text-anchor="middle"  font-size="24.88"> 
<tspan font-family="cmtt" font-size="8">(s.south west)</tspan></text> 
</g> 
 </g> 
 </g> 
 </g> 
 <path d=" M  0.0 -143.41054  " style="fill:none"/> 
 <g> 
 <path d=" M  -1.41422 -144.82475 L  1.41422 -141.99632 M  -1.41422 -141.99632 L  1.41422 -144.82475  " style="fill:none"/> 
 </g> 
 <g> 
 <g> 
 <g transform="matrix(1.0,0.0,0.0,1.0,-16.73457,-156.07776)"> 
 <g fill="rgb(0.0%,0.0%,0.0%)"> 
 <text style="stroke:none" transform="scale(1,-1) translate(16.73457,0)" text-anchor="middle"  font-size="24.88"> 
<tspan font-family="cmtt" font-size="8">(s.south)</tspan></text> 
</g> 
 </g> 
 </g> 
 </g> 
 <path d=" M  101.40666 -101.40666  " style="fill:none"/> 
 <g> 
 <path d=" M  99.99245 -102.82088 L  102.82088 -99.99245 M  99.99245 -99.99245 L  102.82088 -102.82088  " style="fill:none"/> 
 </g> 
 <g> 
 <g> 
 <g transform="matrix(1.0,0.0,0.0,1.0,109.2128,-114.07388)"> 
 <g fill="rgb(0.0%,0.0%,0.0%)"> 
 <text style="stroke:none" transform="scale(1,-1) translate(26.03157,0)" text-anchor="middle"  font-size="24.88"> 
<tspan font-family="cmtt" font-size="8">(s.south east)</tspan></text> 
</g> 
 </g> 
 </g> 
 </g> 
 <path d=" M  -54.51743 21.33954  " style="fill:none"/> 
 <g> 
 <path d=" M  -55.93164 19.92532 L  -53.10321 22.75375 M  -55.93164 22.75375 L  -53.10321 19.92532  " style="fill:none"/> 
 </g> 
 <g> 
 <g> 
 <g transform="matrix(1.0,0.0,0.0,1.0,-92.07393,19.20065)"> 
 <g fill="rgb(0.0%,0.0%,0.0%)"> 
 <text style="stroke:none" transform="scale(1,-1) translate(14.87518,0)" text-anchor="middle"  font-size="24.88"> 
<tspan font-family="cmtt" font-size="8">(s.text)</tspan></text> 
</g> 
 </g> 
 </g> 
 </g> 
 <path d=" M  -33.58134 -36.64044  " style="fill:none"/> 
 <g> 
 <path d=" M  -34.99556 -38.05466 L  -32.16713 -35.22623 M  -34.99556 -35.22623 L  -32.16713 -38.05466  " style="fill:none"/> 
 </g> 
 <g> 
 <g> 
 <g transform="matrix(1.0,0.0,0.0,1.0,-78.57544,-38.29321)"> 
 <g fill="rgb(0.0%,0.0%,0.0%)"> 
 <text style="stroke:none" transform="scale(1,-1) translate(18.59398,0)" text-anchor="middle"  font-size="24.88"> 
<tspan font-family="cmtt" font-size="8">(s.output)</tspan></text> 
</g> 
 </g> 
 </g> 
 </g> 
 <path d=" M  -92.60106 110.35233  " style="fill:none"/> 
 <g> 
 <path d=" M  -94.01527 108.93811 L  -91.18684 111.76654 M  -94.01527 111.76654 L  -91.18684 108.93811  " style="fill:none"/> 
 </g> 
 <g> 
 <g> 
 <g transform="matrix(1.0,0.0,0.0,1.0,-105.61684,118.74178)"> 
 <g fill="rgb(0.0%,0.0%,0.0%)"> 
 <text style="stroke:none" transform="scale(1,-1) translate(13.01578,0)" text-anchor="middle"  font-size="24.88"> 
<tspan font-family="cmtt" font-size="8">(s.130)</tspan></text> 
</g> 
 </g> 
 </g> 
 </g> 
 </g> 
 </g> 
 </g> 
 </g> 
 </g> 
 
                                                                                                               </g> 
</svg> 
