<svg xmlns="http://www.w3.org/2000/svg" xmlns:xlink="http://www.w3.org/1999/xlink" width="70.86311pt" height="41.95201pt" viewBox="-7.08298 -6.74963 70.86311 41.95201 "> 
<g transform="translate(0, 35.20238 ) scale(1,-1) translate(0,6.74963 )"> 
          <g> 
 <g stroke="rgb(0.0%,0.0%,0.0%)"> 
 <g fill="rgb(0.0%,0.0%,0.0%)"> 
 <g stroke-width="0.4pt"> 
 <g> 
 </g> 
 <g> 
 <g> 
 <g> 
 <g transform="matrix(1.0,0.0,0.0,1.0,-3.75,-3.41666)"> 
 <g fill="rgb(0.0%,0.0%,0.0%)"> 
 <text style="stroke:none" transform="scale(1,-1) translate(3.75,0)" text-anchor="middle"  font-size="10"> 
A</text> 
</g> 
 </g> 
 </g> 
 </g> 
 <g> 
 <g> 
 <g transform="matrix(1.0,0.0,0.0,1.0,53.36382,25.03609)"> 
 <g fill="rgb(0.0%,0.0%,0.0%)"> 
 <text style="stroke:none" transform="scale(1,-1) translate(3.54167,0)" text-anchor="middle"  font-size="10"> 
B</text> 
</g> 
 </g> 
 </g> 
 </g> 
 <path d=" M  7.28297 3.64125 L  49.83084 24.91748  " style="fill:none"/> 
 <path d=" M  7.28297 3.64125 M  7.28297 3.64125 C  7.28291 4.47977 7.8419 5.31837 8.95993 5.87747 L  25.75911 14.27835 C  26.87714 14.83745 27.43614 15.67603 27.43607 16.51457 C  28.10692 16.01144 29.11319 15.95564 30.23122 16.51474 L  47.03041 24.91563 C  48.14844 25.47473 49.15472 25.4189 49.82556 24.9158  " style="fill:none"/> 
 <g> 
 <g stroke="rgb(100.0%,0.0%,0.0%)"> 
 <g fill="rgb(100.0%,0.0%,0.0%)"> 
 <path d=" M  7.28297 3.64125 M  5.04657 8.11337 C  5.04651 8.95189 5.6055 9.7905 6.72353 10.3496 L  23.5227 18.75047 C  24.64073 19.30957 25.19974 20.14815 25.19966 20.9867 C  25.87051 20.48357 26.87679 20.42776 27.99481 20.98686 L  44.794 29.38776 C  45.91203 29.94685 46.91832 29.89102 47.58916 29.38792  " style="fill:none"/> 
 </g> 
 </g> 
 </g> 
 </g> 
 </g> 
 </g> 
 </g> 
 </g> 
          </g> 
</svg> 
