<svg xmlns="http://www.w3.org/2000/svg" xmlns:xlink="http://www.w3.org/1999/xlink" width="298.7538pt" height="42.67911pt" viewBox="0.0 -14.22636 298.7538 42.67911 "> 
<g transform="translate(0, 28.45274 ) scale(1,-1) translate(0,14.22636 )"> 
        <g> 
 <g stroke="rgb(0.0%,0.0%,0.0%)"> 
 <g fill="rgb(0.0%,0.0%,0.0%)"> 
 <g stroke-width="0.4pt"> 
 <g> 
 </g> 
 <g> 
 <path d=" M  0.0 0.0 L  28.45274 28.45274 L  56.90549 28.45274  " style="stroke:none"/> 
 <path d=" M  113.81097 0.0 M  128.03734 0.0 C  128.03734 7.89552 121.7065 14.22636 113.81097 14.22636 C  105.91545 14.22636 99.58461 7.89552 99.58461 0.0 C  99.58461 -7.89552 105.91545 -14.22636 113.81097 -14.22636 C  121.7065 -14.22636 128.03734 -7.89552 128.03734 0.0 Z M  113.81097 0.0 M  128.03734 0.0 M  142.2637 0.0 C  142.2637 7.89552 135.93286 14.22636 128.03734 14.22636 C  120.14182 14.22636 113.81097 7.89552 113.81097 0.0 C  113.81097 -7.89552 120.14182 -14.22636 128.03734 -14.22636 C  135.93286 -14.22636 142.2637 -7.89552 142.2637 0.0 Z M  128.03734 0.0  " style="stroke:none"/> 
 <g> 
 <g fill-rule="evenodd"> 
 <path d=" M  170.71646 0.0 M  184.94283 0.0 C  184.94283 7.89552 178.61198 14.22636 170.71646 14.22636 C  162.82094 14.22636 156.4901 7.89552 156.4901 0.0 C  156.4901 -7.89552 162.82094 -14.22636 170.71646 -14.22636 C  178.61198 -14.22636 184.94283 -7.89552 184.94283 0.0 Z M  170.71646 0.0 M  184.94283 0.0 M  199.16919 0.0 C  199.16919 7.89552 192.83835 14.22636 184.94283 14.22636 C  177.0473 14.22636 170.71646 7.89552 170.71646 0.0 C  170.71646 -7.89552 177.0473 -14.22636 184.94283 -14.22636 C  192.83835 -14.22636 199.16919 -7.89552 199.16919 0.0 Z M  184.94283 0.0  " style="stroke:none"/> 
 </g> 
 </g> 
 <path d=" M  227.62195 0.0 L  256.07469 28.45274 L  284.52744 0.0 M  298.7538 0.0 C  298.7538 7.89552 292.42296 14.22636 284.52744 14.22636 C  276.63191 14.22636 270.30107 7.89552 270.30107 0.0 C  270.30107 -7.89552 276.63191 -14.22636 284.52744 -14.22636 C  292.42296 -14.22636 298.7538 -7.89552 298.7538 0.0 Z M  284.52744 0.0  " style="stroke:none"/> 
 </g> 
 </g> 
 </g> 
 </g> 
 </g> 
 
                                                                                          </g> 
</svg> 
