<svg xmlns="http://www.w3.org/2000/svg" xmlns:xlink="http://www.w3.org/1999/xlink" width="87.45822pt" height="57.10547pt" viewBox="-2.0 -0.09999 87.45822 57.10547 "> 
<g transform="translate(0, 57.00548 ) scale(1,-1) translate(0,0.09999 )"> 
         <g> 
 <g stroke="rgb(0.0%,0.0%,0.0%)"> 
 <g fill="rgb(0.0%,0.0%,0.0%)"> 
 <g stroke-width="0.4pt"> 
 <g> 
 </g> 
 <g> 
 <g> 
 <g stroke="rgb(50.0%,50.0%,50.0%)"> 
 <g fill="rgb(50.0%,50.0%,50.0%)"> 
 <g stroke-width="0.2pt"> 
 <path d=" M  0.0 0.0 M  0.0 0.0 L  85.35823 0.0 M  0.0 28.45274 L  85.35823 28.45274 M  0.0 56.8955 L  85.35823 56.8955 M  0.0 0.0 L  0.0 56.90549 M  28.45274 0.0 L  28.45274 56.90549 M  56.90549 0.0 L  56.90549 56.90549 M  85.34824 0.0 L  85.34824 56.90549  " style="fill:none"/> 
 </g> 
 </g> 
 </g> 
 </g> 
 <path d=" M  30.45274 28.45274 C  30.45274 29.56273 29.56273 30.45274 28.45274 30.45274 C  27.34276 30.45274 26.45274 29.56273 26.45274 28.45274 C  26.45274 27.34276 27.34276 26.45274 28.45274 26.45274 C  29.56273 26.45274 30.45274 27.34276 30.45274 28.45274 Z M  28.45274 28.45274 M  58.9055 5.0 C  58.9055 6.10999 58.01549 7.0 56.9055 7.0 C  55.79552 7.0 54.9055 6.10999 54.9055 5.0 C  54.9055 3.89001 55.79552 3.0 56.9055 3.0 C  58.01549 3.0 58.9055 3.89001 58.9055 5.0 Z M  56.9055 5.0 M  2.0 36.135 C  2.0 37.24498 1.10999 38.135 0.0 38.135 C  -1.10999 38.135 -2.0 37.24498 -2.0 36.135 C  -2.0 35.02501 -1.10999 34.135 0.0 34.135 C  1.10999 34.135 2.0 35.02501 2.0 36.135 Z M  0.0 36.135  " style="stroke:none"/> 
 </g> 
 </g> 
 </g> 
 </g> 
 </g> 
                   </g> 
</svg> 
