<svg xmlns="http://www.w3.org/2000/svg" xmlns:xlink="http://www.w3.org/1999/xlink" width="219.2255pt" height="142.7637pt" viewBox="-35.9228 -57.00548 219.2255 142.7637 "> 
<g transform="translate(0, 85.75822 ) scale(1,-1) translate(0,57.00548 )"> 
                   <g> 
 <g stroke="rgb(0.0%,0.0%,0.0%)"> 
 <g fill="rgb(0.0%,0.0%,0.0%)"> 
 <g stroke-width="0.4pt"> 
 <g> 
 </g> 
 <g> 
 <g fill="rgb(80.0003%,80.0003%,100.0%)"> 
 <g> 
 <g stroke="rgb(50.0%,50.0%,50.0%)"> 
 <g fill="rgb(50.0%,50.0%,50.0%)"> 
 <g stroke-width="0.2pt"> 
 <path d=" M  -28.45274 -56.90549 M  -28.45274 -56.90549 L  170.71646 -56.90549 M  -28.45274 -28.45274 L  170.71646 -28.45274 M  -28.45274 0.0 L  170.71646 0.0 M  -28.45274 28.45274 L  170.71646 28.45274 M  -28.45274 56.90549 L  170.71646 56.90549 M  -28.45274 85.34824 L  170.71646 85.34824 M  -28.45274 -56.90549 L  -28.45274 85.35823 M  0.0 -56.90549 L  0.0 85.35823 M  28.45274 -56.90549 L  28.45274 85.35823 M  56.90549 -56.90549 L  56.90549 85.35823 M  85.35823 -56.90549 L  85.35823 85.35823 M  113.81097 -56.90549 L  113.81097 85.35823 M  142.26372 -56.90549 L  142.26372 85.35823 M  170.70647 -56.90549 L  170.70647 85.35823  " style="fill:none"/> 
 </g> 
 </g> 
 </g> 
 </g> 
 <g> 
 <path d=" M  34.66284 6.11191 C  33.60287 12.12344 17.32771 14.22382 -1.9099 10.83176 C  -21.1475 7.4397 -35.72281 -0.10037 -34.66284 -6.11191 C  -33.60287 -12.12344 -17.32771 -14.22382 1.9099 -10.83176 C  21.1475 -7.4397 35.72281 0.10037 34.66284 6.11191 Z M  0.0 0.0  " /> 
 <g> 
 <g transform="matrix(0.9848,0.17365,-0.17365,0.9848,-20.79387,-6.20502)"> 
 <g fill="rgb(0.0%,0.0%,0.0%)"> 
 <text style="stroke:none" transform="scale(1,-1) translate(21.55559,0)" text-anchor="middle"  font-size="10"> 
An ellipse</text> 
</g> 
 </g> 
 </g> 
 </g> 
 <g> 
 <path d=" M  106.50154 -28.45274 C  106.50154 -16.71837 97.0926 -7.30943 85.35823 -7.30943 C  73.62386 -7.30943 64.21492 -16.71837 64.21492 -28.45274 C  64.21492 -40.18712 73.62386 -49.59605 85.35823 -49.59605 C  97.0926 -49.59605 106.50154 -40.18712 106.50154 -28.45274 Z M  85.35823 -28.45274  " /> 
 <g> 
 <g transform="matrix(1.0,0.0,0.0,1.0,68.53877,-31.92496)"> 
 <g fill="rgb(0.0%,0.0%,0.0%)"> 
 <text style="stroke:none" transform="scale(1,-1) translate(16.81946,0)" text-anchor="middle"  font-size="10"> 
A circle</text> 
</g> 
 </g> 
 </g> 
 </g> 
 <g> 
 <path d=" M  81.01343 73.95677 L  27.47739 54.47104 L  32.79753 39.85422 L  86.33357 59.33995 Z M  32.13248 41.6814  " /> 
 <g> 
 <g transform="matrix(0.9397,0.34203,-0.34203,0.9397,34.12451,45.95334)"> 
 <g fill="rgb(0.0%,0.0%,0.0%)"> 
 <text style="stroke:none" transform="scale(1,-1) translate(25.15282,0)" text-anchor="middle"  font-size="10"> 
A rectangle</text> 
</g> 
 </g> 
 </g> 
 </g> 
 <g> 
 <path d=" M  183.10269 42.30775 L  109.20216 84.97414 L  101.42476 71.50322 L  175.32529 28.83684 Z M  102.39697 73.18716  " /> 
 <g> 
 <g transform="matrix(0.86603,-0.5,0.5,0.86603,106.9499,74.40712)"> 
 <g fill="rgb(0.0%,0.0%,0.0%)"> 
 <text style="stroke:none" transform="scale(1,-1) translate(39.3334,0)" text-anchor="middle"  font-size="10"> 
Another rectangle</text> 
</g> 
 </g> 
 </g> 
 </g> 
 <g> 
 <g stroke-width="0.8pt"> 
 <path d=" M  19.3009 -6.43361 L  65.08998 -21.69667 M  78.60216 -8.1845 L  59.42944 49.3347 M  80.22467 56.90363 L  126.31325 56.90294  " style="fill:none"/> 
 </g> 
 </g> 
 <g> 
 <g stroke-width="0.8pt"> 
 <g stroke="rgb(100.0%,0.0%,0.0%)"> 
 <g fill="rgb(100.0%,0.0%,0.0%)"> 
 <path d=" M  -0.00017 11.35732 L  -0.00017 85.35823 L  28.45274 85.35823 L  56.9053 85.35823 L  56.9053 65.39488 M  56.90575 48.41614 L  56.90575 -28.45274 L  63.30492 -28.45274  " style="fill:none"/> 
 <g> 
 <g transform="matrix(1.0,0.0,0.0,1.0,63.30492,-28.45274)"> 
 <g> 
 <g stroke-width="0.64pt"> 
 <g stroke-dasharray="none" stroke-dashoffset="0.0pt"> 
 <g stroke-linecap="round"> 
 <g stroke-linejoin="round"> 
 <path d=" M  -1.55997 2.07996 C  -1.42996 1.29997 0.0 0.12999 0.38998 0.0 C  0.0 -0.12999 -1.42996 -1.29997 -1.55997 -2.07996  " style="fill:none"/> 
 </g> 
 </g> 
 </g> 
 </g> 
 </g> 
 </g> 
 </g> 
 </g> 
 </g> 
 </g> 
 </g> 
 <g> 
 <g stroke-width="0.8pt"> 
 <g stroke="rgb(0.0%,0.0%,100.0%)"> 
 <g fill="rgb(0.0%,0.0%,100.0%)"> 
 <path d=" M  107.41154 -28.45274 C  142.26373 -28.45274 142.26372 28.45274 142.26277 46.98451  " style="fill:none"/> 
 <g> 
 <g transform="matrix(-1.0,0.0,0.0,-1.0,107.41154,-28.45274)"> 
 <g> 
 <g stroke-width="0.64pt"> 
 <g stroke-dasharray="none" stroke-dashoffset="0.0pt"> 
 <g stroke-linecap="round"> 
 <g stroke-linejoin="round"> 
 <path d=" M  -1.55997 2.07996 C  -1.42996 1.29997 0.0 0.12999 0.38998 0.0 C  0.0 -0.12999 -1.42996 -1.29997 -1.55997 -2.07996  " style="fill:none"/> 
 </g> 
 </g> 
 </g> 
 </g> 
 </g> 
 </g> 
 </g> 
 <g> 
 <g transform="matrix(-0.00003,1.0,-1.0,-0.00003,142.26277,46.98451)"> 
 <g> 
 <g stroke-width="0.64pt"> 
 <g stroke-dasharray="none" stroke-dashoffset="0.0pt"> 
 <g stroke-linecap="round"> 
 <g stroke-linejoin="round"> 
 <path d=" M  -1.55997 2.07996 C  -1.42996 1.29997 0.0 0.12999 0.38998 0.0 C  0.0 -0.12999 -1.42996 -1.29997 -1.55997 -2.07996  " style="fill:none"/> 
 </g> 
 </g> 
 </g> 
 </g> 
 </g> 
 </g> 
 </g> 
 </g> 
 </g> 
 </g> 
 </g> 
 </g> 
 </g> 
 </g> 
 </g> 
 </g> 
 </g> 
 
                                                                  </g> 
</svg> 
