<svg xmlns="http://www.w3.org/2000/svg" xmlns:xlink="http://www.w3.org/1999/xlink" width="72.88736pt" height="40.2234pt" viewBox="-36.5464 -40.02338 72.88736 40.2234 "> 
<g transform="translate(0, 0.20003 ) scale(1,-1) translate(0,40.02338 )"> 
                   <g> 
 <g stroke="rgb(0.0%,0.0%,0.0%)"> 
 <g fill="rgb(0.0%,0.0%,0.0%)"> 
 <g stroke-width="0.4pt"> 
 <g> 
 </g> 
 <g> 
 <g> 
 </g> 
 <g> 
 <g> 
 </g> 
 <path d=" M  -19.71268 -11.38109 M  0.00006 0.00003 L  -19.71268 -11.38109  " style="fill:none"/> 
 <g> 
 <g> 
 </g> 
 <path d=" M  -30.80183 -8.82097 M  -19.71196 -11.38135 L  -30.80183 -8.82097  " style="fill:none"/> 
 <g> 
 <g> 
 </g> 
 <path d=" M  -30.80171 -8.82108 L  -34.96353 -4.94025  " style="fill:none"/> 
 </g> 
 <g> 
 <g> 
 </g> 
 <path d=" M  -30.80147 -8.82108 L  -36.3464 -7.54092  " style="fill:none"/> 
 </g> 
 <g> 
 <g> 
 </g> 
 <path d=" M  -30.80147 -8.82086 L  -36.24359 -10.48473  " style="fill:none"/> 
 </g> 
 </g> 
 <g> 
 <g> 
 </g> 
 <path d=" M  -29.36444 -17.412 M  -19.71164 -11.38048 L  -29.36444 -17.412  " style="fill:none"/> 
 <g> 
 <g> 
 </g> 
 <path d=" M  -29.36385 -17.41199 L  -35.0515 -17.61049  " style="fill:none"/> 
 </g> 
 <g> 
 <g> 
 </g> 
 <path d=" M  -29.36394 -17.41168 L  -34.1903 -20.42744  " style="fill:none"/> 
 </g> 
 <g> 
 <g> 
 </g> 
 <path d=" M  -29.36414 -17.41151 L  -32.03604 -22.43637  " style="fill:none"/> 
 </g> 
 </g> 
 <g> 
 <g> 
 </g> 
 <path d=" M  -22.2728 -22.47025 M  -19.71242 -11.38039 L  -22.2728 -22.47025  " style="fill:none"/> 
 <g> 
 <g> 
 </g> 
 <path d=" M  -22.27267 -22.47011 L  -26.15352 -26.63194  " style="fill:none"/> 
 </g> 
 <g> 
 <g> 
 </g> 
 <path d=" M  -22.27269 -22.46988 L  -23.55284 -28.01482  " style="fill:none"/> 
 </g> 
 <g> 
 <g> 
 </g> 
 <path d=" M  -22.2729 -22.46988 L  -20.60904 -27.912  " style="fill:none"/> 
 </g> 
 </g> 
 </g> 
 <g> 
 <g> 
 </g> 
 <path d=" M  0.0 -22.76219 M  0.0 0.0 L  0.0 -22.76219  " style="fill:none"/> 
 <g> 
 <g> 
 </g> 
 <path d=" M  -7.7618 -31.08578 M  0.00073 -22.76135 L  -7.7618 -31.08578  " style="fill:none"/> 
 <g> 
 <g> 
 </g> 
 <path d=" M  -7.76125 -31.08562 L  -13.20364 -32.74954  " style="fill:none"/> 
 </g> 
 <g> 
 <g> 
 </g> 
 <path d=" M  -7.76141 -31.08539 L  -11.64268 -35.24757  " style="fill:none"/> 
 </g> 
 <g> 
 <g> 
 </g> 
 <path d=" M  -7.76169 -31.08545 L  -9.04184 -36.63036  " style="fill:none"/> 
 </g> 
 </g> 
 <g> 
 <g> 
 </g> 
 <path d=" M  0.39716 -34.13632 M  -0.00006 -22.76102 L  0.39716 -34.13632  " style="fill:none"/> 
 <g> 
 <g> 
 </g> 
 <path d=" M  0.39743 -34.13585 L  -2.27444 -39.16069  " style="fill:none"/> 
 </g> 
 <g> 
 <g> 
 </g> 
 <path d=" M  0.39714 -34.13574 L  0.59573 -39.82338  " style="fill:none"/> 
 </g> 
 <g> 
 <g> 
 </g> 
 <path d=" M  0.39685 -34.13582 L  3.4126 -38.96219  " style="fill:none"/> 
 </g> 
 </g> 
 <g> 
 <g> 
 </g> 
 <path d=" M  8.3236 -30.52399 M  -0.00082 -22.76144 L  8.3236 -30.52399  " style="fill:none"/> 
 <g> 
 <g> 
 </g> 
 <path d=" M  8.32343 -30.52345 L  9.98735 -35.96584  " style="fill:none"/> 
 </g> 
 <g> 
 <g> 
 </g> 
 <path d=" M  8.32318 -30.52364 L  12.48538 -34.40488  " style="fill:none"/> 
 </g> 
 <g> 
 <g> 
 </g> 
 <path d=" M  8.32326 -30.52386 L  13.86816 -31.80403  " style="fill:none"/> 
 </g> 
 </g> 
 </g> 
 <g> 
 <g> 
 </g> 
 <path d=" M  19.71268 -11.38109 M  -0.00006 0.00003 L  19.71268 -11.38109  " style="fill:none"/> 
 <g> 
 <g> 
 </g> 
 <path d=" M  23.0402 -22.2648 M  19.71234 -11.38 L  23.0402 -22.2648  " style="fill:none"/> 
 <g> 
 <g> 
 </g> 
 <path d=" M  23.04033 -22.2644 L  21.76007 -27.80937  " style="fill:none"/> 
 </g> 
 <g> 
 <g> 
 </g> 
 <path d=" M  23.04004 -22.26425 L  24.70396 -27.70665  " style="fill:none"/> 
 </g> 
 <g> 
 <g> 
 </g> 
 <path d=" M  23.03989 -22.26451 L  27.2019 -26.14569  " style="fill:none"/> 
 </g> 
 </g> 
 <g> 
 <g> 
 </g> 
 <path d=" M  29.76143 -16.7243 M  19.7117 -11.38043 L  29.76143 -16.7243  " style="fill:none"/> 
 <g> 
 <g> 
 </g> 
 <path d=" M  29.76126 -16.72401 L  32.7768 -21.55008  " style="fill:none"/> 
 </g> 
 <g> 
 <g> 
 </g> 
 <path d=" M  29.76094 -16.724 L  34.7858 -19.3959  " style="fill:none"/> 
 </g> 
 <g> 
 <g> 
 </g> 
 <path d=" M  29.76103 -16.72432 L  35.4484 -16.52573  " style="fill:none"/> 
 </g> 
 </g> 
 <g> 
 <g> 
 </g> 
 <path d=" M  30.59639 -8.05356 M  19.71158 -11.38144 L  30.59639 -8.05356  " style="fill:none"/> 
 <g> 
 <g> 
 </g> 
 <path d=" M  30.596 -8.05344 L  36.14096 -9.3337  " style="fill:none"/> 
 </g> 
 <g> 
 <g> 
 </g> 
 <path d=" M  30.59586 -8.05373 L  36.03824 -6.3898  " style="fill:none"/> 
 </g> 
 <g> 
 <g> 
 </g> 
 <path d=" M  30.59612 -8.0539 L  34.47728 -3.89186  " style="fill:none"/> 
 </g> 
 </g> 
 </g> 
 </g> 
 </g> 
 </g> 
 </g> 
 </g> 
 
                      </g> 
</svg> 
