<svg xmlns="http://www.w3.org/2000/svg" xmlns:xlink="http://www.w3.org/1999/xlink" width="71.07144pt" height="41.95201pt" viewBox="-7.08298 -6.74963 71.07144 41.95201 "> 
<g transform="translate(0, 35.20238 ) scale(1,-1) translate(0,6.74963 )"> 
          <g> 
 <g stroke="rgb(0.0%,0.0%,0.0%)"> 
 <g fill="rgb(0.0%,0.0%,0.0%)"> 
 <g stroke-width="0.4pt"> 
 <g> 
 <g> 
 <g fill="rgb(100.0%,100.0%,0.0%)"> 
 <path d=" M  -7.08298 -6.74963 M  -7.08298 -2.74963 L  -7.08298 31.20238 C  -7.08298 33.42235 -5.30295 35.20238 -3.08298 35.20238 L  59.98846 35.20238 C  62.20844 35.20238 63.98846 33.42235 63.98846 31.20238 L  63.98846 -2.74963 C  63.98846 -4.9696 62.20844 -6.74963 59.98846 -6.74963 L  -3.08298 -6.74963 C  -5.30295 -6.74963 -7.08298 -4.9696 -7.08298 -2.74963 Z M  63.98846 35.20238  " style="stroke:none"/> 
 </g> 
 </g> 
 </g> 
 <g> 
 <g> 
 <g> 
 <g transform="matrix(1.0,0.0,0.0,1.0,-3.75,-3.41666)"> 
 <g fill="rgb(0.0%,0.0%,0.0%)"> 
 <text style="stroke:none" transform="scale(1,-1) translate(3.75,0)" text-anchor="middle"  font-size="10"> 
X</text> 
</g> 
 </g> 
 </g> 
 </g> 
 <g> 
 <g> 
 <g transform="matrix(1.0,0.0,0.0,1.0,53.15549,25.03609)"> 
 <g fill="rgb(0.0%,0.0%,0.0%)"> 
 <text style="stroke:none" transform="scale(1,-1) translate(3.75,0)" text-anchor="middle"  font-size="10"> 
Y</text> 
</g> 
 </g> 
 </g> 
 </g> 
 </g> 
 </g> 
 </g> 
 </g> 
 </g> 
          </g> 
</svg> 
