<svg xmlns="http://www.w3.org/2000/svg" xmlns:xlink="http://www.w3.org/1999/xlink" width="28.45274pt" height="10.76385pt" viewBox="0.0 -2.15277 28.45274 10.76385 "> 
<g transform="translate(0, 8.61108 ) scale(1,-1) translate(0,2.15277 )"> 
        <g> 
 <g stroke="rgb(0.0%,0.0%,0.0%)"> 
 <g fill="rgb(0.0%,0.0%,0.0%)"> 
 <g stroke-width="0.4pt"> 
 <g> 
 </g> 
 <g> 
 <g stroke-width="0.4pt"> 
 <path d=" M  0.91997 2.15277 L  27.53278 2.15277  " style="fill:none"/> 
 <g> 
 <g transform="matrix(-1.0,0.0,0.0,-1.0,0.91997,2.15277)"> 
 <g> 
 <g stroke-dasharray="none" stroke-dashoffset="0.0pt"> 
 <path d=" M  0.71997 0.0 C  0.71997 1.19873 -0.24121 2.15991 -1.43994 2.15991 C  -2.63867 2.15991 -3.59985 1.19873 -3.59985 0.0 C  -3.59985 -1.19873 -2.63867 -2.15991 -1.43994 -2.15991 C  -0.24121 -2.15991 0.71997 -1.19873 0.71997 0.0 Z M  -1.43994 0.0  " /> 
 </g> 
 </g> 
 </g> 
 </g> 
 <g> 
 <g transform="matrix(1.0,0.0,0.0,1.0,27.53278,2.15277)"> 
 <g> 
 <g stroke-dasharray="none" stroke-dashoffset="0.0pt"> 
 <path d=" M  0.71997 0.0 C  0.71997 1.19873 -0.24121 2.15991 -1.43994 2.15991 C  -2.63867 2.15991 -3.59985 1.19873 -3.59985 0.0 C  -3.59985 -1.19873 -2.63867 -2.15991 -1.43994 -2.15991 C  -0.24121 -2.15991 0.71997 -1.19873 0.71997 0.0 Z M  -1.43994 0.0  " /> 
 </g> 
 </g> 
 </g> 
 </g> 
 </g> 
 </g> 
 </g> 
 </g> 
 </g> 
 </g> 
  </g> 
</svg> 
