<svg xmlns="http://www.w3.org/2000/svg" xmlns:xlink="http://www.w3.org/1999/xlink" width="41.38083pt" height="41.38083pt" viewBox="-13.86028 -8.86028 41.38083 41.38083 "> 
<g transform="translate(0, 32.52055 ) scale(1,-1) translate(0,8.86028 )"> 
            <g> 
 <g stroke="rgb(0.0%,0.0%,0.0%)"> 
 <g fill="rgb(0.0%,0.0%,0.0%)"> 
 <g stroke-width="0.4pt"> 
 <g> 
 </g> 
 <g> 
 <g fill-rule="evenodd"> 
 <g> 
 <g fill="rgb(80.0003%,80.0003%,16.00037%)"> 
 <path d=" M  0.0 0.0 M  0.0 2.0 L  0.0 8.0 C  0.0 9.10999 0.89001 10.0 2.0 10.0 L  8.0 10.0 C  9.10999 10.0 10.0 9.10999 10.0 8.0 L  10.0 2.0 C  10.0 0.89001 9.10999 0.0 8.0 0.0 L  2.0 0.0 C  0.89001 0.0 0.0 0.89001 0.0 2.0 Z M  10.0 10.0 M  5.0 5.0 M  5.0 7.0 L  5.0 13.0 C  5.0 14.10999 5.89001 15.0 7.0 15.0 L  13.0 15.0 C  14.10999 15.0 15.0 14.10999 15.0 13.0 L  15.0 7.0 C  15.0 5.89001 14.10999 5.0 13.0 5.0 L  7.0 5.0 C  5.89001 5.0 5.0 5.89001 5.0 7.0 Z M  15.0 15.0 M  1.33972 -8.66028 M  0.33658 -6.92273 L  -12.65714 15.58301 C  -13.21387 16.54733 -12.88705 17.76697 -11.92273 18.3237 L  10.58301 31.31741 C  11.54733 31.87415 12.76697 31.54733 13.3237 30.58301 L  26.31741 8.07727 C  26.87415 7.11295 26.54733 5.89331 25.58301 5.33658 L  3.07727 -7.65714 C  2.11295 -8.21387 0.89331 -7.88705 0.33658 -6.92273 Z M  12.32056 32.32056  " /> 
 </g> 
 </g> 
 </g> 
 </g> 
 </g> 
 </g> 
 </g> 
 </g> 
 
            </g> 
</svg> 
