<svg xmlns="http://www.w3.org/2000/svg" xmlns:xlink="http://www.w3.org/1999/xlink" width="88.1847pt" height="98.57181pt" viewBox="-31.75586 -92.16344 88.1847 98.57181 "> 
<g transform="translate(0, 6.40837 ) scale(1,-1) translate(0,92.16344 )"> 
                  <g> 
 <g stroke="rgb(0.0%,0.0%,0.0%)"> 
 <g fill="rgb(0.0%,0.0%,0.0%)"> 
 <g stroke-width="0.4pt"> 
 <g> 
 </g> 
 <g> 
 <g> 
 <g fill="rgb(100.0%,69.9997%,69.9997%)"> 
 <g> 
 <g fill="rgb(100.0%,69.9997%,69.9997%)"> 
 <path d=" M  8.37466 6.40837 L  -8.37466 6.40837 C  -10.59464 6.40837 -12.37466 4.62834 -12.37466 2.40837 L  -12.37466 -2.40837 C  -12.37466 -4.62834 -10.59464 -6.40837 -8.37466 -6.40837 L  8.37466 -6.40837 C  10.59464 -6.40837 12.37466 -4.62834 12.37466 -2.40837 L  12.37466 2.40837 C  12.37466 4.62834 10.59464 6.40837 8.37466 6.40837 Z M  -12.37466 -6.40837  " style="stroke:none"/> 
 </g> 
 </g> 
 <g> 
 <g transform="matrix(1.0,0.0,0.0,1.0,-9.04169,-3.0754)"> 
 <g fill="rgb(0.0%,0.0%,0.0%)"> 
 <text style="stroke:none" transform="scale(1,-1) translate(9.04169,0)" text-anchor="middle"  font-size="10"> 
root</text> 
</g> 
 </g> 
 </g> 
 </g> 
 </g> 
 <g> 
 <g> 
 <g fill="rgb(100.0%,69.9997%,69.9997%)"> 
 <g> 
 <g fill="rgb(100.0%,69.9997%,69.9997%)"> 
 <path d=" M  -14.92322 -35.87393 L  -27.75586 -35.87393 C  -29.97583 -35.87393 -31.75586 -37.65396 -31.75586 -39.87393 L  -31.75586 -45.48431 C  -31.75586 -47.70428 -29.97583 -49.48431 -27.75586 -49.48431 L  -14.92322 -49.48431 C  -12.70325 -49.48431 -10.92322 -47.70428 -10.92322 -45.48431 L  -10.92322 -39.87393 C  -10.92322 -37.65396 -12.70325 -35.87393 -14.92322 -35.87393 Z M  -31.75586 -49.48431  " style="stroke:none"/> 
 </g> 
 </g> 
 <g> 
 <g transform="matrix(1.0,0.0,0.0,1.0,-28.42288,-46.15134)"> 
 <g fill="rgb(0.0%,0.0%,0.0%)"> 
 <text style="stroke:none" transform="scale(1,-1) translate(7.08334,0)" text-anchor="middle"  font-size="10"> 
left</text> 
</g> 
 </g> 
 </g> 
 </g> 
 </g> 
 <g> 
 <g stroke="rgb(100.0%,0.0%,0.0%)"> 
 <g fill="rgb(100.0%,0.0%,0.0%)"> 
 <g stroke-width="0.8pt"> 
 <path d=" M  0.0 -6.60837 L  0.0 -21.33955 L  -21.33954 -21.33955 L  -21.33954 -30.2341  " style="fill:none"/> 
 <g> 
 <g transform="matrix(0.0,-1.0,1.0,0.0,-21.33954,-30.2341)"> 
 <g> 
 <g stroke-dasharray="none" stroke-dashoffset="0.0pt"> 
 <path d=" M  5.03983 0.0 C  5.03983 1.39853 3.91844 2.51991 2.51991 2.51991 C  1.12138 2.51991 0.0 1.39853 0.0 0.0 C  0.0 -1.39853 1.12138 -2.51991 2.51991 -2.51991 C  3.91844 -2.51991 5.03983 -1.39853 5.03983 0.0 Z M  2.51991 0.0  " style="fill:none"/> 
 </g> 
 </g> 
 </g> 
 </g> 
 </g> 
 </g> 
 </g> 
 </g> 
 </g> 
 <g> 
 <g> 
 <g fill="rgb(100.0%,69.9997%,69.9997%)"> 
 <g> 
 <g fill="rgb(100.0%,69.9997%,69.9997%)"> 
 <path d=" M  31.10313 -34.9017 L  11.57603 -34.9017 C  9.35606 -34.9017 7.57603 -36.68173 7.57603 -38.9017 L  7.57603 -46.45654 C  7.57603 -48.67651 9.35606 -50.45654 11.57603 -50.45654 L  31.10313 -50.45654 C  33.3231 -50.45654 35.10313 -48.67651 35.10313 -46.45654 L  35.10313 -38.9017 C  35.10313 -36.68173 33.3231 -34.9017 31.10313 -34.9017 Z M  7.57603 -48.5121  " style="stroke:none"/> 
 </g> 
 </g> 
 <g> 
 <g transform="matrix(1.0,0.0,0.0,1.0,10.90901,-45.17912)"> 
 <g fill="rgb(0.0%,0.0%,0.0%)"> 
 <text style="stroke:none" transform="scale(1,-1) translate(10.43057,0)" text-anchor="middle"  font-size="10"> 
right</text> 
</g> 
 </g> 
 </g> 
 </g> 
 </g> 
 <g> 
 <g stroke="rgb(100.0%,0.0%,0.0%)"> 
 <g fill="rgb(100.0%,0.0%,0.0%)"> 
 <g stroke-width="0.8pt"> 
 <path d=" M  21.33958 -42.67912 M  0.0 -6.60837 L  0.0 -21.33955 L  21.33958 -21.33955 L  21.33958 -29.26187  " style="fill:none"/> 
 <g> 
 <g transform="matrix(0.0,-1.0,1.0,0.0,21.33958,-29.26187)"> 
 <g> 
 <g stroke-dasharray="none" stroke-dashoffset="0.0pt"> 
 <path d=" M  5.03983 0.0 C  5.03983 1.39853 3.91844 2.51991 2.51991 2.51991 C  1.12138 2.51991 0.0 1.39853 0.0 0.0 C  0.0 -1.39853 1.12138 -2.51991 2.51991 -2.51991 C  3.91844 -2.51991 5.03983 -1.39853 5.03983 0.0 Z M  2.51991 0.0  " style="fill:none"/> 
 </g> 
 </g> 
 </g> 
 </g> 
 <g> 
 <g> 
 <g fill="rgb(100.0%,69.9997%,69.9997%)"> 
 <g> 
 <g fill="rgb(100.0%,69.9997%,69.9997%)"> 
 <path d=" M  9.74971 -78.55305 L  -9.74962 -78.55305 C  -11.96959 -78.55305 -13.74962 -80.33308 -13.74962 -82.55305 L  -13.74962 -88.16344 C  -13.74962 -90.3834 -11.96959 -92.16344 -9.74962 -92.16344 L  9.74971 -92.16344 C  11.96968 -92.16344 13.74971 -90.3834 13.74971 -88.16344 L  13.74971 -82.55305 C  13.74971 -80.33308 11.96968 -78.55305 9.74971 -78.55305 Z M  -13.74962 -92.16344  " style="stroke:none"/> 
 </g> 
 </g> 
 <g> 
 <g transform="matrix(1.0,0.0,0.0,1.0,-10.41664,-88.83046)"> 
 <g fill="rgb(0.0%,0.0%,0.0%)"> 
 <text style="stroke:none" transform="scale(1,-1) translate(10.41669,0)" text-anchor="middle"  font-size="10"> 
child</text> 
</g> 
 </g> 
 </g> 
 </g> 
 </g> 
 <g> 
 <g stroke="rgb(100.0%,0.0%,0.0%)"> 
 <g fill="rgb(100.0%,0.0%,0.0%)"> 
 <g stroke-width="0.8pt"> 
 <path d=" M  21.33958 -50.65654 L  21.33958 -64.01868 L  0.00005 -64.01868 L  0.00005 -72.91322  " style="fill:none"/> 
 <g> 
 <g transform="matrix(0.0,-1.0,1.0,0.0,0.00005,-72.91322)"> 
 <g> 
 <g stroke-dasharray="none" stroke-dashoffset="0.0pt"> 
 <path d=" M  5.03983 0.0 C  5.03983 1.39853 3.91844 2.51991 2.51991 2.51991 C  1.12138 2.51991 0.0 1.39853 0.0 0.0 C  0.0 -1.39853 1.12138 -2.51991 2.51991 -2.51991 C  3.91844 -2.51991 5.03983 -1.39853 5.03983 0.0 Z M  2.51991 0.0  " style="fill:none"/> 
 </g> 
 </g> 
 </g> 
 </g> 
 </g> 
 </g> 
 </g> 
 </g> 
 </g> 
 <g> 
 <g> 
 <g fill="rgb(100.0%,69.9997%,69.9997%)"> 
 <g> 
 <g fill="rgb(100.0%,69.9997%,69.9997%)"> 
 <path d=" M  52.42883 -78.55305 L  32.9295 -78.55305 C  30.70953 -78.55305 28.9295 -80.33308 28.9295 -82.55305 L  28.9295 -88.16344 C  28.9295 -90.3834 30.70953 -92.16344 32.9295 -92.16344 L  52.42883 -92.16344 C  54.6488 -92.16344 56.42883 -90.3834 56.42883 -88.16344 L  56.42883 -82.55305 C  56.42883 -80.33308 54.6488 -78.55305 52.42883 -78.55305 Z M  28.9295 -92.16344  " style="stroke:none"/> 
 </g> 
 </g> 
 <g> 
 <g transform="matrix(1.0,0.0,0.0,1.0,32.26248,-88.83046)"> 
 <g fill="rgb(0.0%,0.0%,0.0%)"> 
 <text style="stroke:none" transform="scale(1,-1) translate(10.41669,0)" text-anchor="middle"  font-size="10"> 
child</text> 
</g> 
 </g> 
 </g> 
 </g> 
 </g> 
 <g> 
 <g stroke="rgb(100.0%,0.0%,0.0%)"> 
 <g fill="rgb(100.0%,0.0%,0.0%)"> 
 <g stroke-width="0.8pt"> 
 <path d=" M  21.33958 -50.65654 L  21.33958 -64.01868 L  42.67917 -64.01868 L  42.67917 -72.91322  " style="fill:none"/> 
 <g> 
 <g transform="matrix(0.0,-1.0,1.0,0.0,42.67917,-72.91322)"> 
 <g> 
 <g stroke-dasharray="none" stroke-dashoffset="0.0pt"> 
 <path d=" M  5.03983 0.0 C  5.03983 1.39853 3.91844 2.51991 2.51991 2.51991 C  1.12138 2.51991 0.0 1.39853 0.0 0.0 C  0.0 -1.39853 1.12138 -2.51991 2.51991 -2.51991 C  3.91844 -2.51991 5.03983 -1.39853 5.03983 0.0 Z M  2.51991 0.0  " style="fill:none"/> 
 </g> 
 </g> 
 </g> 
 </g> 
 </g> 
 </g> 
 </g> 
 </g> 
 </g> 
 </g> 
 </g> 
 </g> 
 </g> 
 </g> 
 </g> 
 </g> 
 </g> 
 </g> 
 </g> 
 
                          </g> 
</svg> 
