<svg xmlns="http://www.w3.org/2000/svg" xmlns:xlink="http://www.w3.org/1999/xlink" width="85.55821pt" height="73.91771pt" viewBox="-0.09999 -10.51196 85.55821 73.91771 "> 
<g transform="translate(0, 63.40575 ) scale(1,-1) translate(0,10.51196 )"> 
        <g> 
 <g stroke="rgb(0.0%,0.0%,0.0%)"> 
 <g fill="rgb(0.0%,0.0%,0.0%)"> 
 <g stroke-width="0.4pt"> 
 <g> 
 </g> 
 <g> 
 <g> 
 <g stroke="rgb(50.0%,50.0%,50.0%)"> 
 <g fill="rgb(50.0%,50.0%,50.0%)"> 
 <g stroke-width="0.2pt"> 
 <path d=" M  0.0 0.0 M  0.0 0.0 L  85.35823 0.0 M  0.0 28.45274 L  85.35823 28.45274 M  0.0 56.8955 L  85.35823 56.8955 M  0.0 0.0 L  0.0 56.90549 M  28.45274 0.0 L  28.45274 56.90549 M  56.90549 0.0 L  56.90549 56.90549 M  85.34824 0.0 L  85.34824 56.90549  " style="fill:none"/> 
 </g> 
 </g> 
 </g> 
 </g> 
 <path d=" M  28.45274 0.0 M  56.90549 0.0  " style="fill:none"/> 
 <g> 
 <path d=" M  21.36977 -6.74963 h  14.16595 v  13.49927 h  -14.16595 Z  " style="fill:none"/> 
 <g> 
 <g transform="matrix(1.0,0.0,0.0,1.0,24.70274,-3.41666)"> 
 <g fill="rgb(0.0%,0.0%,0.0%)"> 
 <text style="stroke:none" transform="scale(1,-1) translate(3.75,0)" text-anchor="middle"  font-size="10"> 
A</text> 
</g> 
 </g> 
 </g> 
 </g> 
 <g> 
 <path d=" M  46.78104 10.31198 L  46.78104 -10.31197 L  67.02994 -10.31197 L  67.02994 10.31198 Z M  67.02994 -10.31197  " style="fill:none"/> 
 <g> 
 <g transform="matrix(0.0,1.5,-1.5,0.0,62.03047,-5.3125)"> 
 <g fill="rgb(0.0%,0.0%,0.0%)"> 
 <text style="stroke:none" transform="scale(1,-1) translate(3.54167,0)" text-anchor="middle"  font-size="10"> 
B</text> 
</g> 
 </g> 
 </g> 
 </g> 
 <path d=" M  24.64085 14.22636 M  49.28172 28.45274  " style="fill:none"/> 
 <g> 
 <path d=" M  17.55788 7.47673 h  14.16595 v  13.49927 h  -14.16595 Z  " style="fill:none"/> 
 <g> 
 <g transform="matrix(1.0,0.0,0.0,1.0,20.89085,10.80971)"> 
 <g fill="rgb(0.0%,0.0%,0.0%)"> 
 <text style="stroke:none" transform="scale(1,-1) translate(3.75,0)" text-anchor="middle"  font-size="10"> 
A</text> 
</g> 
 </g> 
 </g> 
 </g> 
 <g> 
 <path d=" M  39.15727 38.76472 L  39.15727 18.14078 L  59.40617 18.14078 L  59.40617 38.76472 Z M  59.40617 18.14078  " style="fill:none"/> 
 <g> 
 <g transform="matrix(0.0,1.5,-1.5,0.0,54.40671,23.14024)"> 
 <g fill="rgb(0.0%,0.0%,0.0%)"> 
 <text style="stroke:none" transform="scale(1,-1) translate(3.54167,0)" text-anchor="middle"  font-size="10"> 
B</text> 
</g> 
 </g> 
 </g> 
 </g> 
 <path d=" M  14.22636 24.64085 M  28.45274 49.28172  " style="fill:none"/> 
 <g> 
 <path d=" M  11.92249 34.14972 L  4.83951 21.88162 L  16.53023 15.13199 L  23.6132 27.40009 Z M  16.53023 15.13199  " style="fill:none"/> 
 <g> 
 <g transform="matrix(0.5,0.86603,-0.86603,0.5,15.31027,19.68492)"> 
 <g fill="rgb(0.0%,0.0%,0.0%)"> 
 <text style="stroke:none" transform="scale(1,-1) translate(3.75,0)" text-anchor="middle"  font-size="10"> 
A</text> 
</g> 
 </g> 
 </g> 
 </g> 
 <g> 
 <path d=" M  14.46005 45.66966 L  32.32095 35.3577 L  42.44539 52.89378 L  24.58449 63.20575 Z M  42.44539 52.89378  " style="fill:none"/> 
 <g> 
 <g transform="matrix(-1.29904,0.75,-0.75,-1.29904,35.616,51.06384)"> 
 <g fill="rgb(0.0%,0.0%,0.0%)"> 
 <text style="stroke:none" transform="scale(1,-1) translate(3.54167,0)" text-anchor="middle"  font-size="10"> 
B</text> 
</g> 
 </g> 
 </g> 
 </g> 
 </g> 
 </g> 
 </g> 
 </g> 
 </g> 
 
                          </g> 
</svg> 
