<svg xmlns="http://www.w3.org/2000/svg" xmlns:xlink="http://www.w3.org/1999/xlink" width="104.6411pt" height="154.7531pt" viewBox="-57.10551 -6.10085 104.6411 154.7531 "> 
<g transform="translate(0, 148.65225 ) scale(1,-1) translate(0,6.10085 )"> 
                         <g> 
 <g stroke="rgb(0.0%,0.0%,0.0%)"> 
 <g fill="rgb(0.0%,0.0%,0.0%)"> 
 <g stroke-width="0.4pt"> 
 <g> 
 </g> 
 <g> 
 <path d=" M  0.0 0.0 C  0.0 56.9055 -56.90552 142.26372 28.45274 142.26372  " style="fill:none"/> 
 <g> 
 <g> 
 <g transform="matrix(1.0,0.0,0.0,1.0,12.70288,139.20816)"> 
 <g fill="rgb(0.0%,0.0%,0.0%)"> 
 <text style="stroke:none" transform="scale(1,-1) translate(15.74986,0)" text-anchor="middle"  font-size="10"> 
<span class="obeylines-h"><span class="verb"><tspan font-family="cmtt" font-size="10">at end</tspan></span></span></text> 
</g> 
 </g> 
 </g> 
 </g> 
 <g> 
 <g> 
 <g transform="matrix(1.0,0.0,0.0,1.0,-31.40167,136.54034)"> 
 <g fill="rgb(0.0%,0.0%,0.0%)"> 
 <text style="stroke:none" transform="scale(1,-1) translate(34.1247,0)" text-anchor="middle"  font-size="10"> 
<span class="obeylines-h"><span class="verb"><tspan font-family="cmtt" font-size="10">very near end</tspan></span></span></text> 
</g> 
 </g> 
 </g> 
 </g> 
 <g> 
 <g> 
 <g transform="matrix(1.0,0.0,0.0,1.0,-33.00333,124.98175)"> 
 <g fill="rgb(0.0%,0.0%,0.0%)"> 
 <text style="stroke:none" transform="scale(1,-1) translate(20.99982,0)" text-anchor="middle"  font-size="10"> 
<span class="obeylines-h"><span class="verb"><tspan font-family="cmtt" font-size="10">near end</tspan></span></span></text> 
</g> 
 </g> 
 </g> 
 </g> 
 <g> 
 <g> 
 <g transform="matrix(1.0,0.0,0.0,1.0,-33.53284,90.52695)"> 
 <g fill="rgb(0.0%,0.0%,0.0%)"> 
 <text style="stroke:none" transform="scale(1,-1) translate(15.74986,0)" text-anchor="middle"  font-size="10"> 
<span class="obeylines-h"><span class="verb"><tspan font-family="cmtt" font-size="10">midway</tspan></span></span></text> 
</g> 
 </g> 
 </g> 
 </g> 
 <g> 
 <g> 
 <g transform="matrix(1.0,0.0,0.0,1.0,-33.80751,43.46782)"> 
 <g fill="rgb(0.0%,0.0%,0.0%)"> 
 <text style="stroke:none" transform="scale(1,-1) translate(26.24977,0)" text-anchor="middle"  font-size="10"> 
<span class="obeylines-h"><span class="verb"><tspan font-family="cmtt" font-size="10">near start</tspan></span></span></text> 
</g> 
 </g> 
 </g> 
 </g> 
 <g> 
 <g> 
 <g transform="matrix(1.0,0.0,0.0,1.0,-41.65308,20.79419)"> 
 <g fill="rgb(0.0%,0.0%,0.0%)"> 
 <text style="stroke:none" transform="scale(1,-1) translate(39.37465,0)" text-anchor="middle"  font-size="10"> 
<span class="obeylines-h"><span class="verb"><tspan font-family="cmtt" font-size="10">very near start</tspan></span></span></text> 
</g> 
 </g> 
 </g> 
 </g> 
 <g> 
 <g> 
 <g transform="matrix(1.0,0.0,0.0,1.0,-20.99982,-2.76787)"> 
 <g fill="rgb(0.0%,0.0%,0.0%)"> 
 <text style="stroke:none" transform="scale(1,-1) translate(20.99982,0)" text-anchor="middle"  font-size="10"> 
<span class="obeylines-h"><span class="verb"><tspan font-family="cmtt" font-size="10">at start</tspan></span></span></text> 
</g> 
 </g> 
 </g> 
 </g> 
 </g> 
 </g> 
 </g> 
 </g> 
 </g> 
  </g> 
</svg> 
