<svg xmlns="http://www.w3.org/2000/svg" xmlns:xlink="http://www.w3.org/1999/xlink" width="85.75826pt" height="57.3055pt" viewBox="-0.2 -0.2 85.75826 57.3055 "> 
<g transform="translate(0, 57.1055 ) scale(1,-1) translate(0,0.2 )"> 
        <g> 
 <g stroke="rgb(0.0%,0.0%,0.0%)"> 
 <g fill="rgb(0.0%,0.0%,0.0%)"> 
 <g stroke-width="0.4pt"> 
 <g> 
 </g> 
 <g> 
 <g> 
 <g stroke="rgb(50.0%,50.0%,50.0%)"> 
 <g fill="rgb(50.0%,50.0%,50.0%)"> 
 <g stroke-width="0.2pt"> 
 <path d=" M  0.0 0.0 M  0.0 0.0 L  85.35823 0.0 M  0.0 28.45274 L  85.35823 28.45274 M  0.0 56.8955 L  85.35823 56.8955 M  0.0 0.0 L  0.0 56.90549 M  28.45274 0.0 L  28.45274 56.90549 M  56.90549 0.0 L  56.90549 56.90549 M  85.34824 0.0 L  85.34824 56.90549  " style="fill:none"/> 
 </g> 
 </g> 
 </g> 
 </g> 
 <path d=" M  71.1319 56.9055 L  14.22636 56.9055 C  6.33084 56.9055 0.0 50.57466 0.0 42.67914 L  0.0 14.22636 C  0.0 6.33084 6.33084 0.0 14.22636 0.0 L  71.1319 0.0 C  79.02742 0.0 85.35826 6.33084 85.35826 14.22636 L  85.35826 42.67914 C  85.35826 50.57466 79.02742 56.9055 71.1319 56.9055 Z M  0.0 0.0  " style="fill:none"/> 
 </g> 
 </g> 
 </g> 
 </g> 
 </g> 
                   </g> 
</svg> 
