<svg xmlns="http://www.w3.org/2000/svg" xmlns:xlink="http://www.w3.org/1999/xlink" width="37.74825pt" height="29.85274pt" viewBox="-4.64775 -0.7 37.74825 29.85274 "> 
<g transform="translate(0, 29.15274 ) scale(1,-1) translate(0,0.7 )"> 
         <g> 
 <g stroke="rgb(0.0%,0.0%,0.0%)"> 
 <g fill="rgb(0.0%,0.0%,0.0%)"> 
 <g stroke-width="0.4pt"> 
 <g> 
 </g> 
 <g> 
 <g> 
 <g stroke-width="1.4pt"> 
 <path d=" M  28.45274 28.45274 C  32.4005 28.45274 32.4005 0.0 28.45274 0.0 C  24.50499 0.0 3.94775 28.45274 0.0 28.45274 C  -3.94775 28.45274 -3.94775 0.0 0.0 0.0 C  3.94775 0.0 24.50499 28.45274 28.45274 28.45274 Z  " style="fill:none"/> 
 <g stroke-width="0.6pt"> 
 <g stroke="rgb(100.0%,100.0%,100.0%)"> 
 <path d=" M  28.45274 28.45274 C  32.4005 28.45274 32.4005 0.0 28.45274 0.0 C  24.50499 0.0 3.94775 28.45274 0.0 28.45274 C  -3.94775 28.45274 -3.94775 0.0 0.0 0.0 C  3.94775 0.0 24.50499 28.45274 28.45274 28.45274 Z  " style="fill:none"/> 
 </g> 
 </g> 
 </g> 
 </g> 
 </g> 
 </g> 
 </g> 
 </g> 
 </g> 
   </g> 
</svg> 
