<svg xmlns="http://www.w3.org/2000/svg" xmlns:xlink="http://www.w3.org/1999/xlink" width="70.93256pt" height="70.40475pt" viewBox="-7.08298 -35.20238 70.93256 70.40475 "> 
<g transform="translate(0, 35.20238 ) scale(1,-1) translate(0,35.20238 )"> 
          <g> 
 <g stroke="rgb(0.0%,0.0%,0.0%)"> 
 <g fill="rgb(0.0%,0.0%,0.0%)"> 
 <g stroke-width="0.4pt"> 
 <g> 
 </g> 
 <g> 
 <g> 
 <g> 
 <g transform="matrix(1.0,0.0,0.0,1.0,-3.75,-3.41666)"> 
 <g fill="rgb(0.0%,0.0%,0.0%)"> 
 <text style="stroke:none" transform="scale(1,-1) translate(3.75,0)" text-anchor="middle"  font-size="10"> 
A</text> 
</g> 
 </g> 
 </g> 
 </g> 
 <g> 
 <g> 
 <g transform="matrix(1.0,0.0,0.0,1.0,53.36382,25.03609)"> 
 <g fill="rgb(0.0%,0.0%,0.0%)"> 
 <text style="stroke:none" transform="scale(1,-1) translate(3.54167,0)" text-anchor="middle"  font-size="10"> 
B</text> 
</g> 
 </g> 
 </g> 
 </g> 
 <g> 
 <g> 
 <g transform="matrix(1.0,0.0,0.0,1.0,53.29437,-31.8694)"> 
 <g fill="rgb(0.0%,0.0%,0.0%)"> 
 <text style="stroke:none" transform="scale(1,-1) translate(3.61111,0)" text-anchor="middle"  font-size="10"> 
C</text> 
</g> 
 </g> 
 </g> 
 </g> 
 <path d=" M  7.28297 3.64125 C  6.41444 6.3096 6.78694 8.98369 8.40059 9.79063 C  10.01424 10.59758 12.37718 9.29143 13.99101 6.99579 C  15.60484 4.70015 15.97766 2.39876 15.10931 1.96452 C  14.24098 1.53029 12.62334 3.20917 11.75482 5.87752 C  10.88657 8.546 11.25906 11.2201 12.87271 12.02704 C  14.48636 12.83398 16.8493 11.52783 18.46313 9.2322 C  20.07697 6.93655 20.44978 4.63516 19.58144 4.20093 C  18.7131 3.7667 17.09546 5.44557 16.22694 8.11392 C  15.35869 10.78241 15.73119 13.4565 17.34483 14.26344 C  18.95848 15.07039 21.32143 13.76424 22.93526 11.4686 C  24.54909 9.17296 24.9219 6.87157 24.05356 6.43733 C  23.18523 6.0031 21.56758 7.68198 20.69907 10.35033 C  19.83081 13.01881 20.20331 15.6929 21.81696 16.49985 C  23.4306 17.3068 25.79355 16.00064 27.40738 13.705 C  29.02121 11.40936 29.39403 9.10797 28.52568 8.67374 C  27.65735 8.2395 26.0397 9.91838 25.17119 12.58673 C  24.30293 15.25522 24.67543 17.9293 26.28908 18.73625 C  27.90273 19.5432 30.26567 18.23705 31.8795 15.9414 C  33.49333 13.64577 33.86615 11.34438 32.9978 10.91014 C  32.12947 10.4759 30.51183 12.15479 29.64331 14.82314 C  28.77505 17.49162 29.14755 20.16571 30.7612 20.97266 C  32.37485 21.7796 34.7378 20.47345 36.35162 18.17781 C  37.96545 15.88217 38.33827 13.58078 37.46992 13.14655 C  36.6016 12.71231 34.98395 14.39119 34.11543 17.05954 C  33.24718 19.72803 33.61967 22.40211 35.23332 23.20906 C  36.84697 24.016 39.20992 22.70985 40.82375 20.41422 C  42.43758 18.11858 42.8104 15.81718 41.94205 15.38295 C  41.07372 14.94872 39.45607 16.6276 38.58755 19.29594 C  37.7193 21.96443 38.0918 24.63852 39.70544 25.44547 C  41.31909 26.25241 43.68204 24.94626 45.29587 22.65062 C  46.9097 20.35498 47.28252 18.05359 46.41417 17.61935 C  45.54584 17.18512 43.92819 18.864 43.05968 21.53235 C  42.19142 24.20084 42.56392 26.87492 44.17757 27.68187 C  45.79121 28.48882 48.15416 27.18266 49.76799 24.88702 L  49.82555 24.9158  " style="fill:none"/> 
 <g> 
 <g stroke="rgb(100.0%,0.0%,0.0%)"> 
 <g fill="rgb(100.0%,0.0%,0.0%)"> 
 <g stroke-width="0.8pt"> 
 <path d=" M  7.28297 -3.64171 C  8.89671 -1.34605 10.26453 0.45773 10.63718 0.2714 C  11.00984 0.08505 10.38733 -2.09142 9.51889 -4.75977 C  8.65045 -7.4281 8.02795 -9.60457 8.4006 -9.79091 C  8.77325 -9.97725 10.14107 -8.17346 11.75482 -5.87782 C  13.36884 -3.5823 14.73665 -1.77852 15.1093 -1.96486 C  15.48196 -2.1512 14.85945 -4.32767 13.99101 -6.99602 C  13.12257 -9.66435 12.50008 -11.84082 12.87273 -12.02716 C  13.24538 -12.2135 14.61319 -10.40971 16.22694 -8.11407 C  17.84096 -5.81856 19.20877 -4.01477 19.58142 -4.20111 C  19.95409 -4.38745 19.33157 -6.56392 18.46313 -9.23227 C  17.5947 -11.9006 16.9722 -14.07707 17.34485 -14.26341 C  17.7175 -14.44975 19.08531 -12.64597 20.69907 -10.35033 C  22.31308 -8.05481 23.6809 -6.25102 24.05354 -6.43736 C  24.42621 -6.6237 23.8037 -8.80017 22.93526 -11.46852 C  22.06682 -14.13686 21.44432 -16.31332 21.81697 -16.49966 C  22.18962 -16.686 23.55743 -14.88222 25.17119 -12.58658 C  26.7852 -10.29106 28.15302 -8.48727 28.52567 -8.67361 C  28.89833 -8.85995 28.27582 -11.03642 27.40738 -13.70477 C  26.53894 -16.37311 25.91644 -18.54958 26.2891 -18.73592 C  26.66174 -18.92226 28.02956 -17.11847 29.64331 -14.82283 C  31.25732 -12.52731 32.62514 -10.72353 32.99779 -10.90987 C  33.37045 -11.0962 32.74794 -13.27267 31.8795 -15.94102 C  31.01106 -18.60936 30.38857 -20.78583 30.76122 -20.97217 C  31.13387 -21.15851 32.50168 -19.35472 34.11543 -17.05908 C  35.72945 -14.76357 37.09726 -12.95978 37.46991 -13.14612 C  37.84258 -13.33246 37.22006 -15.50893 36.35162 -18.17728 C  35.48318 -20.84561 34.86069 -23.02208 35.23334 -23.20842 C  35.60599 -23.39476 36.9738 -21.59097 38.58755 -19.29533 C  40.20157 -16.99982 41.56938 -15.19603 41.94203 -15.38237 C  42.3147 -15.56871 41.69218 -17.74518 40.82375 -20.41353 C  39.9553 -23.08186 39.33281 -25.25833 39.70546 -25.44467 C  40.07811 -25.63101 41.44592 -23.82722 43.05968 -21.53159 C  44.67369 -19.23607 46.0415 -17.43228 46.41415 -17.61862 C  46.78682 -17.80496 46.1643 -19.98143 45.29587 -22.64978 L  49.7561 -24.88008  " style="fill:none"/> 
 </g> 
 </g> 
 </g> 
 </g> 
 </g> 
 </g> 
 </g> 
 </g> 
 </g> 
 
                     </g> 
</svg> 
