<svg xmlns="http://www.w3.org/2000/svg" xmlns:xlink="http://www.w3.org/1999/xlink" width="251.83217pt" height="129.4658pt" viewBox="-28.66635 -15.25484 251.83217 129.4658 "> 
<g transform="translate(0, 114.21097 ) scale(1,-1) translate(0,15.25484 )"> 
                 <g> 
 <g stroke="rgb(0.0%,0.0%,0.0%)"> 
 <g fill="rgb(0.0%,0.0%,0.0%)"> 
 <g stroke-width="0.4pt"> 
 <g> 
 </g> 
 <g> 
 <g> 
 <g stroke-width="0.8pt"> 
 <g stroke="rgb(100.0%,0.0%,0.0%)"> 
 <g fill="rgb(100.0%,0.0%,0.0%)"> 
 <path d=" M  0.0 0.0 L  56.90549 28.45273 C  56.90549 85.35822 113.81097 56.90549 170.71646 56.90549 M  0.0 56.90549 L  113.81097 56.90549 L  56.90549 113.81097 Z  " style="fill:none"/> 
 <g> 
 </g> 
 <g> 
 </g> 
 <g> 
 </g> 
 <g> 
 </g> 
 <g> 
 </g> 
 <g> 
 </g> 
 </g> 
 </g> 
 </g> 
 </g> 
 <path d=" M  0.0 0.0 M  28.45273 14.22635 M  56.90549 28.45273 M  170.71646 56.90549 M  85.35825 85.35822  " style="fill:none"/> 
 <g> 
 <g> 
 <g transform="matrix(1.0,0.0,0.0,1.0,-25.33337,-9.97742)"> 
 <g fill="rgb(0.0%,0.0%,0.0%)"> 
 <text style="stroke:none" transform="scale(1,-1) translate(25.33337,0)" text-anchor="middle"  font-size="10"> 
start part 1</text> 
</g> 
 </g> 
 </g> 
 </g> 
 <g> 
 <g> 
 <g transform="matrix(1.0,0.0,0.0,1.0,31.9857,3.74893)"> 
 <g fill="rgb(0.0%,0.0%,0.0%)"> 
 <text style="stroke:none" transform="scale(1,-1) translate(36.18062,0)" text-anchor="middle"  font-size="10"> 
straight segment</text> 
</g> 
 </g> 
 </g> 
 </g> 
 <g> 
 <g> 
 <g transform="matrix(1.0,0.0,0.0,1.0,60.43846,25.95273)"> 
 <g fill="rgb(0.0%,0.0%,0.0%)"> 
 <text style="stroke:none" transform="scale(1,-1) translate(37.4306,0)" text-anchor="middle"  font-size="10"> 
end first segment</text> 
</g> 
 </g> 
 </g> 
 </g> 
 <g> 
 <g> 
 <g transform="matrix(1.0,0.0,0.0,1.0,174.24944,54.40549)"> 
 <g fill="rgb(0.0%,0.0%,0.0%)"> 
 <text style="stroke:none" transform="scale(1,-1) translate(22.7917,0)" text-anchor="middle"  font-size="10"> 
end part 1</text> 
</g> 
 </g> 
 </g> 
 </g> 
 <g> 
 <g> 
 <g transform="matrix(1.0,0.0,0.0,1.0,88.89122,91.39119)"> 
 <g fill="rgb(0.0%,0.0%,0.0%)"> 
 <text style="stroke:none" transform="scale(1,-1) translate(31.98616,0)" text-anchor="middle"  font-size="10"> 
part 2 (closed)</text> 
</g> 
 </g> 
 </g> 
 </g> 
 </g> 
 </g> 
 </g> 
 </g> 
 </g> 
 
                                                                            </g> 
</svg> 
