<svg xmlns="http://www.w3.org/2000/svg" xmlns:xlink="http://www.w3.org/1999/xlink" width="91.28017pt" height="39.12495pt" viewBox="-13.88855 -28.65274 91.28017 39.12495 "> 
<g transform="translate(0, 10.47221 ) scale(1,-1) translate(0,28.65274 )"> 
            <g> 
 <g stroke="rgb(0.0%,0.0%,0.0%)"> 
 <g fill="rgb(0.0%,0.0%,0.0%)"> 
 <g stroke-width="0.4pt"> 
 <g> 
 </g> 
 <g> 
 <g> 
 <g stroke-width="5.0pt"> 
 <path d=" M  0.0 0.0 M  56.90549 0.0  " style="fill:none"/> 
 <g> 
 <g fill="rgb(80.0003%,80.0003%,16.00037%)"> 
 <g> 
 <g fill="rgb(80.0003%,80.0003%,16.00037%)"> 
 <path d=" M  -13.88855 -6.80519 h  27.7771 v  13.61038 h  -27.7771 Z  " style="stroke:none"/> 
 </g> 
 </g> 
 <g> 
 <g transform="matrix(1.0,0.0,0.0,1.0,-10.55557,-3.47221)"> 
 <g fill="rgb(0.0%,0.0%,0.0%)"> 
 <text style="stroke:none" transform="scale(1,-1) translate(10.55557,0)" text-anchor="middle"  font-size="10"> 
filled</text> 
</g> 
 </g> 
 </g> 
 </g> 
 </g> 
 <g> 
 <path d=" M  38.91936 -7.97221 h  35.97226 v  15.94443 h  -35.97226 Z  " style="fill:none"/> 
 <g> 
 <g transform="matrix(1.0,0.0,0.0,1.0,43.41936,-3.47221)"> 
 <g fill="rgb(0.0%,0.0%,0.0%)"> 
 <text style="stroke:none" transform="scale(1,-1) translate(13.48613,0)" text-anchor="middle"  font-size="10"> 
drawn</text> 
</g> 
 </g> 
 </g> 
 </g> 
 </g> 
 </g> 
 <path d=" M  28.45274 -28.45274 L  7.13103 -7.13205  " style="fill:none"/> 
 <g> 
 <g transform="matrix(-0.7071,0.70709,-0.70709,-0.7071,7.13103,-7.13205)"> 
 <g> 
 <g stroke-width="0.31999pt"> 
 <g stroke-dasharray="none" stroke-dashoffset="0.0pt"> 
 <g stroke-linecap="round"> 
 <g stroke-linejoin="round"> 
 <path d=" M  -1.19998 1.59998 C  -1.09998 0.99998 0.0 0.09999 0.29999 0.0 C  0.0 -0.09999 -1.09998 -0.99998 -1.19998 -1.59998  " style="fill:none"/> 
 </g> 
 </g> 
 </g> 
 </g> 
 </g> 
 </g> 
 </g> 
 <path d=" M  28.45274 -28.45274 L  46.10799 -10.79907  " style="fill:none"/> 
 <g> 
 <g transform="matrix(0.71065,0.71062,-0.71062,0.71065,46.10799,-10.79907)"> 
 <g> 
 <g stroke-width="0.31999pt"> 
 <g stroke-dasharray="none" stroke-dashoffset="0.0pt"> 
 <g stroke-linecap="round"> 
 <g stroke-linejoin="round"> 
 <path d=" M  -1.19998 1.59998 C  -1.09998 0.99998 0.0 0.09999 0.29999 0.0 C  0.0 -0.09999 -1.09998 -0.99998 -1.19998 -1.59998  " style="fill:none"/> 
 </g> 
 </g> 
 </g> 
 </g> 
 </g> 
 </g> 
 </g> 
 </g> 
 </g> 
 </g> 
 </g> 
 </g> 
 
                           </g> 
</svg> 
