<svg xmlns="http://www.w3.org/2000/svg" xmlns:xlink="http://www.w3.org/1999/xlink" width="108.12007pt" height="108.12007pt" viewBox="-11.38092 -11.38092 108.12007 108.12007 "> 
<g transform="translate(0, 96.73915 ) scale(1,-1) translate(0,11.38092 )"> 
           <g> 
 <g stroke="rgb(0.0%,0.0%,0.0%)"> 
 <g fill="rgb(0.0%,0.0%,0.0%)"> 
 <g stroke-width="0.4pt"> 
 <g> 
 </g> 
 <g> 
 <g> 
 <clipPath id="pgfcp69"> <path d=" M  0.0 0.0 M  11.38092 0.0 C  11.38092 6.31631 6.31631 11.38092 0.0 11.38092 C  -6.31631 11.38092 -11.38092 6.31631 -11.38092 0.0 C  -11.38092 -6.31631 -6.31631 -11.38092 0.0 -11.38092 C  6.31631 -11.38092 11.38092 -6.31631 11.38092 0.0 Z M  0.0 0.0  "/> 
</clipPath> 
 <g clip-path="url(#pgfcp69)"> 
 <g transform="matrix(1,0,0,1,0.0,0.0)"> 
 <g transform="matrix(0.45532,0,0,0.45532,0.0,0.0)"> 
 <g transform="matrix(0.0,0.0,0.0,0.0,0.0,0.0)"> 
  <radialGradient id="pgfsh29" fx="0.40001" fy="0.59999" > 
 <stop offset=" 0.0" stop-color=" rgb(100.0%,85.00061%,85.00061%) "/> 
 <stop offset=" 0.18" stop-color=" rgb(100.0%,25.0%,25.0%) "/> 
 <stop offset=" 0.35999" stop-color=" rgb(69.9997%,0.0%,0.0%) "/> 
 <stop offset=" 0.5" stop-color=" rgb(50.0%,0.0%,0.0%) "/> 
 <stop offset=" 1.0" stop-color=" rgb(0.0%,0.0%,0.0%) "/> 
 </radialGradient> 
 <g transform="translate(-50.1875,-50.1875)"> 
 <circle cx="50.1875pt" cy="50.1875pt" r="50.1875pt" style="fill:url(#pgfsh29); stroke:none"/> 
 </g> 
 </g> 
 </g> 
 </g> 
 </g> 
 </g> 
 <g> 
 <clipPath id="pgfcp70"> <path d=" M  0.0 28.45274 M  11.38092 28.45274 C  11.38092 34.76906 6.31631 39.83366 0.0 39.83366 C  -6.31631 39.83366 -11.38092 34.76906 -11.38092 28.45274 C  -11.38092 22.13643 -6.31631 17.07182 0.0 17.07182 C  6.31631 17.07182 11.38092 22.13643 11.38092 28.45274 Z M  0.0 28.45274  "/> 
</clipPath> 
 <g clip-path="url(#pgfcp70)"> 
 <g transform="matrix(1,0,0,1,0.0,28.45273)"> 
 <g transform="matrix(0.45532,0,0,0.45532,0.0,0.0)"> 
 <g transform="matrix(0.0,0.0,0.0,0.0,0.0,0.0)"> 
  <radialGradient id="pgfsh71" fx="0.40001" fy="0.59999" > 
 <stop offset=" 0.0" stop-color=" rgb(92.5003%,92.5003%,85.00061%) "/> 
 <stop offset=" 0.18" stop-color=" rgb(62.5%,62.5%,25.0%) "/> 
 <stop offset=" 0.35999" stop-color=" rgb(35.00061%,35.00061%,0.0%) "/> 
 <stop offset=" 0.5" stop-color=" rgb(25.0%,25.0%,0.0%) "/> 
 <stop offset=" 1.0" stop-color=" rgb(0.0%,0.0%,0.0%) "/> 
 </radialGradient> 
 <g transform="translate(-50.1875,-50.1875)"> 
 <circle cx="50.1875pt" cy="50.1875pt" r="50.1875pt" style="fill:url(#pgfsh71); stroke:none"/> 
 </g> 
 </g> 
 </g> 
 </g> 
 </g> 
 </g> 
 <g> 
 <clipPath id="pgfcp72"> <path d=" M  0.0 56.90549 M  11.38092 56.90549 C  11.38092 63.2218 6.31631 68.2864 0.0 68.2864 C  -6.31631 68.2864 -11.38092 63.2218 -11.38092 56.90549 C  -11.38092 50.58917 -6.31631 45.52457 0.0 45.52457 C  6.31631 45.52457 11.38092 50.58917 11.38092 56.90549 Z M  0.0 56.90549  "/> 
</clipPath> 
 <g clip-path="url(#pgfcp72)"> 
 <g transform="matrix(1,0,0,1,0.0,56.90549)"> 
 <g transform="matrix(0.45532,0,0,0.45532,0.0,0.0)"> 
 <g transform="matrix(0.0,0.0,0.0,0.0,0.0,0.0)"> 
  <radialGradient id="pgfsh73" fx="0.40001" fy="0.59999" > 
 <stop offset=" 0.0" stop-color=" rgb(92.5003%,85.00061%,92.5003%) "/> 
 <stop offset=" 0.18" stop-color=" rgb(62.5%,25.0%,62.5%) "/> 
 <stop offset=" 0.35999" stop-color=" rgb(35.00061%,0.0%,35.00061%) "/> 
 <stop offset=" 0.5" stop-color=" rgb(25.0%,0.0%,25.0%) "/> 
 <stop offset=" 1.0" stop-color=" rgb(0.0%,0.0%,0.0%) "/> 
 </radialGradient> 
 <g transform="translate(-50.1875,-50.1875)"> 
 <circle cx="50.1875pt" cy="50.1875pt" r="50.1875pt" style="fill:url(#pgfsh73); stroke:none"/> 
 </g> 
 </g> 
 </g> 
 </g> 
 </g> 
 </g> 
 <g> 
 <clipPath id="pgfcp74"> <path d=" M  0.0 85.35823 M  11.38092 85.35823 C  11.38092 91.67455 6.31631 96.73915 0.0 96.73915 C  -6.31631 96.73915 -11.38092 91.67455 -11.38092 85.35823 C  -11.38092 79.04192 -6.31631 73.97731 0.0 73.97731 C  6.31631 73.97731 11.38092 79.04192 11.38092 85.35823 Z M  0.0 85.35823  "/> 
</clipPath> 
 <g clip-path="url(#pgfcp74)"> 
 <g transform="matrix(1,0,0,1,0.0,85.35822)"> 
 <g transform="matrix(0.45532,0,0,0.45532,0.0,0.0)"> 
 <g transform="matrix(0.0,0.0,0.0,0.0,0.0,0.0)"> 
  <radialGradient id="pgfsh75" fx="0.40001" fy="0.59999" > 
 <stop offset=" 0.0" stop-color=" rgb(100.0%,92.5003%,85.00061%) "/> 
 <stop offset=" 0.18" stop-color=" rgb(100.0%,62.5%,25.0%) "/> 
 <stop offset=" 0.35999" stop-color=" rgb(69.9997%,35.00061%,0.0%) "/> 
 <stop offset=" 0.5" stop-color=" rgb(50.0%,25.0%,0.0%) "/> 
 <stop offset=" 1.0" stop-color=" rgb(0.0%,0.0%,0.0%) "/> 
 </radialGradient> 
 <g transform="translate(-50.1875,-50.1875)"> 
 <circle cx="50.1875pt" cy="50.1875pt" r="50.1875pt" style="fill:url(#pgfsh75); stroke:none"/> 
 </g> 
 </g> 
 </g> 
 </g> 
 </g> 
 </g> 
 <g> 
 <clipPath id="pgfcp76"> <path d=" M  28.45274 0.0 M  39.83366 0.0 C  39.83366 6.31631 34.76906 11.38092 28.45274 11.38092 C  22.13643 11.38092 17.07182 6.31631 17.07182 0.0 C  17.07182 -6.31631 22.13643 -11.38092 28.45274 -11.38092 C  34.76906 -11.38092 39.83366 -6.31631 39.83366 0.0 Z M  28.45274 0.0  "/> 
</clipPath> 
 <g clip-path="url(#pgfcp76)"> 
 <g transform="matrix(1,0,0,1,28.45273,0.0)"> 
 <g transform="matrix(0.45532,0,0,0.45532,0.0,0.0)"> 
 <g transform="matrix(0.0,0.0,0.0,0.0,0.0,0.0)"> 
  <radialGradient id="pgfsh71" fx="0.40001" fy="0.59999" > 
 <stop offset=" 0.0" stop-color=" rgb(92.5003%,92.5003%,85.00061%) "/> 
 <stop offset=" 0.18" stop-color=" rgb(62.5%,62.5%,25.0%) "/> 
 <stop offset=" 0.35999" stop-color=" rgb(35.00061%,35.00061%,0.0%) "/> 
 <stop offset=" 0.5" stop-color=" rgb(25.0%,25.0%,0.0%) "/> 
 <stop offset=" 1.0" stop-color=" rgb(0.0%,0.0%,0.0%) "/> 
 </radialGradient> 
 <g transform="translate(-50.1875,-50.1875)"> 
 <circle cx="50.1875pt" cy="50.1875pt" r="50.1875pt" style="fill:url(#pgfsh71); stroke:none"/> 
 </g> 
 </g> 
 </g> 
 </g> 
 </g> 
 </g> 
 <g> 
 <clipPath id="pgfcp77"> <path d=" M  28.45274 28.45274 M  39.83366 28.45274 C  39.83366 34.76906 34.76906 39.83366 28.45274 39.83366 C  22.13643 39.83366 17.07182 34.76906 17.07182 28.45274 C  17.07182 22.13643 22.13643 17.07182 28.45274 17.07182 C  34.76906 17.07182 39.83366 22.13643 39.83366 28.45274 Z M  28.45274 28.45274  "/> 
</clipPath> 
 <g clip-path="url(#pgfcp77)"> 
 <g transform="matrix(1,0,0,1,28.45273,28.45273)"> 
 <g transform="matrix(0.45532,0,0,0.45532,0.0,0.0)"> 
 <g transform="matrix(0.0,0.0,0.0,0.0,0.0,0.0)"> 
  <radialGradient id="pgfsh13" fx="0.40001" fy="0.59999" > 
 <stop offset=" 0.0" stop-color=" rgb(85.00061%,100.0%,85.00061%) "/> 
 <stop offset=" 0.18" stop-color=" rgb(25.0%,100.0%,25.0%) "/> 
 <stop offset=" 0.35999" stop-color=" rgb(0.0%,69.9997%,0.0%) "/> 
 <stop offset=" 0.5" stop-color=" rgb(0.0%,50.0%,0.0%) "/> 
 <stop offset=" 1.0" stop-color=" rgb(0.0%,0.0%,0.0%) "/> 
 </radialGradient> 
 <g transform="translate(-50.1875,-50.1875)"> 
 <circle cx="50.1875pt" cy="50.1875pt" r="50.1875pt" style="fill:url(#pgfsh13); stroke:none"/> 
 </g> 
 </g> 
 </g> 
 </g> 
 </g> 
 </g> 
 <g> 
 <clipPath id="pgfcp78"> <path d=" M  28.45274 56.90549 M  39.83366 56.90549 C  39.83366 63.2218 34.76906 68.2864 28.45274 68.2864 C  22.13643 68.2864 17.07182 63.2218 17.07182 56.90549 C  17.07182 50.58917 22.13643 45.52457 28.45274 45.52457 C  34.76906 45.52457 39.83366 50.58917 39.83366 56.90549 Z M  28.45274 56.90549  "/> 
</clipPath> 
 <g clip-path="url(#pgfcp78)"> 
 <g transform="matrix(1,0,0,1,28.45273,56.90549)"> 
 <g transform="matrix(0.45532,0,0,0.45532,0.0,0.0)"> 
 <g transform="matrix(0.0,0.0,0.0,0.0,0.0,0.0)"> 
  <radialGradient id="pgfsh79" fx="0.40001" fy="0.59999" > 
 <stop offset=" 0.0" stop-color=" rgb(85.00061%,92.5003%,92.5003%) "/> 
 <stop offset=" 0.18" stop-color=" rgb(25.0%,62.5%,62.5%) "/> 
 <stop offset=" 0.35999" stop-color=" rgb(0.0%,35.00061%,35.00061%) "/> 
 <stop offset=" 0.5" stop-color=" rgb(0.0%,25.0%,25.0%) "/> 
 <stop offset=" 1.0" stop-color=" rgb(0.0%,0.0%,0.0%) "/> 
 </radialGradient> 
 <g transform="translate(-50.1875,-50.1875)"> 
 <circle cx="50.1875pt" cy="50.1875pt" r="50.1875pt" style="fill:url(#pgfsh79); stroke:none"/> 
 </g> 
 </g> 
 </g> 
 </g> 
 </g> 
 </g> 
 <g> 
 <clipPath id="pgfcp80"> <path d=" M  28.45274 85.35823 M  39.83366 85.35823 C  39.83366 91.67455 34.76906 96.73915 28.45274 96.73915 C  22.13643 96.73915 17.07182 91.67455 17.07182 85.35823 C  17.07182 79.04192 22.13643 73.97731 28.45274 73.97731 C  34.76906 73.97731 39.83366 79.04192 39.83366 85.35823 Z M  28.45274 85.35823  "/> 
</clipPath> 
 <g clip-path="url(#pgfcp80)"> 
 <g transform="matrix(1,0,0,1,28.45273,85.35822)"> 
 <g transform="matrix(0.45532,0,0,0.45532,0.0,0.0)"> 
 <g transform="matrix(0.0,0.0,0.0,0.0,0.0,0.0)"> 
  <radialGradient id="pgfsh81" fx="0.40001" fy="0.59999" > 
 <stop offset=" 0.0" stop-color=" rgb(92.5003%,100.0%,85.00061%) "/> 
 <stop offset=" 0.18" stop-color=" rgb(62.5%,100.0%,25.0%) "/> 
 <stop offset=" 0.35999" stop-color=" rgb(35.00061%,69.9997%,0.0%) "/> 
 <stop offset=" 0.5" stop-color=" rgb(25.0%,50.0%,0.0%) "/> 
 <stop offset=" 1.0" stop-color=" rgb(0.0%,0.0%,0.0%) "/> 
 </radialGradient> 
 <g transform="translate(-50.1875,-50.1875)"> 
 <circle cx="50.1875pt" cy="50.1875pt" r="50.1875pt" style="fill:url(#pgfsh81); stroke:none"/> 
 </g> 
 </g> 
 </g> 
 </g> 
 </g> 
 </g> 
 <g> 
 <clipPath id="pgfcp82"> <path d=" M  56.90549 0.0 M  68.2864 0.0 C  68.2864 6.31631 63.2218 11.38092 56.90549 11.38092 C  50.58917 11.38092 45.52457 6.31631 45.52457 0.0 C  45.52457 -6.31631 50.58917 -11.38092 56.90549 -11.38092 C  63.2218 -11.38092 68.2864 -6.31631 68.2864 0.0 Z M  56.90549 0.0  "/> 
</clipPath> 
 <g clip-path="url(#pgfcp82)"> 
 <g transform="matrix(1,0,0,1,56.90549,0.0)"> 
 <g transform="matrix(0.45532,0,0,0.45532,0.0,0.0)"> 
 <g transform="matrix(0.0,0.0,0.0,0.0,0.0,0.0)"> 
  <radialGradient id="pgfsh73" fx="0.40001" fy="0.59999" > 
 <stop offset=" 0.0" stop-color=" rgb(92.5003%,85.00061%,92.5003%) "/> 
 <stop offset=" 0.18" stop-color=" rgb(62.5%,25.0%,62.5%) "/> 
 <stop offset=" 0.35999" stop-color=" rgb(35.00061%,0.0%,35.00061%) "/> 
 <stop offset=" 0.5" stop-color=" rgb(25.0%,0.0%,25.0%) "/> 
 <stop offset=" 1.0" stop-color=" rgb(0.0%,0.0%,0.0%) "/> 
 </radialGradient> 
 <g transform="translate(-50.1875,-50.1875)"> 
 <circle cx="50.1875pt" cy="50.1875pt" r="50.1875pt" style="fill:url(#pgfsh73); stroke:none"/> 
 </g> 
 </g> 
 </g> 
 </g> 
 </g> 
 </g> 
 <g> 
 <clipPath id="pgfcp83"> <path d=" M  56.90549 28.45274 M  68.2864 28.45274 C  68.2864 34.76906 63.2218 39.83366 56.90549 39.83366 C  50.58917 39.83366 45.52457 34.76906 45.52457 28.45274 C  45.52457 22.13643 50.58917 17.07182 56.90549 17.07182 C  63.2218 17.07182 68.2864 22.13643 68.2864 28.45274 Z M  56.90549 28.45274  "/> 
</clipPath> 
 <g clip-path="url(#pgfcp83)"> 
 <g transform="matrix(1,0,0,1,56.90549,28.45273)"> 
 <g transform="matrix(0.45532,0,0,0.45532,0.0,0.0)"> 
 <g transform="matrix(0.0,0.0,0.0,0.0,0.0,0.0)"> 
  <radialGradient id="pgfsh79" fx="0.40001" fy="0.59999" > 
 <stop offset=" 0.0" stop-color=" rgb(85.00061%,92.5003%,92.5003%) "/> 
 <stop offset=" 0.18" stop-color=" rgb(25.0%,62.5%,62.5%) "/> 
 <stop offset=" 0.35999" stop-color=" rgb(0.0%,35.00061%,35.00061%) "/> 
 <stop offset=" 0.5" stop-color=" rgb(0.0%,25.0%,25.0%) "/> 
 <stop offset=" 1.0" stop-color=" rgb(0.0%,0.0%,0.0%) "/> 
 </radialGradient> 
 <g transform="translate(-50.1875,-50.1875)"> 
 <circle cx="50.1875pt" cy="50.1875pt" r="50.1875pt" style="fill:url(#pgfsh79); stroke:none"/> 
 </g> 
 </g> 
 </g> 
 </g> 
 </g> 
 </g> 
 <g> 
 <clipPath id="pgfcp84"> <path d=" M  56.90549 56.90549 M  68.2864 56.90549 C  68.2864 63.2218 63.2218 68.2864 56.90549 68.2864 C  50.58917 68.2864 45.52457 63.2218 45.52457 56.90549 C  45.52457 50.58917 50.58917 45.52457 56.90549 45.52457 C  63.2218 45.52457 68.2864 50.58917 68.2864 56.90549 Z M  56.90549 56.90549  "/> 
</clipPath> 
 <g clip-path="url(#pgfcp84)"> 
 <g transform="matrix(1,0,0,1,56.90549,56.90549)"> 
 <g transform="matrix(0.45532,0,0,0.45532,0.0,0.0)"> 
 <g transform="matrix(0.0,0.0,0.0,0.0,0.0,0.0)"> 
  <radialGradient id="pgfsh36" fx="0.40001" fy="0.59999" > 
 <stop offset=" 0.0" stop-color=" rgb(85.00061%,85.00061%,100.0%) "/> 
 <stop offset=" 0.18" stop-color=" rgb(25.0%,25.0%,100.0%) "/> 
 <stop offset=" 0.35999" stop-color=" rgb(0.0%,0.0%,69.9997%) "/> 
 <stop offset=" 0.5" stop-color=" rgb(0.0%,0.0%,50.0%) "/> 
 <stop offset=" 1.0" stop-color=" rgb(0.0%,0.0%,0.0%) "/> 
 </radialGradient> 
 <g transform="translate(-50.1875,-50.1875)"> 
 <circle cx="50.1875pt" cy="50.1875pt" r="50.1875pt" style="fill:url(#pgfsh36); stroke:none"/> 
 </g> 
 </g> 
 </g> 
 </g> 
 </g> 
 </g> 
 <g> 
 <clipPath id="pgfcp85"> <path d=" M  56.90549 85.35823 M  68.2864 85.35823 C  68.2864 91.67455 63.2218 96.73915 56.90549 96.73915 C  50.58917 96.73915 45.52457 91.67455 45.52457 85.35823 C  45.52457 79.04192 50.58917 73.97731 56.90549 73.97731 C  63.2218 73.97731 68.2864 79.04192 68.2864 85.35823 Z M  56.90549 85.35823  "/> 
</clipPath> 
 <g clip-path="url(#pgfcp85)"> 
 <g transform="matrix(1,0,0,1,56.90549,85.35822)"> 
 <g transform="matrix(0.45532,0,0,0.45532,0.0,0.0)"> 
 <g transform="matrix(0.0,0.0,0.0,0.0,0.0,0.0)"> 
  <radialGradient id="pgfsh86" fx="0.40001" fy="0.59999" > 
 <stop offset=" 0.0" stop-color=" rgb(92.5003%,92.5003%,92.5003%) "/> 
 <stop offset=" 0.18" stop-color=" rgb(62.5%,62.5%,62.5%) "/> 
 <stop offset=" 0.35999" stop-color=" rgb(35.00061%,35.00061%,35.00061%) "/> 
 <stop offset=" 0.5" stop-color=" rgb(25.0%,25.0%,25.0%) "/> 
 <stop offset=" 1.0" stop-color=" rgb(0.0%,0.0%,0.0%) "/> 
 </radialGradient> 
 <g transform="translate(-50.1875,-50.1875)"> 
 <circle cx="50.1875pt" cy="50.1875pt" r="50.1875pt" style="fill:url(#pgfsh86); stroke:none"/> 
 </g> 
 </g> 
 </g> 
 </g> 
 </g> 
 </g> 
 <g> 
 <clipPath id="pgfcp87"> <path d=" M  85.35823 0.0 M  96.73915 0.0 C  96.73915 6.31631 91.67455 11.38092 85.35823 11.38092 C  79.04192 11.38092 73.97731 6.31631 73.97731 0.0 C  73.97731 -6.31631 79.04192 -11.38092 85.35823 -11.38092 C  91.67455 -11.38092 96.73915 -6.31631 96.73915 0.0 Z M  85.35823 0.0  "/> 
</clipPath> 
 <g clip-path="url(#pgfcp87)"> 
 <g transform="matrix(1,0,0,1,85.35822,0.0)"> 
 <g transform="matrix(0.45532,0,0,0.45532,0.0,0.0)"> 
 <g transform="matrix(0.0,0.0,0.0,0.0,0.0,0.0)"> 
  <radialGradient id="pgfsh75" fx="0.40001" fy="0.59999" > 
 <stop offset=" 0.0" stop-color=" rgb(100.0%,92.5003%,85.00061%) "/> 
 <stop offset=" 0.18" stop-color=" rgb(100.0%,62.5%,25.0%) "/> 
 <stop offset=" 0.35999" stop-color=" rgb(69.9997%,35.00061%,0.0%) "/> 
 <stop offset=" 0.5" stop-color=" rgb(50.0%,25.0%,0.0%) "/> 
 <stop offset=" 1.0" stop-color=" rgb(0.0%,0.0%,0.0%) "/> 
 </radialGradient> 
 <g transform="translate(-50.1875,-50.1875)"> 
 <circle cx="50.1875pt" cy="50.1875pt" r="50.1875pt" style="fill:url(#pgfsh75); stroke:none"/> 
 </g> 
 </g> 
 </g> 
 </g> 
 </g> 
 </g> 
 <g> 
 <clipPath id="pgfcp88"> <path d=" M  85.35823 28.45274 M  96.73915 28.45274 C  96.73915 34.76906 91.67455 39.83366 85.35823 39.83366 C  79.04192 39.83366 73.97731 34.76906 73.97731 28.45274 C  73.97731 22.13643 79.04192 17.07182 85.35823 17.07182 C  91.67455 17.07182 96.73915 22.13643 96.73915 28.45274 Z M  85.35823 28.45274  "/> 
</clipPath> 
 <g clip-path="url(#pgfcp88)"> 
 <g transform="matrix(1,0,0,1,85.35822,28.45273)"> 
 <g transform="matrix(0.45532,0,0,0.45532,0.0,0.0)"> 
 <g transform="matrix(0.0,0.0,0.0,0.0,0.0,0.0)"> 
  <radialGradient id="pgfsh81" fx="0.40001" fy="0.59999" > 
 <stop offset=" 0.0" stop-color=" rgb(92.5003%,100.0%,85.00061%) "/> 
 <stop offset=" 0.18" stop-color=" rgb(62.5%,100.0%,25.0%) "/> 
 <stop offset=" 0.35999" stop-color=" rgb(35.00061%,69.9997%,0.0%) "/> 
 <stop offset=" 0.5" stop-color=" rgb(25.0%,50.0%,0.0%) "/> 
 <stop offset=" 1.0" stop-color=" rgb(0.0%,0.0%,0.0%) "/> 
 </radialGradient> 
 <g transform="translate(-50.1875,-50.1875)"> 
 <circle cx="50.1875pt" cy="50.1875pt" r="50.1875pt" style="fill:url(#pgfsh81); stroke:none"/> 
 </g> 
 </g> 
 </g> 
 </g> 
 </g> 
 </g> 
 <g> 
 <clipPath id="pgfcp89"> <path d=" M  85.35823 56.90549 M  96.73915 56.90549 C  96.73915 63.2218 91.67455 68.2864 85.35823 68.2864 C  79.04192 68.2864 73.97731 63.2218 73.97731 56.90549 C  73.97731 50.58917 79.04192 45.52457 85.35823 45.52457 C  91.67455 45.52457 96.73915 50.58917 96.73915 56.90549 Z M  85.35823 56.90549  "/> 
</clipPath> 
 <g clip-path="url(#pgfcp89)"> 
 <g transform="matrix(1,0,0,1,85.35822,56.90549)"> 
 <g transform="matrix(0.45532,0,0,0.45532,0.0,0.0)"> 
 <g transform="matrix(0.0,0.0,0.0,0.0,0.0,0.0)"> 
  <radialGradient id="pgfsh86" fx="0.40001" fy="0.59999" > 
 <stop offset=" 0.0" stop-color=" rgb(92.5003%,92.5003%,92.5003%) "/> 
 <stop offset=" 0.18" stop-color=" rgb(62.5%,62.5%,62.5%) "/> 
 <stop offset=" 0.35999" stop-color=" rgb(35.00061%,35.00061%,35.00061%) "/> 
 <stop offset=" 0.5" stop-color=" rgb(25.0%,25.0%,25.0%) "/> 
 <stop offset=" 1.0" stop-color=" rgb(0.0%,0.0%,0.0%) "/> 
 </radialGradient> 
 <g transform="translate(-50.1875,-50.1875)"> 
 <circle cx="50.1875pt" cy="50.1875pt" r="50.1875pt" style="fill:url(#pgfsh86); stroke:none"/> 
 </g> 
 </g> 
 </g> 
 </g> 
 </g> 
 </g> 
 <g> 
 <clipPath id="pgfcp90"> <path d=" M  85.35823 85.35823 M  96.73915 85.35823 C  96.73915 91.67455 91.67455 96.73915 85.35823 96.73915 C  79.04192 96.73915 73.97731 91.67455 73.97731 85.35823 C  73.97731 79.04192 79.04192 73.97731 85.35823 73.97731 C  91.67455 73.97731 96.73915 79.04192 96.73915 85.35823 Z M  85.35823 85.35823  "/> 
</clipPath> 
 <g clip-path="url(#pgfcp90)"> 
 <g transform="matrix(1,0,0,1,85.35822,85.35822)"> 
 <g transform="matrix(0.45532,0,0,0.45532,0.0,0.0)"> 
 <g transform="matrix(0.0,0.0,0.0,0.0,0.0,0.0)"> 
  <radialGradient id="pgfsh91" fx="0.40001" fy="0.59999" > 
 <stop offset=" 0.0" stop-color=" rgb(100.0%,100.0%,85.00061%) "/> 
 <stop offset=" 0.18" stop-color=" rgb(100.0%,100.0%,25.0%) "/> 
 <stop offset=" 0.35999" stop-color=" rgb(69.9997%,69.9997%,0.0%) "/> 
 <stop offset=" 0.5" stop-color=" rgb(50.0%,50.0%,0.0%) "/> 
 <stop offset=" 1.0" stop-color=" rgb(0.0%,0.0%,0.0%) "/> 
 </radialGradient> 
 <g transform="translate(-50.1875,-50.1875)"> 
 <circle cx="50.1875pt" cy="50.1875pt" r="50.1875pt" style="fill:url(#pgfsh91); stroke:none"/> 
 </g> 
 </g> 
 </g> 
 </g> 
 </g> 
 </g> 
 </g> 
 </g> 
 </g> 
 </g> 
 </g> 
 
                                </g> 
</svg> 
