<svg xmlns="http://www.w3.org/2000/svg" xmlns:xlink="http://www.w3.org/1999/xlink" width="28.45274pt" height="10.76385pt" viewBox="0.0 -2.15277 28.45274 10.76385 "> 
<g transform="translate(0, 8.61108 ) scale(1,-1) translate(0,2.15277 )"> 
        <g> 
 <g stroke="rgb(0.0%,0.0%,0.0%)"> 
 <g fill="rgb(0.0%,0.0%,0.0%)"> 
 <g stroke-width="0.4pt"> 
 <g> 
 </g> 
 <g> 
 <g stroke-width="0.4pt"> 
 <path d=" M  4.51982 2.15277 L  23.93292 2.15277  " style="fill:none"/> 
 <g> 
 <g transform="matrix(-1.0,0.0,0.0,-1.0,4.51982,2.15277)"> 
 <g> 
 <g stroke-dasharray="none" stroke-dashoffset="0.0pt"> 
 <path d=" M  4.31982 0.0 C  4.31982 1.19873 3.35864 2.15991 2.15991 2.15991 C  0.96118 2.15991 0.0 1.19873 0.0 0.0 C  0.0 -1.19873 0.96118 -2.15991 2.15991 -2.15991 C  3.35864 -2.15991 4.31982 -1.19873 4.31982 0.0 Z M  2.15991 0.0  " style="fill:none"/> 
 </g> 
 </g> 
 </g> 
 </g> 
 <g> 
 <g transform="matrix(1.0,0.0,0.0,1.0,23.93292,2.15277)"> 
 <g> 
 <g stroke-dasharray="none" stroke-dashoffset="0.0pt"> 
 <path d=" M  4.31982 0.0 C  4.31982 1.19873 3.35864 2.15991 2.15991 2.15991 C  0.96118 2.15991 0.0 1.19873 0.0 0.0 C  0.0 -1.19873 0.96118 -2.15991 2.15991 -2.15991 C  3.35864 -2.15991 4.31982 -1.19873 4.31982 0.0 Z M  2.15991 0.0  " style="fill:none"/> 
 </g> 
 </g> 
 </g> 
 </g> 
 </g> 
 </g> 
 </g> 
 </g> 
 </g> 
 </g> 
  </g> 
</svg> 
