<svg xmlns="http://www.w3.org/2000/svg" xmlns:xlink="http://www.w3.org/1999/xlink" width="448.1307pt" height="56.90549pt" viewBox="-49.7923 -28.45274 448.1307 56.90549 "> 
<g transform="translate(0, 28.45274 ) scale(1,-1) translate(0,28.45274 )"> 
                       <g> 
 <g stroke="rgb(0.0%,0.0%,0.0%)"> 
 <g fill="rgb(0.0%,0.0%,0.0%)"> 
 <g stroke-width="0.4pt"> 
 <g> 
 </g> 
 <g> 
 <g stroke-width="5.0pt"> 
 <g> 
 <g transform="matrix(3.0,0.0,0.0,1.0,0.0,0.0)"> 
 <g transform="matrix(1.0,0.0,0.0,0.5,0.0,0.0)"> 
 <path d=" M  0.0 0.0 M  14.22636 0.0 C  14.22636 7.89552 7.89552 14.22636 0.0 14.22636 C  -7.89552 14.22636 -14.22636 7.89552 -14.22636 0.0 C  -14.22636 -7.89552 -7.89552 -14.22636 0.0 -14.22636 C  7.89552 -14.22636 14.22636 -7.89552 14.22636 0.0 Z M  0.0 0.0  " style="fill:none"/> 
 <path d=" M  15.6491 0.0  " style="fill:none"/> 
 <g> 
 <g> 
 <g transform="matrix(1.0,0.0,0.0,1.0,21.48207,-2.15277)"> 
 <g fill="rgb(0.0%,0.0%,0.0%)"> 
 <text style="stroke:none" transform="scale(1,-1) translate(14.19447,0)" text-anchor="middle"  font-size="10"> 
canvas</text> 
</g> 
 </g> 
 </g> 
 </g> 
 </g> 
 </g> 
 </g> 
 <g> 
 <path d=" M  256.0748 0.0 M  298.75389 0.0 C  298.75389 3.94775 279.76137 7.11317 256.0748 7.11317 C  232.38823 7.11317 213.3957 3.94775 213.3957 0.0 C  213.3957 -3.94775 232.38823 -7.11317 256.0748 -7.11317 C  279.76137 -7.11317 298.75389 -3.94775 298.75389 0.0 Z M  256.0748 0.0  " style="fill:none"/> 
 <path d=" M  303.02208 0.0  " style="fill:none"/> 
 <g> 
 <g> 
 <g transform="matrix(1.0,0.0,0.0,1.0,308.85506,-3.47221)"> 
 <g fill="rgb(0.0%,0.0%,0.0%)"> 
 <text style="stroke:none" transform="scale(1,-1) translate(22.9306,0)" text-anchor="middle"  font-size="10"> 
coordinate</text> 
</g> 
 </g> 
 </g> 
 </g> 
 </g> 
 </g> 
 </g> 
 </g> 
 </g> 
 </g> 
 </g> 
 
                                                                                                                                      </g> 
</svg> 
