<svg xmlns="http://www.w3.org/2000/svg" xmlns:xlink="http://www.w3.org/1999/xlink" width="85.65822pt" height="57.99251pt" viewBox="-0.2 -0.2 85.65822 57.99251 "> 
<g transform="translate(0, 57.79251 ) scale(1,-1) translate(0,0.2 )"> 
        <g> 
 <g stroke="rgb(0.0%,0.0%,0.0%)"> 
 <g fill="rgb(0.0%,0.0%,0.0%)"> 
 <g stroke-width="0.4pt"> 
 <g> 
 </g> 
 <g> 
 <g> 
 <g stroke="rgb(50.0%,50.0%,50.0%)"> 
 <g fill="rgb(50.0%,50.0%,50.0%)"> 
 <g stroke-width="0.2pt"> 
 <path d=" M  0.0 0.0 M  0.0 0.0 L  85.35823 0.0 M  0.0 28.45274 L  85.35823 28.45274 M  0.0 56.8955 L  85.35823 56.8955 M  0.0 0.0 L  0.0 56.90549 M  28.45274 0.0 L  28.45274 56.90549 M  56.90549 0.0 L  56.90549 56.90549 M  85.34824 0.0 L  85.34824 56.90549  " style="fill:none"/> 
 </g> 
 </g> 
 </g> 
 </g> 
 <path d=" M  0.0 28.45274 M  0.0 28.45274 C  0.1187 29.28366 0.79135 30.03545 1.9784 30.43112 L  39.75288 43.02263 C  40.93993 43.4183 41.6126 44.17009 41.73128 45.00102 C  42.32478 44.40749 43.31398 44.20966 44.50102 44.60533 L  82.27553 57.19684 C  83.46257 57.59251 84.45178 57.39468 85.04527 56.80116  " style="fill:none"/> 
 <path d=" M  0.0 0.0 M  13.50978 4.50325 M  13.50978 4.50325 C  13.62848 5.33417 14.30113 6.08595 15.48817 6.48163 L  39.75287 14.56987 C  40.93991 14.96555 41.61258 15.71733 41.73126 16.54826 C  42.32477 15.95473 43.31396 15.7569 44.501 16.15257 L  68.76572 24.24081 C  69.95276 24.63649 70.94197 24.43866 71.53546 23.84514 M  85.04524 28.34839  " style="fill:none"/> 
 </g> 
 </g> 
 </g> 
 </g> 
 </g> 
                   </g> 
</svg> 
