<svg xmlns="http://www.w3.org/2000/svg" xmlns:xlink="http://www.w3.org/1999/xlink" width="99.28304pt" height="99.28304pt" viewBox="-15.02203 -0.2 99.28304 99.28304 "> 
<g transform="translate(0, 99.08304 ) scale(1,-1) translate(0,0.2 )"> 
             <g> 
 <g stroke="rgb(0.0%,0.0%,0.0%)"> 
 <g fill="rgb(0.0%,0.0%,0.0%)"> 
 <g stroke-width="0.4pt"> 
 <g> 
 </g> 
 <path d=" M  0.0 0.0 L  84.061 14.82204 M  -0.98813 5.60405 L  83.07288 20.42609 M  -1.97626 11.2081 L  82.08475 26.03014 M  -2.96439 16.81215 L  81.09662 31.63419 M  -3.95253 22.4162 L  80.10847 37.23824 M  -4.94066 28.02026 L  79.12035 42.8423 M  -5.92879 33.62431 L  78.13222 48.44635 M  -6.91693 39.22836 L  77.14407 54.0504 M  -7.90506 44.83241 L  76.15594 59.65445 M  -8.89319 50.43648 L  75.16782 65.25851 M  -9.88133 56.04053 L  74.17967 70.86256 M  -10.86946 61.64458 L  73.19154 76.46661 M  -11.85759 67.24863 L  72.20341 82.07066 M  -12.84572 72.85268 L  71.21529 87.67471 M  -13.83386 78.45674 L  70.22714 93.27878 M  -14.82199 84.06079 L  69.23901 98.88283 M  0.0 0.0 L  -14.82204 84.061 M  2.80202 0.49406 L  -12.02002 84.55507 M  5.60403 0.98813 L  -9.218 85.04913 M  8.40605 1.4822 L  -6.41599 85.5432 M  11.20807 1.97626 L  -3.61397 86.03726 M  14.01009 2.47032 L  -0.81195 86.53133 M  16.8121 2.96439 L  1.99007 87.02539 M  19.61412 3.45845 L  4.79208 87.51945 M  22.41614 3.95251 L  7.5941 88.01352 M  25.21817 4.44658 L  10.39613 88.50758 M  28.02019 4.94064 L  13.19815 89.00165 M  30.8222 5.43471 L  16.00017 89.49571 M  33.62422 5.92877 L  18.80219 89.98978 M  36.42624 6.42284 L  21.6042 90.48384 M  39.22826 6.9169 L  24.40622 90.9779 M  42.03027 7.41096 L  27.20824 91.47197 M  44.83229 7.90504 L  30.01025 91.96605 M  47.63432 8.39911 L  32.81229 92.46011 M  50.43634 8.89317 L  35.6143 92.95418 M  53.23836 9.38724 L  38.41632 93.44824 M  56.04037 9.8813 L  41.21834 93.9423 M  58.84239 10.37537 L  44.02036 94.43637 M  61.64441 10.86943 L  46.82237 94.93044 M  64.44643 11.3635 L  49.62439 95.4245 M  67.24844 11.85756 L  52.4264 95.91856 M  70.05048 12.35162 L  55.22844 96.41263 M  72.8525 12.84569 L  58.03046 96.9067 M  75.65451 13.33975 L  60.83247 97.40076 M  78.45653 13.83382 L  63.63449 97.89482 M  81.25854 14.32788 L  66.43651 98.38889 M  84.06056 14.82195 L  69.23853 98.88295  " style="fill:none"/> 
 </g> 
 </g> 
 </g> 
 </g> 
                  </g> 
</svg> 
