<svg xmlns="http://www.w3.org/2000/svg" xmlns:xlink="http://www.w3.org/1999/xlink" width="360.12872pt" height="274.32886pt" viewBox="-180.06436 -137.16443 360.12872 274.32886 "> 
<g transform="translate(0,  137.16443 ) scale(1,-1) translate(0,137.16443 )"> 
                                                                        <g> 
 <g stroke="rgb(0.0%,0.0%,0.0%)"> 
 <g fill="rgb(0.0%,0.0%,0.0%)"> 
 <g stroke-width="0.4pt"> 
 <g> 
 </g> 
 <g> 
 <g> 
 <g stroke="rgb(69.9997%,69.9997%,69.9997%)"> 
 <g fill="rgb(69.9997%,69.9997%,69.9997%)"> 
 <g fill="rgb(100.0%,100.0%,69.9997%)"> 
 <g stroke-width="14.22636pt"> 
 <g> 
 <g stroke="rgb(69.9997%,69.9997%,69.9997%)"> 
 <g fill="rgb(69.9997%,69.9997%,69.9997%)"> 
 <g fill="rgb(100.0%,100.0%,69.9997%)"> 
 <g stroke-width="14.22636pt"> 
 <path d=" M  109.19458 0.0 C  109.19458 60.60219 60.60219 109.19458 0.0 109.19458 C  -60.60219 109.19458 -109.19458 60.60219 -109.19458 0.0 C  -109.19458 -60.60219 -60.60219 -109.19458 0.0 -109.19458 C  60.60219 -109.19458 109.19458 -60.60219 109.19458 0.0 Z M  0.0 0.0  " /> 
 </g> 
 </g> 
 </g> 
 </g> 
 </g> 
 <g> 
 <g transform="matrix(1.0,0.0,0.0,1.0,-29.53195,-28.45274)"> 
 <g fill="rgb(69.9997%,69.9997%,69.9997%)"> 
 <text style="stroke:none" transform="scale(1,-1) translate(29.53195,0)" text-anchor="middle"  font-size="24.88"> 
<tspan font-family="cmr" font-size="17">Circle</tspan></text> 
</g> 
 </g> 
 </g> 
 </g> 
 </g> 
 </g> 
 </g> 
 </g> 
 <path d=" M  -82.24208 82.24208  " style="fill:none"/> 
 <g> 
 <path d=" M  -83.6563 80.82787 L  -80.82787 83.6563 M  -83.6563 83.6563 L  -80.82787 80.82787  " style="fill:none"/> 
 </g> 
 <g> 
 <g> 
 <g transform="matrix(1.0,0.0,0.0,1.0,-142.11136,90.63153)"> 
 <g fill="rgb(0.0%,0.0%,0.0%)"> 
 <text style="stroke:none" transform="scale(1,-1) translate(26.03157,0)" text-anchor="middle"  font-size="24.88"> 
<tspan font-family="cmtt" font-size="8">(s.north west)</tspan></text> 
</g> 
 </g> 
 </g> 
 </g> 
 <path d=" M  0.0 116.30775  " style="fill:none"/> 
 <g> 
 <path d=" M  -1.41422 114.89354 L  1.41422 117.72197 M  -1.41422 117.72197 L  1.41422 114.89354  " style="fill:none"/> 
 </g> 
 <g> 
 <g> 
 <g transform="matrix(1.0,0.0,0.0,1.0,-16.73457,124.6972)"> 
 <g fill="rgb(0.0%,0.0%,0.0%)"> 
 <text style="stroke:none" transform="scale(1,-1) translate(16.73457,0)" text-anchor="middle"  font-size="24.88"> 
<tspan font-family="cmtt" font-size="8">(s.north)</tspan></text> 
</g> 
 </g> 
 </g> 
 </g> 
 <path d=" M  82.24208 82.24208  " style="fill:none"/> 
 <g> 
 <path d=" M  80.82787 80.82787 L  83.6563 83.6563 M  80.82787 83.6563 L  83.6563 80.82787  " style="fill:none"/> 
 </g> 
 <g> 
 <g> 
 <g transform="matrix(1.0,0.0,0.0,1.0,90.04822,90.63153)"> 
 <g fill="rgb(0.0%,0.0%,0.0%)"> 
 <text style="stroke:none" transform="scale(1,-1) translate(26.03157,0)" text-anchor="middle"  font-size="24.88"> 
<tspan font-family="cmtt" font-size="8">(s.north east)</tspan></text> 
</g> 
 </g> 
 </g> 
 </g> 
 <path d=" M  -116.30775 0.0  " style="fill:none"/> 
 <g> 
 <path d=" M  -117.72197 -1.41422 L  -114.89354 1.41422 M  -117.72197 1.41422 L  -114.89354 -1.41422  " style="fill:none"/> 
 </g> 
 <g> 
 <g> 
 <g transform="matrix(1.0,0.0,0.0,1.0,-153.86426,-2.13889)"> 
 <g fill="rgb(0.0%,0.0%,0.0%)"> 
 <text style="stroke:none" transform="scale(1,-1) translate(14.87518,0)" text-anchor="middle"  font-size="24.88"> 
<tspan font-family="cmtt" font-size="8">(s.west)</tspan></text> 
</g> 
 </g> 
 </g> 
 </g> 
 <path d=" M  0.0 0.0  " style="fill:none"/> 
 <g> 
 <path d=" M  -1.41422 -1.41422 L  1.41422 1.41422 M  -1.41422 1.41422 L  1.41422 -1.41422  " style="fill:none"/> 
 </g> 
 <g> 
 <g> 
 <g transform="matrix(1.0,0.0,0.0,1.0,-18.59398,8.38945)"> 
 <g fill="rgb(0.0%,0.0%,0.0%)"> 
 <text style="stroke:none" transform="scale(1,-1) translate(18.59398,0)" text-anchor="middle"  font-size="24.88"> 
<tspan font-family="cmtt" font-size="8">(s.center)</tspan></text> 
</g> 
 </g> 
 </g> 
 </g> 
 <path d=" M  116.30775 0.0  " style="fill:none"/> 
 <g> 
 <path d=" M  114.89354 -1.41422 L  117.72197 1.41422 M  114.89354 1.41422 L  117.72197 -1.41422  " style="fill:none"/> 
 </g> 
 <g> 
 <g> 
 <g transform="matrix(1.0,0.0,0.0,1.0,124.11389,-2.13889)"> 
 <g fill="rgb(0.0%,0.0%,0.0%)"> 
 <text style="stroke:none" transform="scale(1,-1) translate(14.87518,0)" text-anchor="middle"  font-size="24.88"> 
<tspan font-family="cmtt" font-size="8">(s.east)</tspan></text> 
</g> 
 </g> 
 </g> 
 </g> 
 <path d=" M  -116.30775 -23.09744  " style="fill:none"/> 
 <g> 
 <path d=" M  -117.72197 -24.51166 L  -114.89354 -21.68323 M  -117.72197 -21.68323 L  -114.89354 -24.51166  " style="fill:none"/> 
 </g> 
 <g> 
 <g> 
 <g transform="matrix(1.0,0.0,0.0,1.0,-108.50162,-25.23633)"> 
 <g fill="rgb(0.0%,0.0%,0.0%)"> 
 <text style="stroke:none" transform="scale(1,-1) translate(22.31277,0)" text-anchor="middle"  font-size="24.88"> 
<tspan font-family="cmtt" font-size="8">(s.mid west)</tspan></text> 
</g> 
 </g> 
 </g> 
 </g> 
 <path d=" M  0.0 -23.09744  " style="fill:none"/> 
 <g> 
 <path d=" M  -1.41422 -24.51166 L  1.41422 -21.68323 M  -1.41422 -21.68323 L  1.41422 -24.51166  " style="fill:none"/> 
 </g> 
 <g> 
 <g> 
 <g transform="matrix(1.0,0.0,0.0,1.0,-13.01578,-14.708)"> 
 <g fill="rgb(0.0%,0.0%,0.0%)"> 
 <text style="stroke:none" transform="scale(1,-1) translate(13.01578,0)" text-anchor="middle"  font-size="24.88"> 
<tspan font-family="cmtt" font-size="8">(s.mid)</tspan></text> 
</g> 
 </g> 
 </g> 
 </g> 
 <path d=" M  116.30775 -23.09744  " style="fill:none"/> 
 <g> 
 <path d=" M  114.89354 -24.51166 L  117.72197 -21.68323 M  114.89354 -21.68323 L  117.72197 -24.51166  " style="fill:none"/> 
 </g> 
 <g> 
 <g> 
 <g transform="matrix(1.0,0.0,0.0,1.0,63.87607,-25.23633)"> 
 <g fill="rgb(0.0%,0.0%,0.0%)"> 
 <text style="stroke:none" transform="scale(1,-1) translate(22.31277,0)" text-anchor="middle"  font-size="24.88"> 
<tspan font-family="cmtt" font-size="8">(s.mid east)</tspan></text> 
</g> 
 </g> 
 </g> 
 </g> 
 <path d=" M  -116.30775 -28.45274  " style="fill:none"/> 
 <g> 
 <path d=" M  -117.72197 -29.86696 L  -114.89354 -27.03853 M  -117.72197 -27.03853 L  -114.89354 -29.86696  " style="fill:none"/> 
 </g> 
 <g> 
 <g> 
 <g transform="matrix(1.0,0.0,0.0,1.0,-172.45822,-30.59163)"> 
 <g fill="rgb(0.0%,0.0%,0.0%)"> 
 <text style="stroke:none" transform="scale(1,-1) translate(24.17216,0)" text-anchor="middle"  font-size="24.88"> 
<tspan font-family="cmtt" font-size="8">(s.base west)</tspan></text> 
</g> 
 </g> 
 </g> 
 </g> 
 <path d=" M  0.0 -28.45274  " style="fill:none"/> 
 <g> 
 <path d=" M  -1.41422 -29.86696 L  1.41422 -27.03853 M  -1.41422 -27.03853 L  1.41422 -29.86696  " style="fill:none"/> 
 </g> 
 <g> 
 <g> 
 <g transform="matrix(1.0,0.0,0.0,1.0,-14.87518,-41.11996)"> 
 <g fill="rgb(0.0%,0.0%,0.0%)"> 
 <text style="stroke:none" transform="scale(1,-1) translate(14.87518,0)" text-anchor="middle"  font-size="24.88"> 
<tspan font-family="cmtt" font-size="8">(s.base)</tspan></text> 
</g> 
 </g> 
 </g> 
 </g> 
 <path d=" M  116.30775 -28.45274  " style="fill:none"/> 
 <g> 
 <path d=" M  114.89354 -29.86696 L  117.72197 -27.03853 M  114.89354 -27.03853 L  117.72197 -29.86696  " style="fill:none"/> 
 </g> 
 <g> 
 <g> 
 <g transform="matrix(1.0,0.0,0.0,1.0,124.11389,-30.59163)"> 
 <g fill="rgb(0.0%,0.0%,0.0%)"> 
 <text style="stroke:none" transform="scale(1,-1) translate(24.17216,0)" text-anchor="middle"  font-size="24.88"> 
<tspan font-family="cmtt" font-size="8">(s.base east)</tspan></text> 
</g> 
 </g> 
 </g> 
 </g> 
 <path d=" M  -82.24208 -82.24208  " style="fill:none"/> 
 <g> 
 <path d=" M  -83.6563 -83.6563 L  -80.82787 -80.82787 M  -83.6563 -80.82787 L  -80.82787 -83.6563  " style="fill:none"/> 
 </g> 
 <g> 
 <g> 
 <g transform="matrix(1.0,0.0,0.0,1.0,-142.11136,-94.9093)"> 
 <g fill="rgb(0.0%,0.0%,0.0%)"> 
 <text style="stroke:none" transform="scale(1,-1) translate(26.03157,0)" text-anchor="middle"  font-size="24.88"> 
<tspan font-family="cmtt" font-size="8">(s.south west)</tspan></text> 
</g> 
 </g> 
 </g> 
 </g> 
 <path d=" M  0.0 -116.30775  " style="fill:none"/> 
 <g> 
 <path d=" M  -1.41422 -117.72197 L  1.41422 -114.89354 M  -1.41422 -114.89354 L  1.41422 -117.72197  " style="fill:none"/> 
 </g> 
 <g> 
 <g> 
 <g transform="matrix(1.0,0.0,0.0,1.0,-16.73457,-128.97498)"> 
 <g fill="rgb(0.0%,0.0%,0.0%)"> 
 <text style="stroke:none" transform="scale(1,-1) translate(16.73457,0)" text-anchor="middle"  font-size="24.88"> 
<tspan font-family="cmtt" font-size="8">(s.south)</tspan></text> 
</g> 
 </g> 
 </g> 
 </g> 
 <path d=" M  82.24208 -82.24208  " style="fill:none"/> 
 <g> 
 <path d=" M  80.82787 -83.6563 L  83.6563 -80.82787 M  80.82787 -80.82787 L  83.6563 -83.6563  " style="fill:none"/> 
 </g> 
 <g> 
 <g> 
 <g transform="matrix(1.0,0.0,0.0,1.0,90.04822,-94.9093)"> 
 <g fill="rgb(0.0%,0.0%,0.0%)"> 
 <text style="stroke:none" transform="scale(1,-1) translate(26.03157,0)" text-anchor="middle"  font-size="24.88"> 
<tspan font-family="cmtt" font-size="8">(s.south east)</tspan></text> 
</g> 
 </g> 
 </g> 
 </g> 
 <path d=" M  -29.53195 -28.45274  " style="fill:none"/> 
 <g> 
 <path d=" M  -30.94617 -29.86696 L  -28.11774 -27.03853 M  -30.94617 -27.03853 L  -28.11774 -29.86696  " style="fill:none"/> 
 </g> 
 <g> 
 <g> 
 <g transform="matrix(1.0,0.0,0.0,1.0,-67.08846,-30.59163)"> 
 <g fill="rgb(0.0%,0.0%,0.0%)"> 
 <text style="stroke:none" transform="scale(1,-1) translate(14.87518,0)" text-anchor="middle"  font-size="24.88"> 
<tspan font-family="cmtt" font-size="8">(s.text)</tspan></text> 
</g> 
 </g> 
 </g> 
 </g> 
 <path d=" M  114.66258 20.21754  " style="fill:none"/> 
 <g> 
 <path d=" M  113.24837 18.80333 L  116.0768 21.63176 M  113.24837 21.63176 L  116.0768 18.80333  " style="fill:none"/> 
 </g> 
 <g> 
 <g> 
 <g transform="matrix(1.0,0.0,0.0,1.0,122.46872,18.07866)"> 
 <g fill="rgb(0.0%,0.0%,0.0%)"> 
 <text style="stroke:none" transform="scale(1,-1) translate(11.15639,0)" text-anchor="middle"  font-size="24.88"> 
<tspan font-family="cmtt" font-size="8">(s.10)</tspan></text> 
</g> 
 </g> 
 </g> 
 </g> 
 <path d=" M  -75.10063 89.49712  " style="fill:none"/> 
 <g> 
 <path d=" M  -76.51485 88.0829 L  -73.68642 90.91133 M  -76.51485 90.91133 L  -73.68642 88.0829  " style="fill:none"/> 
 </g> 
 <g> 
 <g> 
 <g transform="matrix(1.0,0.0,0.0,1.0,-88.11641,97.88657)"> 
 <g fill="rgb(0.0%,0.0%,0.0%)"> 
 <text style="stroke:none" transform="scale(1,-1) translate(13.01578,0)" text-anchor="middle"  font-size="24.88"> 
<tspan font-family="cmtt" font-size="8">(s.130)</tspan></text> 
</g> 
 </g> 
 </g> 
 </g> 
 </g> 
 </g> 
 </g> 
 </g> 
 </g> 
 
                                                                                                 </g> 
</svg> 
