<svg xmlns="http://www.w3.org/2000/svg" xmlns:xlink="http://www.w3.org/1999/xlink" width="85.42587pt" height="5.4pt" viewBox="-0.2 -2.7 85.42587 5.4 "> 
<g transform="translate(0, 2.7 ) scale(1,-1) translate(0,2.7 )"> 
        <g> 
 <g stroke="rgb(0.0%,0.0%,0.0%)"> 
 <g fill="rgb(0.0%,0.0%,0.0%)"> 
 <g stroke-width="0.4pt"> 
 <g> 
 </g> 
 <g> 
 <path d=" M  0.0 0.0 L  2.5 2.5 L  5.0 0.0 L  7.5 -2.5 L  10.0 0.0 L  12.5 2.5 L  15.0 0.0 L  17.5 -2.5 L  20.0 0.0 L  22.5 2.5 L  25.0 0.0 L  27.5 -2.5 L  30.0 0.0 L  32.5 2.5 L  35.0 0.0 L  37.5 -2.5 L  40.0 0.0 L  42.5 2.5 L  45.0 0.0 L  47.5 -2.5 L  50.0 0.0 L  52.5 2.5 L  55.0 0.0 L  57.5 -2.5 L  60.0 0.0 L  62.5 2.5 L  65.0 0.0 L  67.5 -2.5 L  70.0 0.0 L  72.5 2.5 L  75.0 0.0 L  77.5 -2.5 L  80.0 0.0 L  82.5 2.5 L  85.0 0.0 L  85.02588 0.0  " style="fill:none"/> 
 </g> 
 </g> 
 </g> 
 </g> 
 </g> 
                   </g> 
</svg> 
