<svg xmlns="http://www.w3.org/2000/svg" xmlns:xlink="http://www.w3.org/1999/xlink" width="85.65822pt" height="78.54503pt" viewBox="-28.65274 -35.76593 85.65822 78.54503 "> 
<g transform="translate(0, 42.7791 ) scale(1,-1) translate(0,35.76593 )"> 
                 <g> 
 <g stroke="rgb(0.0%,0.0%,0.0%)"> 
 <g fill="rgb(0.0%,0.0%,0.0%)"> 
 <g stroke-width="0.4pt"> 
 <g> 
 </g> 
 <g> 
 <g> 
 <g stroke="rgb(50.0%,50.0%,50.0%)"> 
 <g fill="rgb(50.0%,50.0%,50.0%)"> 
 <g stroke-width="0.2pt"> 
 <path d=" M  0.0 0.0 M  0.0 0.0 L  56.90549 0.0 M  0.0 28.45274 L  56.90549 28.45274 M  0.0 0.0 L  0.0 42.67911 M  28.45274 0.0 L  28.45274 42.67911 M  56.8955 0.0 L  56.8955 42.67911  " style="fill:none"/> 
 </g> 
 </g> 
 </g> 
 </g> 
 <path d=" M  28.45274 0.0 C  28.45274 19.73883 15.79106 35.56593 0.0 35.56593 C  -15.79106 35.56593 -28.45274 19.73883 -28.45274 0.0 C  -28.45274 -19.73883 -15.79106 -35.56593 0.0 -35.56593 C  15.79106 -35.56593 28.45274 -19.73883 28.45274 0.0 Z M  0.0 0.0  " style="fill:none"/> 
 <path d=" M  7.0 5.0 C  7.0 6.10999 6.10999 7.0 5.0 7.0 C  3.89001 7.0 3.0 6.10999 3.0 5.0 C  3.0 3.89001 3.89001 3.0 5.0 3.0 C  6.10999 3.0 7.0 3.89001 7.0 5.0 Z M  5.0 5.0 M  -8.0 5.0 C  -8.0 6.10999 -8.89001 7.0 -10.0 7.0 C  -11.10999 7.0 -12.0 6.10999 -12.0 5.0 C  -12.0 3.89001 -11.10999 3.0 -10.0 3.0 C  -8.89001 3.0 -8.0 3.89001 -8.0 5.0 Z M  -10.0 5.0  " style="stroke:none"/> 
 <g stroke="rgb(100.0%,0.0%,0.0%)"> 
 <g fill="rgb(100.0%,0.0%,0.0%)"> 
 <path d=" M  24.32639 22.32639 C  24.32639 23.43637 23.43637 24.32639 22.32639 24.32639 C  21.2164 24.32639 20.32639 23.43637 20.32639 22.32639 C  20.32639 21.2164 21.2164 20.32639 22.32639 20.32639 C  23.43637 20.32639 24.32639 21.2164 24.32639 22.32639 Z M  22.32639 22.32639 M  -24.50816 13.25418 C  -24.50816 14.36417 -25.39818 15.25418 -26.50816 15.25418 C  -27.61815 15.25418 -28.50816 14.36417 -28.50816 13.25418 C  -28.50816 12.1442 -27.61815 11.25418 -26.50816 11.25418 C  -25.39818 11.25418 -24.50816 12.1442 -24.50816 13.25418 Z M  -26.50816 13.25418  " style="stroke:none"/> 
 </g> 
 </g> 
 </g> 
 </g> 
 </g> 
 </g> 
 </g> 
 
                          </g> 
</svg> 
