<svg xmlns="http://www.w3.org/2000/svg" xmlns:xlink="http://www.w3.org/1999/xlink" width="394.90182pt" height="119.46281pt" viewBox="-4.99963 -15.75484 394.90182 119.46281 "> 
<g transform="translate(0, 103.70798 ) scale(1,-1) translate(0,15.75484 )"> 
         <g> 
 <g stroke="rgb(0.0%,0.0%,0.0%)"> 
 <g fill="rgb(0.0%,0.0%,0.0%)"> 
 <g stroke-width="0.4pt"> 
 <g> 
 </g> 
 <g> 
 <path d=" M  50.1875 50.1875  " style="fill:none"/> 
 <g> 
 <g> 
 <g transform="matrix(1.0,0.0,0.0,1.0,-1.66666,0.0)"> 
 <g fill="rgb(0.0%,0.0%,0.0%)"> 
 <text style="stroke:none" transform="scale(1,-1) translate(51.85416,0)" text-anchor="middle"  font-size="10"> 
<object data="pgfmanual-634.svg" width="134.83281 " height="134.83281 " type="image/svg+xml"><p>SVG-Viewer needed.</p></object></text> 
</g> 
 </g> 
 </g> 
 </g> 
 <g> 
 <g stroke="rgb(100.0%,100.0%,100.0%)"> 
 <g fill="rgb(100.0%,100.0%,100.0%)"> 
 <g stroke-width="0.8pt"> 
 <path d=" M  25.09375 25.09375 M  25.09375 25.09375 L  25.09375 75.28125 L  75.28125 75.28125 L  75.28125 25.09375 Z M  75.28125 75.28125  " style="fill:none"/> 
 </g> 
 </g> 
 </g> 
 </g> 
 <path d=" M  50.1875 0.0  " style="fill:none"/> 
 <g> 
 <g> 
 <g transform="matrix(1.0,0.0,0.0,1.0,4.28464,-10.47742)"> 
 <g fill="rgb(0.0%,0.0%,0.0%)"> 
 <text style="stroke:none" transform="scale(1,-1) translate(45.90286,0)" text-anchor="middle"  font-size="10"> 
first two applications</text> 
</g> 
 </g> 
 </g> 
 </g> 
 <g> 
 <path d=" M  192.45128 50.1875  " style="fill:none"/> 
 <g> 
 <g> 
 <g transform="matrix(1.0,0.0,0.0,1.0,140.59712,0.0)"> 
 <g fill="rgb(0.0%,0.0%,0.0%)"> 
 <text style="stroke:none" transform="scale(1,-1) translate(51.85416,0)" text-anchor="middle"  font-size="10"> 
<object data="pgfmanual-635.svg" width="134.83281 " height="134.83281 " type="image/svg+xml"><p>SVG-Viewer needed.</p></object></text> 
</g> 
 </g> 
 </g> 
 </g> 
 <g> 
 <g stroke="rgb(100.0%,100.0%,100.0%)"> 
 <g fill="rgb(100.0%,100.0%,100.0%)"> 
 <g stroke-width="0.8pt"> 
 <path d=" M  192.45128 14.69955 M  192.45128 14.69955 L  156.96332 50.18752 L  192.45128 85.67548 L  227.93924 50.18752 Z M  192.45128 85.67548  " style="fill:none"/> 
 </g> 
 </g> 
 </g> 
 </g> 
 <path d=" M  192.45128 0.0  " style="fill:none"/> 
 <g> 
 <g> 
 <g transform="matrix(1.0,0.0,0.0,1.0,155.77063,-10.47742)"> 
 <g fill="rgb(0.0%,0.0%,0.0%)"> 
 <text style="stroke:none" transform="scale(1,-1) translate(36.68065,0)" text-anchor="middle"  font-size="10"> 
third application</text> 
</g> 
 </g> 
 </g> 
 </g> 
 </g> 
 <g> 
 <path d=" M  334.71506 50.1875  " style="fill:none"/> 
 <g> 
 <g> 
 <g transform="matrix(1.0,0.0,0.0,1.0,282.8609,0.0)"> 
 <g fill="rgb(0.0%,0.0%,0.0%)"> 
 <text style="stroke:none" transform="scale(1,-1) translate(51.85416,0)" text-anchor="middle"  font-size="10"> 
<object data="pgfmanual-636.svg" width="134.83281 " height="134.83281 " type="image/svg+xml"><p>SVG-Viewer needed.</p></object></text> 
</g> 
 </g> 
 </g> 
 </g> 
 <g> 
 <g stroke="rgb(100.0%,100.0%,100.0%)"> 
 <g fill="rgb(100.0%,100.0%,100.0%)"> 
 <g stroke-width="0.8pt"> 
 <path d=" M  334.71506 50.1875 M  359.8088 50.1875 C  359.8088 64.11433 348.64189 75.28125 334.71506 75.28125 C  320.78822 75.28125 309.6213 64.11433 309.6213 50.1875 C  309.6213 36.26067 320.78822 25.09375 334.71506 25.09375 C  348.64189 25.09375 359.8088 36.26067 359.8088 50.1875 Z M  334.71506 50.1875  " style="fill:none"/> 
 </g> 
 </g> 
 </g> 
 </g> 
 <path d=" M  334.71506 0.0  " style="fill:none"/> 
 <g> 
 <g> 
 <g transform="matrix(1.0,0.0,0.0,1.0,295.39551,-10.47742)"> 
 <g fill="rgb(0.0%,0.0%,0.0%)"> 
 <text style="stroke:none" transform="scale(1,-1) translate(39.31955,0)" text-anchor="middle"  font-size="10"> 
fourth application</text> 
</g> 
 </g> 
 </g> 
 </g> 
 </g> 
 </g> 
 </g> 
 </g> 
 </g> 
 </g> 
 
                                                                                                                      </g> 
</svg> 
