<svg xmlns="http://www.w3.org/2000/svg" xmlns:xlink="http://www.w3.org/1999/xlink" width="216.7301pt" height="215.40262pt" viewBox="-99.1179 -107.70131 216.7301 215.40262 "> 
<g transform="translate(0, 107.70131 ) scale(1,-1) translate(0,107.70131 )"> 
                             <g> 
 <g stroke="rgb(0.0%,0.0%,0.0%)"> 
 <g fill="rgb(0.0%,0.0%,0.0%)"> 
 <g stroke-width="0.4pt"> 
 <g> 
 </g> 
 <g> 
 <g stroke-width="1.2pt"> 
 <g stroke-linecap="round"> 
 <g> 
 <path d=" M  6.64648 0.0 C  6.64648 3.68874 3.68874 6.64648 0.0 6.64648 C  -3.68874 6.64648 -6.64648 3.68874 -6.64648 0.0 C  -6.64648 -3.68874 -3.68874 -6.64648 0.0 -6.64648 C  3.68874 -6.64648 6.64648 -3.68874 6.64648 0.0 Z M  0.0 0.0  " style="stroke:none"/> 
 <g> 
 <g transform="matrix(1.0,0.0,0.0,1.0,0.0,0.0)"> 
 <g fill="rgb(0.0%,0.0%,0.0%)"> 
 <text style="stroke:none" transform="scale(1,-1) translate(0.0,0)" text-anchor="middle"  font-size="14.4"> 
</text> 
</g> 
 </g> 
 </g> 
 </g> 
 <g> 
 <g stroke="rgb(100.0%,0.0%,0.0%)"> 
 <g fill="rgb(100.0%,0.0%,0.0%)"> 
 <g> 
 <path d=" M  -11.8478 -32.03313 C  -11.8478 -28.34439 -14.80554 -25.38664 -18.49428 -25.38664 C  -22.18301 -25.38664 -25.14076 -28.34439 -25.14076 -32.03313 C  -25.14076 -35.72186 -22.18301 -38.67961 -18.49428 -38.67961 C  -14.80554 -38.67961 -11.8478 -35.72186 -11.8478 -32.03313 Z M  -18.49428 -32.03313  " style="stroke:none"/> 
 <g> 
 <g transform="matrix(1.0,0.0,0.0,1.0,-18.49428,-32.03313)"> 
 <g fill="rgb(100.0%,0.0%,0.0%)"> 
 <text style="stroke:none" transform="scale(1,-1) translate(0.0,0)" text-anchor="middle"  font-size="14.4"> 
</text> 
</g> 
 </g> 
 </g> 
 </g> 
 <path d=" M  -18.49428 -32.03313 M  -3.63478 -6.29546 M  -4.61101 -8.97757 C  -4.93282 -8.86044 -5.2071 -8.70209 -5.46947 -8.48196 M  -5.58723 -11.65971 C  -6.2309 -11.42543 -6.77942 -11.10875 -7.30415 -10.66847 M  -6.56346 -14.34186 C  -7.529 -13.99042 -8.3517 -13.51544 -9.13884 -12.85498 M  -7.53969 -17.024 C  -8.82709 -16.5554 -9.92401 -15.9221 -10.97353 -15.04149 M  -8.51591 -19.70613 C  -10.12517 -19.12039 -11.49632 -18.32877 -12.80821 -17.22798 M  -9.49214 -22.38828 C  -11.42326 -21.6854 -13.06862 -20.73544 -14.6429 -19.41449 M  -10.46835 -25.07042 C  -12.72134 -24.25038 -14.6409 -23.1421 -16.47757 -21.601 M  -14.82973 -25.6857  " style="fill:none"/> 
 <g> 
 <g stroke="rgb(100.0%,0.0%,0.0%)"> 
 <g fill="rgb(100.0%,0.0%,0.0%)"> 
 <g> 
 <path d=" M  -48.83636 -32.03313 C  -48.83636 -28.34439 -51.79411 -25.38664 -55.48285 -25.38664 C  -59.17159 -25.38664 -62.12933 -28.34439 -62.12933 -32.03313 C  -62.12933 -35.72186 -59.17159 -38.67961 -55.48285 -38.67961 C  -51.79411 -38.67961 -48.83636 -35.72186 -48.83636 -32.03313 Z M  -55.48285 -32.03313  " style="stroke:none"/> 
 <g> 
 <g transform="matrix(1.0,0.0,0.0,1.0,-55.48285,-32.03313)"> 
 <g fill="rgb(100.0%,0.0%,0.0%)"> 
 <text style="stroke:none" transform="scale(1,-1) translate(0.0,0)" text-anchor="middle"  font-size="14.4"> 
</text> 
</g> 
 </g> 
 </g> 
 </g> 
 <path d=" M  -55.48285 -32.03313 M  -25.74075 -32.03313 M  -28.54277 -32.52719 C  -28.60205 -32.19098 -28.60205 -31.87527 -28.54277 -31.53906 M  -31.34479 -33.02126 C  -31.46335 -32.3488 -31.46335 -31.71745 -31.34479 -31.045 M  -34.1468 -33.51532 C  -34.32466 -32.5066 -34.32466 -31.55965 -34.1468 -30.55093 M  -36.94882 -34.00938 C  -37.18596 -32.66443 -37.18596 -31.40182 -36.94882 -30.05687 M  -39.75084 -34.50345 C  -40.04727 -32.82225 -40.04727 -31.244 -39.75084 -29.5628 M  -42.55286 -34.99751 C  -42.90858 -32.98006 -42.90858 -31.0862 -42.55286 -29.06874 M  -45.35487 -35.49158 C  -45.76988 -33.13788 -45.76988 -30.92838 -45.35487 -28.57468 M  -48.14871 -32.03313  " style="fill:none"/> 
 <g> 
 <g stroke="rgb(50.0%,0.0%,0.0%)"> 
 <g fill="rgb(50.0%,0.0%,0.0%)"> 
 <g> 
 <path d=" M  -80.86949 -13.53885 C  -80.86949 -9.85011 -83.82724 -6.89236 -87.51598 -6.89236 C  -91.20471 -6.89236 -94.16246 -9.85011 -94.16246 -13.53885 C  -94.16246 -17.22758 -91.20471 -20.18533 -87.51598 -20.18533 C  -83.82724 -20.18533 -80.86949 -17.22758 -80.86949 -13.53885 Z M  -87.51598 -13.53885  " style="stroke:none"/> 
 <g> 
 <g transform="matrix(1.0,0.0,0.0,1.0,-87.51598,-13.53885)"> 
 <g fill="rgb(50.0%,0.0%,0.0%)"> 
 <text style="stroke:none" transform="scale(1,-1) translate(0.0,0)" text-anchor="middle"  font-size="14.4"> 
</text> 
</g> 
 </g> 
 </g> 
 </g> 
 <path d=" M  -87.51598 -13.53885 M  -61.7783 -28.39836 M  -64.46042 -27.42213 C  -64.34329 -27.10033 -64.18494 -26.82603 -63.96481 -26.56367 M  -67.14256 -26.4459 C  -66.90828 -25.80225 -66.5916 -25.25372 -66.15132 -24.72899 M  -69.8247 -25.46968 C  -69.47327 -24.50414 -68.99829 -23.68144 -68.33783 -22.8943 M  -72.50685 -24.49345 C  -72.03825 -23.20605 -71.40495 -22.10913 -70.52434 -21.05962 M  -75.18898 -23.51723 C  -74.60324 -21.90797 -73.81161 -20.53682 -72.71083 -19.22493 M  -77.87112 -22.541 C  -77.16824 -20.60988 -76.21829 -18.96452 -74.89734 -17.39024 M  -80.55327 -21.56479 C  -79.73323 -19.3118 -78.62495 -17.39224 -77.08385 -15.55557 M  -81.16855 -17.20341  " style="fill:none"/> 
 </g> 
 </g> 
 </g> 
 <g> 
 <g stroke="rgb(75.0%,25.0%,25.0%)"> 
 <g fill="rgb(75.0%,25.0%,25.0%)"> 
 <g> 
 <path d=" M  -85.82494 -32.03313 C  -85.82494 -28.34439 -88.78268 -25.38664 -92.47142 -25.38664 C  -96.16016 -25.38664 -99.1179 -28.34439 -99.1179 -32.03313 C  -99.1179 -35.72186 -96.16016 -38.67961 -92.47142 -38.67961 C  -88.78268 -38.67961 -85.82494 -35.72186 -85.82494 -32.03313 Z M  -92.47142 -32.03313  " style="stroke:none"/> 
 <g> 
 <g transform="matrix(1.0,0.0,0.0,1.0,-92.47142,-32.03313)"> 
 <g fill="rgb(75.0%,25.0%,25.0%)"> 
 <text style="stroke:none" transform="scale(1,-1) translate(0.0,0)" text-anchor="middle"  font-size="14.4"> 
</text> 
</g> 
 </g> 
 </g> 
 </g> 
 <path d=" M  -92.47142 -32.03313 M  -62.72932 -32.03313 M  -65.53134 -32.52719 C  -65.59062 -32.19098 -65.59062 -31.87527 -65.53134 -31.53906 M  -68.33336 -33.02126 C  -68.45192 -32.3488 -68.45192 -31.71745 -68.33336 -31.045 M  -71.13538 -33.51532 C  -71.31323 -32.5066 -71.31323 -31.55965 -71.13538 -30.55093 M  -73.9374 -34.00938 C  -74.17453 -32.66443 -74.17453 -31.40182 -73.9374 -30.05687 M  -76.73941 -34.50345 C  -77.03584 -32.82225 -77.03584 -31.244 -76.73941 -29.5628 M  -79.54143 -34.99751 C  -79.89716 -32.98006 -79.89716 -31.0862 -79.54143 -29.06874 M  -82.34344 -35.49158 C  -82.75845 -33.13788 -82.75845 -30.92838 -82.34344 -28.57468 M  -85.13728 -32.03313  " style="fill:none"/> 
 </g> 
 </g> 
 </g> 
 <g> 
 <g stroke="rgb(100.0%,50.0%,50.0%)"> 
 <g fill="rgb(100.0%,50.0%,50.0%)"> 
 <g> 
 <path d=" M  -80.86949 -50.5274 C  -80.86949 -46.83867 -83.82724 -43.88092 -87.51598 -43.88092 C  -91.20471 -43.88092 -94.16246 -46.83867 -94.16246 -50.5274 C  -94.16246 -54.21614 -91.20471 -57.17389 -87.51598 -57.17389 C  -83.82724 -57.17389 -80.86949 -54.21614 -80.86949 -50.5274 Z M  -87.51598 -50.5274  " style="stroke:none"/> 
 <g> 
 <g transform="matrix(1.0,0.0,0.0,1.0,-87.51598,-50.5274)"> 
 <g fill="rgb(100.0%,50.0%,50.0%)"> 
 <text style="stroke:none" transform="scale(1,-1) translate(0.0,0)" text-anchor="middle"  font-size="14.4"> 
</text> 
</g> 
 </g> 
 </g> 
 </g> 
 <path d=" M  -87.51598 -50.5274 M  -61.7783 -35.66791 M  -63.96481 -37.5026 C  -64.18494 -37.24023 -64.34329 -36.96594 -64.46042 -36.64413 M  -66.15132 -39.33728 C  -66.5916 -38.81255 -66.90828 -38.26402 -67.14256 -37.62036 M  -68.33783 -41.17197 C  -68.99829 -40.38483 -69.47327 -39.56213 -69.8247 -38.59659 M  -70.52434 -43.00665 C  -71.40495 -41.95714 -72.03825 -40.86021 -72.50685 -39.57281 M  -72.71083 -44.84134 C  -73.81161 -43.52945 -74.60324 -42.1583 -75.18898 -40.54904 M  -74.89734 -46.67603 C  -76.21829 -45.10175 -77.16824 -43.45639 -77.87112 -41.52527 M  -77.08385 -48.5107 C  -78.62495 -46.67403 -79.73323 -44.75447 -80.55327 -42.50148 M  -81.16855 -46.86285  " style="fill:none"/> 
 </g> 
 </g> 
 </g> 
 </g> 
 </g> 
 </g> 
 <g> 
 <g stroke="rgb(50.0%,50.0%,0.0%)"> 
 <g fill="rgb(50.0%,50.0%,0.0%)"> 
 <g> 
 <path d=" M  -30.34207 -64.06625 C  -30.34207 -60.37752 -33.29982 -57.41977 -36.98856 -57.41977 C  -40.67729 -57.41977 -43.63504 -60.37752 -43.63504 -64.06625 C  -43.63504 -67.75499 -40.67729 -70.71274 -36.98856 -70.71274 C  -33.29982 -70.71274 -30.34207 -67.75499 -30.34207 -64.06625 Z M  -36.98856 -64.06625  " style="stroke:none"/> 
 <g> 
 <g transform="matrix(1.0,0.0,0.0,1.0,-36.98856,-64.06625)"> 
 <g fill="rgb(50.0%,50.0%,0.0%)"> 
 <text style="stroke:none" transform="scale(1,-1) translate(0.0,0)" text-anchor="middle"  font-size="14.4"> 
</text> 
</g> 
 </g> 
 </g> 
 </g> 
 <path d=" M  -36.98856 -64.06625 M  -22.12906 -38.32858 M  -23.10529 -41.0107 C  -23.4271 -40.89357 -23.70139 -40.73521 -23.96375 -40.51509 M  -24.08151 -43.69284 C  -24.72517 -43.45856 -25.2737 -43.14188 -25.79843 -42.7016 M  -25.05774 -46.37498 C  -26.02328 -46.02354 -26.84598 -45.54857 -27.63312 -44.8881 M  -26.03397 -49.05713 C  -27.32137 -48.58853 -28.41829 -47.95523 -29.4678 -47.07462 M  -27.0102 -51.73926 C  -28.61945 -51.15352 -29.9906 -50.3619 -31.30249 -49.26111 M  -27.98642 -54.4214 C  -29.91754 -53.71852 -31.5629 -52.76857 -33.13718 -51.44762 M  -28.96263 -57.10355 C  -31.21562 -56.28351 -33.13518 -55.17523 -34.97185 -53.63412 M  -33.324 -57.71883  " style="fill:none"/> 
 <g> 
 <g stroke="rgb(25.0%,25.0%,0.0%)"> 
 <g fill="rgb(25.0%,25.0%,0.0%)"> 
 <g> 
 <path d=" M  -62.3752 -82.56053 C  -62.3752 -78.8718 -65.33295 -75.91405 -69.02168 -75.91405 C  -72.71042 -75.91405 -75.66817 -78.8718 -75.66817 -82.56053 C  -75.66817 -86.24927 -72.71042 -89.20702 -69.02168 -89.20702 C  -65.33295 -89.20702 -62.3752 -86.24927 -62.3752 -82.56053 Z M  -69.02168 -82.56053  " style="stroke:none"/> 
 <g> 
 <g transform="matrix(1.0,0.0,0.0,1.0,-69.02168,-82.56053)"> 
 <g fill="rgb(25.0%,25.0%,0.0%)"> 
 <text style="stroke:none" transform="scale(1,-1) translate(0.0,0)" text-anchor="middle"  font-size="14.4"> 
</text> 
</g> 
 </g> 
 </g> 
 </g> 
 <path d=" M  -69.02168 -82.56053 M  -43.28401 -67.70103 M  -45.47052 -69.53572 C  -45.69064 -69.27336 -45.849 -68.99907 -45.96613 -68.67726 M  -47.65703 -71.3704 C  -48.0973 -70.84567 -48.41399 -70.29715 -48.64827 -69.65349 M  -49.84354 -73.2051 C  -50.504 -72.41795 -50.97897 -71.59526 -51.33041 -70.62971 M  -52.03004 -75.03978 C  -52.91066 -73.99026 -53.54396 -72.89334 -54.01256 -71.60594 M  -54.21654 -76.87447 C  -55.31732 -75.56258 -56.10895 -74.19142 -56.69469 -72.58217 M  -56.40305 -78.70915 C  -57.724 -77.13487 -58.67395 -75.48952 -59.37683 -73.5584 M  -58.58955 -80.54382 C  -60.13066 -78.70715 -61.23894 -76.7876 -62.05898 -74.5346 M  -62.67426 -78.89598  " style="fill:none"/> 
 </g> 
 </g> 
 </g> 
 <g> 
 <g stroke="rgb(50.0%,50.0%,25.0%)"> 
 <g fill="rgb(50.0%,50.0%,25.0%)"> 
 <g> 
 <path d=" M  -48.83635 -96.09938 C  -48.83635 -92.41064 -51.7941 -89.4529 -55.48283 -89.4529 C  -59.17157 -89.4529 -62.12932 -92.41064 -62.12932 -96.09938 C  -62.12932 -99.78812 -59.17157 -102.74586 -55.48283 -102.74586 C  -51.7941 -102.74586 -48.83635 -99.78812 -48.83635 -96.09938 Z M  -55.48283 -96.09938  " style="stroke:none"/> 
 <g> 
 <g transform="matrix(1.0,0.0,0.0,1.0,-55.48283,-96.09938)"> 
 <g fill="rgb(50.0%,50.0%,25.0%)"> 
 <text style="stroke:none" transform="scale(1,-1) translate(0.0,0)" text-anchor="middle"  font-size="14.4"> 
</text> 
</g> 
 </g> 
 </g> 
 </g> 
 <path d=" M  -55.48283 -96.09938 M  -40.62334 -70.36171 M  -41.59956 -73.04382 C  -41.92137 -72.9267 -42.19566 -72.76834 -42.45802 -72.54822 M  -42.57579 -75.72597 C  -43.21945 -75.49168 -43.76797 -75.175 -44.29271 -74.73473 M  -43.55202 -78.40811 C  -44.51756 -78.05667 -45.34026 -77.5817 -46.1274 -76.92123 M  -44.52824 -81.09026 C  -45.81564 -80.62166 -46.91257 -79.98836 -47.96208 -79.10774 M  -45.50447 -83.77238 C  -47.11372 -83.18665 -48.48488 -82.39502 -49.79677 -81.29424 M  -46.4807 -86.45453 C  -48.41182 -85.75165 -50.05717 -84.8017 -51.63145 -83.48074 M  -47.45691 -89.13667 C  -49.7099 -88.31664 -51.62946 -87.20836 -53.46613 -85.66725 M  -51.81828 -89.75195  " style="fill:none"/> 
 </g> 
 </g> 
 </g> 
 <g> 
 <g stroke="rgb(75.0%,75.0%,50.0%)"> 
 <g fill="rgb(75.0%,75.0%,50.0%)"> 
 <g> 
 <path d=" M  -30.34207 -101.05482 C  -30.34207 -97.36609 -33.29982 -94.40834 -36.98856 -94.40834 C  -40.67729 -94.40834 -43.63504 -97.36609 -43.63504 -101.05482 C  -43.63504 -104.74356 -40.67729 -107.70131 -36.98856 -107.70131 C  -33.29982 -107.70131 -30.34207 -104.74356 -30.34207 -101.05482 Z M  -36.98856 -101.05482  " style="stroke:none"/> 
 <g> 
 <g transform="matrix(1.0,0.0,0.0,1.0,-36.98856,-101.05482)"> 
 <g fill="rgb(75.0%,75.0%,50.0%)"> 
 <text style="stroke:none" transform="scale(1,-1) translate(0.0,0)" text-anchor="middle"  font-size="14.4"> 
</text> 
</g> 
 </g> 
 </g> 
 </g> 
 <path d=" M  -36.98856 -101.05482 M  -36.98856 -71.31273 M  -36.49449 -74.11475 C  -36.8307 -74.17403 -37.14641 -74.17403 -37.48262 -74.11475 M  -36.00043 -76.91676 C  -36.67288 -77.03532 -37.30423 -77.03532 -37.97668 -76.91676 M  -35.50636 -79.71878 C  -36.51508 -79.89664 -37.46204 -79.89664 -38.47075 -79.71878 M  -35.0123 -82.5208 C  -36.35725 -82.75793 -37.61986 -82.75793 -38.96481 -82.5208 M  -34.51823 -85.32281 C  -36.19943 -85.61925 -37.77768 -85.61925 -39.45888 -85.32281 M  -34.02417 -88.12483 C  -36.04163 -88.48056 -37.93549 -88.48056 -39.95294 -88.12483 M  -33.5301 -90.92685 C  -35.8838 -91.34186 -38.0933 -91.34186 -40.447 -90.92685 M  -36.98856 -93.72069  " style="fill:none"/> 
 </g> 
 </g> 
 </g> 
 </g> 
 </g> 
 </g> 
 <g> 
 <g stroke="rgb(50.0%,0.0%,50.0%)"> 
 <g fill="rgb(50.0%,0.0%,50.0%)"> 
 <g> 
 <path d=" M  6.64648 -64.06625 C  6.64648 -60.37752 3.68874 -57.41977 0.0 -57.41977 C  -3.68874 -57.41977 -6.64648 -60.37752 -6.64648 -64.06625 C  -6.64648 -67.75499 -3.68874 -70.71274 0.0 -70.71274 C  3.68874 -70.71274 6.64648 -67.75499 6.64648 -64.06625 Z M  0.0 -64.06625  " style="stroke:none"/> 
 <g> 
 <g transform="matrix(1.0,0.0,0.0,1.0,0.0,-64.06625)"> 
 <g fill="rgb(50.0%,0.0%,50.0%)"> 
 <text style="stroke:none" transform="scale(1,-1) translate(0.0,0)" text-anchor="middle"  font-size="14.4"> 
</text> 
</g> 
 </g> 
 </g> 
 </g> 
 <path d=" M  0.0 -64.06625 M  -14.8595 -38.32858 M  -13.02481 -40.51509 C  -13.28717 -40.73521 -13.56146 -40.89357 -13.88327 -41.0107 M  -11.19012 -42.7016 C  -11.71486 -43.14188 -12.26338 -43.45856 -12.90704 -43.69284 M  -9.35544 -44.8881 C  -10.14258 -45.54857 -10.96527 -46.02354 -11.93082 -46.37498 M  -7.52075 -47.07462 C  -8.57027 -47.95523 -9.66719 -48.58853 -10.95459 -49.05713 M  -5.68607 -49.26111 C  -6.99796 -50.3619 -8.36911 -51.15352 -9.97836 -51.73926 M  -3.85138 -51.44762 C  -5.42566 -52.76857 -7.07101 -53.71852 -9.00214 -54.4214 M  -2.01671 -53.63412 C  -3.85338 -55.17523 -5.77293 -56.28351 -8.02592 -57.10355 M  -3.66455 -57.71883  " style="fill:none"/> 
 <g> 
 <g stroke="rgb(25.0%,0.0%,25.0%)"> 
 <g fill="rgb(25.0%,0.0%,25.0%)"> 
 <g> 
 <path d=" M  6.64648 -101.05482 C  6.64648 -97.36609 3.68874 -94.40834 0.0 -94.40834 C  -3.68874 -94.40834 -6.64648 -97.36609 -6.64648 -101.05482 C  -6.64648 -104.74356 -3.68874 -107.70131 0.0 -107.70131 C  3.68874 -107.70131 6.64648 -104.74356 6.64648 -101.05482 Z M  0.0 -101.05482  " style="stroke:none"/> 
 <g> 
 <g transform="matrix(1.0,0.0,0.0,1.0,0.0,-101.05482)"> 
 <g fill="rgb(25.0%,0.0%,25.0%)"> 
 <text style="stroke:none" transform="scale(1,-1) translate(0.0,0)" text-anchor="middle"  font-size="14.4"> 
</text> 
</g> 
 </g> 
 </g> 
 </g> 
 <path d=" M  0.0 -101.05482 M  0.0 -71.31273 M  0.49406 -74.11475 C  0.15785 -74.17403 -0.15785 -74.17403 -0.49406 -74.11475 M  0.98813 -76.91676 C  0.31567 -77.03532 -0.31567 -77.03532 -0.98813 -76.91676 M  1.4822 -79.71878 C  0.47348 -79.89664 -0.47348 -79.89664 -1.4822 -79.71878 M  1.97626 -82.5208 C  0.6313 -82.75793 -0.6313 -82.75793 -1.97626 -82.5208 M  2.47032 -85.32281 C  0.78912 -85.61925 -0.78912 -85.61925 -2.47032 -85.32281 M  2.96439 -88.12483 C  0.94693 -88.48056 -0.94693 -88.48056 -2.96439 -88.12483 M  3.45845 -90.92685 C  1.10475 -91.34186 -1.10475 -91.34186 -3.45845 -90.92685 M  0.0 -93.72069  " style="fill:none"/> 
 </g> 
 </g> 
 </g> 
 <g> 
 <g stroke="rgb(50.0%,25.0%,50.0%)"> 
 <g fill="rgb(50.0%,25.0%,50.0%)"> 
 <g> 
 <path d=" M  25.14076 -96.09938 C  25.14076 -92.41064 22.18301 -89.4529 18.49428 -89.4529 C  14.80554 -89.4529 11.8478 -92.41064 11.8478 -96.09938 C  11.8478 -99.78812 14.80554 -102.74586 18.49428 -102.74586 C  22.18301 -102.74586 25.14076 -99.78812 25.14076 -96.09938 Z M  18.49428 -96.09938  " style="stroke:none"/> 
 <g> 
 <g transform="matrix(1.0,0.0,0.0,1.0,18.49428,-96.09938)"> 
 <g fill="rgb(50.0%,25.0%,50.0%)"> 
 <text style="stroke:none" transform="scale(1,-1) translate(0.0,0)" text-anchor="middle"  font-size="14.4"> 
</text> 
</g> 
 </g> 
 </g> 
 </g> 
 <path d=" M  18.49428 -96.09938 M  3.63478 -70.36171 M  5.46947 -72.54822 C  5.2071 -72.76834 4.93282 -72.9267 4.61101 -73.04382 M  7.30415 -74.73473 C  6.77942 -75.175 6.2309 -75.49168 5.58723 -75.72597 M  9.13884 -76.92123 C  8.3517 -77.5817 7.529 -78.05667 6.56346 -78.40811 M  10.97353 -79.10774 C  9.92401 -79.98836 8.82709 -80.62166 7.53969 -81.09026 M  12.80821 -81.29424 C  11.49632 -82.39502 10.12517 -83.18665 8.51591 -83.77238 M  14.6429 -83.48074 C  13.06862 -84.8017 11.42326 -85.75165 9.49214 -86.45453 M  16.47757 -85.66725 C  14.6409 -87.20836 12.72134 -88.31664 10.46835 -89.13667 M  14.82973 -89.75195  " style="fill:none"/> 
 </g> 
 </g> 
 </g> 
 <g> 
 <g stroke="rgb(75.0%,50.0%,75.0%)"> 
 <g fill="rgb(75.0%,50.0%,75.0%)"> 
 <g> 
 <path d=" M  38.67961 -82.56053 C  38.67961 -78.8718 35.72186 -75.91405 32.03313 -75.91405 C  28.34439 -75.91405 25.38664 -78.8718 25.38664 -82.56053 C  25.38664 -86.24927 28.34439 -89.20702 32.03313 -89.20702 C  35.72186 -89.20702 38.67961 -86.24927 38.67961 -82.56053 Z M  32.03313 -82.56053  " style="stroke:none"/> 
 <g> 
 <g transform="matrix(1.0,0.0,0.0,1.0,32.03313,-82.56053)"> 
 <g fill="rgb(75.0%,50.0%,75.0%)"> 
 <text style="stroke:none" transform="scale(1,-1) translate(0.0,0)" text-anchor="middle"  font-size="14.4"> 
</text> 
</g> 
 </g> 
 </g> 
 </g> 
 <path d=" M  32.03313 -82.56053 M  6.29546 -67.70103 M  8.97757 -68.67726 C  8.86044 -68.99907 8.70209 -69.27336 8.48196 -69.53572 M  11.65971 -69.65349 C  11.42543 -70.29715 11.10875 -70.84567 10.66847 -71.3704 M  14.34186 -70.62971 C  13.99042 -71.59526 13.51544 -72.41795 12.85498 -73.2051 M  17.024 -71.60594 C  16.5554 -72.89334 15.9221 -73.99026 15.04149 -75.03978 M  19.70613 -72.58217 C  19.12039 -74.19142 18.32877 -75.56258 17.22798 -76.87447 M  22.38828 -73.5584 C  21.6854 -75.48952 20.73544 -77.13487 19.41449 -78.70915 M  25.07042 -74.5346 C  24.25038 -76.7876 23.1421 -78.70715 21.601 -80.54382 M  25.6857 -78.89598  " style="fill:none"/> 
 </g> 
 </g> 
 </g> 
 </g> 
 </g> 
 </g> 
 </g> 
 </g> 
 </g> 
 <g> 
 <g stroke="rgb(0.0%,100.0%,0.0%)"> 
 <g fill="rgb(0.0%,100.0%,0.0%)"> 
 <g> 
 <path d=" M  43.63506 0.0 C  43.63506 3.68874 40.6773 6.64648 36.98857 6.64648 C  33.29984 6.64648 30.34209 3.68874 30.34209 0.0 C  30.34209 -3.68874 33.29984 -6.64648 36.98857 -6.64648 C  40.6773 -6.64648 43.63506 -3.68874 43.63506 0.0 Z M  36.98857 0.0  " style="stroke:none"/> 
 <g> 
 <g transform="matrix(1.0,0.0,0.0,1.0,36.98857,0.0)"> 
 <g fill="rgb(0.0%,100.0%,0.0%)"> 
 <text style="stroke:none" transform="scale(1,-1) translate(0.0,0)" text-anchor="middle"  font-size="14.4"> 
</text> 
</g> 
 </g> 
 </g> 
 </g> 
 <path d=" M  36.98857 0.0 M  7.24648 0.0 M  10.0485 0.49406 C  10.10777 0.15785 10.10777 -0.15785 10.0485 -0.49406 M  12.85051 0.98813 C  12.96907 0.31567 12.96907 -0.31567 12.85051 -0.98813 M  15.65253 1.4822 C  15.83038 0.47348 15.83038 -0.47348 15.65253 -1.4822 M  18.45454 1.97626 C  18.69168 0.6313 18.69168 -0.6313 18.45454 -1.97626 M  21.25656 2.47032 C  21.553 0.78912 21.553 -0.78912 21.25656 -2.47032 M  24.05858 2.96439 C  24.4143 0.94693 24.4143 -0.94693 24.05858 -2.96439 M  26.8606 3.45845 C  27.2756 1.10475 27.2756 -1.10475 26.8606 -3.45845 M  29.65443 0.0  " style="fill:none"/> 
 <g> 
 <g stroke="rgb(50.0%,50.0%,0.0%)"> 
 <g fill="rgb(50.0%,50.0%,0.0%)"> 
 <g> 
 <path d=" M  62.12933 -32.03313 C  62.12933 -28.34439 59.17159 -25.38664 55.48285 -25.38664 C  51.79411 -25.38664 48.83636 -28.34439 48.83636 -32.03313 C  48.83636 -35.72186 51.79411 -38.67961 55.48285 -38.67961 C  59.17159 -38.67961 62.12933 -35.72186 62.12933 -32.03313 Z M  55.48285 -32.03313  " style="stroke:none"/> 
 <g> 
 <g transform="matrix(1.0,0.0,0.0,1.0,55.48285,-32.03313)"> 
 <g fill="rgb(50.0%,50.0%,0.0%)"> 
 <text style="stroke:none" transform="scale(1,-1) translate(0.0,0)" text-anchor="middle"  font-size="14.4"> 
</text> 
</g> 
 </g> 
 </g> 
 </g> 
 <path d=" M  55.48285 -32.03313 M  40.62335 -6.29546 M  42.45804 -8.48196 C  42.19568 -8.70209 41.92139 -8.86044 41.59958 -8.97757 M  44.29272 -10.66847 C  43.76799 -11.10875 43.21947 -11.42543 42.5758 -11.65971 M  46.12741 -12.85498 C  45.34027 -13.51544 44.51758 -13.99042 43.55203 -14.34186 M  47.9621 -15.04149 C  46.91258 -15.9221 45.81566 -16.5554 44.52826 -17.024 M  49.79678 -17.22798 C  48.4849 -18.32877 47.11374 -19.12039 45.50449 -19.70613 M  51.63147 -19.41449 C  50.05719 -20.73544 48.41183 -21.6854 46.48071 -22.38828 M  53.46614 -21.601 C  51.62947 -23.1421 49.70992 -24.25038 47.45692 -25.07042 M  51.8183 -25.6857  " style="fill:none"/> 
 <g> 
 <g stroke="rgb(25.0%,25.0%,0.0%)"> 
 <g fill="rgb(25.0%,25.0%,0.0%)"> 
 <g> 
 <path d=" M  62.12933 -69.0217 C  62.12933 -65.33296 59.17159 -62.37521 55.48285 -62.37521 C  51.79411 -62.37521 48.83636 -65.33296 48.83636 -69.0217 C  48.83636 -72.71043 51.79411 -75.66818 55.48285 -75.66818 C  59.17159 -75.66818 62.12933 -72.71043 62.12933 -69.0217 Z M  55.48285 -69.0217  " style="stroke:none"/> 
 <g> 
 <g transform="matrix(1.0,0.0,0.0,1.0,55.48285,-69.0217)"> 
 <g fill="rgb(25.0%,25.0%,0.0%)"> 
 <text style="stroke:none" transform="scale(1,-1) translate(0.0,0)" text-anchor="middle"  font-size="14.4"> 
</text> 
</g> 
 </g> 
 </g> 
 </g> 
 <path d=" M  55.48285 -69.0217 M  55.48285 -39.2796 M  55.97691 -42.08162 C  55.6407 -42.1409 55.325 -42.1409 54.98878 -42.08162 M  56.47098 -44.88364 C  55.79852 -45.0022 55.16718 -45.0022 54.49472 -44.88364 M  56.96504 -47.68565 C  55.95633 -47.86351 55.00937 -47.86351 54.00066 -47.68565 M  57.4591 -50.48767 C  56.11415 -50.72481 54.85155 -50.72481 53.50659 -50.48767 M  57.95317 -53.28969 C  56.27197 -53.58612 54.69373 -53.58612 53.01253 -53.28969 M  58.44724 -56.0917 C  56.42978 -56.44743 54.53592 -56.44743 52.51846 -56.0917 M  58.9413 -58.89372 C  56.5876 -59.30873 54.3781 -59.30873 52.0244 -58.89372 M  55.48285 -61.68756  " style="fill:none"/> 
 </g> 
 </g> 
 </g> 
 <g> 
 <g stroke="rgb(50.0%,50.0%,25.0%)"> 
 <g fill="rgb(50.0%,50.0%,25.0%)"> 
 <g> 
 <path d=" M  80.62361 -64.06625 C  80.62361 -60.37752 77.66586 -57.41977 73.97713 -57.41977 C  70.28839 -57.41977 67.33064 -60.37752 67.33064 -64.06625 C  67.33064 -67.75499 70.28839 -70.71274 73.97713 -70.71274 C  77.66586 -70.71274 80.62361 -67.75499 80.62361 -64.06625 Z M  73.97713 -64.06625  " style="stroke:none"/> 
 <g> 
 <g transform="matrix(1.0,0.0,0.0,1.0,73.97713,-64.06625)"> 
 <g fill="rgb(50.0%,50.0%,25.0%)"> 
 <text style="stroke:none" transform="scale(1,-1) translate(0.0,0)" text-anchor="middle"  font-size="14.4"> 
</text> 
</g> 
 </g> 
 </g> 
 </g> 
 <path d=" M  73.97713 -64.06625 M  59.11763 -38.32858 M  60.95232 -40.51509 C  60.68996 -40.73521 60.41566 -40.89357 60.09386 -41.0107 M  62.787 -42.7016 C  62.26227 -43.14188 61.71375 -43.45856 61.07008 -43.69284 M  64.62169 -44.8881 C  63.83455 -45.54857 63.01186 -46.02354 62.04631 -46.37498 M  66.45638 -47.07462 C  65.40686 -47.95523 64.30994 -48.58853 63.02254 -49.05713 M  68.29106 -49.26111 C  66.97917 -50.3619 65.60802 -51.15352 63.99876 -51.73926 M  70.12575 -51.44762 C  68.55147 -52.76857 66.90611 -53.71852 64.97499 -54.4214 M  71.96042 -53.63412 C  70.12375 -55.17523 68.2042 -56.28351 65.9512 -57.10355 M  70.31258 -57.71883  " style="fill:none"/> 
 </g> 
 </g> 
 </g> 
 <g> 
 <g stroke="rgb(75.0%,75.0%,50.0%)"> 
 <g fill="rgb(75.0%,75.0%,50.0%)"> 
 <g> 
 <path d=" M  94.16246 -50.5274 C  94.16246 -46.83867 91.20471 -43.88092 87.51598 -43.88092 C  83.82724 -43.88092 80.86949 -46.83867 80.86949 -50.5274 C  80.86949 -54.21614 83.82724 -57.17389 87.51598 -57.17389 C  91.20471 -57.17389 94.16246 -54.21614 94.16246 -50.5274 Z M  87.51598 -50.5274  " style="stroke:none"/> 
 <g> 
 <g transform="matrix(1.0,0.0,0.0,1.0,87.51598,-50.5274)"> 
 <g fill="rgb(75.0%,75.0%,50.0%)"> 
 <text style="stroke:none" transform="scale(1,-1) translate(0.0,0)" text-anchor="middle"  font-size="14.4"> 
</text> 
</g> 
 </g> 
 </g> 
 </g> 
 <path d=" M  87.51598 -50.5274 M  61.7783 -35.66791 M  64.46042 -36.64413 C  64.34329 -36.96594 64.18494 -37.24023 63.96481 -37.5026 M  67.14256 -37.62036 C  66.90828 -38.26402 66.5916 -38.81255 66.15132 -39.33728 M  69.8247 -38.59659 C  69.47327 -39.56213 68.99829 -40.38483 68.33783 -41.17197 M  72.50685 -39.57281 C  72.03825 -40.86021 71.40495 -41.95714 70.52434 -43.00665 M  75.18898 -40.54904 C  74.60324 -42.1583 73.81161 -43.52945 72.71083 -44.84134 M  77.87112 -41.52527 C  77.16824 -43.45639 76.21829 -45.10175 74.89734 -46.67603 M  80.55327 -42.50148 C  79.73323 -44.75447 78.62495 -46.67403 77.08385 -48.5107 M  81.16855 -46.86285  " style="fill:none"/> 
 </g> 
 </g> 
 </g> 
 </g> 
 </g> 
 </g> 
 <g> 
 <g stroke="rgb(0.0%,100.0%,0.0%)"> 
 <g fill="rgb(0.0%,100.0%,0.0%)"> 
 <g> 
 <path d=" M  80.62363 0.0 C  80.62363 3.68874 77.66588 6.64648 73.97714 6.64648 C  70.2884 6.64648 67.33066 3.68874 67.33066 0.0 C  67.33066 -3.68874 70.2884 -6.64648 73.97714 -6.64648 C  77.66588 -6.64648 80.62363 -3.68874 80.62363 0.0 Z M  73.97714 0.0  " style="stroke:none"/> 
 <g> 
 <g transform="matrix(1.0,0.0,0.0,1.0,73.97714,0.0)"> 
 <g fill="rgb(0.0%,100.0%,0.0%)"> 
 <text style="stroke:none" transform="scale(1,-1) translate(0.0,0)" text-anchor="middle"  font-size="14.4"> 
</text> 
</g> 
 </g> 
 </g> 
 </g> 
 <path d=" M  73.97714 0.0 M  44.23505 0.0 M  47.03706 0.49406 C  47.09634 0.15785 47.09634 -0.15785 47.03706 -0.49406 M  49.83908 0.98813 C  49.95764 0.31567 49.95764 -0.31567 49.83908 -0.98813 M  52.6411 1.4822 C  52.81895 0.47348 52.81895 -0.47348 52.6411 -1.4822 M  55.44312 1.97626 C  55.68025 0.6313 55.68025 -0.6313 55.44312 -1.97626 M  58.24513 2.47032 C  58.54156 0.78912 58.54156 -0.78912 58.24513 -2.47032 M  61.04715 2.96439 C  61.40288 0.94693 61.40288 -0.94693 61.04715 -2.96439 M  63.84917 3.45845 C  64.26418 1.10475 64.26418 -1.10475 63.84917 -3.45845 M  66.643 0.0  " style="fill:none"/> 
 <g> 
 <g stroke="rgb(0.0%,50.0%,0.0%)"> 
 <g fill="rgb(0.0%,50.0%,0.0%)"> 
 <g> 
 <path d=" M  112.65675 -18.49428 C  112.65675 -14.80554 109.699 -11.8478 106.01027 -11.8478 C  102.32153 -11.8478 99.36378 -14.80554 99.36378 -18.49428 C  99.36378 -22.18301 102.32153 -25.14076 106.01027 -25.14076 C  109.699 -25.14076 112.65675 -22.18301 112.65675 -18.49428 Z M  106.01027 -18.49428  " style="stroke:none"/> 
 <g> 
 <g transform="matrix(1.0,0.0,0.0,1.0,106.01027,-18.49428)"> 
 <g fill="rgb(0.0%,50.0%,0.0%)"> 
 <text style="stroke:none" transform="scale(1,-1) translate(0.0,0)" text-anchor="middle"  font-size="14.4"> 
</text> 
</g> 
 </g> 
 </g> 
 </g> 
 <path d=" M  106.01027 -18.49428 M  80.2726 -3.63478 M  82.95471 -4.61101 C  82.83759 -4.93282 82.67923 -5.2071 82.4591 -5.46947 M  85.63686 -5.58723 C  85.40257 -6.2309 85.08589 -6.77942 84.64561 -7.30415 M  88.319 -6.56346 C  87.96756 -7.529 87.49258 -8.3517 86.83212 -9.13884 M  91.00114 -7.53969 C  90.53255 -8.82709 89.89925 -9.92401 89.01863 -10.97353 M  93.68327 -8.51591 C  93.09753 -10.12517 92.30591 -11.49632 91.20512 -12.80821 M  96.36542 -9.49214 C  95.66254 -11.42326 94.71259 -13.06862 93.39163 -14.6429 M  99.04756 -10.46835 C  98.22752 -12.72134 97.11925 -14.6409 95.57814 -16.47757 M  99.66284 -14.82973  " style="fill:none"/> 
 </g> 
 </g> 
 </g> 
 <g> 
 <g stroke="rgb(25.0%,75.0%,25.0%)"> 
 <g fill="rgb(25.0%,75.0%,25.0%)"> 
 <g> 
 <path d=" M  117.6122 0.0 C  117.6122 3.68874 114.65445 6.64648 110.96571 6.64648 C  107.27698 6.64648 104.31923 3.68874 104.31923 0.0 C  104.31923 -3.68874 107.27698 -6.64648 110.96571 -6.64648 C  114.65445 -6.64648 117.6122 -3.68874 117.6122 0.0 Z M  110.96571 0.0  " style="stroke:none"/> 
 <g> 
 <g transform="matrix(1.0,0.0,0.0,1.0,110.96571,0.0)"> 
 <g fill="rgb(25.0%,75.0%,25.0%)"> 
 <text style="stroke:none" transform="scale(1,-1) translate(0.0,0)" text-anchor="middle"  font-size="14.4"> 
</text> 
</g> 
 </g> 
 </g> 
 </g> 
 <path d=" M  110.96571 0.0 M  81.22362 0.0 M  84.02563 0.49406 C  84.08492 0.15785 84.08492 -0.15785 84.02563 -0.49406 M  86.82765 0.98813 C  86.94621 0.31567 86.94621 -0.31567 86.82765 -0.98813 M  89.62967 1.4822 C  89.80753 0.47348 89.80753 -0.47348 89.62967 -1.4822 M  92.43169 1.97626 C  92.66882 0.6313 92.66882 -0.6313 92.43169 -1.97626 M  95.2337 2.47032 C  95.53014 0.78912 95.53014 -0.78912 95.2337 -2.47032 M  98.03572 2.96439 C  98.39145 0.94693 98.39145 -0.94693 98.03572 -2.96439 M  100.83774 3.45845 C  101.25275 1.10475 101.25275 -1.10475 100.83774 -3.45845 M  103.63158 0.0  " style="fill:none"/> 
 </g> 
 </g> 
 </g> 
 <g> 
 <g stroke="rgb(50.0%,100.0%,50.0%)"> 
 <g fill="rgb(50.0%,100.0%,50.0%)"> 
 <g> 
 <path d=" M  112.65675 18.49428 C  112.65675 22.18301 109.699 25.14076 106.01027 25.14076 C  102.32153 25.14076 99.36378 22.18301 99.36378 18.49428 C  99.36378 14.80554 102.32153 11.8478 106.01027 11.8478 C  109.699 11.8478 112.65675 14.80554 112.65675 18.49428 Z M  106.01027 18.49428  " style="stroke:none"/> 
 <g> 
 <g transform="matrix(1.0,0.0,0.0,1.0,106.01027,18.49428)"> 
 <g fill="rgb(50.0%,100.0%,50.0%)"> 
 <text style="stroke:none" transform="scale(1,-1) translate(0.0,0)" text-anchor="middle"  font-size="14.4"> 
</text> 
</g> 
 </g> 
 </g> 
 </g> 
 <path d=" M  106.01027 18.49428 M  80.2726 3.63478 M  82.4591 5.46947 C  82.67923 5.2071 82.83759 4.93282 82.95471 4.61101 M  84.64561 7.30415 C  85.08589 6.77942 85.40257 6.2309 85.63686 5.58723 M  86.83212 9.13884 C  87.49258 8.3517 87.96756 7.529 88.319 6.56346 M  89.01863 10.97353 C  89.89925 9.92401 90.53255 8.82709 91.00114 7.53969 M  91.20512 12.80821 C  92.30591 11.49632 93.09753 10.12517 93.68327 8.51591 M  93.39163 14.6429 C  94.71259 13.06862 95.66254 11.42326 96.36542 9.49214 M  95.57814 16.47757 C  97.11925 14.6409 98.22752 12.72134 99.04756 10.46835 M  99.66284 14.82973  " style="fill:none"/> 
 </g> 
 </g> 
 </g> 
 </g> 
 </g> 
 </g> 
 <g> 
 <g stroke="rgb(0.0%,50.0%,50.0%)"> 
 <g fill="rgb(0.0%,50.0%,50.0%)"> 
 <g> 
 <path d=" M  62.12933 32.03313 C  62.12933 35.72186 59.17159 38.67961 55.48285 38.67961 C  51.79411 38.67961 48.83636 35.72186 48.83636 32.03313 C  48.83636 28.34439 51.79411 25.38664 55.48285 25.38664 C  59.17159 25.38664 62.12933 28.34439 62.12933 32.03313 Z M  55.48285 32.03313  " style="stroke:none"/> 
 <g> 
 <g transform="matrix(1.0,0.0,0.0,1.0,55.48285,32.03313)"> 
 <g fill="rgb(0.0%,50.0%,50.0%)"> 
 <text style="stroke:none" transform="scale(1,-1) translate(0.0,0)" text-anchor="middle"  font-size="14.4"> 
</text> 
</g> 
 </g> 
 </g> 
 </g> 
 <path d=" M  55.48285 32.03313 M  40.62335 6.29546 M  41.59958 8.97757 C  41.92139 8.86044 42.19568 8.70209 42.45804 8.48196 M  42.5758 11.65971 C  43.21947 11.42543 43.76799 11.10875 44.29272 10.66847 M  43.55203 14.34186 C  44.51758 13.99042 45.34027 13.51544 46.12741 12.85498 M  44.52826 17.024 C  45.81566 16.5554 46.91258 15.9221 47.9621 15.04149 M  45.50449 19.70613 C  47.11374 19.12039 48.4849 18.32877 49.79678 17.22798 M  46.48071 22.38828 C  48.41183 21.6854 50.05719 20.73544 51.63147 19.41449 M  47.45692 25.07042 C  49.70992 24.25038 51.62947 23.1421 53.46614 21.601 M  51.8183 25.6857  " style="fill:none"/> 
 <g> 
 <g stroke="rgb(0.0%,25.0%,25.0%)"> 
 <g fill="rgb(0.0%,25.0%,25.0%)"> 
 <g> 
 <path d=" M  94.16246 50.5274 C  94.16246 54.21614 91.20471 57.17389 87.51598 57.17389 C  83.82724 57.17389 80.86949 54.21614 80.86949 50.5274 C  80.86949 46.83867 83.82724 43.88092 87.51598 43.88092 C  91.20471 43.88092 94.16246 46.83867 94.16246 50.5274 Z M  87.51598 50.5274  " style="stroke:none"/> 
 <g> 
 <g transform="matrix(1.0,0.0,0.0,1.0,87.51598,50.5274)"> 
 <g fill="rgb(0.0%,25.0%,25.0%)"> 
 <text style="stroke:none" transform="scale(1,-1) translate(0.0,0)" text-anchor="middle"  font-size="14.4"> 
</text> 
</g> 
 </g> 
 </g> 
 </g> 
 <path d=" M  87.51598 50.5274 M  61.7783 35.66791 M  63.96481 37.5026 C  64.18494 37.24023 64.34329 36.96594 64.46042 36.64413 M  66.15132 39.33728 C  66.5916 38.81255 66.90828 38.26402 67.14256 37.62036 M  68.33783 41.17197 C  68.99829 40.38483 69.47327 39.56213 69.8247 38.59659 M  70.52434 43.00665 C  71.40495 41.95714 72.03825 40.86021 72.50685 39.57281 M  72.71083 44.84134 C  73.81161 43.52945 74.60324 42.1583 75.18898 40.54904 M  74.89734 46.67603 C  76.21829 45.10175 77.16824 43.45639 77.87112 41.52527 M  77.08385 48.5107 C  78.62495 46.67403 79.73323 44.75447 80.55327 42.50148 M  81.16855 46.86285  " style="fill:none"/> 
 </g> 
 </g> 
 </g> 
 <g> 
 <g stroke="rgb(25.0%,50.0%,50.0%)"> 
 <g fill="rgb(25.0%,50.0%,50.0%)"> 
 <g> 
 <path d=" M  80.62361 64.06625 C  80.62361 67.75499 77.66586 70.71274 73.97713 70.71274 C  70.28839 70.71274 67.33064 67.75499 67.33064 64.06625 C  67.33064 60.37752 70.28839 57.41977 73.97713 57.41977 C  77.66586 57.41977 80.62361 60.37752 80.62361 64.06625 Z M  73.97713 64.06625  " style="stroke:none"/> 
 <g> 
 <g transform="matrix(1.0,0.0,0.0,1.0,73.97713,64.06625)"> 
 <g fill="rgb(25.0%,50.0%,50.0%)"> 
 <text style="stroke:none" transform="scale(1,-1) translate(0.0,0)" text-anchor="middle"  font-size="14.4"> 
</text> 
</g> 
 </g> 
 </g> 
 </g> 
 <path d=" M  73.97713 64.06625 M  59.11763 38.32858 M  60.09386 41.0107 C  60.41566 40.89357 60.68996 40.73521 60.95232 40.51509 M  61.07008 43.69284 C  61.71375 43.45856 62.26227 43.14188 62.787 42.7016 M  62.04631 46.37498 C  63.01186 46.02354 63.83455 45.54857 64.62169 44.8881 M  63.02254 49.05713 C  64.30994 48.58853 65.40686 47.95523 66.45638 47.07462 M  63.99876 51.73926 C  65.60802 51.15352 66.97917 50.3619 68.29106 49.26111 M  64.97499 54.4214 C  66.90611 53.71852 68.55147 52.76857 70.12575 51.44762 M  65.9512 57.10355 C  68.2042 56.28351 70.12375 55.17523 71.96042 53.63412 M  70.31258 57.71883  " style="fill:none"/> 
 </g> 
 </g> 
 </g> 
 <g> 
 <g stroke="rgb(50.0%,75.0%,75.0%)"> 
 <g fill="rgb(50.0%,75.0%,75.0%)"> 
 <g> 
 <path d=" M  62.12933 69.0217 C  62.12933 72.71043 59.17159 75.66818 55.48285 75.66818 C  51.79411 75.66818 48.83636 72.71043 48.83636 69.0217 C  48.83636 65.33296 51.79411 62.37521 55.48285 62.37521 C  59.17159 62.37521 62.12933 65.33296 62.12933 69.0217 Z M  55.48285 69.0217  " style="stroke:none"/> 
 <g> 
 <g transform="matrix(1.0,0.0,0.0,1.0,55.48285,69.0217)"> 
 <g fill="rgb(50.0%,75.0%,75.0%)"> 
 <text style="stroke:none" transform="scale(1,-1) translate(0.0,0)" text-anchor="middle"  font-size="14.4"> 
</text> 
</g> 
 </g> 
 </g> 
 </g> 
 <path d=" M  55.48285 69.0217 M  55.48285 39.2796 M  54.98878 42.08162 C  55.325 42.1409 55.6407 42.1409 55.97691 42.08162 M  54.49472 44.88364 C  55.16718 45.0022 55.79852 45.0022 56.47098 44.88364 M  54.00066 47.68565 C  55.00937 47.86351 55.95633 47.86351 56.96504 47.68565 M  53.50659 50.48767 C  54.85155 50.72481 56.11415 50.72481 57.4591 50.48767 M  53.01253 53.28969 C  54.69373 53.58612 56.27197 53.58612 57.95317 53.28969 M  52.51846 56.0917 C  54.53592 56.44743 56.42978 56.44743 58.44724 56.0917 M  52.0244 58.89372 C  54.3781 59.30873 56.5876 59.30873 58.9413 58.89372 M  55.48285 61.68756  " style="fill:none"/> 
 </g> 
 </g> 
 </g> 
 </g> 
 </g> 
 </g> 
 </g> 
 </g> 
 </g> 
 <g> 
 <g stroke="rgb(0.0%,0.0%,100.0%)"> 
 <g fill="rgb(0.0%,0.0%,100.0%)"> 
 <g> 
 <path d=" M  -11.8478 32.03313 C  -11.8478 35.72186 -14.80554 38.67961 -18.49428 38.67961 C  -22.18301 38.67961 -25.14076 35.72186 -25.14076 32.03313 C  -25.14076 28.34439 -22.18301 25.38664 -18.49428 25.38664 C  -14.80554 25.38664 -11.8478 28.34439 -11.8478 32.03313 Z M  -18.49428 32.03313  " style="stroke:none"/> 
 <g> 
 <g transform="matrix(1.0,0.0,0.0,1.0,-18.49428,32.03313)"> 
 <g fill="rgb(0.0%,0.0%,100.0%)"> 
 <text style="stroke:none" transform="scale(1,-1) translate(0.0,0)" text-anchor="middle"  font-size="14.4"> 
</text> 
</g> 
 </g> 
 </g> 
 </g> 
 <path d=" M  -18.49428 32.03313 M  -3.63478 6.29546 M  -5.46947 8.48196 C  -5.2071 8.70209 -4.93282 8.86044 -4.61101 8.97757 M  -7.30415 10.66847 C  -6.77942 11.10875 -6.2309 11.42543 -5.58723 11.65971 M  -9.13884 12.85498 C  -8.3517 13.51544 -7.529 13.99042 -6.56346 14.34186 M  -10.97353 15.04149 C  -9.92401 15.9221 -8.82709 16.5554 -7.53969 17.024 M  -12.80821 17.22798 C  -11.49632 18.32877 -10.12517 19.12039 -8.51591 19.70613 M  -14.6429 19.41449 C  -13.06862 20.73544 -11.42326 21.6854 -9.49214 22.38828 M  -16.47757 21.601 C  -14.6409 23.1421 -12.72134 24.25038 -10.46835 25.07042 M  -14.82973 25.6857  " style="fill:none"/> 
 <g> 
 <g stroke="rgb(50.0%,0.0%,50.0%)"> 
 <g fill="rgb(50.0%,0.0%,50.0%)"> 
 <g> 
 <path d=" M  6.64648 64.06625 C  6.64648 67.75499 3.68874 70.71274 0.0 70.71274 C  -3.68874 70.71274 -6.64648 67.75499 -6.64648 64.06625 C  -6.64648 60.37752 -3.68874 57.41977 0.0 57.41977 C  3.68874 57.41977 6.64648 60.37752 6.64648 64.06625 Z M  0.0 64.06625  " style="stroke:none"/> 
 <g> 
 <g transform="matrix(1.0,0.0,0.0,1.0,0.0,64.06625)"> 
 <g fill="rgb(50.0%,0.0%,50.0%)"> 
 <text style="stroke:none" transform="scale(1,-1) translate(0.0,0)" text-anchor="middle"  font-size="14.4"> 
</text> 
</g> 
 </g> 
 </g> 
 </g> 
 <path d=" M  0.0 64.06625 M  -14.8595 38.32858 M  -13.88327 41.0107 C  -13.56146 40.89357 -13.28717 40.73521 -13.02481 40.51509 M  -12.90704 43.69284 C  -12.26338 43.45856 -11.71486 43.14188 -11.19012 42.7016 M  -11.93082 46.37498 C  -10.96527 46.02354 -10.14258 45.54857 -9.35544 44.8881 M  -10.95459 49.05713 C  -9.66719 48.58853 -8.57027 47.95523 -7.52075 47.07462 M  -9.97836 51.73926 C  -8.36911 51.15352 -6.99796 50.3619 -5.68607 49.26111 M  -9.00214 54.4214 C  -7.07101 53.71852 -5.42566 52.76857 -3.85138 51.44762 M  -8.02592 57.10355 C  -5.77293 56.28351 -3.85338 55.17523 -2.01671 53.63412 M  -3.66455 57.71883  " style="fill:none"/> 
 <g> 
 <g stroke="rgb(25.0%,0.0%,25.0%)"> 
 <g fill="rgb(25.0%,0.0%,25.0%)"> 
 <g> 
 <path d=" M  38.67961 82.56053 C  38.67961 86.24927 35.72186 89.20702 32.03313 89.20702 C  28.34439 89.20702 25.38664 86.24927 25.38664 82.56053 C  25.38664 78.8718 28.34439 75.91405 32.03313 75.91405 C  35.72186 75.91405 38.67961 78.8718 38.67961 82.56053 Z M  32.03313 82.56053  " style="stroke:none"/> 
 <g> 
 <g transform="matrix(1.0,0.0,0.0,1.0,32.03313,82.56053)"> 
 <g fill="rgb(25.0%,0.0%,25.0%)"> 
 <text style="stroke:none" transform="scale(1,-1) translate(0.0,0)" text-anchor="middle"  font-size="14.4"> 
</text> 
</g> 
 </g> 
 </g> 
 </g> 
 <path d=" M  32.03313 82.56053 M  6.29546 67.70103 M  8.48196 69.53572 C  8.70209 69.27336 8.86044 68.99907 8.97757 68.67726 M  10.66847 71.3704 C  11.10875 70.84567 11.42543 70.29715 11.65971 69.65349 M  12.85498 73.2051 C  13.51544 72.41795 13.99042 71.59526 14.34186 70.62971 M  15.04149 75.03978 C  15.9221 73.99026 16.5554 72.89334 17.024 71.60594 M  17.22798 76.87447 C  18.32877 75.56258 19.12039 74.19142 19.70613 72.58217 M  19.41449 78.70915 C  20.73544 77.13487 21.6854 75.48952 22.38828 73.5584 M  21.601 80.54382 C  23.1421 78.70715 24.25038 76.7876 25.07042 74.5346 M  25.6857 78.89598  " style="fill:none"/> 
 </g> 
 </g> 
 </g> 
 <g> 
 <g stroke="rgb(50.0%,25.0%,50.0%)"> 
 <g fill="rgb(50.0%,25.0%,50.0%)"> 
 <g> 
 <path d=" M  25.14076 96.09938 C  25.14076 99.78812 22.18301 102.74586 18.49428 102.74586 C  14.80554 102.74586 11.8478 99.78812 11.8478 96.09938 C  11.8478 92.41064 14.80554 89.4529 18.49428 89.4529 C  22.18301 89.4529 25.14076 92.41064 25.14076 96.09938 Z M  18.49428 96.09938  " style="stroke:none"/> 
 <g> 
 <g transform="matrix(1.0,0.0,0.0,1.0,18.49428,96.09938)"> 
 <g fill="rgb(50.0%,25.0%,50.0%)"> 
 <text style="stroke:none" transform="scale(1,-1) translate(0.0,0)" text-anchor="middle"  font-size="14.4"> 
</text> 
</g> 
 </g> 
 </g> 
 </g> 
 <path d=" M  18.49428 96.09938 M  3.63478 70.36171 M  4.61101 73.04382 C  4.93282 72.9267 5.2071 72.76834 5.46947 72.54822 M  5.58723 75.72597 C  6.2309 75.49168 6.77942 75.175 7.30415 74.73473 M  6.56346 78.40811 C  7.529 78.05667 8.3517 77.5817 9.13884 76.92123 M  7.53969 81.09026 C  8.82709 80.62166 9.92401 79.98836 10.97353 79.10774 M  8.51591 83.77238 C  10.12517 83.18665 11.49632 82.39502 12.80821 81.29424 M  9.49214 86.45453 C  11.42326 85.75165 13.06862 84.8017 14.6429 83.48074 M  10.46835 89.13667 C  12.72134 88.31664 14.6409 87.20836 16.47757 85.66725 M  14.82973 89.75195  " style="fill:none"/> 
 </g> 
 </g> 
 </g> 
 <g> 
 <g stroke="rgb(75.0%,50.0%,75.0%)"> 
 <g fill="rgb(75.0%,50.0%,75.0%)"> 
 <g> 
 <path d=" M  6.64648 101.05482 C  6.64648 104.74356 3.68874 107.70131 0.0 107.70131 C  -3.68874 107.70131 -6.64648 104.74356 -6.64648 101.05482 C  -6.64648 97.36609 -3.68874 94.40834 0.0 94.40834 C  3.68874 94.40834 6.64648 97.36609 6.64648 101.05482 Z M  0.0 101.05482  " style="stroke:none"/> 
 <g> 
 <g transform="matrix(1.0,0.0,0.0,1.0,0.0,101.05482)"> 
 <g fill="rgb(75.0%,50.0%,75.0%)"> 
 <text style="stroke:none" transform="scale(1,-1) translate(0.0,0)" text-anchor="middle"  font-size="14.4"> 
</text> 
</g> 
 </g> 
 </g> 
 </g> 
 <path d=" M  0.0 101.05482 M  0.0 71.31273 M  -0.49406 74.11475 C  -0.15785 74.17403 0.15785 74.17403 0.49406 74.11475 M  -0.98813 76.91676 C  -0.31567 77.03532 0.31567 77.03532 0.98813 76.91676 M  -1.4822 79.71878 C  -0.47348 79.89664 0.47348 79.89664 1.4822 79.71878 M  -1.97626 82.5208 C  -0.6313 82.75793 0.6313 82.75793 1.97626 82.5208 M  -2.47032 85.32281 C  -0.78912 85.61925 0.78912 85.61925 2.47032 85.32281 M  -2.96439 88.12483 C  -0.94693 88.48056 0.94693 88.48056 2.96439 88.12483 M  -3.45845 90.92685 C  -1.10475 91.34186 1.10475 91.34186 3.45845 90.92685 M  0.0 93.72069  " style="fill:none"/> 
 </g> 
 </g> 
 </g> 
 </g> 
 </g> 
 </g> 
 <g> 
 <g stroke="rgb(0.0%,50.0%,50.0%)"> 
 <g fill="rgb(0.0%,50.0%,50.0%)"> 
 <g> 
 <path d=" M  -30.34207 64.06625 C  -30.34207 67.75499 -33.29982 70.71274 -36.98856 70.71274 C  -40.67729 70.71274 -43.63504 67.75499 -43.63504 64.06625 C  -43.63504 60.37752 -40.67729 57.41977 -36.98856 57.41977 C  -33.29982 57.41977 -30.34207 60.37752 -30.34207 64.06625 Z M  -36.98856 64.06625  " style="stroke:none"/> 
 <g> 
 <g transform="matrix(1.0,0.0,0.0,1.0,-36.98856,64.06625)"> 
 <g fill="rgb(0.0%,50.0%,50.0%)"> 
 <text style="stroke:none" transform="scale(1,-1) translate(0.0,0)" text-anchor="middle"  font-size="14.4"> 
</text> 
</g> 
 </g> 
 </g> 
 </g> 
 <path d=" M  -36.98856 64.06625 M  -22.12906 38.32858 M  -23.96375 40.51509 C  -23.70139 40.73521 -23.4271 40.89357 -23.10529 41.0107 M  -25.79843 42.7016 C  -25.2737 43.14188 -24.72517 43.45856 -24.08151 43.69284 M  -27.63312 44.8881 C  -26.84598 45.54857 -26.02328 46.02354 -25.05774 46.37498 M  -29.4678 47.07462 C  -28.41829 47.95523 -27.32137 48.58853 -26.03397 49.05713 M  -31.30249 49.26111 C  -29.9906 50.3619 -28.61945 51.15352 -27.0102 51.73926 M  -33.13718 51.44762 C  -31.5629 52.76857 -29.91754 53.71852 -27.98642 54.4214 M  -34.97185 53.63412 C  -33.13518 55.17523 -31.21562 56.28351 -28.96263 57.10355 M  -33.324 57.71883  " style="fill:none"/> 
 <g> 
 <g stroke="rgb(0.0%,25.0%,25.0%)"> 
 <g fill="rgb(0.0%,25.0%,25.0%)"> 
 <g> 
 <path d=" M  -30.34207 101.05482 C  -30.34207 104.74356 -33.29982 107.70131 -36.98856 107.70131 C  -40.67729 107.70131 -43.63504 104.74356 -43.63504 101.05482 C  -43.63504 97.36609 -40.67729 94.40834 -36.98856 94.40834 C  -33.29982 94.40834 -30.34207 97.36609 -30.34207 101.05482 Z M  -36.98856 101.05482  " style="stroke:none"/> 
 <g> 
 <g transform="matrix(1.0,0.0,0.0,1.0,-36.98856,101.05482)"> 
 <g fill="rgb(0.0%,25.0%,25.0%)"> 
 <text style="stroke:none" transform="scale(1,-1) translate(0.0,0)" text-anchor="middle"  font-size="14.4"> 
</text> 
</g> 
 </g> 
 </g> 
 </g> 
 <path d=" M  -36.98856 101.05482 M  -36.98856 71.31273 M  -37.48262 74.11475 C  -37.14641 74.17403 -36.8307 74.17403 -36.49449 74.11475 M  -37.97668 76.91676 C  -37.30423 77.03532 -36.67288 77.03532 -36.00043 76.91676 M  -38.47075 79.71878 C  -37.46204 79.89664 -36.51508 79.89664 -35.50636 79.71878 M  -38.96481 82.5208 C  -37.61986 82.75793 -36.35725 82.75793 -35.0123 82.5208 M  -39.45888 85.32281 C  -37.77768 85.61925 -36.19943 85.61925 -34.51823 85.32281 M  -39.95294 88.12483 C  -37.93549 88.48056 -36.04163 88.48056 -34.02417 88.12483 M  -40.447 90.92685 C  -38.0933 91.34186 -35.8838 91.34186 -33.5301 90.92685 M  -36.98856 93.72069  " style="fill:none"/> 
 </g> 
 </g> 
 </g> 
 <g> 
 <g stroke="rgb(25.0%,50.0%,50.0%)"> 
 <g fill="rgb(25.0%,50.0%,50.0%)"> 
 <g> 
 <path d=" M  -48.83635 96.09938 C  -48.83635 99.78812 -51.7941 102.74586 -55.48283 102.74586 C  -59.17157 102.74586 -62.12932 99.78812 -62.12932 96.09938 C  -62.12932 92.41064 -59.17157 89.4529 -55.48283 89.4529 C  -51.7941 89.4529 -48.83635 92.41064 -48.83635 96.09938 Z M  -55.48283 96.09938  " style="stroke:none"/> 
 <g> 
 <g transform="matrix(1.0,0.0,0.0,1.0,-55.48283,96.09938)"> 
 <g fill="rgb(25.0%,50.0%,50.0%)"> 
 <text style="stroke:none" transform="scale(1,-1) translate(0.0,0)" text-anchor="middle"  font-size="14.4"> 
</text> 
</g> 
 </g> 
 </g> 
 </g> 
 <path d=" M  -55.48283 96.09938 M  -40.62334 70.36171 M  -42.45802 72.54822 C  -42.19566 72.76834 -41.92137 72.9267 -41.59956 73.04382 M  -44.29271 74.73473 C  -43.76797 75.175 -43.21945 75.49168 -42.57579 75.72597 M  -46.1274 76.92123 C  -45.34026 77.5817 -44.51756 78.05667 -43.55202 78.40811 M  -47.96208 79.10774 C  -46.91257 79.98836 -45.81564 80.62166 -44.52824 81.09026 M  -49.79677 81.29424 C  -48.48488 82.39502 -47.11372 83.18665 -45.50447 83.77238 M  -51.63145 83.48074 C  -50.05717 84.8017 -48.41182 85.75165 -46.4807 86.45453 M  -53.46613 85.66725 C  -51.62946 87.20836 -49.7099 88.31664 -47.45691 89.13667 M  -51.81828 89.75195  " style="fill:none"/> 
 </g> 
 </g> 
 </g> 
 <g> 
 <g stroke="rgb(50.0%,75.0%,75.0%)"> 
 <g fill="rgb(50.0%,75.0%,75.0%)"> 
 <g> 
 <path d=" M  -62.3752 82.56053 C  -62.3752 86.24927 -65.33295 89.20702 -69.02168 89.20702 C  -72.71042 89.20702 -75.66817 86.24927 -75.66817 82.56053 C  -75.66817 78.8718 -72.71042 75.91405 -69.02168 75.91405 C  -65.33295 75.91405 -62.3752 78.8718 -62.3752 82.56053 Z M  -69.02168 82.56053  " style="stroke:none"/> 
 <g> 
 <g transform="matrix(1.0,0.0,0.0,1.0,-69.02168,82.56053)"> 
 <g fill="rgb(50.0%,75.0%,75.0%)"> 
 <text style="stroke:none" transform="scale(1,-1) translate(0.0,0)" text-anchor="middle"  font-size="14.4"> 
</text> 
</g> 
 </g> 
 </g> 
 </g> 
 <path d=" M  -69.02168 82.56053 M  -43.28401 67.70103 M  -45.96613 68.67726 C  -45.849 68.99907 -45.69064 69.27336 -45.47052 69.53572 M  -48.64827 69.65349 C  -48.41399 70.29715 -48.0973 70.84567 -47.65703 71.3704 M  -51.33041 70.62971 C  -50.97897 71.59526 -50.504 72.41795 -49.84354 73.2051 M  -54.01256 71.60594 C  -53.54396 72.89334 -52.91066 73.99026 -52.03004 75.03978 M  -56.69469 72.58217 C  -56.10895 74.19142 -55.31732 75.56258 -54.21654 76.87447 M  -59.37683 73.5584 C  -58.67395 75.48952 -57.724 77.13487 -56.40305 78.70915 M  -62.05898 74.5346 C  -61.23894 76.7876 -60.13066 78.70715 -58.58955 80.54382 M  -62.67426 78.89598  " style="fill:none"/> 
 </g> 
 </g> 
 </g> 
 </g> 
 </g> 
 </g> 
 <g> 
 <g stroke="rgb(0.0%,0.0%,100.0%)"> 
 <g fill="rgb(0.0%,0.0%,100.0%)"> 
 <g> 
 <path d=" M  -48.83636 32.03313 C  -48.83636 35.72186 -51.79411 38.67961 -55.48285 38.67961 C  -59.17159 38.67961 -62.12933 35.72186 -62.12933 32.03313 C  -62.12933 28.34439 -59.17159 25.38664 -55.48285 25.38664 C  -51.79411 25.38664 -48.83636 28.34439 -48.83636 32.03313 Z M  -55.48285 32.03313  " style="stroke:none"/> 
 <g> 
 <g transform="matrix(1.0,0.0,0.0,1.0,-55.48285,32.03313)"> 
 <g fill="rgb(0.0%,0.0%,100.0%)"> 
 <text style="stroke:none" transform="scale(1,-1) translate(0.0,0)" text-anchor="middle"  font-size="14.4"> 
</text> 
</g> 
 </g> 
 </g> 
 </g> 
 <path d=" M  -55.48285 32.03313 M  -25.74075 32.03313 M  -28.54277 31.53906 C  -28.60205 31.87527 -28.60205 32.19098 -28.54277 32.52719 M  -31.34479 31.045 C  -31.46335 31.71745 -31.46335 32.3488 -31.34479 33.02126 M  -34.1468 30.55093 C  -34.32466 31.55965 -34.32466 32.5066 -34.1468 33.51532 M  -36.94882 30.05687 C  -37.18596 31.40182 -37.18596 32.66443 -36.94882 34.00938 M  -39.75084 29.5628 C  -40.04727 31.244 -40.04727 32.82225 -39.75084 34.50345 M  -42.55286 29.06874 C  -42.90858 31.0862 -42.90858 32.98006 -42.55286 34.99751 M  -45.35487 28.57468 C  -45.76988 30.92838 -45.76988 33.13788 -45.35487 35.49158 M  -48.14871 32.03313  " style="fill:none"/> 
 <g> 
 <g stroke="rgb(0.0%,0.0%,50.0%)"> 
 <g fill="rgb(0.0%,0.0%,50.0%)"> 
 <g> 
 <path d=" M  -80.86949 50.5274 C  -80.86949 54.21614 -83.82724 57.17389 -87.51598 57.17389 C  -91.20471 57.17389 -94.16246 54.21614 -94.16246 50.5274 C  -94.16246 46.83867 -91.20471 43.88092 -87.51598 43.88092 C  -83.82724 43.88092 -80.86949 46.83867 -80.86949 50.5274 Z M  -87.51598 50.5274  " style="stroke:none"/> 
 <g> 
 <g transform="matrix(1.0,0.0,0.0,1.0,-87.51598,50.5274)"> 
 <g fill="rgb(0.0%,0.0%,50.0%)"> 
 <text style="stroke:none" transform="scale(1,-1) translate(0.0,0)" text-anchor="middle"  font-size="14.4"> 
</text> 
</g> 
 </g> 
 </g> 
 </g> 
 <path d=" M  -87.51598 50.5274 M  -61.7783 35.66791 M  -64.46042 36.64413 C  -64.34329 36.96594 -64.18494 37.24023 -63.96481 37.5026 M  -67.14256 37.62036 C  -66.90828 38.26402 -66.5916 38.81255 -66.15132 39.33728 M  -69.8247 38.59659 C  -69.47327 39.56213 -68.99829 40.38483 -68.33783 41.17197 M  -72.50685 39.57281 C  -72.03825 40.86021 -71.40495 41.95714 -70.52434 43.00665 M  -75.18898 40.54904 C  -74.60324 42.1583 -73.81161 43.52945 -72.71083 44.84134 M  -77.87112 41.52527 C  -77.16824 43.45639 -76.21829 45.10175 -74.89734 46.67603 M  -80.55327 42.50148 C  -79.73323 44.75447 -78.62495 46.67403 -77.08385 48.5107 M  -81.16855 46.86285  " style="fill:none"/> 
 </g> 
 </g> 
 </g> 
 <g> 
 <g stroke="rgb(25.0%,25.0%,75.0%)"> 
 <g fill="rgb(25.0%,25.0%,75.0%)"> 
 <g> 
 <path d=" M  -85.82494 32.03313 C  -85.82494 35.72186 -88.78268 38.67961 -92.47142 38.67961 C  -96.16016 38.67961 -99.1179 35.72186 -99.1179 32.03313 C  -99.1179 28.34439 -96.16016 25.38664 -92.47142 25.38664 C  -88.78268 25.38664 -85.82494 28.34439 -85.82494 32.03313 Z M  -92.47142 32.03313  " style="stroke:none"/> 
 <g> 
 <g transform="matrix(1.0,0.0,0.0,1.0,-92.47142,32.03313)"> 
 <g fill="rgb(25.0%,25.0%,75.0%)"> 
 <text style="stroke:none" transform="scale(1,-1) translate(0.0,0)" text-anchor="middle"  font-size="14.4"> 
</text> 
</g> 
 </g> 
 </g> 
 </g> 
 <path d=" M  -92.47142 32.03313 M  -62.72932 32.03313 M  -65.53134 31.53906 C  -65.59062 31.87527 -65.59062 32.19098 -65.53134 32.52719 M  -68.33336 31.045 C  -68.45192 31.71745 -68.45192 32.3488 -68.33336 33.02126 M  -71.13538 30.55093 C  -71.31323 31.55965 -71.31323 32.5066 -71.13538 33.51532 M  -73.9374 30.05687 C  -74.17453 31.40182 -74.17453 32.66443 -73.9374 34.00938 M  -76.73941 29.5628 C  -77.03584 31.244 -77.03584 32.82225 -76.73941 34.50345 M  -79.54143 29.06874 C  -79.89716 31.0862 -79.89716 32.98006 -79.54143 34.99751 M  -82.34344 28.57468 C  -82.75845 30.92838 -82.75845 33.13788 -82.34344 35.49158 M  -85.13728 32.03313  " style="fill:none"/> 
 </g> 
 </g> 
 </g> 
 <g> 
 <g stroke="rgb(50.0%,50.0%,100.0%)"> 
 <g fill="rgb(50.0%,50.0%,100.0%)"> 
 <g> 
 <path d=" M  -80.86949 13.53885 C  -80.86949 17.22758 -83.82724 20.18533 -87.51598 20.18533 C  -91.20471 20.18533 -94.16246 17.22758 -94.16246 13.53885 C  -94.16246 9.85011 -91.20471 6.89236 -87.51598 6.89236 C  -83.82724 6.89236 -80.86949 9.85011 -80.86949 13.53885 Z M  -87.51598 13.53885  " style="stroke:none"/> 
 <g> 
 <g transform="matrix(1.0,0.0,0.0,1.0,-87.51598,13.53885)"> 
 <g fill="rgb(50.0%,50.0%,100.0%)"> 
 <text style="stroke:none" transform="scale(1,-1) translate(0.0,0)" text-anchor="middle"  font-size="14.4"> 
</text> 
</g> 
 </g> 
 </g> 
 </g> 
 <path d=" M  -87.51598 13.53885 M  -61.7783 28.39836 M  -63.96481 26.56367 C  -64.18494 26.82603 -64.34329 27.10033 -64.46042 27.42213 M  -66.15132 24.72899 C  -66.5916 25.25372 -66.90828 25.80225 -67.14256 26.4459 M  -68.33783 22.8943 C  -68.99829 23.68144 -69.47327 24.50414 -69.8247 25.46968 M  -70.52434 21.05962 C  -71.40495 22.10913 -72.03825 23.20605 -72.50685 24.49345 M  -72.71083 19.22493 C  -73.81161 20.53682 -74.60324 21.90797 -75.18898 23.51723 M  -74.89734 17.39024 C  -76.21829 18.96452 -77.16824 20.60988 -77.87112 22.541 M  -77.08385 15.55557 C  -78.62495 17.39224 -79.73323 19.3118 -80.55327 21.56479 M  -81.16855 17.20341  " style="fill:none"/> 
 </g> 
 </g> 
 </g> 
 </g> 
 </g> 
 </g> 
 </g> 
 </g> 
 </g> 
 </g> 
 </g> 
 </g> 
 </g> 
 </g> 
 </g> 
 </g> 
 
                                              </g> 
</svg> 
