<svg xmlns="http://www.w3.org/2000/svg" xmlns:xlink="http://www.w3.org/1999/xlink" width="60.87431pt" height="45.53308pt" viewBox="-30.43716 -21.58636 60.87431 45.53308 "> 
<g transform="translate(0, 23.94672 ) scale(1,-1) translate(0,21.58636 )"> 
                 <g> 
 <g stroke="rgb(0.0%,0.0%,0.0%)"> 
 <g fill="rgb(0.0%,0.0%,0.0%)"> 
 <g stroke-width="0.4pt"> 
 <g> 
 </g> 
 <path d=" M  23.43196 21.3864 L  -30.23717 -9.59941 L  -23.43198 -21.38637 L  30.23715 9.59944 Z M  -23.43198 -21.38637  " style="fill:none"/> 
 <g> 
 <g transform="matrix(0.86603,0.5,-0.5,0.86603,-22.21202,-16.83344)"> 
 <g fill="rgb(0.0%,0.0%,0.0%)"> 
 <text style="stroke:none" transform="scale(1,-1) translate(27.65283,0)" text-anchor="middle"  font-size="10"> 
Hello World!</text> 
</g> 
 </g> 
 </g> 
 <path d=" M  -1.77055 7.06671 C  -2.32555 8.02798 -3.54134 8.35376 -4.50261 7.79877 C  -5.46388 7.24377 -5.78966 6.02798 -5.23466 5.06671 C  -4.67967 4.10544 -3.46388 3.77966 -2.50261 4.33466 C  -1.54134 4.88965 -1.21556 6.10544 -1.77055 7.06671 Z M  -3.50261 6.06671 M  5.23463 -5.06667 C  4.67964 -4.1054 3.46385 -3.77962 2.50258 -4.33461 C  1.5413 -4.8896 1.21553 -6.1054 1.77052 -7.06667 C  2.32552 -8.02794 3.5413 -8.35371 4.50258 -7.79872 C  5.46385 -7.24373 5.78963 -6.02794 5.23463 -5.06667 Z M  3.50258 -6.06667 M  28.73991 16.59296 C  28.18492 17.55423 26.96913 17.88 26.00786 17.32501 C  25.04659 16.77002 24.72081 15.55423 25.2758 14.59296 C  25.8308 13.63168 27.04659 13.30591 28.00786 13.8609 C  28.96913 14.4159 29.2949 15.63168 28.73991 16.59296 Z M  27.00786 15.59296 M  -25.2758 -14.59296 C  -25.8308 -13.63168 -27.04659 -13.30591 -28.00786 -13.8609 C  -28.96913 -14.4159 -29.2949 -15.63168 -28.73991 -16.59296 C  -28.18492 -17.55423 -26.96913 -17.88 -26.00786 -17.32501 C  -25.04659 -16.77002 -24.72081 -15.55423 -25.2758 -14.59296 Z M  -27.00786 -15.59296 M  25.2373 22.65967 C  24.68231 23.62094 23.46652 23.94672 22.50525 23.39172 C  21.54398 22.83673 21.2182 21.62094 21.7732 20.65967 C  22.32819 19.6984 23.54398 19.37262 24.50525 19.92761 C  25.46652 20.4826 25.7923 21.6984 25.2373 22.65967 Z M  23.50525 21.65967  " style="stroke:none"/> 
 </g> 
 </g> 
 </g> 
 </g> 
 
                  </g> 
</svg> 
