<svg xmlns="http://www.w3.org/2000/svg" xmlns:xlink="http://www.w3.org/1999/xlink" width="87.45822pt" height="78.54503pt" viewBox="-30.45274 -35.76593 87.45822 78.54503 "> 
<g transform="translate(0, 42.7791 ) scale(1,-1) translate(0,35.76593 )"> 
                 <g> 
 <g stroke="rgb(0.0%,0.0%,0.0%)"> 
 <g fill="rgb(0.0%,0.0%,0.0%)"> 
 <g stroke-width="0.4pt"> 
 <g> 
 </g> 
 <g> 
 <g> 
 <g stroke="rgb(50.0%,50.0%,50.0%)"> 
 <g fill="rgb(50.0%,50.0%,50.0%)"> 
 <g stroke-width="0.2pt"> 
 <path d=" M  0.0 0.0 M  0.0 0.0 L  56.90549 0.0 M  0.0 28.45274 L  56.90549 28.45274 M  0.0 0.0 L  0.0 42.67911 M  28.45274 0.0 L  28.45274 42.67911 M  56.8955 0.0 L  56.8955 42.67911  " style="fill:none"/> 
 </g> 
 </g> 
 </g> 
 </g> 
 <path d=" M  -28.45274 -35.56593 h  56.90549 v  71.13187 h  -56.90549 Z  " style="fill:none"/> 
 <path d=" M  7.0 5.0 C  7.0 6.10999 6.10999 7.0 5.0 7.0 C  3.89001 7.0 3.0 6.10999 3.0 5.0 C  3.0 3.89001 3.89001 3.0 5.0 3.0 C  6.10999 3.0 7.0 3.89001 7.0 5.0 Z M  5.0 5.0 M  -8.0 5.0 C  -8.0 6.10999 -8.89001 7.0 -10.0 7.0 C  -11.10999 7.0 -12.0 6.10999 -12.0 5.0 C  -12.0 3.89001 -11.10999 3.0 -10.0 3.0 C  -8.89001 3.0 -8.0 3.89001 -8.0 5.0 Z M  -10.0 5.0  " style="stroke:none"/> 
 <g stroke="rgb(100.0%,0.0%,0.0%)"> 
 <g fill="rgb(100.0%,0.0%,0.0%)"> 
 <path d=" M  30.45274 28.4523 C  30.45274 29.56229 29.56273 30.4523 28.45274 30.4523 C  27.34276 30.4523 26.45274 29.56229 26.45274 28.4523 C  26.45274 27.34232 27.34276 26.4523 28.45274 26.4523 C  29.56273 26.4523 30.45274 27.34232 30.45274 28.4523 Z M  28.45274 28.4523 M  -26.45274 14.22507 C  -26.45274 15.33505 -27.34276 16.22507 -28.45274 16.22507 C  -29.56273 16.22507 -30.45274 15.33505 -30.45274 14.22507 C  -30.45274 13.11508 -29.56273 12.22507 -28.45274 12.22507 C  -27.34276 12.22507 -26.45274 13.11508 -26.45274 14.22507 Z M  -28.45274 14.22507  " style="stroke:none"/> 
 </g> 
 </g> 
 </g> 
 </g> 
 </g> 
 </g> 
 </g> 
 
                          </g> 
</svg> 
