<svg xmlns="http://www.w3.org/2000/svg" xmlns:xlink="http://www.w3.org/1999/xlink" width="85.55821pt" height="59.00548pt" viewBox="-0.09999 -2.0 85.55821 59.00548 "> 
<g transform="translate(0, 57.00548 ) scale(1,-1) translate(0,2.0 )"> 
        <g> 
 <g stroke="rgb(0.0%,0.0%,0.0%)"> 
 <g fill="rgb(0.0%,0.0%,0.0%)"> 
 <g stroke-width="0.4pt"> 
 <g> 
 </g> 
 <g> 
 <g> 
 <g stroke="rgb(50.0%,50.0%,50.0%)"> 
 <g fill="rgb(50.0%,50.0%,50.0%)"> 
 <g stroke-width="0.2pt"> 
 <path d=" M  0.0 0.0 M  0.0 0.0 L  85.35823 0.0 M  0.0 28.45274 L  85.35823 28.45274 M  0.0 56.8955 L  85.35823 56.8955 M  0.0 0.0 L  0.0 56.90549 M  28.45274 0.0 L  28.45274 56.90549 M  56.90549 0.0 L  56.90549 56.90549 M  85.34824 0.0 L  85.34824 56.90549  " style="fill:none"/> 
 </g> 
 </g> 
 </g> 
 </g> 
 <path d=" M  44.67911 0.0 C  44.67911 1.10999 43.7891 2.0 42.67911 2.0 C  41.56912 2.0 40.67911 1.10999 40.67911 0.0 C  40.67911 -1.10999 41.56912 -2.0 42.67911 -2.0 C  43.7891 -2.0 44.67911 -1.10999 44.67911 0.0 Z M  42.67911 0.0  " style="stroke:none"/> 
 </g> 
 </g> 
 </g> 
 </g> 
 </g> 
                   </g> 
</svg> 
