<svg xmlns="http://www.w3.org/2000/svg" xmlns:xlink="http://www.w3.org/1999/xlink" width="68.43256pt" height="40.39645pt" viewBox="-5.97188 -5.48575 68.43256 40.39645 "> 
<g transform="translate(0, 34.9107 ) scale(1,-1) translate(0,5.48575 )"> 
          <g> 
 <g stroke="rgb(0.0%,0.0%,0.0%)"> 
 <g fill="rgb(0.0%,0.0%,0.0%)"> 
 <g stroke-width="0.4pt"> 
 <g> 
 </g> 
 <g> 
 <g> 
 <g stroke="rgb(50.0%,50.0%,50.0%)"> 
 <g fill="rgb(50.0%,50.0%,50.0%)"> 
 <path d=" M  0.0 0.0 M  28.45274 28.45274 M  56.90549 14.22636  " style="fill:none"/> 
 <g> 
 <g> 
 <g transform="matrix(1.0,0.0,0.0,1.0,-2.6389,-2.15277)"> 
 <g fill="rgb(50.0%,50.0%,50.0%)"> 
 <text style="stroke:none" transform="scale(1,-1) translate(2.6389,0)" text-anchor="middle"  font-size="10"> 
x</text> 
</g> 
 </g> 
 </g> 
 </g> 
 <g> 
 <g> 
 <g transform="matrix(1.0,0.0,0.0,1.0,25.81384,27.27219)"> 
 <g fill="rgb(50.0%,50.0%,50.0%)"> 
 <text style="stroke:none" transform="scale(1,-1) translate(2.6389,0)" text-anchor="middle"  font-size="10"> 
y</text> 
</g> 
 </g> 
 </g> 
 </g> 
 <g> 
 <g> 
 <g transform="matrix(1.0,0.0,0.0,1.0,54.68327,12.0736)"> 
 <g fill="rgb(50.0%,50.0%,50.0%)"> 
 <text style="stroke:none" transform="scale(1,-1) translate(2.22221,0)" text-anchor="middle"  font-size="10"> 
z</text> 
</g> 
 </g> 
 </g> 
 </g> 
 </g> 
 </g> 
 </g> 
 <path d=" M  4.0 0.0 C  4.0 2.21997 2.21997 4.0 0.0 4.0 C  -2.21997 4.0 -4.0 2.21997 -4.0 0.0 C  -4.0 -2.21997 -2.21997 -4.0 0.0 -4.0 C  2.21997 -4.0 4.0 -2.21997 4.0 0.0 Z M  0.0 0.0  " style="fill:none"/> 
 <path d=" M  32.45274 28.45274 C  32.45274 30.67271 30.67271 32.45274 28.45274 32.45274 C  26.23277 32.45274 24.45274 30.67271 24.45274 28.45274 C  24.45274 26.23277 26.23277 24.45274 28.45274 24.45274 C  30.67271 24.45274 32.45274 26.23277 32.45274 28.45274 Z M  28.45274 28.45274  " style="fill:none"/> 
 <path d=" M  60.9055 14.22636 C  60.9055 16.44633 59.12547 18.22636 56.9055 18.22636 C  54.68553 18.22636 52.9055 16.44633 52.9055 14.22636 C  52.9055 12.0064 54.68553 10.22636 56.9055 10.22636 C  59.12547 10.22636 60.9055 12.0064 60.9055 14.22636 Z M  56.9055 14.22636  " style="fill:none"/> 
 <path d="  " style="fill:none"/> 
 </g> 
 </g> 
 </g> 
 </g> 
 </g> 
          </g> 
</svg> 
