<svg xmlns="http://www.w3.org/2000/svg" xmlns:xlink="http://www.w3.org/1999/xlink" width="64.03284pt" height="82.04958pt" viewBox="-23.26733 -56.71002 64.03284 82.04958 "> 
<g transform="translate(0, 25.33955 ) scale(1,-1) translate(0,56.71002 )"> 
               <g> 
 <g stroke="rgb(0.0%,0.0%,0.0%)"> 
 <g fill="rgb(0.0%,0.0%,0.0%)"> 
 <g stroke-width="0.4pt"> 
 <g> 
 </g> 
 <g> 
 <path d=" M  0.0 0.0 L  28.45274 0.0 M  0.0 0.0 L  36.9613 21.33955 M  0.0 0.0 L  -13.36847 4.86577 M  0.0 0.0 L  -19.46313 -53.47394 M  0.0 0.0 L  11.38113 -19.71277  " style="fill:none"/> 
 <g> 
 <g fill="rgb(100.0%,100.0%,100.0%)"> 
 <g stroke="rgb(100.0%,0.0%,0.0%)"> 
 <path d=" M  28.45274 4.0 L  32.25694 1.23608 L  30.80388 -3.23608 L  26.10161 -3.23608 L  24.64854 1.23608 Z  " /> 
 <path d=" M  36.9613 25.33955 L  40.7655 22.57564 L  39.31244 18.10347 L  34.61017 18.10347 L  33.1571 22.57564 Z  " /> 
 <path d=" M  -13.36847 8.86577 L  -9.56427 6.10185 L  -11.01733 1.62968 L  -15.7196 1.62968 L  -17.17267 6.10185 Z  " /> 
 <path d=" M  -19.46313 -49.47394 L  -15.65894 -52.23785 L  -17.112 -56.71002 L  -21.81427 -56.71002 L  -23.26733 -52.23785 Z  " /> 
 <path d=" M  11.38113 -15.71277 L  15.18533 -18.47668 L  13.73227 -22.94885 L  9.03 -22.94885 L  7.57693 -18.47668 Z  " /> 
 </g> 
 </g> 
 </g> 
 </g> 
 </g> 
 </g> 
 </g> 
 </g> 
 
                   </g> 
</svg> 
