<svg xmlns="http://www.w3.org/2000/svg" xmlns:xlink="http://www.w3.org/1999/xlink" width="42.67912pt" height="10.76385pt" viewBox="0.0 -2.15277 42.67912 10.76385 "> 
<g transform="translate(0, 8.61108 ) scale(1,-1) translate(0,2.15277 )"> 
        <g> 
 <g stroke="rgb(0.0%,0.0%,0.0%)"> 
 <g fill="rgb(0.0%,0.0%,0.0%)"> 
 <g stroke-width="0.4pt"> 
 <g> 
 </g> 
 <g> 
 <g stroke-width="4.30554pt"> 
 <path d=" M  8.61108 2.15277 L  34.06804 2.15277  " style="fill:none"/> 
 <g> 
 <g transform="matrix(-1.0,0.0,0.0,-1.0,8.61108,2.15277)"> 
 <g> 
 <path d=" M  -0.43057 2.15277 L  2.15277 2.15277 L  4.30554 0.0 L  2.15277 -2.15277 L  -0.43057 -2.15277 Z M  4.30554 2.15277 L  6.45831 2.15277 L  8.61108 0.0 L  6.45831 -2.15277 L  4.30554 -2.15277 L  6.45831 0.0 Z  " style="stroke:none"/> 
 </g> 
 </g> 
 </g> 
 <g> 
 <g transform="matrix(1.0,0.0,0.0,1.0,34.06804,2.15277)"> 
 <g> 
 <path d=" M  -0.43057 2.15277 L  2.15277 2.15277 L  4.30554 0.0 L  2.15277 -2.15277 L  -0.43057 -2.15277 Z M  4.30554 2.15277 L  6.45831 2.15277 L  8.61108 0.0 L  6.45831 -2.15277 L  4.30554 -2.15277 L  6.45831 0.0 Z  " style="stroke:none"/> 
 </g> 
 </g> 
 </g> 
 </g> 
 </g> 
 </g> 
 </g> 
 </g> 
 </g> 
      </g> 
</svg> 
