<svg xmlns="http://www.w3.org/2000/svg" xmlns:xlink="http://www.w3.org/1999/xlink" width="70.93256pt" height="70.40475pt" viewBox="-7.08298 -35.20238 70.93256 70.40475 "> 
<g transform="translate(0, 35.20238 ) scale(1,-1) translate(0,35.20238 )"> 
          <g> 
 <g stroke="rgb(0.0%,0.0%,0.0%)"> 
 <g fill="rgb(0.0%,0.0%,0.0%)"> 
 <g stroke-width="0.4pt"> 
 <g> 
 </g> 
 <g> 
 <g> 
 <g> 
 <g transform="matrix(1.0,0.0,0.0,1.0,-3.75,-3.41666)"> 
 <g fill="rgb(0.0%,0.0%,0.0%)"> 
 <text style="stroke:none" transform="scale(1,-1) translate(3.75,0)" text-anchor="middle"  font-size="10"> 
A</text> 
</g> 
 </g> 
 </g> 
 </g> 
 <g> 
 <g> 
 <g transform="matrix(1.0,0.0,0.0,1.0,53.36382,25.03609)"> 
 <g fill="rgb(0.0%,0.0%,0.0%)"> 
 <text style="stroke:none" transform="scale(1,-1) translate(3.54167,0)" text-anchor="middle"  font-size="10"> 
B</text> 
</g> 
 </g> 
 </g> 
 </g> 
 <g> 
 <g> 
 <g transform="matrix(1.0,0.0,0.0,1.0,53.29437,-31.8694)"> 
 <g fill="rgb(0.0%,0.0%,0.0%)"> 
 <text style="stroke:none" transform="scale(1,-1) translate(3.61111,0)" text-anchor="middle"  font-size="10"> 
C</text> 
</g> 
 </g> 
 </g> 
 </g> 
 <path d=" M  7.28297 3.64125 C  6.66238 4.88225 7.15984 6.37491 8.40083 6.9955 C  9.64183 7.61609 11.196 6.99568 11.7551 5.87766 C  11.1345 7.11865 11.63196 8.61131 12.87296 9.2319 C  14.11395 9.8525 15.66812 9.23209 16.22722 8.11406 C  15.60663 9.35506 16.10408 10.84772 17.34508 11.4683 C  18.58607 12.0889 20.14024 11.46849 20.69934 10.35046 C  20.07875 11.59146 20.5762 13.08412 21.8172 13.70471 C  23.0582 14.3253 24.61237 13.7049 25.17146 12.58687 C  24.55087 13.82787 25.04832 15.32053 26.28932 15.94112 C  27.53032 16.5617 29.08449 15.9413 29.64359 14.82327 C  29.023 16.06427 29.52045 17.55693 30.76144 18.17752 C  32.00244 18.79811 33.55661 18.1777 34.1157 17.05968 C  33.49512 18.30067 33.99257 19.79333 35.23357 20.41393 C  36.47456 21.03452 38.02873 20.41411 38.58783 19.29608 C  37.96724 20.53708 38.46469 22.02974 39.70569 22.65033 C  40.94669 23.27092 42.50085 22.65051 43.05995 21.53249 C  42.43936 22.77348 42.93681 24.26614 44.17781 24.88673 C  45.41881 25.50732 46.97298 24.88692 47.53207 23.76889 L  49.82556 24.9158  " style="fill:none"/> 
 <g> 
 <g stroke="rgb(100.0%,0.0%,0.0%)"> 
 <g fill="rgb(100.0%,0.0%,0.0%)"> 
 <g stroke-width="0.8pt"> 
 <path d=" M  7.28297 -3.64171 C  7.90352 -2.40071 10.3912 -2.4008 12.87321 -3.6419 C  15.35521 -4.883 16.78627 -6.99619 16.22722 -8.11421 C  16.84776 -6.87321 19.33545 -6.8733 21.81746 -8.11441 C  24.29945 -9.3555 25.73051 -11.46869 25.17146 -12.58672 C  25.792 -11.34572 28.2797 -11.34581 30.7617 -12.58691 C  33.2437 -13.828 34.67476 -15.9412 34.1157 -17.05922 C  34.73625 -15.81822 37.22394 -15.81831 39.70595 -17.05942 C  42.18794 -18.3005 43.619 -20.4137 43.05995 -21.53172 L  49.75612 -24.88008  " style="fill:none"/> 
 </g> 
 </g> 
 </g> 
 </g> 
 </g> 
 </g> 
 </g> 
 </g> 
 </g> 
 
                     </g> 
</svg> 
