<svg xmlns="http://www.w3.org/2000/svg" xmlns:xlink="http://www.w3.org/1999/xlink" width="114.11096pt" height="87.10106pt" viewBox="-0.2 -35.13249 114.11096 87.10106 "> 
<g transform="translate(0, 51.96857 ) scale(1,-1) translate(0,35.13249 )"> 
        <g> 
 <g stroke="rgb(0.0%,0.0%,0.0%)"> 
 <g fill="rgb(0.0%,0.0%,0.0%)"> 
 <g stroke-width="0.4pt"> 
 <g> 
 </g> 
 <g> 
 <g> 
 <g stroke="rgb(50.0%,50.0%,50.0%)"> 
 <g fill="rgb(50.0%,50.0%,50.0%)"> 
 <g stroke-width="0.2pt"> 
 <path d=" M  0.0 -28.45274 M  0.0 -28.45274 L  113.81097 -28.45274 M  0.0 0.0 L  113.81097 0.0 M  0.0 28.44275 L  113.81097 28.44275 M  0.0 -28.45274 L  0.0 28.45274 M  28.45274 -28.45274 L  28.45274 28.45274 M  56.90549 -28.45274 L  56.90549 28.45274 M  85.35823 -28.45274 L  85.35823 28.45274 M  113.80098 -28.45274 L  113.80098 28.45274  " style="fill:none"/> 
 </g> 
 </g> 
 </g> 
 </g> 
 <path d=" M  0.0 0.0 L  1.00594 0.0356 L  2.01187 0.1424 L  3.0178 0.31953 L  4.0233 0.567 L  5.02968 0.88437 L  6.03517 1.27077 L  7.0411 1.72488 L  8.04749 2.24588 L  9.05298 2.83199 L  10.05936 3.48277 L  11.06485 4.19522 L  12.07079 4.96889 L  13.07672 5.80074 L  14.08266 6.68901 L  15.0886 7.63156 L  16.09453 8.6262 L  17.10046 9.6699 L  18.10597 10.76007 L  19.11234 11.89409 L  20.11827 13.06891 L  21.12378 14.2815 L  22.13014 15.52882 L  23.13565 16.80655 L  24.14159 18.11292 L  25.14752 19.4436 L  26.15346 20.79512 L  27.1594 22.16357 L  28.16533 23.54549 L  29.17126 24.93695 L  30.1772 26.33406 L  31.18314 27.73334 L  32.18907 29.13002 L  33.195 30.52104 L  34.20094 31.90166 L  35.20644 33.26794 L  36.21281 34.616 L  37.2183 35.94147 L  38.22424 37.24045 L  39.23018 38.50949 L  40.23611 39.74336 L  41.24205 40.93901 L  42.24799 42.09213 L  43.25392 43.19879 L  44.25986 44.25465 L  45.2658 45.25668 L  46.27173 46.20053 L  47.27766 47.08273 L  48.2836 47.89981 L  49.28911 48.64743 L  50.29547 49.32384 L  51.30098 49.92384 L  52.30692 50.4457 L  53.31285 50.88506 L  54.31879 51.2402 L  55.32472 51.50764 L  56.33066 51.68434 L  57.3366 51.76857 L  58.34253 51.75728 L  59.34846 51.64874 L  60.3544 51.44034 L  61.36034 51.1308 L  62.36627 50.71748 L  63.37178 50.19997 L  64.37814 49.57608 L  65.38365 48.84497 L  66.38959 48.00531 L  67.39552 47.05669 L  68.40146 45.99866 L  69.4074 44.83034 L  70.41333 43.55133 L  71.41927 42.16246 L  72.4252 40.66333 L  73.43114 39.05435 L  74.43707 37.33641 L  75.44301 35.51035 L  76.44894 33.5775 L  77.45444 31.53827 L  78.46082 29.39528 L  79.46631 27.14897 L  80.47224 24.80237 L  81.47862 22.35721 L  82.48412 19.81523 L  83.49005 17.17992 L  84.49599 14.45299 L  85.50192 11.63837 L  86.50786 8.73865 L  87.5138 5.75731 L  88.51973 2.69783 L  89.52524 -0.43633 L  90.5316 -3.64081 L  91.53711 -6.91173 L  92.54347 -10.24516 L  93.54941 -13.63635 L  94.55492 -17.08093 L  95.56128 -20.5737 L  96.56679 -24.11076 L  97.57272 -27.68602 L  98.57866 -31.29515 L  99.5846 -34.9325  " style="fill:none"/> 
 </g> 
 </g> 
 </g> 
 </g> 
 </g> 
 
                                  </g> 
</svg> 
